  0
SECTION
  2
HEADER
  9
$ACADVER
  1
AC1015
  9
$ACADMAINTVER
 70
     6
  9
$DWGCODEPAGE
  3
ANSI_1252
  9
$INSBASE
 10
0.0
 20
0.0
 30
0.0
  9
$EXTMIN
 10
0.0
 20
0.0
 30
0.0
  9
$EXTMAX
 10
320.0
 20
265.0
 30
0.0
  9
$LIMMIN
 10
0.0
 20
0.0
  9
$LIMMAX
 10
320.0
 20
265.0
  9
$ORTHOMODE
 70
     0
  9
$REGENMODE
 70
     1
  9
$FILLMODE
 70
     1
  9
$QTEXTMODE
 70
     0
  9
$MIRRTEXT
 70
     1
  9
$LTSCALE
 40
1.0
  9
$ATTMODE
 70
     1
  9
$TEXTSIZE
 40
3.5
  9
$TRACEWID
 40
1.0
  9
$TEXTSTYLE
  7
Standard
  9
$CLAYER
  8
0
  9
$CELTYPE
  6
ByLayer
  9
$CECOLOR
 62
   256
  9
$CELTSCALE
 40
1.0
  9
$DISPSILH
 70
     0
  9
$DIMSCALE
 40
1.0
  9
$DIMASZ
 40
3.302
  9
$DIMEXO
 40
1.0
  9
$DIMDLI
 40
3.75
  9
$DIMRND
 40
0.0
  9
$DIMDLE
 40
0.0
  9
$DIMEXE
 40
1.0
  9
$DIMTP
 40
0.0
  9
$DIMTM
 40
0.0
  9
$DIMTXT
 40
3.5
  9
$DIMCEN
 40
2.5
  9
$DIMTSZ
 40
0.0
  9
$DIMTOL
 70
     0
  9
$DIMLIM
 70
     0
  9
$DIMTIH
 70
     1
  9
$DIMTOH
 70
     1
  9
$DIMSE1
 70
     0
  9
$DIMSE2
 70
     0
  9
$DIMTAD
 70
     1
  9
$DIMZIN
 70
     0
  9
$DIMBLK
  1

  9
$DIMASO
 70
     1
  9
$DIMSHO
 70
     1
  9
$DIMPOST
  1

  9
$DIMAPOST
  1

  9
$DIMALT
 70
     0
  9
$DIMALTD
 70
     3
  9
$DIMALTF
 40
0.0393700787
  9
$DIMLFAC
 40
1.0
  9
$DIMTOFL
 70
     1
  9
$DIMTVP
 40
0.0
  9
$DIMTIX
 70
     0
  9
$DIMSOXD
 70
     0
  9
$DIMSAH
 70
     0
  9
$DIMBLK1
  1

  9
$DIMBLK2
  1

  9
$DIMSTYLE
  2
ISO-25
  9
$DIMCLRD
 70
     0
  9
$DIMCLRE
 70
     0
  9
$DIMCLRT
 70
     0
  9
$DIMTFAC
 40
1.0
  9
$DIMGAP
 40
1.524
  9
$DIMJUST
 70
     0
  9
$DIMSD1
 70
     0
  9
$DIMSD2
 70
     0
  9
$DIMTOLJ
 70
     0
  9
$DIMTZIN
 70
     0
  9
$DIMALTZ
 70
     0
  9
$DIMALTTZ
 70
     0
  9
$DIMUPT
 70
     0
  9
$DIMDEC
 70
     2
  9
$DIMTDEC
 70
     2
  9
$DIMALTU
 70
     2
  9
$DIMALTTD
 70
     3
  9
$DIMTXSTY
  7
Standard
  9
$DIMAUNIT
 70
     0
  9
$DIMADEC
 70
     2
  9
$DIMALTRND
 40
0.0
  9
$DIMAZIN
 70
     0
  9
$DIMDSEP
 70
    44
  9
$DIMATFIT
 70
     3
  9
$DIMFRAC
 70
     0
  9
$DIMLDRBLK
  1

  9
$DIMLUNIT
 70
     2
  9
$DIMLWD
 70
    -2
  9
$DIMLWE
 70
    -2
  9
$DIMTMOVE
 70
     0
  9
$LUNITS
 70
     2
  9
$LUPREC
 70
     2
  9
$SKETCHINC
 40
1.0
  9
$FILLETRAD
 40
10.0
  9
$AUNITS
 70
     0
  9
$AUPREC
 70
     2
  9
$MENU
  1
.
  9
$ELEVATION
 40
0.0
  9
$PELEVATION
 40
0.0
  9
$THICKNESS
 40
0.0
  9
$LIMCHECK
 70
     0
  9
$CHAMFERA
 40
0.0
  9
$CHAMFERB
 40
0.0
  9
$CHAMFERC
 40
0.0
  9
$CHAMFERD
 40
0.0
  9
$SKPOLY
 70
     0
  9
$TDCREATE
 40
2457373.530274456
  9
$TDUCREATE
 40
2457373.092774456
  9
$TDUPDATE
 40
2457373.530274746
  9
$TDUUPDATE
 40
2457373.092774746
  9
$TDINDWG
 40
0.0000000116
  9
$TDUSRTIMER
 40
0.0000000116
  9
$USRTIMER
 70
     1
  9
$ANGBASE
 50
0.0
  9
$ANGDIR
 70
     0
  9
$PDMODE
 70
     0
  9
$PDSIZE
 40
-1.0
  9
$PLINEWID
 40
0.0
  9
$SPLFRAME
 70
     0
  9
$SPLINETYPE
 70
     6
  9
$SPLINESEGS
 70
     8
  9
$HANDSEED
  5
23B
  9
$SURFTAB1
 70
     6
  9
$SURFTAB2
 70
     6
  9
$SURFTYPE
 70
     6
  9
$SURFU
 70
     6
  9
$SURFV
 70
     6
  9
$UCSBASE
  2

  9
$UCSNAME
  2

  9
$UCSORG
 10
0.0
 20
0.0
 30
0.0
  9
$UCSXDIR
 10
1.0
 20
0.0
 30
0.0
  9
$UCSYDIR
 10
0.0
 20
1.0
 30
0.0
  9
$UCSORTHOREF
  2

  9
$UCSORTHOVIEW
 70
     0
  9
$UCSORGTOP
 10
0.0
 20
0.0
 30
0.0
  9
$UCSORGBOTTOM
 10
0.0
 20
0.0
 30
0.0
  9
$UCSORGLEFT
 10
0.0
 20
0.0
 30
0.0
  9
$UCSORGRIGHT
 10
0.0
 20
0.0
 30
0.0
  9
$UCSORGFRONT
 10
0.0
 20
0.0
 30
0.0
  9
$UCSORGBACK
 10
0.0
 20
0.0
 30
0.0
  9
$PUCSBASE
  2

  9
$PUCSNAME
  2

  9
$PUCSORG
 10
0.0
 20
0.0
 30
0.0
  9
$PUCSXDIR
 10
1.0
 20
0.0
 30
0.0
  9
$PUCSYDIR
 10
0.0
 20
1.0
 30
0.0
  9
$PUCSORTHOREF
  2

  9
$PUCSORTHOVIEW
 70
     0
  9
$PUCSORGTOP
 10
0.0
 20
0.0
 30
0.0
  9
$PUCSORGBOTTOM
 10
0.0
 20
0.0
 30
0.0
  9
$PUCSORGLEFT
 10
0.0
 20
0.0
 30
0.0
  9
$PUCSORGRIGHT
 10
0.0
 20
0.0
 30
0.0
  9
$PUCSORGFRONT
 10
0.0
 20
0.0
 30
0.0
  9
$PUCSORGBACK
 10
0.0
 20
0.0
 30
0.0
  9
$USERI1
 70
     0
  9
$USERI2
 70
     0
  9
$USERI3
 70
     0
  9
$USERI4
 70
     0
  9
$USERI5
 70
     0
  9
$USERR1
 40
0.0
  9
$USERR2
 40
0.0
  9
$USERR3
 40
0.0
  9
$USERR4
 40
0.0
  9
$USERR5
 40
0.0
  9
$WORLDVIEW
 70
     1
  9
$SHADEDGE
 70
     3
  9
$SHADEDIF
 70
    70
  9
$TILEMODE
 70
     1
  9
$MAXACTVP
 70
    64
  9
$PINSBASE
 10
0.0
 20
0.0
 30
0.0
  9
$PLIMCHECK
 70
     0
  9
$PEXTMIN
 10
1.0000000000E+20
 20
1.0000000000E+20
 30
1.0000000000E+20
  9
$PEXTMAX
 10
-1.0000000000E+20
 20
-1.0000000000E+20
 30
-1.0000000000E+20
  9
$PLIMMIN
 10
0.0
 20
0.0
  9
$PLIMMAX
 10
420.0
 20
297.0
  9
$UNITMODE
 70
     0
  9
$VISRETAIN
 70
     1
  9
$PLINEGEN
 70
     0
  9
$PSLTSCALE
 70
     1
  9
$TREEDEPTH
 70
  3020
  9
$CMLSTYLE
  2
Standard
  9
$CMLJUST
 70
     0
  9
$CMLSCALE
 40
20.0
  9
$PROXYGRAPHICS
 70
     1
  9
$MEASUREMENT
 70
     1
  9
$CELWEIGHT
370
    -1
  9
$ENDCAPS
280
     0
  9
$JOINSTYLE
280
     0
  9
$LWDISPLAY
290
     1
  9
$INSUNITS
 70
     4
  9
$HYPERLINKBASE
  1

  9
$STYLESHEET
  1

  9
$XEDIT
290
     1
  9
$CEPSNTYPE
380
     0
  9
$PSTYLEMODE
290
     1
  9
$FINGERPRINTGUID
  2
{05F7DC70-7C8B-479D-9117-72F6CC01CD11}
  9
$VERSIONGUID
  2
{FAEB1C32-E019-11D5-929B-00C0DF256EC4}
  9
$EXTNAMES
290
     1
  9
$PSVPSCALE
 40
0.0
  9
$OLESTARTUP
290
     0
  0
ENDSEC
  0
SECTION
  2
CLASSES
  0
CLASS
  1
ACDBDICTIONARYWDFLT
  2
AcDbDictionaryWithDefault
  3
ObjectDBX Classes
 90
        0
280
     0
281
     0
  0
CLASS
  1
VISUALSTYLE
  2
AcDbVisualStyle
  3
ObjectDBX Classes
 90
     4095
280
     0
281
     0
  0
CLASS
  1
MATERIAL
  2
AcDbMaterial
  3
ObjectDBX Classes
 90
     1153
280
     0
281
     0
  0
CLASS
  1
SCALE
  2
AcDbScale
  3
ObjectDBX Classes
 90
     1153
280
     0
281
     0
  0
CLASS
  1
TABLESTYLE
  2
AcDbTableStyle
  3
ObjectDBX Classes
 90
     4095
280
     0
281
     0
  0
CLASS
  1
MLEADERSTYLE
  2
AcDbMLeaderStyle
  3
ACDB_MLEADERSTYLE_CLASS
 90
     4095
280
     0
281
     0
  0
CLASS
  1
SUN
  2
AcDbSun
  3
SCENEOE
 90
     1153
280
     0
281
     0
  0
CLASS
  1
ACDBPLACEHOLDER
  2
AcDbPlaceHolder
  3
ObjectDBX Classes
 90
        0
280
     0
281
     0
  0
CLASS
  1
LAYOUT
  2
AcDbLayout
  3
ObjectDBX Classes
 90
        0
280
     0
281
     0
  0
ENDSEC
  0
SECTION
  2
TABLES
  0
TABLE
  2
VPORT
  5
8
330
0
100
AcDbSymbolTable
 70
     1
  0
VPORT
  5
29
330
8
100
AcDbSymbolTableRecord
100
AcDbViewportTableRecord
  2
*Active
 70
     0
 10
0.0
 20
0.0
 11
1.0
 21
1.0
 12
160.0
 22
132.5
 13
0.0
 23
0.0
 14
10.0
 24
10.0
 15
10.0
 25
10.0
 16
0.0
 26
0.0
 36
1.0
 17
0.0
 27
0.0
 37
0.0
 40
265.0
 41
1.2075471698
 42
50.0
 43
0.0
 44
0.0
 50
0.0
 51
0.0
 71
     0
 72
  2000
 73
     1
 74
     3
 75
     0
 76
     0
 77
     0
 78
     0
281
     0
 65
     1
110
0.0
120
0.0
130
0.0
111
1.0
121
0.0
131
0.0
112
0.0
122
1.0
132
0.0
 79
     0
146
0.0
  0
ENDTAB
  0
TABLE
  2
LTYPE
  5
5
330
0
100
AcDbSymbolTable
 70
     6
  0
LTYPE
  5
14
330
5
100
AcDbSymbolTableRecord
100
AcDbLinetypeTableRecord
  2
ByBlock
 70
     0
  3

 72
    65
 73
     0
 40
0.0
  0
LTYPE
  5
15
330
5
100
AcDbSymbolTableRecord
100
AcDbLinetypeTableRecord
  2
ByLayer
 70
     0
  3

 72
    65
 73
     0
 40
0.0
  0
LTYPE
  5
16
330
5
100
AcDbSymbolTableRecord
100
AcDbLinetypeTableRecord
  2
Continuous
 70
     0
  3
Solid line
 72
    65
 73
     0
 40
0.0
  0
LTYPE
  5
6E
330
5
100
AcDbSymbolTableRecord
100
AcDbLinetypeTableRecord
  2
HIDDEN
 70
     0
  3
Hidden __ __ __ __ __ __ __ __ __ __ __ __ __ __
 72
    65
 73
     2
 40
1.905
 49
1.27
 74
     0
 49
-0.635
 74
     0
  0
LTYPE
  5
6F
330
5
100
AcDbSymbolTableRecord
100
AcDbLinetypeTableRecord
  2
PHANTOM
 70
     0
  3
Phantom ______  __  __  ______  __  __  ______
 72
    65
 73
     6
 40
12.7
 49
6.35
 74
     0
 49
-1.27
 74
     0
 49
1.27
 74
     0
 49
-1.27
 74
     0
 49
1.27
 74
     0
 49
-1.27
 74
     0
  0
LTYPE
  5
70
330
5
100
AcDbSymbolTableRecord
100
AcDbLinetypeTableRecord
  2
CENTER
 70
     0
  3
Center ____ _ ____ _ ____ _ ____ _ ____ _ ____
 72
    65
 73
     4
 40
10.16
 49
6.35
 74
     0
 49
-1.27
 74
     0
 49
1.27
 74
     0
 49
-1.27
 74
     0
  0
LTYPE
  5
71
330
5
100
AcDbSymbolTableRecord
100
AcDbLinetypeTableRecord
  2
CENTERX2
 70
     0
  3
Center (2x) ________  __  ________  __  _____
 72
    65
 73
     4
 40
20.32
 49
12.7
 74
     0
 49
-2.54
 74
     0
 49
2.54
 74
     0
 49
-2.54
 74
     0
  0
LTYPE
  5
72
330
5
100
AcDbSymbolTableRecord
100
AcDbLinetypeTableRecord
  2
DOT2
 70
     0
  3
Dot (.5x) ........................................
 72
    65
 73
     2
 40
0.635
 49
0.0
 74
     0
 49
-0.635
 74
     0
  0
ENDTAB
  0
TABLE
  2
LAYER
  5
2
330
0
100
AcDbSymbolTable
 70
     2
  0
LAYER
  5
10
330
2
100
AcDbSymbolTableRecord
100
AcDbLayerTableRecord
  2
0
 70
     0
 62
     7
  6
Continuous
370
    -3
390
F
  0
LAYER
  5
73
330
2
100
AcDbSymbolTableRecord
100
AcDbLayerTableRecord
  2
FORMAT
 70
     0
 62
     7
  6
Continuous
370
    -3
390
F
  0
ENDTAB
  0
TABLE
  2
STYLE
  5
3
330
0
100
AcDbSymbolTable
 70
     1
  0
STYLE
  5
11
330
3
100
AcDbSymbolTableRecord
100
AcDbTextStyleTableRecord
  2
Standard
 70
     0
 40
0.0
 41
1.0
 50
0.0
 71
     0
 42
3.5
  3
txt
  4

  0
ENDTAB
  0
TABLE
  2
VIEW
  5
6
330
0
100
AcDbSymbolTable
 70
     0
  0
ENDTAB
  0
TABLE
  2
UCS
  5
7
330
0
100
AcDbSymbolTable
 70
     0
  0
ENDTAB
  0
TABLE
  2
APPID
  5
9
330
0
100
AcDbSymbolTable
 70
     1
  0
APPID
  5
12
330
9
100
AcDbSymbolTableRecord
100
AcDbRegAppTableRecord
  2
ACAD
 70
     0
  0
ENDTAB
  0
TABLE
  2
DIMSTYLE
  5
A
330
0
100
AcDbSymbolTable
 70
     1
100
AcDbDimStyleTable
  0
DIMSTYLE
105
27
330
A
100
AcDbSymbolTableRecord
100
AcDbDimStyleTableRecord
  2
ISO-25
 70
     0
 41
2.5
 42
0.625
 43
3.75
 44
1.25
 73
     0
 74
     0
 77
     1
 78
     8
140
2.5
141
2.5
143
0.0393700787
147
0.625
171
     3
172
     1
178
     0
271
     2
272
     2
274
     3
278
    44
283
     0
284
     8
340
11
  0
ENDTAB
  0
TABLE
  2
BLOCK_RECORD
  5
1
330
0
100
AcDbSymbolTable
 70
     1
  0
BLOCK_RECORD
  5
1F
330
1
100
AcDbSymbolTableRecord
100
AcDbBlockTableRecord
  2
*Model_Space
340
22
  0
BLOCK_RECORD
  5
1B
330
1
100
AcDbSymbolTableRecord
100
AcDbBlockTableRecord
  2
*Paper_Space
340
1E
  0
BLOCK_RECORD
  5
23
330
1
100
AcDbSymbolTableRecord
100
AcDbBlockTableRecord
  2
*Paper_Space0
340
26
  0
ENDTAB
  0
ENDSEC
  0
SECTION
  2
BLOCKS
  0
BLOCK
  5
20
330
1F
100
AcDbEntity
  8
0
100
AcDbBlockBegin
  2
*Model_Space
 70
     0
 10
0.0
 20
0.0
 30
0.0
  3
*Model_Space
  1

  0
ENDBLK
  5
21
330
1F
100
AcDbEntity
  8
0
100
AcDbBlockEnd
  0
BLOCK
  5
1C
330
1B
100
AcDbEntity
 67
     1
  8
0
100
AcDbBlockBegin
  2
*Paper_Space
 70
     0
 10
0.0
 20
0.0
 30
0.0
  3
*Paper_Space
  1

  0
ENDBLK
  5
1D
330
1B
100
AcDbEntity
 67
     1
  8
0
100
AcDbBlockEnd
  0
BLOCK
  5
24
330
23
100
AcDbEntity
  8
0
100
AcDbBlockBegin
  2
*Paper_Space0
 70
     0
 10
0.0
 20
0.0
 30
0.0
  3
*Paper_Space0
  1

  0
ENDBLK
  5
25
330
23
100
AcDbEntity
  8
0
100
AcDbBlockEnd
  0
ENDSEC
  0
SECTION
  2
ENTITIES
  0
ARC
  5
74
330
1F
100
AcDbEntity
  8
0
  6
Continuous
 62
     7
370
    15
100
AcDbCircle
 10
239.2261938289
 20
68.6267583321
 30
0.0
 40
2.950000000000003
100
AcDbArc
 50
180.0
 51
270.0
  0
LINE
  5
75
330
1F
100
AcDbEntity
  8
0
  6
Continuous
 62
     7
370
    15
100
AcDbLine
 10
250.2261936382
 20
65.6767596378
 30
0.0
 11
239.2261936978
 21
65.6767596378
 31
0.0
  0
LINE
  5
76
330
1F
100
AcDbEntity
  8
0
  6
Continuous
 62
     7
370
    15
100
AcDbLine
 10
250.2261936382
 20
65.6767596378
 30
0.0
 11
250.2261936382
 21
61.1767579689
 31
0.0
  0
LINE
  5
77
330
1F
100
AcDbEntity
  8
0
  6
Continuous
 62
     7
370
    15
100
AcDbLine
 10
250.2261936382
 20
61.1767579689
 30
0.0
 11
249.4261949972
 21
61.1767579689
 31
0.0
  0
ARC
  5
78
330
1F
100
AcDbEntity
  8
0
  6
Continuous
 62
     7
370
    15
100
AcDbCircle
 10
249.4261938289
 20
60.6767583321
 30
0.0
 40
0.5
100
AcDbArc
 50
90.0
 51
180.0
  0
LINE
  5
79
330
1F
100
AcDbEntity
  8
0
  6
Continuous
 62
     7
370
    15
100
AcDbLine
 10
248.9261865333
 20
60.6767569556
 30
0.0
 11
248.9261865333
 21
58.1767593398
 31
0.0
  0
ARC
  5
7A
330
1F
100
AcDbEntity
  8
0
  6
Continuous
 62
     7
370
    15
100
AcDbCircle
 10
249.4261938289
 20
58.1767583321
 30
0.0
 40
0.5000000000000071
100
AcDbArc
 50
180.0
 51
270.0
  0
LINE
  5
7B
330
1F
100
AcDbEntity
  8
0
  6
Continuous
 62
     7
370
    15
100
AcDbLine
 10
249.4261949972
 20
57.6767583265
 30
0.0
 11
250.2261936382
 21
57.6767583265
 31
0.0
  0
LINE
  5
7C
330
1F
100
AcDbEntity
  8
0
  6
Continuous
 62
     7
370
    15
100
AcDbLine
 10
250.2261936382
 20
57.6767583265
 30
0.0
 11
250.2261936382
 21
53.6767576709
 31
0.0
  0
LINE
  5
7D
330
1F
100
AcDbEntity
  8
0
  6
Continuous
 62
     7
370
    15
100
AcDbLine
 10
250.2261936382
 20
53.6767576709
 30
0.0
 11
253.3261865095
 21
53.6767576709
 31
0.0
  0
LINE
  5
7E
330
1F
100
AcDbEntity
  8
0
  6
Continuous
 62
     7
370
    15
100
AcDbLine
 10
253.3261865095
 20
53.6767576709
 30
0.0
 11
253.3261865095
 21
57.6767583265
 31
0.0
  0
LINE
  5
7F
330
1F
100
AcDbEntity
  8
0
  6
Continuous
 62
     7
370
    15
100
AcDbLine
 10
253.3261865095
 20
57.6767583265
 30
0.0
 11
254.1262000517
 21
57.6767583265
 31
0.0
  0
ARC
  5
80
330
1F
100
AcDbEntity
  8
0
  6
Continuous
 62
     7
370
    15
100
AcDbCircle
 10
254.1261938289
 20
58.1767583321
 30
0.0
 40
0.5000000000000071
100
AcDbArc
 50
270.0
 51
0.0
  0
LINE
  5
81
330
1F
100
AcDbEntity
  8
0
  6
Continuous
 62
     7
370
    15
100
AcDbLine
 10
254.6261936144
 20
58.1767593398
 30
0.0
 11
254.6261936144
 21
60.6767569556
 31
0.0
  0
ARC
  5
82
330
1F
100
AcDbEntity
  8
0
  6
Continuous
 62
     7
370
    15
100
AcDbCircle
 10
254.1261938289
 20
60.6767583321
 30
0.0
 40
0.5
100
AcDbArc
 50
0.0
 51
90.0
  0
LINE
  5
83
330
1F
100
AcDbEntity
  8
0
  6
Continuous
 62
     7
370
    15
100
AcDbLine
 10
254.1262000517
 20
61.1767579689
 30
0.0
 11
253.3261865095
 21
61.1767579689
 31
0.0
  0
LINE
  5
84
330
1F
100
AcDbEntity
  8
0
  6
Continuous
 62
     7
370
    15
100
AcDbLine
 10
253.3261865095
 20
61.1767579689
 30
0.0
 11
253.3261865095
 21
65.6767596378
 31
0.0
  0
LINE
  5
85
330
1F
100
AcDbEntity
  8
0
  6
Continuous
 62
     7
370
    15
100
AcDbLine
 10
261.7761879877
 20
65.6767596378
 30
0.0
 11
253.3261865095
 21
65.6767596378
 31
0.0
  0
LINE
  5
86
330
1F
100
AcDbEntity
  8
0
  6
Continuous
 62
     7
370
    15
100
AcDbLine
 10
261.7761879877
 20
70.1767575815
 30
0.0
 11
261.7761879877
 21
65.6767596378
 31
0.0
  0
LINE
  5
87
330
1F
100
AcDbEntity
  8
0
  6
Continuous
 62
     7
370
    15
100
AcDbLine
 10
271.7761933521
 20
70.1767575815
 30
0.0
 11
261.7761879877
 21
70.1767575815
 31
0.0
  0
LINE
  5
88
330
1F
100
AcDbEntity
  8
0
  6
Continuous
 62
     7
370
    15
100
AcDbLine
 10
271.7761933521
 20
65.6767596378
 30
0.0
 11
271.7761933521
 21
70.1767575815
 31
0.0
  0
LINE
  5
89
330
1F
100
AcDbEntity
  8
0
  6
Continuous
 62
     7
370
    15
100
AcDbLine
 10
280.2261948303
 20
65.6767596378
 30
0.0
 11
271.7761933521
 21
65.6767596378
 31
0.0
  0
LINE
  5
8A
330
1F
100
AcDbEntity
  8
0
  6
Continuous
 62
     7
370
    15
100
AcDbLine
 10
280.2261948303
 20
65.6767596378
 30
0.0
 11
280.2261948303
 21
61.1767579689
 31
0.0
  0
LINE
  5
8B
330
1F
100
AcDbEntity
  8
0
  6
Continuous
 62
     7
370
    15
100
AcDbLine
 10
280.2261948303
 20
61.1767579689
 30
0.0
 11
279.4261961893
 21
61.1767579689
 31
0.0
  0
ARC
  5
8C
330
1F
100
AcDbEntity
  8
0
  6
Continuous
 62
     7
370
    15
100
AcDbCircle
 10
279.4261938289
 20
60.6767583321
 30
0.0
 40
0.5000000000000568
100
AcDbArc
 50
90.0
 51
180.0
  0
LINE
  5
8D
330
1F
100
AcDbEntity
  8
0
  6
Continuous
 62
     7
370
    15
100
AcDbLine
 10
278.9261877254
 20
60.6767569556
 30
0.0
 11
278.9261877254
 21
58.1767593398
 31
0.0
  0
ARC
  5
8E
330
1F
100
AcDbEntity
  8
0
  6
Continuous
 62
     7
370
    15
100
AcDbCircle
 10
279.4261938289
 20
58.1767583321
 30
0.0
 40
0.5000000000000568
100
AcDbArc
 50
180.0
 51
270.0
  0
LINE
  5
8F
330
1F
100
AcDbEntity
  8
0
  6
Continuous
 62
     7
370
    15
100
AcDbLine
 10
279.4261961893
 20
57.6767583265
 30
0.0
 11
280.2261948303
 21
57.6767583265
 31
0.0
  0
LINE
  5
90
330
1F
100
AcDbEntity
  8
0
  6
Continuous
 62
     7
370
    15
100
AcDbLine
 10
280.2261948303
 20
57.6767583265
 30
0.0
 11
280.2261948303
 21
53.6767576709
 31
0.0
  0
LINE
  5
91
330
1F
100
AcDbEntity
  8
0
  6
Continuous
 62
     7
370
    15
100
AcDbLine
 10
280.2261948303
 20
53.6767576709
 30
0.0
 11
283.3261877016
 21
53.6767576709
 31
0.0
  0
LINE
  5
92
330
1F
100
AcDbEntity
  8
0
  6
Continuous
 62
     7
370
    15
100
AcDbLine
 10
283.3261877016
 20
53.6767576709
 30
0.0
 11
283.3261877016
 21
57.6767583265
 31
0.0
  0
LINE
  5
93
330
1F
100
AcDbEntity
  8
0
  6
Continuous
 62
     7
370
    15
100
AcDbLine
 10
283.3261877016
 20
57.6767583265
 30
0.0
 11
284.1262012438
 21
57.6767583265
 31
0.0
  0
ARC
  5
94
330
1F
100
AcDbEntity
  8
0
  6
Continuous
 62
     7
370
    15
100
AcDbCircle
 10
284.1261938289
 20
58.1767583321
 30
0.0
 40
0.5
100
AcDbArc
 50
270.0
 51
0.0
  0
LINE
  5
95
330
1F
100
AcDbEntity
  8
0
  6
Continuous
 62
     7
370
    15
100
AcDbLine
 10
284.6261948064
 20
58.1767593398
 30
0.0
 11
284.6261948064
 21
60.6767569556
 31
0.0
  0
ARC
  5
96
330
1F
100
AcDbEntity
  8
0
  6
Continuous
 62
     7
370
    15
100
AcDbCircle
 10
284.1261938289
 20
60.6767583321
 30
0.0
 40
0.5
100
AcDbArc
 50
0.0
 51
90.0
  0
LINE
  5
97
330
1F
100
AcDbEntity
  8
0
  6
Continuous
 62
     7
370
    15
100
AcDbLine
 10
284.1262012438
 20
61.1767579689
 30
0.0
 11
283.3261877016
 21
61.1767579689
 31
0.0
  0
LINE
  5
98
330
1F
100
AcDbEntity
  8
0
  6
Continuous
 62
     7
370
    15
100
AcDbLine
 10
283.3261877016
 20
61.1767579689
 30
0.0
 11
283.3261877016
 21
65.6767596378
 31
0.0
  0
LINE
  5
99
330
1F
100
AcDbEntity
  8
0
  6
Continuous
 62
     7
370
    15
100
AcDbLine
 10
294.2761867956
 20
65.6767596378
 30
0.0
 11
283.3261877016
 21
65.6767596378
 31
0.0
  0
LINE
  5
9A
330
1F
100
AcDbEntity
  8
0
  6
Continuous
 62
     7
370
    15
100
AcDbLine
 10
294.2761867956
 20
11.6767619624
 30
0.0
 11
294.2761867956
 21
65.6767596378
 31
0.0
  0
LINE
  5
9B
330
1F
100
AcDbEntity
  8
0
  6
Continuous
 62
     7
370
    15
100
AcDbLine
 10
239.2761945442
 20
11.6767619624
 30
0.0
 11
294.2761867956
 21
11.6767619624
 31
0.0
  0
ARC
  5
9C
330
1F
100
AcDbEntity
  8
0
  6
Continuous
 62
     7
370
    15
100
AcDbCircle
 10
239.2261938289
 20
56.7267583321
 30
0.0
 40
2.949999999999996
100
AcDbArc
 50
90.0
 51
180.0
  0
LINE
  5
9D
330
1F
100
AcDbEntity
  8
0
  6
Continuous
 62
     7
370
    15
100
AcDbLine
 10
236.2761959151
 20
50.6767590418
 30
0.0
 11
236.2761959151
 21
56.7267571463
 31
0.0
  0
ARC
  5
9E
330
1F
100
AcDbEntity
  8
0
  6
Continuous
 62
     7
370
    15
100
AcDbCircle
 10
236.7761938289
 20
54.1408599472
 30
0.0
 40
3.500000000000028
100
AcDbArc
 50
180.0
 51
261.7867892983
  0
LINE
  5
9F
330
1F
100
AcDbEntity
  8
0
  6
Continuous
 62
     7
370
    15
100
AcDbLine
 10
233.276197286
 20
65.2126555219
 30
0.0
 11
233.276197286
 21
54.1408617868
 31
0.0
  0
ARC
  5
A0
330
1F
100
AcDbEntity
  8
0
  6
Continuous
 62
     7
370
    15
100
AcDbCircle
 10
236.7761938289
 20
65.212656717
 30
0.0
 40
3.500000000000028
100
AcDbArc
 50
98.2132107017
 51
180.0
  0
LINE
  5
A1
330
1F
100
AcDbEntity
  8
0
  6
Continuous
 62
     7
370
    15
100
AcDbLine
 10
236.2761959151
 20
68.6267574205
 30
0.0
 11
236.2761959151
 21
68.6767582669
 31
0.0
  0
LINE
  5
A2
330
1F
100
AcDbEntity
  8
0
  6
Continuous
 62
     7
370
    15
100
AcDbLine
 10
291.9511884168
 20
50.6017614975
 30
0.0
 11
287.6011967376
 21
50.6017614975
 31
0.0
  0
LINE
  5
A3
330
1F
100
AcDbEntity
  8
0
  6
Continuous
 62
     7
370
    15
100
AcDbLine
 10
287.6011967376
 20
50.6017614975
 30
0.0
 11
287.6011967376
 21
40.7517586722
 31
0.0
  0
LINE
  5
A4
330
1F
100
AcDbEntity
  8
0
  6
Continuous
 62
     7
370
    15
100
AcDbLine
 10
287.6011967376
 20
40.7517586722
 30
0.0
 11
291.9511884168
 21
40.7517586722
 31
0.0
  0
LINE
  5
A5
330
1F
100
AcDbEntity
  8
0
  6
Continuous
 62
     7
370
    15
100
AcDbLine
 10
291.9511884168
 20
40.7517586722
 30
0.0
 11
291.9511884168
 21
50.6017614975
 31
0.0
  0
LINE
  5
A6
330
1F
100
AcDbEntity
  8
0
  6
Continuous
 62
     7
370
    15
100
AcDbLine
 10
245.9511920527
 20
50.6017614975
 30
0.0
 11
241.6011929229
 21
50.6017614975
 31
0.0
  0
LINE
  5
A7
330
1F
100
AcDbEntity
  8
0
  6
Continuous
 62
     7
370
    15
100
AcDbLine
 10
241.6011929229
 20
50.6017614975
 30
0.0
 11
241.6011929229
 21
40.7517586722
 31
0.0
  0
LINE
  5
A8
330
1F
100
AcDbEntity
  8
0
  6
Continuous
 62
     7
370
    15
100
AcDbLine
 10
241.6011929229
 20
40.7517586722
 30
0.0
 11
245.9511920527
 21
40.7517586722
 31
0.0
  0
LINE
  5
A9
330
1F
100
AcDbEntity
  8
0
  6
Continuous
 62
     7
370
    15
100
AcDbLine
 10
245.9511920527
 20
40.7517586722
 30
0.0
 11
245.9511920527
 21
50.6017614975
 31
0.0
  0
LINE
  5
AA
330
1F
100
AcDbEntity
  8
0
  6
Continuous
 62
     7
370
    15
100
AcDbLine
 10
245.9511920527
 20
30.6017582192
 30
0.0
 11
241.6011929229
 21
30.6017582192
 31
0.0
  0
LINE
  5
AB
330
1F
100
AcDbEntity
  8
0
  6
Continuous
 62
     7
370
    15
100
AcDbLine
 10
241.6011929229
 20
30.6017582192
 30
0.0
 11
241.6011929229
 21
20.751755394
 31
0.0
  0
LINE
  5
AC
330
1F
100
AcDbEntity
  8
0
  6
Continuous
 62
     7
370
    15
100
AcDbLine
 10
241.6011929229
 20
20.751755394
 30
0.0
 11
245.9511920527
 21
20.751755394
 31
0.0
  0
LINE
  5
AD
330
1F
100
AcDbEntity
  8
0
  6
Continuous
 62
     7
370
    15
100
AcDbLine
 10
245.9511920527
 20
20.751755394
 30
0.0
 11
245.9511920527
 21
30.6017582192
 31
0.0
  0
LINE
  5
AE
330
1F
100
AcDbEntity
  8
0
  6
Continuous
 62
     7
370
    15
100
AcDbLine
 10
287.6011967376
 20
20.751755394
 30
0.0
 11
291.9511884168
 21
20.751755394
 31
0.0
  0
LINE
  5
AF
330
1F
100
AcDbEntity
  8
0
  6
Continuous
 62
     7
370
    15
100
AcDbLine
 10
291.9511884168
 20
20.751755394
 30
0.0
 11
291.9511884168
 21
30.6017582192
 31
0.0
  0
LINE
  5
B0
330
1F
100
AcDbEntity
  8
0
  6
Continuous
 62
     7
370
    15
100
AcDbLine
 10
291.9511884168
 20
30.6017582192
 30
0.0
 11
287.6011967376
 21
30.6017582192
 31
0.0
  0
LINE
  5
B1
330
1F
100
AcDbEntity
  8
0
  6
Continuous
 62
     7
370
    15
100
AcDbLine
 10
287.6011967376
 20
30.6017582192
 30
0.0
 11
287.6011967376
 21
20.751755394
 31
0.0
  0
CIRCLE
  5
B2
330
1F
100
AcDbEntity
  8
0
  6
Continuous
 62
     7
370
    15
100
AcDbCircle
 10
258.7761938289
 20
18.2167583321
 30
0.0
 40
1.449999999999992
  0
CIRCLE
  5
B3
330
1F
100
AcDbEntity
  8
0
  6
Continuous
 62
     7
370
    15
100
AcDbCircle
 10
274.7761938289
 20
18.2167583321
 30
0.0
 40
1.449999999999992
  0
CIRCLE
  5
B4
330
1F
100
AcDbEntity
  8
0
  6
Continuous
 62
     7
370
    15
100
AcDbCircle
 10
243.7761938289
 20
58.1767583321
 30
0.0
 40
1.449999999999996
  0
CIRCLE
  5
B5
330
1F
100
AcDbEntity
  8
0
  6
Continuous
 62
     7
370
    15
100
AcDbCircle
 10
289.7761938289
 20
58.1767583321
 30
0.0
 40
1.449999999999996
  0
ARC
  5
B6
330
1F
100
AcDbEntity
  8
0
  6
Continuous
 62
     7
370
    15
100
AcDbCircle
 10
266.7761938289
 20
39.6767583321
 30
0.0
 40
6.000000000000007
100
AcDbArc
 50
90.0
 51
270.0
  0
LINE
  5
B7
330
1F
100
AcDbEntity
  8
0
  6
Continuous
 62
     7
370
    15
100
AcDbLine
 10
266.7761981205
 20
33.6767618432
 30
0.0
 11
269.2553937153
 21
33.6767618432
 31
0.0
  0
ARC
  5
B8
330
1F
100
AcDbEntity
  8
0
  6
Continuous
 62
     7
370
    15
100
AcDbCircle
 10
275.2761938289
 20
39.6767583321
 30
0.0
 40
8.500000000000021
100
AcDbArc
 50
224.900872156
 51
135.099127844
  0
LINE
  5
B9
330
1F
100
AcDbEntity
  8
0
  6
Continuous
 62
     7
370
    15
100
AcDbLine
 10
269.2553937153
 20
45.6767563596
 30
0.0
 11
266.7761981205
 21
45.6767563596
 31
0.0
  0
LINE
  5
BA
330
1F
100
AcDbEntity
  8
0
  6
Continuous
 62
     7
370
    15
100
AcDbLine
 10
239.2261936978
 20
59.6767586543
 30
0.0
 11
239.2761945442
 21
59.6767586543
 31
0.0
  0
LINE
  5
BB
330
1F
100
AcDbEntity
  8
0
  6
Continuous
 62
     7
370
    15
100
AcDbLine
 10
239.2761945442
 20
59.6767586543
 30
0.0
 11
239.2761945442
 21
11.6767619624
 31
0.0
  0
CIRCLE
  5
BC
330
1F
100
AcDbEntity
  8
0
  6
Continuous
 62
     7
370
    15
100
AcDbCircle
 10
283.2761938289
 20
95.4738901932
 30
0.0
 40
1.449999999999989
  0
CIRCLE
  5
BD
330
1F
100
AcDbEntity
  8
0
  6
Continuous
 62
     7
370
    15
100
AcDbCircle
 10
283.2761938289
 20
119.4738901932
 30
0.0
 40
1.449999999999989
  0
ARC
  5
BE
330
1F
100
AcDbEntity
  8
0
  6
Continuous
 62
     7
370
    15
100
AcDbCircle
 10
307.2761938289
 20
119.4738901932
 30
0.0
 40
3.499999999999996
100
AcDbArc
 50
196.3506117757
 51
253.6493882244
  0
ARC
  5
BF
330
1F
100
AcDbEntity
  8
0
  6
Continuous
 62
     7
370
    15
100
AcDbCircle
 10
295.2761938289
 20
107.4738901932
 30
0.0
 40
14.00000000000001
100
AcDbArc
 50
51.8841453474
 51
38.1158546526
  0
CIRCLE
  5
C0
330
1F
100
AcDbEntity
  8
0
  6
Continuous
 62
     7
370
    15
100
AcDbCircle
 10
307.2761938289
 20
119.4738901932
 30
0.0
 40
1.450000000000003
  0
CIRCLE
  5
C1
330
1F
100
AcDbEntity
  8
0
  6
Continuous
 62
     7
370
    15
100
AcDbCircle
 10
307.2761938289
 20
95.4738901932
 30
0.0
 40
1.450000000000003
  0
ARC
  5
C2
330
1F
100
AcDbEntity
  8
0
  6
Continuous
 62
     7
370
    15
100
AcDbCircle
 10
307.2761938289
 20
119.4738901932
 30
0.0
 40
3.500000000000007
100
AcDbArc
 50
345.7564430827
 51
104.2435569173
  0
ARC
  5
C3
330
1F
100
AcDbEntity
  8
0
  6
Continuous
 62
     7
370
    15
100
AcDbCircle
 10
295.2761938289
 20
107.4738901932
 30
0.0
 40
19.00000000000001
100
AcDbArc
 50
330.2756708529
 51
35.8916994039
  0
LINE
  5
C4
330
1F
100
AcDbEntity
  8
0
  6
Continuous
 62
     7
370
    15
100
AcDbLine
 10
311.7761999086
 20
98.0531682148
 30
0.0
 11
311.7761999086
 21
79.4738900735
 31
0.0
  0
LINE
  5
C5
330
1F
100
AcDbEntity
  8
0
  6
Continuous
 62
     7
370
    15
100
AcDbLine
 10
311.7761999086
 20
79.4738900735
 30
0.0
 11
307.8262000993
 21
79.4738900735
 31
0.0
  0
LINE
  5
C6
330
1F
100
AcDbEntity
  8
0
  6
Continuous
 62
     7
370
    15
100
AcDbLine
 10
307.8262000993
 20
83.9738917425
 30
0.0
 11
307.8262000993
 21
79.4738900735
 31
0.0
  0
LINE
  5
C7
330
1F
100
AcDbEntity
  8
0
  6
Continuous
 62
     7
370
    15
100
AcDbLine
 10
308.6261987404
 20
83.9738917425
 30
0.0
 11
307.8262000993
 21
83.9738917425
 31
0.0
  0
ARC
  5
C8
330
1F
100
AcDbEntity
  8
0
  6
Continuous
 62
     7
370
    15
100
AcDbCircle
 10
308.6261938289
 20
84.4738901932
 30
0.0
 40
0.5
100
AcDbArc
 50
270.0
 51
0.0
  0
LINE
  5
C9
330
1F
100
AcDbEntity
  8
0
  6
Continuous
 62
     7
370
    15
100
AcDbLine
 10
309.1261923031
 20
86.9738903715
 30
0.0
 11
309.1261923031
 21
84.4738890304
 31
0.0
  0
ARC
  5
CA
330
1F
100
AcDbEntity
  8
0
  6
Continuous
 62
     7
370
    15
100
AcDbCircle
 10
308.6261938289
 20
86.9738901932
 30
0.0
 40
0.5
100
AcDbArc
 50
0.0
 51
90.0
  0
LINE
  5
CB
330
1F
100
AcDbEntity
  8
0
  6
Continuous
 62
     7
370
    15
100
AcDbLine
 10
307.8262000993
 20
87.4738913848
 30
0.0
 11
308.6261987404
 21
87.4738913848
 31
0.0
  0
LINE
  5
CC
330
1F
100
AcDbEntity
  8
0
  6
Continuous
 62
     7
370
    15
100
AcDbLine
 10
307.8262000993
 20
91.4738901778
 30
0.0
 11
307.8262000993
 21
87.4738913848
 31
0.0
  0
LINE
  5
CD
330
1F
100
AcDbEntity
  8
0
  6
Continuous
 62
     7
370
    15
100
AcDbLine
 10
304.7261923269
 20
91.4738901778
 30
0.0
 11
307.8262000993
 21
91.4738901778
 31
0.0
  0
LINE
  5
CE
330
1F
100
AcDbEntity
  8
0
  6
Continuous
 62
     7
370
    15
100
AcDbLine
 10
304.7261923269
 20
87.4738913848
 30
0.0
 11
304.7261923269
 21
91.4738901778
 31
0.0
  0
LINE
  5
CF
330
1F
100
AcDbEntity
  8
0
  6
Continuous
 62
     7
370
    15
100
AcDbLine
 10
303.9261936859
 20
87.4738913848
 30
0.0
 11
304.7261923269
 21
87.4738913848
 31
0.0
  0
ARC
  5
D0
330
1F
100
AcDbEntity
  8
0
  6
Continuous
 62
     7
370
    15
100
AcDbCircle
 10
303.9261938289
 20
86.9738901932
 30
0.0
 40
0.5
100
AcDbArc
 50
90.0
 51
180.0
  0
LINE
  5
D1
330
1F
100
AcDbEntity
  8
0
  6
Continuous
 62
     7
370
    15
100
AcDbLine
 10
303.4262001232
 20
84.4738890304
 30
0.0
 11
303.4262001232
 21
86.9738903715
 31
0.0
  0
ARC
  5
D2
330
1F
100
AcDbEntity
  8
0
  6
Continuous
 62
     7
370
    15
100
AcDbCircle
 10
303.9261938289
 20
84.4738901932
 30
0.0
 40
0.5
100
AcDbArc
 50
180.0
 51
270.0
  0
LINE
  5
D3
330
1F
100
AcDbEntity
  8
0
  6
Continuous
 62
     7
370
    15
100
AcDbLine
 10
304.7261923269
 20
83.9738917425
 30
0.0
 11
303.9261936859
 21
83.9738917425
 31
0.0
  0
LINE
  5
D4
330
1F
100
AcDbEntity
  8
0
  6
Continuous
 62
     7
370
    15
100
AcDbLine
 10
304.7261923269
 20
79.4738900735
 30
0.0
 11
304.7261923269
 21
83.9738917425
 31
0.0
  0
LINE
  5
D5
330
1F
100
AcDbEntity
  8
0
  6
Continuous
 62
     7
370
    15
100
AcDbLine
 10
304.7261923269
 20
79.4738900735
 30
0.0
 11
289.276191564
 21
79.4738900735
 31
0.0
  0
LINE
  5
D6
330
1F
100
AcDbEntity
  8
0
  6
Continuous
 62
     7
370
    15
100
AcDbLine
 10
289.276191564
 20
79.4738900735
 30
0.0
 11
289.276191564
 21
74.9738884046
 31
0.0
  0
LINE
  5
D7
330
1F
100
AcDbEntity
  8
0
  6
Continuous
 62
     7
370
    15
100
AcDbLine
 10
289.276191564
 20
74.9738884046
 30
0.0
 11
279.2762011007
 21
74.9738884046
 31
0.0
  0
LINE
  5
D8
330
1F
100
AcDbEntity
  8
0
  6
Continuous
 62
     7
370
    15
100
AcDbLine
 10
279.2762011007
 20
74.9738884046
 30
0.0
 11
279.2762011007
 21
79.4738900735
 31
0.0
  0
LINE
  5
D9
330
1F
100
AcDbEntity
  8
0
  6
Continuous
 62
     7
370
    15
100
AcDbLine
 10
279.2762011007
 20
79.4738900735
 30
0.0
 11
276.7761885837
 21
79.4738900735
 31
0.0
  0
LINE
  5
DA
330
1F
100
AcDbEntity
  8
0
  6
Continuous
 62
     7
370
    15
100
AcDbLine
 10
276.7761885837
 20
79.4738900735
 30
0.0
 11
276.7761885837
 21
85.4238902106
 31
0.0
  0
LINE
  5
DB
330
1F
100
AcDbEntity
  8
0
  6
Continuous
 62
     7
370
    15
100
AcDbLine
 10
276.7761885837
 20
85.4238902106
 30
0.0
 11
281.2761902527
 21
85.4238902106
 31
0.0
  0
LINE
  5
DC
330
1F
100
AcDbEntity
  8
0
  6
Continuous
 62
     7
370
    15
100
AcDbLine
 10
281.2761902527
 20
85.4238902106
 30
0.0
 11
281.2761902527
 21
84.6238915696
 31
0.0
  0
ARC
  5
DD
330
1F
100
AcDbEntity
  8
0
  6
Continuous
 62
     7
370
    15
100
AcDbCircle
 10
281.7761938289
 20
84.6238901932
 30
0.0
 40
0.5
100
AcDbArc
 50
180.0
 51
270.0
  0
LINE
  5
DE
330
1F
100
AcDbEntity
  8
0
  6
Continuous
 62
     7
370
    15
100
AcDbLine
 10
281.7761987165
 20
84.1238905563
 30
0.0
 11
284.2761963323
 21
84.1238905563
 31
0.0
  0
ARC
  5
DF
330
1F
100
AcDbEntity
  8
0
  6
Continuous
 62
     7
370
    15
100
AcDbCircle
 10
284.2761938289
 20
84.6238901932
 30
0.0
 40
0.5
100
AcDbArc
 50
270.0
 51
0.0
  0
LINE
  5
E0
330
1F
100
AcDbEntity
  8
0
  6
Continuous
 62
     7
370
    15
100
AcDbLine
 10
284.776189895
 20
84.6238915696
 30
0.0
 11
284.776189895
 21
85.4238902106
 31
0.0
  0
LINE
  5
E1
330
1F
100
AcDbEntity
  8
0
  6
Continuous
 62
     7
370
    15
100
AcDbLine
 10
284.776189895
 20
85.4238902106
 30
0.0
 11
288.7761980013
 21
85.4238902106
 31
0.0
  0
LINE
  5
E2
330
1F
100
AcDbEntity
  8
0
  6
Continuous
 62
     7
370
    15
100
AcDbLine
 10
288.7761980013
 20
85.4238902106
 30
0.0
 11
288.7761980013
 21
88.5238905325
 31
0.0
  0
LINE
  5
E3
330
1F
100
AcDbEntity
  8
0
  6
Continuous
 62
     7
370
    15
100
AcDbLine
 10
288.7761980013
 20
88.5238905325
 30
0.0
 11
284.776189895
 21
88.5238905325
 31
0.0
  0
LINE
  5
E4
330
1F
100
AcDbEntity
  8
0
  6
Continuous
 62
     7
370
    15
100
AcDbLine
 10
284.776189895
 20
88.5238905325
 30
0.0
 11
284.776189895
 21
89.3238891735
 31
0.0
  0
ARC
  5
E5
330
1F
100
AcDbEntity
  8
0
  6
Continuous
 62
     7
370
    15
100
AcDbCircle
 10
284.2761938289
 20
89.3238901932
 30
0.0
 40
0.5
100
AcDbArc
 50
0.0
 51
90.0
  0
LINE
  5
E6
330
1F
100
AcDbEntity
  8
0
  6
Continuous
 62
     7
370
    15
100
AcDbLine
 10
284.2761963323
 20
89.8238901868
 30
0.0
 11
281.7761987165
 21
89.8238901868
 31
0.0
  0
ARC
  5
E7
330
1F
100
AcDbEntity
  8
0
  6
Continuous
 62
     7
370
    15
100
AcDbCircle
 10
281.7761938289
 20
89.3238901932
 30
0.0
 40
0.5
100
AcDbArc
 50
90.0
 51
180.0
  0
LINE
  5
E8
330
1F
100
AcDbEntity
  8
0
  6
Continuous
 62
     7
370
    15
100
AcDbLine
 10
281.2761902527
 20
89.3238891735
 30
0.0
 11
281.2761902527
 21
88.5238905325
 31
0.0
  0
LINE
  5
E9
330
1F
100
AcDbEntity
  8
0
  6
Continuous
 62
     7
370
    15
100
AcDbLine
 10
281.2761902527
 20
88.5238905325
 30
0.0
 11
276.7761885837
 21
88.5238905325
 31
0.0
  0
LINE
  5
EA
330
1F
100
AcDbEntity
  8
0
  6
Continuous
 62
     7
370
    15
100
AcDbLine
 10
276.7761885837
 20
94.4738906696
 30
0.0
 11
272.2761869148
 21
94.4738906696
 31
0.0
  0
LINE
  5
EB
330
1F
100
AcDbEntity
  8
0
  6
Continuous
 62
     7
370
    15
100
AcDbLine
 10
272.2761869148
 20
94.4738906696
 30
0.0
 11
272.2761869148
 21
104.473890446
 31
0.0
  0
LINE
  5
EC
330
1F
100
AcDbEntity
  8
0
  6
Continuous
 62
     7
370
    15
100
AcDbLine
 10
276.7761885837
 20
114.4738902225
 30
0.0
 11
272.2761869148
 21
114.4738902225
 31
0.0
  0
LINE
  5
ED
330
1F
100
AcDbEntity
  8
0
  6
Continuous
 62
     7
370
    15
100
AcDbLine
 10
272.2761869148
 20
114.4738902225
 30
0.0
 11
272.2761869148
 21
124.4738902318
 31
0.0
  0
LINE
  5
EE
330
1F
100
AcDbEntity
  8
0
  6
Continuous
 62
     7
370
    15
100
AcDbLine
 10
272.2761869148
 20
124.4738902318
 30
0.0
 11
276.7761885837
 21
124.4738902318
 31
0.0
  0
LINE
  5
EF
330
1F
100
AcDbEntity
  8
0
  6
Continuous
 62
     7
370
    15
100
AcDbLine
 10
276.7761885837
 20
124.4738902318
 30
0.0
 11
276.7761885837
 21
133.4738905429
 31
0.0
  0
LINE
  5
F0
330
1F
100
AcDbEntity
  8
0
  6
Continuous
 62
     7
370
    15
100
AcDbLine
 10
296.0882574037
 20
126.4565286114
 30
0.0
 11
276.7761885837
 21
133.4738905429
 31
0.0
  0
ARC
  5
F1
330
1F
100
AcDbEntity
  8
0
  6
Continuous
 62
     7
370
    15
100
AcDbCircle
 10
295.2761938289
 20
107.4738901932
 30
0.0
 40
19.00000000000001
100
AcDbArc
 50
54.1083005961
 51
87.5504300528
  0
LINE
  5
F2
330
1F
100
AcDbEntity
  8
0
  6
Continuous
 62
     7
370
    15
100
AcDbLine
 10
272.2761869148
 20
104.473890446
 30
0.0
 11
276.7761885837
 21
104.473890446
 31
0.0
  0
LINE
  5
F3
330
1F
100
AcDbEntity
  8
0
  6
Continuous
 62
     7
370
    15
100
AcDbLine
 10
276.7761885837
 20
88.5238905325
 30
0.0
 11
276.7761885837
 21
94.4738906696
 31
0.0
  0
LINE
  5
F4
330
1F
100
AcDbEntity
  8
0
  6
Continuous
 62
     7
370
    15
100
AcDbLine
 10
276.7761885837
 20
104.473890446
 30
0.0
 11
276.7761885837
 21
114.4738902225
 31
0.0
  0
CIRCLE
  5
F5
330
1F
100
AcDbEntity
  8
0
  6
Continuous
 62
     7
370
    15
100
AcDbCircle
 10
235.2761938289
 20
95.4738901932
 30
0.0
 40
1.449999999999989
  0
CIRCLE
  5
F6
330
1F
100
AcDbEntity
  8
0
  6
Continuous
 62
     7
370
    15
100
AcDbCircle
 10
235.2761938289
 20
119.4738901932
 30
0.0
 40
1.449999999999989
  0
ARC
  5
F7
330
1F
100
AcDbEntity
  8
0
  6
Continuous
 62
     7
370
    15
100
AcDbCircle
 10
259.2761938289
 20
119.4738901932
 30
0.0
 40
3.499999999999996
100
AcDbArc
 50
196.3506117757
 51
253.6493882244
  0
ARC
  5
F8
330
1F
100
AcDbEntity
  8
0
  6
Continuous
 62
     7
370
    15
100
AcDbCircle
 10
247.2761938289
 20
107.4738901932
 30
0.0
 40
14.0
100
AcDbArc
 50
51.8841453474
 51
38.1158546526
  0
CIRCLE
  5
F9
330
1F
100
AcDbEntity
  8
0
  6
Continuous
 62
     7
370
    15
100
AcDbCircle
 10
259.2761938289
 20
119.4738901932
 30
0.0
 40
1.450000000000003
  0
CIRCLE
  5
FA
330
1F
100
AcDbEntity
  8
0
  6
Continuous
 62
     7
370
    15
100
AcDbCircle
 10
259.2761938289
 20
95.4738901932
 30
0.0
 40
1.450000000000017
  0
ARC
  5
FB
330
1F
100
AcDbEntity
  8
0
  6
Continuous
 62
     7
370
    15
100
AcDbCircle
 10
259.2761938289
 20
119.4738901932
 30
0.0
 40
3.500000000000058
100
AcDbArc
 50
345.7564430827
 51
104.2435569173
  0
ARC
  5
FC
330
1F
100
AcDbEntity
  8
0
  6
Continuous
 62
     7
370
    15
100
AcDbCircle
 10
247.2761938289
 20
107.4738901932
 30
0.0
 40
19.00000000000002
100
AcDbArc
 50
330.2756708529
 51
35.8916994039
  0
LINE
  5
FD
330
1F
100
AcDbEntity
  8
0
  6
Continuous
 62
     7
370
    15
100
AcDbLine
 10
263.7761920408
 20
98.0531682148
 30
0.0
 11
263.7761920408
 21
79.4738900735
 31
0.0
  0
LINE
  5
FE
330
1F
100
AcDbEntity
  8
0
  6
Continuous
 62
     7
370
    15
100
AcDbLine
 10
263.7761920408
 20
79.4738900735
 30
0.0
 11
259.8261922315
 21
79.4738900735
 31
0.0
  0
LINE
  5
FF
330
1F
100
AcDbEntity
  8
0
  6
Continuous
 62
     7
370
    15
100
AcDbLine
 10
259.8261922315
 20
83.9738917425
 30
0.0
 11
259.8261922315
 21
79.4738900735
 31
0.0
  0
LINE
  5
100
330
1F
100
AcDbEntity
  8
0
  6
Continuous
 62
     7
370
    15
100
AcDbLine
 10
260.6261908725
 20
83.9738917425
 30
0.0
 11
259.8261922315
 21
83.9738917425
 31
0.0
  0
ARC
  5
101
330
1F
100
AcDbEntity
  8
0
  6
Continuous
 62
     7
370
    15
100
AcDbCircle
 10
260.6261938289
 20
84.4738901932
 30
0.0
 40
0.5
100
AcDbArc
 50
270.0
 51
0.0
  0
LINE
  5
102
330
1F
100
AcDbEntity
  8
0
  6
Continuous
 62
     7
370
    15
100
AcDbLine
 10
261.1261993364
 20
86.9738903715
 30
0.0
 11
261.1261993364
 21
84.4738890304
 31
0.0
  0
ARC
  5
103
330
1F
100
AcDbEntity
  8
0
  6
Continuous
 62
     7
370
    15
100
AcDbCircle
 10
260.6261938289
 20
86.9738901932
 30
0.0
 40
0.5
100
AcDbArc
 50
0.0
 51
90.0
  0
LINE
  5
104
330
1F
100
AcDbEntity
  8
0
  6
Continuous
 62
     7
370
    15
100
AcDbLine
 10
259.8261922315
 20
87.4738913848
 30
0.0
 11
260.6261908725
 21
87.4738913848
 31
0.0
  0
LINE
  5
105
330
1F
100
AcDbEntity
  8
0
  6
Continuous
 62
     7
370
    15
100
AcDbLine
 10
259.8261922315
 20
91.4738901778
 30
0.0
 11
259.8261922315
 21
87.4738913848
 31
0.0
  0
LINE
  5
106
330
1F
100
AcDbEntity
  8
0
  6
Continuous
 62
     7
370
    15
100
AcDbLine
 10
256.7261993602
 20
91.4738901778
 30
0.0
 11
259.8261922315
 21
91.4738901778
 31
0.0
  0
LINE
  5
107
330
1F
100
AcDbEntity
  8
0
  6
Continuous
 62
     7
370
    15
100
AcDbLine
 10
256.7261993602
 20
87.4738913848
 30
0.0
 11
256.7261993602
 21
91.4738901778
 31
0.0
  0
LINE
  5
108
330
1F
100
AcDbEntity
  8
0
  6
Continuous
 62
     7
370
    15
100
AcDbLine
 10
255.9262007192
 20
87.4738913848
 30
0.0
 11
256.7261993602
 21
87.4738913848
 31
0.0
  0
ARC
  5
109
330
1F
100
AcDbEntity
  8
0
  6
Continuous
 62
     7
370
    15
100
AcDbCircle
 10
255.9261938289
 20
86.9738901932
 30
0.0
 40
0.5
100
AcDbArc
 50
90.0
 51
180.0
  0
LINE
  5
10A
330
1F
100
AcDbEntity
  8
0
  6
Continuous
 62
     7
370
    15
100
AcDbLine
 10
255.4261922554
 20
84.4738890304
 30
0.0
 11
255.4261922554
 21
86.9738903715
 31
0.0
  0
ARC
  5
10B
330
1F
100
AcDbEntity
  8
0
  6
Continuous
 62
     7
370
    15
100
AcDbCircle
 10
255.9261938289
 20
84.4738901932
 30
0.0
 40
0.5
100
AcDbArc
 50
180.0
 51
270.0
  0
LINE
  5
10C
330
1F
100
AcDbEntity
  8
0
  6
Continuous
 62
     7
370
    15
100
AcDbLine
 10
256.7261993602
 20
83.9738917425
 30
0.0
 11
255.9262007192
 21
83.9738917425
 31
0.0
  0
LINE
  5
10D
330
1F
100
AcDbEntity
  8
0
  6
Continuous
 62
     7
370
    15
100
AcDbLine
 10
256.7261993602
 20
79.4738900735
 30
0.0
 11
256.7261993602
 21
83.9738917425
 31
0.0
  0
LINE
  5
10E
330
1F
100
AcDbEntity
  8
0
  6
Continuous
 62
     7
370
    15
100
AcDbLine
 10
256.7261993602
 20
79.4738900735
 30
0.0
 11
241.2761911467
 21
79.4738900735
 31
0.0
  0
LINE
  5
10F
330
1F
100
AcDbEntity
  8
0
  6
Continuous
 62
     7
370
    15
100
AcDbLine
 10
241.2761911467
 20
79.4738900735
 30
0.0
 11
241.2761911467
 21
74.9738884046
 31
0.0
  0
LINE
  5
110
330
1F
100
AcDbEntity
  8
0
  6
Continuous
 62
     7
370
    15
100
AcDbLine
 10
241.2761911467
 20
74.9738884046
 30
0.0
 11
231.2761932329
 21
74.9738884046
 31
0.0
  0
LINE
  5
111
330
1F
100
AcDbEntity
  8
0
  6
Continuous
 62
     7
370
    15
100
AcDbLine
 10
231.2761932329
 20
74.9738884046
 30
0.0
 11
231.2761932329
 21
79.4738900735
 31
0.0
  0
LINE
  5
112
330
1F
100
AcDbEntity
  8
0
  6
Continuous
 62
     7
370
    15
100
AcDbLine
 10
231.2761932329
 20
79.4738900735
 30
0.0
 11
228.7761956171
 21
79.4738900735
 31
0.0
  0
LINE
  5
113
330
1F
100
AcDbEntity
  8
0
  6
Continuous
 62
     7
370
    15
100
AcDbLine
 10
228.7761956171
 20
79.4738900735
 30
0.0
 11
228.7761956171
 21
85.4238902106
 31
0.0
  0
LINE
  5
114
330
1F
100
AcDbEntity
  8
0
  6
Continuous
 62
     7
370
    15
100
AcDbLine
 10
228.7761956171
 20
85.4238902106
 30
0.0
 11
233.276197286
 21
85.4238902106
 31
0.0
  0
LINE
  5
115
330
1F
100
AcDbEntity
  8
0
  6
Continuous
 62
     7
370
    15
100
AcDbLine
 10
233.276197286
 20
85.4238902106
 30
0.0
 11
233.276197286
 21
84.6238915696
 31
0.0
  0
ARC
  5
116
330
1F
100
AcDbEntity
  8
0
  6
Continuous
 62
     7
370
    15
100
AcDbCircle
 10
233.7761938289
 20
84.6238901932
 30
0.0
 40
0.5
100
AcDbArc
 50
180.0
 51
270.0
  0
LINE
  5
117
330
1F
100
AcDbEntity
  8
0
  6
Continuous
 62
     7
370
    15
100
AcDbLine
 10
233.7761908487
 20
84.1238905563
 30
0.0
 11
236.2761959151
 21
84.1238905563
 31
0.0
  0
ARC
  5
118
330
1F
100
AcDbEntity
  8
0
  6
Continuous
 62
     7
370
    15
100
AcDbCircle
 10
236.2761938289
 20
84.6238901932
 30
0.0
 40
0.5
100
AcDbArc
 50
270.0
 51
0.0
  0
LINE
  5
119
330
1F
100
AcDbEntity
  8
0
  6
Continuous
 62
     7
370
    15
100
AcDbLine
 10
236.7761969284
 20
84.6238915696
 30
0.0
 11
236.7761969284
 21
85.4238902106
 31
0.0
  0
LINE
  5
11A
330
1F
100
AcDbEntity
  8
0
  6
Continuous
 62
     7
370
    15
100
AcDbLine
 10
236.7761969284
 20
85.4238902106
 30
0.0
 11
240.7761901334
 21
85.4238902106
 31
0.0
  0
LINE
  5
11B
330
1F
100
AcDbEntity
  8
0
  6
Continuous
 62
     7
370
    15
100
AcDbLine
 10
240.7761901334
 20
85.4238902106
 30
0.0
 11
240.7761901334
 21
88.5238905325
 31
0.0
  0
LINE
  5
11C
330
1F
100
AcDbEntity
  8
0
  6
Continuous
 62
     7
370
    15
100
AcDbLine
 10
240.7761901334
 20
88.5238905325
 30
0.0
 11
236.7761969284
 21
88.5238905325
 31
0.0
  0
LINE
  5
11D
330
1F
100
AcDbEntity
  8
0
  6
Continuous
 62
     7
370
    15
100
AcDbLine
 10
236.7761969284
 20
88.5238905325
 30
0.0
 11
236.7761969284
 21
89.3238891735
 31
0.0
  0
ARC
  5
11E
330
1F
100
AcDbEntity
  8
0
  6
Continuous
 62
     7
370
    15
100
AcDbCircle
 10
236.2761938289
 20
89.3238901932
 30
0.0
 40
0.5
100
AcDbArc
 50
0.0
 51
90.0
  0
LINE
  5
11F
330
1F
100
AcDbEntity
  8
0
  6
Continuous
 62
     7
370
    15
100
AcDbLine
 10
236.2761959151
 20
89.8238901868
 30
0.0
 11
233.7761908487
 21
89.8238901868
 31
0.0
  0
ARC
  5
120
330
1F
100
AcDbEntity
  8
0
  6
Continuous
 62
     7
370
    15
100
AcDbCircle
 10
233.7761938289
 20
89.3238901932
 30
0.0
 40
0.5
100
AcDbArc
 50
90.0
 51
180.0
  0
LINE
  5
121
330
1F
100
AcDbEntity
  8
0
  6
Continuous
 62
     7
370
    15
100
AcDbLine
 10
233.276197286
 20
89.3238891735
 30
0.0
 11
233.276197286
 21
88.5238905325
 31
0.0
  0
LINE
  5
122
330
1F
100
AcDbEntity
  8
0
  6
Continuous
 62
     7
370
    15
100
AcDbLine
 10
233.276197286
 20
88.5238905325
 30
0.0
 11
228.7761956171
 21
88.5238905325
 31
0.0
  0
LINE
  5
123
330
1F
100
AcDbEntity
  8
0
  6
Continuous
 62
     7
370
    15
100
AcDbLine
 10
224.2761939481
 20
94.4738906696
 30
0.0
 11
224.2761939481
 21
104.473890446
 31
0.0
  0
LINE
  5
124
330
1F
100
AcDbEntity
  8
0
  6
Continuous
 62
     7
370
    15
100
AcDbLine
 10
228.7761956171
 20
104.473890446
 30
0.0
 11
228.7761956171
 21
114.4738902225
 31
0.0
  0
LINE
  5
125
330
1F
100
AcDbEntity
  8
0
  6
Continuous
 62
     7
370
    15
100
AcDbLine
 10
228.7761956171
 20
114.4738902225
 30
0.0
 11
224.2761939481
 21
114.4738902225
 31
0.0
  0
LINE
  5
126
330
1F
100
AcDbEntity
  8
0
  6
Continuous
 62
     7
370
    15
100
AcDbLine
 10
224.2761939481
 20
114.4738902225
 30
0.0
 11
224.2761939481
 21
124.4738902318
 31
0.0
  0
LINE
  5
127
330
1F
100
AcDbEntity
  8
0
  6
Continuous
 62
     7
370
    15
100
AcDbLine
 10
224.2761939481
 20
124.4738902318
 30
0.0
 11
228.7761956171
 21
124.4738902318
 31
0.0
  0
LINE
  5
128
330
1F
100
AcDbEntity
  8
0
  6
Continuous
 62
     7
370
    15
100
AcDbLine
 10
228.7761956171
 20
124.4738902318
 30
0.0
 11
228.7761956171
 21
133.4738905429
 31
0.0
  0
LINE
  5
129
330
1F
100
AcDbEntity
  8
0
  6
Continuous
 62
     7
370
    15
100
AcDbLine
 10
248.0882495359
 20
126.4565286114
 30
0.0
 11
228.7761956171
 21
133.4738905429
 31
0.0
  0
ARC
  5
12A
330
1F
100
AcDbEntity
  8
0
  6
Continuous
 62
     7
370
    15
100
AcDbCircle
 10
247.2761938289
 20
107.4738901932
 30
0.0
 40
19.00000000000001
100
AcDbArc
 50
54.1083005961
 51
87.5504300528
  0
LINE
  5
12B
330
1F
100
AcDbEntity
  8
0
  6
Continuous
 62
     7
370
    15
100
AcDbLine
 10
228.7761956171
 20
88.5238905325
 30
0.0
 11
228.7761956171
 21
94.4738906696
 31
0.0
  0
LINE
  5
12C
330
1F
100
AcDbEntity
  8
0
  6
Continuous
 62
     7
370
    15
100
AcDbLine
 10
228.7761956171
 20
94.4738906696
 30
0.0
 11
224.2761939481
 21
94.4738906696
 31
0.0
  0
LINE
  5
12D
330
1F
100
AcDbEntity
  8
0
  6
Continuous
 62
     7
370
    15
100
AcDbLine
 10
224.2761939481
 20
104.473890446
 30
0.0
 11
228.7761956171
 21
104.473890446
 31
0.0
  0
LINE
  5
12E
330
1F
100
AcDbEntity
  8
0
  6
Continuous
 62
     7
370
    15
100
AcDbLine
 10
248.7761914447
 20
165.6485271528
 30
0.0
 11
259.7761988357
 21
165.6485271528
 31
0.0
  0
LINE
  5
12F
330
1F
100
AcDbEntity
  8
0
  6
Continuous
 62
     7
370
    15
100
AcDbLine
 10
248.7761914447
 20
141.3985264375
 30
0.0
 11
248.7761914447
 21
165.6485271528
 31
0.0
  0
LINE
  5
130
330
1F
100
AcDbEntity
  8
0
  6
Continuous
 62
     7
370
    15
100
AcDbLine
 10
259.7761988357
 20
141.3985264375
 30
0.0
 11
248.7761914447
 21
141.3985264375
 31
0.0
  0
LINE
  5
131
330
1F
100
AcDbEntity
  8
0
  6
Continuous
 62
     7
370
    15
100
AcDbLine
 10
259.7761988357
 20
165.6485271528
 30
0.0
 11
259.7761988357
 21
141.3985264375
 31
0.0
  0
LINE
  5
132
330
1F
100
AcDbEntity
  8
0
  6
Continuous
 62
     7
370
    15
100
AcDbLine
 10
259.7761988357
 20
168.1485284939
 30
0.0
 11
248.7761914447
 21
168.1485284939
 31
0.0
  0
LINE
  5
133
330
1F
100
AcDbEntity
  8
0
  6
Continuous
 62
     7
370
    15
100
AcDbLine
 10
259.7761988357
 20
192.3985292091
 30
0.0
 11
259.7761988357
 21
168.1485284939
 31
0.0
  0
LINE
  5
134
330
1F
100
AcDbEntity
  8
0
  6
Continuous
 62
     7
370
    15
100
AcDbLine
 10
248.7761914447
 20
192.3985292091
 30
0.0
 11
259.7761988357
 21
192.3985292091
 31
0.0
  0
LINE
  5
135
330
1F
100
AcDbEntity
  8
0
  6
Continuous
 62
     7
370
    15
100
AcDbLine
 10
248.7761914447
 20
168.1485284939
 30
0.0
 11
248.7761914447
 21
192.3985292091
 31
0.0
  0
LINE
  5
136
330
1F
100
AcDbEntity
  8
0
  6
Continuous
 62
     7
370
    15
100
AcDbLine
 10
304.7762006239
 20
168.1485284939
 30
0.0
 11
293.7761932329
 21
168.1485284939
 31
0.0
  0
LINE
  5
137
330
1F
100
AcDbEntity
  8
0
  6
Continuous
 62
     7
370
    15
100
AcDbLine
 10
304.7762006239
 20
192.3985292091
 30
0.0
 11
304.7762006239
 21
168.1485284939
 31
0.0
  0
LINE
  5
138
330
1F
100
AcDbEntity
  8
0
  6
Continuous
 62
     7
370
    15
100
AcDbLine
 10
293.7761932329
 20
192.3985292091
 30
0.0
 11
304.7762006239
 21
192.3985292091
 31
0.0
  0
LINE
  5
139
330
1F
100
AcDbEntity
  8
0
  6
Continuous
 62
     7
370
    15
100
AcDbLine
 10
293.7761932329
 20
168.1485284939
 30
0.0
 11
293.7761932329
 21
192.3985292091
 31
0.0
  0
LINE
  5
13A
330
1F
100
AcDbEntity
  8
0
  6
Continuous
 62
     7
370
    15
100
AcDbLine
 10
304.7762006239
 20
141.3985264375
 30
0.0
 11
293.7761932329
 21
141.3985264375
 31
0.0
  0
LINE
  5
13B
330
1F
100
AcDbEntity
  8
0
  6
Continuous
 62
     7
370
    15
100
AcDbLine
 10
304.7762006239
 20
165.6485271528
 30
0.0
 11
304.7762006239
 21
141.3985264375
 31
0.0
  0
LINE
  5
13C
330
1F
100
AcDbEntity
  8
0
  6
Continuous
 62
     7
370
    15
100
AcDbLine
 10
293.7761932329
 20
165.6485271528
 30
0.0
 11
304.7762006239
 21
165.6485271528
 31
0.0
  0
LINE
  5
13D
330
1F
100
AcDbEntity
  8
0
  6
Continuous
 62
     7
370
    15
100
AcDbLine
 10
293.7761932329
 20
141.3985264375
 30
0.0
 11
293.7761932329
 21
165.6485271528
 31
0.0
  0
LINE
  5
13E
330
1F
100
AcDbEntity
  8
0
  6
Continuous
 62
     7
370
    15
100
AcDbLine
 10
314.2761975244
 20
194.3985258117
 30
0.0
 11
314.2761975244
 21
139.3985261097
 31
0.0
  0
LINE
  5
13F
330
1F
100
AcDbEntity
  8
0
  6
Continuous
 62
     7
370
    15
100
AcDbLine
 10
314.2761975244
 20
139.3985261097
 30
0.0
 11
239.2761945442
 21
139.3985261097
 31
0.0
  0
LINE
  5
140
330
1F
100
AcDbEntity
  8
0
  6
Continuous
 62
     7
370
    15
100
AcDbLine
 10
239.2761945442
 20
139.3985261097
 30
0.0
 11
239.2761945442
 21
194.3985258117
 31
0.0
  0
LINE
  5
141
330
1F
100
AcDbEntity
  8
0
  6
Continuous
 62
     7
370
    15
100
AcDbLine
 10
239.2761945442
 20
194.3985258117
 30
0.0
 11
314.2761975244
 21
194.3985258117
 31
0.0
  0
CIRCLE
  5
142
330
1F
100
AcDbEntity
  8
0
  6
Continuous
 62
     7
370
    15
100
AcDbCircle
 10
309.7761938289
 20
151.8985268845
 30
0.0
 40
1.44999999999996
  0
CIRCLE
  5
143
330
1F
100
AcDbEntity
  8
0
  6
Continuous
 62
     7
370
    15
100
AcDbCircle
 10
309.7761938289
 20
181.8985268845
 30
0.0
 40
1.450000000000017
  0
CIRCLE
  5
144
330
1F
100
AcDbEntity
  8
0
  6
Continuous
 62
     7
370
    15
100
AcDbCircle
 10
276.7761938289
 20
181.8985268845
 30
0.0
 40
1.449999999999989
  0
CIRCLE
  5
145
330
1F
100
AcDbEntity
  8
0
  6
Continuous
 62
     7
370
    15
100
AcDbCircle
 10
276.7761938289
 20
151.8985268845
 30
0.0
 40
1.450000000000017
  0
LINE
  5
146
330
1F
100
AcDbEntity
  8
0
  6
Continuous
 62
     7
370
    15
100
AcDbLine
 10
274.6012001947
 20
162.0485258176
 30
0.0
 11
274.6012001947
 21
171.7485261037
 31
0.0
  0
LINE
  5
147
330
1F
100
AcDbEntity
  8
0
  6
Continuous
 62
     7
370
    15
100
AcDbLine
 10
278.9511918739
 20
162.0485258176
 30
0.0
 11
274.6012001947
 21
162.0485258176
 31
0.0
  0
LINE
  5
148
330
1F
100
AcDbEntity
  8
0
  6
Continuous
 62
     7
370
    15
100
AcDbLine
 10
278.9511918739
 20
171.7485261037
 30
0.0
 11
278.9511918739
 21
162.0485258176
 31
0.0
  0
LINE
  5
149
330
1F
100
AcDbEntity
  8
0
  6
Continuous
 62
     7
370
    15
100
AcDbLine
 10
274.6012001947
 20
171.7485261037
 30
0.0
 11
278.9511918739
 21
171.7485261037
 31
0.0
  0
LINE
  5
14A
330
1F
100
AcDbEntity
  8
0
  6
Continuous
 62
     7
370
    15
100
AcDbLine
 10
262.1761947588
 20
187.7235283031
 30
0.0
 11
262.1761947588
 21
192.0735274329
 31
0.0
  0
LINE
  5
14B
330
1F
100
AcDbEntity
  8
0
  6
Continuous
 62
     7
370
    15
100
AcDbLine
 10
271.8761950449
 20
187.7235283031
 30
0.0
 11
262.1761947588
 21
187.7235283031
 31
0.0
  0
LINE
  5
14C
330
1F
100
AcDbEntity
  8
0
  6
Continuous
 62
     7
370
    15
100
AcDbLine
 10
271.8761950449
 20
192.0735274329
 30
0.0
 11
271.8761950449
 21
187.7235283031
 31
0.0
  0
LINE
  5
14D
330
1F
100
AcDbEntity
  8
0
  6
Continuous
 62
     7
370
    15
100
AcDbLine
 10
262.1761947588
 20
192.0735274329
 30
0.0
 11
271.8761950449
 21
192.0735274329
 31
0.0
  0
LINE
  5
14E
330
1F
100
AcDbEntity
  8
0
  6
Continuous
 62
     7
370
    15
100
AcDbLine
 10
262.1761947588
 20
141.7235263511
 30
0.0
 11
262.1761947588
 21
146.0735273435
 31
0.0
  0
LINE
  5
14F
330
1F
100
AcDbEntity
  8
0
  6
Continuous
 62
     7
370
    15
100
AcDbLine
 10
271.8761950449
 20
141.7235263511
 30
0.0
 11
262.1761947588
 21
141.7235263511
 31
0.0
  0
LINE
  5
150
330
1F
100
AcDbEntity
  8
0
  6
Continuous
 62
     7
370
    15
100
AcDbLine
 10
271.8761950449
 20
146.0735273435
 30
0.0
 11
271.8761950449
 21
141.7235263511
 31
0.0
  0
LINE
  5
151
330
1F
100
AcDbEntity
  8
0
  6
Continuous
 62
     7
370
    15
100
AcDbLine
 10
262.1761947588
 20
146.0735273435
 30
0.0
 11
271.8761950449
 21
146.0735273435
 31
0.0
  0
CIRCLE
  5
152
330
1F
100
AcDbEntity
  8
0
  6
Continuous
 62
     7
370
    15
100
AcDbCircle
 10
245.0261938289
 20
189.8985268845
 30
0.0
 40
1.450000000000017
  0
CIRCLE
  5
153
330
1F
100
AcDbEntity
  8
0
  6
Continuous
 62
     7
370
    15
100
AcDbCircle
 10
245.0261938289
 20
143.8985268845
 30
0.0
 40
1.449999999999989
  0
CIRCLE
  5
154
330
1F
100
AcDbEntity
  8
0
  6
Continuous
 62
     7
370
    15
100
AcDbCircle
 10
264.7761938289
 20
151.8985268845
 30
0.0
 40
1.449999999999989
  0
CIRCLE
  5
155
330
1F
100
AcDbEntity
  8
0
  6
Continuous
 62
     7
370
    15
100
AcDbCircle
 10
264.7761938289
 20
181.8985268845
 30
0.0
 40
1.450000000000017
  0
LINE
  5
156
330
1F
100
AcDbEntity
  8
0
  6
Continuous
 62
     7
370
    15
100
AcDbLine
 10
311.2761914447
 20
169.3985273018
 30
0.0
 11
311.2761914447
 21
164.3985283449
 31
0.0
  0
ARC
  5
157
330
1F
100
AcDbEntity
  8
0
  6
Continuous
 62
     7
370
    15
100
AcDbCircle
 10
310.2761938289
 20
169.3985268845
 30
0.0
 40
1.0
100
AcDbArc
 50
0.0
 51
180.0
  0
LINE
  5
158
330
1F
100
AcDbEntity
  8
0
  6
Continuous
 62
     7
370
    15
100
AcDbLine
 10
309.2761873916
 20
164.3985283449
 30
0.0
 11
309.2761873916
 21
169.3985273018
 31
0.0
  0
ARC
  5
159
330
1F
100
AcDbEntity
  8
0
  6
Continuous
 62
     7
370
    15
100
AcDbCircle
 10
310.2761938289
 20
164.3985268845
 30
0.0
 40
1.0
100
AcDbArc
 50
180.0
 51
0.0
  0
LINE
  5
15A
330
1F
100
AcDbEntity
  8
0
  6
Continuous
 62
     7
370
    15
100
AcDbLine
 10
248.7761914447
 20
228.6485244407
 30
0.0
 11
259.7761988357
 21
228.6485244407
 31
0.0
  0
LINE
  5
15B
330
1F
100
AcDbEntity
  8
0
  6
Continuous
 62
     7
370
    15
100
AcDbLine
 10
248.7761914447
 20
204.3985237255
 30
0.0
 11
248.7761914447
 21
228.6485244407
 31
0.0
  0
LINE
  5
15C
330
1F
100
AcDbEntity
  8
0
  6
Continuous
 62
     7
370
    15
100
AcDbLine
 10
259.7761988357
 20
204.3985237255
 30
0.0
 11
248.7761914447
 21
204.3985237255
 31
0.0
  0
LINE
  5
15D
330
1F
100
AcDbEntity
  8
0
  6
Continuous
 62
     7
370
    15
100
AcDbLine
 10
259.7761988357
 20
228.6485244407
 30
0.0
 11
259.7761988357
 21
204.3985237255
 31
0.0
  0
LINE
  5
15E
330
1F
100
AcDbEntity
  8
0
  6
Continuous
 62
     7
370
    15
100
AcDbLine
 10
259.7761988357
 20
231.1485295071
 30
0.0
 11
248.7761914447
 21
231.1485295071
 31
0.0
  0
LINE
  5
15F
330
1F
100
AcDbEntity
  8
0
  6
Continuous
 62
     7
370
    15
100
AcDbLine
 10
259.7761988357
 20
255.3985302224
 30
0.0
 11
259.7761988357
 21
231.1485295071
 31
0.0
  0
LINE
  5
160
330
1F
100
AcDbEntity
  8
0
  6
Continuous
 62
     7
370
    15
100
AcDbLine
 10
248.7761914447
 20
255.3985302224
 30
0.0
 11
259.7761988357
 21
255.3985302224
 31
0.0
  0
LINE
  5
161
330
1F
100
AcDbEntity
  8
0
  6
Continuous
 62
     7
370
    15
100
AcDbLine
 10
248.7761914447
 20
231.1485295071
 30
0.0
 11
248.7761914447
 21
255.3985302224
 31
0.0
  0
LINE
  5
162
330
1F
100
AcDbEntity
  8
0
  6
Continuous
 62
     7
370
    15
100
AcDbLine
 10
304.7762006239
 20
231.1485295071
 30
0.0
 11
293.7761932329
 21
231.1485295071
 31
0.0
  0
LINE
  5
163
330
1F
100
AcDbEntity
  8
0
  6
Continuous
 62
     7
370
    15
100
AcDbLine
 10
304.7762006239
 20
255.3985302224
 30
0.0
 11
304.7762006239
 21
231.1485295071
 31
0.0
  0
LINE
  5
164
330
1F
100
AcDbEntity
  8
0
  6
Continuous
 62
     7
370
    15
100
AcDbLine
 10
293.7761932329
 20
255.3985302224
 30
0.0
 11
304.7762006239
 21
255.3985302224
 31
0.0
  0
LINE
  5
165
330
1F
100
AcDbEntity
  8
0
  6
Continuous
 62
     7
370
    15
100
AcDbLine
 10
293.7761932329
 20
231.1485295071
 30
0.0
 11
293.7761932329
 21
255.3985302224
 31
0.0
  0
LINE
  5
166
330
1F
100
AcDbEntity
  8
0
  6
Continuous
 62
     7
370
    15
100
AcDbLine
 10
304.7762006239
 20
204.3985237255
 30
0.0
 11
293.7761932329
 21
204.3985237255
 31
0.0
  0
LINE
  5
167
330
1F
100
AcDbEntity
  8
0
  6
Continuous
 62
     7
370
    15
100
AcDbLine
 10
304.7762006239
 20
228.6485244407
 30
0.0
 11
304.7762006239
 21
204.3985237255
 31
0.0
  0
LINE
  5
168
330
1F
100
AcDbEntity
  8
0
  6
Continuous
 62
     7
370
    15
100
AcDbLine
 10
293.7761932329
 20
228.6485244407
 30
0.0
 11
304.7762006239
 21
228.6485244407
 31
0.0
  0
LINE
  5
169
330
1F
100
AcDbEntity
  8
0
  6
Continuous
 62
     7
370
    15
100
AcDbLine
 10
293.7761932329
 20
204.3985237255
 30
0.0
 11
293.7761932329
 21
228.6485244407
 31
0.0
  0
CIRCLE
  5
16A
330
1F
100
AcDbEntity
  8
0
  6
Continuous
 62
     7
370
    15
100
AcDbCircle
 10
309.7761938289
 20
214.8985268845
 30
0.0
 40
1.449999999999989
  0
CIRCLE
  5
16B
330
1F
100
AcDbEntity
  8
0
  6
Continuous
 62
     7
370
    15
100
AcDbCircle
 10
309.7761938289
 20
244.8985268845
 30
0.0
 40
1.449999999999989
  0
CIRCLE
  5
16C
330
1F
100
AcDbEntity
  8
0
  6
Continuous
 62
     7
370
    15
100
AcDbCircle
 10
276.7761938289
 20
244.8985268845
 30
0.0
 40
1.449999999999989
  0
CIRCLE
  5
16D
330
1F
100
AcDbEntity
  8
0
  6
Continuous
 62
     7
370
    15
100
AcDbCircle
 10
276.7761938289
 20
214.8985268845
 30
0.0
 40
1.450000000000017
  0
CIRCLE
  5
16E
330
1F
100
AcDbEntity
  8
0
  6
Continuous
 62
     7
370
    15
100
AcDbCircle
 10
245.0261938289
 20
252.8985268845
 30
0.0
 40
1.450000000000017
  0
CIRCLE
  5
16F
330
1F
100
AcDbEntity
  8
0
  6
Continuous
 62
     7
370
    15
100
AcDbCircle
 10
245.0261938289
 20
206.8985268845
 30
0.0
 40
1.449999999999989
  0
CIRCLE
  5
170
330
1F
100
AcDbEntity
  8
0
  6
Continuous
 62
     7
370
    15
100
AcDbCircle
 10
264.7761938289
 20
214.8985268845
 30
0.0
 40
1.44999999999996
  0
CIRCLE
  5
171
330
1F
100
AcDbEntity
  8
0
  6
Continuous
 62
     7
370
    15
100
AcDbCircle
 10
264.7761938289
 20
244.8985268845
 30
0.0
 40
1.450000000000017
  0
LINE
  5
172
330
1F
100
AcDbEntity
  8
0
  6
Continuous
 62
     7
370
    15
100
AcDbLine
 10
311.2761914447
 20
232.3985283151
 30
0.0
 11
311.2761914447
 21
227.3985256328
 31
0.0
  0
ARC
  5
173
330
1F
100
AcDbEntity
  8
0
  6
Continuous
 62
     7
370
    15
100
AcDbCircle
 10
310.2761938289
 20
232.3985268845
 30
0.0
 40
1.0
100
AcDbArc
 50
0.0
 51
180.0
  0
LINE
  5
174
330
1F
100
AcDbEntity
  8
0
  6
Continuous
 62
     7
370
    15
100
AcDbLine
 10
309.2761873916
 20
227.3985256328
 30
0.0
 11
309.2761873916
 21
232.3985283151
 31
0.0
  0
ARC
  5
175
330
1F
100
AcDbEntity
  8
0
  6
Continuous
 62
     7
370
    15
100
AcDbCircle
 10
310.2761938289
 20
227.3985268845
 30
0.0
 40
1.0
100
AcDbArc
 50
180.0
 51
0.0
  0
LINE
  5
176
330
1F
100
AcDbEntity
  8
0
  6
Continuous
 62
     7
370
    15
100
AcDbLine
 10
239.2761945442
 20
239.8985286131
 30
0.0
 11
239.2761945442
 21
257.3985342755
 31
0.0
  0
LINE
  5
177
330
1F
100
AcDbEntity
  8
0
  6
Continuous
 62
     7
370
    15
100
AcDbLine
 10
239.2761945442
 20
257.3985342755
 30
0.0
 11
314.2761975244
 21
257.3985342755
 31
0.0
  0
LINE
  5
178
330
1F
100
AcDbEntity
  8
0
  6
Continuous
 62
     7
370
    15
100
AcDbLine
 10
314.2761975244
 20
202.398527123
 30
0.0
 11
239.2761945442
 21
202.398527123
 31
0.0
  0
LINE
  5
179
330
1F
100
AcDbEntity
  8
0
  6
Continuous
 62
     7
370
    15
100
AcDbLine
 10
239.2761945442
 20
219.8985253348
 30
0.0
 11
242.2761931733
 21
219.8985253348
 31
0.0
  0
ARC
  5
17A
330
1F
100
AcDbEntity
  8
0
  6
Continuous
 62
     7
370
    15
100
AcDbCircle
 10
242.2761938289
 20
221.8985268845
 30
0.0
 40
2.0
100
AcDbArc
 50
270.0
 51
0.0
  0
LINE
  5
17B
330
1F
100
AcDbEntity
  8
0
  6
Continuous
 62
     7
370
    15
100
AcDbLine
 10
244.2761972264
 20
221.8985293879
 30
0.0
 11
244.2761972264
 21
237.89852456
 31
0.0
  0
ARC
  5
17C
330
1F
100
AcDbEntity
  8
0
  6
Continuous
 62
     7
370
    15
100
AcDbCircle
 10
242.2761938289
 20
237.8985268845
 30
0.0
 40
2.0
100
AcDbArc
 50
0.0
 51
90.0
  0
LINE
  5
17D
330
1F
100
AcDbEntity
  8
0
  6
Continuous
 62
     7
370
    15
100
AcDbLine
 10
239.2761945442
 20
239.8985286131
 30
0.0
 11
242.2761931733
 21
239.8985286131
 31
0.0
  0
LINE
  5
17E
330
1F
100
AcDbEntity
  8
0
  6
Continuous
 62
     7
370
    15
100
AcDbLine
 10
239.2761945442
 20
202.398527123
 30
0.0
 11
239.2761945442
 21
219.8985253348
 31
0.0
  0
LINE
  5
17F
330
1F
100
AcDbEntity
  8
0
  6
Continuous
 62
     7
370
    15
100
AcDbLine
 10
314.2761975244
 20
257.3985342755
 30
0.0
 11
314.2761975244
 21
202.398527123
 31
0.0
  0
LINE
  5
180
330
1F
100
AcDbEntity
  8
0
  6
Continuous
 62
     7
370
    15
100
AcDbLine
 10
98.6797060535
 20
242.8985272422
 30
0.0
 11
98.6797060535
 21
247.3985289111
 31
0.0
  0
LINE
  5
181
330
1F
100
AcDbEntity
  8
0
  6
Continuous
 62
     7
370
    15
100
AcDbLine
 10
97.8797074125
 20
242.8985272422
 30
0.0
 11
98.6797060535
 21
242.8985272422
 31
0.0
  0
ARC
  5
182
330
1F
100
AcDbEntity
  8
0
  6
Continuous
 62
     7
370
    15
100
AcDbCircle
 10
97.8797066953
 20
242.3985268845
 30
0.0
 40
0.5
100
AcDbArc
 50
90.0
 51
180.0
  0
LINE
  5
183
330
1F
100
AcDbEntity
  8
0
  6
Continuous
 62
     7
370
    15
100
AcDbLine
 10
97.3797063992
 20
239.8985286131
 30
0.0
 11
97.3797063992
 21
242.3985262289
 31
0.0
  0
LINE
  5
184
330
1F
100
AcDbEntity
  8
0
  6
Continuous
 62
     7
370
    15
100
AcDbLine
 10
98.6797060535
 20
239.3985275998
 30
0.0
 11
97.8797074125
 21
239.3985275998
 31
0.0
  0
LINE
  5
185
330
1F
100
AcDbEntity
  8
0
  6
Continuous
 62
     7
370
    15
100
AcDbLine
 10
98.6797060535
 20
236.3985289707
 30
0.0
 11
98.6797060535
 21
239.3985275998
 31
0.0
  0
LINE
  5
186
330
1F
100
AcDbEntity
  8
0
  6
Continuous
 62
     7
370
    15
100
AcDbLine
 10
101.7797063754
 20
236.3985289707
 30
0.0
 11
98.6797060535
 21
236.3985289707
 31
0.0
  0
LINE
  5
187
330
1F
100
AcDbEntity
  8
0
  6
Continuous
 62
     7
370
    15
100
AcDbLine
 10
101.7797063754
 20
239.3985275998
 30
0.0
 11
101.7797063754
 21
236.3985289707
 31
0.0
  0
LINE
  5
188
330
1F
100
AcDbEntity
  8
0
  6
Continuous
 62
     7
370
    15
100
AcDbLine
 10
102.579706879
 20
239.3985275998
 30
0.0
 11
101.7797063754
 21
239.3985275998
 31
0.0
  0
ARC
  5
189
330
1F
100
AcDbEntity
  8
0
  6
Continuous
 62
     7
370
    15
100
AcDbCircle
 10
102.5797066953
 20
239.8985268845
 30
0.0
 40
0.5
100
AcDbArc
 50
270.0
 51
0.0
  0
LINE
  5
18A
330
1F
100
AcDbEntity
  8
0
  6
Continuous
 62
     7
370
    15
100
AcDbLine
 10
103.0797060296
 20
242.3985262289
 30
0.0
 11
103.0797060296
 21
239.8985286131
 31
0.0
  0
ARC
  5
18B
330
1F
100
AcDbEntity
  8
0
  6
Continuous
 62
     7
370
    15
100
AcDbCircle
 10
102.5797066953
 20
242.3985268845
 30
0.0
 40
0.5
100
AcDbArc
 50
0.0
 51
90.0
  0
LINE
  5
18C
330
1F
100
AcDbEntity
  8
0
  6
Continuous
 62
     7
370
    15
100
AcDbLine
 10
101.7797063754
 20
242.8985272422
 30
0.0
 11
102.579706879
 21
242.8985272422
 31
0.0
  0
LINE
  5
18D
330
1F
100
AcDbEntity
  8
0
  6
Continuous
 62
     7
370
    15
100
AcDbLine
 10
101.7797063754
 20
247.3985289111
 30
0.0
 11
101.7797063754
 21
242.8985272422
 31
0.0
  0
CIRCLE
  5
18E
330
1F
100
AcDbEntity
  8
0
  6
Continuous
 62
     7
370
    15
100
AcDbCircle
 10
86.2297066953
 20
230.3985268845
 30
0.0
 40
1.449999999999989
  0
LINE
  5
18F
330
1F
100
AcDbEntity
  8
0
  6
Continuous
 62
     7
370
    15
100
AcDbLine
 10
71.7514469937
 20
234.3985249176
 30
0.0
 11
80.2297085241
 21
247.3985289111
 31
0.0
  0
LINE
  5
190
330
1F
100
AcDbEntity
  8
0
  6
Continuous
 62
     7
370
    15
100
AcDbLine
 10
64.2297059015
 20
234.3985249176
 30
0.0
 11
71.7514469937
 21
234.3985249176
 31
0.0
  0
LINE
  5
191
330
1F
100
AcDbEntity
  8
0
  6
Continuous
 62
     7
370
    15
100
AcDbLine
 10
64.2297059015
 20
224.3985270037
 30
0.0
 11
64.2297059015
 21
234.3985249176
 31
0.0
  0
LINE
  5
192
330
1F
100
AcDbEntity
  8
0
  6
Continuous
 62
     7
370
    15
100
AcDbLine
 10
105.229707034
 20
224.3985270037
 30
0.0
 11
64.2297059015
 21
224.3985270037
 31
0.0
  0
LINE
  5
193
330
1F
100
AcDbEntity
  8
0
  6
Continuous
 62
     7
370
    15
100
AcDbLine
 10
120.2297066987
 20
247.3985289111
 30
0.0
 11
105.229707034
 21
224.3985270037
 31
0.0
  0
LINE
  5
194
330
1F
100
AcDbEntity
  8
0
  6
Continuous
 62
     7
370
    15
100
AcDbLine
 10
120.2297066987
 20
257.3985342755
 30
0.0
 11
120.2297066987
 21
247.3985289111
 31
0.0
  0
LINE
  5
195
330
1F
100
AcDbEntity
  8
0
  6
Continuous
 62
     7
370
    15
100
AcDbLine
 10
110.2297069222
 20
257.3985342755
 30
0.0
 11
120.2297066987
 21
257.3985342755
 31
0.0
  0
LINE
  5
196
330
1F
100
AcDbEntity
  8
0
  6
Continuous
 62
     7
370
    15
100
AcDbLine
 10
110.2297069222
 20
247.3985289111
 30
0.0
 11
110.2297069222
 21
257.3985342755
 31
0.0
  0
LINE
  5
197
330
1F
100
AcDbEntity
  8
0
  6
Continuous
 62
     7
370
    15
100
AcDbLine
 10
90.2297064379
 20
247.3985289111
 30
0.0
 11
98.6797060535
 21
247.3985289111
 31
0.0
  0
LINE
  5
198
330
1F
100
AcDbEntity
  8
0
  6
Continuous
 62
     7
370
    15
100
AcDbLine
 10
90.2297064379
 20
257.3985342755
 30
0.0
 11
90.2297064379
 21
247.3985289111
 31
0.0
  0
LINE
  5
199
330
1F
100
AcDbEntity
  8
0
  6
Continuous
 62
     7
370
    15
100
AcDbLine
 10
80.2297085241
 20
257.3985342755
 30
0.0
 11
90.2297064379
 21
257.3985342755
 31
0.0
  0
LINE
  5
19A
330
1F
100
AcDbEntity
  8
0
  6
Continuous
 62
     7
370
    15
100
AcDbLine
 10
80.2297085241
 20
247.3985289111
 30
0.0
 11
80.2297085241
 21
257.3985342755
 31
0.0
  0
LINE
  5
19B
330
1F
100
AcDbEntity
  8
0
  6
Continuous
 62
     7
370
    15
100
AcDbLine
 10
101.7797063754
 20
247.3985289111
 30
0.0
 11
110.2297069222
 21
247.3985289111
 31
0.0
  0
ARC
  5
19C
330
1F
100
AcDbEntity
  8
0
  6
Continuous
 62
     7
370
    15
100
AcDbCircle
 10
97.8797066953
 20
239.8985268845
 30
0.0
 40
0.5000000000000284
100
AcDbArc
 50
180.0
 51
270.0
  0
CIRCLE
  5
19D
330
1F
100
AcDbEntity
  8
0
  6
Continuous
 62
     7
370
    15
100
AcDbCircle
 10
67.2297066953
 20
230.3985268845
 30
0.0
 40
1.449999999999989
  0
ARC
  5
19E
330
1F
100
AcDbEntity
  8
0
  6
Continuous
 62
     7
370
    15
100
AcDbCircle
 10
178.6740572928
 20
16.2985268845
 30
0.0
 40
4.900000000000007
100
AcDbArc
 50
270.0000028176
 51
89.9999971824
  0
LINE
  5
19F
330
1F
100
AcDbEntity
  8
0
  6
Continuous
 62
     7
370
    15
100
AcDbLine
 10
178.6740585879
 20
21.1985294595
 30
0.0
 11
158.6740553096
 21
21.1985294595
 31
0.0
  0
LINE
  5
1A0
330
1F
100
AcDbEntity
  8
0
  6
Continuous
 62
     7
370
    15
100
AcDbLine
 10
158.6740553096
 20
11.3985274806
 30
0.0
 11
178.6740585879
 21
11.3985274806
 31
0.0
  0
CIRCLE
  5
1A1
330
1F
100
AcDbEntity
  8
0
  6
Continuous
 62
     7
370
    15
100
AcDbCircle
 10
158.6740572928
 20
16.2985268845
 30
0.0
 40
1.449999999999994
  0
ARC
  5
1A2
330
1F
100
AcDbEntity
  8
0
  6
Continuous
 62
     7
370
    15
100
AcDbCircle
 10
158.6740572928
 20
16.2985268845
 30
0.0
 40
4.900000000000007
100
AcDbArc
 50
90.0000028176
 51
269.9999971824
  0
CIRCLE
  5
1A3
330
1F
100
AcDbEntity
  8
0
  6
Continuous
 62
     7
370
    15
100
AcDbCircle
 10
178.6740572928
 20
16.2985268845
 30
0.0
 40
1.449999999999992
  0
LINE
  5
1A4
330
1F
100
AcDbEntity
  8
0
  6
Continuous
 62
     7
370
    15
100
AcDbLine
 10
6.4761951283
 20
187.3791773691
 30
0.0
 11
6.4761951283
 21
167.3791778161
 31
0.0
  0
CIRCLE
  5
1A5
330
1F
100
AcDbEntity
  8
0
  6
Continuous
 62
     7
370
    15
100
AcDbCircle
 10
11.3761938289
 20
187.3791779459
 30
0.0
 40
1.450000000000006
  0
CIRCLE
  5
1A6
330
1F
100
AcDbEntity
  8
0
  6
Continuous
 62
     7
370
    15
100
AcDbCircle
 10
11.3761938289
 20
167.3791779459
 30
0.0
 40
1.449999999999978
  0
LINE
  5
1A7
330
1F
100
AcDbEntity
  8
0
  6
Continuous
 62
     7
370
    15
100
AcDbLine
 10
16.2761971072
 20
167.3791778161
 30
0.0
 11
16.2761971072
 21
187.3791773691
 31
0.0
  0
ARC
  5
1A8
330
1F
100
AcDbEntity
  8
0
  6
Continuous
 62
     7
370
    15
100
AcDbCircle
 10
11.3761938289
 20
167.3791779459
 30
0.0
 40
4.899999999999995
100
AcDbArc
 50
180.0000028176
 51
359.9999971824
  0
ARC
  5
1A9
330
1F
100
AcDbEntity
  8
0
  6
Continuous
 62
     7
370
    15
100
AcDbCircle
 10
11.3761938289
 20
187.3791779459
 30
0.0
 40
4.900000000000023
100
AcDbArc
 50
0.0000028176
 51
179.9999971824
  0
CIRCLE
  5
1AA
330
1F
100
AcDbEntity
  8
0
  6
Continuous
 62
     7
370
    15
100
AcDbCircle
 10
11.3761938289
 20
92.2569245632
 30
0.0
 40
1.450000000000006
  0
CIRCLE
  5
1AB
330
1F
100
AcDbEntity
  8
0
  6
Continuous
 62
     7
370
    15
100
AcDbCircle
 10
11.3761938289
 20
112.2569245632
 30
0.0
 40
1.449999999999978
  0
LINE
  5
1AC
330
1F
100
AcDbEntity
  8
0
  6
Continuous
 62
     7
370
    15
100
AcDbLine
 10
6.4761951283
 20
92.2569238468
 30
0.0
 11
6.4761951283
 21
112.2569252624
 31
0.0
  0
ARC
  5
1AD
330
1F
100
AcDbEntity
  8
0
  6
Continuous
 62
     7
370
    15
100
AcDbCircle
 10
11.3761938289
 20
112.2569245632
 30
0.0
 40
4.899999999999995
100
AcDbArc
 50
0.0000028176
 51
179.9999971824
  0
LINE
  5
1AE
330
1F
100
AcDbEntity
  8
0
  6
Continuous
 62
     7
370
    15
100
AcDbLine
 10
16.2761971072
 20
112.2569252624
 30
0.0
 11
16.2761971072
 21
92.2569238468
 31
0.0
  0
ARC
  5
1AF
330
1F
100
AcDbEntity
  8
0
  6
Continuous
 62
     7
370
    15
100
AcDbCircle
 10
11.3761938289
 20
92.2569245632
 30
0.0
 40
4.900000000000023
100
AcDbArc
 50
180.0000028176
 51
359.9999971824
  0
CIRCLE
  5
1B0
330
1F
100
AcDbEntity
  8
0
  6
Continuous
 62
     7
370
    15
100
AcDbCircle
 10
11.3761938289
 20
55.4178758232
 30
0.0
 40
1.450000000000006
  0
CIRCLE
  5
1B1
330
1F
100
AcDbEntity
  8
0
  6
Continuous
 62
     7
370
    15
100
AcDbCircle
 10
11.3761938289
 20
75.4178758232
 30
0.0
 40
1.449999999999978
  0
LINE
  5
1B2
330
1F
100
AcDbEntity
  8
0
  6
Continuous
 62
     7
370
    15
100
AcDbLine
 10
6.4761951283
 20
55.4178764
 30
0.0
 11
6.4761951283
 21
75.4178759529
 31
0.0
  0
ARC
  5
1B3
330
1F
100
AcDbEntity
  8
0
  6
Continuous
 62
     7
370
    15
100
AcDbCircle
 10
11.3761938289
 20
75.4178758232
 30
0.0
 40
4.899999999999995
100
AcDbArc
 50
0.0000028176
 51
179.9999971824
  0
LINE
  5
1B4
330
1F
100
AcDbEntity
  8
0
  6
Continuous
 62
     7
370
    15
100
AcDbLine
 10
16.2761971072
 20
75.4178759529
 30
0.0
 11
16.2761971072
 21
55.4178764
 31
0.0
  0
ARC
  5
1B5
330
1F
100
AcDbEntity
  8
0
  6
Continuous
 62
     7
370
    15
100
AcDbCircle
 10
11.3761938289
 20
55.4178758232
 30
0.0
 40
4.900000000000023
100
AcDbArc
 50
180.0000028176
 51
359.9999971824
  0
CIRCLE
  5
1B6
330
1F
100
AcDbEntity
  8
0
  6
Continuous
 62
     7
370
    15
100
AcDbCircle
 10
83.8783303651
 20
16.2985268845
 30
0.0
 40
1.449999999999996
  0
LINE
  5
1B7
330
1F
100
AcDbEntity
  8
0
  6
Continuous
 62
     7
370
    15
100
AcDbLine
 10
63.87832907
 20
11.3985274806
 30
0.0
 11
83.8783323482
 21
11.3985274806
 31
0.0
  0
ARC
  5
1B8
330
1F
100
AcDbEntity
  8
0
  6
Continuous
 62
     7
370
    15
100
AcDbCircle
 10
63.8783303651
 20
16.2985268845
 30
0.0
 40
4.900000000000007
100
AcDbArc
 50
90.0000028176
 51
269.9999971824
  0
LINE
  5
1B9
330
1F
100
AcDbEntity
  8
0
  6
Continuous
 62
     7
370
    15
100
AcDbLine
 10
83.8783323482
 20
21.1985294595
 30
0.0
 11
63.87832907
 21
21.1985294595
 31
0.0
  0
ARC
  5
1BA
330
1F
100
AcDbEntity
  8
0
  6
Continuous
 62
     7
370
    15
100
AcDbCircle
 10
83.8783303651
 20
16.2985268845
 30
0.0
 40
4.900000000000007
100
AcDbArc
 50
270.0000028176
 51
89.9999971824
  0
CIRCLE
  5
1BB
330
1F
100
AcDbEntity
  8
0
  6
Continuous
 62
     7
370
    15
100
AcDbCircle
 10
63.8783303651
 20
16.2985268845
 30
0.0
 40
1.449999999999994
  0
LINE
  5
1BC
330
1F
100
AcDbEntity
  8
0
  6
Continuous
 62
     7
370
    15
100
AcDbLine
 10
16.2761971072
 20
130.5401285066
 30
0.0
 11
16.2761971072
 21
150.5401299223
 31
0.0
  0
ARC
  5
1BD
330
1F
100
AcDbEntity
  8
0
  6
Continuous
 62
     7
370
    15
100
AcDbCircle
 10
11.3761938289
 20
130.5401292059
 30
0.0
 40
4.899999999999995
100
AcDbArc
 50
180.0000028176
 51
359.9999971824
  0
ARC
  5
1BE
330
1F
100
AcDbEntity
  8
0
  6
Continuous
 62
     7
370
    15
100
AcDbCircle
 10
11.3761938289
 20
150.5401292059
 30
0.0
 40
4.900000000000023
100
AcDbArc
 50
0.0000028176
 51
179.9999971824
  0
LINE
  5
1BF
330
1F
100
AcDbEntity
  8
0
  6
Continuous
 62
     7
370
    15
100
AcDbLine
 10
6.4761951283
 20
150.5401299223
 30
0.0
 11
6.4761951283
 21
130.5401285066
 31
0.0
  0
CIRCLE
  5
1C0
330
1F
100
AcDbEntity
  8
0
  6
Continuous
 62
     7
370
    15
100
AcDbCircle
 10
11.3761938289
 20
150.5401292059
 30
0.0
 40
1.450000000000006
  0
CIRCLE
  5
1C1
330
1F
100
AcDbEntity
  8
0
  6
Continuous
 62
     7
370
    15
100
AcDbCircle
 10
11.3761938289
 20
130.5401292059
 30
0.0
 40
1.449999999999978
  0
LINE
  5
1C2
330
1F
100
AcDbEntity
  8
0
  6
Continuous
 62
     7
370
    15
100
AcDbLine
 10
11.276194425
 20
41.3985286727
 30
0.0
 11
11.276194425
 21
11.3985274806
 31
0.0
  0
LINE
  5
1C3
330
1F
100
AcDbEntity
  8
0
  6
Continuous
 62
     7
370
    15
100
AcDbLine
 10
11.276194425
 20
41.3985286727
 30
0.0
 11
26.276195021
 21
56.3985292687
 31
0.0
  0
LINE
  5
1C4
330
1F
100
AcDbEntity
  8
0
  6
Continuous
 62
     7
370
    15
100
AcDbLine
 10
11.276194425
 20
201.3985250964
 30
0.0
 11
26.276195021
 21
186.3985245004
 31
0.0
  0
LINE
  5
1C5
330
1F
100
AcDbEntity
  8
0
  6
Continuous
 62
     7
370
    15
100
AcDbLine
 10
11.276194425
 20
231.3985262885
 30
0.0
 11
11.276194425
 21
201.3985250964
 31
0.0
  0
LINE
  5
1C6
330
1F
100
AcDbEntity
  8
0
  6
Continuous
 62
     7
370
    15
100
AcDbLine
 10
41.2761956171
 20
231.3985262885
 30
0.0
 11
56.2761962131
 21
216.3985256924
 31
0.0
  0
LINE
  5
1C7
330
1F
100
AcDbEntity
  8
0
  6
Continuous
 62
     7
370
    15
100
AcDbLine
 10
56.2761962131
 20
216.3985256924
 30
0.0
 11
186.2761914447
 21
216.3985256924
 31
0.0
  0
LINE
  5
1C8
330
1F
100
AcDbEntity
  8
0
  6
Continuous
 62
     7
370
    15
100
AcDbLine
 10
201.2761920408
 20
231.3985262885
 30
0.0
 11
186.2761914447
 21
216.3985256924
 31
0.0
  0
LINE
  5
1C9
330
1F
100
AcDbEntity
  8
0
  6
Continuous
 62
     7
370
    15
100
AcDbLine
 10
231.2761932329
 20
231.3985262885
 30
0.0
 11
201.2761920408
 21
231.3985262885
 31
0.0
  0
LINE
  5
1CA
330
1F
100
AcDbEntity
  8
0
  6
Continuous
 62
     7
370
    15
100
AcDbLine
 10
231.2761932329
 20
201.3985250964
 30
0.0
 11
231.2761932329
 21
231.3985262885
 31
0.0
  0
LINE
  5
1CB
330
1F
100
AcDbEntity
  8
0
  6
Continuous
 62
     7
370
    15
100
AcDbLine
 10
201.2761920408
 20
11.3985274806
 30
0.0
 11
231.2761932329
 21
11.3985274806
 31
0.0
  0
LINE
  5
1CC
330
1F
100
AcDbEntity
  8
0
  6
Continuous
 62
     7
370
    15
100
AcDbLine
 10
201.2761920408
 20
11.3985274806
 30
0.0
 11
186.2761914447
 21
26.3985280766
 31
0.0
  0
LINE
  5
1CD
330
1F
100
AcDbEntity
  8
0
  6
Continuous
 62
     7
370
    15
100
AcDbLine
 10
56.2761962131
 20
26.3985280766
 30
0.0
 11
91.2761944995
 21
26.3985280766
 31
0.0
  0
LINE
  5
1CE
330
1F
100
AcDbEntity
  8
0
  6
Continuous
 62
     7
370
    15
100
AcDbLine
 10
41.2761956171
 20
11.3985274806
 30
0.0
 11
56.2761962131
 21
26.3985280766
 31
0.0
  0
LINE
  5
1CF
330
1F
100
AcDbEntity
  8
0
  6
Continuous
 62
     7
370
    15
100
AcDbLine
 10
11.276194425
 20
11.3985274806
 30
0.0
 11
41.2761956171
 21
11.3985274806
 31
0.0
  0
CIRCLE
  5
1D0
330
1F
100
AcDbEntity
  8
0
  6
Continuous
 62
     7
370
    15
100
AcDbCircle
 10
136.2761938289
 20
91.3985268845
 30
0.0
 40
1.450000000000003
  0
CIRCLE
  5
1D1
330
1F
100
AcDbEntity
  8
0
  6
Continuous
 62
     7
370
    15
100
AcDbCircle
 10
106.2761938289
 20
91.3985268845
 30
0.0
 40
1.450000000000003
  0
CIRCLE
  5
1D2
330
1F
100
AcDbEntity
  8
0
  6
Continuous
 62
     7
370
    15
100
AcDbCircle
 10
136.2761938289
 20
121.3985268845
 30
0.0
 40
1.450000000000003
  0
CIRCLE
  5
1D3
330
1F
100
AcDbEntity
  8
0
  6
Continuous
 62
     7
370
    15
100
AcDbCircle
 10
106.2761938289
 20
121.3985268845
 30
0.0
 40
1.450000000000003
  0
CIRCLE
  5
1D4
330
1F
100
AcDbEntity
  8
0
  6
Continuous
 62
     7
370
    15
100
AcDbCircle
 10
16.7761938289
 20
225.8985268845
 30
0.0
 40
1.450000000000017
  0
CIRCLE
  5
1D5
330
1F
100
AcDbEntity
  8
0
  6
Continuous
 62
     7
370
    15
100
AcDbCircle
 10
225.7761938289
 20
225.8985268845
 30
0.0
 40
1.450000000000017
  0
CIRCLE
  5
1D6
330
1F
100
AcDbEntity
  8
0
  6
Continuous
 62
     7
370
    15
100
AcDbCircle
 10
225.7761938289
 20
16.8985268845
 30
0.0
 40
1.449999999999994
  0
LINE
  5
1D7
330
1F
100
AcDbEntity
  8
0
  6
Continuous
 62
     7
370
    15
100
AcDbLine
 10
51.6511961535
 20
163.5235284343
 30
0.0
 11
40.9011929945
 21
163.5235284343
 31
0.0
  0
LINE
  5
1D8
330
1F
100
AcDbEntity
  8
0
  6
Continuous
 62
     7
370
    15
100
AcDbLine
 10
40.9011929945
 20
163.5235284343
 30
0.0
 11
40.9011929945
 21
139.273527719
 31
0.0
  0
LINE
  5
1D9
330
1F
100
AcDbEntity
  8
0
  6
Continuous
 62
     7
370
    15
100
AcDbLine
 10
40.9011929945
 20
139.273527719
 30
0.0
 11
51.6511961535
 21
139.273527719
 31
0.0
  0
LINE
  5
1DA
330
1F
100
AcDbEntity
  8
0
  6
Continuous
 62
     7
370
    15
100
AcDbLine
 10
51.6511961535
 20
139.273527719
 30
0.0
 11
51.6511961535
 21
163.5235284343
 31
0.0
  0
LINE
  5
1DB
330
1F
100
AcDbEntity
  8
0
  6
Continuous
 62
     7
370
    15
100
AcDbLine
 10
40.9011929945
 20
79.2735253348
 30
0.0
 11
51.6511961535
 21
79.2735253348
 31
0.0
  0
LINE
  5
1DC
330
1F
100
AcDbEntity
  8
0
  6
Continuous
 62
     7
370
    15
100
AcDbLine
 10
51.6511961535
 20
79.2735253348
 30
0.0
 11
51.6511961535
 21
103.5235260501
 31
0.0
  0
LINE
  5
1DD
330
1F
100
AcDbEntity
  8
0
  6
Continuous
 62
     7
370
    15
100
AcDbLine
 10
51.6511961535
 20
103.5235260501
 30
0.0
 11
40.9011929945
 21
103.5235260501
 31
0.0
  0
LINE
  5
1DE
330
1F
100
AcDbEntity
  8
0
  6
Continuous
 62
     7
370
    15
100
AcDbLine
 10
40.9011929945
 20
103.5235260501
 30
0.0
 11
40.9011929945
 21
79.2735253348
 31
0.0
  0
LINE
  5
1DF
330
1F
100
AcDbEntity
  8
0
  6
Continuous
 62
     7
370
    15
100
AcDbLine
 10
201.6511946634
 20
163.5235284343
 30
0.0
 11
190.9011915044
 21
163.5235284343
 31
0.0
  0
LINE
  5
1E0
330
1F
100
AcDbEntity
  8
0
  6
Continuous
 62
     7
370
    15
100
AcDbLine
 10
190.9011915044
 20
163.5235284343
 30
0.0
 11
190.9011915044
 21
139.273527719
 31
0.0
  0
LINE
  5
1E1
330
1F
100
AcDbEntity
  8
0
  6
Continuous
 62
     7
370
    15
100
AcDbLine
 10
201.6511946634
 20
139.273527719
 30
0.0
 11
201.6511946634
 21
163.5235284343
 31
0.0
  0
LINE
  5
1E2
330
1F
100
AcDbEntity
  8
0
  6
Continuous
 62
     7
370
    15
100
AcDbLine
 10
201.6511946634
 20
103.5235260501
 30
0.0
 11
190.9011915044
 21
103.5235260501
 31
0.0
  0
LINE
  5
1E3
330
1F
100
AcDbEntity
  8
0
  6
Continuous
 62
     7
370
    15
100
AcDbLine
 10
190.9011915044
 20
103.5235260501
 30
0.0
 11
190.9011915044
 21
79.2735253348
 31
0.0
  0
LINE
  5
1E4
330
1F
100
AcDbEntity
  8
0
  6
Continuous
 62
     7
370
    15
100
AcDbLine
 10
190.9011915044
 20
79.2735253348
 30
0.0
 11
201.6511946634
 21
79.2735253348
 31
0.0
  0
LINE
  5
1E5
330
1F
100
AcDbEntity
  8
0
  6
Continuous
 62
     7
370
    15
100
AcDbLine
 10
201.6511946634
 20
79.2735253348
 30
0.0
 11
201.6511946634
 21
103.5235260501
 31
0.0
  0
CIRCLE
  5
1E6
330
1F
100
AcDbEntity
  8
0
  6
Continuous
 62
     7
370
    15
100
AcDbCircle
 10
87.8261938289
 20
161.3985268845
 30
0.0
 40
1.450000000000017
  0
CIRCLE
  5
1E7
330
1F
100
AcDbEntity
  8
0
  6
Continuous
 62
     7
370
    15
100
AcDbCircle
 10
87.8261938289
 20
146.3985268845
 30
0.0
 40
1.449999999999989
  0
CIRCLE
  5
1E8
330
1F
100
AcDbEntity
  8
0
  6
Continuous
 62
     7
370
    15
100
AcDbCircle
 10
154.7261938289
 20
91.3985268845
 30
0.0
 40
1.450000000000003
  0
CIRCLE
  5
1E9
330
1F
100
AcDbEntity
  8
0
  6
Continuous
 62
     7
370
    15
100
AcDbCircle
 10
154.7261938289
 20
96.3985268845
 30
0.0
 40
1.450000000000003
  0
LINE
  5
1EA
330
1F
100
AcDbEntity
  8
0
  6
Continuous
 62
     7
370
    15
100
AcDbLine
 10
206.8261965827
 20
144.3985269292
 30
0.0
 11
206.8261965827
 21
143.3985267653
 31
0.0
  0
LINE
  5
1EB
330
1F
100
AcDbEntity
  8
0
  6
Continuous
 62
     7
370
    15
100
AcDbLine
 10
206.8261965827
 20
159.3985256626
 30
0.0
 11
206.8261965827
 21
158.3985273614
 31
0.0
  0
LINE
  5
1EC
330
1F
100
AcDbEntity
  8
0
  6
Continuous
 62
     7
370
    15
100
AcDbLine
 10
182.8261926488
 20
159.3985256626
 30
0.0
 11
182.8261926488
 21
158.3985273614
 31
0.0
  0
ARC
  5
1ED
330
1F
100
AcDbEntity
  8
0
  6
Continuous
 62
     7
370
    15
100
AcDbCircle
 10
184.2761938289
 20
158.3985268845
 30
0.0
 40
1.449999999999989
100
AcDbArc
 50
180.0
 51
0.0
  0
LINE
  5
1EE
330
1F
100
AcDbEntity
  8
0
  6
Continuous
 62
     7
370
    15
100
AcDbLine
 10
185.7261970357
 20
143.3985267653
 30
0.0
 11
185.7261970357
 21
144.3985269292
 31
0.0
  0
ARC
  5
1EF
330
1F
100
AcDbEntity
  8
0
  6
Continuous
 62
     7
370
    15
100
AcDbCircle
 10
184.2761938289
 20
144.3985268845
 30
0.0
 40
1.450000000000017
100
AcDbArc
 50
0.0
 51
180.0
  0
LINE
  5
1F0
330
1F
100
AcDbEntity
  8
0
  6
Continuous
 62
     7
370
    15
100
AcDbLine
 10
206.8261965827
 20
99.3985270037
 30
0.0
 11
206.8261965827
 21
98.3985268398
 31
0.0
  0
ARC
  5
1F1
330
1F
100
AcDbEntity
  8
0
  6
Continuous
 62
     7
370
    15
100
AcDbCircle
 10
208.2761938289
 20
98.3985268845
 30
0.0
 40
1.449999999999989
100
AcDbArc
 50
180.0
 51
0.0
  0
LINE
  5
1F2
330
1F
100
AcDbEntity
  8
0
  6
Continuous
 62
     7
370
    15
100
AcDbLine
 10
209.726193519
 20
98.3985268398
 30
0.0
 11
209.726193519
 21
99.3985270037
 31
0.0
  0
LINE
  5
1F3
330
1F
100
AcDbEntity
  8
0
  6
Continuous
 62
     7
370
    15
100
AcDbLine
 10
209.726193519
 20
83.3985281064
 30
0.0
 11
209.726193519
 21
84.3985264077
 31
0.0
  0
LINE
  5
1F4
330
1F
100
AcDbEntity
  8
0
  6
Continuous
 62
     7
370
    15
100
AcDbLine
 10
206.8261965827
 20
84.3985264077
 30
0.0
 11
206.8261965827
 21
83.3985281064
 31
0.0
  0
LINE
  5
1F5
330
1F
100
AcDbEntity
  8
0
  6
Continuous
 62
     7
370
    15
100
AcDbLine
 10
185.7261970357
 20
83.3985281064
 30
0.0
 11
185.7261970357
 21
84.3985264077
 31
0.0
  0
ARC
  5
1F6
330
1F
100
AcDbEntity
  8
0
  6
Continuous
 62
     7
370
    15
100
AcDbCircle
 10
184.2761938289
 20
84.3985268845
 30
0.0
 40
1.449999999999989
100
AcDbArc
 50
360.0
 51
180.0
  0
LINE
  5
1F7
330
1F
100
AcDbEntity
  8
0
  6
Continuous
 62
     7
370
    15
100
AcDbLine
 10
182.8261926488
 20
84.3985264077
 30
0.0
 11
182.8261926488
 21
83.3985281064
 31
0.0
  0
LINE
  5
1F8
330
1F
100
AcDbEntity
  8
0
  6
Continuous
 62
     7
370
    15
100
AcDbLine
 10
182.8261926488
 20
99.3985270037
 30
0.0
 11
182.8261926488
 21
98.3985268398
 31
0.0
  0
ARC
  5
1F9
330
1F
100
AcDbEntity
  8
0
  6
Continuous
 62
     7
370
    15
100
AcDbCircle
 10
184.2761938289
 20
98.3985268845
 30
0.0
 40
1.450000000000017
100
AcDbArc
 50
180.0
 51
0.0
  0
LINE
  5
1FA
330
1F
100
AcDbEntity
  8
0
  6
Continuous
 62
     7
370
    15
100
AcDbLine
 10
185.7261970357
 20
98.3985268398
 30
0.0
 11
185.7261970357
 21
99.3985270037
 31
0.0
  0
LINE
  5
1FB
330
1F
100
AcDbEntity
  8
0
  6
Continuous
 62
     7
370
    15
100
AcDbLine
 10
35.7261910752
 20
143.3985267653
 30
0.0
 11
35.7261910752
 21
144.3985269292
 31
0.0
  0
ARC
  5
1FC
330
1F
100
AcDbEntity
  8
0
  6
Continuous
 62
     7
370
    15
100
AcDbCircle
 10
34.2761938289
 20
144.3985268845
 30
0.0
 40
1.45000000000001
100
AcDbArc
 50
0.0
 51
180.0
  0
LINE
  5
1FD
330
1F
100
AcDbEntity
  8
0
  6
Continuous
 62
     7
370
    15
100
AcDbLine
 10
32.8261941389
 20
159.3985256626
 30
0.0
 11
32.8261941389
 21
158.3985273614
 31
0.0
  0
ARC
  5
1FE
330
1F
100
AcDbEntity
  8
0
  6
Continuous
 62
     7
370
    15
100
AcDbCircle
 10
34.2761938289
 20
158.3985268845
 30
0.0
 40
1.45000000000001
100
AcDbArc
 50
180.0
 51
0.0
  0
LINE
  5
1FF
330
1F
100
AcDbEntity
  8
0
  6
Continuous
 62
     7
370
    15
100
AcDbLine
 10
35.7261910752
 20
158.3985273614
 30
0.0
 11
35.7261910752
 21
159.3985256626
 31
0.0
  0
LINE
  5
200
330
1F
100
AcDbEntity
  8
0
  6
Continuous
 62
     7
370
    15
100
AcDbLine
 10
56.8261906222
 20
159.3985256626
 30
0.0
 11
56.8261906222
 21
158.3985273614
 31
0.0
  0
ARC
  5
201
330
1F
100
AcDbEntity
  8
0
  6
Continuous
 62
     7
370
    15
100
AcDbCircle
 10
58.2761938289
 20
158.3985268845
 30
0.0
 40
1.449999999999996
100
AcDbArc
 50
180.0
 51
0.0
  0
LINE
  5
202
330
1F
100
AcDbEntity
  8
0
  6
Continuous
 62
     7
370
    15
100
AcDbLine
 10
59.7261950091
 20
158.3985273614
 30
0.0
 11
59.7261950091
 21
159.3985256626
 31
0.0
  0
LINE
  5
203
330
1F
100
AcDbEntity
  8
0
  6
Continuous
 62
     7
370
    15
100
AcDbLine
 10
59.7261950091
 20
143.3985267653
 30
0.0
 11
59.7261950091
 21
144.3985269292
 31
0.0
  0
ARC
  5
204
330
1F
100
AcDbEntity
  8
0
  6
Continuous
 62
     7
370
    15
100
AcDbCircle
 10
58.2761938289
 20
144.3985268845
 30
0.0
 40
1.450000000000024
100
AcDbArc
 50
0.0
 51
180.0
  0
LINE
  5
205
330
1F
100
AcDbEntity
  8
0
  6
Continuous
 62
     7
370
    15
100
AcDbLine
 10
32.8261941389
 20
99.3985270037
 30
0.0
 11
32.8261941389
 21
98.3985268398
 31
0.0
  0
ARC
  5
206
330
1F
100
AcDbEntity
  8
0
  6
Continuous
 62
     7
370
    15
100
AcDbCircle
 10
34.2761938289
 20
98.3985268845
 30
0.0
 40
1.45000000000001
100
AcDbArc
 50
180.0
 51
0.0
  0
LINE
  5
207
330
1F
100
AcDbEntity
  8
0
  6
Continuous
 62
     7
370
    15
100
AcDbLine
 10
35.7261910752
 20
98.3985268398
 30
0.0
 11
35.7261910752
 21
99.3985270037
 31
0.0
  0
ARC
  5
208
330
1F
100
AcDbEntity
  8
0
  6
Continuous
 62
     7
370
    15
100
AcDbCircle
 10
34.2761938289
 20
84.3985268845
 30
0.0
 40
1.45000000000001
100
AcDbArc
 50
360.0
 51
180.0
  0
LINE
  5
209
330
1F
100
AcDbEntity
  8
0
  6
Continuous
 62
     7
370
    15
100
AcDbLine
 10
32.8261941389
 20
84.3985264077
 30
0.0
 11
32.8261941389
 21
83.3985281064
 31
0.0
  0
LINE
  5
20A
330
1F
100
AcDbEntity
  8
0
  6
Continuous
 62
     7
370
    15
100
AcDbLine
 10
59.7261950091
 20
83.3985281064
 30
0.0
 11
59.7261950091
 21
84.3985264077
 31
0.0
  0
ARC
  5
20B
330
1F
100
AcDbEntity
  8
0
  6
Continuous
 62
     7
370
    15
100
AcDbCircle
 10
58.2761938289
 20
84.3985268845
 30
0.0
 40
1.449999999999996
100
AcDbArc
 50
360.0
 51
180.0
  0
LINE
  5
20C
330
1F
100
AcDbEntity
  8
0
  6
Continuous
 62
     7
370
    15
100
AcDbLine
 10
56.8261906222
 20
84.3985264077
 30
0.0
 11
56.8261906222
 21
83.3985281064
 31
0.0
  0
LINE
  5
20D
330
1F
100
AcDbEntity
  8
0
  6
Continuous
 62
     7
370
    15
100
AcDbLine
 10
56.8261906222
 20
99.3985270037
 30
0.0
 11
56.8261906222
 21
98.3985268398
 31
0.0
  0
ARC
  5
20E
330
1F
100
AcDbEntity
  8
0
  6
Continuous
 62
     7
370
    15
100
AcDbCircle
 10
58.2761938289
 20
98.3985268845
 30
0.0
 40
1.450000000000024
100
AcDbArc
 50
180.0
 51
0.0
  0
LINE
  5
20F
330
1F
100
AcDbEntity
  8
0
  6
Continuous
 62
     7
370
    15
100
AcDbLine
 10
59.7261950091
 20
98.3985268398
 30
0.0
 11
59.7261950091
 21
99.3985270037
 31
0.0
  0
CIRCLE
  5
210
330
1F
100
AcDbEntity
  8
0
  6
Continuous
 62
     7
370
    15
100
AcDbCircle
 10
16.7761938289
 20
16.8985268845
 30
0.0
 40
1.449999999999992
  0
ARC
  5
211
330
1F
100
AcDbEntity
  8
0
  6
Continuous
 62
     7
370
    15
100
AcDbCircle
 10
208.2761938289
 20
143.3985268845
 30
0.0
 40
1.449999999999989
100
AcDbArc
 50
180.0
 51
0.0
  0
ARC
  5
212
330
1F
100
AcDbEntity
  8
0
  6
Continuous
 62
     7
370
    15
100
AcDbCircle
 10
208.2761938289
 20
159.3985268845
 30
0.0
 40
1.449999999999989
100
AcDbArc
 50
0.0
 51
180.0
  0
CIRCLE
  5
213
330
1F
100
AcDbEntity
  8
0
  6
Continuous
 62
     7
370
    15
100
AcDbCircle
 10
121.2761938289
 20
16.8985268845
 30
0.0
 40
1.449999999999994
  0
LINE
  5
214
330
1F
100
AcDbEntity
  8
0
  6
Continuous
 62
     7
370
    15
100
AcDbLine
 10
231.2761932329
 20
201.3985250964
 30
0.0
 11
216.2761926368
 21
186.3985245004
 31
0.0
  0
LINE
  5
215
330
1F
100
AcDbEntity
  8
0
  6
Continuous
 62
     7
370
    15
100
AcDbLine
 10
231.2761932329
 20
41.3985286727
 30
0.0
 11
216.2761926368
 21
56.3985292687
 31
0.0
  0
LINE
  5
216
330
1F
100
AcDbEntity
  8
0
  6
Continuous
 62
     7
370
    15
100
AcDbLine
 10
216.2761926368
 20
186.3985245004
 30
0.0
 11
216.2761926368
 21
56.3985292687
 31
0.0
  0
ARC
  5
217
330
1F
100
AcDbEntity
  8
0
  6
Continuous
 62
     7
370
    15
100
AcDbCircle
 10
184.2761938289
 20
83.3985268845
 30
0.0
 40
1.450000000000017
100
AcDbArc
 50
180.0
 51
360.0
  0
ARC
  5
218
330
1F
100
AcDbEntity
  8
0
  6
Continuous
 62
     7
370
    15
100
AcDbCircle
 10
184.2761938289
 20
99.3985268845
 30
0.0
 40
1.450000000000017
100
AcDbArc
 50
0.0
 51
180.0
  0
CIRCLE
  5
219
330
1F
100
AcDbEntity
  8
0
  6
Continuous
 62
     7
370
    15
100
AcDbCircle
 10
154.7261938289
 20
86.3985268845
 30
0.0
 40
1.449999999999989
  0
LINE
  5
21A
330
1F
100
AcDbEntity
  8
0
  6
Continuous
 62
     7
370
    15
100
AcDbLine
 10
26.276195021
 20
186.3985245004
 30
0.0
 11
26.276195021
 21
56.3985292687
 31
0.0
  0
CIRCLE
  5
21B
330
1F
100
AcDbEntity
  8
0
  6
Continuous
 62
     7
370
    15
100
AcDbCircle
 10
87.8261938289
 20
151.3985268845
 30
0.0
 40
1.449999999999989
  0
CIRCLE
  5
21C
330
1F
100
AcDbEntity
  8
0
  6
Continuous
 62
     7
370
    15
100
AcDbCircle
 10
87.8261938289
 20
156.3985268845
 30
0.0
 40
1.450000000000017
  0
ARC
  5
21D
330
1F
100
AcDbEntity
  8
0
  6
Continuous
 62
     7
370
    15
100
AcDbCircle
 10
34.2761938289
 20
99.3985268845
 30
0.0
 40
1.450000000000003
100
AcDbArc
 50
0.0
 51
180.0
  0
ARC
  5
21E
330
1F
100
AcDbEntity
  8
0
  6
Continuous
 62
     7
370
    15
100
AcDbCircle
 10
34.2761938289
 20
83.3985268845
 30
0.0
 40
1.45000000000001
100
AcDbArc
 50
180.0
 51
360.0
  0
ARC
  5
21F
330
1F
100
AcDbEntity
  8
0
  6
Continuous
 62
     7
370
    15
100
AcDbCircle
 10
58.2761938289
 20
83.3985268845
 30
0.0
 40
1.450000000000038
100
AcDbArc
 50
180.0
 51
360.0
  0
ARC
  5
220
330
1F
100
AcDbEntity
  8
0
  6
Continuous
 62
     7
370
    15
100
AcDbCircle
 10
58.2761938289
 20
99.3985268845
 30
0.0
 40
1.450000000000024
100
AcDbArc
 50
0.0
 51
180.0
  0
LINE
  5
221
330
1F
100
AcDbEntity
  8
0
  6
Continuous
 62
     7
370
    15
100
AcDbLine
 10
35.7261910752
 20
83.3985281064
 30
0.0
 11
35.7261910752
 21
84.3985264077
 31
0.0
  0
LINE
  5
222
330
1F
100
AcDbEntity
  8
0
  6
Continuous
 62
     7
370
    15
100
AcDbLine
 10
56.8261906222
 20
144.3985269292
 30
0.0
 11
56.8261906222
 21
143.3985267653
 31
0.0
  0
ARC
  5
223
330
1F
100
AcDbEntity
  8
0
  6
Continuous
 62
     7
370
    15
100
AcDbCircle
 10
208.2761938289
 20
83.3985268845
 30
0.0
 40
1.449999999999989
100
AcDbArc
 50
180.0
 51
0.0
  0
LINE
  5
224
330
1F
100
AcDbEntity
  8
0
  6
Continuous
 62
     7
370
    15
100
AcDbLine
 10
32.8261941389
 20
144.3985269292
 30
0.0
 11
32.8261941389
 21
143.3985267653
 31
0.0
  0
ARC
  5
225
330
1F
100
AcDbEntity
  8
0
  6
Continuous
 62
     7
370
    15
100
AcDbCircle
 10
208.2761938289
 20
84.3985268845
 30
0.0
 40
1.449999999999989
100
AcDbArc
 50
0.0
 51
180.0
  0
LINE
  5
226
330
1F
100
AcDbEntity
  8
0
  6
Continuous
 62
     7
370
    15
100
AcDbLine
 10
182.8261926488
 20
144.3985269292
 30
0.0
 11
182.8261926488
 21
143.3985267653
 31
0.0
  0
LINE
  5
227
330
1F
100
AcDbEntity
  8
0
  6
Continuous
 62
     7
370
    15
100
AcDbLine
 10
231.2761932329
 20
11.3985274806
 30
0.0
 11
231.2761932329
 21
41.3985286727
 31
0.0
  0
ARC
  5
228
330
1F
100
AcDbEntity
  8
0
  6
Continuous
 62
     7
370
    15
100
AcDbCircle
 10
208.2761938289
 20
144.3985268845
 30
0.0
 40
1.449999999999989
100
AcDbArc
 50
0.0
 51
180.0
  0
CIRCLE
  5
229
330
1F
100
AcDbEntity
  8
0
  6
Continuous
 62
     7
370
    15
100
AcDbCircle
 10
154.7261938289
 20
81.3985268845
 30
0.0
 40
1.450000000000017
  0
LINE
  5
22A
330
1F
100
AcDbEntity
  8
0
  6
Continuous
 62
     7
370
    15
100
AcDbLine
 10
190.9011915044
 20
139.273527719
 30
0.0
 11
201.6511946634
 21
139.273527719
 31
0.0
  0
ARC
  5
22B
330
1F
100
AcDbEntity
  8
0
  6
Continuous
 62
     7
370
    15
100
AcDbCircle
 10
58.2761938289
 20
143.3985268845
 30
0.0
 40
1.450000000000024
100
AcDbArc
 50
180.0
 51
0.0
  0
LINE
  5
22C
330
1F
100
AcDbEntity
  8
0
  6
Continuous
 62
     7
370
    15
100
AcDbLine
 10
185.7261970357
 20
158.3985273614
 30
0.0
 11
185.7261970357
 21
159.3985256626
 31
0.0
  0
ARC
  5
22D
330
1F
100
AcDbEntity
  8
0
  6
Continuous
 62
     7
370
    15
100
AcDbCircle
 10
208.2761938289
 20
158.3985268845
 30
0.0
 40
1.449999999999989
100
AcDbArc
 50
180.0
 51
0.0
  0
LINE
  5
22E
330
1F
100
AcDbEntity
  8
0
  6
Continuous
 62
     7
370
    15
100
AcDbLine
 10
209.726193519
 20
158.3985273614
 30
0.0
 11
209.726193519
 21
159.3985256626
 31
0.0
  0
LINE
  5
22F
330
1F
100
AcDbEntity
  8
0
  6
Continuous
 62
     7
370
    15
100
AcDbLine
 10
209.726193519
 20
143.3985267653
 30
0.0
 11
209.726193519
 21
144.3985269292
 31
0.0
  0
LINE
  5
230
330
1F
100
AcDbEntity
  8
0
  6
Continuous
 62
     7
370
    15
100
AcDbLine
 10
91.2761944995
 20
26.3985280766
 30
0.0
 11
106.2761941642
 21
11.3985274806
 31
0.0
  0
LINE
  5
231
330
1F
100
AcDbEntity
  8
0
  6
Continuous
 62
     7
370
    15
100
AcDbLine
 10
106.2761941642
 20
11.3985274806
 30
0.0
 11
136.2761934937
 21
11.3985274806
 31
0.0
  0
LINE
  5
232
330
1F
100
AcDbEntity
  8
0
  6
Continuous
 62
     7
370
    15
100
AcDbLine
 10
136.2761934937
 20
11.3985274806
 30
0.0
 11
151.2761931584
 21
26.3985280766
 31
0.0
  0
LINE
  5
233
330
1F
100
AcDbEntity
  8
0
  6
Continuous
 62
     7
370
    15
100
AcDbLine
 10
41.2761956171
 20
231.3985262885
 30
0.0
 11
11.276194425
 21
231.3985262885
 31
0.0
  0
LINE
  5
234
330
1F
100
AcDbEntity
  8
0
  6
Continuous
 62
     7
370
    15
100
AcDbLine
 10
151.2761931584
 20
26.3985280766
 30
0.0
 11
186.2761914447
 21
26.3985280766
 31
0.0
  0
ARC
  5
235
330
1F
100
AcDbEntity
  8
0
  6
Continuous
 62
     7
370
    15
100
AcDbCircle
 10
184.2761938289
 20
159.3985268845
 30
0.0
 40
1.450000000000017
100
AcDbArc
 50
0.0
 51
180.0
  0
ARC
  5
236
330
1F
100
AcDbEntity
  8
0
  6
Continuous
 62
     7
370
    15
100
AcDbCircle
 10
184.2761938289
 20
143.3985268845
 30
0.0
 40
1.450000000000017
100
AcDbArc
 50
180.0
 51
0.0
  0
ARC
  5
237
330
1F
100
AcDbEntity
  8
0
  6
Continuous
 62
     7
370
    15
100
AcDbCircle
 10
208.2761938289
 20
99.3985268845
 30
0.0
 40
1.449999999999989
100
AcDbArc
 50
0.0
 51
180.0
  0
ARC
  5
238
330
1F
100
AcDbEntity
  8
0
  6
Continuous
 62
     7
370
    15
100
AcDbCircle
 10
34.2761938289
 20
143.3985268845
 30
0.0
 40
1.450000000000031
100
AcDbArc
 50
180.0
 51
0.0
  0
ARC
  5
239
330
1F
100
AcDbEntity
  8
0
  6
Continuous
 62
     7
370
    15
100
AcDbCircle
 10
34.2761938289
 20
159.3985268845
 30
0.0
 40
1.45000000000001
100
AcDbArc
 50
0.0
 51
180.0
  0
ARC
  5
23A
330
1F
100
AcDbEntity
  8
0
  6
Continuous
 62
     7
370
    15
100
AcDbCircle
 10
58.2761938289
 20
159.3985268845
 30
0.0
 40
1.45000000000001
100
AcDbArc
 50
0.0
 51
180.0
  0
ENDSEC
  0
SECTION
  2
OBJECTS
  0
DICTIONARY
  5
C
330
0
100
AcDbDictionary
281
     1
  3
ACAD_GROUP
350
D
  3
ACAD_LAYOUT
350
1A
  3
ACAD_MLINESTYLE
350
17
  3
ACAD_PLOTSETTINGS
350
19
  3
ACAD_PLOTSTYLENAME
350
E
  3
ACAD_SCALELIST
350
47
  0
DICTIONARY
  5
D
102
{ACAD_REACTORS
330
C
102
}
330
C
100
AcDbDictionary
281
     1
  0
DICTIONARY
  5
1A
102
{ACAD_REACTORS
330
C
102
}
330
C
100
AcDbDictionary
281
     1
  3
Layout1
350
1E
  3
Layout2
350
26
  3
Model
350
22
  0
DICTIONARY
  5
17
102
{ACAD_REACTORS
330
C
102
}
330
C
100
AcDbDictionary
281
     1
  3
Standard
350
18
  0
DICTIONARY
  5
19
102
{ACAD_REACTORS
330
C
102
}
330
C
100
AcDbDictionary
281
     1
  0
ACDBDICTIONARYWDFLT
  5
E
102
{ACAD_REACTORS
330
C
102
}
330
C
100
AcDbDictionary
281
     1
  3
Normal
350
F
100
AcDbDictionaryWithDefault
340
F
  0
DICTIONARY
  5
47
102
{ACAD_REACTORS
330
C
102
}
330
C
100
AcDbDictionary
281
     1
  3
A0
350
48
  3
A1
350
49
  3
A2
350
4A
  3
A3
350
4B
  3
A4
350
4C
  3
A5
350
4D
  3
A6
350
4E
  3
A7
350
4F
  3
A8
350
50
  3
A9
350
51
  3
B0
350
52
  3
B1
350
53
  3
B2
350
54
  3
B3
350
55
  3
B4
350
56
  3
B5
350
57
  3
B6
350
58
  3
B7
350
59
  3
B8
350
5A
  3
B9
350
5B
  3
C0
350
5C
  3
C1
350
5D
  3
C2
350
5E
  3
C3
350
5F
  3
C4
350
60
  3
C5
350
61
  3
C6
350
62
  3
C7
350
63
  3
C8
350
64
  3
C9
350
65
  3
D0
350
66
  3
D1
350
67
  3
D2
350
68
  0
LAYOUT
  5
1E
102
{ACAD_REACTORS
330
1A
102
}
330
1A
100
AcDbPlotSettings
  1

  2
none_device
  4

  6

 40
0.0
 41
0.0
 42
0.0
 43
0.0
 44
0.0
 45
0.0
 46
0.0
 47
0.0
 48
0.0
 49
0.0
140
0.0
141
0.0
142
1.0
143
1.0
 70
   688
 72
     1
 73
     0
 74
     5
  7

 75
    16
147
1.0
148
0.0
149
0.0
100
AcDbLayout
  1
Layout1
 70
     1
 71
     1
 10
0.0
 20
0.0
 11
420.0
 21
297.0
 12
0.0
 22
0.0
 32
0.0
 14
1.0000000000E+20
 24
1.0000000000E+20
 34
1.0000000000E+20
 15
-1.0000000000E+20
 25
-1.0000000000E+20
 35
-1.0000000000E+20
146
0.0
 13
0.0
 23
0.0
 33
0.0
 16
1.0
 26
0.0
 36
0.0
 17
0.0
 27
1.0
 37
0.0
 76
     0
330
1B
  0
LAYOUT
  5
26
102
{ACAD_REACTORS
330
1A
102
}
330
1A
100
AcDbPlotSettings
  1

  2
none_device
  4

  6

 40
0.0
 41
0.0
 42
0.0
 43
0.0
 44
0.0
 45
0.0
 46
0.0
 47
0.0
 48
0.0
 49
0.0
140
0.0
141
0.0
142
1.0
143
1.0
 70
   688
 72
     1
 73
     0
 74
     5
  7

 75
    16
147
1.0
148
0.0
149
0.0
100
AcDbLayout
  1
Layout2
 70
     1
 71
     2
 10
0.0
 20
0.0
 11
0.0
 21
0.0
 12
0.0
 22
0.0
 32
0.0
 14
0.0
 24
0.0
 34
0.0
 15
0.0
 25
0.0
 35
0.0
146
0.0
 13
0.0
 23
0.0
 33
0.0
 16
1.0
 26
0.0
 36
0.0
 17
0.0
 27
1.0
 37
0.0
 76
     0
330
23
  0
LAYOUT
  5
22
102
{ACAD_REACTORS
330
1A
102
}
330
1A
100
AcDbPlotSettings
  1

  2
none_device
  4
Letter_(8.50_x_11.00_Inches)
  6

 40
6.35
 41
6.35
 42
6.35000508
 43
6.35000508
 44
215.9
 45
279.4
 46
0.0
 47
0.0
 48
0.0
 49
0.0
140
0.0
141
0.0
142
1.0
143
1.0
 70
  1712
 72
     1
 73
     0
 74
     0
  7

 75
     0
147
1.0
148
0.0
149
0.0
100
AcDbLayout
  1
Model
 70
     1
 71
     0
 10
0.0
 20
0.0
 11
320.0
 21
265.0
 12
0.0
 22
0.0
 32
0.0
 14
0.0
 24
0.0
 34
0.0
 15
320.0
 25
265.0
 35
0.0
146
0.0
 13
0.0
 23
0.0
 33
0.0
 16
1.0
 26
0.0
 36
0.0
 17
0.0
 27
1.0
 37
0.0
 76
     0
330
1F
331
29
  0
MLINESTYLE
  5
18
102
{ACAD_REACTORS
330
17
102
}
330
17
100
AcDbMlineStyle
  2
Standard
 70
     0
  3

 62
   256
 51
90.0
 52
90.0
 71
     2
 49
0.5
 62
   256
  6
BYLAYER
 49
-0.5
 62
   256
  6
BYLAYER
  0
ACDBPLACEHOLDER
  5
F
102
{ACAD_REACTORS
330
E
102
}
330
E
  0
SCALE
  5
48
102
{ACAD_REACTORS
330
47
102
}
330
47
100
AcDbScale
 70
     0
300
1:1
140
1.0
141
1.0
290
     1
  0
SCALE
  5
49
102
{ACAD_REACTORS
330
47
102
}
330
47
100
AcDbScale
 70
     0
300
1:2
140
1.0
141
2.0
290
     0
  0
SCALE
  5
4A
102
{ACAD_REACTORS
330
47
102
}
330
47
100
AcDbScale
 70
     0
300
1:4
140
1.0
141
4.0
290
     0
  0
SCALE
  5
4B
102
{ACAD_REACTORS
330
47
102
}
330
47
100
AcDbScale
 70
     0
300
1:5
140
1.0
141
5.0
290
     0
  0
SCALE
  5
4C
102
{ACAD_REACTORS
330
47
102
}
330
47
100
AcDbScale
 70
     0
300
1:8
140
1.0
141
8.0
290
     0
  0
SCALE
  5
4D
102
{ACAD_REACTORS
330
47
102
}
330
47
100
AcDbScale
 70
     0
300
1:10
140
1.0
141
10.0
290
     0
  0
SCALE
  5
4E
102
{ACAD_REACTORS
330
47
102
}
330
47
100
AcDbScale
 70
     0
300
1:16
140
1.0
141
16.0
290
     0
  0
SCALE
  5
4F
102
{ACAD_REACTORS
330
47
102
}
330
47
100
AcDbScale
 70
     0
300
1:20
140
1.0
141
20.0
290
     0
  0
SCALE
  5
50
102
{ACAD_REACTORS
330
47
102
}
330
47
100
AcDbScale
 70
     0
300
1:30
140
1.0
141
30.0
290
     0
  0
SCALE
  5
51
102
{ACAD_REACTORS
330
47
102
}
330
47
100
AcDbScale
 70
     0
300
1:40
140
1.0
141
40.0
290
     0
  0
SCALE
  5
52
102
{ACAD_REACTORS
330
47
102
}
330
47
100
AcDbScale
 70
     0
300
1:50
140
1.0
141
50.0
290
     0
  0
SCALE
  5
53
102
{ACAD_REACTORS
330
47
102
}
330
47
100
AcDbScale
 70
     0
300
1:100
140
1.0
141
100.0
290
     0
  0
SCALE
  5
54
102
{ACAD_REACTORS
330
47
102
}
330
47
100
AcDbScale
 70
     0
300
2:1
140
2.0
141
1.0
290
     0
  0
SCALE
  5
55
102
{ACAD_REACTORS
330
47
102
}
330
47
100
AcDbScale
 70
     0
300
4:1
140
4.0
141
1.0
290
     0
  0
SCALE
  5
56
102
{ACAD_REACTORS
330
47
102
}
330
47
100
AcDbScale
 70
     0
300
8:1
140
8.0
141
1.0
290
     0
  0
SCALE
  5
57
102
{ACAD_REACTORS
330
47
102
}
330
47
100
AcDbScale
 70
     0
300
10:1
140
10.0
141
1.0
290
     0
  0
SCALE
  5
58
102
{ACAD_REACTORS
330
47
102
}
330
47
100
AcDbScale
 70
     0
300
100:1
140
100.0
141
1.0
290
     0
  0
SCALE
  5
59
102
{ACAD_REACTORS
330
47
102
}
330
47
100
AcDbScale
 70
     0
300
1/128" = 1'-0"
140
0.0078125
141
12.0
290
     0
  0
SCALE
  5
5A
102
{ACAD_REACTORS
330
47
102
}
330
47
100
AcDbScale
 70
     0
300
1/64" = 1'-0"
140
0.015625
141
12.0
290
     0
  0
SCALE
  5
5B
102
{ACAD_REACTORS
330
47
102
}
330
47
100
AcDbScale
 70
     0
300
1/32" = 1'-0"
140
0.03125
141
12.0
290
     0
  0
SCALE
  5
5C
102
{ACAD_REACTORS
330
47
102
}
330
47
100
AcDbScale
 70
     0
300
1/16" = 1'-0"
140
0.0625
141
12.0
290
     0
  0
SCALE
  5
5D
102
{ACAD_REACTORS
330
47
102
}
330
47
100
AcDbScale
 70
     0
300
3/32" = 1'-0"
140
0.09375
141
12.0
290
     0
  0
SCALE
  5
5E
102
{ACAD_REACTORS
330
47
102
}
330
47
100
AcDbScale
 70
     0
300
1/8" = 1'-0"
140
0.125
141
12.0
290
     0
  0
SCALE
  5
5F
102
{ACAD_REACTORS
330
47
102
}
330
47
100
AcDbScale
 70
     0
300
3/16" = 1'-0"
140
0.1875
141
12.0
290
     0
  0
SCALE
  5
60
102
{ACAD_REACTORS
330
47
102
}
330
47
100
AcDbScale
 70
     0
300
1/4" = 1'-0"
140
0.25
141
12.0
290
     0
  0
SCALE
  5
61
102
{ACAD_REACTORS
330
47
102
}
330
47
100
AcDbScale
 70
     0
300
3/8" = 1'-0"
140
0.375
141
12.0
290
     0
  0
SCALE
  5
62
102
{ACAD_REACTORS
330
47
102
}
330
47
100
AcDbScale
 70
     0
300
1/2" = 1'-0"
140
0.5
141
12.0
290
     0
  0
SCALE
  5
63
102
{ACAD_REACTORS
330
47
102
}
330
47
100
AcDbScale
 70
     0
300
3/4" = 1'-0"
140
0.75
141
12.0
290
     0
  0
SCALE
  5
64
102
{ACAD_REACTORS
330
47
102
}
330
47
100
AcDbScale
 70
     0
300
1" = 1'-0"
140
1.0
141
12.0
290
     0
  0
SCALE
  5
65
102
{ACAD_REACTORS
330
47
102
}
330
47
100
AcDbScale
 70
     0
300
1-1/2" = 1'-0"
140
1.5
141
12.0
290
     0
  0
SCALE
  5
66
102
{ACAD_REACTORS
330
47
102
}
330
47
100
AcDbScale
 70
     0
300
3" = 1'-0"
140
3.0
141
12.0
290
     0
  0
SCALE
  5
67
102
{ACAD_REACTORS
330
47
102
}
330
47
100
AcDbScale
 70
     0
300
6" = 1'-0"
140
6.0
141
12.0
290
     0
  0
SCALE
  5
68
102
{ACAD_REACTORS
330
47
102
}
330
47
100
AcDbScale
 70
     0
300
1'-0" = 1'-0"
140
12.0
141
12.0
290
     0
  0
ENDSEC
  0
EOF
