  0
SECTION
  2
HEADER
  9
$ACADVER
  1
AC1014
  9
$HANDSEED
  5
FFFF
  9
$MEASUREMENT
 70
     1
  0
ENDSEC
  0
SECTION
  2
TABLES
  0
TABLE
  2
VPORT
  5
8
330
0
100
AcDbSymbolTable
 70
     4
  0
VPORT
  5
2E
330
8
100
AcDbSymbolTableRecord
100
AcDbViewportTableRecord
  2
*ACTIVE
 70
     0
 10
0.0
 20
0.0
 11
1.0
 21
1.0
 12
210.0
 22
148.5
 13
0.0
 23
0.0
 14
10.0
 24
10.0
 15
10.0
 25
10.0
 16
0.0
 26
0.0
 36
1.0
 17
0.0
 27
0.0
 37
0.0
 40
341.0
 41
1.24
 42
50.0
 43
0.0
 44
0.0
 50
0.0
 51
0.0
 71
     0
 72
   100
 73
     1
 74
     3
 75
     0
 76
     0
 77
     0
 78
     0
  0
ENDTAB
  0
TABLE
  2
LTYPE
  5
5
330
0
100
AcDbSymbolTable
 70
     1
  0
LTYPE
  5
14
330
5
100
AcDbSymbolTableRecord
100
AcDbLinetypeTableRecord
  2
BYBLOCK
 70
     0
  3

 72
    65
 73
     0
 40
0.0
  0
LTYPE
  5
15
330
5
100
AcDbSymbolTableRecord
100
AcDbLinetypeTableRecord
  2
BYLAYER
 70
     0
  3

 72
    65
 73
     0
 40
0.0
  0
LTYPE
  5
16
330
5
100
AcDbSymbolTableRecord
100
AcDbLinetypeTableRecord
  2
CONTINUOUS
 70
     0
  3
Solid line
 72
    65
 73
     0
 40
0.0
  0
ENDTAB
  0
TABLE
  2
LAYER
  5
2
100
AcDbSymbolTable
 70
2
  0
LAYER
  5
50
100
AcDbSymbolTableRecord
100
AcDbLayerTableRecord
  2
0
 70
0
  6
CONTINUOUS
  0
LAYER
  5
51
100
AcDbSymbolTableRecord
100
AcDbLayerTableRecord
  2
Layer_1
 70
0
  6
CONTINUOUS
  0
ENDTAB
  0
TABLE
  2
STYLE
  5
3
330
0
100
AcDbSymbolTable
 70
     1
  0
STYLE
  5
11
330
3
100
AcDbSymbolTableRecord
100
AcDbTextStyleTableRecord
  2
STANDARD
 70
     0
 40
0.0
 41
1.0
 50
0.0
 71
     0
 42
2.5
  3
txt
  4

  0
ENDTAB
  0
TABLE
  2
VIEW
  5
6
330
0
100
AcDbSymbolTable
 70
     0
  0
ENDTAB
  0
TABLE
  2
UCS
  5
7
330
0
100
AcDbSymbolTable
 70
     0
  0
ENDTAB
  0
TABLE
  2
APPID
  5
9
330
0
100
AcDbSymbolTable
 70
     2
  0
APPID
  5
12
330
9
100
AcDbSymbolTableRecord
100
AcDbRegAppTableRecord
  2
ACAD
 70
     0
  0
ENDTAB
  0
TABLE
  2
DIMSTYLE
  5
A
330
0
100
AcDbSymbolTable
 70
     1
  0
DIMSTYLE
105
27
330
A
100
AcDbSymbolTableRecord
100
AcDbDimStyleTableRecord
  2
ISO-25
 70
     0
  3

  4

  5

  6

  7

 40
1.0
 41
2.5
 42
0.625
 43
3.75
 44
1.25
 45
0.0
 46
0.0
 47
0.0
 48
0.0
140
2.5
141
2.5
142
0.0
143
0.03937007874016
144
1.0
145
0.0
146
1.0
147
0.625
 71
     0
 72
     0
 73
     0
 74
     0
 75
     0
 76
     0
 77
     1
 78
     8
170
     0
171
     3
172
     1
173
     0
174
     0
175
     0
176
     0
177
     0
178
     0
270
     2
271
     2
272
     2
273
     2
274
     3
340
11
275
     0
280
     0
281
     0
282
     0
283
     0
284
     8
285
     0
286
     0
287
     3
288
     0
  0
ENDTAB
  0
TABLE
  2
BLOCK_RECORD
  5
1
330
0
100
AcDbSymbolTable
 70
     1
  0
BLOCK_RECORD
  5
1F
330
1
100
AcDbSymbolTableRecord
100
AcDbBlockTableRecord
  2
*MODEL_SPACE
  0
BLOCK_RECORD
  5
1B
330
1
100
AcDbSymbolTableRecord
100
AcDbBlockTableRecord
  2
*PAPER_SPACE
  0
ENDTAB
  0
ENDSEC
  0
SECTION
  2
BLOCKS
  0
BLOCK
  5
20
330
1F
100
AcDbEntity
  8
0
100
AcDbBlockBegin
  2
*MODEL_SPACE
 70
     0
 10
0.0
 20
0.0
 30
0.0
  3
*MODEL_SPACE
  1

  0
ENDBLK
  5
21
330
1F
100
AcDbEntity
  8
0
100
AcDbBlockEnd
  0
BLOCK
  5
1C
330
1B
100
AcDbEntity
 67
     1
  8
0
100
AcDbBlockBegin
  2
*PAPER_SPACE
  1

  0
ENDBLK
  5
1D
330
1B
100
AcDbEntity
 67
     1
  8
0
100
AcDbBlockEnd
  0
ENDSEC
  0
SECTION
  2
ENTITIES
  0
SPLINE
  5
100
100
AcDbEntity
  8
Layer_1
 62
7
100
AcDbSpline
 70
8
 71
3
 72
8
 73
4
 74
0
 40
0
 40
0
 40
0
 40
0
 40
1
 40
1
 40
1
 40
1
 10
178.646032
 20
184.628576
 30
0.0
 10
178.646838
 20
185.343644
 30
0.0
 10
178.265816
 20
186.004738
 30
0.0
 10
177.646683
 20
186.362505
 30
0.0
  0
SPLINE
  5
101
100
AcDbEntity
  8
Layer_1
 62
7
100
AcDbSpline
 70
8
 71
3
 72
8
 73
4
 74
0
 40
0
 40
0
 40
0
 40
0
 40
1
 40
1
 40
1
 40
1
 10
177.646683
 20
186.362505
 30
0.0
 10
177.027551
 20
186.720272
 30
0.0
 10
176.264515
 20
186.720272
 30
0.0
 10
175.645382
 20
186.362505
 30
0.0
  0
SPLINE
  5
102
100
AcDbEntity
  8
Layer_1
 62
7
100
AcDbSpline
 70
8
 71
3
 72
8
 73
4
 74
0
 40
0
 40
0
 40
0
 40
0
 40
1
 40
1
 40
1
 40
1
 10
175.645382
 20
186.362505
 30
0.0
 10
175.026249
 20
186.004738
 30
0.0
 10
174.645228
 20
185.343644
 30
0.0
 10
174.646034
 20
184.628576
 30
0.0
  0
SPLINE
  5
103
100
AcDbEntity
  8
Layer_1
 62
7
100
AcDbSpline
 70
8
 71
3
 72
8
 73
4
 74
0
 40
0
 40
0
 40
0
 40
0
 40
1
 40
1
 40
1
 40
1
 10
174.646034
 20
184.628576
 30
0.0
 10
174.645228
 20
183.913508
 30
0.0
 10
175.026249
 20
183.252414
 30
0.0
 10
175.645382
 20
182.894647
 30
0.0
  0
SPLINE
  5
104
100
AcDbEntity
  8
Layer_1
 62
7
100
AcDbSpline
 70
8
 71
3
 72
8
 73
4
 74
0
 40
0
 40
0
 40
0
 40
0
 40
1
 40
1
 40
1
 40
1
 10
175.645382
 20
182.894647
 30
0.0
 10
176.264515
 20
182.536880
 30
0.0
 10
177.027551
 20
182.536880
 30
0.0
 10
177.646683
 20
182.894647
 30
0.0
  0
SPLINE
  5
105
100
AcDbEntity
  8
Layer_1
 62
7
100
AcDbSpline
 70
8
 71
3
 72
8
 73
4
 74
0
 40
0
 40
0
 40
0
 40
0
 40
1
 40
1
 40
1
 40
1
 10
177.646683
 20
182.894647
 30
0.0
 10
178.265816
 20
183.252414
 30
0.0
 10
178.646838
 20
183.913508
 30
0.0
 10
178.646032
 20
184.628576
 30
0.0
  0
LINE
  5
106
100
AcDbEntity
  8
Layer_1
 62
7
100
AcDbLine
 10
178.646032
 20
184.628576
 30
0.0
 11
178.646032
 21
184.628576
 31
0.0
  0
SPLINE
  5
107
100
AcDbEntity
  8
Layer_1
 62
7
100
AcDbSpline
 70
8
 71
3
 72
8
 73
4
 74
0
 40
0
 40
0
 40
0
 40
0
 40
1
 40
1
 40
1
 40
1
 10
202.646032
 20
184.628576
 30
0.0
 10
202.646837
 20
185.343644
 30
0.0
 10
202.265816
 20
186.004738
 30
0.0
 10
201.646683
 20
186.362505
 30
0.0
  0
SPLINE
  5
108
100
AcDbEntity
  8
Layer_1
 62
7
100
AcDbSpline
 70
8
 71
3
 72
8
 73
4
 74
0
 40
0
 40
0
 40
0
 40
0
 40
1
 40
1
 40
1
 40
1
 10
201.646683
 20
186.362505
 30
0.0
 10
201.027551
 20
186.720272
 30
0.0
 10
200.264515
 20
186.720272
 30
0.0
 10
199.645382
 20
186.362505
 30
0.0
  0
SPLINE
  5
109
100
AcDbEntity
  8
Layer_1
 62
7
100
AcDbSpline
 70
8
 71
3
 72
8
 73
4
 74
0
 40
0
 40
0
 40
0
 40
0
 40
1
 40
1
 40
1
 40
1
 10
199.645382
 20
186.362505
 30
0.0
 10
199.026249
 20
186.004738
 30
0.0
 10
198.645228
 20
185.343644
 30
0.0
 10
198.646034
 20
184.628576
 30
0.0
  0
SPLINE
  5
10a
100
AcDbEntity
  8
Layer_1
 62
7
100
AcDbSpline
 70
8
 71
3
 72
8
 73
4
 74
0
 40
0
 40
0
 40
0
 40
0
 40
1
 40
1
 40
1
 40
1
 10
198.646034
 20
184.628576
 30
0.0
 10
198.645228
 20
183.913508
 30
0.0
 10
199.026249
 20
183.252414
 30
0.0
 10
199.645382
 20
182.894647
 30
0.0
  0
SPLINE
  5
10b
100
AcDbEntity
  8
Layer_1
 62
7
100
AcDbSpline
 70
8
 71
3
 72
8
 73
4
 74
0
 40
0
 40
0
 40
0
 40
0
 40
1
 40
1
 40
1
 40
1
 10
199.645382
 20
182.894647
 30
0.0
 10
200.264515
 20
182.536880
 30
0.0
 10
201.027551
 20
182.536880
 30
0.0
 10
201.646683
 20
182.894647
 30
0.0
  0
SPLINE
  5
10c
100
AcDbEntity
  8
Layer_1
 62
7
100
AcDbSpline
 70
8
 71
3
 72
8
 73
4
 74
0
 40
0
 40
0
 40
0
 40
0
 40
1
 40
1
 40
1
 40
1
 10
201.646683
 20
182.894647
 30
0.0
 10
202.265816
 20
183.252414
 30
0.0
 10
202.646837
 20
183.913508
 30
0.0
 10
202.646032
 20
184.628576
 30
0.0
  0
LINE
  5
10d
100
AcDbEntity
  8
Layer_1
 62
7
100
AcDbLine
 10
202.646032
 20
184.628576
 30
0.0
 11
202.646032
 21
184.628576
 31
0.0
  0
SPLINE
  5
10e
100
AcDbEntity
  8
Layer_1
 62
7
100
AcDbSpline
 70
8
 71
3
 72
8
 73
4
 74
0
 40
0
 40
0
 40
0
 40
0
 40
1
 40
1
 40
1
 40
1
 10
202.646032
 20
166.628575
 30
0.0
 10
202.646837
 20
167.343643
 30
0.0
 10
202.265816
 20
168.004738
 30
0.0
 10
201.646683
 20
168.362504
 30
0.0
  0
SPLINE
  5
10f
100
AcDbEntity
  8
Layer_1
 62
7
100
AcDbSpline
 70
8
 71
3
 72
8
 73
4
 74
0
 40
0
 40
0
 40
0
 40
0
 40
1
 40
1
 40
1
 40
1
 10
201.646683
 20
168.362504
 30
0.0
 10
201.027551
 20
168.720271
 30
0.0
 10
200.264515
 20
168.720271
 30
0.0
 10
199.645382
 20
168.362504
 30
0.0
  0
SPLINE
  5
110
100
AcDbEntity
  8
Layer_1
 62
7
100
AcDbSpline
 70
8
 71
3
 72
8
 73
4
 74
0
 40
0
 40
0
 40
0
 40
0
 40
1
 40
1
 40
1
 40
1
 10
199.645382
 20
168.362504
 30
0.0
 10
199.026249
 20
168.004738
 30
0.0
 10
198.645228
 20
167.343643
 30
0.0
 10
198.646034
 20
166.628575
 30
0.0
  0
SPLINE
  5
111
100
AcDbEntity
  8
Layer_1
 62
7
100
AcDbSpline
 70
8
 71
3
 72
8
 73
4
 74
0
 40
0
 40
0
 40
0
 40
0
 40
1
 40
1
 40
1
 40
1
 10
198.646034
 20
166.628575
 30
0.0
 10
198.645228
 20
165.913508
 30
0.0
 10
199.026249
 20
165.252413
 30
0.0
 10
199.645382
 20
164.894646
 30
0.0
  0
SPLINE
  5
112
100
AcDbEntity
  8
Layer_1
 62
7
100
AcDbSpline
 70
8
 71
3
 72
8
 73
4
 74
0
 40
0
 40
0
 40
0
 40
0
 40
1
 40
1
 40
1
 40
1
 10
199.645382
 20
164.894646
 30
0.0
 10
200.264515
 20
164.536880
 30
0.0
 10
201.027551
 20
164.536880
 30
0.0
 10
201.646683
 20
164.894646
 30
0.0
  0
SPLINE
  5
113
100
AcDbEntity
  8
Layer_1
 62
7
100
AcDbSpline
 70
8
 71
3
 72
8
 73
4
 74
0
 40
0
 40
0
 40
0
 40
0
 40
1
 40
1
 40
1
 40
1
 10
201.646683
 20
164.894646
 30
0.0
 10
202.265816
 20
165.252413
 30
0.0
 10
202.646837
 20
165.913508
 30
0.0
 10
202.646032
 20
166.628575
 30
0.0
  0
LINE
  5
114
100
AcDbEntity
  8
Layer_1
 62
7
100
AcDbLine
 10
202.646032
 20
166.628575
 30
0.0
 11
202.646032
 21
166.628575
 31
0.0
  0
SPLINE
  5
115
100
AcDbEntity
  8
Layer_1
 62
7
100
AcDbSpline
 70
8
 71
3
 72
8
 73
4
 74
0
 40
0
 40
0
 40
0
 40
0
 40
1
 40
1
 40
1
 40
1
 10
202.646032
 20
94.628564
 30
0.0
 10
202.646837
 20
95.343632
 30
0.0
 10
202.265816
 20
96.004726
 30
0.0
 10
201.646683
 20
96.362493
 30
0.0
  0
SPLINE
  5
116
100
AcDbEntity
  8
Layer_1
 62
7
100
AcDbSpline
 70
8
 71
3
 72
8
 73
4
 74
0
 40
0
 40
0
 40
0
 40
0
 40
1
 40
1
 40
1
 40
1
 10
201.646683
 20
96.362493
 30
0.0
 10
201.027551
 20
96.720260
 30
0.0
 10
200.264515
 20
96.720260
 30
0.0
 10
199.645382
 20
96.362493
 30
0.0
  0
SPLINE
  5
117
100
AcDbEntity
  8
Layer_1
 62
7
100
AcDbSpline
 70
8
 71
3
 72
8
 73
4
 74
0
 40
0
 40
0
 40
0
 40
0
 40
1
 40
1
 40
1
 40
1
 10
199.645382
 20
96.362493
 30
0.0
 10
199.026249
 20
96.004726
 30
0.0
 10
198.645228
 20
95.343632
 30
0.0
 10
198.646034
 20
94.628564
 30
0.0
  0
SPLINE
  5
118
100
AcDbEntity
  8
Layer_1
 62
7
100
AcDbSpline
 70
8
 71
3
 72
8
 73
4
 74
0
 40
0
 40
0
 40
0
 40
0
 40
1
 40
1
 40
1
 40
1
 10
198.646034
 20
94.628564
 30
0.0
 10
198.645228
 20
93.913496
 30
0.0
 10
199.026249
 20
93.252402
 30
0.0
 10
199.645382
 20
92.894635
 30
0.0
  0
SPLINE
  5
119
100
AcDbEntity
  8
Layer_1
 62
7
100
AcDbSpline
 70
8
 71
3
 72
8
 73
4
 74
0
 40
0
 40
0
 40
0
 40
0
 40
1
 40
1
 40
1
 40
1
 10
199.645382
 20
92.894635
 30
0.0
 10
200.264515
 20
92.536868
 30
0.0
 10
201.027551
 20
92.536868
 30
0.0
 10
201.646683
 20
92.894635
 30
0.0
  0
SPLINE
  5
11a
100
AcDbEntity
  8
Layer_1
 62
7
100
AcDbSpline
 70
8
 71
3
 72
8
 73
4
 74
0
 40
0
 40
0
 40
0
 40
0
 40
1
 40
1
 40
1
 40
1
 10
201.646683
 20
92.894635
 30
0.0
 10
202.265816
 20
93.252402
 30
0.0
 10
202.646837
 20
93.913496
 30
0.0
 10
202.646032
 20
94.628564
 30
0.0
  0
LINE
  5
11b
100
AcDbEntity
  8
Layer_1
 62
7
100
AcDbLine
 10
202.646032
 20
94.628564
 30
0.0
 11
202.646032
 21
94.628564
 31
0.0
  0
SPLINE
  5
11c
100
AcDbEntity
  8
Layer_1
 62
7
100
AcDbSpline
 70
8
 71
3
 72
8
 73
4
 74
0
 40
0
 40
0
 40
0
 40
0
 40
1
 40
1
 40
1
 40
1
 10
202.646032
 20
76.628572
 30
0.0
 10
202.646837
 20
77.343639
 30
0.0
 10
202.265816
 20
78.004734
 30
0.0
 10
201.646683
 20
78.362501
 30
0.0
  0
SPLINE
  5
11d
100
AcDbEntity
  8
Layer_1
 62
7
100
AcDbSpline
 70
8
 71
3
 72
8
 73
4
 74
0
 40
0
 40
0
 40
0
 40
0
 40
1
 40
1
 40
1
 40
1
 10
201.646683
 20
78.362501
 30
0.0
 10
201.027551
 20
78.720267
 30
0.0
 10
200.264515
 20
78.720267
 30
0.0
 10
199.645382
 20
78.362501
 30
0.0
  0
SPLINE
  5
11e
100
AcDbEntity
  8
Layer_1
 62
7
100
AcDbSpline
 70
8
 71
3
 72
8
 73
4
 74
0
 40
0
 40
0
 40
0
 40
0
 40
1
 40
1
 40
1
 40
1
 10
199.645382
 20
78.362501
 30
0.0
 10
199.026249
 20
78.004734
 30
0.0
 10
198.645228
 20
77.343639
 30
0.0
 10
198.646034
 20
76.628572
 30
0.0
  0
SPLINE
  5
11f
100
AcDbEntity
  8
Layer_1
 62
7
100
AcDbSpline
 70
8
 71
3
 72
8
 73
4
 74
0
 40
0
 40
0
 40
0
 40
0
 40
1
 40
1
 40
1
 40
1
 10
198.646034
 20
76.628572
 30
0.0
 10
198.645228
 20
75.913504
 30
0.0
 10
199.026249
 20
75.252409
 30
0.0
 10
199.645382
 20
74.894643
 30
0.0
  0
SPLINE
  5
120
100
AcDbEntity
  8
Layer_1
 62
7
100
AcDbSpline
 70
8
 71
3
 72
8
 73
4
 74
0
 40
0
 40
0
 40
0
 40
0
 40
1
 40
1
 40
1
 40
1
 10
199.645382
 20
74.894643
 30
0.0
 10
200.264515
 20
74.536876
 30
0.0
 10
201.027551
 20
74.536876
 30
0.0
 10
201.646683
 20
74.894643
 30
0.0
  0
SPLINE
  5
121
100
AcDbEntity
  8
Layer_1
 62
7
100
AcDbSpline
 70
8
 71
3
 72
8
 73
4
 74
0
 40
0
 40
0
 40
0
 40
0
 40
1
 40
1
 40
1
 40
1
 10
201.646683
 20
74.894643
 30
0.0
 10
202.265816
 20
75.252409
 30
0.0
 10
202.646837
 20
75.913504
 30
0.0
 10
202.646032
 20
76.628572
 30
0.0
  0
LINE
  5
122
100
AcDbEntity
  8
Layer_1
 62
7
100
AcDbLine
 10
202.646032
 20
76.628572
 30
0.0
 11
202.646032
 21
76.628572
 31
0.0
  0
SPLINE
  5
123
100
AcDbEntity
  8
Layer_1
 62
7
100
AcDbSpline
 70
8
 71
3
 72
8
 73
4
 74
0
 40
0
 40
0
 40
0
 40
0
 40
1
 40
1
 40
1
 40
1
 10
178.646032
 20
94.628564
 30
0.0
 10
178.646838
 20
95.343632
 30
0.0
 10
178.265816
 20
96.004726
 30
0.0
 10
177.646683
 20
96.362493
 30
0.0
  0
SPLINE
  5
124
100
AcDbEntity
  8
Layer_1
 62
7
100
AcDbSpline
 70
8
 71
3
 72
8
 73
4
 74
0
 40
0
 40
0
 40
0
 40
0
 40
1
 40
1
 40
1
 40
1
 10
177.646683
 20
96.362493
 30
0.0
 10
177.027551
 20
96.720260
 30
0.0
 10
176.264515
 20
96.720260
 30
0.0
 10
175.645382
 20
96.362493
 30
0.0
  0
SPLINE
  5
125
100
AcDbEntity
  8
Layer_1
 62
7
100
AcDbSpline
 70
8
 71
3
 72
8
 73
4
 74
0
 40
0
 40
0
 40
0
 40
0
 40
1
 40
1
 40
1
 40
1
 10
175.645382
 20
96.362493
 30
0.0
 10
175.026249
 20
96.004726
 30
0.0
 10
174.645228
 20
95.343632
 30
0.0
 10
174.646034
 20
94.628564
 30
0.0
  0
SPLINE
  5
126
100
AcDbEntity
  8
Layer_1
 62
7
100
AcDbSpline
 70
8
 71
3
 72
8
 73
4
 74
0
 40
0
 40
0
 40
0
 40
0
 40
1
 40
1
 40
1
 40
1
 10
174.646034
 20
94.628564
 30
0.0
 10
174.645228
 20
93.913496
 30
0.0
 10
175.026249
 20
93.252402
 30
0.0
 10
175.645382
 20
92.894635
 30
0.0
  0
SPLINE
  5
127
100
AcDbEntity
  8
Layer_1
 62
7
100
AcDbSpline
 70
8
 71
3
 72
8
 73
4
 74
0
 40
0
 40
0
 40
0
 40
0
 40
1
 40
1
 40
1
 40
1
 10
175.645382
 20
92.894635
 30
0.0
 10
176.264515
 20
92.536868
 30
0.0
 10
177.027551
 20
92.536868
 30
0.0
 10
177.646683
 20
92.894635
 30
0.0
  0
SPLINE
  5
128
100
AcDbEntity
  8
Layer_1
 62
7
100
AcDbSpline
 70
8
 71
3
 72
8
 73
4
 74
0
 40
0
 40
0
 40
0
 40
0
 40
1
 40
1
 40
1
 40
1
 10
177.646683
 20
92.894635
 30
0.0
 10
178.265816
 20
93.252402
 30
0.0
 10
178.646838
 20
93.913496
 30
0.0
 10
178.646032
 20
94.628564
 30
0.0
  0
LINE
  5
129
100
AcDbEntity
  8
Layer_1
 62
7
100
AcDbLine
 10
178.646032
 20
94.628564
 30
0.0
 11
178.646032
 21
94.628564
 31
0.0
  0
SPLINE
  5
12a
100
AcDbEntity
  8
Layer_1
 62
7
100
AcDbSpline
 70
8
 71
3
 72
8
 73
4
 74
0
 40
0
 40
0
 40
0
 40
0
 40
1
 40
1
 40
1
 40
1
 10
41.646032
 20
76.628572
 30
0.0
 10
41.646838
 20
77.343639
 30
0.0
 10
41.265816
 20
78.004734
 30
0.0
 10
40.646684
 20
78.362501
 30
0.0
  0
SPLINE
  5
12b
100
AcDbEntity
  8
Layer_1
 62
7
100
AcDbSpline
 70
8
 71
3
 72
8
 73
4
 74
0
 40
0
 40
0
 40
0
 40
0
 40
1
 40
1
 40
1
 40
1
 10
40.646684
 20
78.362501
 30
0.0
 10
40.027551
 20
78.720267
 30
0.0
 10
39.264515
 20
78.720267
 30
0.0
 10
38.645382
 20
78.362501
 30
0.0
  0
SPLINE
  5
12c
100
AcDbEntity
  8
Layer_1
 62
7
100
AcDbSpline
 70
8
 71
3
 72
8
 73
4
 74
0
 40
0
 40
0
 40
0
 40
0
 40
1
 40
1
 40
1
 40
1
 10
38.645382
 20
78.362501
 30
0.0
 10
38.026250
 20
78.004734
 30
0.0
 10
37.645228
 20
77.343639
 30
0.0
 10
37.646034
 20
76.628572
 30
0.0
  0
SPLINE
  5
12d
100
AcDbEntity
  8
Layer_1
 62
7
100
AcDbSpline
 70
8
 71
3
 72
8
 73
4
 74
0
 40
0
 40
0
 40
0
 40
0
 40
1
 40
1
 40
1
 40
1
 10
37.646034
 20
76.628572
 30
0.0
 10
37.645228
 20
75.913504
 30
0.0
 10
38.026250
 20
75.252409
 30
0.0
 10
38.645382
 20
74.894643
 30
0.0
  0
SPLINE
  5
12e
100
AcDbEntity
  8
Layer_1
 62
7
100
AcDbSpline
 70
8
 71
3
 72
8
 73
4
 74
0
 40
0
 40
0
 40
0
 40
0
 40
1
 40
1
 40
1
 40
1
 10
38.645382
 20
74.894643
 30
0.0
 10
39.264515
 20
74.536876
 30
0.0
 10
40.027551
 20
74.536876
 30
0.0
 10
40.646684
 20
74.894643
 30
0.0
  0
SPLINE
  5
12f
100
AcDbEntity
  8
Layer_1
 62
7
100
AcDbSpline
 70
8
 71
3
 72
8
 73
4
 74
0
 40
0
 40
0
 40
0
 40
0
 40
1
 40
1
 40
1
 40
1
 10
40.646684
 20
74.894643
 30
0.0
 10
41.265816
 20
75.252409
 30
0.0
 10
41.646838
 20
75.913504
 30
0.0
 10
41.646032
 20
76.628572
 30
0.0
  0
LINE
  5
130
100
AcDbEntity
  8
Layer_1
 62
7
100
AcDbLine
 10
41.646032
 20
76.628572
 30
0.0
 11
41.646032
 21
76.628572
 31
0.0
  0
SPLINE
  5
131
100
AcDbEntity
  8
Layer_1
 62
7
100
AcDbSpline
 70
8
 71
3
 72
8
 73
4
 74
0
 40
0
 40
0
 40
0
 40
0
 40
1
 40
1
 40
1
 40
1
 10
65.646032
 20
76.628572
 30
0.0
 10
65.646838
 20
77.343639
 30
0.0
 10
65.265816
 20
78.004734
 30
0.0
 10
64.646684
 20
78.362501
 30
0.0
  0
SPLINE
  5
132
100
AcDbEntity
  8
Layer_1
 62
7
100
AcDbSpline
 70
8
 71
3
 72
8
 73
4
 74
0
 40
0
 40
0
 40
0
 40
0
 40
1
 40
1
 40
1
 40
1
 10
64.646684
 20
78.362501
 30
0.0
 10
64.027551
 20
78.720267
 30
0.0
 10
63.264515
 20
78.720267
 30
0.0
 10
62.645382
 20
78.362501
 30
0.0
  0
SPLINE
  5
133
100
AcDbEntity
  8
Layer_1
 62
7
100
AcDbSpline
 70
8
 71
3
 72
8
 73
4
 74
0
 40
0
 40
0
 40
0
 40
0
 40
1
 40
1
 40
1
 40
1
 10
62.645382
 20
78.362501
 30
0.0
 10
62.026250
 20
78.004734
 30
0.0
 10
61.645228
 20
77.343639
 30
0.0
 10
61.646034
 20
76.628572
 30
0.0
  0
SPLINE
  5
134
100
AcDbEntity
  8
Layer_1
 62
7
100
AcDbSpline
 70
8
 71
3
 72
8
 73
4
 74
0
 40
0
 40
0
 40
0
 40
0
 40
1
 40
1
 40
1
 40
1
 10
61.646034
 20
76.628572
 30
0.0
 10
61.645228
 20
75.913504
 30
0.0
 10
62.026250
 20
75.252409
 30
0.0
 10
62.645382
 20
74.894643
 30
0.0
  0
SPLINE
  5
135
100
AcDbEntity
  8
Layer_1
 62
7
100
AcDbSpline
 70
8
 71
3
 72
8
 73
4
 74
0
 40
0
 40
0
 40
0
 40
0
 40
1
 40
1
 40
1
 40
1
 10
62.645382
 20
74.894643
 30
0.0
 10
63.264515
 20
74.536876
 30
0.0
 10
64.027551
 20
74.536876
 30
0.0
 10
64.646684
 20
74.894643
 30
0.0
  0
SPLINE
  5
136
100
AcDbEntity
  8
Layer_1
 62
7
100
AcDbSpline
 70
8
 71
3
 72
8
 73
4
 74
0
 40
0
 40
0
 40
0
 40
0
 40
1
 40
1
 40
1
 40
1
 10
64.646684
 20
74.894643
 30
0.0
 10
65.265816
 20
75.252409
 30
0.0
 10
65.646838
 20
75.913504
 30
0.0
 10
65.646032
 20
76.628572
 30
0.0
  0
LINE
  5
137
100
AcDbEntity
  8
Layer_1
 62
7
100
AcDbLine
 10
65.646032
 20
76.628572
 30
0.0
 11
65.646032
 21
76.628572
 31
0.0
  0
SPLINE
  5
138
100
AcDbEntity
  8
Layer_1
 62
7
100
AcDbSpline
 70
8
 71
3
 72
8
 73
4
 74
0
 40
0
 40
0
 40
0
 40
0
 40
1
 40
1
 40
1
 40
1
 10
65.646032
 20
94.628564
 30
0.0
 10
65.646838
 20
95.343632
 30
0.0
 10
65.265816
 20
96.004726
 30
0.0
 10
64.646684
 20
96.362493
 30
0.0
  0
SPLINE
  5
139
100
AcDbEntity
  8
Layer_1
 62
7
100
AcDbSpline
 70
8
 71
3
 72
8
 73
4
 74
0
 40
0
 40
0
 40
0
 40
0
 40
1
 40
1
 40
1
 40
1
 10
64.646684
 20
96.362493
 30
0.0
 10
64.027551
 20
96.720260
 30
0.0
 10
63.264515
 20
96.720260
 30
0.0
 10
62.645382
 20
96.362493
 30
0.0
  0
SPLINE
  5
13a
100
AcDbEntity
  8
Layer_1
 62
7
100
AcDbSpline
 70
8
 71
3
 72
8
 73
4
 74
0
 40
0
 40
0
 40
0
 40
0
 40
1
 40
1
 40
1
 40
1
 10
62.645382
 20
96.362493
 30
0.0
 10
62.026250
 20
96.004726
 30
0.0
 10
61.645228
 20
95.343632
 30
0.0
 10
61.646034
 20
94.628564
 30
0.0
  0
SPLINE
  5
13b
100
AcDbEntity
  8
Layer_1
 62
7
100
AcDbSpline
 70
8
 71
3
 72
8
 73
4
 74
0
 40
0
 40
0
 40
0
 40
0
 40
1
 40
1
 40
1
 40
1
 10
61.646034
 20
94.628564
 30
0.0
 10
61.645228
 20
93.913496
 30
0.0
 10
62.026250
 20
93.252402
 30
0.0
 10
62.645382
 20
92.894635
 30
0.0
  0
SPLINE
  5
13c
100
AcDbEntity
  8
Layer_1
 62
7
100
AcDbSpline
 70
8
 71
3
 72
8
 73
4
 74
0
 40
0
 40
0
 40
0
 40
0
 40
1
 40
1
 40
1
 40
1
 10
62.645382
 20
92.894635
 30
0.0
 10
63.264515
 20
92.536868
 30
0.0
 10
64.027551
 20
92.536868
 30
0.0
 10
64.646684
 20
92.894635
 30
0.0
  0
SPLINE
  5
13d
100
AcDbEntity
  8
Layer_1
 62
7
100
AcDbSpline
 70
8
 71
3
 72
8
 73
4
 74
0
 40
0
 40
0
 40
0
 40
0
 40
1
 40
1
 40
1
 40
1
 10
64.646684
 20
92.894635
 30
0.0
 10
65.265816
 20
93.252402
 30
0.0
 10
65.646838
 20
93.913496
 30
0.0
 10
65.646032
 20
94.628564
 30
0.0
  0
LINE
  5
13e
100
AcDbEntity
  8
Layer_1
 62
7
100
AcDbLine
 10
65.646032
 20
94.628564
 30
0.0
 11
65.646032
 21
94.628564
 31
0.0
  0
SPLINE
  5
13f
100
AcDbEntity
  8
Layer_1
 62
7
100
AcDbSpline
 70
8
 71
3
 72
8
 73
4
 74
0
 40
0
 40
0
 40
0
 40
0
 40
1
 40
1
 40
1
 40
1
 10
65.646032
 20
184.628576
 30
0.0
 10
65.646838
 20
185.343644
 30
0.0
 10
65.265816
 20
186.004738
 30
0.0
 10
64.646684
 20
186.362505
 30
0.0
  0
SPLINE
  5
140
100
AcDbEntity
  8
Layer_1
 62
7
100
AcDbSpline
 70
8
 71
3
 72
8
 73
4
 74
0
 40
0
 40
0
 40
0
 40
0
 40
1
 40
1
 40
1
 40
1
 10
64.646684
 20
186.362505
 30
0.0
 10
64.027551
 20
186.720272
 30
0.0
 10
63.264515
 20
186.720272
 30
0.0
 10
62.645382
 20
186.362505
 30
0.0
  0
SPLINE
  5
141
100
AcDbEntity
  8
Layer_1
 62
7
100
AcDbSpline
 70
8
 71
3
 72
8
 73
4
 74
0
 40
0
 40
0
 40
0
 40
0
 40
1
 40
1
 40
1
 40
1
 10
62.645382
 20
186.362505
 30
0.0
 10
62.026250
 20
186.004738
 30
0.0
 10
61.645228
 20
185.343644
 30
0.0
 10
61.646034
 20
184.628576
 30
0.0
  0
SPLINE
  5
142
100
AcDbEntity
  8
Layer_1
 62
7
100
AcDbSpline
 70
8
 71
3
 72
8
 73
4
 74
0
 40
0
 40
0
 40
0
 40
0
 40
1
 40
1
 40
1
 40
1
 10
61.646034
 20
184.628576
 30
0.0
 10
61.645228
 20
183.913508
 30
0.0
 10
62.026250
 20
183.252414
 30
0.0
 10
62.645382
 20
182.894647
 30
0.0
  0
SPLINE
  5
143
100
AcDbEntity
  8
Layer_1
 62
7
100
AcDbSpline
 70
8
 71
3
 72
8
 73
4
 74
0
 40
0
 40
0
 40
0
 40
0
 40
1
 40
1
 40
1
 40
1
 10
62.645382
 20
182.894647
 30
0.0
 10
63.264515
 20
182.536880
 30
0.0
 10
64.027551
 20
182.536880
 30
0.0
 10
64.646684
 20
182.894647
 30
0.0
  0
SPLINE
  5
144
100
AcDbEntity
  8
Layer_1
 62
7
100
AcDbSpline
 70
8
 71
3
 72
8
 73
4
 74
0
 40
0
 40
0
 40
0
 40
0
 40
1
 40
1
 40
1
 40
1
 10
64.646684
 20
182.894647
 30
0.0
 10
65.265816
 20
183.252414
 30
0.0
 10
65.646838
 20
183.913508
 30
0.0
 10
65.646032
 20
184.628576
 30
0.0
  0
LINE
  5
145
100
AcDbEntity
  8
Layer_1
 62
7
100
AcDbLine
 10
65.646032
 20
184.628576
 30
0.0
 11
65.646032
 21
184.628576
 31
0.0
  0
SPLINE
  5
146
100
AcDbEntity
  8
Layer_1
 62
7
100
AcDbSpline
 70
8
 71
3
 72
8
 73
4
 74
0
 40
0
 40
0
 40
0
 40
0
 40
1
 40
1
 40
1
 40
1
 10
65.646032
 20
166.628575
 30
0.0
 10
65.646838
 20
167.343643
 30
0.0
 10
65.265816
 20
168.004738
 30
0.0
 10
64.646684
 20
168.362504
 30
0.0
  0
SPLINE
  5
147
100
AcDbEntity
  8
Layer_1
 62
7
100
AcDbSpline
 70
8
 71
3
 72
8
 73
4
 74
0
 40
0
 40
0
 40
0
 40
0
 40
1
 40
1
 40
1
 40
1
 10
64.646684
 20
168.362504
 30
0.0
 10
64.027551
 20
168.720271
 30
0.0
 10
63.264515
 20
168.720271
 30
0.0
 10
62.645382
 20
168.362504
 30
0.0
  0
SPLINE
  5
148
100
AcDbEntity
  8
Layer_1
 62
7
100
AcDbSpline
 70
8
 71
3
 72
8
 73
4
 74
0
 40
0
 40
0
 40
0
 40
0
 40
1
 40
1
 40
1
 40
1
 10
62.645382
 20
168.362504
 30
0.0
 10
62.026250
 20
168.004738
 30
0.0
 10
61.645228
 20
167.343643
 30
0.0
 10
61.646034
 20
166.628575
 30
0.0
  0
SPLINE
  5
149
100
AcDbEntity
  8
Layer_1
 62
7
100
AcDbSpline
 70
8
 71
3
 72
8
 73
4
 74
0
 40
0
 40
0
 40
0
 40
0
 40
1
 40
1
 40
1
 40
1
 10
61.646034
 20
166.628575
 30
0.0
 10
61.645228
 20
165.913508
 30
0.0
 10
62.026250
 20
165.252413
 30
0.0
 10
62.645382
 20
164.894646
 30
0.0
  0
SPLINE
  5
14a
100
AcDbEntity
  8
Layer_1
 62
7
100
AcDbSpline
 70
8
 71
3
 72
8
 73
4
 74
0
 40
0
 40
0
 40
0
 40
0
 40
1
 40
1
 40
1
 40
1
 10
62.645382
 20
164.894646
 30
0.0
 10
63.264515
 20
164.536880
 30
0.0
 10
64.027551
 20
164.536880
 30
0.0
 10
64.646684
 20
164.894646
 30
0.0
  0
SPLINE
  5
14b
100
AcDbEntity
  8
Layer_1
 62
7
100
AcDbSpline
 70
8
 71
3
 72
8
 73
4
 74
0
 40
0
 40
0
 40
0
 40
0
 40
1
 40
1
 40
1
 40
1
 10
64.646684
 20
164.894646
 30
0.0
 10
65.265816
 20
165.252413
 30
0.0
 10
65.646838
 20
165.913508
 30
0.0
 10
65.646032
 20
166.628575
 30
0.0
  0
LINE
  5
14c
100
AcDbEntity
  8
Layer_1
 62
7
100
AcDbLine
 10
65.646032
 20
166.628575
 30
0.0
 11
65.646032
 21
166.628575
 31
0.0
  0
SPLINE
  5
14d
100
AcDbEntity
  8
Layer_1
 62
7
100
AcDbSpline
 70
8
 71
3
 72
8
 73
4
 74
0
 40
0
 40
0
 40
0
 40
0
 40
1
 40
1
 40
1
 40
1
 10
41.646032
 20
184.628576
 30
0.0
 10
41.646838
 20
185.343644
 30
0.0
 10
41.265816
 20
186.004738
 30
0.0
 10
40.646684
 20
186.362505
 30
0.0
  0
SPLINE
  5
14e
100
AcDbEntity
  8
Layer_1
 62
7
100
AcDbSpline
 70
8
 71
3
 72
8
 73
4
 74
0
 40
0
 40
0
 40
0
 40
0
 40
1
 40
1
 40
1
 40
1
 10
40.646684
 20
186.362505
 30
0.0
 10
40.027551
 20
186.720272
 30
0.0
 10
39.264515
 20
186.720272
 30
0.0
 10
38.645382
 20
186.362505
 30
0.0
  0
SPLINE
  5
14f
100
AcDbEntity
  8
Layer_1
 62
7
100
AcDbSpline
 70
8
 71
3
 72
8
 73
4
 74
0
 40
0
 40
0
 40
0
 40
0
 40
1
 40
1
 40
1
 40
1
 10
38.645382
 20
186.362505
 30
0.0
 10
38.026250
 20
186.004738
 30
0.0
 10
37.645228
 20
185.343644
 30
0.0
 10
37.646034
 20
184.628576
 30
0.0
  0
SPLINE
  5
150
100
AcDbEntity
  8
Layer_1
 62
7
100
AcDbSpline
 70
8
 71
3
 72
8
 73
4
 74
0
 40
0
 40
0
 40
0
 40
0
 40
1
 40
1
 40
1
 40
1
 10
37.646034
 20
184.628576
 30
0.0
 10
37.645228
 20
183.913508
 30
0.0
 10
38.026250
 20
183.252414
 30
0.0
 10
38.645382
 20
182.894647
 30
0.0
  0
SPLINE
  5
151
100
AcDbEntity
  8
Layer_1
 62
7
100
AcDbSpline
 70
8
 71
3
 72
8
 73
4
 74
0
 40
0
 40
0
 40
0
 40
0
 40
1
 40
1
 40
1
 40
1
 10
38.645382
 20
182.894647
 30
0.0
 10
39.264515
 20
182.536880
 30
0.0
 10
40.027551
 20
182.536880
 30
0.0
 10
40.646684
 20
182.894647
 30
0.0
  0
SPLINE
  5
152
100
AcDbEntity
  8
Layer_1
 62
7
100
AcDbSpline
 70
8
 71
3
 72
8
 73
4
 74
0
 40
0
 40
0
 40
0
 40
0
 40
1
 40
1
 40
1
 40
1
 10
40.646684
 20
182.894647
 30
0.0
 10
41.265816
 20
183.252414
 30
0.0
 10
41.646838
 20
183.913508
 30
0.0
 10
41.646032
 20
184.628576
 30
0.0
  0
LINE
  5
153
100
AcDbEntity
  8
Layer_1
 62
7
100
AcDbLine
 10
41.646032
 20
184.628576
 30
0.0
 11
41.646032
 21
184.628576
 31
0.0
  0
SPLINE
  5
154
100
AcDbEntity
  8
Layer_1
 62
7
100
AcDbSpline
 70
8
 71
3
 72
8
 73
4
 74
0
 40
0
 40
0
 40
0
 40
0
 40
1
 40
1
 40
1
 40
1
 10
129.146033
 20
144.628577
 30
0.0
 10
129.146266
 20
145.164630
 30
0.0
 10
128.860418
 20
145.660064
 30
0.0
 10
128.396221
 20
145.928157
 30
0.0
  0
SPLINE
  5
155
100
AcDbEntity
  8
Layer_1
 62
7
100
AcDbSpline
 70
8
 71
3
 72
8
 73
4
 74
0
 40
0
 40
0
 40
0
 40
0
 40
1
 40
1
 40
1
 40
1
 10
128.396221
 20
145.928157
 30
0.0
 10
127.932024
 20
146.196251
 30
0.0
 10
127.360042
 20
146.196251
 30
0.0
 10
126.895845
 20
145.928157
 30
0.0
  0
SPLINE
  5
156
100
AcDbEntity
  8
Layer_1
 62
7
100
AcDbSpline
 70
8
 71
3
 72
8
 73
4
 74
0
 40
0
 40
0
 40
0
 40
0
 40
1
 40
1
 40
1
 40
1
 10
126.895845
 20
145.928157
 30
0.0
 10
126.431648
 20
145.660064
 30
0.0
 10
126.145801
 20
145.164630
 30
0.0
 10
126.146033
 20
144.628577
 30
0.0
  0
SPLINE
  5
157
100
AcDbEntity
  8
Layer_1
 62
7
100
AcDbSpline
 70
8
 71
3
 72
8
 73
4
 74
0
 40
0
 40
0
 40
0
 40
0
 40
1
 40
1
 40
1
 40
1
 10
126.146033
 20
144.628577
 30
0.0
 10
126.145801
 20
144.092524
 30
0.0
 10
126.431648
 20
143.597090
 30
0.0
 10
126.895845
 20
143.328997
 30
0.0
  0
SPLINE
  5
158
100
AcDbEntity
  8
Layer_1
 62
7
100
AcDbSpline
 70
8
 71
3
 72
8
 73
4
 74
0
 40
0
 40
0
 40
0
 40
0
 40
1
 40
1
 40
1
 40
1
 10
126.895845
 20
143.328997
 30
0.0
 10
127.360042
 20
143.060903
 30
0.0
 10
127.932024
 20
143.060903
 30
0.0
 10
128.396221
 20
143.328997
 30
0.0
  0
SPLINE
  5
159
100
AcDbEntity
  8
Layer_1
 62
7
100
AcDbSpline
 70
8
 71
3
 72
8
 73
4
 74
0
 40
0
 40
0
 40
0
 40
0
 40
1
 40
1
 40
1
 40
1
 10
128.396221
 20
143.328997
 30
0.0
 10
128.860418
 20
143.597090
 30
0.0
 10
129.146266
 20
144.092524
 30
0.0
 10
129.146033
 20
144.628577
 30
0.0
  0
LINE
  5
15a
100
AcDbEntity
  8
Layer_1
 62
7
100
AcDbLine
 10
129.146033
 20
144.628577
 30
0.0
 11
129.146033
 21
144.628577
 31
0.0
  0
SPLINE
  5
15b
100
AcDbEntity
  8
Layer_1
 62
7
100
AcDbSpline
 70
8
 71
3
 72
8
 73
4
 74
0
 40
0
 40
0
 40
0
 40
0
 40
1
 40
1
 40
1
 40
1
 10
114.146033
 20
144.628577
 30
0.0
 10
114.146265
 20
145.164630
 30
0.0
 10
113.860418
 20
145.660064
 30
0.0
 10
113.396221
 20
145.928157
 30
0.0
  0
SPLINE
  5
15c
100
AcDbEntity
  8
Layer_1
 62
7
100
AcDbSpline
 70
8
 71
3
 72
8
 73
4
 74
0
 40
0
 40
0
 40
0
 40
0
 40
1
 40
1
 40
1
 40
1
 10
113.396221
 20
145.928157
 30
0.0
 10
112.932024
 20
146.196251
 30
0.0
 10
112.360042
 20
146.196251
 30
0.0
 10
111.895845
 20
145.928157
 30
0.0
  0
SPLINE
  5
15d
100
AcDbEntity
  8
Layer_1
 62
7
100
AcDbSpline
 70
8
 71
3
 72
8
 73
4
 74
0
 40
0
 40
0
 40
0
 40
0
 40
1
 40
1
 40
1
 40
1
 10
111.895845
 20
145.928157
 30
0.0
 10
111.431648
 20
145.660064
 30
0.0
 10
111.145800
 20
145.164630
 30
0.0
 10
111.146033
 20
144.628577
 30
0.0
  0
SPLINE
  5
15e
100
AcDbEntity
  8
Layer_1
 62
7
100
AcDbSpline
 70
8
 71
3
 72
8
 73
4
 74
0
 40
0
 40
0
 40
0
 40
0
 40
1
 40
1
 40
1
 40
1
 10
111.146033
 20
144.628577
 30
0.0
 10
111.145800
 20
144.092524
 30
0.0
 10
111.431648
 20
143.597090
 30
0.0
 10
111.895845
 20
143.328997
 30
0.0
  0
SPLINE
  5
15f
100
AcDbEntity
  8
Layer_1
 62
7
100
AcDbSpline
 70
8
 71
3
 72
8
 73
4
 74
0
 40
0
 40
0
 40
0
 40
0
 40
1
 40
1
 40
1
 40
1
 10
111.895845
 20
143.328997
 30
0.0
 10
112.360042
 20
143.060903
 30
0.0
 10
112.932024
 20
143.060903
 30
0.0
 10
113.396221
 20
143.328997
 30
0.0
  0
SPLINE
  5
160
100
AcDbEntity
  8
Layer_1
 62
7
100
AcDbSpline
 70
8
 71
3
 72
8
 73
4
 74
0
 40
0
 40
0
 40
0
 40
0
 40
1
 40
1
 40
1
 40
1
 10
113.396221
 20
143.328997
 30
0.0
 10
113.860418
 20
143.597090
 30
0.0
 10
114.146265
 20
144.092524
 30
0.0
 10
114.146033
 20
144.628577
 30
0.0
  0
LINE
  5
161
100
AcDbEntity
  8
Layer_1
 62
7
100
AcDbLine
 10
114.146033
 20
144.628577
 30
0.0
 11
114.146033
 21
144.628577
 31
0.0
  0
LINE
  5
162
100
AcDbEntity
  8
Layer_1
 62
7
100
AcDbLine
 10
230.146033
 20
20.628571
 30
0.0
 11
230.146033
 21
240.628574
 31
0.0
  0
LINE
  5
163
100
AcDbEntity
  8
Layer_1
 62
7
100
AcDbLine
 10
230.146033
 20
240.628574
 30
0.0
 11
10.146033
 21
240.628574
 31
0.0
  0
LINE
  5
164
100
AcDbEntity
  8
Layer_1
 62
7
100
AcDbLine
 10
10.146033
 20
240.628574
 30
0.0
 11
10.146033
 21
20.628571
 31
0.0
  0
LINE
  5
165
100
AcDbEntity
  8
Layer_1
 62
7
100
AcDbLine
 10
10.146033
 20
20.628571
 30
0.0
 11
230.146033
 21
20.628571
 31
0.0
  0
SPLINE
  5
166
100
AcDbEntity
  8
Layer_1
 62
7
100
AcDbSpline
 70
8
 71
3
 72
8
 73
4
 74
0
 40
0
 40
0
 40
0
 40
0
 40
1
 40
1
 40
1
 40
1
 10
129.146033
 20
116.628577
 30
0.0
 10
129.146266
 20
117.164630
 30
0.0
 10
128.860418
 20
117.660063
 30
0.0
 10
128.396221
 20
117.928157
 30
0.0
  0
SPLINE
  5
167
100
AcDbEntity
  8
Layer_1
 62
7
100
AcDbSpline
 70
8
 71
3
 72
8
 73
4
 74
0
 40
0
 40
0
 40
0
 40
0
 40
1
 40
1
 40
1
 40
1
 10
128.396221
 20
117.928157
 30
0.0
 10
127.932024
 20
118.196251
 30
0.0
 10
127.360042
 20
118.196251
 30
0.0
 10
126.895845
 20
117.928157
 30
0.0
  0
SPLINE
  5
168
100
AcDbEntity
  8
Layer_1
 62
7
100
AcDbSpline
 70
8
 71
3
 72
8
 73
4
 74
0
 40
0
 40
0
 40
0
 40
0
 40
1
 40
1
 40
1
 40
1
 10
126.895845
 20
117.928157
 30
0.0
 10
126.431648
 20
117.660063
 30
0.0
 10
126.145801
 20
117.164630
 30
0.0
 10
126.146033
 20
116.628577
 30
0.0
  0
SPLINE
  5
169
100
AcDbEntity
  8
Layer_1
 62
7
100
AcDbSpline
 70
8
 71
3
 72
8
 73
4
 74
0
 40
0
 40
0
 40
0
 40
0
 40
1
 40
1
 40
1
 40
1
 10
126.146033
 20
116.628577
 30
0.0
 10
126.145801
 20
116.092523
 30
0.0
 10
126.431648
 20
115.597090
 30
0.0
 10
126.895845
 20
115.328996
 30
0.0
  0
SPLINE
  5
16a
100
AcDbEntity
  8
Layer_1
 62
7
100
AcDbSpline
 70
8
 71
3
 72
8
 73
4
 74
0
 40
0
 40
0
 40
0
 40
0
 40
1
 40
1
 40
1
 40
1
 10
126.895845
 20
115.328996
 30
0.0
 10
127.360042
 20
115.060902
 30
0.0
 10
127.932024
 20
115.060902
 30
0.0
 10
128.396221
 20
115.328996
 30
0.0
  0
SPLINE
  5
16b
100
AcDbEntity
  8
Layer_1
 62
7
100
AcDbSpline
 70
8
 71
3
 72
8
 73
4
 74
0
 40
0
 40
0
 40
0
 40
0
 40
1
 40
1
 40
1
 40
1
 10
128.396221
 20
115.328996
 30
0.0
 10
128.860418
 20
115.597090
 30
0.0
 10
129.146266
 20
116.092523
 30
0.0
 10
129.146033
 20
116.628577
 30
0.0
  0
LINE
  5
16c
100
AcDbEntity
  8
Layer_1
 62
7
100
AcDbLine
 10
129.146033
 20
116.628577
 30
0.0
 11
129.146033
 21
116.628577
 31
0.0
  0
SPLINE
  5
16d
100
AcDbEntity
  8
Layer_1
 62
7
100
AcDbSpline
 70
8
 71
3
 72
8
 73
4
 74
0
 40
0
 40
0
 40
0
 40
0
 40
1
 40
1
 40
1
 40
1
 10
114.146033
 20
116.628577
 30
0.0
 10
114.146265
 20
117.164630
 30
0.0
 10
113.860418
 20
117.660063
 30
0.0
 10
113.396221
 20
117.928157
 30
0.0
  0
SPLINE
  5
16e
100
AcDbEntity
  8
Layer_1
 62
7
100
AcDbSpline
 70
8
 71
3
 72
8
 73
4
 74
0
 40
0
 40
0
 40
0
 40
0
 40
1
 40
1
 40
1
 40
1
 10
113.396221
 20
117.928157
 30
0.0
 10
112.932024
 20
118.196251
 30
0.0
 10
112.360042
 20
118.196251
 30
0.0
 10
111.895845
 20
117.928157
 30
0.0
  0
SPLINE
  5
16f
100
AcDbEntity
  8
Layer_1
 62
7
100
AcDbSpline
 70
8
 71
3
 72
8
 73
4
 74
0
 40
0
 40
0
 40
0
 40
0
 40
1
 40
1
 40
1
 40
1
 10
111.895845
 20
117.928157
 30
0.0
 10
111.431648
 20
117.660063
 30
0.0
 10
111.145800
 20
117.164630
 30
0.0
 10
111.146033
 20
116.628577
 30
0.0
  0
SPLINE
  5
170
100
AcDbEntity
  8
Layer_1
 62
7
100
AcDbSpline
 70
8
 71
3
 72
8
 73
4
 74
0
 40
0
 40
0
 40
0
 40
0
 40
1
 40
1
 40
1
 40
1
 10
111.146033
 20
116.628577
 30
0.0
 10
111.145800
 20
116.092523
 30
0.0
 10
111.431648
 20
115.597090
 30
0.0
 10
111.895845
 20
115.328996
 30
0.0
  0
SPLINE
  5
171
100
AcDbEntity
  8
Layer_1
 62
7
100
AcDbSpline
 70
8
 71
3
 72
8
 73
4
 74
0
 40
0
 40
0
 40
0
 40
0
 40
1
 40
1
 40
1
 40
1
 10
111.895845
 20
115.328996
 30
0.0
 10
112.360042
 20
115.060902
 30
0.0
 10
112.932024
 20
115.060902
 30
0.0
 10
113.396221
 20
115.328996
 30
0.0
  0
SPLINE
  5
172
100
AcDbEntity
  8
Layer_1
 62
7
100
AcDbSpline
 70
8
 71
3
 72
8
 73
4
 74
0
 40
0
 40
0
 40
0
 40
0
 40
1
 40
1
 40
1
 40
1
 10
113.396221
 20
115.328996
 30
0.0
 10
113.860418
 20
115.597090
 30
0.0
 10
114.146265
 20
116.092523
 30
0.0
 10
114.146033
 20
116.628577
 30
0.0
  0
LINE
  5
173
100
AcDbEntity
  8
Layer_1
 62
7
100
AcDbLine
 10
114.146033
 20
116.628577
 30
0.0
 11
114.146033
 21
116.628577
 31
0.0
  0
SPLINE
  5
174
100
AcDbEntity
  8
Layer_1
 62
7
100
AcDbSpline
 70
8
 71
3
 72
8
 73
4
 74
0
 40
0
 40
0
 40
0
 40
0
 40
1
 40
1
 40
1
 40
1
 10
41.646032
 20
166.628575
 30
0.0
 10
41.646838
 20
167.343643
 30
0.0
 10
41.265816
 20
168.004738
 30
0.0
 10
40.646684
 20
168.362504
 30
0.0
  0
SPLINE
  5
175
100
AcDbEntity
  8
Layer_1
 62
7
100
AcDbSpline
 70
8
 71
3
 72
8
 73
4
 74
0
 40
0
 40
0
 40
0
 40
0
 40
1
 40
1
 40
1
 40
1
 10
40.646684
 20
168.362504
 30
0.0
 10
40.027551
 20
168.720271
 30
0.0
 10
39.264515
 20
168.720271
 30
0.0
 10
38.645382
 20
168.362504
 30
0.0
  0
SPLINE
  5
176
100
AcDbEntity
  8
Layer_1
 62
7
100
AcDbSpline
 70
8
 71
3
 72
8
 73
4
 74
0
 40
0
 40
0
 40
0
 40
0
 40
1
 40
1
 40
1
 40
1
 10
38.645382
 20
168.362504
 30
0.0
 10
38.026250
 20
168.004738
 30
0.0
 10
37.645228
 20
167.343643
 30
0.0
 10
37.646034
 20
166.628575
 30
0.0
  0
SPLINE
  5
177
100
AcDbEntity
  8
Layer_1
 62
7
100
AcDbSpline
 70
8
 71
3
 72
8
 73
4
 74
0
 40
0
 40
0
 40
0
 40
0
 40
1
 40
1
 40
1
 40
1
 10
37.646034
 20
166.628575
 30
0.0
 10
37.645228
 20
165.913508
 30
0.0
 10
38.026250
 20
165.252413
 30
0.0
 10
38.645382
 20
164.894646
 30
0.0
  0
SPLINE
  5
178
100
AcDbEntity
  8
Layer_1
 62
7
100
AcDbSpline
 70
8
 71
3
 72
8
 73
4
 74
0
 40
0
 40
0
 40
0
 40
0
 40
1
 40
1
 40
1
 40
1
 10
38.645382
 20
164.894646
 30
0.0
 10
39.264515
 20
164.536880
 30
0.0
 10
40.027551
 20
164.536880
 30
0.0
 10
40.646684
 20
164.894646
 30
0.0
  0
SPLINE
  5
179
100
AcDbEntity
  8
Layer_1
 62
7
100
AcDbSpline
 70
8
 71
3
 72
8
 73
4
 74
0
 40
0
 40
0
 40
0
 40
0
 40
1
 40
1
 40
1
 40
1
 10
40.646684
 20
164.894646
 30
0.0
 10
41.265816
 20
165.252413
 30
0.0
 10
41.646838
 20
165.913508
 30
0.0
 10
41.646032
 20
166.628575
 30
0.0
  0
LINE
  5
17a
100
AcDbEntity
  8
Layer_1
 62
7
100
AcDbLine
 10
41.646032
 20
166.628575
 30
0.0
 11
41.646032
 21
166.628575
 31
0.0
  0
SPLINE
  5
17b
100
AcDbEntity
  8
Layer_1
 62
7
100
AcDbSpline
 70
8
 71
3
 72
8
 73
4
 74
0
 40
0
 40
0
 40
0
 40
0
 40
1
 40
1
 40
1
 40
1
 10
41.646032
 20
94.628564
 30
0.0
 10
41.646838
 20
95.343632
 30
0.0
 10
41.265816
 20
96.004726
 30
0.0
 10
40.646684
 20
96.362493
 30
0.0
  0
SPLINE
  5
17c
100
AcDbEntity
  8
Layer_1
 62
7
100
AcDbSpline
 70
8
 71
3
 72
8
 73
4
 74
0
 40
0
 40
0
 40
0
 40
0
 40
1
 40
1
 40
1
 40
1
 10
40.646684
 20
96.362493
 30
0.0
 10
40.027551
 20
96.720260
 30
0.0
 10
39.264515
 20
96.720260
 30
0.0
 10
38.645382
 20
96.362493
 30
0.0
  0
SPLINE
  5
17d
100
AcDbEntity
  8
Layer_1
 62
7
100
AcDbSpline
 70
8
 71
3
 72
8
 73
4
 74
0
 40
0
 40
0
 40
0
 40
0
 40
1
 40
1
 40
1
 40
1
 10
38.645382
 20
96.362493
 30
0.0
 10
38.026250
 20
96.004726
 30
0.0
 10
37.645228
 20
95.343632
 30
0.0
 10
37.646034
 20
94.628564
 30
0.0
  0
SPLINE
  5
17e
100
AcDbEntity
  8
Layer_1
 62
7
100
AcDbSpline
 70
8
 71
3
 72
8
 73
4
 74
0
 40
0
 40
0
 40
0
 40
0
 40
1
 40
1
 40
1
 40
1
 10
37.646034
 20
94.628564
 30
0.0
 10
37.645228
 20
93.913496
 30
0.0
 10
38.026250
 20
93.252402
 30
0.0
 10
38.645382
 20
92.894635
 30
0.0
  0
SPLINE
  5
17f
100
AcDbEntity
  8
Layer_1
 62
7
100
AcDbSpline
 70
8
 71
3
 72
8
 73
4
 74
0
 40
0
 40
0
 40
0
 40
0
 40
1
 40
1
 40
1
 40
1
 10
38.645382
 20
92.894635
 30
0.0
 10
39.264515
 20
92.536868
 30
0.0
 10
40.027551
 20
92.536868
 30
0.0
 10
40.646684
 20
92.894635
 30
0.0
  0
SPLINE
  5
180
100
AcDbEntity
  8
Layer_1
 62
7
100
AcDbSpline
 70
8
 71
3
 72
8
 73
4
 74
0
 40
0
 40
0
 40
0
 40
0
 40
1
 40
1
 40
1
 40
1
 10
40.646684
 20
92.894635
 30
0.0
 10
41.265816
 20
93.252402
 30
0.0
 10
41.646838
 20
93.913496
 30
0.0
 10
41.646032
 20
94.628564
 30
0.0
  0
LINE
  5
181
100
AcDbEntity
  8
Layer_1
 62
7
100
AcDbLine
 10
41.646032
 20
94.628564
 30
0.0
 11
41.646032
 21
94.628564
 31
0.0
  0
SPLINE
  5
182
100
AcDbEntity
  8
Layer_1
 62
7
100
AcDbSpline
 70
8
 71
3
 72
8
 73
4
 74
0
 40
0
 40
0
 40
0
 40
0
 40
1
 40
1
 40
1
 40
1
 10
178.646032
 20
76.628572
 30
0.0
 10
178.646838
 20
77.343639
 30
0.0
 10
178.265816
 20
78.004734
 30
0.0
 10
177.646683
 20
78.362501
 30
0.0
  0
SPLINE
  5
183
100
AcDbEntity
  8
Layer_1
 62
7
100
AcDbSpline
 70
8
 71
3
 72
8
 73
4
 74
0
 40
0
 40
0
 40
0
 40
0
 40
1
 40
1
 40
1
 40
1
 10
177.646683
 20
78.362501
 30
0.0
 10
177.027551
 20
78.720267
 30
0.0
 10
176.264515
 20
78.720267
 30
0.0
 10
175.645382
 20
78.362501
 30
0.0
  0
SPLINE
  5
184
100
AcDbEntity
  8
Layer_1
 62
7
100
AcDbSpline
 70
8
 71
3
 72
8
 73
4
 74
0
 40
0
 40
0
 40
0
 40
0
 40
1
 40
1
 40
1
 40
1
 10
175.645382
 20
78.362501
 30
0.0
 10
175.026249
 20
78.004734
 30
0.0
 10
174.645228
 20
77.343639
 30
0.0
 10
174.646034
 20
76.628572
 30
0.0
  0
SPLINE
  5
185
100
AcDbEntity
  8
Layer_1
 62
7
100
AcDbSpline
 70
8
 71
3
 72
8
 73
4
 74
0
 40
0
 40
0
 40
0
 40
0
 40
1
 40
1
 40
1
 40
1
 10
174.646034
 20
76.628572
 30
0.0
 10
174.645228
 20
75.913504
 30
0.0
 10
175.026249
 20
75.252409
 30
0.0
 10
175.645382
 20
74.894643
 30
0.0
  0
SPLINE
  5
186
100
AcDbEntity
  8
Layer_1
 62
7
100
AcDbSpline
 70
8
 71
3
 72
8
 73
4
 74
0
 40
0
 40
0
 40
0
 40
0
 40
1
 40
1
 40
1
 40
1
 10
175.645382
 20
74.894643
 30
0.0
 10
176.264515
 20
74.536876
 30
0.0
 10
177.027551
 20
74.536876
 30
0.0
 10
177.646683
 20
74.894643
 30
0.0
  0
SPLINE
  5
187
100
AcDbEntity
  8
Layer_1
 62
7
100
AcDbSpline
 70
8
 71
3
 72
8
 73
4
 74
0
 40
0
 40
0
 40
0
 40
0
 40
1
 40
1
 40
1
 40
1
 10
177.646683
 20
74.894643
 30
0.0
 10
178.265816
 20
75.252409
 30
0.0
 10
178.646838
 20
75.913504
 30
0.0
 10
178.646032
 20
76.628572
 30
0.0
  0
LINE
  5
188
100
AcDbEntity
  8
Layer_1
 62
7
100
AcDbLine
 10
178.646032
 20
76.628572
 30
0.0
 11
178.646032
 21
76.628572
 31
0.0
  0
SPLINE
  5
189
100
AcDbEntity
  8
Layer_1
 62
7
100
AcDbSpline
 70
8
 71
3
 72
8
 73
4
 74
0
 40
0
 40
0
 40
0
 40
0
 40
1
 40
1
 40
1
 40
1
 10
178.646032
 20
166.628575
 30
0.0
 10
178.646838
 20
167.343643
 30
0.0
 10
178.265816
 20
168.004738
 30
0.0
 10
177.646683
 20
168.362504
 30
0.0
  0
SPLINE
  5
18a
100
AcDbEntity
  8
Layer_1
 62
7
100
AcDbSpline
 70
8
 71
3
 72
8
 73
4
 74
0
 40
0
 40
0
 40
0
 40
0
 40
1
 40
1
 40
1
 40
1
 10
177.646683
 20
168.362504
 30
0.0
 10
177.027551
 20
168.720271
 30
0.0
 10
176.264515
 20
168.720271
 30
0.0
 10
175.645382
 20
168.362504
 30
0.0
  0
SPLINE
  5
18b
100
AcDbEntity
  8
Layer_1
 62
7
100
AcDbSpline
 70
8
 71
3
 72
8
 73
4
 74
0
 40
0
 40
0
 40
0
 40
0
 40
1
 40
1
 40
1
 40
1
 10
175.645382
 20
168.362504
 30
0.0
 10
175.026249
 20
168.004738
 30
0.0
 10
174.645228
 20
167.343643
 30
0.0
 10
174.646034
 20
166.628575
 30
0.0
  0
SPLINE
  5
18c
100
AcDbEntity
  8
Layer_1
 62
7
100
AcDbSpline
 70
8
 71
3
 72
8
 73
4
 74
0
 40
0
 40
0
 40
0
 40
0
 40
1
 40
1
 40
1
 40
1
 10
174.646034
 20
166.628575
 30
0.0
 10
174.645228
 20
165.913508
 30
0.0
 10
175.026249
 20
165.252413
 30
0.0
 10
175.645382
 20
164.894646
 30
0.0
  0
SPLINE
  5
18d
100
AcDbEntity
  8
Layer_1
 62
7
100
AcDbSpline
 70
8
 71
3
 72
8
 73
4
 74
0
 40
0
 40
0
 40
0
 40
0
 40
1
 40
1
 40
1
 40
1
 10
175.645382
 20
164.894646
 30
0.0
 10
176.264515
 20
164.536880
 30
0.0
 10
177.027551
 20
164.536880
 30
0.0
 10
177.646683
 20
164.894646
 30
0.0
  0
SPLINE
  5
18e
100
AcDbEntity
  8
Layer_1
 62
7
100
AcDbSpline
 70
8
 71
3
 72
8
 73
4
 74
0
 40
0
 40
0
 40
0
 40
0
 40
1
 40
1
 40
1
 40
1
 10
177.646683
 20
164.894646
 30
0.0
 10
178.265816
 20
165.252413
 30
0.0
 10
178.646838
 20
165.913508
 30
0.0
 10
178.646032
 20
166.628575
 30
0.0
  0
LINE
  5
18f
100
AcDbEntity
  8
Layer_1
 62
7
100
AcDbLine
 10
178.646032
 20
166.628575
 30
0.0
 11
178.646032
 21
166.628575
 31
0.0
  0
SPLINE
  5
190
100
AcDbEntity
  8
Layer_1
 62
7
100
AcDbSpline
 70
8
 71
3
 72
8
 73
4
 74
0
 40
0
 40
0
 40
0
 40
0
 40
1
 40
1
 40
1
 40
1
 10
15.343155
 20
12.799690
 30
0.0
 10
15.343155
 20
13.371315
 30
0.0
 10
15.038197
 20
13.899518
 30
0.0
 10
14.543155
 20
14.185330
 30
0.0
  0
SPLINE
  5
191
100
AcDbEntity
  8
Layer_1
 62
7
100
AcDbSpline
 70
8
 71
3
 72
8
 73
4
 74
0
 40
0
 40
0
 40
0
 40
0
 40
1
 40
1
 40
1
 40
1
 10
14.543155
 20
14.185330
 30
0.0
 10
14.048113
 20
14.471143
 30
0.0
 10
13.438197
 20
14.471143
 30
0.0
 10
12.943155
 20
14.185330
 30
0.0
  0
SPLINE
  5
192
100
AcDbEntity
  8
Layer_1
 62
7
100
AcDbSpline
 70
8
 71
3
 72
8
 73
4
 74
0
 40
0
 40
0
 40
0
 40
0
 40
1
 40
1
 40
1
 40
1
 10
12.943155
 20
14.185330
 30
0.0
 10
12.448113
 20
13.899518
 30
0.0
 10
12.143155
 20
13.371315
 30
0.0
 10
12.143155
 20
12.799690
 30
0.0
  0
SPLINE
  5
193
100
AcDbEntity
  8
Layer_1
 62
7
100
AcDbSpline
 70
8
 71
3
 72
8
 73
4
 74
0
 40
0
 40
0
 40
0
 40
0
 40
1
 40
1
 40
1
 40
1
 10
12.143155
 20
12.799690
 30
0.0
 10
12.143155
 20
12.228065
 30
0.0
 10
12.448113
 20
11.699862
 30
0.0
 10
12.943155
 20
11.414049
 30
0.0
  0
SPLINE
  5
194
100
AcDbEntity
  8
Layer_1
 62
7
100
AcDbSpline
 70
8
 71
3
 72
8
 73
4
 74
0
 40
0
 40
0
 40
0
 40
0
 40
1
 40
1
 40
1
 40
1
 10
12.943155
 20
11.414049
 30
0.0
 10
13.438197
 20
11.128237
 30
0.0
 10
14.048113
 20
11.128237
 30
0.0
 10
14.543155
 20
11.414049
 30
0.0
  0
SPLINE
  5
195
100
AcDbEntity
  8
Layer_1
 62
7
100
AcDbSpline
 70
8
 71
3
 72
8
 73
4
 74
0
 40
0
 40
0
 40
0
 40
0
 40
1
 40
1
 40
1
 40
1
 10
14.543155
 20
11.414049
 30
0.0
 10
15.038197
 20
11.699862
 30
0.0
 10
15.343155
 20
12.228065
 30
0.0
 10
15.343155
 20
12.799690
 30
0.0
  0
LINE
  5
196
100
AcDbEntity
  8
Layer_1
 62
7
100
AcDbLine
 10
15.343155
 20
12.799690
 30
0.0
 11
15.343155
 21
12.799690
 31
0.0
  0
SPLINE
  5
197
100
AcDbEntity
  8
Layer_1
 62
7
100
AcDbSpline
 70
8
 71
3
 72
8
 73
4
 74
0
 40
0
 40
0
 40
0
 40
0
 40
1
 40
1
 40
1
 40
1
 10
28.743156
 20
7.899691
 30
0.0
 10
31.447898
 20
7.901744
 30
0.0
 10
33.639437
 20
10.094947
 30
0.0
 10
33.639437
 20
12.799690
 30
0.0
  0
SPLINE
  5
198
100
AcDbEntity
  8
Layer_1
 62
7
100
AcDbSpline
 70
8
 71
3
 72
8
 73
4
 74
0
 40
0
 40
0
 40
0
 40
0
 40
1
 40
1
 40
1
 40
1
 10
33.639437
 20
12.799690
 30
0.0
 10
33.639437
 20
15.504433
 30
0.0
 10
31.447898
 20
17.697636
 30
0.0
 10
28.743156
 20
17.699688
 30
0.0
  0
LINE
  5
199
100
AcDbEntity
  8
Layer_1
 62
7
100
AcDbLine
 10
28.743156
 20
17.699688
 30
0.0
 11
13.743155
 21
17.699688
 31
0.0
  0
SPLINE
  5
19a
100
AcDbEntity
  8
Layer_1
 62
7
100
AcDbSpline
 70
8
 71
3
 72
8
 73
4
 74
0
 40
0
 40
0
 40
0
 40
0
 40
1
 40
1
 40
1
 40
1
 10
13.743155
 20
17.699688
 30
0.0
 10
11.038412
 20
17.697636
 30
0.0
 10
8.846873
 20
15.504433
 30
0.0
 10
8.846873
 20
12.799690
 30
0.0
  0
SPLINE
  5
19b
100
AcDbEntity
  8
Layer_1
 62
7
100
AcDbSpline
 70
8
 71
3
 72
8
 73
4
 74
0
 40
0
 40
0
 40
0
 40
0
 40
1
 40
1
 40
1
 40
1
 10
8.846873
 20
12.799690
 30
0.0
 10
8.846873
 20
10.094947
 30
0.0
 10
11.038412
 20
7.901744
 30
0.0
 10
13.743155
 20
7.899691
 30
0.0
  0
LINE
  5
19c
100
AcDbEntity
  8
Layer_1
 62
7
100
AcDbLine
 10
13.743155
 20
7.899691
 30
0.0
 11
28.743156
 21
7.899691
 31
0.0
  0
SPLINE
  5
19d
100
AcDbEntity
  8
Layer_1
 62
7
100
AcDbSpline
 70
8
 71
3
 72
8
 73
4
 74
0
 40
0
 40
0
 40
0
 40
0
 40
1
 40
1
 40
1
 40
1
 10
30.343155
 20
12.799690
 30
0.0
 10
30.343155
 20
13.371315
 30
0.0
 10
30.038197
 20
13.899518
 30
0.0
 10
29.543155
 20
14.185330
 30
0.0
  0
SPLINE
  5
19e
100
AcDbEntity
  8
Layer_1
 62
7
100
AcDbSpline
 70
8
 71
3
 72
8
 73
4
 74
0
 40
0
 40
0
 40
0
 40
0
 40
1
 40
1
 40
1
 40
1
 10
29.543155
 20
14.185330
 30
0.0
 10
29.048113
 20
14.471143
 30
0.0
 10
28.438197
 20
14.471143
 30
0.0
 10
27.943155
 20
14.185330
 30
0.0
  0
SPLINE
  5
19f
100
AcDbEntity
  8
Layer_1
 62
7
100
AcDbSpline
 70
8
 71
3
 72
8
 73
4
 74
0
 40
0
 40
0
 40
0
 40
0
 40
1
 40
1
 40
1
 40
1
 10
27.943155
 20
14.185330
 30
0.0
 10
27.448113
 20
13.899518
 30
0.0
 10
27.143155
 20
13.371315
 30
0.0
 10
27.143155
 20
12.799690
 30
0.0
  0
SPLINE
  5
1a0
100
AcDbEntity
  8
Layer_1
 62
7
100
AcDbSpline
 70
8
 71
3
 72
8
 73
4
 74
0
 40
0
 40
0
 40
0
 40
0
 40
1
 40
1
 40
1
 40
1
 10
27.143155
 20
12.799690
 30
0.0
 10
27.143155
 20
12.228065
 30
0.0
 10
27.448113
 20
11.699862
 30
0.0
 10
27.943155
 20
11.414049
 30
0.0
  0
SPLINE
  5
1a1
100
AcDbEntity
  8
Layer_1
 62
7
100
AcDbSpline
 70
8
 71
3
 72
8
 73
4
 74
0
 40
0
 40
0
 40
0
 40
0
 40
1
 40
1
 40
1
 40
1
 10
27.943155
 20
11.414049
 30
0.0
 10
28.438197
 20
11.128237
 30
0.0
 10
29.048113
 20
11.128237
 30
0.0
 10
29.543155
 20
11.414049
 30
0.0
  0
SPLINE
  5
1a2
100
AcDbEntity
  8
Layer_1
 62
7
100
AcDbSpline
 70
8
 71
3
 72
8
 73
4
 74
0
 40
0
 40
0
 40
0
 40
0
 40
1
 40
1
 40
1
 40
1
 10
29.543155
 20
11.414049
 30
0.0
 10
30.038197
 20
11.699862
 30
0.0
 10
30.343155
 20
12.228065
 30
0.0
 10
30.343155
 20
12.799690
 30
0.0
  0
LINE
  5
1a3
100
AcDbEntity
  8
Layer_1
 62
7
100
AcDbLine
 10
30.343155
 20
12.799690
 30
0.0
 11
30.343155
 21
12.799690
 31
0.0
  0
SPLINE
  5
1a4
100
AcDbEntity
  8
Layer_1
 62
7
100
AcDbSpline
 70
8
 71
3
 72
8
 73
4
 74
0
 40
0
 40
0
 40
0
 40
0
 40
1
 40
1
 40
1
 40
1
 10
54.854266
 20
12.799690
 30
0.0
 10
54.854266
 20
13.371315
 30
0.0
 10
54.549307
 20
13.899518
 30
0.0
 10
54.054266
 20
14.185330
 30
0.0
  0
SPLINE
  5
1a5
100
AcDbEntity
  8
Layer_1
 62
7
100
AcDbSpline
 70
8
 71
3
 72
8
 73
4
 74
0
 40
0
 40
0
 40
0
 40
0
 40
1
 40
1
 40
1
 40
1
 10
54.054266
 20
14.185330
 30
0.0
 10
53.559224
 20
14.471143
 30
0.0
 10
52.949307
 20
14.471143
 30
0.0
 10
52.454266
 20
14.185330
 30
0.0
  0
SPLINE
  5
1a6
100
AcDbEntity
  8
Layer_1
 62
7
100
AcDbSpline
 70
8
 71
3
 72
8
 73
4
 74
0
 40
0
 40
0
 40
0
 40
0
 40
1
 40
1
 40
1
 40
1
 10
52.454266
 20
14.185330
 30
0.0
 10
51.959224
 20
13.899518
 30
0.0
 10
51.654266
 20
13.371315
 30
0.0
 10
51.654266
 20
12.799690
 30
0.0
  0
SPLINE
  5
1a7
100
AcDbEntity
  8
Layer_1
 62
7
100
AcDbSpline
 70
8
 71
3
 72
8
 73
4
 74
0
 40
0
 40
0
 40
0
 40
0
 40
1
 40
1
 40
1
 40
1
 10
51.654266
 20
12.799690
 30
0.0
 10
51.654266
 20
12.228065
 30
0.0
 10
51.959224
 20
11.699862
 30
0.0
 10
52.454266
 20
11.414049
 30
0.0
  0
SPLINE
  5
1a8
100
AcDbEntity
  8
Layer_1
 62
7
100
AcDbSpline
 70
8
 71
3
 72
8
 73
4
 74
0
 40
0
 40
0
 40
0
 40
0
 40
1
 40
1
 40
1
 40
1
 10
52.454266
 20
11.414049
 30
0.0
 10
52.949307
 20
11.128237
 30
0.0
 10
53.559224
 20
11.128237
 30
0.0
 10
54.054266
 20
11.414049
 30
0.0
  0
SPLINE
  5
1a9
100
AcDbEntity
  8
Layer_1
 62
7
100
AcDbSpline
 70
8
 71
3
 72
8
 73
4
 74
0
 40
0
 40
0
 40
0
 40
0
 40
1
 40
1
 40
1
 40
1
 10
54.054266
 20
11.414049
 30
0.0
 10
54.549307
 20
11.699862
 30
0.0
 10
54.854266
 20
12.228065
 30
0.0
 10
54.854266
 20
12.799690
 30
0.0
  0
LINE
  5
1aa
100
AcDbEntity
  8
Layer_1
 62
7
100
AcDbLine
 10
54.854266
 20
12.799690
 30
0.0
 11
54.854266
 21
12.799690
 31
0.0
  0
SPLINE
  5
1ab
100
AcDbEntity
  8
Layer_1
 62
7
100
AcDbSpline
 70
8
 71
3
 72
8
 73
4
 74
0
 40
0
 40
0
 40
0
 40
0
 40
1
 40
1
 40
1
 40
1
 10
68.254266
 20
7.899691
 30
0.0
 10
70.959009
 20
7.901744
 30
0.0
 10
73.150548
 20
10.094947
 30
0.0
 10
73.150548
 20
12.799690
 30
0.0
  0
SPLINE
  5
1ac
100
AcDbEntity
  8
Layer_1
 62
7
100
AcDbSpline
 70
8
 71
3
 72
8
 73
4
 74
0
 40
0
 40
0
 40
0
 40
0
 40
1
 40
1
 40
1
 40
1
 10
73.150548
 20
12.799690
 30
0.0
 10
73.150548
 20
15.504433
 30
0.0
 10
70.959009
 20
17.697636
 30
0.0
 10
68.254266
 20
17.699688
 30
0.0
  0
LINE
  5
1ad
100
AcDbEntity
  8
Layer_1
 62
7
100
AcDbLine
 10
68.254266
 20
17.699688
 30
0.0
 11
53.254265
 21
17.699688
 31
0.0
  0
SPLINE
  5
1ae
100
AcDbEntity
  8
Layer_1
 62
7
100
AcDbSpline
 70
8
 71
3
 72
8
 73
4
 74
0
 40
0
 40
0
 40
0
 40
0
 40
1
 40
1
 40
1
 40
1
 10
53.254265
 20
17.699688
 30
0.0
 10
50.549523
 20
17.697636
 30
0.0
 10
48.357984
 20
15.504433
 30
0.0
 10
48.357984
 20
12.799690
 30
0.0
  0
SPLINE
  5
1af
100
AcDbEntity
  8
Layer_1
 62
7
100
AcDbSpline
 70
8
 71
3
 72
8
 73
4
 74
0
 40
0
 40
0
 40
0
 40
0
 40
1
 40
1
 40
1
 40
1
 10
48.357984
 20
12.799690
 30
0.0
 10
48.357984
 20
10.094947
 30
0.0
 10
50.549523
 20
7.901744
 30
0.0
 10
53.254265
 20
7.899691
 30
0.0
  0
LINE
  5
1b0
100
AcDbEntity
  8
Layer_1
 62
7
100
AcDbLine
 10
53.254265
 20
7.899691
 30
0.0
 11
68.254266
 21
7.899691
 31
0.0
  0
SPLINE
  5
1b1
100
AcDbEntity
  8
Layer_1
 62
7
100
AcDbSpline
 70
8
 71
3
 72
8
 73
4
 74
0
 40
0
 40
0
 40
0
 40
0
 40
1
 40
1
 40
1
 40
1
 10
69.854266
 20
12.799690
 30
0.0
 10
69.854266
 20
13.371315
 30
0.0
 10
69.549307
 20
13.899518
 30
0.0
 10
69.054266
 20
14.185330
 30
0.0
  0
SPLINE
  5
1b2
100
AcDbEntity
  8
Layer_1
 62
7
100
AcDbSpline
 70
8
 71
3
 72
8
 73
4
 74
0
 40
0
 40
0
 40
0
 40
0
 40
1
 40
1
 40
1
 40
1
 10
69.054266
 20
14.185330
 30
0.0
 10
68.559224
 20
14.471143
 30
0.0
 10
67.949307
 20
14.471143
 30
0.0
 10
67.454266
 20
14.185330
 30
0.0
  0
SPLINE
  5
1b3
100
AcDbEntity
  8
Layer_1
 62
7
100
AcDbSpline
 70
8
 71
3
 72
8
 73
4
 74
0
 40
0
 40
0
 40
0
 40
0
 40
1
 40
1
 40
1
 40
1
 10
67.454266
 20
14.185330
 30
0.0
 10
66.959224
 20
13.899518
 30
0.0
 10
66.654266
 20
13.371315
 30
0.0
 10
66.654266
 20
12.799690
 30
0.0
  0
SPLINE
  5
1b4
100
AcDbEntity
  8
Layer_1
 62
7
100
AcDbSpline
 70
8
 71
3
 72
8
 73
4
 74
0
 40
0
 40
0
 40
0
 40
0
 40
1
 40
1
 40
1
 40
1
 10
66.654266
 20
12.799690
 30
0.0
 10
66.654266
 20
12.228065
 30
0.0
 10
66.959224
 20
11.699862
 30
0.0
 10
67.454266
 20
11.414049
 30
0.0
  0
SPLINE
  5
1b5
100
AcDbEntity
  8
Layer_1
 62
7
100
AcDbSpline
 70
8
 71
3
 72
8
 73
4
 74
0
 40
0
 40
0
 40
0
 40
0
 40
1
 40
1
 40
1
 40
1
 10
67.454266
 20
11.414049
 30
0.0
 10
67.949307
 20
11.128237
 30
0.0
 10
68.559224
 20
11.128237
 30
0.0
 10
69.054266
 20
11.414049
 30
0.0
  0
SPLINE
  5
1b6
100
AcDbEntity
  8
Layer_1
 62
7
100
AcDbSpline
 70
8
 71
3
 72
8
 73
4
 74
0
 40
0
 40
0
 40
0
 40
0
 40
1
 40
1
 40
1
 40
1
 10
69.054266
 20
11.414049
 30
0.0
 10
69.549307
 20
11.699862
 30
0.0
 10
69.854266
 20
12.228065
 30
0.0
 10
69.854266
 20
12.799690
 30
0.0
  0
LINE
  5
1b7
100
AcDbEntity
  8
Layer_1
 62
7
100
AcDbLine
 10
69.854266
 20
12.799690
 30
0.0
 11
69.854266
 21
12.799690
 31
0.0
  0
SPLINE
  5
1b8
100
AcDbEntity
  8
Layer_1
 62
7
100
AcDbSpline
 70
8
 71
3
 72
8
 73
4
 74
0
 40
0
 40
0
 40
0
 40
0
 40
1
 40
1
 40
1
 40
1
 10
94.365377
 20
12.799690
 30
0.0
 10
94.365377
 20
13.371315
 30
0.0
 10
94.060418
 20
13.899518
 30
0.0
 10
93.565377
 20
14.185330
 30
0.0
  0
SPLINE
  5
1b9
100
AcDbEntity
  8
Layer_1
 62
7
100
AcDbSpline
 70
8
 71
3
 72
8
 73
4
 74
0
 40
0
 40
0
 40
0
 40
0
 40
1
 40
1
 40
1
 40
1
 10
93.565377
 20
14.185330
 30
0.0
 10
93.070335
 20
14.471143
 30
0.0
 10
92.460419
 20
14.471143
 30
0.0
 10
91.965377
 20
14.185330
 30
0.0
  0
SPLINE
  5
1ba
100
AcDbEntity
  8
Layer_1
 62
7
100
AcDbSpline
 70
8
 71
3
 72
8
 73
4
 74
0
 40
0
 40
0
 40
0
 40
0
 40
1
 40
1
 40
1
 40
1
 10
91.965377
 20
14.185330
 30
0.0
 10
91.470335
 20
13.899518
 30
0.0
 10
91.165377
 20
13.371315
 30
0.0
 10
91.165377
 20
12.799690
 30
0.0
  0
SPLINE
  5
1bb
100
AcDbEntity
  8
Layer_1
 62
7
100
AcDbSpline
 70
8
 71
3
 72
8
 73
4
 74
0
 40
0
 40
0
 40
0
 40
0
 40
1
 40
1
 40
1
 40
1
 10
91.165377
 20
12.799690
 30
0.0
 10
91.165377
 20
12.228065
 30
0.0
 10
91.470335
 20
11.699862
 30
0.0
 10
91.965377
 20
11.414049
 30
0.0
  0
SPLINE
  5
1bc
100
AcDbEntity
  8
Layer_1
 62
7
100
AcDbSpline
 70
8
 71
3
 72
8
 73
4
 74
0
 40
0
 40
0
 40
0
 40
0
 40
1
 40
1
 40
1
 40
1
 10
91.965377
 20
11.414049
 30
0.0
 10
92.460419
 20
11.128237
 30
0.0
 10
93.070335
 20
11.128237
 30
0.0
 10
93.565377
 20
11.414049
 30
0.0
  0
SPLINE
  5
1bd
100
AcDbEntity
  8
Layer_1
 62
7
100
AcDbSpline
 70
8
 71
3
 72
8
 73
4
 74
0
 40
0
 40
0
 40
0
 40
0
 40
1
 40
1
 40
1
 40
1
 10
93.565377
 20
11.414049
 30
0.0
 10
94.060418
 20
11.699862
 30
0.0
 10
94.365377
 20
12.228065
 30
0.0
 10
94.365377
 20
12.799690
 30
0.0
  0
LINE
  5
1be
100
AcDbEntity
  8
Layer_1
 62
7
100
AcDbLine
 10
94.365377
 20
12.799690
 30
0.0
 11
94.365377
 21
12.799690
 31
0.0
  0
SPLINE
  5
1bf
100
AcDbEntity
  8
Layer_1
 62
7
100
AcDbSpline
 70
8
 71
3
 72
8
 73
4
 74
0
 40
0
 40
0
 40
0
 40
0
 40
1
 40
1
 40
1
 40
1
 10
107.765377
 20
7.899691
 30
0.0
 10
110.470120
 20
7.901744
 30
0.0
 10
112.661659
 20
10.094947
 30
0.0
 10
112.661659
 20
12.799690
 30
0.0
  0
SPLINE
  5
1c0
100
AcDbEntity
  8
Layer_1
 62
7
100
AcDbSpline
 70
8
 71
3
 72
8
 73
4
 74
0
 40
0
 40
0
 40
0
 40
0
 40
1
 40
1
 40
1
 40
1
 10
112.661659
 20
12.799690
 30
0.0
 10
112.661659
 20
15.504433
 30
0.0
 10
110.470120
 20
17.697636
 30
0.0
 10
107.765377
 20
17.699688
 30
0.0
  0
LINE
  5
1c1
100
AcDbEntity
  8
Layer_1
 62
7
100
AcDbLine
 10
107.765377
 20
17.699688
 30
0.0
 11
92.765376
 21
17.699688
 31
0.0
  0
SPLINE
  5
1c2
100
AcDbEntity
  8
Layer_1
 62
7
100
AcDbSpline
 70
8
 71
3
 72
8
 73
4
 74
0
 40
0
 40
0
 40
0
 40
0
 40
1
 40
1
 40
1
 40
1
 10
92.765376
 20
17.699688
 30
0.0
 10
90.060634
 20
17.697636
 30
0.0
 10
87.869095
 20
15.504433
 30
0.0
 10
87.869095
 20
12.799690
 30
0.0
  0
SPLINE
  5
1c3
100
AcDbEntity
  8
Layer_1
 62
7
100
AcDbSpline
 70
8
 71
3
 72
8
 73
4
 74
0
 40
0
 40
0
 40
0
 40
0
 40
1
 40
1
 40
1
 40
1
 10
87.869095
 20
12.799690
 30
0.0
 10
87.869095
 20
10.094947
 30
0.0
 10
90.060634
 20
7.901744
 30
0.0
 10
92.765376
 20
7.899691
 30
0.0
  0
LINE
  5
1c4
100
AcDbEntity
  8
Layer_1
 62
7
100
AcDbLine
 10
92.765376
 20
7.899691
 30
0.0
 11
107.765377
 21
7.899691
 31
0.0
  0
SPLINE
  5
1c5
100
AcDbEntity
  8
Layer_1
 62
7
100
AcDbSpline
 70
8
 71
3
 72
8
 73
4
 74
0
 40
0
 40
0
 40
0
 40
0
 40
1
 40
1
 40
1
 40
1
 10
109.365377
 20
12.799690
 30
0.0
 10
109.365377
 20
13.371315
 30
0.0
 10
109.060418
 20
13.899518
 30
0.0
 10
108.565377
 20
14.185330
 30
0.0
  0
SPLINE
  5
1c6
100
AcDbEntity
  8
Layer_1
 62
7
100
AcDbSpline
 70
8
 71
3
 72
8
 73
4
 74
0
 40
0
 40
0
 40
0
 40
0
 40
1
 40
1
 40
1
 40
1
 10
108.565377
 20
14.185330
 30
0.0
 10
108.070335
 20
14.471143
 30
0.0
 10
107.460418
 20
14.471143
 30
0.0
 10
106.965377
 20
14.185330
 30
0.0
  0
SPLINE
  5
1c7
100
AcDbEntity
  8
Layer_1
 62
7
100
AcDbSpline
 70
8
 71
3
 72
8
 73
4
 74
0
 40
0
 40
0
 40
0
 40
0
 40
1
 40
1
 40
1
 40
1
 10
106.965377
 20
14.185330
 30
0.0
 10
106.470335
 20
13.899518
 30
0.0
 10
106.165377
 20
13.371315
 30
0.0
 10
106.165377
 20
12.799690
 30
0.0
  0
SPLINE
  5
1c8
100
AcDbEntity
  8
Layer_1
 62
7
100
AcDbSpline
 70
8
 71
3
 72
8
 73
4
 74
0
 40
0
 40
0
 40
0
 40
0
 40
1
 40
1
 40
1
 40
1
 10
106.165377
 20
12.799690
 30
0.0
 10
106.165377
 20
12.228065
 30
0.0
 10
106.470335
 20
11.699862
 30
0.0
 10
106.965377
 20
11.414049
 30
0.0
  0
SPLINE
  5
1c9
100
AcDbEntity
  8
Layer_1
 62
7
100
AcDbSpline
 70
8
 71
3
 72
8
 73
4
 74
0
 40
0
 40
0
 40
0
 40
0
 40
1
 40
1
 40
1
 40
1
 10
106.965377
 20
11.414049
 30
0.0
 10
107.460418
 20
11.128237
 30
0.0
 10
108.070335
 20
11.128237
 30
0.0
 10
108.565377
 20
11.414049
 30
0.0
  0
SPLINE
  5
1ca
100
AcDbEntity
  8
Layer_1
 62
7
100
AcDbSpline
 70
8
 71
3
 72
8
 73
4
 74
0
 40
0
 40
0
 40
0
 40
0
 40
1
 40
1
 40
1
 40
1
 10
108.565377
 20
11.414049
 30
0.0
 10
109.060418
 20
11.699862
 30
0.0
 10
109.365377
 20
12.228065
 30
0.0
 10
109.365377
 20
12.799690
 30
0.0
  0
LINE
  5
1cb
100
AcDbEntity
  8
Layer_1
 62
7
100
AcDbLine
 10
109.365377
 20
12.799690
 30
0.0
 11
109.365377
 21
12.799690
 31
0.0
  0
SPLINE
  5
1cc
100
AcDbEntity
  8
Layer_1
 62
7
100
AcDbSpline
 70
8
 71
3
 72
8
 73
4
 74
0
 40
0
 40
0
 40
0
 40
0
 40
1
 40
1
 40
1
 40
1
 10
133.876488
 20
12.799690
 30
0.0
 10
133.876488
 20
13.371315
 30
0.0
 10
133.571530
 20
13.899518
 30
0.0
 10
133.076488
 20
14.185330
 30
0.0
  0
SPLINE
  5
1cd
100
AcDbEntity
  8
Layer_1
 62
7
100
AcDbSpline
 70
8
 71
3
 72
8
 73
4
 74
0
 40
0
 40
0
 40
0
 40
0
 40
1
 40
1
 40
1
 40
1
 10
133.076488
 20
14.185330
 30
0.0
 10
132.581446
 20
14.471143
 30
0.0
 10
131.971530
 20
14.471143
 30
0.0
 10
131.476488
 20
14.185330
 30
0.0
  0
SPLINE
  5
1ce
100
AcDbEntity
  8
Layer_1
 62
7
100
AcDbSpline
 70
8
 71
3
 72
8
 73
4
 74
0
 40
0
 40
0
 40
0
 40
0
 40
1
 40
1
 40
1
 40
1
 10
131.476488
 20
14.185330
 30
0.0
 10
130.981446
 20
13.899518
 30
0.0
 10
130.676488
 20
13.371315
 30
0.0
 10
130.676488
 20
12.799690
 30
0.0
  0
SPLINE
  5
1cf
100
AcDbEntity
  8
Layer_1
 62
7
100
AcDbSpline
 70
8
 71
3
 72
8
 73
4
 74
0
 40
0
 40
0
 40
0
 40
0
 40
1
 40
1
 40
1
 40
1
 10
130.676488
 20
12.799690
 30
0.0
 10
130.676488
 20
12.228065
 30
0.0
 10
130.981446
 20
11.699862
 30
0.0
 10
131.476488
 20
11.414049
 30
0.0
  0
SPLINE
  5
1d0
100
AcDbEntity
  8
Layer_1
 62
7
100
AcDbSpline
 70
8
 71
3
 72
8
 73
4
 74
0
 40
0
 40
0
 40
0
 40
0
 40
1
 40
1
 40
1
 40
1
 10
131.476488
 20
11.414049
 30
0.0
 10
131.971530
 20
11.128237
 30
0.0
 10
132.581446
 20
11.128237
 30
0.0
 10
133.076488
 20
11.414049
 30
0.0
  0
SPLINE
  5
1d1
100
AcDbEntity
  8
Layer_1
 62
7
100
AcDbSpline
 70
8
 71
3
 72
8
 73
4
 74
0
 40
0
 40
0
 40
0
 40
0
 40
1
 40
1
 40
1
 40
1
 10
133.076488
 20
11.414049
 30
0.0
 10
133.571530
 20
11.699862
 30
0.0
 10
133.876488
 20
12.228065
 30
0.0
 10
133.876488
 20
12.799690
 30
0.0
  0
LINE
  5
1d2
100
AcDbEntity
  8
Layer_1
 62
7
100
AcDbLine
 10
133.876488
 20
12.799690
 30
0.0
 11
133.876488
 21
12.799690
 31
0.0
  0
SPLINE
  5
1d3
100
AcDbEntity
  8
Layer_1
 62
7
100
AcDbSpline
 70
8
 71
3
 72
8
 73
4
 74
0
 40
0
 40
0
 40
0
 40
0
 40
1
 40
1
 40
1
 40
1
 10
147.276488
 20
7.899691
 30
0.0
 10
149.981231
 20
7.901744
 30
0.0
 10
152.172770
 20
10.094947
 30
0.0
 10
152.172770
 20
12.799690
 30
0.0
  0
SPLINE
  5
1d4
100
AcDbEntity
  8
Layer_1
 62
7
100
AcDbSpline
 70
8
 71
3
 72
8
 73
4
 74
0
 40
0
 40
0
 40
0
 40
0
 40
1
 40
1
 40
1
 40
1
 10
152.172770
 20
12.799690
 30
0.0
 10
152.172770
 20
15.504433
 30
0.0
 10
149.981231
 20
17.697636
 30
0.0
 10
147.276488
 20
17.699688
 30
0.0
  0
LINE
  5
1d5
100
AcDbEntity
  8
Layer_1
 62
7
100
AcDbLine
 10
147.276488
 20
17.699688
 30
0.0
 11
132.276487
 21
17.699688
 31
0.0
  0
SPLINE
  5
1d6
100
AcDbEntity
  8
Layer_1
 62
7
100
AcDbSpline
 70
8
 71
3
 72
8
 73
4
 74
0
 40
0
 40
0
 40
0
 40
0
 40
1
 40
1
 40
1
 40
1
 10
132.276487
 20
17.699688
 30
0.0
 10
129.571745
 20
17.697636
 30
0.0
 10
127.380206
 20
15.504433
 30
0.0
 10
127.380206
 20
12.799690
 30
0.0
  0
SPLINE
  5
1d7
100
AcDbEntity
  8
Layer_1
 62
7
100
AcDbSpline
 70
8
 71
3
 72
8
 73
4
 74
0
 40
0
 40
0
 40
0
 40
0
 40
1
 40
1
 40
1
 40
1
 10
127.380206
 20
12.799690
 30
0.0
 10
127.380206
 20
10.094947
 30
0.0
 10
129.571745
 20
7.901744
 30
0.0
 10
132.276487
 20
7.899691
 30
0.0
  0
LINE
  5
1d8
100
AcDbEntity
  8
Layer_1
 62
7
100
AcDbLine
 10
132.276487
 20
7.899691
 30
0.0
 11
147.276488
 21
7.899691
 31
0.0
  0
SPLINE
  5
1d9
100
AcDbEntity
  8
Layer_1
 62
7
100
AcDbSpline
 70
8
 71
3
 72
8
 73
4
 74
0
 40
0
 40
0
 40
0
 40
0
 40
1
 40
1
 40
1
 40
1
 10
148.876488
 20
12.799690
 30
0.0
 10
148.876488
 20
13.371315
 30
0.0
 10
148.571529
 20
13.899518
 30
0.0
 10
148.076488
 20
14.185330
 30
0.0
  0
SPLINE
  5
1da
100
AcDbEntity
  8
Layer_1
 62
7
100
AcDbSpline
 70
8
 71
3
 72
8
 73
4
 74
0
 40
0
 40
0
 40
0
 40
0
 40
1
 40
1
 40
1
 40
1
 10
148.076488
 20
14.185330
 30
0.0
 10
147.581446
 20
14.471143
 30
0.0
 10
146.971530
 20
14.471143
 30
0.0
 10
146.476488
 20
14.185330
 30
0.0
  0
SPLINE
  5
1db
100
AcDbEntity
  8
Layer_1
 62
7
100
AcDbSpline
 70
8
 71
3
 72
8
 73
4
 74
0
 40
0
 40
0
 40
0
 40
0
 40
1
 40
1
 40
1
 40
1
 10
146.476488
 20
14.185330
 30
0.0
 10
145.981446
 20
13.899518
 30
0.0
 10
145.676488
 20
13.371315
 30
0.0
 10
145.676488
 20
12.799690
 30
0.0
  0
SPLINE
  5
1dc
100
AcDbEntity
  8
Layer_1
 62
7
100
AcDbSpline
 70
8
 71
3
 72
8
 73
4
 74
0
 40
0
 40
0
 40
0
 40
0
 40
1
 40
1
 40
1
 40
1
 10
145.676488
 20
12.799690
 30
0.0
 10
145.676488
 20
12.228065
 30
0.0
 10
145.981446
 20
11.699862
 30
0.0
 10
146.476488
 20
11.414049
 30
0.0
  0
SPLINE
  5
1dd
100
AcDbEntity
  8
Layer_1
 62
7
100
AcDbSpline
 70
8
 71
3
 72
8
 73
4
 74
0
 40
0
 40
0
 40
0
 40
0
 40
1
 40
1
 40
1
 40
1
 10
146.476488
 20
11.414049
 30
0.0
 10
146.971530
 20
11.128237
 30
0.0
 10
147.581446
 20
11.128237
 30
0.0
 10
148.076488
 20
11.414049
 30
0.0
  0
SPLINE
  5
1de
100
AcDbEntity
  8
Layer_1
 62
7
100
AcDbSpline
 70
8
 71
3
 72
8
 73
4
 74
0
 40
0
 40
0
 40
0
 40
0
 40
1
 40
1
 40
1
 40
1
 10
148.076488
 20
11.414049
 30
0.0
 10
148.571529
 20
11.699862
 30
0.0
 10
148.876488
 20
12.228065
 30
0.0
 10
148.876488
 20
12.799690
 30
0.0
  0
LINE
  5
1df
100
AcDbEntity
  8
Layer_1
 62
7
100
AcDbLine
 10
148.876488
 20
12.799690
 30
0.0
 11
148.876488
 21
12.799690
 31
0.0
  0
SPLINE
  5
1e0
100
AcDbEntity
  8
Layer_1
 62
7
100
AcDbSpline
 70
8
 71
3
 72
8
 73
4
 74
0
 40
0
 40
0
 40
0
 40
0
 40
1
 40
1
 40
1
 40
1
 10
173.387599
 20
12.799690
 30
0.0
 10
173.387599
 20
13.371315
 30
0.0
 10
173.082641
 20
13.899518
 30
0.0
 10
172.587599
 20
14.185330
 30
0.0
  0
SPLINE
  5
1e1
100
AcDbEntity
  8
Layer_1
 62
7
100
AcDbSpline
 70
8
 71
3
 72
8
 73
4
 74
0
 40
0
 40
0
 40
0
 40
0
 40
1
 40
1
 40
1
 40
1
 10
172.587599
 20
14.185330
 30
0.0
 10
172.092557
 20
14.471143
 30
0.0
 10
171.482641
 20
14.471143
 30
0.0
 10
170.987599
 20
14.185330
 30
0.0
  0
SPLINE
  5
1e2
100
AcDbEntity
  8
Layer_1
 62
7
100
AcDbSpline
 70
8
 71
3
 72
8
 73
4
 74
0
 40
0
 40
0
 40
0
 40
0
 40
1
 40
1
 40
1
 40
1
 10
170.987599
 20
14.185330
 30
0.0
 10
170.492557
 20
13.899518
 30
0.0
 10
170.187599
 20
13.371315
 30
0.0
 10
170.187599
 20
12.799690
 30
0.0
  0
SPLINE
  5
1e3
100
AcDbEntity
  8
Layer_1
 62
7
100
AcDbSpline
 70
8
 71
3
 72
8
 73
4
 74
0
 40
0
 40
0
 40
0
 40
0
 40
1
 40
1
 40
1
 40
1
 10
170.187599
 20
12.799690
 30
0.0
 10
170.187599
 20
12.228065
 30
0.0
 10
170.492557
 20
11.699862
 30
0.0
 10
170.987599
 20
11.414049
 30
0.0
  0
SPLINE
  5
1e4
100
AcDbEntity
  8
Layer_1
 62
7
100
AcDbSpline
 70
8
 71
3
 72
8
 73
4
 74
0
 40
0
 40
0
 40
0
 40
0
 40
1
 40
1
 40
1
 40
1
 10
170.987599
 20
11.414049
 30
0.0
 10
171.482641
 20
11.128237
 30
0.0
 10
172.092557
 20
11.128237
 30
0.0
 10
172.587599
 20
11.414049
 30
0.0
  0
SPLINE
  5
1e5
100
AcDbEntity
  8
Layer_1
 62
7
100
AcDbSpline
 70
8
 71
3
 72
8
 73
4
 74
0
 40
0
 40
0
 40
0
 40
0
 40
1
 40
1
 40
1
 40
1
 10
172.587599
 20
11.414049
 30
0.0
 10
173.082641
 20
11.699862
 30
0.0
 10
173.387599
 20
12.228065
 30
0.0
 10
173.387599
 20
12.799690
 30
0.0
  0
LINE
  5
1e6
100
AcDbEntity
  8
Layer_1
 62
7
100
AcDbLine
 10
173.387599
 20
12.799690
 30
0.0
 11
173.387599
 21
12.799690
 31
0.0
  0
SPLINE
  5
1e7
100
AcDbEntity
  8
Layer_1
 62
7
100
AcDbSpline
 70
8
 71
3
 72
8
 73
4
 74
0
 40
0
 40
0
 40
0
 40
0
 40
1
 40
1
 40
1
 40
1
 10
186.787600
 20
7.899691
 30
0.0
 10
189.492342
 20
7.901744
 30
0.0
 10
191.683881
 20
10.094947
 30
0.0
 10
191.683881
 20
12.799690
 30
0.0
  0
SPLINE
  5
1e8
100
AcDbEntity
  8
Layer_1
 62
7
100
AcDbSpline
 70
8
 71
3
 72
8
 73
4
 74
0
 40
0
 40
0
 40
0
 40
0
 40
1
 40
1
 40
1
 40
1
 10
191.683881
 20
12.799690
 30
0.0
 10
191.683881
 20
15.504433
 30
0.0
 10
189.492342
 20
17.697636
 30
0.0
 10
186.787600
 20
17.699688
 30
0.0
  0
LINE
  5
1e9
100
AcDbEntity
  8
Layer_1
 62
7
100
AcDbLine
 10
186.787600
 20
17.699688
 30
0.0
 11
171.787598
 21
17.699688
 31
0.0
  0
SPLINE
  5
1ea
100
AcDbEntity
  8
Layer_1
 62
7
100
AcDbSpline
 70
8
 71
3
 72
8
 73
4
 74
0
 40
0
 40
0
 40
0
 40
0
 40
1
 40
1
 40
1
 40
1
 10
171.787598
 20
17.699688
 30
0.0
 10
169.082856
 20
17.697636
 30
0.0
 10
166.891317
 20
15.504433
 30
0.0
 10
166.891317
 20
12.799690
 30
0.0
  0
SPLINE
  5
1eb
100
AcDbEntity
  8
Layer_1
 62
7
100
AcDbSpline
 70
8
 71
3
 72
8
 73
4
 74
0
 40
0
 40
0
 40
0
 40
0
 40
1
 40
1
 40
1
 40
1
 10
166.891317
 20
12.799690
 30
0.0
 10
166.891317
 20
10.094947
 30
0.0
 10
169.082856
 20
7.901744
 30
0.0
 10
171.787598
 20
7.899691
 30
0.0
  0
LINE
  5
1ec
100
AcDbEntity
  8
Layer_1
 62
7
100
AcDbLine
 10
171.787598
 20
7.899691
 30
0.0
 11
186.787600
 21
7.899691
 31
0.0
  0
SPLINE
  5
1ed
100
AcDbEntity
  8
Layer_1
 62
7
100
AcDbSpline
 70
8
 71
3
 72
8
 73
4
 74
0
 40
0
 40
0
 40
0
 40
0
 40
1
 40
1
 40
1
 40
1
 10
188.387599
 20
12.799690
 30
0.0
 10
188.387599
 20
13.371315
 30
0.0
 10
188.082641
 20
13.899518
 30
0.0
 10
187.587599
 20
14.185330
 30
0.0
  0
SPLINE
  5
1ee
100
AcDbEntity
  8
Layer_1
 62
7
100
AcDbSpline
 70
8
 71
3
 72
8
 73
4
 74
0
 40
0
 40
0
 40
0
 40
0
 40
1
 40
1
 40
1
 40
1
 10
187.587599
 20
14.185330
 30
0.0
 10
187.092557
 20
14.471143
 30
0.0
 10
186.482641
 20
14.471143
 30
0.0
 10
185.987599
 20
14.185330
 30
0.0
  0
SPLINE
  5
1ef
100
AcDbEntity
  8
Layer_1
 62
7
100
AcDbSpline
 70
8
 71
3
 72
8
 73
4
 74
0
 40
0
 40
0
 40
0
 40
0
 40
1
 40
1
 40
1
 40
1
 10
185.987599
 20
14.185330
 30
0.0
 10
185.492557
 20
13.899518
 30
0.0
 10
185.187599
 20
13.371315
 30
0.0
 10
185.187599
 20
12.799690
 30
0.0
  0
SPLINE
  5
1f0
100
AcDbEntity
  8
Layer_1
 62
7
100
AcDbSpline
 70
8
 71
3
 72
8
 73
4
 74
0
 40
0
 40
0
 40
0
 40
0
 40
1
 40
1
 40
1
 40
1
 10
185.187599
 20
12.799690
 30
0.0
 10
185.187599
 20
12.228065
 30
0.0
 10
185.492557
 20
11.699862
 30
0.0
 10
185.987599
 20
11.414049
 30
0.0
  0
SPLINE
  5
1f1
100
AcDbEntity
  8
Layer_1
 62
7
100
AcDbSpline
 70
8
 71
3
 72
8
 73
4
 74
0
 40
0
 40
0
 40
0
 40
0
 40
1
 40
1
 40
1
 40
1
 10
185.987599
 20
11.414049
 30
0.0
 10
186.482641
 20
11.128237
 30
0.0
 10
187.092557
 20
11.128237
 30
0.0
 10
187.587599
 20
11.414049
 30
0.0
  0
SPLINE
  5
1f2
100
AcDbEntity
  8
Layer_1
 62
7
100
AcDbSpline
 70
8
 71
3
 72
8
 73
4
 74
0
 40
0
 40
0
 40
0
 40
0
 40
1
 40
1
 40
1
 40
1
 10
187.587599
 20
11.414049
 30
0.0
 10
188.082641
 20
11.699862
 30
0.0
 10
188.387599
 20
12.228065
 30
0.0
 10
188.387599
 20
12.799690
 30
0.0
  0
LINE
  5
1f3
100
AcDbEntity
  8
Layer_1
 62
7
100
AcDbLine
 10
188.387599
 20
12.799690
 30
0.0
 11
188.387599
 21
12.799690
 31
0.0
  0
SPLINE
  5
1f4
100
AcDbEntity
  8
Layer_1
 62
7
100
AcDbSpline
 70
8
 71
3
 72
8
 73
4
 74
0
 40
0
 40
0
 40
0
 40
0
 40
1
 40
1
 40
1
 40
1
 10
212.898710
 20
12.799690
 30
0.0
 10
212.898710
 20
13.371315
 30
0.0
 10
212.593752
 20
13.899518
 30
0.0
 10
212.098710
 20
14.185330
 30
0.0
  0
SPLINE
  5
1f5
100
AcDbEntity
  8
Layer_1
 62
7
100
AcDbSpline
 70
8
 71
3
 72
8
 73
4
 74
0
 40
0
 40
0
 40
0
 40
0
 40
1
 40
1
 40
1
 40
1
 10
212.098710
 20
14.185330
 30
0.0
 10
211.603668
 20
14.471143
 30
0.0
 10
210.993752
 20
14.471143
 30
0.0
 10
210.498710
 20
14.185330
 30
0.0
  0
SPLINE
  5
1f6
100
AcDbEntity
  8
Layer_1
 62
7
100
AcDbSpline
 70
8
 71
3
 72
8
 73
4
 74
0
 40
0
 40
0
 40
0
 40
0
 40
1
 40
1
 40
1
 40
1
 10
210.498710
 20
14.185330
 30
0.0
 10
210.003668
 20
13.899518
 30
0.0
 10
209.698710
 20
13.371315
 30
0.0
 10
209.698710
 20
12.799690
 30
0.0
  0
SPLINE
  5
1f7
100
AcDbEntity
  8
Layer_1
 62
7
100
AcDbSpline
 70
8
 71
3
 72
8
 73
4
 74
0
 40
0
 40
0
 40
0
 40
0
 40
1
 40
1
 40
1
 40
1
 10
209.698710
 20
12.799690
 30
0.0
 10
209.698710
 20
12.228065
 30
0.0
 10
210.003668
 20
11.699862
 30
0.0
 10
210.498710
 20
11.414049
 30
0.0
  0
SPLINE
  5
1f8
100
AcDbEntity
  8
Layer_1
 62
7
100
AcDbSpline
 70
8
 71
3
 72
8
 73
4
 74
0
 40
0
 40
0
 40
0
 40
0
 40
1
 40
1
 40
1
 40
1
 10
210.498710
 20
11.414049
 30
0.0
 10
210.993752
 20
11.128237
 30
0.0
 10
211.603668
 20
11.128237
 30
0.0
 10
212.098710
 20
11.414049
 30
0.0
  0
SPLINE
  5
1f9
100
AcDbEntity
  8
Layer_1
 62
7
100
AcDbSpline
 70
8
 71
3
 72
8
 73
4
 74
0
 40
0
 40
0
 40
0
 40
0
 40
1
 40
1
 40
1
 40
1
 10
212.098710
 20
11.414049
 30
0.0
 10
212.593752
 20
11.699862
 30
0.0
 10
212.898710
 20
12.228065
 30
0.0
 10
212.898710
 20
12.799690
 30
0.0
  0
LINE
  5
1fa
100
AcDbEntity
  8
Layer_1
 62
7
100
AcDbLine
 10
212.898710
 20
12.799690
 30
0.0
 11
212.898710
 21
12.799690
 31
0.0
  0
SPLINE
  5
1fb
100
AcDbEntity
  8
Layer_1
 62
7
100
AcDbSpline
 70
8
 71
3
 72
8
 73
4
 74
0
 40
0
 40
0
 40
0
 40
0
 40
1
 40
1
 40
1
 40
1
 10
226.298711
 20
7.899691
 30
0.0
 10
229.003453
 20
7.901744
 30
0.0
 10
231.194992
 20
10.094947
 30
0.0
 10
231.194992
 20
12.799690
 30
0.0
  0
SPLINE
  5
1fc
100
AcDbEntity
  8
Layer_1
 62
7
100
AcDbSpline
 70
8
 71
3
 72
8
 73
4
 74
0
 40
0
 40
0
 40
0
 40
0
 40
1
 40
1
 40
1
 40
1
 10
231.194992
 20
12.799690
 30
0.0
 10
231.194992
 20
15.504433
 30
0.0
 10
229.003453
 20
17.697636
 30
0.0
 10
226.298711
 20
17.699688
 30
0.0
  0
LINE
  5
1fd
100
AcDbEntity
  8
Layer_1
 62
7
100
AcDbLine
 10
226.298711
 20
17.699688
 30
0.0
 11
211.298710
 21
17.699688
 31
0.0
  0
SPLINE
  5
1fe
100
AcDbEntity
  8
Layer_1
 62
7
100
AcDbSpline
 70
8
 71
3
 72
8
 73
4
 74
0
 40
0
 40
0
 40
0
 40
0
 40
1
 40
1
 40
1
 40
1
 10
211.298710
 20
17.699688
 30
0.0
 10
208.593967
 20
17.697636
 30
0.0
 10
206.402428
 20
15.504433
 30
0.0
 10
206.402428
 20
12.799690
 30
0.0
  0
SPLINE
  5
1ff
100
AcDbEntity
  8
Layer_1
 62
7
100
AcDbSpline
 70
8
 71
3
 72
8
 73
4
 74
0
 40
0
 40
0
 40
0
 40
0
 40
1
 40
1
 40
1
 40
1
 10
206.402428
 20
12.799690
 30
0.0
 10
206.402428
 20
10.094947
 30
0.0
 10
208.593967
 20
7.901744
 30
0.0
 10
211.298710
 20
7.899691
 30
0.0
  0
LINE
  5
200
100
AcDbEntity
  8
Layer_1
 62
7
100
AcDbLine
 10
211.298710
 20
7.899691
 30
0.0
 11
226.298711
 21
7.899691
 31
0.0
  0
SPLINE
  5
201
100
AcDbEntity
  8
Layer_1
 62
7
100
AcDbSpline
 70
8
 71
3
 72
8
 73
4
 74
0
 40
0
 40
0
 40
0
 40
0
 40
1
 40
1
 40
1
 40
1
 10
227.898710
 20
12.799690
 30
0.0
 10
227.898710
 20
13.371315
 30
0.0
 10
227.593752
 20
13.899518
 30
0.0
 10
227.098710
 20
14.185330
 30
0.0
  0
SPLINE
  5
202
100
AcDbEntity
  8
Layer_1
 62
7
100
AcDbSpline
 70
8
 71
3
 72
8
 73
4
 74
0
 40
0
 40
0
 40
0
 40
0
 40
1
 40
1
 40
1
 40
1
 10
227.098710
 20
14.185330
 30
0.0
 10
226.603668
 20
14.471143
 30
0.0
 10
225.993752
 20
14.471143
 30
0.0
 10
225.498710
 20
14.185330
 30
0.0
  0
SPLINE
  5
203
100
AcDbEntity
  8
Layer_1
 62
7
100
AcDbSpline
 70
8
 71
3
 72
8
 73
4
 74
0
 40
0
 40
0
 40
0
 40
0
 40
1
 40
1
 40
1
 40
1
 10
225.498710
 20
14.185330
 30
0.0
 10
225.003668
 20
13.899518
 30
0.0
 10
224.698710
 20
13.371315
 30
0.0
 10
224.698710
 20
12.799690
 30
0.0
  0
SPLINE
  5
204
100
AcDbEntity
  8
Layer_1
 62
7
100
AcDbSpline
 70
8
 71
3
 72
8
 73
4
 74
0
 40
0
 40
0
 40
0
 40
0
 40
1
 40
1
 40
1
 40
1
 10
224.698710
 20
12.799690
 30
0.0
 10
224.698710
 20
12.228065
 30
0.0
 10
225.003668
 20
11.699862
 30
0.0
 10
225.498710
 20
11.414049
 30
0.0
  0
SPLINE
  5
205
100
AcDbEntity
  8
Layer_1
 62
7
100
AcDbSpline
 70
8
 71
3
 72
8
 73
4
 74
0
 40
0
 40
0
 40
0
 40
0
 40
1
 40
1
 40
1
 40
1
 10
225.498710
 20
11.414049
 30
0.0
 10
225.993752
 20
11.128237
 30
0.0
 10
226.603668
 20
11.128237
 30
0.0
 10
227.098710
 20
11.414049
 30
0.0
  0
SPLINE
  5
206
100
AcDbEntity
  8
Layer_1
 62
7
100
AcDbSpline
 70
8
 71
3
 72
8
 73
4
 74
0
 40
0
 40
0
 40
0
 40
0
 40
1
 40
1
 40
1
 40
1
 10
227.098710
 20
11.414049
 30
0.0
 10
227.593752
 20
11.699862
 30
0.0
 10
227.898710
 20
12.228065
 30
0.0
 10
227.898710
 20
12.799690
 30
0.0
  0
LINE
  5
207
100
AcDbEntity
  8
Layer_1
 62
7
100
AcDbLine
 10
227.898710
 20
12.799690
 30
0.0
 11
227.898710
 21
12.799690
 31
0.0
  0
ENDSEC
  0
SECTION
  2
OBJECTS
  0
DICTIONARY
  5
C
330
0
100
AcDbDictionary
  3
ACAD_GROUP
350
D
  3
ACAD_MLINESTYLE
350
17
  0
DICTIONARY
  5
D
330
C
100
AcDbDictionary
  0
DICTIONARY
  5
1A
330
C
100
AcDbDictionary
  0
DICTIONARY
  5
17
330
C
100
AcDbDictionary
  3
STANDARD
350
18
  0
DICTIONARY
  5
19
330
C
100
AcDbDictionary
  0
ENDSEC
  0
EOF
