<?xml version="1.0" encoding="UTF-8" standalone="no"?>
<!-- Created with Inkscape (http://www.inkscape.org/) -->

<svg
   xmlns:dc="http://purl.org/dc/elements/1.1/"
   xmlns:cc="http://creativecommons.org/ns#"
   xmlns:rdf="http://www.w3.org/1999/02/22-rdf-syntax-ns#"
   xmlns:svg="http://www.w3.org/2000/svg"
   xmlns="http://www.w3.org/2000/svg"
   xmlns:sodipodi="http://sodipodi.sourceforge.net/DTD/sodipodi-0.dtd"
   xmlns:inkscape="http://www.inkscape.org/namespaces/inkscape"
   width="680mm"
   height="620mm"
   viewBox="0 0 2409.4488 2196.8504"
   id="svg2"
   version="1.1"
   inkscape:version="0.91 r13725"
   sodipodi:docname="10mm-inkscape.svg">
  <defs
     id="defs4">
    <marker
       orient="auto"
       id="DistanceX"
       style="overflow:visible"
       refX="0"
       refY="0">
      <path
         id="path13184"
         d="M 3,-3 -3,3 M 0,-5 0,5"
         style="stroke:#000000;stroke-width:0.5"
         inkscape:connector-curvature="0" />
    </marker>
    <pattern
       id="Hatch"
       x="0"
       y="0"
       patternUnits="userSpaceOnUse"
       width="8"
       height="8">
      <path
         id="path13187"
         d="M8 4 l-4,4"
         stroke-width="0.25"
         stroke="#000000"
         linecap="square" />
      <path
         id="path13189"
         d="M6 2 l-4,4"
         stroke-width="0.25"
         stroke="#000000"
         linecap="square" />
      <path
         id="path13191"
         d="M4 0 l-4,4"
         stroke-width="0.25"
         stroke="#000000"
         linecap="square" />
    </pattern>
    <symbol
       id="*Model_Space" />
    <symbol
       id="*Paper_Space" />
    <symbol
       id="*Paper_Space0" />
    <marker
       orient="auto"
       id="DistanceX-7"
       style="overflow:visible"
       refX="0"
       refY="0">
      <path
         id="path13683"
         d="M 3,-3 -3,3 M 0,-5 0,5"
         style="stroke:#000000;stroke-width:0.5"
         inkscape:connector-curvature="0" />
    </marker>
    <pattern
       id="Hatch-0"
       x="0"
       y="0"
       patternUnits="userSpaceOnUse"
       width="8"
       height="8">
      <path
         id="path13686"
         d="M8 4 l-4,4"
         stroke-width="0.25"
         stroke="#000000"
         linecap="square" />
      <path
         id="path13688"
         d="M6 2 l-4,4"
         stroke-width="0.25"
         stroke="#000000"
         linecap="square" />
      <path
         id="path13690"
         d="M4 0 l-4,4"
         stroke-width="0.25"
         stroke="#000000"
         linecap="square" />
    </pattern>
    <symbol
       id="*Model_Space-6" />
    <symbol
       id="*Paper_Space-2" />
    <symbol
       id="*Paper_Space0-1" />
    <marker
       orient="auto"
       id="DistanceX-1"
       style="overflow:visible"
       refX="0"
       refY="0">
      <path
         id="path14577"
         d="M 3,-3 -3,3 M 0,-5 0,5"
         style="stroke:#000000;stroke-width:0.5"
         inkscape:connector-curvature="0" />
    </marker>
    <pattern
       id="Hatch-4"
       x="0"
       y="0"
       patternUnits="userSpaceOnUse"
       width="8"
       height="8">
      <path
         id="path14580"
         d="M8 4 l-4,4"
         stroke-width="0.25"
         stroke="#000000"
         linecap="square" />
      <path
         id="path14582"
         d="M6 2 l-4,4"
         stroke-width="0.25"
         stroke="#000000"
         linecap="square" />
      <path
         id="path14584"
         d="M4 0 l-4,4"
         stroke-width="0.25"
         stroke="#000000"
         linecap="square" />
    </pattern>
    <symbol
       id="*Model_Space-60" />
    <symbol
       id="*Paper_Space-8" />
    <symbol
       id="*Paper_Space0-7" />
    <marker
       orient="auto"
       id="DistanceX-8"
       style="overflow:visible"
       refX="0"
       refY="0">
      <path
         id="path14937"
         d="M 3,-3 -3,3 M 0,-5 0,5"
         style="stroke:#000000;stroke-width:0.5"
         inkscape:connector-curvature="0" />
    </marker>
    <pattern
       id="Hatch-02"
       x="0"
       y="0"
       patternUnits="userSpaceOnUse"
       width="8"
       height="8">
      <path
         id="path14940"
         d="M8 4 l-4,4"
         stroke-width="0.25"
         stroke="#000000"
         linecap="square" />
      <path
         id="path14942"
         d="M6 2 l-4,4"
         stroke-width="0.25"
         stroke="#000000"
         linecap="square" />
      <path
         id="path14944"
         d="M4 0 l-4,4"
         stroke-width="0.25"
         stroke="#000000"
         linecap="square" />
    </pattern>
    <symbol
       id="*Model_Space-0" />
    <symbol
       id="*Paper_Space-1" />
    <symbol
       id="*Paper_Space0-2" />
    <marker
       orient="auto"
       id="DistanceX-13"
       style="overflow:visible"
       refX="0"
       refY="0">
      <path
         id="path15335"
         d="M 3,-3 -3,3 M 0,-5 0,5"
         style="stroke:#000000;stroke-width:0.5"
         inkscape:connector-curvature="0" />
    </marker>
    <pattern
       id="Hatch-7"
       x="0"
       y="0"
       patternUnits="userSpaceOnUse"
       width="8"
       height="8">
      <path
         id="path15338"
         d="M8 4 l-4,4"
         stroke-width="0.25"
         stroke="#000000"
         linecap="square" />
      <path
         id="path15340"
         d="M6 2 l-4,4"
         stroke-width="0.25"
         stroke="#000000"
         linecap="square" />
      <path
         id="path15342"
         d="M4 0 l-4,4"
         stroke-width="0.25"
         stroke="#000000"
         linecap="square" />
    </pattern>
    <symbol
       id="*Model_Space-5" />
    <symbol
       id="*Paper_Space-4" />
    <symbol
       id="*Paper_Space0-14" />
    <marker
       orient="auto"
       id="DistanceX-11"
       style="overflow:visible"
       refX="0"
       refY="0">
      <path
         id="path15811"
         d="M 3,-3 -3,3 M 0,-5 0,5"
         style="stroke:#000000;stroke-width:0.5"
         inkscape:connector-curvature="0" />
    </marker>
    <pattern
       id="Hatch-3"
       x="0"
       y="0"
       patternUnits="userSpaceOnUse"
       width="8"
       height="8">
      <path
         id="path15814"
         d="M8 4 l-4,4"
         stroke-width="0.25"
         stroke="#000000"
         linecap="square" />
      <path
         id="path15816"
         d="M6 2 l-4,4"
         stroke-width="0.25"
         stroke="#000000"
         linecap="square" />
      <path
         id="path15818"
         d="M4 0 l-4,4"
         stroke-width="0.25"
         stroke="#000000"
         linecap="square" />
    </pattern>
    <symbol
       id="*Model_Space-02" />
    <symbol
       id="*Paper_Space-9" />
    <symbol
       id="*Paper_Space0-28" />
    <marker
       orient="auto"
       id="DistanceX-3"
       style="overflow:visible"
       refX="0"
       refY="0">
      <path
         id="path16289"
         d="M 3,-3 -3,3 M 0,-5 0,5"
         style="stroke:#000000;stroke-width:0.5"
         inkscape:connector-curvature="0" />
    </marker>
    <pattern
       id="Hatch-5"
       x="0"
       y="0"
       patternUnits="userSpaceOnUse"
       width="8"
       height="8">
      <path
         id="path16292"
         d="M8 4 l-4,4"
         stroke-width="0.25"
         stroke="#000000"
         linecap="square" />
      <path
         id="path16294"
         d="M6 2 l-4,4"
         stroke-width="0.25"
         stroke="#000000"
         linecap="square" />
      <path
         id="path16296"
         d="M4 0 l-4,4"
         stroke-width="0.25"
         stroke="#000000"
         linecap="square" />
    </pattern>
    <symbol
       id="*Model_Space-9" />
    <symbol
       id="*Paper_Space-0" />
    <symbol
       id="*Paper_Space0-9" />
    <marker
       orient="auto"
       id="DistanceX-0"
       style="overflow:visible"
       refX="0.0"
       refY="0.0">
      <path
         id="path16841"
         d="M 3,-3 L -3,3 M 0,-5 L  0,5"
         style="stroke:#000000; stroke-width:0.5" />
    </marker>
    <pattern
       id="Hatch-00"
       x="0"
       y="0"
       patternUnits="userSpaceOnUse"
       width="8"
       height="8">
      <path
         id="path16844"
         d="M8 4 l-4,4"
         stroke-width="0.25"
         stroke="#000000"
         linecap="square" />
      <path
         id="path16846"
         d="M6 2 l-4,4"
         stroke-width="0.25"
         stroke="#000000"
         linecap="square" />
      <path
         id="path16848"
         d="M4 0 l-4,4"
         stroke-width="0.25"
         stroke="#000000"
         linecap="square" />
    </pattern>
    <symbol
       id="*Model_Space-08" />
    <symbol
       id="*Paper_Space-02" />
    <symbol
       id="*Paper_Space0-24" />
    <marker
       orient="auto"
       id="DistanceX-9"
       style="overflow:visible"
       refX="0.0"
       refY="0.0">
      <path
         id="path17499"
         d="M 3,-3 L -3,3 M 0,-5 L  0,5"
         style="stroke:#000000; stroke-width:0.5" />
    </marker>
    <pattern
       id="Hatch-6"
       x="0"
       y="0"
       patternUnits="userSpaceOnUse"
       width="8"
       height="8">
      <path
         id="path17502"
         d="M8 4 l-4,4"
         stroke-width="0.25"
         stroke="#000000"
         linecap="square" />
      <path
         id="path17504"
         d="M6 2 l-4,4"
         stroke-width="0.25"
         stroke="#000000"
         linecap="square" />
      <path
         id="path17506"
         d="M4 0 l-4,4"
         stroke-width="0.25"
         stroke="#000000"
         linecap="square" />
    </pattern>
    <symbol
       id="*Model_Space-7" />
    <symbol
       id="*Paper_Space-41" />
    <symbol
       id="*Paper_Space0-5" />
    <marker
       orient="auto"
       id="DistanceX-89"
       style="overflow:visible"
       refX="0.0"
       refY="0.0">
      <path
         id="path18015"
         d="M 3,-3 L -3,3 M 0,-5 L  0,5"
         style="stroke:#000000; stroke-width:0.5" />
    </marker>
    <pattern
       id="Hatch-8"
       x="0"
       y="0"
       patternUnits="userSpaceOnUse"
       width="8"
       height="8">
      <path
         id="path18018"
         d="M8 4 l-4,4"
         stroke-width="0.25"
         stroke="#000000"
         linecap="square" />
      <path
         id="path18020"
         d="M6 2 l-4,4"
         stroke-width="0.25"
         stroke="#000000"
         linecap="square" />
      <path
         id="path18022"
         d="M4 0 l-4,4"
         stroke-width="0.25"
         stroke="#000000"
         linecap="square" />
    </pattern>
    <symbol
       id="*Model_Space-90" />
    <symbol
       id="*Paper_Space-83" />
    <symbol
       id="*Paper_Space0-3" />
    <marker
       orient="auto"
       id="DistanceX-16"
       style="overflow:visible"
       refX="0.0"
       refY="0.0">
      <path
         id="path18195"
         d="M 3,-3 L -3,3 M 0,-5 L  0,5"
         style="stroke:#000000; stroke-width:0.5" />
    </marker>
    <pattern
       id="Hatch-87"
       x="0"
       y="0"
       patternUnits="userSpaceOnUse"
       width="8"
       height="8">
      <path
         id="path18198"
         d="M8 4 l-4,4"
         stroke-width="0.25"
         stroke="#000000"
         linecap="square" />
      <path
         id="path18200"
         d="M6 2 l-4,4"
         stroke-width="0.25"
         stroke="#000000"
         linecap="square" />
      <path
         id="path18202"
         d="M4 0 l-4,4"
         stroke-width="0.25"
         stroke="#000000"
         linecap="square" />
    </pattern>
    <symbol
       id="*Model_Space-2" />
    <symbol
       id="*Paper_Space-48" />
    <symbol
       id="*Paper_Space0-72" />
    <marker
       orient="auto"
       id="DistanceX-09"
       style="overflow:visible"
       refX="0.0"
       refY="0.0">
      <path
         id="path22511"
         d="M 3,-3 L -3,3 M 0,-5 L  0,5"
         style="stroke:#000000; stroke-width:0.5" />
    </marker>
    <pattern
       id="Hatch-47"
       x="0"
       y="0"
       patternUnits="userSpaceOnUse"
       width="8"
       height="8">
      <path
         id="path22514"
         d="M8 4 l-4,4"
         stroke-width="0.25"
         stroke="#000000"
         linecap="square" />
      <path
         id="path22516"
         d="M6 2 l-4,4"
         stroke-width="0.25"
         stroke="#000000"
         linecap="square" />
      <path
         id="path22518"
         d="M4 0 l-4,4"
         stroke-width="0.25"
         stroke="#000000"
         linecap="square" />
    </pattern>
    <symbol
       id="*Model_Space-20" />
    <symbol
       id="*Paper_Space-14" />
    <symbol
       id="*Paper_Space0-10" />
  </defs>
  <sodipodi:namedview
     id="base"
     pagecolor="#ffffff"
     bordercolor="#666666"
     borderopacity="1.0"
     inkscape:pageopacity="0.0"
     inkscape:pageshadow="2"
     inkscape:zoom="34.027854"
     inkscape:cx="427.15953"
     inkscape:cy="1960.5114"
     inkscape:document-units="mm"
     inkscape:current-layer="g13196"
     showgrid="false"
     showguides="true"
     inkscape:guide-bbox="true"
     inkscape:window-width="1920"
     inkscape:window-height="1137"
     inkscape:window-x="-8"
     inkscape:window-y="-8"
     inkscape:window-maximized="1">
    <sodipodi:guide
       position="35.433072,2039.4979"
       orientation="1,0"
       id="guide10849"
       inkscape:label=""
       inkscape:color="rgb(0,0,255)" />
    <sodipodi:guide
       position="48.571655,2161.4174"
       orientation="0,1"
       id="guide13171"
       inkscape:label=""
       inkscape:color="rgb(0,0,255)" />
    <sodipodi:guide
       position="66.607145,35.43307"
       orientation="0,1"
       id="guide13173"
       inkscape:label=""
       inkscape:color="rgb(0,0,255)" />
    <sodipodi:guide
       position="2374.0158,1913.5714"
       orientation="1,0"
       id="guide13175"
       inkscape:label=""
       inkscape:color="rgb(0,0,255)" />
  </sodipodi:namedview>
  <metadata
     id="metadata7">
    <rdf:RDF>
      <cc:Work
         rdf:about="">
        <dc:format>image/svg+xml</dc:format>
        <dc:type
           rdf:resource="http://purl.org/dc/dcmitype/StillImage" />
        <dc:title />
      </cc:Work>
    </rdf:RDF>
  </metadata>
  <g
     inkscape:label="Layer 1"
     inkscape:groupmode="layer"
     id="layer1"
     transform="translate(0,1144.4882)">
    <g
       id="g13196"
       inkscape:label="0"
       transform="translate(1498.4449,-1648.2605)">
      <path
         id="path22675"
         style="fill:none;stroke:#ff0000;stroke-width:0.5;stroke-linecap:round;stroke-opacity:1"
         d="m 208.1258,1348.301 0,4.252 m 0,0 a 0.885827,0.885827 0 0 0 0.8858,0.8858 m 0,0 8.8582,0 m 0,0 a 0.885827,0.885827 0 0 0 0.8859,-0.8858 m 0,0 0,-4.252 m 0,0 12.4015,0 m 0,0 0,-10.9843 m 0,0 -12.4015,0 m 0,0 0,-4.2519 m 0,0 a 0.885827,0.885827 0 0 0 -0.8859,-0.8859 m 0,0 -8.8582,0 m 0,0 a 0.885827,0.885827 0 0 0 -0.8858,0.8859 m 0,0 0,4.2519 m 0,0 -14.1733,0 m 0,-15.7677 0,15.7677 m 70.8662,-15.7677 -70.8662,0 m 70.8662,177.1654 0,-177.1654 m -70.8662,177.1654 70.8662,0 m -70.8662,-22.1457 0,22.1457 m 0,-22.1457 13.4646,0 m 0,0 0,3.8976 m 0,0 a 0.885827,0.885827 0 0 0 0.8858,0.8859 m 0,0 13.1103,0 m 0,0 a 0.885827,0.885827 0 0 0 0.8858,-0.8859 m 0,0 0,-3.8976 m 0,0 8.8582,0 m 0,0 0,-12.4016 m 0,0 -8.8582,0 m 0,0 0,-3.8976 m 0,0 a 0.885827,0.885827 0 0 0 -0.8858,-0.8858 m 0,0 -13.1103,0 m 0,0 a 0.885827,0.885827 0 0 0 -0.8858,0.8858 m 0,0 0,3.8976 m 0,0 -13.4646,0 m 0,-30.4724 0,30.4724 m 0,-30.4724 13.4646,0 m 0,0 0,3.8976 m 0,0 a 0.885827,0.885827 0 0 0 0.8858,0.8859 m 0,0 13.1103,0 m 0,0 a 0.885827,0.885827 0 0 0 0.8858,-0.8859 m 0,0 0,-3.8976 m 0,0 8.8582,0 m 0,0 0,-11.6929 m 0,0 -8.8582,0 m 0,0 0,-3.8977 m 0,0 a 0.885827,0.885827 0 0 0 -0.8858,-0.8858 m 0,0 -13.1103,0 m 0,0 a 0.885827,0.885827 0 0 0 -0.8858,0.8858 m 0,0 0,3.8977 m 0,0 -13.4646,0 m 0,-31.1811 0,31.1811 m 0,-31.1811 13.4646,0 m 0,0 0,3.8976 m 0,0 a 0.885827,0.885827 0 0 0 0.8858,0.8858 m 0,0 13.1103,0 m 0,0 a 0.885827,0.885827 0 0 0 0.8858,-0.8858 m 0,0 0,-3.8976 m 0,0 8.8582,0 m 0,0 0,-10.9843 m 0,0 -8.8582,0 m 0,0 0,-3.8976 m 0,0 a 0.885827,0.885827 0 0 0 -0.8858,-0.8858 m 0,0 -13.1103,0 m 0,0 a 0.885827,0.885827 0 0 0 -0.8858,0.8858 m 0,0 0,3.8976 m 0,0 -13.4646,0 m 0,-31.5354 0,31.5354 m 0,-31.5354 14.1733,0 m 43.3073,-3.3156 a 4.6063,4.6063 0 0 0 0,-9.2126 4.6063,4.6063 0 1 0 0,9.2126 z m 0,17.8937 a 4.783465,4.783465 0 1 0 0,-9.5669 4.783465,4.783465 0 1 0 0,9.5669 z m 0,17.8937 a 4.96063,4.96063 0 0 0 0,-9.9212 4.96063,4.96063 0 1 0 0,9.9212 z m 0,17.8937 a 5.1377955,5.1377955 0 0 0 0,-10.2755 5.1377955,5.1377955 0 1 0 0,10.2755 z m 0,17.8937 a 5.314961,5.314961 0 1 0 0,-10.6299 5.314961,5.314961 0 1 0 0,10.6299 z m 0,17.8937 a 5.492126,5.492126 0 0 0 0,-10.9842 5.492126,5.492126 0 1 0 0,10.9842 z m 0,17.8937 a 5.6692915,5.6692915 0 0 0 0,-11.3385 5.6692915,5.6692915 0 1 0 0,11.3385 z m 0,17.8937 a 5.846457,5.846457 0 0 0 0,-11.6929 5.846457,5.846457 0 1 0 0,11.6929 z m 12.89517,-327.3616 a 5.492126,5.492126 0 1 0 -10.98425,0 5.492126,5.492126 0 1 0 10.98425,0 z m 0,109.8425 a 5.492126,5.492126 0 1 0 -10.98425,0 5.492126,5.492126 0 1 0 10.98425,0 z m 49.42914,-129.3307 -70.86614,0 m 70.86614,32.7756 0,-32.7756 m 0,32.7756 a 41.633858,41.633858 0 0 0 0,83.2677 m 0,43.4055 0,-43.4055 m -124.01575,43.4055 124.01575,0 m -124.01575,-35.433 0,35.433 m 35.43307,-35.433 -35.43307,0 m 35.43307,-29.2323 0,29.2323 m 0,-29.2323 13.46457,0 m 0,0 0,3.5433 m 0,0 a 0.885827,0.885827 0 0 0 0.88582,0.8858 m 0,0 13.11024,0 m 0,0 a 0.885827,0.885827 0 0 0 0.88583,-0.8858 m 0,0 0,-3.5433 m 0,0 8.85826,0 m 0,0 0,-12.4016 m 0,0 -8.85826,0 m 0,0 0,-3.5433 m 0,0 a 0.885827,0.885827 0 0 0 -0.88583,-0.8858 m 0,0 -13.11024,0 m 0,0 a 0.885827,0.885827 0 0 0 -0.88582,0.8858 m 0,0 0,3.5433 m 0,0 -13.46457,0 m 0,-29.2323 0,29.2323 m -35.43307,-29.2323 35.43307,0 m -35.43307,-35.4331 0,35.4331 m 35.43307,-35.4331 -35.43307,0 m 35.43307,0 17.71653,-17.7165 m -15.76293,-84.003 a 5.49213,5.49213 0 1 0 -10.98426,0 5.49213,5.49213 0 0 0 10.98426,0 z m 106.29921,0 a 5.492126,5.492126 0 1 0 -10.98425,0 5.492126,5.492126 0 1 0 10.98425,0 z m -62.18504,0 a 14.17323,14.17323 0 1 0 -28.34646,0 14.17323,14.17323 0 0 0 28.34646,0 z m -102.75591,-30.1181 0,42.5196 m 14.17323,-56.69286 a 14.173228,14.173228 0 0 0 -14.17323,14.17326 m 162.99213,-14.17326 -148.8189,0 m 162.99213,14.17326 a 14.173228,14.173228 0 0 0 -14.17323,-14.17326 m 14.17323,56.69286 0,-42.5196 m -14.17323,56.6929 a 14.173228,14.173228 0 0 0 14.17323,-14.1733 m -162.99213,14.1733 148.8189,0 M 168.48659,1051.79 a 14.173228,14.173228 0 0 0 14.17323,14.1733 m 115.33465,-26.5748 a 5.492126,5.492126 0 1 0 -10.98425,0 5.492126,5.492126 0 1 0 10.98425,0 z m -106.29922,0 a 5.492126,5.492126 0 1 0 -10.98425,0 5.492126,5.492126 0 1 0 10.98425,0 z m 35.43308,-119.99996 a 5.49213,5.49213 0 1 0 -10.98426,0 5.49213,5.49213 0 0 0 10.98426,0 z m 106.29921,0 a 5.492126,5.492126 0 1 0 -10.98425,0 5.492126,5.492126 0 1 0 10.98425,0 z m -62.18504,0 a 14.17323,14.17323 0 1 0 -28.34646,0 14.17323,14.17323 0 0 0 28.34646,0 z m -102.75591,-30.1181 0,42.5196 m 14.17323,-56.6929 a 14.173228,14.173228 0 0 0 -14.17323,14.1733 m 162.99213,-14.1733 -148.8189,0 m 162.99213,14.1733 a 14.173228,14.173228 0 0 0 -14.17323,-14.1733 m 14.17323,56.6929 0,-42.5196 m -14.17323,56.6929 a 14.173228,14.173228 0 0 0 14.17323,-14.1733 m -162.99213,14.1733 148.8189,0 m -162.99213,-14.1733 a 14.173228,14.173228 0 0 0 14.17323,14.1733 m 115.33465,-26.5748 a 5.492126,5.492126 0 1 0 -10.98425,0 5.492126,5.492126 0 1 0 10.98425,0 z m -106.29922,0 a 5.492126,5.492126 0 1 0 -10.98425,0 5.492126,5.492126 0 1 0 10.98425,0 z m -404.79339,876.11276 a 0.885827,0.885827 0 0 0 -0.88582,0.8858 m 0,13.1102 0,-13.1102 m 0,13.1102 a 0.885827,0.885827 0 0 0 0.88582,0.8859 m 3.54331,0 -3.54331,0 m 3.54331,8.8582 0,-8.8582 m 12.40157,8.8582 -12.40157,0 m 12.40157,-8.8582 0,8.8582 m 3.54331,-8.8582 -3.54331,0 m 3.54331,0 a 0.885827,0.885827 0 0 0 0.88583,-0.8859 m 0,-13.1102 0,13.1102 m 0,-13.1102 a 0.885827,0.885827 0 0 0 -0.88583,-0.8858 m -3.54331,0 3.54331,0 m -3.54331,-13.4646 0,13.4646 m 0,-13.4646 11.51575,0 m 0,0 0,-35.4331 m 0,0 35.43307,0 m 0,0 0,35.4331 m 106.299216,0 -106.299216,0 m 106.299216,-35.4331 0,35.4331 m 35.433071,-35.4331 -35.433071,0 m 35.433071,35.4331 0,-35.4331 m 11.515753,35.4331 -11.515753,0 m 11.515753,0 0,13.4646 m 0,0 -3.543312,0 m 0,0 a 0.885827,0.885827 0 0 0 -0.885827,0.8858 m 0,0 0,13.1102 m 0,0 a 0.885827,0.885827 0 0 0 0.885827,0.8859 m 0,0 3.543312,0 m 0,0 0,8.8582 m 0,0 12.40157,0 m 0,0 0,-8.8582 m 0,0 3.54331,0 m 0,0 a 0.885827,0.885827 0 0 0 0.88582,-0.8859 m 0,0 0,-13.1102 m 0,0 a 0.885827,0.885827 0 0 0 -0.88582,-0.8858 m 0,0 -3.54331,0 m 0,0 0,-13.4646 m 20.37402,0 -20.37402,0 m 20.37402,184.252 0,-184.252 m -10.62993,194.8819 a 10.629921,10.629921 0 0 0 10.62993,-10.6299 m -255.11811,10.6299 244.48818,0 m -255.11811,-10.6299 a 10.629921,10.629921 0 0 0 10.62993,10.6299 m -10.62993,-10.6299 0,-184.252 m 0,0 20.37402,0 m 0,13.4646 0,-13.4646 m -3.54331,13.4646 3.54331,0 m 52.08661,160.1575 a 5.49213,5.49213 0 0 0 10.98426,0 5.49213,5.49213 0 1 0 -10.98426,0 z m 0,-109.8426 a 5.49213,5.49213 0 0 0 10.98426,0 5.49213,5.49213 0 1 0 -10.98426,0 z m -63.95669,60.5906 36.14173,0 m -36.14173,36.1417 0,-36.1417 m 36.14173,36.1417 -36.14173,0 m 36.14173,-36.1417 0,36.1417 m 0,-85.0393 -36.14173,0 m 36.14173,-36.1418 0,36.1418 m -36.14173,-36.1418 36.14173,0 m -36.14173,36.1418 0,-36.1418 m 12.57874,60.5906 a 5.492126,5.492126 0 1 0 10.98425,0 5.492126,5.492126 0 1 0 -10.98425,0 z m 212.59843,0 a 5.492126,5.492126 0 1 0 10.98425,0 5.492126,5.492126 0 1 0 -10.98425,0 z m -51.377956,73.7008 a 5.492126,5.492126 0 1 0 10.984252,0 5.492126,5.492126 0 1 0 -10.984252,0 z m 0,-109.8426 a 5.492126,5.492126 0 1 0 10.984252,0 5.492126,5.492126 0 1 0 -10.984252,0 z m 74.940946,96.7323 0,-36.1417 m 0,0 -36.141734,0 m 0,0 0,36.1417 m 0,0 36.141734,0 m -36.141734,-121.1811 0,36.1418 m 0,0 36.141734,0 m 0,0 0,-36.1418 m 0,0 -36.141734,0 m -128.090546,79.3701 a 39.862205,39.862205 0 0 0 79.724405,0 39.862205,39.862205 0 1 0 -79.724405,0 z m 25.68897,-62.0079 a 14.173229,14.173229 0 0 0 28.346458,0 14.173229,14.173229 0 1 0 -28.346458,0 z m -253.78347,-298.7088 a 0.885827,0.885827 0 0 0 0.88582,-0.8858 m 0,-13.1102 0,13.1102 m 0,-13.1102 a 0.885827,0.885827 0 0 0 -0.88582,-0.8859 m -3.54331,0 3.54331,0 m -3.54331,-8.8582 0,8.8582 m -12.40157,-8.8582 12.40157,0 m -12.40157,8.8582 0,-8.8582 m -3.54331,8.8582 3.54331,0 m -3.54331,0 a 0.885827,0.885827 0 0 0 -0.88583,0.8859 m 0,13.1102 0,-13.1102 m 0,13.1102 a 0.885827,0.885827 0 0 0 0.88583,0.8858 m 3.54331,0 -3.54331,0 m 3.54331,13.4646 0,-13.4646 m 0,13.4646 -11.51575,0 m 0,0 0,35.4331 m 0,0 -35.43307,0 m 0,0 0,-35.4331 m -106.29922,0 106.29922,0 m -106.29922,35.4331 0,-35.4331 m -35.43307,35.4331 35.43307,0 m -35.43307,-35.4331 0,35.4331 m -11.51575,-35.4331 11.51575,0 m -11.51575,0 0,-13.4646 m 0,0 3.54331,0 m 0,0 a 0.885827,0.885827 0 0 0 0.88583,-0.8858 m 0,0 0,-13.1102 m 0,0 a 0.885827,0.885827 0 0 0 -0.88583,-0.8859 m 0,0 -3.54331,0 m 0,0 0,-8.8582 m 0,0 -12.40157,0 m 0,0 0,8.8582 m 0,0 -3.54331,0 m 0,0 a 0.885827,0.885827 0 0 0 -0.88582,0.8859 m 0,0 0,13.1102 m 0,0 a 0.885827,0.885827 0 0 0 0.88582,0.8858 m 0,0 3.54331,0 m 0,0 0,13.4646 m -20.37402,0 20.37402,0 m -20.37402,-184.252 0,184.252 m 10.62993,-194.8819 a 10.629921,10.629921 0 0 0 -10.62993,10.6299 m 255.11811,-10.6299 -244.48818,0 m 255.11811,10.6299 a 10.629921,10.629921 0 0 0 -10.62993,-10.6299 m 10.62993,10.6299 0,184.252 m 0,0 -20.37402,0 m 0,-13.4646 0,13.4646 m 3.54331,-13.4646 -3.54331,0 m -52.08661,-160.1574 a 5.49213,5.49213 0 1 0 -10.98426,0 5.49213,5.49213 0 0 0 10.98426,0 z m 0,109.8425 a 5.49213,5.49213 0 1 0 -10.98426,0 5.49213,5.49213 0 0 0 10.98426,0 z m 63.95669,-60.5906 -36.14173,0 m 36.14173,-36.1417 0,36.1417 m -36.14173,-36.1417 36.14173,0 m -36.14173,36.1417 0,-36.1417 m 0,85.0393 36.14173,0 m -36.14173,36.1418 0,-36.1418 m 36.14173,36.1418 -36.14173,0 m 36.14173,-36.1418 0,36.1418 m -12.57874,-60.5906 a 5.492126,5.492126 0 1 0 -10.98425,0 5.492126,5.492126 0 1 0 10.98425,0 z m -212.59843,0 a 5.492126,5.492126 0 1 0 -10.98425,0 5.492126,5.492126 0 1 0 10.98425,0 z m 51.37796,-73.7007 a 5.49213,5.49213 0 1 0 -10.98426,0 5.49213,5.49213 0 0 0 10.98426,0 z m 0,109.8425 a 5.49213,5.49213 0 1 0 -10.98426,0 5.49213,5.49213 0 0 0 10.98426,0 z m -74.94095,-96.7323 0,36.1417 m 0,0 36.14173,0 m 0,0 0,-36.1417 m 0,0 -36.14173,0 m 36.14173,121.1811 0,-36.1418 m 0,0 -36.14173,0 m 0,0 0,36.1418 m 0,0 36.14173,0 m 128.09056,-79.3701 a 39.86221,39.86221 0 1 0 -79.72442,0 39.86221,39.86221 0 0 0 79.72442,0 z m -25.68898,62.0079 a 14.17323,14.17323 0 1 0 -28.34646,0 14.17323,14.17323 0 0 0 28.34646,0 z m -350.28611,34.3434 a 0.885827,0.885827 0 0 0 -0.88582,-0.8858 m 0,0 -13.11024,0 m 0,0 a 0.885827,0.885827 0 0 0 -0.88583,0.8858 m 0,0 0,3.5434 m 0,0 -8.85826,0 m 0,0 0,12.4015 m 0,0 8.85826,0 m 0,0 0,3.5433 m 0,0 a 0.885827,0.885827 0 0 0 0.88583,0.8859 m 0,0 13.11024,0 m 0,0 a 0.885827,0.885827 0 0 0 0.88582,-0.8859 m 0,0 0,-3.5433 m 0,0 13.46457,0 m 0,18.6024 0,-18.6024 m 35.43307,18.6024 -35.43307,0 m 35.43307,35.4331 0,-35.4331 m -35.43307,35.4331 35.43307,0 m -35.43307,39.685 0,-39.685 m -49.6063,39.685 49.6063,0 m -49.6063,35.4331 0,-35.4331 m -35.43307,35.4331 35.43307,0 m -35.43307,-35.4331 0,35.4331 m -35.43307,-35.4331 35.43307,0 m -35.43307,-35.4331 0,35.4331 m 120.47244,-194.8819 -120.47244,159.4488 m 120.47244,-124.7244 0,-34.7244 m 35.43307,34.7244 -35.43307,0 m 35.43307,35.4331 0,-35.4331 m -35.43307,35.4331 35.43307,0 m -35.43307,18.6024 0,-18.6024 m 0,18.6024 -13.46457,0 m 0,0 0,-3.5434 m 0,260 a 0.885827,0.885827 0 0 0 -0.88582,-0.8858 m 0,0 -13.11024,0 m 0,0 a 0.885827,0.885827 0 0 0 -0.88583,0.8858 m 0,0 0,3.5434 m 0,0 -8.85826,0 m 0,0 0,12.4015 m 0,0 8.85826,0 m 0,0 0,3.5433 m 0,0 a 0.885827,0.885827 0 0 0 0.88583,0.8859 m 0,0 13.11024,0 m 0,0 a 0.885827,0.885827 0 0 0 0.88582,-0.8859 m 0,0 0,-3.5433 m 0,0 13.46457,0 m 0,18.6024 0,-18.6024 m 35.43307,18.6024 -35.43307,0 m 35.43307,35.4331 0,-35.4331 m -35.43307,35.4331 35.43307,0 m -35.43307,39.685 0,-39.685 m -49.6063,39.685 49.6063,0 m -49.6063,35.4331 0,-35.4331 m -35.43307,35.4331 35.43307,0 m -35.43307,-35.4331 0,35.4331 m -35.43307,-35.4331 35.43307,0 m -35.43307,-35.4331 0,35.4331 m 120.47244,-194.8819 -120.47244,159.4488 m 120.47244,-124.7244 0,-34.7244 m 35.43307,34.7244 -35.43307,0 m 35.43307,35.4331 0,-35.4331 m -35.43307,35.4331 35.43307,0 m -35.43307,18.6024 0,-18.6024 m 0,18.6024 -13.46457,0 m 0,0 0,-3.5434 m 0,260 a 0.885827,0.885827 0 0 0 -0.88582,-0.8858 m 0,0 -13.11024,0 m 0,0 a 0.885827,0.885827 0 0 0 -0.88583,0.8858 m 0,0 0,3.5434 m 0,0 -8.85826,0 m 0,0 0,12.4015 m 0,0 8.85826,0 m 0,0 0,3.5433 m 0,0 a 0.885827,0.885827 0 0 0 0.88583,0.8859 m 0,0 13.11024,0 m 0,0 a 0.885827,0.885827 0 0 0 0.88582,-0.8859 m 0,0 0,-3.5433 m 0,0 13.46457,0 m 0,18.6024 0,-18.6024 m 35.43307,18.6024 -35.43307,0 m 35.43307,35.4331 0,-35.4331 m -35.43307,35.4331 35.43307,0 m -35.43307,39.685 0,-39.685 m -49.6063,39.685 49.6063,0 m -49.6063,35.4331 0,-35.4331 m -35.43307,35.4331 35.43307,0 m -35.43307,-35.4331 0,35.4331 m -35.43307,-35.4331 35.43307,0 m -35.43307,-35.4331 0,35.4331 m 120.47244,-194.8819 -120.47244,159.4488 m 120.47244,-124.7244 0,-34.7244 m 35.43307,34.7244 -35.43307,0 m 35.43307,35.4331 0,-35.4331 m -35.43307,35.4331 35.43307,0 m -35.43307,18.6024 0,-18.6024 m 0,18.6024 -13.46457,0 m 0,0 0,-3.5434 m 0,256.1033 a 0.885827,0.885827 0 0 0 -0.88582,-0.8859 m 0,0 -13.11024,0 m 0,0 a 0.885827,0.885827 0 0 0 -0.88583,0.8859 m 0,0 0,3.5433 m 0,0 -8.85826,0 m 0,0 0,12.4015 m 0,0 8.85826,0 m 0,0 0,3.5433 m 0,0 a 0.885827,0.885827 0 0 0 0.88583,0.8859 m 0,0 13.11024,0 m 0,0 a 0.885827,0.885827 0 0 0 0.88582,-0.8859 m 0,0 0,-3.5433 m 0,0 13.46457,0 m 0,18.6024 0,-18.6024 m 35.43307,18.6024 -35.43307,0 m 35.43307,35.4331 0,-35.4331 m -35.43307,35.4331 35.43307,0 m -35.43307,39.685 0,-39.685 m -49.6063,39.685 49.6063,0 m -49.6063,35.4331 0,-35.4331 m -35.43307,35.4331 35.43307,0 m -35.43307,-35.4331 0,35.4331 m -35.43307,-35.4331 35.43307,0 m -35.43307,-35.4331 0,35.4331 m 120.47244,-194.8819 -120.47244,159.4488 m 120.47244,-124.7244 0,-34.7244 m 35.43307,34.7244 -35.43307,0 m 35.43307,35.4331 0,-35.4331 m -35.43307,35.4331 35.43307,0 m -35.43307,18.6024 0,-18.6024 m 0,18.6024 -13.46457,0 m 0,0 0,-3.5434 m 1365.23622,-53.3266 0,7.0866 m 0,-7.0866 -83.49275,0 m -13.72317,0 a 14.173228,14.173228 0 1 0 13.72317,0 m -13.72317,0 -517.77289,0 m -13.72317,0 a 14.173228,14.173228 0 1 0 13.72317,0 m -13.72317,0 -83.49275,0 m 0,7.0866 0,-7.0866 m -28.34646,7.0866 a 14.17323,14.17323 0 0 0 28.34646,0 m -28.34646,-7.0866 0,7.0866 m 0,-7.0866 -278.1496,0 m 0,0 0,54.0354 m 13.46457,0 -13.46457,0 m 13.46457,-3.5433 0,3.5433 m 0.88582,-4.4291 a 0.885827,0.885827 0 0 0 -0.88582,0.8858 m 13.99606,-0.8858 -13.11024,0 m 13.99607,0.8858 a 0.885827,0.885827 0 0 0 -0.88583,-0.8858 m 0.88583,4.4291 0,-3.5433 m 8.85826,3.5433 -8.85826,0 m 8.85826,12.4016 0,-12.4016 m -8.85826,12.4016 8.85826,0 m -8.85826,3.5433 0,-3.5433 m -0.88583,4.4291 a 0.885827,0.885827 0 0 0 0.88583,-0.8858 m -13.99607,0.8858 13.11024,0 m -13.99606,-0.8858 a 0.885827,0.885827 0 0 0 0.88582,0.8858 m -0.88582,-4.4291 0,3.5433 m -13.46457,-3.5433 13.46457,0 m -13.46457,0 0,18.6024 m 0,0 -35.43307,0 m 0,0 0,35.433 m 0,0 35.43307,0 m 0,0 0,18.6024 m 13.46457,0 -13.46457,0 m 13.46457,-3.5433 0,3.5433 m 0.88582,-4.4291 a 0.885827,0.885827 0 0 0 -0.88582,0.8858 m 13.99606,-0.8858 -13.11024,0 m 13.99607,0.8858 a 0.885827,0.885827 0 0 0 -0.88583,-0.8858 m 0.88583,4.4291 0,-3.5433 m 8.85826,3.5433 -8.85826,0 m 8.85826,12.4016 0,-12.4016 m -8.85826,12.4016 8.85826,0 m -8.85826,3.5433 0,-3.5433 m -0.88583,4.4291 a 0.885827,0.885827 0 0 0 0.88583,-0.8858 m -13.99607,0.8858 13.11024,0 m -13.99606,-0.8858 a 0.885827,0.885827 0 0 0 0.88582,0.8858 m -0.88582,-4.4291 0,3.5433 m -13.46457,-3.5433 13.46457,0 m -13.46457,0 0,18.6023 m 0,0 -35.43307,0 m 0,0 0,35.4331 m 0,0 35.43307,0 m 0,0 0,14.1732 m 0,0 1311.02362,0 m 0,-14.1732 0,14.1732 m 35.43307,-14.1732 -35.43307,0 m 35.43307,-35.4331 0,35.4331 m -35.43307,-35.4331 35.43307,0 m -35.43307,-18.6023 0,18.6023 m 0,-18.6023 -13.46457,0 m 0,0 0,3.5433 m -0.88582,0.8858 a 0.885827,0.885827 0 0 0 0.88582,-0.8858 m -0.88582,0.8858 -13.11024,0 m -0.88583,-0.8858 a 0.885827,0.885827 0 0 0 0.88583,0.8858 m -0.88583,-0.8858 0,-3.5433 m 0,0 -8.85826,0 m 0,0 0,-12.4016 m 0,0 8.85826,0 m 0,0 0,-3.5433 m 0.88583,-0.8858 a 0.885827,0.885827 0 0 0 -0.88583,0.8858 m 0.88583,-0.8858 13.11024,0 m 0.88582,0.8858 a 0.885827,0.885827 0 0 0 -0.88582,-0.8858 m 0.88582,0.8858 0,3.5433 m 0,0 13.46457,0 m 0,-18.6024 0,18.6024 m 35.43307,-18.6024 -35.43307,0 m 35.43307,-35.433 0,35.433 m -35.43307,-35.433 35.43307,0 m -35.43307,-18.6024 0,18.6024 m 0,-18.6024 -13.46457,0 m 0,0 0,3.5433 m -0.88582,0.8858 a 0.885827,0.885827 0 0 0 0.88582,-0.8858 m -0.88582,0.8858 -13.11024,0 m -0.88583,-0.8858 a 0.885827,0.885827 0 0 0 0.88583,0.8858 m -0.88583,-0.8858 0,-3.5433 m 0,0 -8.85826,0 m 0,0 0,-12.4016 m 0,0 8.85826,0 m 0,0 0,-3.5433 m 0.88583,-0.8858 a 0.885827,0.885827 0 0 0 -0.88583,0.8858 m 0.88583,-0.8858 13.11024,0 m 0.88582,0.8858 a 0.885827,0.885827 0 0 0 -0.88582,-0.8858 m 0.88582,0.8858 0,3.5433 m 0,0 13.46457,0 m 0,-54.0354 0,54.0354 m 0,-54.0354 -263.97638,0 m 0,7.0866 0,-7.0866 m -28.34645,7.0866 a 14.173228,14.173228 0 0 0 28.34645,0 m -680.13779,8.8583 a 5.492126,5.492126 0 1 0 -10.98425,0 5.492126,5.492126 0 1 0 10.98425,0 z m 70.86614,0 a 5.492126,5.492126 0 1 0 -10.98425,0 5.492126,5.492126 0 1 0 10.98425,0 z m 460.62992,0 a 5.492126,5.492126 0 1 0 -10.98425,0 5.492126,5.492126 0 1 0 10.98425,0 z m 70.86614,0 a 5.492126,5.492126 0 1 0 -10.98425,0 5.492126,5.492126 0 1 0 10.98425,0 z m -307.02756,1.4173 0,36.1417 m 36.14174,-36.1417 -36.14174,0 m 36.14174,36.1417 0,-36.1417 m -36.14174,36.1417 36.14174,0 m -36.14174,70.1575 0,36.1418 m 36.14174,-36.1418 -36.14174,0 m 36.14174,36.1418 0,-36.1418 m -36.14174,36.1418 36.14174,0 m -12.57874,-71.2205 a 5.49213,5.49213 0 1 0 -10.98426,0 5.49213,5.49213 0 0 0 10.98426,0 z m -173.26772,-26.0433 0,36.1417 m 16.65354,-36.1417 -16.65354,0 m 16.65354,36.1417 0,-36.1417 m -16.65354,36.1417 16.65354,0 m -16.65354,70.1575 0,36.1417 m 16.65354,-36.1417 -16.65354,0 m 16.65354,36.1417 0,-36.1417 m -16.65354,36.1417 16.65354,0 m -2.83464,-71.2205 a 5.492126,5.492126 0 1 0 -10.98425,0 5.492126,5.492126 0 1 0 10.98425,0 z m -159.44882,120.6102 a 5.492126,5.492126 0 1 0 -10.98425,0 5.492126,5.492126 0 1 0 10.98425,0 z m 70.86614,0 a 5.492126,5.492126 0 1 0 -10.98425,0 5.492126,5.492126 0 1 0 10.98425,0 z m 460.62992,0 a 5.492126,5.492126 0 1 0 -10.98425,0 5.492126,5.492126 0 1 0 10.98425,0 z m -283.46457,58.4646 a 5.492126,5.492126 0 1 0 -10.98425,0 5.492126,5.492126 0 1 0 10.98425,0 z m 106.29922,0 a 5.49213,5.49213 0 1 0 -10.98426,0 5.49213,5.49213 0 0 0 10.98426,0 z m 250.86614,-54.9213 0,-7.0866 m 0,0 -2.87541,2.8754 m 0,0 a 5.492126,5.492126 0 1 0 0,1.3358 m 0,0 2.87541,2.8754 m -295.33465,-19.4882 244.71322,0 m 0,0 a 14.173228,14.173228 0 1 0 13.72317,0 m 0,0 83.49275,0 m 0,0 0,7.0866 m 0,0 a 14.173228,14.173228 0 0 0 28.34645,0 m 0,0 0,-7.0866 m 0,0 263.97638,0 m 0,54.0355 0,-54.0355 m -13.46457,54.0355 13.46457,0 m -13.46457,-3.5433 0,3.5433 m 0,-3.5433 a 0.885827,0.885827 0 0 0 -0.88582,-0.8859 m -13.11024,0 13.11024,0 m -13.11024,0 a 0.885827,0.885827 0 0 0 -0.88583,0.8859 m 0,3.5433 0,-3.5433 m -8.85826,3.5433 8.85826,0 m -8.85826,12.4015 0,-12.4015 m 8.85826,12.4015 -8.85826,0 m 8.85826,3.5433 0,-3.5433 m 0,3.5433 a 0.885827,0.885827 0 0 0 0.88583,0.8859 m 13.11024,0 -13.11024,0 m 13.11024,0 a 0.885827,0.885827 0 0 0 0.88582,-0.8859 m 0,-3.5433 0,3.5433 m 13.46457,-3.5433 -13.46457,0 m 13.46457,18.6024 0,-18.6024 m 35.43307,18.6024 -35.43307,0 m 35.43307,35.4331 0,-35.4331 m -35.43307,35.4331 35.43307,0 m -35.43307,0 0,18.6023 m -13.46457,0 13.46457,0 m -13.46457,-3.5433 0,3.5433 m 0,-3.5433 a 0.885827,0.885827 0 0 0 -0.88582,-0.8858 m -13.11024,0 13.11024,0 m -13.11024,0 a 0.885827,0.885827 0 0 0 -0.88583,0.8858 m 0,3.5433 0,-3.5433 m -8.85826,3.5433 8.85826,0 m -8.85826,12.4016 0,-12.4016 m 8.85826,12.4016 -8.85826,0 m 8.85826,3.5433 0,-3.5433 m 0,3.5433 a 0.885827,0.885827 0 0 0 0.88583,0.8858 m 13.11024,0 -13.11024,0 m 13.11024,0 a 0.885827,0.885827 0 0 0 0.88582,-0.8858 m 0,-3.5433 0,3.5433 m 13.46457,-3.5433 -13.46457,0 m 13.46457,0 0,25.689 m -1311.02362,0 1311.02362,0 m -1311.02362,-25.689 0,25.689 m 0,-25.689 13.46457,0 m 0,0 0,3.5433 m 0,0 a 0.885827,0.885827 0 0 0 0.88582,0.8858 m 0,0 13.11024,0 m 0,0 a 0.885827,0.885827 0 0 0 0.88583,-0.8858 m 0,0 0,-3.5433 m 0,0 8.85826,0 m 0,0 0,-12.4016 m 0,0 -8.85826,0 m 0,0 0,-3.5433 m 0,0 a 0.885827,0.885827 0 0 0 -0.88583,-0.8858 m 0,0 -13.11024,0 m 0,0 a 0.885827,0.885827 0 0 0 -0.88582,0.8858 m 0,0 0,3.5433 m 0,0 -13.46457,0 m 0,-18.6023 0,18.6023 m 0,-18.6023 -35.43307,0 m 0,0 0,-35.4331 m 0,0 35.43307,0 m 0,0 0,-18.6024 m 0,0 13.46457,0 m 0,0 0,3.5433 m 0,0 a 0.885827,0.885827 0 0 0 0.88582,0.8859 m 0,0 13.11024,0 m 0,0 a 0.885827,0.885827 0 0 0 0.88583,-0.8859 m 0,0 0,-3.5433 m 0,0 8.85826,0 m 0,0 0,-12.4015 m 0,0 -8.85826,0 m 0,0 0,-3.5433 m 0,0 a 0.885827,0.885827 0 0 0 -0.88583,-0.8859 m 0,0 -13.11024,0 m 0,0 a 0.885827,0.885827 0 0 0 -0.88582,0.8859 m 0,0 0,3.5433 m 0,0 -13.46457,0 m 0,0 0,-54.0355 m 0,0 278.1496,0 m 0,0 0,7.0866 m 0,0 a 14.17323,14.17323 0 0 0 28.34646,0 m 0,0 0,-7.0866 m 0,0 83.49275,0 m 0,0 a 14.173228,14.173228 0 1 0 13.72317,0 m 0,0 244.71322,0 m 0,0 0,7.0866 m 0,0 a 14.173229,14.173229 0 0 0 28.34645,0 m 0,0 0,-7.0866 m -322.44094,-1769.13379 0,-25.6889 m 35.43307,25.6889 -35.43307,0 m 35.43307,35.4331 0,-35.4331 m -35.43307,35.4331 35.43307,0 m -35.43307,17.7165 0,-17.7165 m -50.49213,17.7165 50.49213,0 m -50.49213,0 0,-13.4645 m 0,0 3.54331,0 m 0,0 a 0.885827,0.885827 0 0 0 0.88583,-0.8859 m 0,0 0,-13.1102 m 0,0 a 0.885827,0.885827 0 0 0 -0.88583,-0.8858 m 0,0 -3.54331,0 m 0,0 0,-8.8583 m 0,0 -12.40157,0 m 0,0 0,8.8583 m 0,0 -3.54331,0 m 0,0 a 0.885827,0.885827 0 0 0 -0.88582,0.8858 m 0,0 0,13.1102 m 0,0 a 0.885827,0.885827 0 0 0 0.88582,0.8859 m 0,0 3.54331,0 m 0,0 0,13.4645 m -1185.23622,0 1185.23622,0 m -1185.23622,-13.4645 0,13.4645 m 3.5433,-13.4645 -3.5433,0 m 3.5433,0 a 0.885827,0.885827 0 0 0 0.8858,-0.8859 m 0,-13.1102 0,13.1102 m 0,-13.1102 a 0.885827,0.885827 0 0 0 -0.8858,-0.8858 m -3.5433,0 3.5433,0 m -3.5433,-8.8583 0,8.8583 m -12.4016,-8.8583 12.4016,0 m -12.4016,8.8583 0,-8.8583 m -3.5433,8.8583 3.5433,0 m -3.5433,0 a 0.885827,0.885827 0 0 0 -0.8858,0.8858 m 0,13.1102 0,-13.1102 m 0,13.1102 a 0.885827,0.885827 0 0 0 0.8858,0.8859 m 3.5433,0 -3.5433,0 m 3.5433,13.4645 0,-13.4645 m -50.4921,13.4645 50.4921,0 m -50.4921,0 0,-17.7165 m 0,0 -35.4331,0 m 0,0 0,-35.4331 m 0,0 35.4331,0 m 0,0 0,-25.6889 m 13.4646,0 -13.4646,0 m 13.4646,3.5433 0,-3.5433 m 0,3.5433 a 0.885827,0.885827 0 0 0 0.8858,0.8858 m 13.1102,0 -13.1102,0 m 13.1102,0 a 0.885827,0.885827 0 0 0 0.8859,-0.8858 m 0,-3.5433 0,3.5433 m 8.8582,-3.5433 -8.8582,0 m 8.8582,-12.4016 0,12.4016 m -8.8582,-12.4016 8.8582,0 m -8.8582,-3.5433 0,3.5433 m 0,-3.5433 a 0.885827,0.885827 0 0 0 -0.8859,-0.8859 m -13.1102,0 13.1102,0 m -13.1102,0 a 0.885827,0.885827 0 0 0 -0.8858,0.8859 m 0,3.5433 0,-3.5433 m -13.4646,3.5433 13.4646,0 m -13.4646,0 0,-36.31892 m 0,0 230.315,0 m 0,0 106.2992,-106.29922 m 0,0 637.79525,0 m 0,0 106.29921,106.29922 m 0,0 230.31496,0 m 0,36.31892 0,-36.31892 m 0,36.31892 -13.46457,0 m 0,0 0,-3.5433 m 0,0 a 0.885827,0.885827 0 0 0 -0.88582,-0.8859 m 0,0 -13.11024,0 m 0,0 a 0.885827,0.885827 0 0 0 -0.88583,0.8859 m 0,0 0,3.5433 m 0,0 -8.85826,0 m 0,0 0,12.4016 m 0,0 8.85826,0 m 0,0 0,3.5433 m 0,0 a 0.885827,0.885827 0 0 0 0.88583,0.8858 m 0,0 13.11024,0 m 0,0 a 0.885827,0.885827 0 0 0 0.88582,-0.8858 m 0,0 0,-3.5433 m 0,0 13.46457,0 m -896.45672,-108.1302 a 23.0315,23.0315 0 1 0 -46.063,0 23.0315,23.0315 0 0 0 46.063,0 z m -3.5433,67.14566 a 19.4882,19.4882 0 1 0 -38.9764,0 19.4882,19.4882 0 0 0 38.9764,0 z m -31.8897,71.57484 a 3.543307,3.543307 0 0 0 3.5433,3.5433 m 17.7165,0 -17.7165,0 m 17.7165,0 a 3.543307,3.543307 0 0 0 3.5433,-3.5433 m 0,-17.7166 0,17.7166 m 0,-17.7166 a 3.543307,3.543307 0 0 0 -3.5433,-3.5433 m -17.7165,0 17.7165,0 m -17.7165,0 a 3.543307,3.543307 0 0 0 -3.5433,3.5433 m 0,17.7166 0,-17.7166 m 496.24011,-150.23619 a 5.492126,5.492126 0 1 0 -10.98425,0 5.492126,5.492126 0 1 0 10.98425,0 z m -513.77951,0 a 5.49215,5.49215 0 1 0 -10.9843,0 5.49215,5.49215 0 0 0 10.9843,0 z m 0,175.39369 a 5.49215,5.49215 0 1 0 -10.9843,0 5.49215,5.49215 0 0 0 10.9843,0 z m 513.77951,0 a 5.492126,5.492126 0 1 0 -10.98425,0 5.492126,5.492126 0 1 0 10.98425,0 z m -393.48425,4.4291 0,-145.27554 m 347.2441,145.27554 -347.2441,0 m 347.2441,-145.27554 0,145.27554 m -347.2441,-145.27554 347.2441,0 m -174.33071,-20.55119 0,-6.73228 m 143.1496,6.73228 -143.1496,0 m 143.1496,-6.73228 0,6.73228 m -143.1496,-6.73228 143.1496,0 m -797.95275,439.2522 0,25.6889 m -35.4331,-25.6889 35.4331,0 m -35.4331,-35.4331 0,35.4331 m 35.4331,-35.4331 -35.4331,0 m 35.4331,-17.7165 0,17.7165 m 50.4921,-17.7165 -50.4921,0 m 50.4921,0 0,13.4645 m 0,0 -3.5433,0 m 0,0 a 0.885827,0.885827 0 0 0 -0.8858,0.8859 m 0,0 0,13.1102 m 0,0 a 0.885827,0.885827 0 0 0 0.8858,0.8858 m 0,0 3.5433,0 m 0,0 0,8.8583 m 0,0 12.4016,0 m 0,0 0,-8.8583 m 0,0 3.5433,0 m 0,0 a 0.885827,0.885827 0 0 0 0.8858,-0.8858 m 0,0 0,-13.1102 m 0,0 a 0.885827,0.885827 0 0 0 -0.8858,-0.8859 m 0,0 -3.5433,0 m 0,0 0,-13.4645 m 1185.23622,0 -1185.23622,0 m 1185.23622,13.4645 0,-13.4645 m -3.54331,13.4645 3.54331,0 m -3.54331,0 a 0.885827,0.885827 0 0 0 -0.88582,0.8859 m 0,13.1102 0,-13.1102 m 0,13.1102 a 0.885827,0.885827 0 0 0 0.88582,0.8858 m 3.54331,0 -3.54331,0 m 3.54331,8.8583 0,-8.8583 m 12.40157,8.8583 -12.40157,0 m 12.40157,-8.8583 0,8.8583 m 3.54331,-8.8583 -3.54331,0 m 3.54331,0 a 0.885827,0.885827 0 0 0 0.88583,-0.8858 m 0,-13.1102 0,13.1102 m 0,-13.1102 a 0.885827,0.885827 0 0 0 -0.88583,-0.8859 m -3.54331,0 3.54331,0 m -3.54331,-13.4645 0,13.4645 m 50.49213,-13.4645 -50.49213,0 m 50.49213,0 0,17.7165 m 0,0 35.43307,0 m 0,0 0,35.4331 m 0,0 -35.43307,0 m 0,0 0,25.6889 m -13.46457,0 13.46457,0 m -13.46457,-3.5433 0,3.5433 m 0,-3.5433 a 0.885827,0.885827 0 0 0 -0.88582,-0.8858 m -13.11024,0 13.11024,0 m -13.11024,0 a 0.885827,0.885827 0 0 0 -0.88583,0.8858 m 0,3.5433 0,-3.5433 m -8.85826,3.5433 8.85826,0 m -8.85826,12.4016 0,-12.4016 m 8.85826,12.4016 -8.85826,0 m 8.85826,3.5433 0,-3.5433 m 0,3.5433 a 0.885827,0.885827 0 0 0 0.88583,0.8859 m 13.11024,0 -13.11024,0 m 13.11024,0 a 0.885827,0.885827 0 0 0 0.88582,-0.8859 m 0,-3.5433 0,3.5433 m 13.46457,-3.5433 -13.46457,0 m 13.46457,0 0,36.3189 m 0,0 -1311.02362,0 m 0,-36.3189 0,36.3189 m 0,-36.3189 13.4646,0 m 0,0 0,3.5433 m 0,0 a 0.885827,0.885827 0 0 0 0.8858,0.8859 m 0,0 13.1102,0 m 0,0 a 0.885827,0.885827 0 0 0 0.8859,-0.8859 m 0,0 0,-3.5433 m 0,0 8.8582,0 m 0,0 0,-12.4016 m 0,0 -8.8582,0 m 0,0 0,-3.5433 m 0,0 a 0.885827,0.885827 0 0 0 -0.8859,-0.8858 m 0,0 -13.1102,0 m 0,0 a 0.885827,0.885827 0 0 0 -0.8858,0.8858 m 0,0 0,3.5433 m 0,0 -13.4646,0 m 1249.01575,15.0591 a 7.086614,7.086614 0 0 0 7.08661,-7.0866 m 0,0 0,-24.8032 m 0,0 a 7.086614,7.086614 0 0 0 -7.08661,-7.0866 m 0,0 -63.77953,0 m 0,0 a 7.086614,7.086614 0 0 0 -7.08662,7.0866 m 0,0 0,24.8032 m 0,0 a 7.086614,7.086614 0 0 0 7.08662,7.0866 m 0,0 63.77953,0 m 62.00786,-171.85037 0,-25.6889 m 35.43307,25.6889 -35.43307,0 m 35.43307,35.4331 0,-35.4331 m -35.43307,35.4331 35.43307,0 m -35.43307,17.7165 0,-17.7165 m -50.49213,17.7165 50.49213,0 m -50.49213,0 0,-13.4645 m 0,0 3.54331,0 m 0,0 a 0.885827,0.885827 0 0 0 0.88583,-0.8859 m 0,0 0,-13.1102 m 0,0 a 0.885827,0.885827 0 0 0 -0.88583,-0.8858 m 0,0 -3.54331,0 m 0,0 0,-8.8583 m 0,0 -12.40157,0 m 0,0 0,8.8583 m 0,0 -3.54331,0 m 0,0 a 0.885827,0.885827 0 0 0 -0.88582,0.8858 m 0,0 0,13.1102 m 0,0 a 0.885827,0.885827 0 0 0 0.88582,0.8859 m 0,0 3.54331,0 m 0,0 0,13.4645 m -1185.23621,0 1185.23621,0 m -1185.23621,-13.4645 0,13.4645 m 3.5433,-13.4645 -3.5433,0 m 3.5433,0 a 0.885827,0.885827 0 0 0 0.8858,-0.8859 m 0,-13.1102 0,13.1102 m 0,-13.1102 a 0.885827,0.885827 0 0 0 -0.8858,-0.8858 m -3.5433,0 3.5433,0 m -3.5433,-8.8583 0,8.8583 m -12.4016,-8.8583 12.4016,0 m -12.4016,8.8583 0,-8.8583 m -3.5433,8.8583 3.5433,0 m -3.5433,0 a 0.885827,0.885827 0 0 0 -0.8858,0.8858 m 0,13.1102 0,-13.1102 m 0,13.1102 a 0.885827,0.885827 0 0 0 0.8858,0.8859 m 3.5433,0 -3.5433,0 m 3.5433,13.4645 0,-13.4645 m -50.4921,13.4645 50.4921,0 m -50.4921,0 0,-17.7165 m 0,0 -35.4331,0 m 0,0 0,-35.4331 m 0,0 35.4331,0 m 0,0 0,-25.6889 m 13.4646,0 -13.4646,0 m 13.4646,3.5433 0,-3.5433 m 0,3.5433 a 0.885827,0.885827 0 0 0 0.8858,0.8858 m 13.1102,0 -13.1102,0 m 13.1102,0 a 0.885827,0.885827 0 0 0 0.8858,-0.8858 m 0,-3.5433 0,3.5433 m 8.8583,-3.5433 -8.8583,0 m 8.8583,-12.4016 0,12.4016 m -8.8583,-12.4016 8.8583,0 m -8.8583,-3.5433 0,3.5433 m 0,-3.5433 a 0.885827,0.885827 0 0 0 -0.8858,-0.8859 m -13.1102,0 13.1102,0 m -13.1102,0 a 0.885827,0.885827 0 0 0 -0.8858,0.8859 m 0,3.5433 0,-3.5433 m -13.4646,3.5433 13.4646,0 m -13.4646,0 0,-36.31892 m 0,0 1311.02361,0 m 0,36.31892 0,-36.31892 m 0,36.31892 -13.46457,0 m 0,0 0,-3.5433 m 0,0 a 0.885827,0.885827 0 0 0 -0.88582,-0.8859 m 0,0 -13.11024,0 m 0,0 a 0.885827,0.885827 0 0 0 -0.88583,0.8859 m 0,0 0,3.5433 m 0,0 -8.85826,0 m 0,0 0,12.4016 m 0,0 8.85826,0 m 0,0 0,3.5433 m 0,0 a 0.885827,0.885827 0 0 0 0.88583,0.8858 m 0,0 13.11024,0 m 0,0 a 0.885827,0.885827 0 0 0 0.88582,-0.8858 m 0,0 0,-3.5433 m 0,0 13.46457,0 m 645.23538,816.28547 a 5.492126,5.492126 0 0 0 10.98425,0 m 0,-24.8032 0,24.8032 m 0,-24.8032 a 5.492126,5.492126 0 0 0 -0.10385,-1.063 m 0,0 a 5.492126,5.492126 0 1 0 -10.77655,0 m 0,0 a 5.492126,5.492126 0 0 0 -0.10385,1.063 m 0,24.8032 0,-24.8032 m 0,-267.5197 0,-24.8031 m 0,24.8031 a 5.492126,5.492126 0 0 0 10.98425,0 m 0,-24.8031 0,24.8031 m 0,-24.8031 a 5.492126,5.492126 0 0 0 -10.98425,0 m -946.41727,653.4744 476.57475,0 m 0,0 0,-469.2093 m 0,0 -86.81102,0 m 0,0 -389.76373,368.2596 m 0,0 0,100.9497 m 568.70073,-7.0866 212.59843,0 m 0,0 0,-1146.79143 m 0,0 -212.59843,0 m 0,0 0,1146.79143 m 615.11811,159.0944 -36.14173,0 m 0,0 0,36.1418 m 0,0 36.14173,0 m 0,0 0,-36.1418 m 0,-85.0393 -36.14173,0 m 0,0 0,36.1417 m 0,0 36.14173,0 m 0,0 0,-36.1417 m -12.57874,60.5905 a 5.492126,5.492126 0 1 0 -10.98425,0 5.492126,5.492126 0 1 0 10.98425,0 z m 0,-85.0393 a 5.492126,5.492126 0 1 0 -10.98425,0 5.492126,5.492126 0 1 0 10.98425,0 z m -1226.6929,60.5905 36.1417,0 m 0,0 0,-36.1417 m 0,0 -36.1417,0 m 0,0 0,36.1417 m 23.563,24.4488 a 5.49215,5.49215 0 1 0 -10.9843,0 5.49215,5.49215 0 0 0 10.9843,0 z m 0,-85.0393 a 5.49215,5.49215 0 1 0 -10.9843,0 5.49215,5.49215 0 0 0 10.9843,0 z m 606.08266,-6.7323 a 5.492126,5.492126 0 1 0 -10.98425,0 5.492126,5.492126 0 1 0 10.98425,0 z m 48.01181,-1271.51583 -36.14173,0 m 0,0 0,36.1418 m 0,0 36.14173,0 m 0,0 0,-36.1418 m 141.73228,0 -36.14173,0 m 0,0 0,36.1418 m 0,0 36.14173,0 m 0,0 0,-36.1418 m -154.31102,-31.5354 a 5.492126,5.492126 0 1 0 -10.98425,0 5.492126,5.492126 0 1 0 10.98425,0 z m 141.73228,0 a 5.492126,5.492126 0 1 0 -10.98425,0 5.492126,5.492126 0 1 0 10.98425,0 z M 369.3078,2038.2984 a 5.492126,5.492126 0 1 0 -10.98425,0 5.492126,5.492126 0 1 0 10.98425,0 z m -164.58661,-18.0709 -36.14173,0 m 0,0 0,36.1417 m 0,0 36.14173,0 m 0,0 0,-36.1417 m 141.73228,0 -36.14173,0 m 0,0 0,36.1417 m 0,0 36.14173,0 m 0,0 0,-36.1417 m -177.16535,85.0394 -36.14173,0 m 0,0 0,36.1417 m 0,0 36.14173,0 m 0,0 0,-36.1417 m 212.59842,0 -36.14173,0 m 0,0 0,36.1417 m 0,0 36.14173,0 m 0,0 0,-36.1417 m 282.22441,24.8031 a 44.291339,44.291339 0 1 0 -88.58267,0 44.291339,44.291339 0 1 0 88.58267,0 z m 0,-832.0571 -88.58267,0 m 0,0 0,354.3308 m 0,0 88.58267,0 m 0,0 0,-354.3308 m 35.61024,51.0237 0,24.8031 m 0,0 a 5.492126,5.492126 0 0 0 10.98425,0 m 0,0 0,-24.8031 m 0,0 a 5.492126,5.492126 0 0 0 -10.98425,0 m 0,292.3228 0,24.8032 m 0,0 a 5.492126,5.492126 0 0 0 10.98425,0 m 0,0 0,-24.8032 m 0,0 a 5.492126,5.492126 0 0 0 -0.10385,-1.063 m 0,0 a 5.492126,5.492126 0 1 0 -10.77655,0 m 0,0 a 5.492126,5.492126 0 0 0 -0.10385,1.063 m 0,-522.2835 a 5.492126,5.492126 0 1 0 -10.98425,0 5.492126,5.492126 0 1 0 10.98425,0 z m -148.8189,0 a 5.492126,5.492126 0 1 0 -10.98425,0 5.492126,5.492126 0 1 0 10.98425,0 z m 148.8189,712.2048 a 5.492126,5.492126 0 1 0 -10.98425,0 5.492126,5.492126 0 1 0 10.98425,0 z m -148.8189,0 a 5.492126,5.492126 0 1 0 -10.98425,0 5.492126,5.492126 0 1 0 10.98425,0 z M 446.37473,1602.8899 a 5.492126,5.492126 0 1 0 0,-10.8287 m 0,0 a 5.492126,5.492126 0 1 0 0,10.8287 m 4.57087,-356.3081 a 5.492126,5.492126 0 1 0 -10.98425,0 5.492126,5.492126 0 1 0 10.98425,0 z m 328.96063,22.9607 a 5.492126,5.492126 0 1 0 -10.98425,0 5.492126,5.492126 0 1 0 10.98425,0 z m 13.35827,333.3474 a 5.492126,5.492126 0 1 0 0,-10.8287 m 0,0 a 5.492126,5.492126 0 1 0 0,10.8287 m 6.41338,-356.3081 a 5.492126,5.492126 0 1 0 -10.98425,0 5.492126,5.492126 0 0 0 10.98425,0 z m -328.96063,22.9607 a 5.492126,5.492126 0 1 0 -10.98425,0 5.492126,5.492126 0 1 0 10.98425,0 z M 712.12276,786.00507 a 5.492127,5.492127 0 1 0 -10.98425,0 5.492127,5.492127 0 1 0 10.98425,0 z m -173.62204,0 a 5.492126,5.492126 0 1 0 -10.98425,0 5.492126,5.492126 0 1 0 10.98425,0 z m 0,205.5118 a 5.492126,5.492126 0 1 0 -10.98425,0 5.492126,5.492126 0 1 0 10.98425,0 z m 173.62204,0 a 5.492127,5.492127 0 1 0 -10.98425,0 5.492127,5.492127 0 1 0 10.98425,0 z m 126.49607,-273.4547 34.47242,0 m 2.7323,19.4881 a 70.866142,70.866142 0 0 0 -2.7323,-19.4881 m 2.7323,1507.67713 0,-1488.18903 m -729.65729,1488.18903 729.65729,0 m -822.04724,-124.0157 92.38995,124.0157 m -322.70494,-124.0157 230.31499,0 m -287.00789,124.0157 56.6929,-124.0157 m -240.9448,124.0157 184.2519,0 m -308.2677,-106.2992 124.0158,106.2992 m -124.0158,-311.811 0,205.5118 m 513.77953,-690.9449 -513.77953,485.4331 m 513.77953,-1176.37803 0,690.94493 M 43.14639,666.68417 a 70.866142,70.866142 0 0 0 -70.86614,70.8661 m 832.67716,-70.8661 -761.81102,0 m 810.61999,19.4882 a 70.866142,70.866142 0 0 0 -48.80897,-19.4882 m 48.80897,19.4882 -31.09244,0 m 0,0 a 15.944882,15.944882 0 0 0 -15.94488,15.9449 m 0,0 0,53.1496 m 0,0 a 15.944885,15.944885 0 0 0 31.88977,0 m 0,0 0,-37.2047 m -1008.07003,611.05063 -476.57476,0 m 0,0 0,469.2093 m 0,0 86.81102,0 m 0,0 389.76374,-368.2596 m 0,0 0,-100.9497 m -568.70074,7.0866 -212.59843,0 m 0,0 0,1146.7914 m 0,0 212.59843,0 m 0,0 0,-1146.7914 m -615.11816,-159.0944 36.1418,0 m 0,0 0,-36.1418 m 0,0 -36.1418,0 m 0,0 0,36.1418 m 0,85.0393 36.1418,0 m 0,0 0,-36.1417 m 0,0 -36.1418,0 m 0,0 0,36.1417 m 12.5788,-60.5905 a 5.492126,5.492126 0 1 0 10.9842,0 5.492126,5.492126 0 1 0 -10.9842,0 z m 0,85.0393 a 5.492126,5.492126 0 1 0 10.9842,0 5.492126,5.492126 0 1 0 -10.9842,0 z m 1226.6929,-60.5905 -36.1417,0 m 0,0 0,36.1417 m 0,0 36.1417,0 m 0,0 0,-36.1417 m -23.563,-24.4488 a 5.49215,5.49215 0 0 0 10.9843,0 5.49215,5.49215 0 1 0 -10.9843,0 z m 0,85.0393 a 5.49215,5.49215 0 0 0 10.9843,0 5.49215,5.49215 0 1 0 -10.9843,0 z m -606.08267,6.7323 a 5.492126,5.492126 0 1 0 10.98425,0 5.492126,5.492126 0 1 0 -10.98425,0 z m -48.01181,1271.5158 36.14173,0 m 0,0 0,-36.1418 m 0,0 -36.14173,0 m 0,0 0,36.1418 m -141.73228,0 36.14173,0 m 0,0 0,-36.1418 m 0,0 -36.14173,0 m 0,0 0,36.1418 m 154.31102,31.5354 a 5.492126,5.492126 0 1 0 10.98425,0 5.492126,5.492126 0 1 0 -10.98425,0 z m -141.73228,0 a 5.492126,5.492126 0 1 0 10.98425,0 5.492126,5.492126 0 1 0 -10.98425,0 z m -35.43307,-1303.0512 a 5.492126,5.492126 0 1 0 10.98425,0 5.492126,5.492126 0 1 0 -10.98425,0 z m 164.58661,18.0709 36.14173,0 m 0,0 0,-36.1417 m 0,0 -36.14173,0 m 0,0 0,36.1417 m -141.73228,0 36.14173,0 m 0,0 0,-36.1417 m 0,0 -36.14173,0 m 0,0 0,36.1417 m 177.16535,-85.0394 36.14173,0 m 0,0 0,-36.1417 m 0,0 -36.14173,0 m 0,0 0,36.1417 m -212.59842,0 36.14173,0 m 0,0 0,-36.1417 m 0,0 -36.14173,0 m 0,0 0,36.1417 m -282.22437,-24.8031 a 44.291339,44.291339 0 1 0 88.5826,0 44.291339,44.291339 0 1 0 -88.5826,0 z m 207.1063,1021.624 a 5.492126,5.492126 0 1 0 10.9842,0 5.492126,5.492126 0 1 0 -10.9842,0 z m -336.6142,0 a 5.492126,5.492126 0 1 0 10.9842,0 5.492126,5.492126 0 1 0 -10.9842,0 z m 0,-627.1654 a 5.492126,5.492126 0 1 0 10.9842,0 5.492126,5.492126 0 1 0 -10.9842,0 z m 336.6142,0 a 5.492126,5.492126 0 1 0 10.9842,0 5.492126,5.492126 0 1 0 -10.9842,0 z m -381.6142,1017.5492 -34.4724,0 m -2.7323,-19.4881 a 70.866142,70.866142 0 0 0 2.7323,19.4881 m -2.7323,-1507.6771 0,1488.189 m 729.65725,-1488.189 -729.65725,0 m 822.0472,124.0157 -92.38995,-124.0157 m 322.70491,124.0157 -230.31496,0 m 287.0079,-124.0157 -56.69294,124.0157 m 240.94484,-124.0157 -184.2519,0 m 308.2677,106.2992 -124.0158,-106.2992 m 124.0158,311.811 0,-205.5118 m -513.77954,690.9449 513.77954,-485.4331 m -513.77954,1176.378 0,-690.9449 m -70.86614,761.811 a 70.866142,70.866142 0 0 0 70.86614,-70.8661 m -832.67716,70.8661 761.81102,0 m -810.62002,-19.4882 a 70.866142,70.866142 0 0 0 48.809,19.4882 m -48.809,-19.4882 31.0925,0 m 0,0 a 15.944882,15.944882 0 0 0 15.9448,-15.9449 m 0,0 0,-53.1496 m 0,0 a 15.944882,15.944882 0 0 0 -31.8897,0 m 0,0 0,37.2047" />
    </g>
  </g>
</svg>
