  0
SECTION
  2
HEADER
  9
$ACADVER
  1
AC1014
  9
$HANDSEED
  5
FFFF
  9
$MEASUREMENT
 70
     1
  0
ENDSEC
  0
SECTION
  2
TABLES
  0
TABLE
  2
VPORT
  5
8
330
0
100
AcDbSymbolTable
 70
     4
  0
VPORT
  5
2E
330
8
100
AcDbSymbolTableRecord
100
AcDbViewportTableRecord
  2
*ACTIVE
 70
     0
 10
0.0
 20
0.0
 11
1.0
 21
1.0
 12
210.0
 22
148.5
 13
0.0
 23
0.0
 14
10.0
 24
10.0
 15
10.0
 25
10.0
 16
0.0
 26
0.0
 36
1.0
 17
0.0
 27
0.0
 37
0.0
 40
341.0
 41
1.24
 42
50.0
 43
0.0
 44
0.0
 50
0.0
 51
0.0
 71
     0
 72
   100
 73
     1
 74
     3
 75
     0
 76
     0
 77
     0
 78
     0
  0
ENDTAB
  0
TABLE
  2
LTYPE
  5
5
330
0
100
AcDbSymbolTable
 70
     1
  0
LTYPE
  5
14
330
5
100
AcDbSymbolTableRecord
100
AcDbLinetypeTableRecord
  2
BYBLOCK
 70
     0
  3

 72
    65
 73
     0
 40
0.0
  0
LTYPE
  5
15
330
5
100
AcDbSymbolTableRecord
100
AcDbLinetypeTableRecord
  2
BYLAYER
 70
     0
  3

 72
    65
 73
     0
 40
0.0
  0
LTYPE
  5
16
330
5
100
AcDbSymbolTableRecord
100
AcDbLinetypeTableRecord
  2
CONTINUOUS
 70
     0
  3
Solid line
 72
    65
 73
     0
 40
0.0
  0
ENDTAB
  0
TABLE
  2
LAYER
  5
2
100
AcDbSymbolTable
 70
2
  0
LAYER
  5
50
100
AcDbSymbolTableRecord
100
AcDbLayerTableRecord
  2
0
 70
0
  6
CONTINUOUS
  0
LAYER
  5
51
100
AcDbSymbolTableRecord
100
AcDbLayerTableRecord
  2
Layer_1
 70
0
  6
CONTINUOUS
  0
ENDTAB
  0
TABLE
  2
STYLE
  5
3
330
0
100
AcDbSymbolTable
 70
     1
  0
STYLE
  5
11
330
3
100
AcDbSymbolTableRecord
100
AcDbTextStyleTableRecord
  2
STANDARD
 70
     0
 40
0.0
 41
1.0
 50
0.0
 71
     0
 42
2.5
  3
txt
  4

  0
ENDTAB
  0
TABLE
  2
VIEW
  5
6
330
0
100
AcDbSymbolTable
 70
     0
  0
ENDTAB
  0
TABLE
  2
UCS
  5
7
330
0
100
AcDbSymbolTable
 70
     0
  0
ENDTAB
  0
TABLE
  2
APPID
  5
9
330
0
100
AcDbSymbolTable
 70
     2
  0
APPID
  5
12
330
9
100
AcDbSymbolTableRecord
100
AcDbRegAppTableRecord
  2
ACAD
 70
     0
  0
ENDTAB
  0
TABLE
  2
DIMSTYLE
  5
A
330
0
100
AcDbSymbolTable
 70
     1
  0
DIMSTYLE
105
27
330
A
100
AcDbSymbolTableRecord
100
AcDbDimStyleTableRecord
  2
ISO-25
 70
     0
  3

  4

  5

  6

  7

 40
1.0
 41
2.5
 42
0.625
 43
3.75
 44
1.25
 45
0.0
 46
0.0
 47
0.0
 48
0.0
140
2.5
141
2.5
142
0.0
143
0.03937007874016
144
1.0
145
0.0
146
1.0
147
0.625
 71
     0
 72
     0
 73
     0
 74
     0
 75
     0
 76
     0
 77
     1
 78
     8
170
     0
171
     3
172
     1
173
     0
174
     0
175
     0
176
     0
177
     0
178
     0
270
     2
271
     2
272
     2
273
     2
274
     3
340
11
275
     0
280
     0
281
     0
282
     0
283
     0
284
     8
285
     0
286
     0
287
     3
288
     0
  0
ENDTAB
  0
TABLE
  2
BLOCK_RECORD
  5
1
330
0
100
AcDbSymbolTable
 70
     1
  0
BLOCK_RECORD
  5
1F
330
1
100
AcDbSymbolTableRecord
100
AcDbBlockTableRecord
  2
*MODEL_SPACE
  0
BLOCK_RECORD
  5
1B
330
1
100
AcDbSymbolTableRecord
100
AcDbBlockTableRecord
  2
*PAPER_SPACE
  0
ENDTAB
  0
ENDSEC
  0
SECTION
  2
BLOCKS
  0
BLOCK
  5
20
330
1F
100
AcDbEntity
  8
0
100
AcDbBlockBegin
  2
*MODEL_SPACE
 70
     0
 10
0.0
 20
0.0
 30
0.0
  3
*MODEL_SPACE
  1

  0
ENDBLK
  5
21
330
1F
100
AcDbEntity
  8
0
100
AcDbBlockEnd
  0
BLOCK
  5
1C
330
1B
100
AcDbEntity
 67
     1
  8
0
100
AcDbBlockBegin
  2
*PAPER_SPACE
  1

  0
ENDBLK
  5
1D
330
1B
100
AcDbEntity
 67
     1
  8
0
100
AcDbBlockEnd
  0
ENDSEC
  0
SECTION
  2
ENTITIES
  0
LINE
  5
100
100
AcDbEntity
  8
Layer_1
 62
7
100
AcDbLine
 10
126.071263
 20
116.479697
 30
0.0
 11
126.071263
 21
87.571560
 31
0.0
  0
SPLINE
  5
101
100
AcDbEntity
  8
Layer_1
 62
7
100
AcDbSpline
 70
8
 71
3
 72
8
 73
4
 74
0
 40
0
 40
0
 40
0
 40
0
 40
1
 40
1
 40
1
 40
1
 10
128.034147
 20
119.294729
 30
0.0
 10
126.854760
 20
118.860218
 30
0.0
 10
126.071262
 20
117.736580
 30
0.0
 10
126.071263
 20
116.479697
 30
0.0
  0
LINE
  5
102
100
AcDbEntity
  8
Layer_1
 62
7
100
AcDbLine
 10
164.071272
 20
132.571560
 30
0.0
 11
128.034147
 21
119.294729
 31
0.0
  0
LINE
  5
103
100
AcDbEntity
  8
Layer_1
 62
7
100
AcDbLine
 10
164.071272
 20
123.571561
 30
0.0
 11
164.071272
 21
132.571560
 31
0.0
  0
LINE
  5
104
100
AcDbEntity
  8
Layer_1
 62
7
100
AcDbLine
 10
168.571277
 20
123.571561
 30
0.0
 11
164.071272
 21
123.571561
 31
0.0
  0
LINE
  5
105
100
AcDbEntity
  8
Layer_1
 62
7
100
AcDbLine
 10
168.571277
 20
113.571561
 30
0.0
 11
168.571277
 21
123.571561
 31
0.0
  0
LINE
  5
106
100
AcDbEntity
  8
Layer_1
 62
7
100
AcDbLine
 10
164.071272
 20
113.571561
 30
0.0
 11
168.571277
 21
113.571561
 31
0.0
  0
LINE
  5
107
100
AcDbEntity
  8
Layer_1
 62
7
100
AcDbLine
 10
164.071272
 20
103.571561
 30
0.0
 11
164.071272
 21
113.571561
 31
0.0
  0
LINE
  5
108
100
AcDbEntity
  8
Layer_1
 62
7
100
AcDbLine
 10
168.571277
 20
103.571561
 30
0.0
 11
164.071272
 21
103.571561
 31
0.0
  0
LINE
  5
109
100
AcDbEntity
  8
Layer_1
 62
7
100
AcDbLine
 10
168.571277
 20
93.571562
 30
0.0
 11
168.571277
 21
103.571561
 31
0.0
  0
LINE
  5
10a
100
AcDbEntity
  8
Layer_1
 62
7
100
AcDbLine
 10
164.071272
 20
93.571562
 30
0.0
 11
168.571277
 21
93.571562
 31
0.0
  0
LINE
  5
10b
100
AcDbEntity
  8
Layer_1
 62
7
100
AcDbLine
 10
164.071272
 20
87.821560
 30
0.0
 11
164.071272
 21
93.571562
 31
0.0
  0
LINE
  5
10c
100
AcDbEntity
  8
Layer_1
 62
7
100
AcDbLine
 10
160.271262
 20
87.821560
 30
0.0
 11
164.071272
 21
87.821560
 31
0.0
  0
LINE
  5
10d
100
AcDbEntity
  8
Layer_1
 62
7
100
AcDbLine
 10
160.271262
 20
88.821561
 30
0.0
 11
160.271262
 21
87.821560
 31
0.0
  0
SPLINE
  5
10e
100
AcDbEntity
  8
Layer_1
 62
7
100
AcDbSpline
 70
8
 71
3
 72
8
 73
4
 74
0
 40
0
 40
0
 40
0
 40
0
 40
1
 40
1
 40
1
 40
1
 10
160.271262
 20
88.821561
 30
0.0
 10
160.271261
 20
88.959629
 30
0.0
 10
160.159337
 20
89.071555
 30
0.0
 10
160.021270
 20
89.071559
 30
0.0
  0
LINE
  5
10f
100
AcDbEntity
  8
Layer_1
 62
7
100
AcDbLine
 10
156.321280
 20
89.071559
 30
0.0
 11
160.021270
 21
89.071559
 31
0.0
  0
SPLINE
  5
110
100
AcDbEntity
  8
Layer_1
 62
7
100
AcDbSpline
 70
8
 71
3
 72
8
 73
4
 74
0
 40
0
 40
0
 40
0
 40
0
 40
1
 40
1
 40
1
 40
1
 10
156.321280
 20
89.071559
 30
0.0
 10
156.254973
 20
89.071565
 30
0.0
 10
156.191379
 20
89.045228
 30
0.0
 10
156.144491
 20
88.998344
 30
0.0
  0
SPLINE
  5
111
100
AcDbEntity
  8
Layer_1
 62
7
100
AcDbSpline
 70
8
 71
3
 72
8
 73
4
 74
0
 40
0
 40
0
 40
0
 40
0
 40
1
 40
1
 40
1
 40
1
 10
156.144491
 20
88.998344
 30
0.0
 10
156.097602
 20
88.951460
 30
0.0
 10
156.071260
 20
88.887869
 30
0.0
 10
156.071260
 20
88.821561
 30
0.0
  0
LINE
  5
112
100
AcDbEntity
  8
Layer_1
 62
7
100
AcDbLine
 10
156.071260
 20
87.821560
 30
0.0
 11
156.071260
 21
88.821561
 31
0.0
  0
LINE
  5
113
100
AcDbEntity
  8
Layer_1
 62
7
100
AcDbLine
 10
153.571279
 20
87.821560
 30
0.0
 11
156.071260
 21
87.821560
 31
0.0
  0
LINE
  5
114
100
AcDbEntity
  8
Layer_1
 62
7
100
AcDbLine
 10
153.571279
 20
84.321562
 30
0.0
 11
153.571279
 21
87.821560
 31
0.0
  0
LINE
  5
115
100
AcDbEntity
  8
Layer_1
 62
7
100
AcDbLine
 10
156.071260
 20
84.321562
 30
0.0
 11
153.571279
 21
84.321562
 31
0.0
  0
LINE
  5
116
100
AcDbEntity
  8
Layer_1
 62
7
100
AcDbLine
 10
156.071260
 20
83.321561
 30
0.0
 11
156.071260
 21
84.321562
 31
0.0
  0
SPLINE
  5
117
100
AcDbEntity
  8
Layer_1
 62
7
100
AcDbSpline
 70
8
 71
3
 72
8
 73
4
 74
0
 40
0
 40
0
 40
0
 40
0
 40
1
 40
1
 40
1
 40
1
 10
156.071260
 20
83.321561
 30
0.0
 10
156.071259
 20
83.255253
 30
0.0
 10
156.097601
 20
83.191661
 30
0.0
 10
156.144490
 20
83.144776
 30
0.0
  0
SPLINE
  5
118
100
AcDbEntity
  8
Layer_1
 62
7
100
AcDbSpline
 70
8
 71
3
 72
8
 73
4
 74
0
 40
0
 40
0
 40
0
 40
0
 40
1
 40
1
 40
1
 40
1
 10
156.144490
 20
83.144776
 30
0.0
 10
156.191378
 20
83.097892
 30
0.0
 10
156.254972
 20
83.071555
 30
0.0
 10
156.321280
 20
83.071560
 30
0.0
  0
LINE
  5
119
100
AcDbEntity
  8
Layer_1
 62
7
100
AcDbLine
 10
160.021270
 20
83.071560
 30
0.0
 11
156.321280
 21
83.071560
 31
0.0
  0
SPLINE
  5
11a
100
AcDbEntity
  8
Layer_1
 62
7
100
AcDbSpline
 70
8
 71
3
 72
8
 73
4
 74
0
 40
0
 40
0
 40
0
 40
0
 40
1
 40
1
 40
1
 40
1
 10
160.021270
 20
83.071560
 30
0.0
 10
160.159339
 20
83.071564
 30
0.0
 10
160.271263
 20
83.183492
 30
0.0
 10
160.271262
 20
83.321561
 30
0.0
  0
LINE
  5
11b
100
AcDbEntity
  8
Layer_1
 62
7
100
AcDbLine
 10
160.271262
 20
84.321562
 30
0.0
 11
160.271262
 21
83.321561
 31
0.0
  0
LINE
  5
11c
100
AcDbEntity
  8
Layer_1
 62
7
100
AcDbLine
 10
164.071272
 20
84.321562
 30
0.0
 11
160.271262
 21
84.321562
 31
0.0
  0
LINE
  5
11d
100
AcDbEntity
  8
Layer_1
 62
7
100
AcDbLine
 10
164.071272
 20
78.571561
 30
0.0
 11
164.071272
 21
84.321562
 31
0.0
  0
LINE
  5
11e
100
AcDbEntity
  8
Layer_1
 62
7
100
AcDbLine
 10
161.571263
 20
78.571561
 30
0.0
 11
164.071272
 21
78.571561
 31
0.0
  0
LINE
  5
11f
100
AcDbEntity
  8
Layer_1
 62
7
100
AcDbLine
 10
161.571263
 20
74.071561
 30
0.0
 11
161.571263
 21
78.571561
 31
0.0
  0
LINE
  5
120
100
AcDbEntity
  8
Layer_1
 62
7
100
AcDbLine
 10
151.571283
 20
74.071561
 30
0.0
 11
161.571263
 21
74.071561
 31
0.0
  0
LINE
  5
121
100
AcDbEntity
  8
Layer_1
 62
7
100
AcDbLine
 10
151.571283
 20
78.571561
 30
0.0
 11
151.571283
 21
74.071561
 31
0.0
  0
LINE
  5
122
100
AcDbEntity
  8
Layer_1
 62
7
100
AcDbLine
 10
136.321264
 20
78.571561
 30
0.0
 11
151.571283
 21
78.571561
 31
0.0
  0
LINE
  5
123
100
AcDbEntity
  8
Layer_1
 62
7
100
AcDbLine
 10
136.321264
 20
78.571561
 30
0.0
 11
136.321264
 21
82.371561
 31
0.0
  0
LINE
  5
124
100
AcDbEntity
  8
Layer_1
 62
7
100
AcDbLine
 10
136.321264
 20
82.371561
 30
0.0
 11
137.321262
 21
82.371561
 31
0.0
  0
SPLINE
  5
125
100
AcDbEntity
  8
Layer_1
 62
7
100
AcDbSpline
 70
8
 71
3
 72
8
 73
4
 74
0
 40
0
 40
0
 40
0
 40
0
 40
1
 40
1
 40
1
 40
1
 10
137.321262
 20
82.371561
 30
0.0
 10
137.387569
 20
82.371556
 30
0.0
 10
137.451163
 20
82.397893
 30
0.0
 10
137.498051
 20
82.444777
 30
0.0
  0
SPLINE
  5
126
100
AcDbEntity
  8
Layer_1
 62
7
100
AcDbSpline
 70
8
 71
3
 72
8
 73
4
 74
0
 40
0
 40
0
 40
0
 40
0
 40
1
 40
1
 40
1
 40
1
 10
137.498051
 20
82.444777
 30
0.0
 10
137.544940
 20
82.491661
 30
0.0
 10
137.571282
 20
82.555252
 30
0.0
 10
137.571282
 20
82.621560
 30
0.0
  0
LINE
  5
127
100
AcDbEntity
  8
Layer_1
 62
7
100
AcDbLine
 10
137.571282
 20
82.621560
 30
0.0
 11
137.571282
 21
86.321561
 31
0.0
  0
SPLINE
  5
128
100
AcDbEntity
  8
Layer_1
 62
7
100
AcDbSpline
 70
8
 71
3
 72
8
 73
4
 74
0
 40
0
 40
0
 40
0
 40
0
 40
1
 40
1
 40
1
 40
1
 10
137.571282
 20
86.321561
 30
0.0
 10
137.571283
 20
86.387868
 30
0.0
 10
137.544941
 20
86.451460
 30
0.0
 10
137.498052
 20
86.498345
 30
0.0
  0
SPLINE
  5
129
100
AcDbEntity
  8
Layer_1
 62
7
100
AcDbSpline
 70
8
 71
3
 72
8
 73
4
 74
0
 40
0
 40
0
 40
0
 40
0
 40
1
 40
1
 40
1
 40
1
 10
137.498052
 20
86.498345
 30
0.0
 10
137.451164
 20
86.545230
 30
0.0
 10
137.387570
 20
86.571567
 30
0.0
 10
137.321262
 20
86.571562
 30
0.0
  0
LINE
  5
12a
100
AcDbEntity
  8
Layer_1
 62
7
100
AcDbLine
 10
137.321262
 20
86.571562
 30
0.0
 11
136.321264
 21
86.571562
 31
0.0
  0
LINE
  5
12b
100
AcDbEntity
  8
Layer_1
 62
7
100
AcDbLine
 10
136.321264
 20
86.571562
 30
0.0
 11
136.321264
 21
89.071559
 31
0.0
  0
LINE
  5
12c
100
AcDbEntity
  8
Layer_1
 62
7
100
AcDbLine
 10
136.321264
 20
89.071559
 30
0.0
 11
132.821257
 21
89.071559
 31
0.0
  0
LINE
  5
12d
100
AcDbEntity
  8
Layer_1
 62
7
100
AcDbLine
 10
132.821257
 20
89.071559
 30
0.0
 11
132.821257
 21
86.571562
 31
0.0
  0
LINE
  5
12e
100
AcDbEntity
  8
Layer_1
 62
7
100
AcDbLine
 10
132.821257
 20
86.571562
 30
0.0
 11
131.821259
 21
86.571562
 31
0.0
  0
SPLINE
  5
12f
100
AcDbEntity
  8
Layer_1
 62
7
100
AcDbSpline
 70
8
 71
3
 72
8
 73
4
 74
0
 40
0
 40
0
 40
0
 40
0
 40
1
 40
1
 40
1
 40
1
 10
131.821259
 20
86.571562
 30
0.0
 10
131.683190
 20
86.571557
 30
0.0
 10
131.571266
 20
86.459629
 30
0.0
 10
131.571266
 20
86.321561
 30
0.0
  0
LINE
  5
130
100
AcDbEntity
  8
Layer_1
 62
7
100
AcDbLine
 10
131.571266
 20
86.321561
 30
0.0
 11
131.571266
 21
82.621560
 31
0.0
  0
SPLINE
  5
131
100
AcDbEntity
  8
Layer_1
 62
7
100
AcDbSpline
 70
8
 71
3
 72
8
 73
4
 74
0
 40
0
 40
0
 40
0
 40
0
 40
1
 40
1
 40
1
 40
1
 10
131.571266
 20
82.621560
 30
0.0
 10
131.571267
 20
82.483492
 30
0.0
 10
131.683191
 20
82.371566
 30
0.0
 10
131.821259
 20
82.371561
 30
0.0
  0
LINE
  5
132
100
AcDbEntity
  8
Layer_1
 62
7
100
AcDbLine
 10
131.821259
 20
82.371561
 30
0.0
 11
132.821257
 21
82.371561
 31
0.0
  0
LINE
  5
133
100
AcDbEntity
  8
Layer_1
 62
7
100
AcDbLine
 10
132.821257
 20
82.371561
 30
0.0
 11
132.821257
 21
78.571561
 31
0.0
  0
LINE
  5
134
100
AcDbEntity
  8
Layer_1
 62
7
100
AcDbLine
 10
129.071257
 20
78.571561
 30
0.0
 11
132.821257
 21
78.571561
 31
0.0
  0
LINE
  5
135
100
AcDbEntity
  8
Layer_1
 62
7
100
AcDbLine
 10
129.071257
 20
84.571560
 30
0.0
 11
129.071257
 21
78.571561
 31
0.0
  0
LINE
  5
136
100
AcDbEntity
  8
Layer_1
 62
7
100
AcDbLine
 10
126.071263
 20
87.571560
 30
0.0
 11
129.071257
 21
84.571560
 31
0.0
  0
SPLINE
  5
137
100
AcDbEntity
  8
Layer_1
 62
7
100
AcDbSpline
 70
8
 71
3
 72
8
 73
4
 74
0
 40
0
 40
0
 40
0
 40
0
 40
1
 40
1
 40
1
 40
1
 10
129.571270
 20
113.021561
 30
0.0
 10
130.125255
 20
113.021227
 30
0.0
 10
130.637300
 20
113.316582
 30
0.0
 10
130.914389
 20
113.796291
 30
0.0
  0
SPLINE
  5
138
100
AcDbEntity
  8
Layer_1
 62
7
100
AcDbSpline
 70
8
 71
3
 72
8
 73
4
 74
0
 40
0
 40
0
 40
0
 40
0
 40
1
 40
1
 40
1
 40
1
 10
130.914389
 20
113.796291
 30
0.0
 10
131.191478
 20
114.275999
 30
0.0
 10
131.191478
 20
114.867122
 30
0.0
 10
130.914389
 20
115.346831
 30
0.0
  0
SPLINE
  5
139
100
AcDbEntity
  8
Layer_1
 62
7
100
AcDbSpline
 70
8
 71
3
 72
8
 73
4
 74
0
 40
0
 40
0
 40
0
 40
0
 40
1
 40
1
 40
1
 40
1
 10
130.914389
 20
115.346831
 30
0.0
 10
130.637300
 20
115.826539
 30
0.0
 10
130.125255
 20
116.121895
 30
0.0
 10
129.571270
 20
116.121560
 30
0.0
  0
SPLINE
  5
13a
100
AcDbEntity
  8
Layer_1
 62
7
100
AcDbSpline
 70
8
 71
3
 72
8
 73
4
 74
0
 40
0
 40
0
 40
0
 40
0
 40
1
 40
1
 40
1
 40
1
 10
129.571270
 20
116.121560
 30
0.0
 10
129.017286
 20
116.121895
 30
0.0
 10
128.505240
 20
115.826539
 30
0.0
 10
128.228151
 20
115.346831
 30
0.0
  0
SPLINE
  5
13b
100
AcDbEntity
  8
Layer_1
 62
7
100
AcDbSpline
 70
8
 71
3
 72
8
 73
4
 74
0
 40
0
 40
0
 40
0
 40
0
 40
1
 40
1
 40
1
 40
1
 10
128.228151
 20
115.346831
 30
0.0
 10
127.951063
 20
114.867122
 30
0.0
 10
127.951063
 20
114.275999
 30
0.0
 10
128.228151
 20
113.796291
 30
0.0
  0
SPLINE
  5
13c
100
AcDbEntity
  8
Layer_1
 62
7
100
AcDbSpline
 70
8
 71
3
 72
8
 73
4
 74
0
 40
0
 40
0
 40
0
 40
0
 40
1
 40
1
 40
1
 40
1
 10
128.228151
 20
113.796291
 30
0.0
 10
128.505240
 20
113.316582
 30
0.0
 10
129.017286
 20
113.021227
 30
0.0
 10
129.571270
 20
113.021561
 30
0.0
  0
LINE
  5
13d
100
AcDbEntity
  8
Layer_1
 62
7
100
AcDbLine
 10
129.571270
 20
113.021561
 30
0.0
 11
129.571270
 21
113.021561
 31
0.0
  0
SPLINE
  5
13e
100
AcDbEntity
  8
Layer_1
 62
7
100
AcDbSpline
 70
8
 71
3
 72
8
 73
4
 74
0
 40
0
 40
0
 40
0
 40
0
 40
1
 40
1
 40
1
 40
1
 10
129.571270
 20
88.021560
 30
0.0
 10
130.125255
 20
88.021226
 30
0.0
 10
130.637300
 20
88.316581
 30
0.0
 10
130.914389
 20
88.796290
 30
0.0
  0
SPLINE
  5
13f
100
AcDbEntity
  8
Layer_1
 62
7
100
AcDbSpline
 70
8
 71
3
 72
8
 73
4
 74
0
 40
0
 40
0
 40
0
 40
0
 40
1
 40
1
 40
1
 40
1
 10
130.914389
 20
88.796290
 30
0.0
 10
131.191478
 20
89.275999
 30
0.0
 10
131.191478
 20
89.867121
 30
0.0
 10
130.914389
 20
90.346830
 30
0.0
  0
SPLINE
  5
140
100
AcDbEntity
  8
Layer_1
 62
7
100
AcDbSpline
 70
8
 71
3
 72
8
 73
4
 74
0
 40
0
 40
0
 40
0
 40
0
 40
1
 40
1
 40
1
 40
1
 10
130.914389
 20
90.346830
 30
0.0
 10
130.637300
 20
90.826539
 30
0.0
 10
130.125255
 20
91.121894
 30
0.0
 10
129.571270
 20
91.121560
 30
0.0
  0
SPLINE
  5
141
100
AcDbEntity
  8
Layer_1
 62
7
100
AcDbSpline
 70
8
 71
3
 72
8
 73
4
 74
0
 40
0
 40
0
 40
0
 40
0
 40
1
 40
1
 40
1
 40
1
 10
129.571270
 20
91.121560
 30
0.0
 10
129.017286
 20
91.121894
 30
0.0
 10
128.505240
 20
90.826539
 30
0.0
 10
128.228151
 20
90.346830
 30
0.0
  0
SPLINE
  5
142
100
AcDbEntity
  8
Layer_1
 62
7
100
AcDbSpline
 70
8
 71
3
 72
8
 73
4
 74
0
 40
0
 40
0
 40
0
 40
0
 40
1
 40
1
 40
1
 40
1
 10
128.228151
 20
90.346830
 30
0.0
 10
127.951063
 20
89.867121
 30
0.0
 10
127.951063
 20
89.275999
 30
0.0
 10
128.228151
 20
88.796290
 30
0.0
  0
SPLINE
  5
143
100
AcDbEntity
  8
Layer_1
 62
7
100
AcDbSpline
 70
8
 71
3
 72
8
 73
4
 74
0
 40
0
 40
0
 40
0
 40
0
 40
1
 40
1
 40
1
 40
1
 10
128.228151
 20
88.796290
 30
0.0
 10
128.505240
 20
88.316581
 30
0.0
 10
129.017286
 20
88.021226
 30
0.0
 10
129.571270
 20
88.021560
 30
0.0
  0
LINE
  5
144
100
AcDbEntity
  8
Layer_1
 62
7
100
AcDbLine
 10
129.571270
 20
88.021560
 30
0.0
 11
129.571270
 21
88.021560
 31
0.0
  0
SPLINE
  5
145
100
AcDbEntity
  8
Layer_1
 62
7
100
AcDbSpline
 70
8
 71
3
 72
8
 73
4
 74
0
 40
0
 40
0
 40
0
 40
0
 40
1
 40
1
 40
1
 40
1
 10
146.071280
 20
93.321561
 30
0.0
 10
150.805049
 20
93.321561
 30
0.0
 10
155.179232
 20
95.846997
 30
0.0
 10
157.546116
 20
99.946561
 30
0.0
  0
SPLINE
  5
146
100
AcDbEntity
  8
Layer_1
 62
7
100
AcDbSpline
 70
8
 71
3
 72
8
 73
4
 74
0
 40
0
 40
0
 40
0
 40
0
 40
1
 40
1
 40
1
 40
1
 10
157.546116
 20
99.946561
 30
0.0
 10
159.913001
 20
104.046125
 30
0.0
 10
159.913001
 20
109.096997
 30
0.0
 10
157.546116
 20
113.196561
 30
0.0
  0
SPLINE
  5
147
100
AcDbEntity
  8
Layer_1
 62
7
100
AcDbSpline
 70
8
 71
3
 72
8
 73
4
 74
0
 40
0
 40
0
 40
0
 40
0
 40
1
 40
1
 40
1
 40
1
 10
157.546116
 20
113.196561
 30
0.0
 10
155.179232
 20
117.296126
 30
0.0
 10
150.805049
 20
119.821561
 30
0.0
 10
146.071280
 20
119.821561
 30
0.0
  0
SPLINE
  5
148
100
AcDbEntity
  8
Layer_1
 62
7
100
AcDbSpline
 70
8
 71
3
 72
8
 73
4
 74
0
 40
0
 40
0
 40
0
 40
0
 40
1
 40
1
 40
1
 40
1
 10
146.071280
 20
119.821561
 30
0.0
 10
141.337510
 20
119.821561
 30
0.0
 10
136.963327
 20
117.296126
 30
0.0
 10
134.596443
 20
113.196561
 30
0.0
  0
SPLINE
  5
149
100
AcDbEntity
  8
Layer_1
 62
7
100
AcDbSpline
 70
8
 71
3
 72
8
 73
4
 74
0
 40
0
 40
0
 40
0
 40
0
 40
1
 40
1
 40
1
 40
1
 10
134.596443
 20
113.196561
 30
0.0
 10
132.229558
 20
109.096997
 30
0.0
 10
132.229558
 20
104.046125
 30
0.0
 10
134.596443
 20
99.946561
 30
0.0
  0
SPLINE
  5
14a
100
AcDbEntity
  8
Layer_1
 62
7
100
AcDbSpline
 70
8
 71
3
 72
8
 73
4
 74
0
 40
0
 40
0
 40
0
 40
0
 40
1
 40
1
 40
1
 40
1
 10
134.596443
 20
99.946561
 30
0.0
 10
136.963327
 20
95.846997
 30
0.0
 10
141.337510
 20
93.321561
 30
0.0
 10
146.071280
 20
93.321561
 30
0.0
  0
LINE
  5
14b
100
AcDbEntity
  8
Layer_1
 62
7
100
AcDbLine
 10
146.071280
 20
93.321561
 30
0.0
 11
146.071280
 21
93.321561
 31
0.0
  0
SPLINE
  5
14c
100
AcDbEntity
  8
Layer_1
 62
7
100
AcDbSpline
 70
8
 71
3
 72
8
 73
4
 74
0
 40
0
 40
0
 40
0
 40
0
 40
1
 40
1
 40
1
 40
1
 10
84.571555
 20
96.121564
 30
0.0
 10
84.017571
 20
96.121898
 30
0.0
 10
83.505525
 20
95.826543
 30
0.0
 10
83.228436
 20
95.346834
 30
0.0
  0
SPLINE
  5
14d
100
AcDbEntity
  8
Layer_1
 62
7
100
AcDbSpline
 70
8
 71
3
 72
8
 73
4
 74
0
 40
0
 40
0
 40
0
 40
0
 40
1
 40
1
 40
1
 40
1
 10
83.228436
 20
95.346834
 30
0.0
 10
82.951347
 20
94.867125
 30
0.0
 10
82.951347
 20
94.276003
 30
0.0
 10
83.228436
 20
93.796294
 30
0.0
  0
SPLINE
  5
14e
100
AcDbEntity
  8
Layer_1
 62
7
100
AcDbSpline
 70
8
 71
3
 72
8
 73
4
 74
0
 40
0
 40
0
 40
0
 40
0
 40
1
 40
1
 40
1
 40
1
 10
83.228436
 20
93.796294
 30
0.0
 10
83.505525
 20
93.316585
 30
0.0
 10
84.017571
 20
93.021230
 30
0.0
 10
84.571555
 20
93.021564
 30
0.0
  0
SPLINE
  5
14f
100
AcDbEntity
  8
Layer_1
 62
7
100
AcDbSpline
 70
8
 71
3
 72
8
 73
4
 74
0
 40
0
 40
0
 40
0
 40
0
 40
1
 40
1
 40
1
 40
1
 10
84.571555
 20
93.021564
 30
0.0
 10
85.125539
 20
93.021230
 30
0.0
 10
85.637585
 20
93.316585
 30
0.0
 10
85.914674
 20
93.796294
 30
0.0
  0
SPLINE
  5
150
100
AcDbEntity
  8
Layer_1
 62
7
100
AcDbSpline
 70
8
 71
3
 72
8
 73
4
 74
0
 40
0
 40
0
 40
0
 40
0
 40
1
 40
1
 40
1
 40
1
 10
85.914674
 20
93.796294
 30
0.0
 10
86.191762
 20
94.276003
 30
0.0
 10
86.191762
 20
94.867125
 30
0.0
 10
85.914674
 20
95.346834
 30
0.0
  0
SPLINE
  5
151
100
AcDbEntity
  8
Layer_1
 62
7
100
AcDbSpline
 70
8
 71
3
 72
8
 73
4
 74
0
 40
0
 40
0
 40
0
 40
0
 40
1
 40
1
 40
1
 40
1
 10
85.914674
 20
95.346834
 30
0.0
 10
85.637585
 20
95.826543
 30
0.0
 10
85.125539
 20
96.121898
 30
0.0
 10
84.571555
 20
96.121564
 30
0.0
  0
LINE
  5
152
100
AcDbEntity
  8
Layer_1
 62
7
100
AcDbLine
 10
84.571555
 20
96.121564
 30
0.0
 11
84.571555
 21
96.121564
 31
0.0
  0
SPLINE
  5
153
100
AcDbEntity
  8
Layer_1
 62
7
100
AcDbSpline
 70
8
 71
3
 72
8
 73
4
 74
0
 40
0
 40
0
 40
0
 40
0
 40
1
 40
1
 40
1
 40
1
 10
84.571555
 20
120.121564
 30
0.0
 10
84.017571
 20
120.121898
 30
0.0
 10
83.505525
 20
119.826543
 30
0.0
 10
83.228436
 20
119.346834
 30
0.0
  0
SPLINE
  5
154
100
AcDbEntity
  8
Layer_1
 62
7
100
AcDbSpline
 70
8
 71
3
 72
8
 73
4
 74
0
 40
0
 40
0
 40
0
 40
0
 40
1
 40
1
 40
1
 40
1
 10
83.228436
 20
119.346834
 30
0.0
 10
82.951347
 20
118.867125
 30
0.0
 10
82.951347
 20
118.276003
 30
0.0
 10
83.228436
 20
117.796294
 30
0.0
  0
SPLINE
  5
155
100
AcDbEntity
  8
Layer_1
 62
7
100
AcDbSpline
 70
8
 71
3
 72
8
 73
4
 74
0
 40
0
 40
0
 40
0
 40
0
 40
1
 40
1
 40
1
 40
1
 10
83.228436
 20
117.796294
 30
0.0
 10
83.505525
 20
117.316585
 30
0.0
 10
84.017571
 20
117.021230
 30
0.0
 10
84.571555
 20
117.021564
 30
0.0
  0
SPLINE
  5
156
100
AcDbEntity
  8
Layer_1
 62
7
100
AcDbSpline
 70
8
 71
3
 72
8
 73
4
 74
0
 40
0
 40
0
 40
0
 40
0
 40
1
 40
1
 40
1
 40
1
 10
84.571555
 20
117.021564
 30
0.0
 10
85.125539
 20
117.021230
 30
0.0
 10
85.637585
 20
117.316585
 30
0.0
 10
85.914674
 20
117.796294
 30
0.0
  0
SPLINE
  5
157
100
AcDbEntity
  8
Layer_1
 62
7
100
AcDbSpline
 70
8
 71
3
 72
8
 73
4
 74
0
 40
0
 40
0
 40
0
 40
0
 40
1
 40
1
 40
1
 40
1
 10
85.914674
 20
117.796294
 30
0.0
 10
86.191762
 20
118.276003
 30
0.0
 10
86.191762
 20
118.867125
 30
0.0
 10
85.914674
 20
119.346834
 30
0.0
  0
SPLINE
  5
158
100
AcDbEntity
  8
Layer_1
 62
7
100
AcDbSpline
 70
8
 71
3
 72
8
 73
4
 74
0
 40
0
 40
0
 40
0
 40
0
 40
1
 40
1
 40
1
 40
1
 10
85.914674
 20
119.346834
 30
0.0
 10
85.637585
 20
119.826543
 30
0.0
 10
85.125539
 20
120.121898
 30
0.0
 10
84.571555
 20
120.121564
 30
0.0
  0
LINE
  5
159
100
AcDbEntity
  8
Layer_1
 62
7
100
AcDbLine
 10
84.571555
 20
120.121564
 30
0.0
 11
84.571555
 21
120.121564
 31
0.0
  0
SPLINE
  5
15a
100
AcDbEntity
  8
Layer_1
 62
7
100
AcDbSpline
 70
8
 71
3
 72
8
 73
4
 74
0
 40
0
 40
0
 40
0
 40
0
 40
1
 40
1
 40
1
 40
1
 10
108.571563
 20
96.121564
 30
0.0
 10
108.017579
 20
96.121898
 30
0.0
 10
107.505533
 20
95.826543
 30
0.0
 10
107.228445
 20
95.346834
 30
0.0
  0
SPLINE
  5
15b
100
AcDbEntity
  8
Layer_1
 62
7
100
AcDbSpline
 70
8
 71
3
 72
8
 73
4
 74
0
 40
0
 40
0
 40
0
 40
0
 40
1
 40
1
 40
1
 40
1
 10
107.228445
 20
95.346834
 30
0.0
 10
106.951356
 20
94.867125
 30
0.0
 10
106.951356
 20
94.276003
 30
0.0
 10
107.228445
 20
93.796294
 30
0.0
  0
SPLINE
  5
15c
100
AcDbEntity
  8
Layer_1
 62
7
100
AcDbSpline
 70
8
 71
3
 72
8
 73
4
 74
0
 40
0
 40
0
 40
0
 40
0
 40
1
 40
1
 40
1
 40
1
 10
107.228445
 20
93.796294
 30
0.0
 10
107.505533
 20
93.316585
 30
0.0
 10
108.017579
 20
93.021230
 30
0.0
 10
108.571563
 20
93.021564
 30
0.0
  0
SPLINE
  5
15d
100
AcDbEntity
  8
Layer_1
 62
7
100
AcDbSpline
 70
8
 71
3
 72
8
 73
4
 74
0
 40
0
 40
0
 40
0
 40
0
 40
1
 40
1
 40
1
 40
1
 10
108.571563
 20
93.021564
 30
0.0
 10
109.125548
 20
93.021230
 30
0.0
 10
109.637593
 20
93.316585
 30
0.0
 10
109.914682
 20
93.796294
 30
0.0
  0
SPLINE
  5
15e
100
AcDbEntity
  8
Layer_1
 62
7
100
AcDbSpline
 70
8
 71
3
 72
8
 73
4
 74
0
 40
0
 40
0
 40
0
 40
0
 40
1
 40
1
 40
1
 40
1
 10
109.914682
 20
93.796294
 30
0.0
 10
110.191771
 20
94.276003
 30
0.0
 10
110.191771
 20
94.867125
 30
0.0
 10
109.914682
 20
95.346834
 30
0.0
  0
SPLINE
  5
15f
100
AcDbEntity
  8
Layer_1
 62
7
100
AcDbSpline
 70
8
 71
3
 72
8
 73
4
 74
0
 40
0
 40
0
 40
0
 40
0
 40
1
 40
1
 40
1
 40
1
 10
109.914682
 20
95.346834
 30
0.0
 10
109.637593
 20
95.826543
 30
0.0
 10
109.125548
 20
96.121898
 30
0.0
 10
108.571563
 20
96.121564
 30
0.0
  0
LINE
  5
160
100
AcDbEntity
  8
Layer_1
 62
7
100
AcDbLine
 10
108.571563
 20
96.121564
 30
0.0
 11
108.571563
 21
96.121564
 31
0.0
  0
SPLINE
  5
161
100
AcDbEntity
  8
Layer_1
 62
7
100
AcDbSpline
 70
8
 71
3
 72
8
 73
4
 74
0
 40
0
 40
0
 40
0
 40
0
 40
1
 40
1
 40
1
 40
1
 10
96.571559
 20
119.821564
 30
0.0
 10
91.837790
 20
119.821564
 30
0.0
 10
87.463607
 20
117.296128
 30
0.0
 10
85.096722
 20
113.196564
 30
0.0
  0
SPLINE
  5
162
100
AcDbEntity
  8
Layer_1
 62
7
100
AcDbSpline
 70
8
 71
3
 72
8
 73
4
 74
0
 40
0
 40
0
 40
0
 40
0
 40
1
 40
1
 40
1
 40
1
 10
85.096722
 20
113.196564
 30
0.0
 10
82.729838
 20
109.097000
 30
0.0
 10
82.729838
 20
104.046128
 30
0.0
 10
85.096722
 20
99.946564
 30
0.0
  0
SPLINE
  5
163
100
AcDbEntity
  8
Layer_1
 62
7
100
AcDbSpline
 70
8
 71
3
 72
8
 73
4
 74
0
 40
0
 40
0
 40
0
 40
0
 40
1
 40
1
 40
1
 40
1
 10
85.096722
 20
99.946564
 30
0.0
 10
87.463607
 20
95.846999
 30
0.0
 10
91.837790
 20
93.321564
 30
0.0
 10
96.571559
 20
93.321564
 30
0.0
  0
SPLINE
  5
164
100
AcDbEntity
  8
Layer_1
 62
7
100
AcDbSpline
 70
8
 71
3
 72
8
 73
4
 74
0
 40
0
 40
0
 40
0
 40
0
 40
1
 40
1
 40
1
 40
1
 10
96.571559
 20
93.321564
 30
0.0
 10
103.889332
 20
93.321564
 30
0.0
 10
109.821559
 20
99.253791
 30
0.0
 10
109.821559
 20
106.571564
 30
0.0
  0
SPLINE
  5
165
100
AcDbEntity
  8
Layer_1
 62
7
100
AcDbSpline
 70
8
 71
3
 72
8
 73
4
 74
0
 40
0
 40
0
 40
0
 40
0
 40
1
 40
1
 40
1
 40
1
 10
109.821559
 20
106.571564
 30
0.0
 10
109.821559
 20
113.889337
 30
0.0
 10
103.889332
 20
119.821564
 30
0.0
 10
96.571559
 20
119.821564
 30
0.0
  0
LINE
  5
166
100
AcDbEntity
  8
Layer_1
 62
7
100
AcDbLine
 10
96.571559
 20
119.821564
 30
0.0
 11
96.571559
 21
119.821564
 31
0.0
  0
LINE
  5
167
100
AcDbEntity
  8
Layer_1
 62
7
100
AcDbLine
 10
111.423250
 20
95.965416
 30
0.0
 11
113.571582
 21
93.571564
 31
0.0
  0
LINE
  5
168
100
AcDbEntity
  8
Layer_1
 62
7
100
AcDbLine
 10
113.571582
 20
93.571564
 30
0.0
 11
113.571582
 21
78.571563
 31
0.0
  0
LINE
  5
169
100
AcDbEntity
  8
Layer_1
 62
7
100
AcDbLine
 10
113.571582
 20
78.571563
 30
0.0
 11
109.821582
 21
78.571563
 31
0.0
  0
LINE
  5
16a
100
AcDbEntity
  8
Layer_1
 62
7
100
AcDbLine
 10
109.821582
 20
82.371564
 30
0.0
 11
109.821582
 21
78.571563
 31
0.0
  0
LINE
  5
16b
100
AcDbEntity
  8
Layer_1
 62
7
100
AcDbLine
 10
110.821580
 20
82.371564
 30
0.0
 11
109.821582
 21
82.371564
 31
0.0
  0
SPLINE
  5
16c
100
AcDbEntity
  8
Layer_1
 62
7
100
AcDbSpline
 70
8
 71
3
 72
8
 73
4
 74
0
 40
0
 40
0
 40
0
 40
0
 40
1
 40
1
 40
1
 40
1
 10
110.821580
 20
82.371564
 30
0.0
 10
110.959648
 20
82.371569
 30
0.0
 10
111.071571
 20
82.483495
 30
0.0
 10
111.071573
 20
82.621562
 30
0.0
  0
LINE
  5
16d
100
AcDbEntity
  8
Layer_1
 62
7
100
AcDbLine
 10
111.071573
 20
86.321563
 30
0.0
 11
111.071573
 21
82.621562
 31
0.0
  0
SPLINE
  5
16e
100
AcDbEntity
  8
Layer_1
 62
7
100
AcDbSpline
 70
8
 71
3
 72
8
 73
4
 74
0
 40
0
 40
0
 40
0
 40
0
 40
1
 40
1
 40
1
 40
1
 10
111.071573
 20
86.321563
 30
0.0
 10
111.071573
 20
86.459632
 30
0.0
 10
110.959649
 20
86.571560
 30
0.0
 10
110.821580
 20
86.571564
 30
0.0
  0
LINE
  5
16f
100
AcDbEntity
  8
Layer_1
 62
7
100
AcDbLine
 10
109.821582
 20
86.571564
 30
0.0
 11
110.821580
 21
86.571564
 31
0.0
  0
LINE
  5
170
100
AcDbEntity
  8
Layer_1
 62
7
100
AcDbLine
 10
109.821582
 20
89.071562
 30
0.0
 11
109.821582
 21
86.571564
 31
0.0
  0
LINE
  5
171
100
AcDbEntity
  8
Layer_1
 62
7
100
AcDbLine
 10
106.321575
 20
89.071562
 30
0.0
 11
109.821582
 21
89.071562
 31
0.0
  0
LINE
  5
172
100
AcDbEntity
  8
Layer_1
 62
7
100
AcDbLine
 10
106.321575
 20
86.571564
 30
0.0
 11
106.321575
 21
89.071562
 31
0.0
  0
LINE
  5
173
100
AcDbEntity
  8
Layer_1
 62
7
100
AcDbLine
 10
105.321577
 20
86.571564
 30
0.0
 11
106.321575
 21
86.571564
 31
0.0
  0
SPLINE
  5
174
100
AcDbEntity
  8
Layer_1
 62
7
100
AcDbSpline
 70
8
 71
3
 72
8
 73
4
 74
0
 40
0
 40
0
 40
0
 40
0
 40
1
 40
1
 40
1
 40
1
 10
105.321577
 20
86.571564
 30
0.0
 10
105.255269
 20
86.571570
 30
0.0
 10
105.191675
 20
86.545233
 30
0.0
 10
105.144787
 20
86.498348
 30
0.0
  0
SPLINE
  5
175
100
AcDbEntity
  8
Layer_1
 62
7
100
AcDbSpline
 70
8
 71
3
 72
8
 73
4
 74
0
 40
0
 40
0
 40
0
 40
0
 40
1
 40
1
 40
1
 40
1
 10
105.144787
 20
86.498348
 30
0.0
 10
105.097898
 20
86.451463
 30
0.0
 10
105.071556
 20
86.387871
 30
0.0
 10
105.071556
 20
86.321563
 30
0.0
  0
LINE
  5
176
100
AcDbEntity
  8
Layer_1
 62
7
100
AcDbLine
 10
105.071556
 20
82.621562
 30
0.0
 11
105.071556
 21
86.321563
 31
0.0
  0
SPLINE
  5
177
100
AcDbEntity
  8
Layer_1
 62
7
100
AcDbSpline
 70
8
 71
3
 72
8
 73
4
 74
0
 40
0
 40
0
 40
0
 40
0
 40
1
 40
1
 40
1
 40
1
 10
105.071556
 20
82.621562
 30
0.0
 10
105.071557
 20
82.555255
 30
0.0
 10
105.097899
 20
82.491664
 30
0.0
 10
105.144788
 20
82.444780
 30
0.0
  0
SPLINE
  5
178
100
AcDbEntity
  8
Layer_1
 62
7
100
AcDbSpline
 70
8
 71
3
 72
8
 73
4
 74
0
 40
0
 40
0
 40
0
 40
0
 40
1
 40
1
 40
1
 40
1
 10
105.144788
 20
82.444780
 30
0.0
 10
105.191676
 20
82.397895
 30
0.0
 10
105.255270
 20
82.371559
 30
0.0
 10
105.321577
 20
82.371564
 30
0.0
  0
LINE
  5
179
100
AcDbEntity
  8
Layer_1
 62
7
100
AcDbLine
 10
106.321575
 20
82.371564
 30
0.0
 11
105.321577
 21
82.371564
 31
0.0
  0
LINE
  5
17a
100
AcDbEntity
  8
Layer_1
 62
7
100
AcDbLine
 10
106.321575
 20
78.571563
 30
0.0
 11
106.321575
 21
82.371564
 31
0.0
  0
LINE
  5
17b
100
AcDbEntity
  8
Layer_1
 62
7
100
AcDbLine
 10
106.321575
 20
78.571563
 30
0.0
 11
91.071556
 21
78.571563
 31
0.0
  0
LINE
  5
17c
100
AcDbEntity
  8
Layer_1
 62
7
100
AcDbLine
 10
91.071556
 20
78.571563
 30
0.0
 11
91.071556
 21
74.071564
 31
0.0
  0
LINE
  5
17d
100
AcDbEntity
  8
Layer_1
 62
7
100
AcDbLine
 10
91.071556
 20
74.071564
 30
0.0
 11
81.071576
 21
74.071564
 31
0.0
  0
LINE
  5
17e
100
AcDbEntity
  8
Layer_1
 62
7
100
AcDbLine
 10
81.071576
 20
74.071564
 30
0.0
 11
81.071576
 21
78.571563
 31
0.0
  0
LINE
  5
17f
100
AcDbEntity
  8
Layer_1
 62
7
100
AcDbLine
 10
81.071576
 20
78.571563
 30
0.0
 11
78.571567
 21
78.571563
 31
0.0
  0
LINE
  5
180
100
AcDbEntity
  8
Layer_1
 62
7
100
AcDbLine
 10
78.571567
 20
78.571563
 30
0.0
 11
78.571567
 21
84.321565
 31
0.0
  0
LINE
  5
181
100
AcDbEntity
  8
Layer_1
 62
7
100
AcDbLine
 10
78.571567
 20
84.321565
 30
0.0
 11
82.371576
 21
84.321565
 31
0.0
  0
LINE
  5
182
100
AcDbEntity
  8
Layer_1
 62
7
100
AcDbLine
 10
82.371576
 20
84.321565
 30
0.0
 11
82.371576
 21
83.321564
 31
0.0
  0
SPLINE
  5
183
100
AcDbEntity
  8
Layer_1
 62
7
100
AcDbSpline
 70
8
 71
3
 72
8
 73
4
 74
0
 40
0
 40
0
 40
0
 40
0
 40
1
 40
1
 40
1
 40
1
 10
82.371576
 20
83.321564
 30
0.0
 10
82.371576
 20
83.183495
 30
0.0
 10
82.483500
 20
83.071567
 30
0.0
 10
82.621569
 20
83.071563
 30
0.0
  0
LINE
  5
184
100
AcDbEntity
  8
Layer_1
 62
7
100
AcDbLine
 10
82.621569
 20
83.071563
 30
0.0
 11
86.321559
 21
83.071563
 31
0.0
  0
SPLINE
  5
185
100
AcDbEntity
  8
Layer_1
 62
7
100
AcDbSpline
 70
8
 71
3
 72
8
 73
4
 74
0
 40
0
 40
0
 40
0
 40
0
 40
1
 40
1
 40
1
 40
1
 10
86.321559
 20
83.071563
 30
0.0
 10
86.387866
 20
83.071557
 30
0.0
 10
86.451460
 20
83.097894
 30
0.0
 10
86.498349
 20
83.144779
 30
0.0
  0
SPLINE
  5
186
100
AcDbEntity
  8
Layer_1
 62
7
100
AcDbSpline
 70
8
 71
3
 72
8
 73
4
 74
0
 40
0
 40
0
 40
0
 40
0
 40
1
 40
1
 40
1
 40
1
 10
86.498349
 20
83.144779
 30
0.0
 10
86.545237
 20
83.191664
 30
0.0
 10
86.571579
 20
83.255256
 30
0.0
 10
86.571579
 20
83.321564
 30
0.0
  0
LINE
  5
187
100
AcDbEntity
  8
Layer_1
 62
7
100
AcDbLine
 10
86.571579
 20
83.321564
 30
0.0
 11
86.571579
 21
84.321565
 31
0.0
  0
LINE
  5
188
100
AcDbEntity
  8
Layer_1
 62
7
100
AcDbLine
 10
86.571579
 20
84.321565
 30
0.0
 11
89.071560
 21
84.321565
 31
0.0
  0
LINE
  5
189
100
AcDbEntity
  8
Layer_1
 62
7
100
AcDbLine
 10
89.071560
 20
84.321565
 30
0.0
 11
89.071560
 21
87.821563
 31
0.0
  0
LINE
  5
18a
100
AcDbEntity
  8
Layer_1
 62
7
100
AcDbLine
 10
89.071560
 20
87.821563
 30
0.0
 11
86.571579
 21
87.821563
 31
0.0
  0
LINE
  5
18b
100
AcDbEntity
  8
Layer_1
 62
7
100
AcDbLine
 10
86.571579
 20
87.821563
 30
0.0
 11
86.571579
 21
88.821564
 31
0.0
  0
SPLINE
  5
18c
100
AcDbEntity
  8
Layer_1
 62
7
100
AcDbSpline
 70
8
 71
3
 72
8
 73
4
 74
0
 40
0
 40
0
 40
0
 40
0
 40
1
 40
1
 40
1
 40
1
 10
86.571579
 20
88.821564
 30
0.0
 10
86.571579
 20
88.887871
 30
0.0
 10
86.545236
 20
88.951463
 30
0.0
 10
86.498348
 20
88.998347
 30
0.0
  0
SPLINE
  5
18d
100
AcDbEntity
  8
Layer_1
 62
7
100
AcDbSpline
 70
8
 71
3
 72
8
 73
4
 74
0
 40
0
 40
0
 40
0
 40
0
 40
1
 40
1
 40
1
 40
1
 10
86.498348
 20
88.998347
 30
0.0
 10
86.451459
 20
89.045231
 30
0.0
 10
86.387866
 20
89.071568
 30
0.0
 10
86.321559
 20
89.071562
 30
0.0
  0
LINE
  5
18e
100
AcDbEntity
  8
Layer_1
 62
7
100
AcDbLine
 10
86.321559
 20
89.071562
 30
0.0
 11
82.621569
 21
89.071562
 31
0.0
  0
SPLINE
  5
18f
100
AcDbEntity
  8
Layer_1
 62
7
100
AcDbSpline
 70
8
 71
3
 72
8
 73
4
 74
0
 40
0
 40
0
 40
0
 40
0
 40
1
 40
1
 40
1
 40
1
 10
82.621569
 20
89.071562
 30
0.0
 10
82.483501
 20
89.071558
 30
0.0
 10
82.371577
 20
88.959632
 30
0.0
 10
82.371576
 20
88.821564
 30
0.0
  0
LINE
  5
190
100
AcDbEntity
  8
Layer_1
 62
7
100
AcDbLine
 10
82.371576
 20
88.821564
 30
0.0
 11
82.371576
 21
87.821563
 31
0.0
  0
LINE
  5
191
100
AcDbEntity
  8
Layer_1
 62
7
100
AcDbLine
 10
82.371576
 20
87.821563
 30
0.0
 11
78.571567
 21
87.821563
 31
0.0
  0
LINE
  5
192
100
AcDbEntity
  8
Layer_1
 62
7
100
AcDbLine
 10
78.571567
 20
87.821563
 30
0.0
 11
78.571567
 21
93.571564
 31
0.0
  0
LINE
  5
193
100
AcDbEntity
  8
Layer_1
 62
7
100
AcDbLine
 10
78.571567
 20
93.571564
 30
0.0
 11
74.071562
 21
93.571564
 31
0.0
  0
LINE
  5
194
100
AcDbEntity
  8
Layer_1
 62
7
100
AcDbLine
 10
74.071562
 20
93.571564
 30
0.0
 11
74.071562
 21
103.571564
 31
0.0
  0
LINE
  5
195
100
AcDbEntity
  8
Layer_1
 62
7
100
AcDbLine
 10
74.071562
 20
103.571564
 30
0.0
 11
78.571567
 21
103.571564
 31
0.0
  0
LINE
  5
196
100
AcDbEntity
  8
Layer_1
 62
7
100
AcDbLine
 10
78.571567
 20
103.571564
 30
0.0
 11
78.571567
 21
113.571564
 31
0.0
  0
LINE
  5
197
100
AcDbEntity
  8
Layer_1
 62
7
100
AcDbLine
 10
78.571567
 20
113.571564
 30
0.0
 11
74.071562
 21
113.571564
 31
0.0
  0
LINE
  5
198
100
AcDbEntity
  8
Layer_1
 62
7
100
AcDbLine
 10
74.071562
 20
113.571564
 30
0.0
 11
74.071562
 21
123.571564
 31
0.0
  0
LINE
  5
199
100
AcDbEntity
  8
Layer_1
 62
7
100
AcDbLine
 10
74.071562
 20
123.571564
 30
0.0
 11
78.571567
 21
123.571564
 31
0.0
  0
LINE
  5
19a
100
AcDbEntity
  8
Layer_1
 62
7
100
AcDbLine
 10
78.571567
 20
123.571564
 30
0.0
 11
78.571567
 21
132.571563
 31
0.0
  0
LINE
  5
19b
100
AcDbEntity
  8
Layer_1
 62
7
100
AcDbLine
 10
78.571567
 20
132.571563
 30
0.0
 11
87.628135
 21
122.479968
 31
0.0
  0
SPLINE
  5
19c
100
AcDbEntity
  8
Layer_1
 62
7
100
AcDbSpline
 70
8
 71
3
 72
8
 73
4
 74
0
 40
0
 40
0
 40
0
 40
0
 40
1
 40
1
 40
1
 40
1
 10
106.876565
 20
121.633750
 30
0.0
 10
101.144192
 20
125.555627
 30
0.0
 10
93.682561
 20
125.883663
 30
0.0
 10
87.628135
 20
122.479968
 30
0.0
  0
SPLINE
  5
19d
100
AcDbEntity
  8
Layer_1
 62
7
100
AcDbSpline
 70
8
 71
3
 72
8
 73
4
 74
0
 40
0
 40
0
 40
0
 40
0
 40
1
 40
1
 40
1
 40
1
 10
111.633759
 20
116.876564
 30
0.0
 10
112.389575
 20
118.242010
 30
0.0
 10
112.150014
 20
119.942888
 30
0.0
 10
111.046451
 20
121.046449
 30
0.0
  0
SPLINE
  5
19e
100
AcDbEntity
  8
Layer_1
 62
7
100
AcDbSpline
 70
8
 71
3
 72
8
 73
4
 74
0
 40
0
 40
0
 40
0
 40
0
 40
1
 40
1
 40
1
 40
1
 10
111.046451
 20
121.046449
 30
0.0
 10
109.942888
 20
122.150010
 30
0.0
 10
108.242010
 20
122.389568
 30
0.0
 10
106.876565
 20
121.633750
 30
0.0
  0
SPLINE
  5
19f
100
AcDbEntity
  8
Layer_1
 62
7
100
AcDbSpline
 70
8
 71
3
 72
8
 73
4
 74
0
 40
0
 40
0
 40
0
 40
0
 40
1
 40
1
 40
1
 40
1
 10
111.423250
 20
95.965416
 30
0.0
 10
115.875991
 20
102.200544
 30
0.0
 10
115.960075
 20
110.553058
 30
0.0
 10
111.633759
 20
116.876564
 30
0.0
  0
SPLINE
  5
1a0
100
AcDbEntity
  8
Layer_1
 62
7
100
AcDbSpline
 70
8
 71
3
 72
8
 73
4
 74
0
 40
0
 40
0
 40
0
 40
0
 40
1
 40
1
 40
1
 40
1
 10
108.571563
 20
120.121564
 30
0.0
 10
108.017579
 20
120.121898
 30
0.0
 10
107.505533
 20
119.826543
 30
0.0
 10
107.228445
 20
119.346834
 30
0.0
  0
SPLINE
  5
1a1
100
AcDbEntity
  8
Layer_1
 62
7
100
AcDbSpline
 70
8
 71
3
 72
8
 73
4
 74
0
 40
0
 40
0
 40
0
 40
0
 40
1
 40
1
 40
1
 40
1
 10
107.228445
 20
119.346834
 30
0.0
 10
106.951356
 20
118.867125
 30
0.0
 10
106.951356
 20
118.276003
 30
0.0
 10
107.228445
 20
117.796294
 30
0.0
  0
SPLINE
  5
1a2
100
AcDbEntity
  8
Layer_1
 62
7
100
AcDbSpline
 70
8
 71
3
 72
8
 73
4
 74
0
 40
0
 40
0
 40
0
 40
0
 40
1
 40
1
 40
1
 40
1
 10
107.228445
 20
117.796294
 30
0.0
 10
107.505533
 20
117.316585
 30
0.0
 10
108.017579
 20
117.021230
 30
0.0
 10
108.571563
 20
117.021564
 30
0.0
  0
SPLINE
  5
1a3
100
AcDbEntity
  8
Layer_1
 62
7
100
AcDbSpline
 70
8
 71
3
 72
8
 73
4
 74
0
 40
0
 40
0
 40
0
 40
0
 40
1
 40
1
 40
1
 40
1
 10
108.571563
 20
117.021564
 30
0.0
 10
109.125548
 20
117.021230
 30
0.0
 10
109.637593
 20
117.316585
 30
0.0
 10
109.914682
 20
117.796294
 30
0.0
  0
SPLINE
  5
1a4
100
AcDbEntity
  8
Layer_1
 62
7
100
AcDbSpline
 70
8
 71
3
 72
8
 73
4
 74
0
 40
0
 40
0
 40
0
 40
0
 40
1
 40
1
 40
1
 40
1
 10
109.914682
 20
117.796294
 30
0.0
 10
110.191771
 20
118.276003
 30
0.0
 10
110.191771
 20
118.867125
 30
0.0
 10
109.914682
 20
119.346834
 30
0.0
  0
SPLINE
  5
1a5
100
AcDbEntity
  8
Layer_1
 62
7
100
AcDbSpline
 70
8
 71
3
 72
8
 73
4
 74
0
 40
0
 40
0
 40
0
 40
0
 40
1
 40
1
 40
1
 40
1
 10
109.914682
 20
119.346834
 30
0.0
 10
109.637593
 20
119.826543
 30
0.0
 10
109.125548
 20
120.121898
 30
0.0
 10
108.571563
 20
120.121564
 30
0.0
  0
LINE
  5
1a6
100
AcDbEntity
  8
Layer_1
 62
7
100
AcDbLine
 10
108.571563
 20
120.121564
 30
0.0
 11
108.571563
 21
120.121564
 31
0.0
  0
LINE
  5
1a7
100
AcDbEntity
  8
Layer_1
 62
7
100
AcDbLine
 10
60.271553
 20
88.321559
 30
0.0
 11
60.271553
 21
89.321560
 31
0.0
  0
SPLINE
  5
1a8
100
AcDbEntity
  8
Layer_1
 62
7
100
AcDbSpline
 70
8
 71
3
 72
8
 73
4
 74
0
 40
0
 40
0
 40
0
 40
0
 40
1
 40
1
 40
1
 40
1
 10
60.271553
 20
89.321560
 30
0.0
 10
60.271552
 20
89.459631
 30
0.0
 10
60.159623
 20
89.571559
 30
0.0
 10
60.021552
 20
89.571558
 30
0.0
  0
LINE
  5
1a9
100
AcDbEntity
  8
Layer_1
 62
7
100
AcDbLine
 10
60.021552
 20
89.571558
 30
0.0
 11
56.321554
 21
89.571558
 31
0.0
  0
SPLINE
  5
1aa
100
AcDbEntity
  8
Layer_1
 62
7
100
AcDbSpline
 70
8
 71
3
 72
8
 73
4
 74
0
 40
0
 40
0
 40
0
 40
0
 40
1
 40
1
 40
1
 40
1
 10
56.321554
 20
89.571558
 30
0.0
 10
56.183483
 20
89.571559
 30
0.0
 10
56.071554
 20
89.459631
 30
0.0
 10
56.071553
 20
89.321560
 30
0.0
  0
LINE
  5
1ab
100
AcDbEntity
  8
Layer_1
 62
7
100
AcDbLine
 10
56.071553
 20
89.321560
 30
0.0
 11
56.071553
 21
88.321559
 31
0.0
  0
LINE
  5
1ac
100
AcDbEntity
  8
Layer_1
 62
7
100
AcDbLine
 10
56.071553
 20
88.321559
 30
0.0
 11
53.571552
 21
88.321559
 31
0.0
  0
LINE
  5
1ad
100
AcDbEntity
  8
Layer_1
 62
7
100
AcDbLine
 10
53.571552
 20
88.321559
 30
0.0
 11
53.571552
 21
84.821561
 31
0.0
  0
LINE
  5
1ae
100
AcDbEntity
  8
Layer_1
 62
7
100
AcDbLine
 10
53.571552
 20
84.821561
 30
0.0
 11
56.071553
 21
84.821561
 31
0.0
  0
LINE
  5
1af
100
AcDbEntity
  8
Layer_1
 62
7
100
AcDbLine
 10
56.071553
 20
84.821561
 30
0.0
 11
56.071553
 21
83.821560
 31
0.0
  0
SPLINE
  5
1b0
100
AcDbEntity
  8
Layer_1
 62
7
100
AcDbSpline
 70
8
 71
3
 72
8
 73
4
 74
0
 40
0
 40
0
 40
0
 40
0
 40
1
 40
1
 40
1
 40
1
 10
56.071553
 20
83.821560
 30
0.0
 10
56.071552
 20
83.755256
 30
0.0
 10
56.097892
 20
83.691667
 30
0.0
 10
56.144776
 20
83.644782
 30
0.0
  0
SPLINE
  5
1b1
100
AcDbEntity
  8
Layer_1
 62
7
100
AcDbSpline
 70
8
 71
3
 72
8
 73
4
 74
0
 40
0
 40
0
 40
0
 40
0
 40
1
 40
1
 40
1
 40
1
 10
56.144776
 20
83.644782
 30
0.0
 10
56.191660
 20
83.597898
 30
0.0
 10
56.255249
 20
83.571559
 30
0.0
 10
56.321554
 20
83.571559
 30
0.0
  0
LINE
  5
1b2
100
AcDbEntity
  8
Layer_1
 62
7
100
AcDbLine
 10
56.321554
 20
83.571559
 30
0.0
 11
60.021552
 21
83.571559
 31
0.0
  0
SPLINE
  5
1b3
100
AcDbEntity
  8
Layer_1
 62
7
100
AcDbSpline
 70
8
 71
3
 72
8
 73
4
 74
0
 40
0
 40
0
 40
0
 40
0
 40
1
 40
1
 40
1
 40
1
 10
60.021552
 20
83.571559
 30
0.0
 10
60.087856
 20
83.571559
 30
0.0
 10
60.151445
 20
83.597898
 30
0.0
 10
60.198329
 20
83.644782
 30
0.0
  0
SPLINE
  5
1b4
100
AcDbEntity
  8
Layer_1
 62
7
100
AcDbSpline
 70
8
 71
3
 72
8
 73
4
 74
0
 40
0
 40
0
 40
0
 40
0
 40
1
 40
1
 40
1
 40
1
 10
60.198329
 20
83.644782
 30
0.0
 10
60.245214
 20
83.691667
 30
0.0
 10
60.271553
 20
83.755256
 30
0.0
 10
60.271553
 20
83.821560
 30
0.0
  0
LINE
  5
1b5
100
AcDbEntity
  8
Layer_1
 62
7
100
AcDbLine
 10
60.271553
 20
83.821560
 30
0.0
 11
60.271553
 21
84.821561
 31
0.0
  0
LINE
  5
1b6
100
AcDbEntity
  8
Layer_1
 62
7
100
AcDbLine
 10
60.271553
 20
84.821561
 30
0.0
 11
64.071554
 21
84.821561
 31
0.0
  0
LINE
  5
1b7
100
AcDbEntity
  8
Layer_1
 62
7
100
AcDbLine
 10
64.071554
 20
74.071558
 30
0.0
 11
64.071554
 21
84.821561
 31
0.0
  0
LINE
  5
1b8
100
AcDbEntity
  8
Layer_1
 62
7
100
AcDbLine
 10
10.071552
 20
74.071558
 30
0.0
 11
64.071554
 21
74.071558
 31
0.0
  0
LINE
  5
1b9
100
AcDbEntity
  8
Layer_1
 62
7
100
AcDbLine
 10
10.071552
 20
129.071561
 30
0.0
 11
10.071552
 21
74.071558
 31
0.0
  0
LINE
  5
1ba
100
AcDbEntity
  8
Layer_1
 62
7
100
AcDbLine
 10
64.071554
 20
129.071561
 30
0.0
 11
10.071552
 21
129.071561
 31
0.0
  0
LINE
  5
1bb
100
AcDbEntity
  8
Layer_1
 62
7
100
AcDbLine
 10
64.071554
 20
118.321559
 30
0.0
 11
64.071554
 21
129.071561
 31
0.0
  0
LINE
  5
1bc
100
AcDbEntity
  8
Layer_1
 62
7
100
AcDbLine
 10
64.071554
 20
118.321559
 30
0.0
 11
60.271553
 21
118.321559
 31
0.0
  0
LINE
  5
1bd
100
AcDbEntity
  8
Layer_1
 62
7
100
AcDbLine
 10
60.271553
 20
118.321559
 30
0.0
 11
60.271553
 21
119.321560
 31
0.0
  0
SPLINE
  5
1be
100
AcDbEntity
  8
Layer_1
 62
7
100
AcDbSpline
 70
8
 71
3
 72
8
 73
4
 74
0
 40
0
 40
0
 40
0
 40
0
 40
1
 40
1
 40
1
 40
1
 10
60.271553
 20
119.321560
 30
0.0
 10
60.271553
 20
119.387864
 30
0.0
 10
60.245214
 20
119.451453
 30
0.0
 10
60.198329
 20
119.498337
 30
0.0
  0
SPLINE
  5
1bf
100
AcDbEntity
  8
Layer_1
 62
7
100
AcDbSpline
 70
8
 71
3
 72
8
 73
4
 74
0
 40
0
 40
0
 40
0
 40
0
 40
1
 40
1
 40
1
 40
1
 10
60.198329
 20
119.498337
 30
0.0
 10
60.151445
 20
119.545221
 30
0.0
 10
60.087856
 20
119.571561
 30
0.0
 10
60.021552
 20
119.571560
 30
0.0
  0
LINE
  5
1c0
100
AcDbEntity
  8
Layer_1
 62
7
100
AcDbLine
 10
60.021552
 20
119.571560
 30
0.0
 11
56.321554
 21
119.571560
 31
0.0
  0
SPLINE
  5
1c1
100
AcDbEntity
  8
Layer_1
 62
7
100
AcDbSpline
 70
8
 71
3
 72
8
 73
4
 74
0
 40
0
 40
0
 40
0
 40
0
 40
1
 40
1
 40
1
 40
1
 10
56.321554
 20
119.571560
 30
0.0
 10
56.255249
 20
119.571561
 30
0.0
 10
56.191660
 20
119.545221
 30
0.0
 10
56.144776
 20
119.498337
 30
0.0
  0
SPLINE
  5
1c2
100
AcDbEntity
  8
Layer_1
 62
7
100
AcDbSpline
 70
8
 71
3
 72
8
 73
4
 74
0
 40
0
 40
0
 40
0
 40
0
 40
1
 40
1
 40
1
 40
1
 10
56.144776
 20
119.498337
 30
0.0
 10
56.097892
 20
119.451453
 30
0.0
 10
56.071552
 20
119.387864
 30
0.0
 10
56.071553
 20
119.321560
 30
0.0
  0
LINE
  5
1c3
100
AcDbEntity
  8
Layer_1
 62
7
100
AcDbLine
 10
56.071553
 20
119.321560
 30
0.0
 11
56.071553
 21
118.321559
 31
0.0
  0
LINE
  5
1c4
100
AcDbEntity
  8
Layer_1
 62
7
100
AcDbLine
 10
56.071553
 20
118.321559
 30
0.0
 11
53.571552
 21
118.321559
 31
0.0
  0
LINE
  5
1c5
100
AcDbEntity
  8
Layer_1
 62
7
100
AcDbLine
 10
53.571552
 20
118.321559
 30
0.0
 11
53.571552
 21
114.821560
 31
0.0
  0
LINE
  5
1c6
100
AcDbEntity
  8
Layer_1
 62
7
100
AcDbLine
 10
53.571552
 20
114.821560
 30
0.0
 11
56.071553
 21
114.821560
 31
0.0
  0
LINE
  5
1c7
100
AcDbEntity
  8
Layer_1
 62
7
100
AcDbLine
 10
56.071553
 20
114.821560
 30
0.0
 11
56.071553
 21
113.821559
 31
0.0
  0
SPLINE
  5
1c8
100
AcDbEntity
  8
Layer_1
 62
7
100
AcDbSpline
 70
8
 71
3
 72
8
 73
4
 74
0
 40
0
 40
0
 40
0
 40
0
 40
1
 40
1
 40
1
 40
1
 10
56.071553
 20
113.821559
 30
0.0
 10
56.071552
 20
113.755255
 30
0.0
 10
56.097892
 20
113.691666
 30
0.0
 10
56.144776
 20
113.644782
 30
0.0
  0
SPLINE
  5
1c9
100
AcDbEntity
  8
Layer_1
 62
7
100
AcDbSpline
 70
8
 71
3
 72
8
 73
4
 74
0
 40
0
 40
0
 40
0
 40
0
 40
1
 40
1
 40
1
 40
1
 10
56.144776
 20
113.644782
 30
0.0
 10
56.191660
 20
113.597897
 30
0.0
 10
56.255249
 20
113.571558
 30
0.0
 10
56.321554
 20
113.571558
 30
0.0
  0
LINE
  5
1ca
100
AcDbEntity
  8
Layer_1
 62
7
100
AcDbLine
 10
56.321554
 20
113.571558
 30
0.0
 11
60.021552
 21
113.571558
 31
0.0
  0
SPLINE
  5
1cb
100
AcDbEntity
  8
Layer_1
 62
7
100
AcDbSpline
 70
8
 71
3
 72
8
 73
4
 74
0
 40
0
 40
0
 40
0
 40
0
 40
1
 40
1
 40
1
 40
1
 10
60.021552
 20
113.571558
 30
0.0
 10
60.087856
 20
113.571558
 30
0.0
 10
60.151445
 20
113.597897
 30
0.0
 10
60.198329
 20
113.644782
 30
0.0
  0
SPLINE
  5
1cc
100
AcDbEntity
  8
Layer_1
 62
7
100
AcDbSpline
 70
8
 71
3
 72
8
 73
4
 74
0
 40
0
 40
0
 40
0
 40
0
 40
1
 40
1
 40
1
 40
1
 10
60.198329
 20
113.644782
 30
0.0
 10
60.245214
 20
113.691666
 30
0.0
 10
60.271553
 20
113.755255
 30
0.0
 10
60.271553
 20
113.821559
 30
0.0
  0
LINE
  5
1cd
100
AcDbEntity
  8
Layer_1
 62
7
100
AcDbLine
 10
60.271553
 20
113.821559
 30
0.0
 11
60.271553
 21
114.821560
 31
0.0
  0
LINE
  5
1ce
100
AcDbEntity
  8
Layer_1
 62
7
100
AcDbLine
 10
60.271553
 20
114.821560
 30
0.0
 11
64.071554
 21
114.821560
 31
0.0
  0
LINE
  5
1cf
100
AcDbEntity
  8
Layer_1
 62
7
100
AcDbLine
 10
64.071554
 20
106.571558
 30
0.0
 11
64.071554
 21
114.821560
 31
0.0
  0
LINE
  5
1d0
100
AcDbEntity
  8
Layer_1
 62
7
100
AcDbLine
 10
68.571553
 20
106.571558
 30
0.0
 11
64.071554
 21
106.571558
 31
0.0
  0
LINE
  5
1d1
100
AcDbEntity
  8
Layer_1
 62
7
100
AcDbLine
 10
68.571553
 20
96.571558
 30
0.0
 11
68.571553
 21
106.571558
 31
0.0
  0
LINE
  5
1d2
100
AcDbEntity
  8
Layer_1
 62
7
100
AcDbLine
 10
64.071554
 20
96.571558
 30
0.0
 11
68.571553
 21
96.571558
 31
0.0
  0
LINE
  5
1d3
100
AcDbEntity
  8
Layer_1
 62
7
100
AcDbLine
 10
64.071554
 20
88.321559
 30
0.0
 11
64.071554
 21
96.571558
 31
0.0
  0
LINE
  5
1d4
100
AcDbEntity
  8
Layer_1
 62
7
100
AcDbLine
 10
64.071554
 20
88.321559
 30
0.0
 11
60.271553
 21
88.321559
 31
0.0
  0
LINE
  5
1d5
100
AcDbEntity
  8
Layer_1
 62
7
100
AcDbLine
 10
49.171550
 20
76.221561
 30
0.0
 11
49.171550
 21
80.921560
 31
0.0
  0
LINE
  5
1d6
100
AcDbEntity
  8
Layer_1
 62
7
100
AcDbLine
 10
49.171550
 20
80.921560
 30
0.0
 11
38.971559
 21
80.921560
 31
0.0
  0
LINE
  5
1d7
100
AcDbEntity
  8
Layer_1
 62
7
100
AcDbLine
 10
38.971559
 20
80.921560
 30
0.0
 11
38.971559
 21
76.221561
 31
0.0
  0
LINE
  5
1d8
100
AcDbEntity
  8
Layer_1
 62
7
100
AcDbLine
 10
38.971559
 20
76.221561
 30
0.0
 11
49.171550
 21
76.221561
 31
0.0
  0
LINE
  5
1d9
100
AcDbEntity
  8
Layer_1
 62
7
100
AcDbLine
 10
49.171550
 20
122.221559
 30
0.0
 11
49.171550
 21
126.921558
 31
0.0
  0
LINE
  5
1da
100
AcDbEntity
  8
Layer_1
 62
7
100
AcDbLine
 10
49.171550
 20
126.921558
 30
0.0
 11
38.971559
 21
126.921558
 31
0.0
  0
LINE
  5
1db
100
AcDbEntity
  8
Layer_1
 62
7
100
AcDbLine
 10
38.971559
 20
126.921558
 30
0.0
 11
38.971559
 21
122.221559
 31
0.0
  0
LINE
  5
1dc
100
AcDbEntity
  8
Layer_1
 62
7
100
AcDbLine
 10
38.971559
 20
122.221559
 30
0.0
 11
49.171550
 21
122.221559
 31
0.0
  0
LINE
  5
1dd
100
AcDbEntity
  8
Layer_1
 62
7
100
AcDbLine
 10
29.171561
 20
122.221559
 30
0.0
 11
29.171561
 21
126.921558
 31
0.0
  0
LINE
  5
1de
100
AcDbEntity
  8
Layer_1
 62
7
100
AcDbLine
 10
29.171561
 20
126.921558
 30
0.0
 11
18.971542
 21
126.921558
 31
0.0
  0
LINE
  5
1df
100
AcDbEntity
  8
Layer_1
 62
7
100
AcDbLine
 10
18.971542
 20
126.921558
 30
0.0
 11
18.971542
 21
122.221559
 31
0.0
  0
LINE
  5
1e0
100
AcDbEntity
  8
Layer_1
 62
7
100
AcDbLine
 10
18.971542
 20
122.221559
 30
0.0
 11
29.171561
 21
122.221559
 31
0.0
  0
LINE
  5
1e1
100
AcDbEntity
  8
Layer_1
 62
7
100
AcDbLine
 10
18.971542
 20
80.921560
 30
0.0
 11
18.971542
 21
76.221561
 31
0.0
  0
LINE
  5
1e2
100
AcDbEntity
  8
Layer_1
 62
7
100
AcDbLine
 10
18.971542
 20
76.221561
 30
0.0
 11
29.171561
 21
76.221561
 31
0.0
  0
LINE
  5
1e3
100
AcDbEntity
  8
Layer_1
 62
7
100
AcDbLine
 10
29.171561
 20
76.221561
 30
0.0
 11
29.171561
 21
80.921560
 31
0.0
  0
LINE
  5
1e4
100
AcDbEntity
  8
Layer_1
 62
7
100
AcDbLine
 10
29.171561
 20
80.921560
 30
0.0
 11
18.971542
 21
80.921560
 31
0.0
  0
SPLINE
  5
1e5
100
AcDbEntity
  8
Layer_1
 62
7
100
AcDbSpline
 70
8
 71
3
 72
8
 73
4
 74
0
 40
0
 40
0
 40
0
 40
0
 40
1
 40
1
 40
1
 40
1
 10
16.611544
 20
108.021560
 30
0.0
 10
17.467220
 20
108.022076
 30
0.0
 10
18.160608
 20
108.715883
 30
0.0
 10
18.160608
 20
109.571559
 30
0.0
  0
SPLINE
  5
1e6
100
AcDbEntity
  8
Layer_1
 62
7
100
AcDbSpline
 70
8
 71
3
 72
8
 73
4
 74
0
 40
0
 40
0
 40
0
 40
0
 40
1
 40
1
 40
1
 40
1
 10
18.160608
 20
109.571559
 30
0.0
 10
18.160608
 20
110.427235
 30
0.0
 10
17.467220
 20
111.121043
 30
0.0
 10
16.611544
 20
111.121559
 30
0.0
  0
SPLINE
  5
1e7
100
AcDbEntity
  8
Layer_1
 62
7
100
AcDbSpline
 70
8
 71
3
 72
8
 73
4
 74
0
 40
0
 40
0
 40
0
 40
0
 40
1
 40
1
 40
1
 40
1
 10
16.611544
 20
111.121559
 30
0.0
 10
16.057559
 20
111.121893
 30
0.0
 10
15.545513
 20
110.826538
 30
0.0
 10
15.268425
 20
110.346829
 30
0.0
  0
SPLINE
  5
1e8
100
AcDbEntity
  8
Layer_1
 62
7
100
AcDbSpline
 70
8
 71
3
 72
8
 73
4
 74
0
 40
0
 40
0
 40
0
 40
0
 40
1
 40
1
 40
1
 40
1
 10
15.268425
 20
110.346829
 30
0.0
 10
14.991336
 20
109.867120
 30
0.0
 10
14.991336
 20
109.275998
 30
0.0
 10
15.268425
 20
108.796289
 30
0.0
  0
SPLINE
  5
1e9
100
AcDbEntity
  8
Layer_1
 62
7
100
AcDbSpline
 70
8
 71
3
 72
8
 73
4
 74
0
 40
0
 40
0
 40
0
 40
0
 40
1
 40
1
 40
1
 40
1
 10
15.268425
 20
108.796289
 30
0.0
 10
15.545513
 20
108.316580
 30
0.0
 10
16.057559
 20
108.021225
 30
0.0
 10
16.611544
 20
108.021560
 30
0.0
  0
LINE
  5
1ea
100
AcDbEntity
  8
Layer_1
 62
7
100
AcDbLine
 10
16.611544
 20
108.021560
 30
0.0
 11
16.611544
 21
108.021560
 31
0.0
  0
SPLINE
  5
1eb
100
AcDbEntity
  8
Layer_1
 62
7
100
AcDbSpline
 70
8
 71
3
 72
8
 73
4
 74
0
 40
0
 40
0
 40
0
 40
0
 40
1
 40
1
 40
1
 40
1
 10
16.611544
 20
92.021561
 30
0.0
 10
17.165528
 20
92.021226
 30
0.0
 10
17.677574
 20
92.316581
 30
0.0
 10
17.954662
 20
92.796290
 30
0.0
  0
SPLINE
  5
1ec
100
AcDbEntity
  8
Layer_1
 62
7
100
AcDbSpline
 70
8
 71
3
 72
8
 73
4
 74
0
 40
0
 40
0
 40
0
 40
0
 40
1
 40
1
 40
1
 40
1
 10
17.954662
 20
92.796290
 30
0.0
 10
18.231751
 20
93.275999
 30
0.0
 10
18.231751
 20
93.867121
 30
0.0
 10
17.954662
 20
94.346830
 30
0.0
  0
SPLINE
  5
1ed
100
AcDbEntity
  8
Layer_1
 62
7
100
AcDbSpline
 70
8
 71
3
 72
8
 73
4
 74
0
 40
0
 40
0
 40
0
 40
0
 40
1
 40
1
 40
1
 40
1
 10
17.954662
 20
94.346830
 30
0.0
 10
17.677574
 20
94.826539
 30
0.0
 10
17.165528
 20
95.121894
 30
0.0
 10
16.611544
 20
95.121560
 30
0.0
  0
SPLINE
  5
1ee
100
AcDbEntity
  8
Layer_1
 62
7
100
AcDbSpline
 70
8
 71
3
 72
8
 73
4
 74
0
 40
0
 40
0
 40
0
 40
0
 40
1
 40
1
 40
1
 40
1
 10
16.611544
 20
95.121560
 30
0.0
 10
16.057559
 20
95.121894
 30
0.0
 10
15.545513
 20
94.826539
 30
0.0
 10
15.268425
 20
94.346830
 30
0.0
  0
SPLINE
  5
1ef
100
AcDbEntity
  8
Layer_1
 62
7
100
AcDbSpline
 70
8
 71
3
 72
8
 73
4
 74
0
 40
0
 40
0
 40
0
 40
0
 40
1
 40
1
 40
1
 40
1
 10
15.268425
 20
94.346830
 30
0.0
 10
14.991336
 20
93.867121
 30
0.0
 10
14.991336
 20
93.275999
 30
0.0
 10
15.268425
 20
92.796290
 30
0.0
  0
SPLINE
  5
1f0
100
AcDbEntity
  8
Layer_1
 62
7
100
AcDbSpline
 70
8
 71
3
 72
8
 73
4
 74
0
 40
0
 40
0
 40
0
 40
0
 40
1
 40
1
 40
1
 40
1
 10
15.268425
 20
92.796290
 30
0.0
 10
15.545513
 20
92.316581
 30
0.0
 10
16.057559
 20
92.021226
 30
0.0
 10
16.611544
 20
92.021561
 30
0.0
  0
LINE
  5
1f1
100
AcDbEntity
  8
Layer_1
 62
7
100
AcDbLine
 10
16.611544
 20
92.021561
 30
0.0
 11
16.611544
 21
92.021561
 31
0.0
  0
SPLINE
  5
1f2
100
AcDbEntity
  8
Layer_1
 62
7
100
AcDbSpline
 70
8
 71
3
 72
8
 73
4
 74
0
 40
0
 40
0
 40
0
 40
0
 40
1
 40
1
 40
1
 40
1
 10
56.571552
 20
123.021561
 30
0.0
 10
57.125536
 20
123.021226
 30
0.0
 10
57.637582
 20
123.316581
 30
0.0
 10
57.914671
 20
123.796290
 30
0.0
  0
SPLINE
  5
1f3
100
AcDbEntity
  8
Layer_1
 62
7
100
AcDbSpline
 70
8
 71
3
 72
8
 73
4
 74
0
 40
0
 40
0
 40
0
 40
0
 40
1
 40
1
 40
1
 40
1
 10
57.914671
 20
123.796290
 30
0.0
 10
58.191759
 20
124.275999
 30
0.0
 10
58.191759
 20
124.867121
 30
0.0
 10
57.914671
 20
125.346830
 30
0.0
  0
SPLINE
  5
1f4
100
AcDbEntity
  8
Layer_1
 62
7
100
AcDbSpline
 70
8
 71
3
 72
8
 73
4
 74
0
 40
0
 40
0
 40
0
 40
0
 40
1
 40
1
 40
1
 40
1
 10
57.914671
 20
125.346830
 30
0.0
 10
57.637582
 20
125.826539
 30
0.0
 10
57.125536
 20
126.121894
 30
0.0
 10
56.571552
 20
126.121560
 30
0.0
  0
SPLINE
  5
1f5
100
AcDbEntity
  8
Layer_1
 62
7
100
AcDbSpline
 70
8
 71
3
 72
8
 73
4
 74
0
 40
0
 40
0
 40
0
 40
0
 40
1
 40
1
 40
1
 40
1
 10
56.571552
 20
126.121560
 30
0.0
 10
56.017567
 20
126.121894
 30
0.0
 10
55.505522
 20
125.826539
 30
0.0
 10
55.228433
 20
125.346830
 30
0.0
  0
SPLINE
  5
1f6
100
AcDbEntity
  8
Layer_1
 62
7
100
AcDbSpline
 70
8
 71
3
 72
8
 73
4
 74
0
 40
0
 40
0
 40
0
 40
0
 40
1
 40
1
 40
1
 40
1
 10
55.228433
 20
125.346830
 30
0.0
 10
54.951344
 20
124.867121
 30
0.0
 10
54.951344
 20
124.275999
 30
0.0
 10
55.228433
 20
123.796290
 30
0.0
  0
SPLINE
  5
1f7
100
AcDbEntity
  8
Layer_1
 62
7
100
AcDbSpline
 70
8
 71
3
 72
8
 73
4
 74
0
 40
0
 40
0
 40
0
 40
0
 40
1
 40
1
 40
1
 40
1
 10
55.228433
 20
123.796290
 30
0.0
 10
55.505522
 20
123.316581
 30
0.0
 10
56.017567
 20
123.021226
 30
0.0
 10
56.571552
 20
123.021561
 30
0.0
  0
LINE
  5
1f8
100
AcDbEntity
  8
Layer_1
 62
7
100
AcDbLine
 10
56.571552
 20
123.021561
 30
0.0
 11
56.571552
 21
123.021561
 31
0.0
  0
SPLINE
  5
1f9
100
AcDbEntity
  8
Layer_1
 62
7
100
AcDbSpline
 70
8
 71
3
 72
8
 73
4
 74
0
 40
0
 40
0
 40
0
 40
0
 40
1
 40
1
 40
1
 40
1
 10
56.571552
 20
77.021559
 30
0.0
 10
57.125536
 20
77.021225
 30
0.0
 10
57.637582
 20
77.316580
 30
0.0
 10
57.914671
 20
77.796289
 30
0.0
  0
SPLINE
  5
1fa
100
AcDbEntity
  8
Layer_1
 62
7
100
AcDbSpline
 70
8
 71
3
 72
8
 73
4
 74
0
 40
0
 40
0
 40
0
 40
0
 40
1
 40
1
 40
1
 40
1
 10
57.914671
 20
77.796289
 30
0.0
 10
58.191759
 20
78.275998
 30
0.0
 10
58.191759
 20
78.867120
 30
0.0
 10
57.914671
 20
79.346829
 30
0.0
  0
SPLINE
  5
1fb
100
AcDbEntity
  8
Layer_1
 62
7
100
AcDbSpline
 70
8
 71
3
 72
8
 73
4
 74
0
 40
0
 40
0
 40
0
 40
0
 40
1
 40
1
 40
1
 40
1
 10
57.914671
 20
79.346829
 30
0.0
 10
57.637582
 20
79.826538
 30
0.0
 10
57.125536
 20
80.121893
 30
0.0
 10
56.571552
 20
80.121559
 30
0.0
  0
SPLINE
  5
1fc
100
AcDbEntity
  8
Layer_1
 62
7
100
AcDbSpline
 70
8
 71
3
 72
8
 73
4
 74
0
 40
0
 40
0
 40
0
 40
0
 40
1
 40
1
 40
1
 40
1
 10
56.571552
 20
80.121559
 30
0.0
 10
56.017567
 20
80.121893
 30
0.0
 10
55.505522
 20
79.826538
 30
0.0
 10
55.228433
 20
79.346829
 30
0.0
  0
SPLINE
  5
1fd
100
AcDbEntity
  8
Layer_1
 62
7
100
AcDbSpline
 70
8
 71
3
 72
8
 73
4
 74
0
 40
0
 40
0
 40
0
 40
0
 40
1
 40
1
 40
1
 40
1
 10
55.228433
 20
79.346829
 30
0.0
 10
54.951344
 20
78.867120
 30
0.0
 10
54.951344
 20
78.275998
 30
0.0
 10
55.228433
 20
77.796289
 30
0.0
  0
SPLINE
  5
1fe
100
AcDbEntity
  8
Layer_1
 62
7
100
AcDbSpline
 70
8
 71
3
 72
8
 73
4
 74
0
 40
0
 40
0
 40
0
 40
0
 40
1
 40
1
 40
1
 40
1
 10
55.228433
 20
77.796289
 30
0.0
 10
55.505522
 20
77.316580
 30
0.0
 10
56.017567
 20
77.021225
 30
0.0
 10
56.571552
 20
77.021559
 30
0.0
  0
LINE
  5
1ff
100
AcDbEntity
  8
Layer_1
 62
7
100
AcDbLine
 10
56.571552
 20
77.021559
 30
0.0
 11
56.571552
 21
77.021559
 31
0.0
  0
SPLINE
  5
200
100
AcDbEntity
  8
Layer_1
 62
7
100
AcDbSpline
 70
8
 71
3
 72
8
 73
4
 74
0
 40
0
 40
0
 40
0
 40
0
 40
1
 40
1
 40
1
 40
1
 10
44.071540
 20
101.571560
 30
0.0
 10
44.064885
 20
104.880550
 30
0.0
 10
41.380549
 20
107.559492
 30
0.0
 10
38.071552
 20
107.559492
 30
0.0
  0
SPLINE
  5
201
100
AcDbEntity
  8
Layer_1
 62
7
100
AcDbSpline
 70
8
 71
3
 72
8
 73
4
 74
0
 40
0
 40
0
 40
0
 40
0
 40
1
 40
1
 40
1
 40
1
 10
38.071552
 20
107.559492
 30
0.0
 10
34.762555
 20
107.559492
 30
0.0
 10
32.078219
 20
104.880550
 30
0.0
 10
32.071564
 20
101.571560
 30
0.0
  0
LINE
  5
202
100
AcDbEntity
  8
Layer_1
 62
7
100
AcDbLine
 10
32.071564
 20
101.571560
 30
0.0
 11
32.071564
 21
99.092356
 31
0.0
  0
SPLINE
  5
203
100
AcDbEntity
  8
Layer_1
 62
7
100
AcDbSpline
 70
8
 71
3
 72
8
 73
4
 74
0
 40
0
 40
0
 40
0
 40
0
 40
1
 40
1
 40
1
 40
1
 10
32.071564
 20
99.092356
 30
0.0
 10
29.634476
 20
96.663696
 30
0.0
 10
28.901851
 20
93.005387
 30
0.0
 10
30.215762
 20
89.825540
 30
0.0
  0
SPLINE
  5
204
100
AcDbEntity
  8
Layer_1
 62
7
100
AcDbSpline
 70
8
 71
3
 72
8
 73
4
 74
0
 40
0
 40
0
 40
0
 40
0
 40
1
 40
1
 40
1
 40
1
 10
30.215762
 20
89.825540
 30
0.0
 10
31.529672
 20
86.645693
 30
0.0
 10
34.630943
 20
84.571547
 30
0.0
 10
38.071552
 20
84.571547
 30
0.0
  0
SPLINE
  5
205
100
AcDbEntity
  8
Layer_1
 62
7
100
AcDbSpline
 70
8
 71
3
 72
8
 73
4
 74
0
 40
0
 40
0
 40
0
 40
0
 40
1
 40
1
 40
1
 40
1
 10
38.071552
 20
84.571547
 30
0.0
 10
41.512161
 20
84.571547
 30
0.0
 10
44.613432
 20
86.645693
 30
0.0
 10
45.927342
 20
89.825540
 30
0.0
  0
SPLINE
  5
206
100
AcDbEntity
  8
Layer_1
 62
7
100
AcDbSpline
 70
8
 71
3
 72
8
 73
4
 74
0
 40
0
 40
0
 40
0
 40
0
 40
1
 40
1
 40
1
 40
1
 10
45.927342
 20
89.825540
 30
0.0
 10
47.241253
 20
93.005387
 30
0.0
 10
46.508628
 20
96.663696
 30
0.0
 10
44.071540
 20
99.092356
 30
0.0
  0
LINE
  5
207
100
AcDbEntity
  8
Layer_1
 62
7
100
AcDbLine
 10
44.071540
 20
99.092356
 30
0.0
 11
44.071540
 21
101.571560
 31
0.0
  0
LINE
  5
208
100
AcDbEntity
  8
Layer_1
 62
7
100
AcDbLine
 10
19.321554
 20
63.071561
 30
0.0
 11
19.321554
 21
38.821560
 31
0.0
  0
LINE
  5
209
100
AcDbEntity
  8
Layer_1
 62
7
100
AcDbLine
 10
19.321554
 20
38.821560
 30
0.0
 11
30.821545
 21
38.821560
 31
0.0
  0
LINE
  5
20a
100
AcDbEntity
  8
Layer_1
 62
7
100
AcDbLine
 10
30.821545
 20
38.821560
 30
0.0
 11
30.821545
 21
63.071561
 31
0.0
  0
LINE
  5
20b
100
AcDbEntity
  8
Layer_1
 62
7
100
AcDbLine
 10
30.821545
 20
63.071561
 30
0.0
 11
19.321554
 21
63.071561
 31
0.0
  0
LINE
  5
20c
100
AcDbEntity
  8
Layer_1
 62
7
100
AcDbLine
 10
75.821546
 20
12.071547
 30
0.0
 11
75.821546
 21
36.321562
 31
0.0
  0
LINE
  5
20d
100
AcDbEntity
  8
Layer_1
 62
7
100
AcDbLine
 10
75.821546
 20
36.321562
 30
0.0
 11
64.321546
 21
36.321562
 31
0.0
  0
LINE
  5
20e
100
AcDbEntity
  8
Layer_1
 62
7
100
AcDbLine
 10
64.321546
 20
36.321562
 30
0.0
 11
64.321546
 21
12.071547
 31
0.0
  0
LINE
  5
20f
100
AcDbEntity
  8
Layer_1
 62
7
100
AcDbLine
 10
64.321546
 20
12.071547
 30
0.0
 11
75.821546
 21
12.071547
 31
0.0
  0
LINE
  5
210
100
AcDbEntity
  8
Layer_1
 62
7
100
AcDbLine
 10
15.071542
 20
44.571561
 30
0.0
 11
15.071542
 21
30.571561
 31
0.0
  0
SPLINE
  5
211
100
AcDbEntity
  8
Layer_1
 62
7
100
AcDbSpline
 70
8
 71
3
 72
8
 73
4
 74
0
 40
0
 40
0
 40
0
 40
0
 40
1
 40
1
 40
1
 40
1
 10
15.071542
 20
44.571561
 30
0.0
 10
15.071541
 20
45.676128
 30
0.0
 10
14.176113
 20
46.571558
 30
0.0
 10
13.071546
 20
46.571560
 30
0.0
  0
LINE
  5
212
100
AcDbEntity
  8
Layer_1
 62
7
100
AcDbLine
 10
10.071552
 20
46.571560
 30
0.0
 11
13.071546
 21
46.571560
 31
0.0
  0
LINE
  5
213
100
AcDbEntity
  8
Layer_1
 62
7
100
AcDbLine
 10
10.071552
 20
65.071562
 30
0.0
 11
10.071552
 21
46.571560
 31
0.0
  0
LINE
  5
214
100
AcDbEntity
  8
Layer_1
 62
7
100
AcDbLine
 10
85.071545
 20
65.071562
 30
0.0
 11
10.071552
 21
65.071562
 31
0.0
  0
LINE
  5
215
100
AcDbEntity
  8
Layer_1
 62
7
100
AcDbLine
 10
85.071545
 20
10.071551
 30
0.0
 11
85.071545
 21
65.071562
 31
0.0
  0
LINE
  5
216
100
AcDbEntity
  8
Layer_1
 62
7
100
AcDbLine
 10
10.071552
 20
10.071551
 30
0.0
 11
85.071545
 21
10.071551
 31
0.0
  0
LINE
  5
217
100
AcDbEntity
  8
Layer_1
 62
7
100
AcDbLine
 10
10.071552
 20
28.571562
 30
0.0
 11
10.071552
 21
10.071551
 31
0.0
  0
LINE
  5
218
100
AcDbEntity
  8
Layer_1
 62
7
100
AcDbLine
 10
10.071552
 20
28.571562
 30
0.0
 11
13.071546
 21
28.571562
 31
0.0
  0
SPLINE
  5
219
100
AcDbEntity
  8
Layer_1
 62
7
100
AcDbSpline
 70
8
 71
3
 72
8
 73
4
 74
0
 40
0
 40
0
 40
0
 40
0
 40
1
 40
1
 40
1
 40
1
 10
13.071546
 20
28.571562
 30
0.0
 10
14.176113
 20
28.571564
 30
0.0
 10
15.071541
 20
29.466993
 30
0.0
 10
15.071542
 20
30.571561
 30
0.0
  0
LINE
  5
21a
100
AcDbEntity
  8
Layer_1
 62
7
100
AcDbLine
 10
75.821546
 20
38.821560
 30
0.0
 11
75.821546
 21
63.071561
 31
0.0
  0
LINE
  5
21b
100
AcDbEntity
  8
Layer_1
 62
7
100
AcDbLine
 10
75.821546
 20
63.071561
 30
0.0
 11
64.321546
 21
63.071561
 31
0.0
  0
LINE
  5
21c
100
AcDbEntity
  8
Layer_1
 62
7
100
AcDbLine
 10
64.321546
 20
63.071561
 30
0.0
 11
64.321546
 21
38.821560
 31
0.0
  0
LINE
  5
21d
100
AcDbEntity
  8
Layer_1
 62
7
100
AcDbLine
 10
64.321546
 20
38.821560
 30
0.0
 11
75.821546
 21
38.821560
 31
0.0
  0
LINE
  5
21e
100
AcDbEntity
  8
Layer_1
 62
7
100
AcDbLine
 10
30.821545
 20
12.071547
 30
0.0
 11
30.821545
 21
36.321562
 31
0.0
  0
LINE
  5
21f
100
AcDbEntity
  8
Layer_1
 62
7
100
AcDbLine
 10
30.821545
 20
36.321562
 30
0.0
 11
19.321554
 21
36.321562
 31
0.0
  0
LINE
  5
220
100
AcDbEntity
  8
Layer_1
 62
7
100
AcDbLine
 10
19.321554
 20
36.321562
 30
0.0
 11
19.321554
 21
12.071547
 31
0.0
  0
LINE
  5
221
100
AcDbEntity
  8
Layer_1
 62
7
100
AcDbLine
 10
19.321554
 20
12.071547
 30
0.0
 11
30.821545
 21
12.071547
 31
0.0
  0
SPLINE
  5
222
100
AcDbEntity
  8
Layer_1
 62
7
100
AcDbSpline
 70
8
 71
3
 72
8
 73
4
 74
0
 40
0
 40
0
 40
0
 40
0
 40
1
 40
1
 40
1
 40
1
 10
80.571546
 20
51.021561
 30
0.0
 10
81.125530
 20
51.021226
 30
0.0
 10
81.637576
 20
51.316582
 30
0.0
 10
81.914665
 20
51.796290
 30
0.0
  0
SPLINE
  5
223
100
AcDbEntity
  8
Layer_1
 62
7
100
AcDbSpline
 70
8
 71
3
 72
8
 73
4
 74
0
 40
0
 40
0
 40
0
 40
0
 40
1
 40
1
 40
1
 40
1
 10
81.914665
 20
51.796290
 30
0.0
 10
82.191754
 20
52.275999
 30
0.0
 10
82.191754
 20
52.867122
 30
0.0
 10
81.914665
 20
53.346830
 30
0.0
  0
SPLINE
  5
224
100
AcDbEntity
  8
Layer_1
 62
7
100
AcDbSpline
 70
8
 71
3
 72
8
 73
4
 74
0
 40
0
 40
0
 40
0
 40
0
 40
1
 40
1
 40
1
 40
1
 10
81.914665
 20
53.346830
 30
0.0
 10
81.637576
 20
53.826539
 30
0.0
 10
81.125530
 20
54.121894
 30
0.0
 10
80.571546
 20
54.121560
 30
0.0
  0
SPLINE
  5
225
100
AcDbEntity
  8
Layer_1
 62
7
100
AcDbSpline
 70
8
 71
3
 72
8
 73
4
 74
0
 40
0
 40
0
 40
0
 40
0
 40
1
 40
1
 40
1
 40
1
 10
80.571546
 20
54.121560
 30
0.0
 10
80.017562
 20
54.121894
 30
0.0
 10
79.505516
 20
53.826539
 30
0.0
 10
79.228427
 20
53.346830
 30
0.0
  0
SPLINE
  5
226
100
AcDbEntity
  8
Layer_1
 62
7
100
AcDbSpline
 70
8
 71
3
 72
8
 73
4
 74
0
 40
0
 40
0
 40
0
 40
0
 40
1
 40
1
 40
1
 40
1
 10
79.228427
 20
53.346830
 30
0.0
 10
78.951338
 20
52.867122
 30
0.0
 10
78.951338
 20
52.275999
 30
0.0
 10
79.228427
 20
51.796290
 30
0.0
  0
SPLINE
  5
227
100
AcDbEntity
  8
Layer_1
 62
7
100
AcDbSpline
 70
8
 71
3
 72
8
 73
4
 74
0
 40
0
 40
0
 40
0
 40
0
 40
1
 40
1
 40
1
 40
1
 10
79.228427
 20
51.796290
 30
0.0
 10
79.505516
 20
51.316582
 30
0.0
 10
80.017562
 20
51.021226
 30
0.0
 10
80.571546
 20
51.021561
 30
0.0
  0
LINE
  5
228
100
AcDbEntity
  8
Layer_1
 62
7
100
AcDbLine
 10
80.571546
 20
51.021561
 30
0.0
 11
80.571546
 21
51.021561
 31
0.0
  0
SPLINE
  5
229
100
AcDbEntity
  8
Layer_1
 62
7
100
AcDbSpline
 70
8
 71
3
 72
8
 73
4
 74
0
 40
0
 40
0
 40
0
 40
0
 40
1
 40
1
 40
1
 40
1
 10
80.571546
 20
21.021561
 30
0.0
 10
81.125530
 20
21.021227
 30
0.0
 10
81.637576
 20
21.316582
 30
0.0
 10
81.914665
 20
21.796291
 30
0.0
  0
SPLINE
  5
22a
100
AcDbEntity
  8
Layer_1
 62
7
100
AcDbSpline
 70
8
 71
3
 72
8
 73
4
 74
0
 40
0
 40
0
 40
0
 40
0
 40
1
 40
1
 40
1
 40
1
 10
81.914665
 20
21.796291
 30
0.0
 10
82.191754
 20
22.276000
 30
0.0
 10
82.191754
 20
22.867122
 30
0.0
 10
81.914665
 20
23.346831
 30
0.0
  0
SPLINE
  5
22b
100
AcDbEntity
  8
Layer_1
 62
7
100
AcDbSpline
 70
8
 71
3
 72
8
 73
4
 74
0
 40
0
 40
0
 40
0
 40
0
 40
1
 40
1
 40
1
 40
1
 10
81.914665
 20
23.346831
 30
0.0
 10
81.637576
 20
23.826540
 30
0.0
 10
81.125530
 20
24.121895
 30
0.0
 10
80.571546
 20
24.121561
 30
0.0
  0
SPLINE
  5
22c
100
AcDbEntity
  8
Layer_1
 62
7
100
AcDbSpline
 70
8
 71
3
 72
8
 73
4
 74
0
 40
0
 40
0
 40
0
 40
0
 40
1
 40
1
 40
1
 40
1
 10
80.571546
 20
24.121561
 30
0.0
 10
80.017562
 20
24.121895
 30
0.0
 10
79.505516
 20
23.826540
 30
0.0
 10
79.228427
 20
23.346831
 30
0.0
  0
SPLINE
  5
22d
100
AcDbEntity
  8
Layer_1
 62
7
100
AcDbSpline
 70
8
 71
3
 72
8
 73
4
 74
0
 40
0
 40
0
 40
0
 40
0
 40
1
 40
1
 40
1
 40
1
 10
79.228427
 20
23.346831
 30
0.0
 10
78.951338
 20
22.867122
 30
0.0
 10
78.951338
 20
22.276000
 30
0.0
 10
79.228427
 20
21.796291
 30
0.0
  0
SPLINE
  5
22e
100
AcDbEntity
  8
Layer_1
 62
7
100
AcDbSpline
 70
8
 71
3
 72
8
 73
4
 74
0
 40
0
 40
0
 40
0
 40
0
 40
1
 40
1
 40
1
 40
1
 10
79.228427
 20
21.796291
 30
0.0
 10
79.505516
 20
21.316582
 30
0.0
 10
80.017562
 20
21.021227
 30
0.0
 10
80.571546
 20
21.021561
 30
0.0
  0
LINE
  5
22f
100
AcDbEntity
  8
Layer_1
 62
7
100
AcDbLine
 10
80.571546
 20
21.021561
 30
0.0
 11
80.571546
 21
21.021561
 31
0.0
  0
SPLINE
  5
230
100
AcDbEntity
  8
Layer_1
 62
7
100
AcDbSpline
 70
8
 71
3
 72
8
 73
4
 74
0
 40
0
 40
0
 40
0
 40
0
 40
1
 40
1
 40
1
 40
1
 10
47.571547
 20
21.021561
 30
0.0
 10
48.125531
 20
21.021227
 30
0.0
 10
48.637577
 20
21.316582
 30
0.0
 10
48.914666
 20
21.796291
 30
0.0
  0
SPLINE
  5
231
100
AcDbEntity
  8
Layer_1
 62
7
100
AcDbSpline
 70
8
 71
3
 72
8
 73
4
 74
0
 40
0
 40
0
 40
0
 40
0
 40
1
 40
1
 40
1
 40
1
 10
48.914666
 20
21.796291
 30
0.0
 10
49.191755
 20
22.276000
 30
0.0
 10
49.191755
 20
22.867122
 30
0.0
 10
48.914666
 20
23.346831
 30
0.0
  0
SPLINE
  5
232
100
AcDbEntity
  8
Layer_1
 62
7
100
AcDbSpline
 70
8
 71
3
 72
8
 73
4
 74
0
 40
0
 40
0
 40
0
 40
0
 40
1
 40
1
 40
1
 40
1
 10
48.914666
 20
23.346831
 30
0.0
 10
48.637577
 20
23.826540
 30
0.0
 10
48.125531
 20
24.121895
 30
0.0
 10
47.571547
 20
24.121561
 30
0.0
  0
SPLINE
  5
233
100
AcDbEntity
  8
Layer_1
 62
7
100
AcDbSpline
 70
8
 71
3
 72
8
 73
4
 74
0
 40
0
 40
0
 40
0
 40
0
 40
1
 40
1
 40
1
 40
1
 10
47.571547
 20
24.121561
 30
0.0
 10
47.017563
 20
24.121895
 30
0.0
 10
46.505517
 20
23.826540
 30
0.0
 10
46.228428
 20
23.346831
 30
0.0
  0
SPLINE
  5
234
100
AcDbEntity
  8
Layer_1
 62
7
100
AcDbSpline
 70
8
 71
3
 72
8
 73
4
 74
0
 40
0
 40
0
 40
0
 40
0
 40
1
 40
1
 40
1
 40
1
 10
46.228428
 20
23.346831
 30
0.0
 10
45.951340
 20
22.867122
 30
0.0
 10
45.951340
 20
22.276000
 30
0.0
 10
46.228428
 20
21.796291
 30
0.0
  0
SPLINE
  5
235
100
AcDbEntity
  8
Layer_1
 62
7
100
AcDbSpline
 70
8
 71
3
 72
8
 73
4
 74
0
 40
0
 40
0
 40
0
 40
0
 40
1
 40
1
 40
1
 40
1
 10
46.228428
 20
21.796291
 30
0.0
 10
46.505517
 20
21.316582
 30
0.0
 10
47.017563
 20
21.021227
 30
0.0
 10
47.571547
 20
21.021561
 30
0.0
  0
LINE
  5
236
100
AcDbEntity
  8
Layer_1
 62
7
100
AcDbLine
 10
47.571547
 20
21.021561
 30
0.0
 11
47.571547
 21
21.021561
 31
0.0
  0
SPLINE
  5
237
100
AcDbEntity
  8
Layer_1
 62
7
100
AcDbSpline
 70
8
 71
3
 72
8
 73
4
 74
0
 40
0
 40
0
 40
0
 40
0
 40
1
 40
1
 40
1
 40
1
 10
47.571547
 20
51.021561
 30
0.0
 10
48.125531
 20
51.021226
 30
0.0
 10
48.637577
 20
51.316582
 30
0.0
 10
48.914666
 20
51.796290
 30
0.0
  0
SPLINE
  5
238
100
AcDbEntity
  8
Layer_1
 62
7
100
AcDbSpline
 70
8
 71
3
 72
8
 73
4
 74
0
 40
0
 40
0
 40
0
 40
0
 40
1
 40
1
 40
1
 40
1
 10
48.914666
 20
51.796290
 30
0.0
 10
49.191755
 20
52.275999
 30
0.0
 10
49.191755
 20
52.867122
 30
0.0
 10
48.914666
 20
53.346830
 30
0.0
  0
SPLINE
  5
239
100
AcDbEntity
  8
Layer_1
 62
7
100
AcDbSpline
 70
8
 71
3
 72
8
 73
4
 74
0
 40
0
 40
0
 40
0
 40
0
 40
1
 40
1
 40
1
 40
1
 10
48.914666
 20
53.346830
 30
0.0
 10
48.637577
 20
53.826539
 30
0.0
 10
48.125531
 20
54.121894
 30
0.0
 10
47.571547
 20
54.121560
 30
0.0
  0
SPLINE
  5
23a
100
AcDbEntity
  8
Layer_1
 62
7
100
AcDbSpline
 70
8
 71
3
 72
8
 73
4
 74
0
 40
0
 40
0
 40
0
 40
0
 40
1
 40
1
 40
1
 40
1
 10
47.571547
 20
54.121560
 30
0.0
 10
47.017563
 20
54.121894
 30
0.0
 10
46.505517
 20
53.826539
 30
0.0
 10
46.228428
 20
53.346830
 30
0.0
  0
SPLINE
  5
23b
100
AcDbEntity
  8
Layer_1
 62
7
100
AcDbSpline
 70
8
 71
3
 72
8
 73
4
 74
0
 40
0
 40
0
 40
0
 40
0
 40
1
 40
1
 40
1
 40
1
 10
46.228428
 20
53.346830
 30
0.0
 10
45.951340
 20
52.867122
 30
0.0
 10
45.951340
 20
52.275999
 30
0.0
 10
46.228428
 20
51.796290
 30
0.0
  0
SPLINE
  5
23c
100
AcDbEntity
  8
Layer_1
 62
7
100
AcDbSpline
 70
8
 71
3
 72
8
 73
4
 74
0
 40
0
 40
0
 40
0
 40
0
 40
1
 40
1
 40
1
 40
1
 10
46.228428
 20
51.796290
 30
0.0
 10
46.505517
 20
51.316582
 30
0.0
 10
47.017563
 20
51.021226
 30
0.0
 10
47.571547
 20
51.021561
 30
0.0
  0
LINE
  5
23d
100
AcDbEntity
  8
Layer_1
 62
7
100
AcDbLine
 10
47.571547
 20
51.021561
 30
0.0
 11
47.571547
 21
51.021561
 31
0.0
  0
LINE
  5
23e
100
AcDbEntity
  8
Layer_1
 62
7
100
AcDbLine
 10
42.921541
 20
16.921561
 30
0.0
 11
32.721550
 21
16.921561
 31
0.0
  0
LINE
  5
23f
100
AcDbEntity
  8
Layer_1
 62
7
100
AcDbLine
 10
32.721550
 20
16.921561
 30
0.0
 11
32.721550
 21
12.221548
 31
0.0
  0
LINE
  5
240
100
AcDbEntity
  8
Layer_1
 62
7
100
AcDbLine
 10
32.721550
 20
12.221548
 30
0.0
 11
42.921541
 21
12.221548
 31
0.0
  0
LINE
  5
241
100
AcDbEntity
  8
Layer_1
 62
7
100
AcDbLine
 10
42.921541
 20
12.221548
 30
0.0
 11
42.921541
 21
16.921561
 31
0.0
  0
LINE
  5
242
100
AcDbEntity
  8
Layer_1
 62
7
100
AcDbLine
 10
42.921541
 20
62.921562
 30
0.0
 11
32.721550
 21
62.921562
 31
0.0
  0
LINE
  5
243
100
AcDbEntity
  8
Layer_1
 62
7
100
AcDbLine
 10
32.721550
 20
62.921562
 30
0.0
 11
32.721550
 21
58.221560
 31
0.0
  0
LINE
  5
244
100
AcDbEntity
  8
Layer_1
 62
7
100
AcDbLine
 10
32.721550
 20
58.221560
 30
0.0
 11
42.921541
 21
58.221560
 31
0.0
  0
LINE
  5
245
100
AcDbEntity
  8
Layer_1
 62
7
100
AcDbLine
 10
42.921541
 20
58.221560
 30
0.0
 11
42.921541
 21
62.921562
 31
0.0
  0
SPLINE
  5
246
100
AcDbEntity
  8
Layer_1
 62
7
100
AcDbSpline
 70
8
 71
3
 72
8
 73
4
 74
0
 40
0
 40
0
 40
0
 40
0
 40
1
 40
1
 40
1
 40
1
 10
15.821547
 20
13.021563
 30
0.0
 10
16.375854
 20
13.020744
 30
0.0
 10
16.888405
 20
13.315993
 30
0.0
 10
17.165796
 20
13.795900
 30
0.0
  0
SPLINE
  5
247
100
AcDbEntity
  8
Layer_1
 62
7
100
AcDbSpline
 70
8
 71
3
 72
8
 73
4
 74
0
 40
0
 40
0
 40
0
 40
0
 40
1
 40
1
 40
1
 40
1
 10
17.165796
 20
13.795900
 30
0.0
 10
17.443186
 20
14.275808
 30
0.0
 10
17.443186
 20
14.867315
 30
0.0
 10
17.165796
 20
15.347223
 30
0.0
  0
SPLINE
  5
248
100
AcDbEntity
  8
Layer_1
 62
7
100
AcDbSpline
 70
8
 71
3
 72
8
 73
4
 74
0
 40
0
 40
0
 40
0
 40
0
 40
1
 40
1
 40
1
 40
1
 10
17.165796
 20
15.347223
 30
0.0
 10
16.888405
 20
15.827131
 30
0.0
 10
16.375854
 20
16.122379
 30
0.0
 10
15.821547
 20
16.121560
 30
0.0
  0
SPLINE
  5
249
100
AcDbEntity
  8
Layer_1
 62
7
100
AcDbSpline
 70
8
 71
3
 72
8
 73
4
 74
0
 40
0
 40
0
 40
0
 40
0
 40
1
 40
1
 40
1
 40
1
 10
15.821547
 20
16.121560
 30
0.0
 10
15.267240
 20
16.122379
 30
0.0
 10
14.754689
 20
15.827131
 30
0.0
 10
14.477299
 20
15.347223
 30
0.0
  0
SPLINE
  5
24a
100
AcDbEntity
  8
Layer_1
 62
7
100
AcDbSpline
 70
8
 71
3
 72
8
 73
4
 74
0
 40
0
 40
0
 40
0
 40
0
 40
1
 40
1
 40
1
 40
1
 10
14.477299
 20
15.347223
 30
0.0
 10
14.199908
 20
14.867315
 30
0.0
 10
14.199908
 20
14.275808
 30
0.0
 10
14.477299
 20
13.795900
 30
0.0
  0
SPLINE
  5
24b
100
AcDbEntity
  8
Layer_1
 62
7
100
AcDbSpline
 70
8
 71
3
 72
8
 73
4
 74
0
 40
0
 40
0
 40
0
 40
0
 40
1
 40
1
 40
1
 40
1
 10
14.477299
 20
13.795900
 30
0.0
 10
14.754689
 20
13.315993
 30
0.0
 10
15.267240
 20
13.020744
 30
0.0
 10
15.821547
 20
13.021563
 30
0.0
  0
LINE
  5
24c
100
AcDbEntity
  8
Layer_1
 62
7
100
AcDbLine
 10
15.821547
 20
13.021563
 30
0.0
 11
15.821547
 21
13.021563
 31
0.0
  0
SPLINE
  5
24d
100
AcDbEntity
  8
Layer_1
 62
7
100
AcDbSpline
 70
8
 71
3
 72
8
 73
4
 74
0
 40
0
 40
0
 40
0
 40
0
 40
1
 40
1
 40
1
 40
1
 10
15.821547
 20
59.021562
 30
0.0
 10
16.375531
 20
59.021227
 30
0.0
 10
16.887577
 20
59.316582
 30
0.0
 10
17.164666
 20
59.796291
 30
0.0
  0
SPLINE
  5
24e
100
AcDbEntity
  8
Layer_1
 62
7
100
AcDbSpline
 70
8
 71
3
 72
8
 73
4
 74
0
 40
0
 40
0
 40
0
 40
0
 40
1
 40
1
 40
1
 40
1
 10
17.164666
 20
59.796291
 30
0.0
 10
17.441755
 20
60.276000
 30
0.0
 10
17.441755
 20
60.867122
 30
0.0
 10
17.164666
 20
61.346831
 30
0.0
  0
SPLINE
  5
24f
100
AcDbEntity
  8
Layer_1
 62
7
100
AcDbSpline
 70
8
 71
3
 72
8
 73
4
 74
0
 40
0
 40
0
 40
0
 40
0
 40
1
 40
1
 40
1
 40
1
 10
17.164666
 20
61.346831
 30
0.0
 10
16.887577
 20
61.826540
 30
0.0
 10
16.375531
 20
62.121895
 30
0.0
 10
15.821547
 20
62.121561
 30
0.0
  0
SPLINE
  5
250
100
AcDbEntity
  8
Layer_1
 62
7
100
AcDbSpline
 70
8
 71
3
 72
8
 73
4
 74
0
 40
0
 40
0
 40
0
 40
0
 40
1
 40
1
 40
1
 40
1
 10
15.821547
 20
62.121561
 30
0.0
 10
15.267563
 20
62.121895
 30
0.0
 10
14.755517
 20
61.826540
 30
0.0
 10
14.478428
 20
61.346831
 30
0.0
  0
SPLINE
  5
251
100
AcDbEntity
  8
Layer_1
 62
7
100
AcDbSpline
 70
8
 71
3
 72
8
 73
4
 74
0
 40
0
 40
0
 40
0
 40
0
 40
1
 40
1
 40
1
 40
1
 10
14.478428
 20
61.346831
 30
0.0
 10
14.201340
 20
60.867122
 30
0.0
 10
14.201340
 20
60.276000
 30
0.0
 10
14.478428
 20
59.796291
 30
0.0
  0
SPLINE
  5
252
100
AcDbEntity
  8
Layer_1
 62
7
100
AcDbSpline
 70
8
 71
3
 72
8
 73
4
 74
0
 40
0
 40
0
 40
0
 40
0
 40
1
 40
1
 40
1
 40
1
 10
14.478428
 20
59.796291
 30
0.0
 10
14.755517
 20
59.316582
 30
0.0
 10
15.267563
 20
59.021227
 30
0.0
 10
15.821547
 20
59.021562
 30
0.0
  0
LINE
  5
253
100
AcDbEntity
  8
Layer_1
 62
7
100
AcDbLine
 10
15.821547
 20
59.021562
 30
0.0
 11
15.821547
 21
59.021562
 31
0.0
  0
SPLINE
  5
254
100
AcDbEntity
  8
Layer_1
 62
7
100
AcDbSpline
 70
8
 71
3
 72
8
 73
4
 74
0
 40
0
 40
0
 40
0
 40
0
 40
1
 40
1
 40
1
 40
1
 10
35.571543
 20
51.021561
 30
0.0
 10
36.125527
 20
51.021226
 30
0.0
 10
36.637573
 20
51.316582
 30
0.0
 10
36.914662
 20
51.796290
 30
0.0
  0
SPLINE
  5
255
100
AcDbEntity
  8
Layer_1
 62
7
100
AcDbSpline
 70
8
 71
3
 72
8
 73
4
 74
0
 40
0
 40
0
 40
0
 40
0
 40
1
 40
1
 40
1
 40
1
 10
36.914662
 20
51.796290
 30
0.0
 10
37.191750
 20
52.275999
 30
0.0
 10
37.191750
 20
52.867122
 30
0.0
 10
36.914662
 20
53.346830
 30
0.0
  0
SPLINE
  5
256
100
AcDbEntity
  8
Layer_1
 62
7
100
AcDbSpline
 70
8
 71
3
 72
8
 73
4
 74
0
 40
0
 40
0
 40
0
 40
0
 40
1
 40
1
 40
1
 40
1
 10
36.914662
 20
53.346830
 30
0.0
 10
36.637573
 20
53.826539
 30
0.0
 10
36.125527
 20
54.121894
 30
0.0
 10
35.571543
 20
54.121560
 30
0.0
  0
SPLINE
  5
257
100
AcDbEntity
  8
Layer_1
 62
7
100
AcDbSpline
 70
8
 71
3
 72
8
 73
4
 74
0
 40
0
 40
0
 40
0
 40
0
 40
1
 40
1
 40
1
 40
1
 10
35.571543
 20
54.121560
 30
0.0
 10
35.017559
 20
54.121894
 30
0.0
 10
34.505513
 20
53.826539
 30
0.0
 10
34.228424
 20
53.346830
 30
0.0
  0
SPLINE
  5
258
100
AcDbEntity
  8
Layer_1
 62
7
100
AcDbSpline
 70
8
 71
3
 72
8
 73
4
 74
0
 40
0
 40
0
 40
0
 40
0
 40
1
 40
1
 40
1
 40
1
 10
34.228424
 20
53.346830
 30
0.0
 10
33.951335
 20
52.867122
 30
0.0
 10
33.951335
 20
52.275999
 30
0.0
 10
34.228424
 20
51.796290
 30
0.0
  0
SPLINE
  5
259
100
AcDbEntity
  8
Layer_1
 62
7
100
AcDbSpline
 70
8
 71
3
 72
8
 73
4
 74
0
 40
0
 40
0
 40
0
 40
0
 40
1
 40
1
 40
1
 40
1
 10
34.228424
 20
51.796290
 30
0.0
 10
34.505513
 20
51.316582
 30
0.0
 10
35.017559
 20
51.021226
 30
0.0
 10
35.571543
 20
51.021561
 30
0.0
  0
LINE
  5
25a
100
AcDbEntity
  8
Layer_1
 62
7
100
AcDbLine
 10
35.571543
 20
51.021561
 30
0.0
 11
35.571543
 21
51.021561
 31
0.0
  0
SPLINE
  5
25b
100
AcDbEntity
  8
Layer_1
 62
7
100
AcDbSpline
 70
8
 71
3
 72
8
 73
4
 74
0
 40
0
 40
0
 40
0
 40
0
 40
1
 40
1
 40
1
 40
1
 10
35.571543
 20
21.021561
 30
0.0
 10
36.125527
 20
21.021227
 30
0.0
 10
36.637573
 20
21.316582
 30
0.0
 10
36.914662
 20
21.796291
 30
0.0
  0
SPLINE
  5
25c
100
AcDbEntity
  8
Layer_1
 62
7
100
AcDbSpline
 70
8
 71
3
 72
8
 73
4
 74
0
 40
0
 40
0
 40
0
 40
0
 40
1
 40
1
 40
1
 40
1
 10
36.914662
 20
21.796291
 30
0.0
 10
37.191750
 20
22.276000
 30
0.0
 10
37.191750
 20
22.867122
 30
0.0
 10
36.914662
 20
23.346831
 30
0.0
  0
SPLINE
  5
25d
100
AcDbEntity
  8
Layer_1
 62
7
100
AcDbSpline
 70
8
 71
3
 72
8
 73
4
 74
0
 40
0
 40
0
 40
0
 40
0
 40
1
 40
1
 40
1
 40
1
 10
36.914662
 20
23.346831
 30
0.0
 10
36.637573
 20
23.826540
 30
0.0
 10
36.125527
 20
24.121895
 30
0.0
 10
35.571543
 20
24.121561
 30
0.0
  0
SPLINE
  5
25e
100
AcDbEntity
  8
Layer_1
 62
7
100
AcDbSpline
 70
8
 71
3
 72
8
 73
4
 74
0
 40
0
 40
0
 40
0
 40
0
 40
1
 40
1
 40
1
 40
1
 10
35.571543
 20
24.121561
 30
0.0
 10
35.017559
 20
24.121895
 30
0.0
 10
34.505513
 20
23.826540
 30
0.0
 10
34.228424
 20
23.346831
 30
0.0
  0
SPLINE
  5
25f
100
AcDbEntity
  8
Layer_1
 62
7
100
AcDbSpline
 70
8
 71
3
 72
8
 73
4
 74
0
 40
0
 40
0
 40
0
 40
0
 40
1
 40
1
 40
1
 40
1
 10
34.228424
 20
23.346831
 30
0.0
 10
33.951335
 20
22.867122
 30
0.0
 10
33.951335
 20
22.276000
 30
0.0
 10
34.228424
 20
21.796291
 30
0.0
  0
SPLINE
  5
260
100
AcDbEntity
  8
Layer_1
 62
7
100
AcDbSpline
 70
8
 71
3
 72
8
 73
4
 74
0
 40
0
 40
0
 40
0
 40
0
 40
1
 40
1
 40
1
 40
1
 10
34.228424
 20
21.796291
 30
0.0
 10
34.505513
 20
21.316582
 30
0.0
 10
35.017559
 20
21.021227
 30
0.0
 10
35.571543
 20
21.021561
 30
0.0
  0
LINE
  5
261
100
AcDbEntity
  8
Layer_1
 62
7
100
AcDbLine
 10
35.571543
 20
21.021561
 30
0.0
 11
35.571543
 21
21.021561
 31
0.0
  0
SPLINE
  5
262
100
AcDbEntity
  8
Layer_1
 62
7
100
AcDbSpline
 70
8
 71
3
 72
8
 73
4
 74
0
 40
0
 40
0
 40
0
 40
0
 40
1
 40
1
 40
1
 40
1
 10
80.071547
 20
35.071560
 30
0.0
 10
80.072133
 20
34.519691
 30
0.0
 10
80.519677
 20
34.072623
 30
0.0
 10
81.071546
 20
34.072623
 30
0.0
  0
SPLINE
  5
263
100
AcDbEntity
  8
Layer_1
 62
7
100
AcDbSpline
 70
8
 71
3
 72
8
 73
4
 74
0
 40
0
 40
0
 40
0
 40
0
 40
1
 40
1
 40
1
 40
1
 10
81.071546
 20
34.072623
 30
0.0
 10
81.623416
 20
34.072623
 30
0.0
 10
82.070959
 20
34.519691
 30
0.0
 10
82.071546
 20
35.071560
 30
0.0
  0
LINE
  5
264
100
AcDbEntity
  8
Layer_1
 62
7
100
AcDbLine
 10
82.071546
 20
35.071560
 30
0.0
 11
82.071546
 21
40.071561
 31
0.0
  0
SPLINE
  5
265
100
AcDbEntity
  8
Layer_1
 62
7
100
AcDbSpline
 70
8
 71
3
 72
8
 73
4
 74
0
 40
0
 40
0
 40
0
 40
0
 40
1
 40
1
 40
1
 40
1
 10
82.071546
 20
40.071561
 30
0.0
 10
82.070959
 20
40.623431
 30
0.0
 10
81.623416
 20
41.070499
 30
0.0
 10
81.071546
 20
41.070499
 30
0.0
  0
SPLINE
  5
266
100
AcDbEntity
  8
Layer_1
 62
7
100
AcDbSpline
 70
8
 71
3
 72
8
 73
4
 74
0
 40
0
 40
0
 40
0
 40
0
 40
1
 40
1
 40
1
 40
1
 10
81.071546
 20
41.070499
 30
0.0
 10
80.519677
 20
41.070499
 30
0.0
 10
80.072133
 20
40.623431
 30
0.0
 10
80.071547
 20
40.071561
 30
0.0
  0
LINE
  5
267
100
AcDbEntity
  8
Layer_1
 62
7
100
AcDbLine
 10
80.071547
 20
40.071561
 30
0.0
 11
80.071547
 21
35.071560
 31
0.0
  0
LINE
  5
268
100
AcDbEntity
  8
Layer_1
 62
7
100
AcDbLine
 10
104.321554
 20
63.071561
 30
0.0
 11
104.321554
 21
38.821560
 31
0.0
  0
LINE
  5
269
100
AcDbEntity
  8
Layer_1
 62
7
100
AcDbLine
 10
104.321554
 20
38.821560
 30
0.0
 11
115.821545
 21
38.821560
 31
0.0
  0
LINE
  5
26a
100
AcDbEntity
  8
Layer_1
 62
7
100
AcDbLine
 10
115.821545
 20
38.821560
 30
0.0
 11
115.821545
 21
63.071561
 31
0.0
  0
LINE
  5
26b
100
AcDbEntity
  8
Layer_1
 62
7
100
AcDbLine
 10
115.821545
 20
63.071561
 30
0.0
 11
104.321554
 21
63.071561
 31
0.0
  0
LINE
  5
26c
100
AcDbEntity
  8
Layer_1
 62
7
100
AcDbLine
 10
160.821545
 20
12.071547
 30
0.0
 11
160.821545
 21
36.321562
 31
0.0
  0
LINE
  5
26d
100
AcDbEntity
  8
Layer_1
 62
7
100
AcDbLine
 10
160.821545
 20
36.321562
 30
0.0
 11
149.321545
 21
36.321562
 31
0.0
  0
LINE
  5
26e
100
AcDbEntity
  8
Layer_1
 62
7
100
AcDbLine
 10
149.321545
 20
36.321562
 30
0.0
 11
149.321545
 21
12.071547
 31
0.0
  0
LINE
  5
26f
100
AcDbEntity
  8
Layer_1
 62
7
100
AcDbLine
 10
149.321545
 20
12.071547
 30
0.0
 11
160.821545
 21
12.071547
 31
0.0
  0
LINE
  5
270
100
AcDbEntity
  8
Layer_1
 62
7
100
AcDbLine
 10
95.071551
 20
65.071562
 30
0.0
 11
95.071551
 21
10.071551
 31
0.0
  0
LINE
  5
271
100
AcDbEntity
  8
Layer_1
 62
7
100
AcDbLine
 10
170.071545
 20
65.071562
 30
0.0
 11
95.071551
 21
65.071562
 31
0.0
  0
LINE
  5
272
100
AcDbEntity
  8
Layer_1
 62
7
100
AcDbLine
 10
170.071545
 20
10.071551
 30
0.0
 11
170.071545
 21
65.071562
 31
0.0
  0
LINE
  5
273
100
AcDbEntity
  8
Layer_1
 62
7
100
AcDbLine
 10
95.071551
 20
10.071551
 30
0.0
 11
170.071545
 21
10.071551
 31
0.0
  0
LINE
  5
274
100
AcDbEntity
  8
Layer_1
 62
7
100
AcDbLine
 10
160.821545
 20
38.821560
 30
0.0
 11
160.821545
 21
63.071561
 31
0.0
  0
LINE
  5
275
100
AcDbEntity
  8
Layer_1
 62
7
100
AcDbLine
 10
160.821545
 20
63.071561
 30
0.0
 11
149.321545
 21
63.071561
 31
0.0
  0
LINE
  5
276
100
AcDbEntity
  8
Layer_1
 62
7
100
AcDbLine
 10
149.321545
 20
63.071561
 30
0.0
 11
149.321545
 21
38.821560
 31
0.0
  0
LINE
  5
277
100
AcDbEntity
  8
Layer_1
 62
7
100
AcDbLine
 10
149.321545
 20
38.821560
 30
0.0
 11
160.821545
 21
38.821560
 31
0.0
  0
LINE
  5
278
100
AcDbEntity
  8
Layer_1
 62
7
100
AcDbLine
 10
115.821545
 20
12.071547
 30
0.0
 11
115.821545
 21
36.321562
 31
0.0
  0
LINE
  5
279
100
AcDbEntity
  8
Layer_1
 62
7
100
AcDbLine
 10
115.821545
 20
36.321562
 30
0.0
 11
104.321554
 21
36.321562
 31
0.0
  0
LINE
  5
27a
100
AcDbEntity
  8
Layer_1
 62
7
100
AcDbLine
 10
104.321554
 20
36.321562
 30
0.0
 11
104.321554
 21
12.071547
 31
0.0
  0
LINE
  5
27b
100
AcDbEntity
  8
Layer_1
 62
7
100
AcDbLine
 10
104.321554
 20
12.071547
 30
0.0
 11
115.821545
 21
12.071547
 31
0.0
  0
SPLINE
  5
27c
100
AcDbEntity
  8
Layer_1
 62
7
100
AcDbSpline
 70
8
 71
3
 72
8
 73
4
 74
0
 40
0
 40
0
 40
0
 40
0
 40
1
 40
1
 40
1
 40
1
 10
165.571545
 20
51.021561
 30
0.0
 10
166.125530
 20
51.021226
 30
0.0
 10
166.637575
 20
51.316582
 30
0.0
 10
166.914664
 20
51.796290
 30
0.0
  0
SPLINE
  5
27d
100
AcDbEntity
  8
Layer_1
 62
7
100
AcDbSpline
 70
8
 71
3
 72
8
 73
4
 74
0
 40
0
 40
0
 40
0
 40
0
 40
1
 40
1
 40
1
 40
1
 10
166.914664
 20
51.796290
 30
0.0
 10
167.191753
 20
52.275999
 30
0.0
 10
167.191753
 20
52.867122
 30
0.0
 10
166.914664
 20
53.346830
 30
0.0
  0
SPLINE
  5
27e
100
AcDbEntity
  8
Layer_1
 62
7
100
AcDbSpline
 70
8
 71
3
 72
8
 73
4
 74
0
 40
0
 40
0
 40
0
 40
0
 40
1
 40
1
 40
1
 40
1
 10
166.914664
 20
53.346830
 30
0.0
 10
166.637575
 20
53.826539
 30
0.0
 10
166.125530
 20
54.121894
 30
0.0
 10
165.571545
 20
54.121560
 30
0.0
  0
SPLINE
  5
27f
100
AcDbEntity
  8
Layer_1
 62
7
100
AcDbSpline
 70
8
 71
3
 72
8
 73
4
 74
0
 40
0
 40
0
 40
0
 40
0
 40
1
 40
1
 40
1
 40
1
 10
165.571545
 20
54.121560
 30
0.0
 10
165.017561
 20
54.121894
 30
0.0
 10
164.505515
 20
53.826539
 30
0.0
 10
164.228427
 20
53.346830
 30
0.0
  0
SPLINE
  5
280
100
AcDbEntity
  8
Layer_1
 62
7
100
AcDbSpline
 70
8
 71
3
 72
8
 73
4
 74
0
 40
0
 40
0
 40
0
 40
0
 40
1
 40
1
 40
1
 40
1
 10
164.228427
 20
53.346830
 30
0.0
 10
163.951338
 20
52.867122
 30
0.0
 10
163.951338
 20
52.275999
 30
0.0
 10
164.228427
 20
51.796290
 30
0.0
  0
SPLINE
  5
281
100
AcDbEntity
  8
Layer_1
 62
7
100
AcDbSpline
 70
8
 71
3
 72
8
 73
4
 74
0
 40
0
 40
0
 40
0
 40
0
 40
1
 40
1
 40
1
 40
1
 10
164.228427
 20
51.796290
 30
0.0
 10
164.505515
 20
51.316582
 30
0.0
 10
165.017561
 20
51.021226
 30
0.0
 10
165.571545
 20
51.021561
 30
0.0
  0
LINE
  5
282
100
AcDbEntity
  8
Layer_1
 62
7
100
AcDbLine
 10
165.571545
 20
51.021561
 30
0.0
 11
165.571545
 21
51.021561
 31
0.0
  0
SPLINE
  5
283
100
AcDbEntity
  8
Layer_1
 62
7
100
AcDbSpline
 70
8
 71
3
 72
8
 73
4
 74
0
 40
0
 40
0
 40
0
 40
0
 40
1
 40
1
 40
1
 40
1
 10
165.571545
 20
21.021561
 30
0.0
 10
166.125530
 20
21.021227
 30
0.0
 10
166.637575
 20
21.316582
 30
0.0
 10
166.914664
 20
21.796291
 30
0.0
  0
SPLINE
  5
284
100
AcDbEntity
  8
Layer_1
 62
7
100
AcDbSpline
 70
8
 71
3
 72
8
 73
4
 74
0
 40
0
 40
0
 40
0
 40
0
 40
1
 40
1
 40
1
 40
1
 10
166.914664
 20
21.796291
 30
0.0
 10
167.191753
 20
22.276000
 30
0.0
 10
167.191753
 20
22.867122
 30
0.0
 10
166.914664
 20
23.346831
 30
0.0
  0
SPLINE
  5
285
100
AcDbEntity
  8
Layer_1
 62
7
100
AcDbSpline
 70
8
 71
3
 72
8
 73
4
 74
0
 40
0
 40
0
 40
0
 40
0
 40
1
 40
1
 40
1
 40
1
 10
166.914664
 20
23.346831
 30
0.0
 10
166.637575
 20
23.826540
 30
0.0
 10
166.125530
 20
24.121895
 30
0.0
 10
165.571545
 20
24.121561
 30
0.0
  0
SPLINE
  5
286
100
AcDbEntity
  8
Layer_1
 62
7
100
AcDbSpline
 70
8
 71
3
 72
8
 73
4
 74
0
 40
0
 40
0
 40
0
 40
0
 40
1
 40
1
 40
1
 40
1
 10
165.571545
 20
24.121561
 30
0.0
 10
165.017561
 20
24.121895
 30
0.0
 10
164.505515
 20
23.826540
 30
0.0
 10
164.228427
 20
23.346831
 30
0.0
  0
SPLINE
  5
287
100
AcDbEntity
  8
Layer_1
 62
7
100
AcDbSpline
 70
8
 71
3
 72
8
 73
4
 74
0
 40
0
 40
0
 40
0
 40
0
 40
1
 40
1
 40
1
 40
1
 10
164.228427
 20
23.346831
 30
0.0
 10
163.951338
 20
22.867122
 30
0.0
 10
163.951338
 20
22.276000
 30
0.0
 10
164.228427
 20
21.796291
 30
0.0
  0
SPLINE
  5
288
100
AcDbEntity
  8
Layer_1
 62
7
100
AcDbSpline
 70
8
 71
3
 72
8
 73
4
 74
0
 40
0
 40
0
 40
0
 40
0
 40
1
 40
1
 40
1
 40
1
 10
164.228427
 20
21.796291
 30
0.0
 10
164.505515
 20
21.316582
 30
0.0
 10
165.017561
 20
21.021227
 30
0.0
 10
165.571545
 20
21.021561
 30
0.0
  0
LINE
  5
289
100
AcDbEntity
  8
Layer_1
 62
7
100
AcDbLine
 10
165.571545
 20
21.021561
 30
0.0
 11
165.571545
 21
21.021561
 31
0.0
  0
SPLINE
  5
28a
100
AcDbEntity
  8
Layer_1
 62
7
100
AcDbSpline
 70
8
 71
3
 72
8
 73
4
 74
0
 40
0
 40
0
 40
0
 40
0
 40
1
 40
1
 40
1
 40
1
 10
132.571546
 20
21.021561
 30
0.0
 10
133.125531
 20
21.021227
 30
0.0
 10
133.637577
 20
21.316582
 30
0.0
 10
133.914665
 20
21.796291
 30
0.0
  0
SPLINE
  5
28b
100
AcDbEntity
  8
Layer_1
 62
7
100
AcDbSpline
 70
8
 71
3
 72
8
 73
4
 74
0
 40
0
 40
0
 40
0
 40
0
 40
1
 40
1
 40
1
 40
1
 10
133.914665
 20
21.796291
 30
0.0
 10
134.191754
 20
22.276000
 30
0.0
 10
134.191754
 20
22.867122
 30
0.0
 10
133.914665
 20
23.346831
 30
0.0
  0
SPLINE
  5
28c
100
AcDbEntity
  8
Layer_1
 62
7
100
AcDbSpline
 70
8
 71
3
 72
8
 73
4
 74
0
 40
0
 40
0
 40
0
 40
0
 40
1
 40
1
 40
1
 40
1
 10
133.914665
 20
23.346831
 30
0.0
 10
133.637577
 20
23.826540
 30
0.0
 10
133.125531
 20
24.121895
 30
0.0
 10
132.571546
 20
24.121561
 30
0.0
  0
SPLINE
  5
28d
100
AcDbEntity
  8
Layer_1
 62
7
100
AcDbSpline
 70
8
 71
3
 72
8
 73
4
 74
0
 40
0
 40
0
 40
0
 40
0
 40
1
 40
1
 40
1
 40
1
 10
132.571546
 20
24.121561
 30
0.0
 10
132.017562
 20
24.121895
 30
0.0
 10
131.505516
 20
23.826540
 30
0.0
 10
131.228428
 20
23.346831
 30
0.0
  0
SPLINE
  5
28e
100
AcDbEntity
  8
Layer_1
 62
7
100
AcDbSpline
 70
8
 71
3
 72
8
 73
4
 74
0
 40
0
 40
0
 40
0
 40
0
 40
1
 40
1
 40
1
 40
1
 10
131.228428
 20
23.346831
 30
0.0
 10
130.951339
 20
22.867122
 30
0.0
 10
130.951339
 20
22.276000
 30
0.0
 10
131.228428
 20
21.796291
 30
0.0
  0
SPLINE
  5
28f
100
AcDbEntity
  8
Layer_1
 62
7
100
AcDbSpline
 70
8
 71
3
 72
8
 73
4
 74
0
 40
0
 40
0
 40
0
 40
0
 40
1
 40
1
 40
1
 40
1
 10
131.228428
 20
21.796291
 30
0.0
 10
131.505516
 20
21.316582
 30
0.0
 10
132.017562
 20
21.021227
 30
0.0
 10
132.571546
 20
21.021561
 30
0.0
  0
LINE
  5
290
100
AcDbEntity
  8
Layer_1
 62
7
100
AcDbLine
 10
132.571546
 20
21.021561
 30
0.0
 11
132.571546
 21
21.021561
 31
0.0
  0
SPLINE
  5
291
100
AcDbEntity
  8
Layer_1
 62
7
100
AcDbSpline
 70
8
 71
3
 72
8
 73
4
 74
0
 40
0
 40
0
 40
0
 40
0
 40
1
 40
1
 40
1
 40
1
 10
132.571546
 20
51.021561
 30
0.0
 10
133.125531
 20
51.021226
 30
0.0
 10
133.637577
 20
51.316582
 30
0.0
 10
133.914665
 20
51.796290
 30
0.0
  0
SPLINE
  5
292
100
AcDbEntity
  8
Layer_1
 62
7
100
AcDbSpline
 70
8
 71
3
 72
8
 73
4
 74
0
 40
0
 40
0
 40
0
 40
0
 40
1
 40
1
 40
1
 40
1
 10
133.914665
 20
51.796290
 30
0.0
 10
134.191754
 20
52.275999
 30
0.0
 10
134.191754
 20
52.867122
 30
0.0
 10
133.914665
 20
53.346830
 30
0.0
  0
SPLINE
  5
293
100
AcDbEntity
  8
Layer_1
 62
7
100
AcDbSpline
 70
8
 71
3
 72
8
 73
4
 74
0
 40
0
 40
0
 40
0
 40
0
 40
1
 40
1
 40
1
 40
1
 10
133.914665
 20
53.346830
 30
0.0
 10
133.637577
 20
53.826539
 30
0.0
 10
133.125531
 20
54.121894
 30
0.0
 10
132.571546
 20
54.121560
 30
0.0
  0
SPLINE
  5
294
100
AcDbEntity
  8
Layer_1
 62
7
100
AcDbSpline
 70
8
 71
3
 72
8
 73
4
 74
0
 40
0
 40
0
 40
0
 40
0
 40
1
 40
1
 40
1
 40
1
 10
132.571546
 20
54.121560
 30
0.0
 10
132.017562
 20
54.121894
 30
0.0
 10
131.505516
 20
53.826539
 30
0.0
 10
131.228428
 20
53.346830
 30
0.0
  0
SPLINE
  5
295
100
AcDbEntity
  8
Layer_1
 62
7
100
AcDbSpline
 70
8
 71
3
 72
8
 73
4
 74
0
 40
0
 40
0
 40
0
 40
0
 40
1
 40
1
 40
1
 40
1
 10
131.228428
 20
53.346830
 30
0.0
 10
130.951339
 20
52.867122
 30
0.0
 10
130.951339
 20
52.275999
 30
0.0
 10
131.228428
 20
51.796290
 30
0.0
  0
SPLINE
  5
296
100
AcDbEntity
  8
Layer_1
 62
7
100
AcDbSpline
 70
8
 71
3
 72
8
 73
4
 74
0
 40
0
 40
0
 40
0
 40
0
 40
1
 40
1
 40
1
 40
1
 10
131.228428
 20
51.796290
 30
0.0
 10
131.505516
 20
51.316582
 30
0.0
 10
132.017562
 20
51.021226
 30
0.0
 10
132.571546
 20
51.021561
 30
0.0
  0
LINE
  5
297
100
AcDbEntity
  8
Layer_1
 62
7
100
AcDbLine
 10
132.571546
 20
51.021561
 30
0.0
 11
132.571546
 21
51.021561
 31
0.0
  0
LINE
  5
298
100
AcDbEntity
  8
Layer_1
 62
7
100
AcDbLine
 10
134.921554
 20
42.671562
 30
0.0
 11
130.221538
 21
42.671562
 31
0.0
  0
LINE
  5
299
100
AcDbEntity
  8
Layer_1
 62
7
100
AcDbLine
 10
130.221538
 20
42.671562
 30
0.0
 11
130.221538
 21
32.471560
 31
0.0
  0
LINE
  5
29a
100
AcDbEntity
  8
Layer_1
 62
7
100
AcDbLine
 10
130.221538
 20
32.471560
 30
0.0
 11
134.921554
 21
32.471560
 31
0.0
  0
LINE
  5
29b
100
AcDbEntity
  8
Layer_1
 62
7
100
AcDbLine
 10
134.921554
 20
32.471560
 30
0.0
 11
134.921554
 21
42.671562
 31
0.0
  0
LINE
  5
29c
100
AcDbEntity
  8
Layer_1
 62
7
100
AcDbLine
 10
127.921540
 20
16.921561
 30
0.0
 11
117.721549
 21
16.921561
 31
0.0
  0
LINE
  5
29d
100
AcDbEntity
  8
Layer_1
 62
7
100
AcDbLine
 10
117.721549
 20
16.921561
 30
0.0
 11
117.721549
 21
12.221548
 31
0.0
  0
LINE
  5
29e
100
AcDbEntity
  8
Layer_1
 62
7
100
AcDbLine
 10
117.721549
 20
12.221548
 30
0.0
 11
127.921540
 21
12.221548
 31
0.0
  0
LINE
  5
29f
100
AcDbEntity
  8
Layer_1
 62
7
100
AcDbLine
 10
127.921540
 20
12.221548
 30
0.0
 11
127.921540
 21
16.921561
 31
0.0
  0
LINE
  5
2a0
100
AcDbEntity
  8
Layer_1
 62
7
100
AcDbLine
 10
127.921540
 20
62.921562
 30
0.0
 11
117.721549
 21
62.921562
 31
0.0
  0
LINE
  5
2a1
100
AcDbEntity
  8
Layer_1
 62
7
100
AcDbLine
 10
117.721549
 20
62.921562
 30
0.0
 11
117.721549
 21
58.221560
 31
0.0
  0
LINE
  5
2a2
100
AcDbEntity
  8
Layer_1
 62
7
100
AcDbLine
 10
117.721549
 20
58.221560
 30
0.0
 11
127.921540
 21
58.221560
 31
0.0
  0
LINE
  5
2a3
100
AcDbEntity
  8
Layer_1
 62
7
100
AcDbLine
 10
127.921540
 20
58.221560
 30
0.0
 11
127.921540
 21
62.921562
 31
0.0
  0
SPLINE
  5
2a4
100
AcDbEntity
  8
Layer_1
 62
7
100
AcDbSpline
 70
8
 71
3
 72
8
 73
4
 74
0
 40
0
 40
0
 40
0
 40
0
 40
1
 40
1
 40
1
 40
1
 10
100.821546
 20
13.021563
 30
0.0
 10
101.375853
 20
13.020744
 30
0.0
 10
101.888405
 20
13.315993
 30
0.0
 10
102.165795
 20
13.795900
 30
0.0
  0
SPLINE
  5
2a5
100
AcDbEntity
  8
Layer_1
 62
7
100
AcDbSpline
 70
8
 71
3
 72
8
 73
4
 74
0
 40
0
 40
0
 40
0
 40
0
 40
1
 40
1
 40
1
 40
1
 10
102.165795
 20
13.795900
 30
0.0
 10
102.443185
 20
14.275808
 30
0.0
 10
102.443185
 20
14.867315
 30
0.0
 10
102.165795
 20
15.347223
 30
0.0
  0
SPLINE
  5
2a6
100
AcDbEntity
  8
Layer_1
 62
7
100
AcDbSpline
 70
8
 71
3
 72
8
 73
4
 74
0
 40
0
 40
0
 40
0
 40
0
 40
1
 40
1
 40
1
 40
1
 10
102.165795
 20
15.347223
 30
0.0
 10
101.888405
 20
15.827131
 30
0.0
 10
101.375853
 20
16.122379
 30
0.0
 10
100.821546
 20
16.121560
 30
0.0
  0
SPLINE
  5
2a7
100
AcDbEntity
  8
Layer_1
 62
7
100
AcDbSpline
 70
8
 71
3
 72
8
 73
4
 74
0
 40
0
 40
0
 40
0
 40
0
 40
1
 40
1
 40
1
 40
1
 10
100.821546
 20
16.121560
 30
0.0
 10
100.267240
 20
16.122379
 30
0.0
 10
99.754688
 20
15.827131
 30
0.0
 10
99.477298
 20
15.347223
 30
0.0
  0
SPLINE
  5
2a8
100
AcDbEntity
  8
Layer_1
 62
7
100
AcDbSpline
 70
8
 71
3
 72
8
 73
4
 74
0
 40
0
 40
0
 40
0
 40
0
 40
1
 40
1
 40
1
 40
1
 10
99.477298
 20
15.347223
 30
0.0
 10
99.199908
 20
14.867315
 30
0.0
 10
99.199908
 20
14.275808
 30
0.0
 10
99.477298
 20
13.795900
 30
0.0
  0
SPLINE
  5
2a9
100
AcDbEntity
  8
Layer_1
 62
7
100
AcDbSpline
 70
8
 71
3
 72
8
 73
4
 74
0
 40
0
 40
0
 40
0
 40
0
 40
1
 40
1
 40
1
 40
1
 10
99.477298
 20
13.795900
 30
0.0
 10
99.754688
 20
13.315993
 30
0.0
 10
100.267240
 20
13.020744
 30
0.0
 10
100.821546
 20
13.021563
 30
0.0
  0
LINE
  5
2aa
100
AcDbEntity
  8
Layer_1
 62
7
100
AcDbLine
 10
100.821546
 20
13.021563
 30
0.0
 11
100.821546
 21
13.021563
 31
0.0
  0
SPLINE
  5
2ab
100
AcDbEntity
  8
Layer_1
 62
7
100
AcDbSpline
 70
8
 71
3
 72
8
 73
4
 74
0
 40
0
 40
0
 40
0
 40
0
 40
1
 40
1
 40
1
 40
1
 10
100.821546
 20
59.021562
 30
0.0
 10
101.375531
 20
59.021227
 30
0.0
 10
101.887577
 20
59.316582
 30
0.0
 10
102.164665
 20
59.796291
 30
0.0
  0
SPLINE
  5
2ac
100
AcDbEntity
  8
Layer_1
 62
7
100
AcDbSpline
 70
8
 71
3
 72
8
 73
4
 74
0
 40
0
 40
0
 40
0
 40
0
 40
1
 40
1
 40
1
 40
1
 10
102.164665
 20
59.796291
 30
0.0
 10
102.441754
 20
60.276000
 30
0.0
 10
102.441754
 20
60.867122
 30
0.0
 10
102.164665
 20
61.346831
 30
0.0
  0
SPLINE
  5
2ad
100
AcDbEntity
  8
Layer_1
 62
7
100
AcDbSpline
 70
8
 71
3
 72
8
 73
4
 74
0
 40
0
 40
0
 40
0
 40
0
 40
1
 40
1
 40
1
 40
1
 10
102.164665
 20
61.346831
 30
0.0
 10
101.887577
 20
61.826540
 30
0.0
 10
101.375531
 20
62.121895
 30
0.0
 10
100.821546
 20
62.121561
 30
0.0
  0
SPLINE
  5
2ae
100
AcDbEntity
  8
Layer_1
 62
7
100
AcDbSpline
 70
8
 71
3
 72
8
 73
4
 74
0
 40
0
 40
0
 40
0
 40
0
 40
1
 40
1
 40
1
 40
1
 10
100.821546
 20
62.121561
 30
0.0
 10
100.267562
 20
62.121895
 30
0.0
 10
99.755516
 20
61.826540
 30
0.0
 10
99.478428
 20
61.346831
 30
0.0
  0
SPLINE
  5
2af
100
AcDbEntity
  8
Layer_1
 62
7
100
AcDbSpline
 70
8
 71
3
 72
8
 73
4
 74
0
 40
0
 40
0
 40
0
 40
0
 40
1
 40
1
 40
1
 40
1
 10
99.478428
 20
61.346831
 30
0.0
 10
99.201339
 20
60.867122
 30
0.0
 10
99.201339
 20
60.276000
 30
0.0
 10
99.478428
 20
59.796291
 30
0.0
  0
SPLINE
  5
2b0
100
AcDbEntity
  8
Layer_1
 62
7
100
AcDbSpline
 70
8
 71
3
 72
8
 73
4
 74
0
 40
0
 40
0
 40
0
 40
0
 40
1
 40
1
 40
1
 40
1
 10
99.478428
 20
59.796291
 30
0.0
 10
99.755516
 20
59.316582
 30
0.0
 10
100.267562
 20
59.021227
 30
0.0
 10
100.821546
 20
59.021562
 30
0.0
  0
LINE
  5
2b1
100
AcDbEntity
  8
Layer_1
 62
7
100
AcDbLine
 10
100.821546
 20
59.021562
 30
0.0
 11
100.821546
 21
59.021562
 31
0.0
  0
SPLINE
  5
2b2
100
AcDbEntity
  8
Layer_1
 62
7
100
AcDbSpline
 70
8
 71
3
 72
8
 73
4
 74
0
 40
0
 40
0
 40
0
 40
0
 40
1
 40
1
 40
1
 40
1
 10
120.571542
 20
51.021561
 30
0.0
 10
121.125527
 20
51.021226
 30
0.0
 10
121.637572
 20
51.316582
 30
0.0
 10
121.914661
 20
51.796290
 30
0.0
  0
SPLINE
  5
2b3
100
AcDbEntity
  8
Layer_1
 62
7
100
AcDbSpline
 70
8
 71
3
 72
8
 73
4
 74
0
 40
0
 40
0
 40
0
 40
0
 40
1
 40
1
 40
1
 40
1
 10
121.914661
 20
51.796290
 30
0.0
 10
122.191750
 20
52.275999
 30
0.0
 10
122.191750
 20
52.867122
 30
0.0
 10
121.914661
 20
53.346830
 30
0.0
  0
SPLINE
  5
2b4
100
AcDbEntity
  8
Layer_1
 62
7
100
AcDbSpline
 70
8
 71
3
 72
8
 73
4
 74
0
 40
0
 40
0
 40
0
 40
0
 40
1
 40
1
 40
1
 40
1
 10
121.914661
 20
53.346830
 30
0.0
 10
121.637572
 20
53.826539
 30
0.0
 10
121.125527
 20
54.121894
 30
0.0
 10
120.571542
 20
54.121560
 30
0.0
  0
SPLINE
  5
2b5
100
AcDbEntity
  8
Layer_1
 62
7
100
AcDbSpline
 70
8
 71
3
 72
8
 73
4
 74
0
 40
0
 40
0
 40
0
 40
0
 40
1
 40
1
 40
1
 40
1
 10
120.571542
 20
54.121560
 30
0.0
 10
120.017558
 20
54.121894
 30
0.0
 10
119.505512
 20
53.826539
 30
0.0
 10
119.228423
 20
53.346830
 30
0.0
  0
SPLINE
  5
2b6
100
AcDbEntity
  8
Layer_1
 62
7
100
AcDbSpline
 70
8
 71
3
 72
8
 73
4
 74
0
 40
0
 40
0
 40
0
 40
0
 40
1
 40
1
 40
1
 40
1
 10
119.228423
 20
53.346830
 30
0.0
 10
118.951335
 20
52.867122
 30
0.0
 10
118.951335
 20
52.275999
 30
0.0
 10
119.228423
 20
51.796290
 30
0.0
  0
SPLINE
  5
2b7
100
AcDbEntity
  8
Layer_1
 62
7
100
AcDbSpline
 70
8
 71
3
 72
8
 73
4
 74
0
 40
0
 40
0
 40
0
 40
0
 40
1
 40
1
 40
1
 40
1
 10
119.228423
 20
51.796290
 30
0.0
 10
119.505512
 20
51.316582
 30
0.0
 10
120.017558
 20
51.021226
 30
0.0
 10
120.571542
 20
51.021561
 30
0.0
  0
LINE
  5
2b8
100
AcDbEntity
  8
Layer_1
 62
7
100
AcDbLine
 10
120.571542
 20
51.021561
 30
0.0
 11
120.571542
 21
51.021561
 31
0.0
  0
SPLINE
  5
2b9
100
AcDbEntity
  8
Layer_1
 62
7
100
AcDbSpline
 70
8
 71
3
 72
8
 73
4
 74
0
 40
0
 40
0
 40
0
 40
0
 40
1
 40
1
 40
1
 40
1
 10
120.571542
 20
21.021561
 30
0.0
 10
121.125527
 20
21.021227
 30
0.0
 10
121.637572
 20
21.316582
 30
0.0
 10
121.914661
 20
21.796291
 30
0.0
  0
SPLINE
  5
2ba
100
AcDbEntity
  8
Layer_1
 62
7
100
AcDbSpline
 70
8
 71
3
 72
8
 73
4
 74
0
 40
0
 40
0
 40
0
 40
0
 40
1
 40
1
 40
1
 40
1
 10
121.914661
 20
21.796291
 30
0.0
 10
122.191750
 20
22.276000
 30
0.0
 10
122.191750
 20
22.867122
 30
0.0
 10
121.914661
 20
23.346831
 30
0.0
  0
SPLINE
  5
2bb
100
AcDbEntity
  8
Layer_1
 62
7
100
AcDbSpline
 70
8
 71
3
 72
8
 73
4
 74
0
 40
0
 40
0
 40
0
 40
0
 40
1
 40
1
 40
1
 40
1
 10
121.914661
 20
23.346831
 30
0.0
 10
121.637572
 20
23.826540
 30
0.0
 10
121.125527
 20
24.121895
 30
0.0
 10
120.571542
 20
24.121561
 30
0.0
  0
SPLINE
  5
2bc
100
AcDbEntity
  8
Layer_1
 62
7
100
AcDbSpline
 70
8
 71
3
 72
8
 73
4
 74
0
 40
0
 40
0
 40
0
 40
0
 40
1
 40
1
 40
1
 40
1
 10
120.571542
 20
24.121561
 30
0.0
 10
120.017558
 20
24.121895
 30
0.0
 10
119.505512
 20
23.826540
 30
0.0
 10
119.228423
 20
23.346831
 30
0.0
  0
SPLINE
  5
2bd
100
AcDbEntity
  8
Layer_1
 62
7
100
AcDbSpline
 70
8
 71
3
 72
8
 73
4
 74
0
 40
0
 40
0
 40
0
 40
0
 40
1
 40
1
 40
1
 40
1
 10
119.228423
 20
23.346831
 30
0.0
 10
118.951335
 20
22.867122
 30
0.0
 10
118.951335
 20
22.276000
 30
0.0
 10
119.228423
 20
21.796291
 30
0.0
  0
SPLINE
  5
2be
100
AcDbEntity
  8
Layer_1
 62
7
100
AcDbSpline
 70
8
 71
3
 72
8
 73
4
 74
0
 40
0
 40
0
 40
0
 40
0
 40
1
 40
1
 40
1
 40
1
 10
119.228423
 20
21.796291
 30
0.0
 10
119.505512
 20
21.316582
 30
0.0
 10
120.017558
 20
21.021227
 30
0.0
 10
120.571542
 20
21.021561
 30
0.0
  0
LINE
  5
2bf
100
AcDbEntity
  8
Layer_1
 62
7
100
AcDbLine
 10
120.571542
 20
21.021561
 30
0.0
 11
120.571542
 21
21.021561
 31
0.0
  0
SPLINE
  5
2c0
100
AcDbEntity
  8
Layer_1
 62
7
100
AcDbSpline
 70
8
 71
3
 72
8
 73
4
 74
0
 40
0
 40
0
 40
0
 40
0
 40
1
 40
1
 40
1
 40
1
 10
165.071546
 20
35.071560
 30
0.0
 10
165.072133
 20
34.519691
 30
0.0
 10
165.519676
 20
34.072623
 30
0.0
 10
166.071546
 20
34.072623
 30
0.0
  0
SPLINE
  5
2c1
100
AcDbEntity
  8
Layer_1
 62
7
100
AcDbSpline
 70
8
 71
3
 72
8
 73
4
 74
0
 40
0
 40
0
 40
0
 40
0
 40
1
 40
1
 40
1
 40
1
 10
166.071546
 20
34.072623
 30
0.0
 10
166.623416
 20
34.072623
 30
0.0
 10
167.070959
 20
34.519691
 30
0.0
 10
167.071545
 20
35.071560
 30
0.0
  0
LINE
  5
2c2
100
AcDbEntity
  8
Layer_1
 62
7
100
AcDbLine
 10
167.071545
 20
35.071560
 30
0.0
 11
167.071545
 21
40.071561
 31
0.0
  0
SPLINE
  5
2c3
100
AcDbEntity
  8
Layer_1
 62
7
100
AcDbSpline
 70
8
 71
3
 72
8
 73
4
 74
0
 40
0
 40
0
 40
0
 40
0
 40
1
 40
1
 40
1
 40
1
 10
167.071545
 20
40.071561
 30
0.0
 10
167.070959
 20
40.623431
 30
0.0
 10
166.623416
 20
41.070499
 30
0.0
 10
166.071546
 20
41.070499
 30
0.0
  0
SPLINE
  5
2c4
100
AcDbEntity
  8
Layer_1
 62
7
100
AcDbSpline
 70
8
 71
3
 72
8
 73
4
 74
0
 40
0
 40
0
 40
0
 40
0
 40
1
 40
1
 40
1
 40
1
 10
166.071546
 20
41.070499
 30
0.0
 10
165.519676
 20
41.070499
 30
0.0
 10
165.072133
 20
40.623431
 30
0.0
 10
165.071546
 20
40.071561
 30
0.0
  0
LINE
  5
2c5
100
AcDbEntity
  8
Layer_1
 62
7
100
AcDbLine
 10
165.071546
 20
40.071561
 30
0.0
 11
165.071546
 21
35.071560
 31
0.0
  0
ENDSEC
  0
SECTION
  2
OBJECTS
  0
DICTIONARY
  5
C
330
0
100
AcDbDictionary
  3
ACAD_GROUP
350
D
  3
ACAD_MLINESTYLE
350
17
  0
DICTIONARY
  5
D
330
C
100
AcDbDictionary
  0
DICTIONARY
  5
1A
330
C
100
AcDbDictionary
  0
DICTIONARY
  5
17
330
C
100
AcDbDictionary
  3
STANDARD
350
18
  0
DICTIONARY
  5
19
330
C
100
AcDbDictionary
  0
ENDSEC
  0
EOF
