  0
SECTION
  2
HEADER
  9
$ACADVER
  1
AC1014
  9
$HANDSEED
  5
FFFF
  9
$MEASUREMENT
 70
     1
  0
ENDSEC
  0
SECTION
  2
TABLES
  0
TABLE
  2
VPORT
  5
8
330
0
100
AcDbSymbolTable
 70
     4
  0
VPORT
  5
2E
330
8
100
AcDbSymbolTableRecord
100
AcDbViewportTableRecord
  2
*ACTIVE
 70
     0
 10
0.0
 20
0.0
 11
1.0
 21
1.0
 12
210.0
 22
148.5
 13
0.0
 23
0.0
 14
10.0
 24
10.0
 15
10.0
 25
10.0
 16
0.0
 26
0.0
 36
1.0
 17
0.0
 27
0.0
 37
0.0
 40
341.0
 41
1.24
 42
50.0
 43
0.0
 44
0.0
 50
0.0
 51
0.0
 71
     0
 72
   100
 73
     1
 74
     3
 75
     0
 76
     0
 77
     0
 78
     0
  0
ENDTAB
  0
TABLE
  2
LTYPE
  5
5
330
0
100
AcDbSymbolTable
 70
     1
  0
LTYPE
  5
14
330
5
100
AcDbSymbolTableRecord
100
AcDbLinetypeTableRecord
  2
BYBLOCK
 70
     0
  3

 72
    65
 73
     0
 40
0.0
  0
LTYPE
  5
15
330
5
100
AcDbSymbolTableRecord
100
AcDbLinetypeTableRecord
  2
BYLAYER
 70
     0
  3

 72
    65
 73
     0
 40
0.0
  0
LTYPE
  5
16
330
5
100
AcDbSymbolTableRecord
100
AcDbLinetypeTableRecord
  2
CONTINUOUS
 70
     0
  3
Solid line
 72
    65
 73
     0
 40
0.0
  0
ENDTAB
  0
TABLE
  2
LAYER
  5
2
100
AcDbSymbolTable
 70
2
  0
LAYER
  5
50
100
AcDbSymbolTableRecord
100
AcDbLayerTableRecord
  2
0
 70
0
  6
CONTINUOUS
  0
LAYER
  5
51
100
AcDbSymbolTableRecord
100
AcDbLayerTableRecord
  2
Layer_1
 70
0
  6
CONTINUOUS
  0
ENDTAB
  0
TABLE
  2
STYLE
  5
3
330
0
100
AcDbSymbolTable
 70
     1
  0
STYLE
  5
11
330
3
100
AcDbSymbolTableRecord
100
AcDbTextStyleTableRecord
  2
STANDARD
 70
     0
 40
0.0
 41
1.0
 50
0.0
 71
     0
 42
2.5
  3
txt
  4

  0
ENDTAB
  0
TABLE
  2
VIEW
  5
6
330
0
100
AcDbSymbolTable
 70
     0
  0
ENDTAB
  0
TABLE
  2
UCS
  5
7
330
0
100
AcDbSymbolTable
 70
     0
  0
ENDTAB
  0
TABLE
  2
APPID
  5
9
330
0
100
AcDbSymbolTable
 70
     2
  0
APPID
  5
12
330
9
100
AcDbSymbolTableRecord
100
AcDbRegAppTableRecord
  2
ACAD
 70
     0
  0
ENDTAB
  0
TABLE
  2
DIMSTYLE
  5
A
330
0
100
AcDbSymbolTable
 70
     1
  0
DIMSTYLE
105
27
330
A
100
AcDbSymbolTableRecord
100
AcDbDimStyleTableRecord
  2
ISO-25
 70
     0
  3

  4

  5

  6

  7

 40
1.0
 41
2.5
 42
0.625
 43
3.75
 44
1.25
 45
0.0
 46
0.0
 47
0.0
 48
0.0
140
2.5
141
2.5
142
0.0
143
0.03937007874016
144
1.0
145
0.0
146
1.0
147
0.625
 71
     0
 72
     0
 73
     0
 74
     0
 75
     0
 76
     0
 77
     1
 78
     8
170
     0
171
     3
172
     1
173
     0
174
     0
175
     0
176
     0
177
     0
178
     0
270
     2
271
     2
272
     2
273
     2
274
     3
340
11
275
     0
280
     0
281
     0
282
     0
283
     0
284
     8
285
     0
286
     0
287
     3
288
     0
  0
ENDTAB
  0
TABLE
  2
BLOCK_RECORD
  5
1
330
0
100
AcDbSymbolTable
 70
     1
  0
BLOCK_RECORD
  5
1F
330
1
100
AcDbSymbolTableRecord
100
AcDbBlockTableRecord
  2
*MODEL_SPACE
  0
BLOCK_RECORD
  5
1B
330
1
100
AcDbSymbolTableRecord
100
AcDbBlockTableRecord
  2
*PAPER_SPACE
  0
ENDTAB
  0
ENDSEC
  0
SECTION
  2
BLOCKS
  0
BLOCK
  5
20
330
1F
100
AcDbEntity
  8
0
100
AcDbBlockBegin
  2
*MODEL_SPACE
 70
     0
 10
0.0
 20
0.0
 30
0.0
  3
*MODEL_SPACE
  1

  0
ENDBLK
  5
21
330
1F
100
AcDbEntity
  8
0
100
AcDbBlockEnd
  0
BLOCK
  5
1C
330
1B
100
AcDbEntity
 67
     1
  8
0
100
AcDbBlockBegin
  2
*PAPER_SPACE
  1

  0
ENDBLK
  5
1D
330
1B
100
AcDbEntity
 67
     1
  8
0
100
AcDbBlockEnd
  0
ENDSEC
  0
SECTION
  2
ENTITIES
  0
SPLINE
  5
100
100
AcDbEntity
  8
Layer_1
 62
7
100
AcDbSpline
 70
8
 71
3
 72
8
 73
4
 74
0
 40
0
 40
0
 40
0
 40
0
 40
1
 40
1
 40
1
 40
1
 10
224.970563
 20
134.583505
 30
0.0
 10
224.416579
 20
134.583840
 30
0.0
 10
223.904533
 20
134.288484
 30
0.0
 10
223.627444
 20
133.808776
 30
0.0
  0
SPLINE
  5
101
100
AcDbEntity
  8
Layer_1
 62
7
100
AcDbSpline
 70
8
 71
3
 72
8
 73
4
 74
0
 40
0
 40
0
 40
0
 40
0
 40
1
 40
1
 40
1
 40
1
 10
223.627444
 20
133.808776
 30
0.0
 10
223.350355
 20
133.329067
 30
0.0
 10
223.350355
 20
132.737944
 30
0.0
 10
223.627444
 20
132.258236
 30
0.0
  0
SPLINE
  5
102
100
AcDbEntity
  8
Layer_1
 62
7
100
AcDbSpline
 70
8
 71
3
 72
8
 73
4
 74
0
 40
0
 40
0
 40
0
 40
0
 40
1
 40
1
 40
1
 40
1
 10
223.627444
 20
132.258236
 30
0.0
 10
223.904533
 20
131.778527
 30
0.0
 10
224.416579
 20
131.483172
 30
0.0
 10
224.970563
 20
131.483506
 30
0.0
  0
SPLINE
  5
103
100
AcDbEntity
  8
Layer_1
 62
7
100
AcDbSpline
 70
8
 71
3
 72
8
 73
4
 74
0
 40
0
 40
0
 40
0
 40
0
 40
1
 40
1
 40
1
 40
1
 10
224.970563
 20
131.483506
 30
0.0
 10
225.524547
 20
131.483172
 30
0.0
 10
226.036593
 20
131.778527
 30
0.0
 10
226.313682
 20
132.258236
 30
0.0
  0
SPLINE
  5
104
100
AcDbEntity
  8
Layer_1
 62
7
100
AcDbSpline
 70
8
 71
3
 72
8
 73
4
 74
0
 40
0
 40
0
 40
0
 40
0
 40
1
 40
1
 40
1
 40
1
 10
226.313682
 20
132.258236
 30
0.0
 10
226.590770
 20
132.737944
 30
0.0
 10
226.590770
 20
133.329067
 30
0.0
 10
226.313682
 20
133.808776
 30
0.0
  0
SPLINE
  5
105
100
AcDbEntity
  8
Layer_1
 62
7
100
AcDbSpline
 70
8
 71
3
 72
8
 73
4
 74
0
 40
0
 40
0
 40
0
 40
0
 40
1
 40
1
 40
1
 40
1
 10
226.313682
 20
133.808776
 30
0.0
 10
226.036593
 20
134.288484
 30
0.0
 10
225.524547
 20
134.583840
 30
0.0
 10
224.970563
 20
134.583505
 30
0.0
  0
LINE
  5
106
100
AcDbEntity
  8
Layer_1
 62
7
100
AcDbLine
 10
224.970563
 20
134.583505
 30
0.0
 11
224.970563
 21
134.583505
 31
0.0
  0
LINE
  5
107
100
AcDbEntity
  8
Layer_1
 62
7
100
AcDbLine
 10
229.870562
 20
113.033505
 30
0.0
 11
229.870562
 21
133.033504
 31
0.0
  0
SPLINE
  5
108
100
AcDbEntity
  8
Layer_1
 62
7
100
AcDbSpline
 70
8
 71
3
 72
8
 73
4
 74
0
 40
0
 40
0
 40
0
 40
0
 40
1
 40
1
 40
1
 40
1
 10
220.070564
 20
113.033505
 30
0.0
 10
220.072617
 20
110.328762
 30
0.0
 10
222.265820
 20
108.137223
 30
0.0
 10
224.970563
 20
108.137223
 30
0.0
  0
SPLINE
  5
109
100
AcDbEntity
  8
Layer_1
 62
7
100
AcDbSpline
 70
8
 71
3
 72
8
 73
4
 74
0
 40
0
 40
0
 40
0
 40
0
 40
1
 40
1
 40
1
 40
1
 10
224.970563
 20
108.137223
 30
0.0
 10
227.675306
 20
108.137223
 30
0.0
 10
229.868509
 20
110.328762
 30
0.0
 10
229.870562
 20
113.033505
 30
0.0
  0
LINE
  5
10a
100
AcDbEntity
  8
Layer_1
 62
7
100
AcDbLine
 10
220.070564
 20
133.033504
 30
0.0
 11
220.070564
 21
113.033505
 31
0.0
  0
SPLINE
  5
10b
100
AcDbEntity
  8
Layer_1
 62
7
100
AcDbSpline
 70
8
 71
3
 72
8
 73
4
 74
0
 40
0
 40
0
 40
0
 40
0
 40
1
 40
1
 40
1
 40
1
 10
229.870562
 20
133.033504
 30
0.0
 10
229.868509
 20
135.738247
 30
0.0
 10
227.675306
 20
137.929785
 30
0.0
 10
224.970563
 20
137.929785
 30
0.0
  0
SPLINE
  5
10c
100
AcDbEntity
  8
Layer_1
 62
7
100
AcDbSpline
 70
8
 71
3
 72
8
 73
4
 74
0
 40
0
 40
0
 40
0
 40
0
 40
1
 40
1
 40
1
 40
1
 10
224.970563
 20
137.929785
 30
0.0
 10
222.265820
 20
137.929785
 30
0.0
 10
220.072617
 20
135.738247
 30
0.0
 10
220.070564
 20
133.033504
 30
0.0
  0
SPLINE
  5
10d
100
AcDbEntity
  8
Layer_1
 62
7
100
AcDbSpline
 70
8
 71
3
 72
8
 73
4
 74
0
 40
0
 40
0
 40
0
 40
0
 40
1
 40
1
 40
1
 40
1
 10
224.970563
 20
114.583503
 30
0.0
 10
224.416579
 20
114.583837
 30
0.0
 10
223.904533
 20
114.288482
 30
0.0
 10
223.627444
 20
113.808773
 30
0.0
  0
SPLINE
  5
10e
100
AcDbEntity
  8
Layer_1
 62
7
100
AcDbSpline
 70
8
 71
3
 72
8
 73
4
 74
0
 40
0
 40
0
 40
0
 40
0
 40
1
 40
1
 40
1
 40
1
 10
223.627444
 20
113.808773
 30
0.0
 10
223.350355
 20
113.329064
 30
0.0
 10
223.350355
 20
112.737942
 30
0.0
 10
223.627444
 20
112.258233
 30
0.0
  0
SPLINE
  5
10f
100
AcDbEntity
  8
Layer_1
 62
7
100
AcDbSpline
 70
8
 71
3
 72
8
 73
4
 74
0
 40
0
 40
0
 40
0
 40
0
 40
1
 40
1
 40
1
 40
1
 10
223.627444
 20
112.258233
 30
0.0
 10
223.904533
 20
111.778524
 30
0.0
 10
224.416579
 20
111.483169
 30
0.0
 10
224.970563
 20
111.483503
 30
0.0
  0
SPLINE
  5
110
100
AcDbEntity
  8
Layer_1
 62
7
100
AcDbSpline
 70
8
 71
3
 72
8
 73
4
 74
0
 40
0
 40
0
 40
0
 40
0
 40
1
 40
1
 40
1
 40
1
 10
224.970563
 20
111.483503
 30
0.0
 10
225.524547
 20
111.483169
 30
0.0
 10
226.036593
 20
111.778524
 30
0.0
 10
226.313682
 20
112.258233
 30
0.0
  0
SPLINE
  5
111
100
AcDbEntity
  8
Layer_1
 62
7
100
AcDbSpline
 70
8
 71
3
 72
8
 73
4
 74
0
 40
0
 40
0
 40
0
 40
0
 40
1
 40
1
 40
1
 40
1
 10
226.313682
 20
112.258233
 30
0.0
 10
226.590770
 20
112.737942
 30
0.0
 10
226.590770
 20
113.329064
 30
0.0
 10
226.313682
 20
113.808773
 30
0.0
  0
SPLINE
  5
112
100
AcDbEntity
  8
Layer_1
 62
7
100
AcDbSpline
 70
8
 71
3
 72
8
 73
4
 74
0
 40
0
 40
0
 40
0
 40
0
 40
1
 40
1
 40
1
 40
1
 10
226.313682
 20
113.808773
 30
0.0
 10
226.036593
 20
114.288482
 30
0.0
 10
225.524547
 20
114.583837
 30
0.0
 10
224.970563
 20
114.583503
 30
0.0
  0
LINE
  5
113
100
AcDbEntity
  8
Layer_1
 62
7
100
AcDbLine
 10
224.970563
 20
114.583503
 30
0.0
 11
224.970563
 21
114.583503
 31
0.0
  0
SPLINE
  5
114
100
AcDbEntity
  8
Layer_1
 62
7
100
AcDbSpline
 70
8
 71
3
 72
8
 73
4
 74
0
 40
0
 40
0
 40
0
 40
0
 40
1
 40
1
 40
1
 40
1
 10
224.970563
 20
184.583518
 30
0.0
 10
224.416579
 20
184.583852
 30
0.0
 10
223.904533
 20
184.288497
 30
0.0
 10
223.627444
 20
183.808788
 30
0.0
  0
SPLINE
  5
115
100
AcDbEntity
  8
Layer_1
 62
7
100
AcDbSpline
 70
8
 71
3
 72
8
 73
4
 74
0
 40
0
 40
0
 40
0
 40
0
 40
1
 40
1
 40
1
 40
1
 10
223.627444
 20
183.808788
 30
0.0
 10
223.350355
 20
183.329080
 30
0.0
 10
223.350355
 20
182.737957
 30
0.0
 10
223.627444
 20
182.258248
 30
0.0
  0
SPLINE
  5
116
100
AcDbEntity
  8
Layer_1
 62
7
100
AcDbSpline
 70
8
 71
3
 72
8
 73
4
 74
0
 40
0
 40
0
 40
0
 40
0
 40
1
 40
1
 40
1
 40
1
 10
223.627444
 20
182.258248
 30
0.0
 10
223.904533
 20
181.778540
 30
0.0
 10
224.416579
 20
181.483184
 30
0.0
 10
224.970563
 20
181.483519
 30
0.0
  0
SPLINE
  5
117
100
AcDbEntity
  8
Layer_1
 62
7
100
AcDbSpline
 70
8
 71
3
 72
8
 73
4
 74
0
 40
0
 40
0
 40
0
 40
0
 40
1
 40
1
 40
1
 40
1
 10
224.970563
 20
181.483519
 30
0.0
 10
225.524547
 20
181.483184
 30
0.0
 10
226.036593
 20
181.778540
 30
0.0
 10
226.313682
 20
182.258248
 30
0.0
  0
SPLINE
  5
118
100
AcDbEntity
  8
Layer_1
 62
7
100
AcDbSpline
 70
8
 71
3
 72
8
 73
4
 74
0
 40
0
 40
0
 40
0
 40
0
 40
1
 40
1
 40
1
 40
1
 10
226.313682
 20
182.258248
 30
0.0
 10
226.590770
 20
182.737957
 30
0.0
 10
226.590770
 20
183.329080
 30
0.0
 10
226.313682
 20
183.808788
 30
0.0
  0
SPLINE
  5
119
100
AcDbEntity
  8
Layer_1
 62
7
100
AcDbSpline
 70
8
 71
3
 72
8
 73
4
 74
0
 40
0
 40
0
 40
0
 40
0
 40
1
 40
1
 40
1
 40
1
 10
226.313682
 20
183.808788
 30
0.0
 10
226.036593
 20
184.288497
 30
0.0
 10
225.524547
 20
184.583852
 30
0.0
 10
224.970563
 20
184.583518
 30
0.0
  0
LINE
  5
11a
100
AcDbEntity
  8
Layer_1
 62
7
100
AcDbLine
 10
224.970563
 20
184.583518
 30
0.0
 11
224.970563
 21
184.583518
 31
0.0
  0
LINE
  5
11b
100
AcDbEntity
  8
Layer_1
 62
7
100
AcDbLine
 10
229.870562
 20
163.033518
 30
0.0
 11
229.870562
 21
183.033517
 31
0.0
  0
SPLINE
  5
11c
100
AcDbEntity
  8
Layer_1
 62
7
100
AcDbSpline
 70
8
 71
3
 72
8
 73
4
 74
0
 40
0
 40
0
 40
0
 40
0
 40
1
 40
1
 40
1
 40
1
 10
220.070564
 20
163.033518
 30
0.0
 10
220.072617
 20
160.328775
 30
0.0
 10
222.265820
 20
158.137236
 30
0.0
 10
224.970563
 20
158.137236
 30
0.0
  0
SPLINE
  5
11d
100
AcDbEntity
  8
Layer_1
 62
7
100
AcDbSpline
 70
8
 71
3
 72
8
 73
4
 74
0
 40
0
 40
0
 40
0
 40
0
 40
1
 40
1
 40
1
 40
1
 10
224.970563
 20
158.137236
 30
0.0
 10
227.675306
 20
158.137236
 30
0.0
 10
229.868509
 20
160.328775
 30
0.0
 10
229.870562
 20
163.033518
 30
0.0
  0
LINE
  5
11e
100
AcDbEntity
  8
Layer_1
 62
7
100
AcDbLine
 10
220.070564
 20
183.033517
 30
0.0
 11
220.070564
 21
163.033518
 31
0.0
  0
SPLINE
  5
11f
100
AcDbEntity
  8
Layer_1
 62
7
100
AcDbSpline
 70
8
 71
3
 72
8
 73
4
 74
0
 40
0
 40
0
 40
0
 40
0
 40
1
 40
1
 40
1
 40
1
 10
229.870562
 20
183.033517
 30
0.0
 10
229.868509
 20
185.738259
 30
0.0
 10
227.675306
 20
187.929798
 30
0.0
 10
224.970563
 20
187.929798
 30
0.0
  0
SPLINE
  5
120
100
AcDbEntity
  8
Layer_1
 62
7
100
AcDbSpline
 70
8
 71
3
 72
8
 73
4
 74
0
 40
0
 40
0
 40
0
 40
0
 40
1
 40
1
 40
1
 40
1
 10
224.970563
 20
187.929798
 30
0.0
 10
222.265820
 20
187.929798
 30
0.0
 10
220.072617
 20
185.738259
 30
0.0
 10
220.070564
 20
183.033517
 30
0.0
  0
SPLINE
  5
121
100
AcDbEntity
  8
Layer_1
 62
7
100
AcDbSpline
 70
8
 71
3
 72
8
 73
4
 74
0
 40
0
 40
0
 40
0
 40
0
 40
1
 40
1
 40
1
 40
1
 10
224.970563
 20
164.583519
 30
0.0
 10
224.416801
 20
164.583519
 30
0.0
 10
223.905104
 20
164.288090
 30
0.0
 10
223.628223
 20
163.808518
 30
0.0
  0
SPLINE
  5
122
100
AcDbEntity
  8
Layer_1
 62
7
100
AcDbSpline
 70
8
 71
3
 72
8
 73
4
 74
0
 40
0
 40
0
 40
0
 40
0
 40
1
 40
1
 40
1
 40
1
 10
223.628223
 20
163.808518
 30
0.0
 10
223.351342
 20
163.328946
 30
0.0
 10
223.351342
 20
162.738089
 30
0.0
 10
223.628223
 20
162.258517
 30
0.0
  0
SPLINE
  5
123
100
AcDbEntity
  8
Layer_1
 62
7
100
AcDbSpline
 70
8
 71
3
 72
8
 73
4
 74
0
 40
0
 40
0
 40
0
 40
0
 40
1
 40
1
 40
1
 40
1
 10
223.628223
 20
162.258517
 30
0.0
 10
223.905104
 20
161.778945
 30
0.0
 10
224.416801
 20
161.483516
 30
0.0
 10
224.970563
 20
161.483516
 30
0.0
  0
SPLINE
  5
124
100
AcDbEntity
  8
Layer_1
 62
7
100
AcDbSpline
 70
8
 71
3
 72
8
 73
4
 74
0
 40
0
 40
0
 40
0
 40
0
 40
1
 40
1
 40
1
 40
1
 10
224.970563
 20
161.483516
 30
0.0
 10
225.524325
 20
161.483516
 30
0.0
 10
226.036022
 20
161.778945
 30
0.0
 10
226.312903
 20
162.258517
 30
0.0
  0
SPLINE
  5
125
100
AcDbEntity
  8
Layer_1
 62
7
100
AcDbSpline
 70
8
 71
3
 72
8
 73
4
 74
0
 40
0
 40
0
 40
0
 40
0
 40
1
 40
1
 40
1
 40
1
 10
226.312903
 20
162.258517
 30
0.0
 10
226.589784
 20
162.738089
 30
0.0
 10
226.589784
 20
163.328946
 30
0.0
 10
226.312903
 20
163.808518
 30
0.0
  0
SPLINE
  5
126
100
AcDbEntity
  8
Layer_1
 62
7
100
AcDbSpline
 70
8
 71
3
 72
8
 73
4
 74
0
 40
0
 40
0
 40
0
 40
0
 40
1
 40
1
 40
1
 40
1
 10
226.312903
 20
163.808518
 30
0.0
 10
226.036022
 20
164.288090
 30
0.0
 10
225.524325
 20
164.583519
 30
0.0
 10
224.970563
 20
164.583519
 30
0.0
  0
LINE
  5
127
100
AcDbEntity
  8
Layer_1
 62
7
100
AcDbLine
 10
224.970563
 20
164.583519
 30
0.0
 11
224.970563
 21
164.583519
 31
0.0
  0
SPLINE
  5
128
100
AcDbEntity
  8
Layer_1
 62
7
100
AcDbSpline
 70
8
 71
3
 72
8
 73
4
 74
0
 40
0
 40
0
 40
0
 40
0
 40
1
 40
1
 40
1
 40
1
 10
180.744391
 20
249.326117
 30
0.0
 10
180.744391
 20
249.879879
 30
0.0
 10
180.448962
 20
250.391577
 30
0.0
 10
179.969390
 20
250.668458
 30
0.0
  0
SPLINE
  5
129
100
AcDbEntity
  8
Layer_1
 62
7
100
AcDbSpline
 70
8
 71
3
 72
8
 73
4
 74
0
 40
0
 40
0
 40
0
 40
0
 40
1
 40
1
 40
1
 40
1
 10
179.969390
 20
250.668458
 30
0.0
 10
179.489818
 20
250.945339
 30
0.0
 10
178.898961
 20
250.945339
 30
0.0
 10
178.419389
 20
250.668458
 30
0.0
  0
SPLINE
  5
12a
100
AcDbEntity
  8
Layer_1
 62
7
100
AcDbSpline
 70
8
 71
3
 72
8
 73
4
 74
0
 40
0
 40
0
 40
0
 40
0
 40
1
 40
1
 40
1
 40
1
 10
178.419389
 20
250.668458
 30
0.0
 10
177.939817
 20
250.391577
 30
0.0
 10
177.644388
 20
249.879879
 30
0.0
 10
177.644388
 20
249.326117
 30
0.0
  0
SPLINE
  5
12b
100
AcDbEntity
  8
Layer_1
 62
7
100
AcDbSpline
 70
8
 71
3
 72
8
 73
4
 74
0
 40
0
 40
0
 40
0
 40
0
 40
1
 40
1
 40
1
 40
1
 10
177.644388
 20
249.326117
 30
0.0
 10
177.644388
 20
248.772355
 30
0.0
 10
177.939817
 20
248.260658
 30
0.0
 10
178.419389
 20
247.983777
 30
0.0
  0
SPLINE
  5
12c
100
AcDbEntity
  8
Layer_1
 62
7
100
AcDbSpline
 70
8
 71
3
 72
8
 73
4
 74
0
 40
0
 40
0
 40
0
 40
0
 40
1
 40
1
 40
1
 40
1
 10
178.419389
 20
247.983777
 30
0.0
 10
178.898961
 20
247.706896
 30
0.0
 10
179.489818
 20
247.706896
 30
0.0
 10
179.969390
 20
247.983777
 30
0.0
  0
SPLINE
  5
12d
100
AcDbEntity
  8
Layer_1
 62
7
100
AcDbSpline
 70
8
 71
3
 72
8
 73
4
 74
0
 40
0
 40
0
 40
0
 40
0
 40
1
 40
1
 40
1
 40
1
 10
179.969390
 20
247.983777
 30
0.0
 10
180.448962
 20
248.260658
 30
0.0
 10
180.744391
 20
248.772355
 30
0.0
 10
180.744391
 20
249.326117
 30
0.0
  0
LINE
  5
12e
100
AcDbEntity
  8
Layer_1
 62
7
100
AcDbLine
 10
180.744391
 20
249.326117
 30
0.0
 11
180.744391
 21
249.326117
 31
0.0
  0
LINE
  5
12f
100
AcDbEntity
  8
Layer_1
 62
7
100
AcDbLine
 10
159.194390
 20
244.426119
 30
0.0
 11
179.194389
 21
244.426119
 31
0.0
  0
SPLINE
  5
130
100
AcDbEntity
  8
Layer_1
 62
7
100
AcDbSpline
 70
8
 71
3
 72
8
 73
4
 74
0
 40
0
 40
0
 40
0
 40
0
 40
1
 40
1
 40
1
 40
1
 10
159.194390
 20
254.226116
 30
0.0
 10
156.489648
 20
254.224063
 30
0.0
 10
154.298109
 20
252.030860
 30
0.0
 10
154.298109
 20
249.326117
 30
0.0
  0
SPLINE
  5
131
100
AcDbEntity
  8
Layer_1
 62
7
100
AcDbSpline
 70
8
 71
3
 72
8
 73
4
 74
0
 40
0
 40
0
 40
0
 40
0
 40
1
 40
1
 40
1
 40
1
 10
154.298109
 20
249.326117
 30
0.0
 10
154.298109
 20
246.621374
 30
0.0
 10
156.489648
 20
244.428171
 30
0.0
 10
159.194390
 20
244.426119
 30
0.0
  0
LINE
  5
132
100
AcDbEntity
  8
Layer_1
 62
7
100
AcDbLine
 10
179.194389
 20
254.226116
 30
0.0
 11
159.194390
 21
254.226116
 31
0.0
  0
SPLINE
  5
133
100
AcDbEntity
  8
Layer_1
 62
7
100
AcDbSpline
 70
8
 71
3
 72
8
 73
4
 74
0
 40
0
 40
0
 40
0
 40
0
 40
1
 40
1
 40
1
 40
1
 10
179.194389
 20
244.426119
 30
0.0
 10
181.899132
 20
244.428171
 30
0.0
 10
184.090671
 20
246.621374
 30
0.0
 10
184.090671
 20
249.326117
 30
0.0
  0
SPLINE
  5
134
100
AcDbEntity
  8
Layer_1
 62
7
100
AcDbSpline
 70
8
 71
3
 72
8
 73
4
 74
0
 40
0
 40
0
 40
0
 40
0
 40
1
 40
1
 40
1
 40
1
 10
184.090671
 20
249.326117
 30
0.0
 10
184.090671
 20
252.030860
 30
0.0
 10
181.899132
 20
254.224063
 30
0.0
 10
179.194389
 20
254.226116
 30
0.0
  0
SPLINE
  5
135
100
AcDbEntity
  8
Layer_1
 62
7
100
AcDbSpline
 70
8
 71
3
 72
8
 73
4
 74
0
 40
0
 40
0
 40
0
 40
0
 40
1
 40
1
 40
1
 40
1
 10
160.744391
 20
249.326117
 30
0.0
 10
160.744391
 20
249.879879
 30
0.0
 10
160.448963
 20
250.391577
 30
0.0
 10
159.969391
 20
250.668458
 30
0.0
  0
SPLINE
  5
136
100
AcDbEntity
  8
Layer_1
 62
7
100
AcDbSpline
 70
8
 71
3
 72
8
 73
4
 74
0
 40
0
 40
0
 40
0
 40
0
 40
1
 40
1
 40
1
 40
1
 10
159.969391
 20
250.668458
 30
0.0
 10
159.489819
 20
250.945339
 30
0.0
 10
158.898961
 20
250.945339
 30
0.0
 10
158.419389
 20
250.668458
 30
0.0
  0
SPLINE
  5
137
100
AcDbEntity
  8
Layer_1
 62
7
100
AcDbSpline
 70
8
 71
3
 72
8
 73
4
 74
0
 40
0
 40
0
 40
0
 40
0
 40
1
 40
1
 40
1
 40
1
 10
158.419389
 20
250.668458
 30
0.0
 10
157.939817
 20
250.391577
 30
0.0
 10
157.644389
 20
249.879879
 30
0.0
 10
157.644389
 20
249.326117
 30
0.0
  0
SPLINE
  5
138
100
AcDbEntity
  8
Layer_1
 62
7
100
AcDbSpline
 70
8
 71
3
 72
8
 73
4
 74
0
 40
0
 40
0
 40
0
 40
0
 40
1
 40
1
 40
1
 40
1
 10
157.644389
 20
249.326117
 30
0.0
 10
157.644389
 20
248.772355
 30
0.0
 10
157.939817
 20
248.260658
 30
0.0
 10
158.419389
 20
247.983777
 30
0.0
  0
SPLINE
  5
139
100
AcDbEntity
  8
Layer_1
 62
7
100
AcDbSpline
 70
8
 71
3
 72
8
 73
4
 74
0
 40
0
 40
0
 40
0
 40
0
 40
1
 40
1
 40
1
 40
1
 10
158.419389
 20
247.983777
 30
0.0
 10
158.898961
 20
247.706896
 30
0.0
 10
159.489818
 20
247.706896
 30
0.0
 10
159.969390
 20
247.983777
 30
0.0
  0
SPLINE
  5
13a
100
AcDbEntity
  8
Layer_1
 62
7
100
AcDbSpline
 70
8
 71
3
 72
8
 73
4
 74
0
 40
0
 40
0
 40
0
 40
0
 40
1
 40
1
 40
1
 40
1
 10
159.969390
 20
247.983777
 30
0.0
 10
160.448963
 20
248.260658
 30
0.0
 10
160.744391
 20
248.772355
 30
0.0
 10
160.744391
 20
249.326117
 30
0.0
  0
LINE
  5
13b
100
AcDbEntity
  8
Layer_1
 62
7
100
AcDbLine
 10
160.744391
 20
249.326117
 30
0.0
 11
160.744391
 21
249.326117
 31
0.0
  0
SPLINE
  5
13c
100
AcDbEntity
  8
Layer_1
 62
7
100
AcDbSpline
 70
8
 71
3
 72
8
 73
4
 74
0
 40
0
 40
0
 40
0
 40
0
 40
1
 40
1
 40
1
 40
1
 10
14.970562
 20
134.583505
 30
0.0
 10
14.416578
 20
134.583840
 30
0.0
 10
13.904532
 20
134.288484
 30
0.0
 10
13.627444
 20
133.808776
 30
0.0
  0
SPLINE
  5
13d
100
AcDbEntity
  8
Layer_1
 62
7
100
AcDbSpline
 70
8
 71
3
 72
8
 73
4
 74
0
 40
0
 40
0
 40
0
 40
0
 40
1
 40
1
 40
1
 40
1
 10
13.627444
 20
133.808776
 30
0.0
 10
13.350355
 20
133.329067
 30
0.0
 10
13.350355
 20
132.737944
 30
0.0
 10
13.627444
 20
132.258236
 30
0.0
  0
SPLINE
  5
13e
100
AcDbEntity
  8
Layer_1
 62
7
100
AcDbSpline
 70
8
 71
3
 72
8
 73
4
 74
0
 40
0
 40
0
 40
0
 40
0
 40
1
 40
1
 40
1
 40
1
 10
13.627444
 20
132.258236
 30
0.0
 10
13.904532
 20
131.778527
 30
0.0
 10
14.416578
 20
131.483172
 30
0.0
 10
14.970562
 20
131.483506
 30
0.0
  0
SPLINE
  5
13f
100
AcDbEntity
  8
Layer_1
 62
7
100
AcDbSpline
 70
8
 71
3
 72
8
 73
4
 74
0
 40
0
 40
0
 40
0
 40
0
 40
1
 40
1
 40
1
 40
1
 10
14.970562
 20
131.483506
 30
0.0
 10
15.524547
 20
131.483172
 30
0.0
 10
16.036593
 20
131.778527
 30
0.0
 10
16.313681
 20
132.258236
 30
0.0
  0
SPLINE
  5
140
100
AcDbEntity
  8
Layer_1
 62
7
100
AcDbSpline
 70
8
 71
3
 72
8
 73
4
 74
0
 40
0
 40
0
 40
0
 40
0
 40
1
 40
1
 40
1
 40
1
 10
16.313681
 20
132.258236
 30
0.0
 10
16.590770
 20
132.737944
 30
0.0
 10
16.590770
 20
133.329067
 30
0.0
 10
16.313681
 20
133.808776
 30
0.0
  0
SPLINE
  5
141
100
AcDbEntity
  8
Layer_1
 62
7
100
AcDbSpline
 70
8
 71
3
 72
8
 73
4
 74
0
 40
0
 40
0
 40
0
 40
0
 40
1
 40
1
 40
1
 40
1
 10
16.313681
 20
133.808776
 30
0.0
 10
16.036593
 20
134.288484
 30
0.0
 10
15.524547
 20
134.583840
 30
0.0
 10
14.970562
 20
134.583505
 30
0.0
  0
LINE
  5
142
100
AcDbEntity
  8
Layer_1
 62
7
100
AcDbLine
 10
14.970562
 20
134.583505
 30
0.0
 11
14.970562
 21
134.583505
 31
0.0
  0
LINE
  5
143
100
AcDbEntity
  8
Layer_1
 62
7
100
AcDbLine
 10
19.870561
 20
113.033505
 30
0.0
 11
19.870561
 21
133.033504
 31
0.0
  0
SPLINE
  5
144
100
AcDbEntity
  8
Layer_1
 62
7
100
AcDbSpline
 70
8
 71
3
 72
8
 73
4
 74
0
 40
0
 40
0
 40
0
 40
0
 40
1
 40
1
 40
1
 40
1
 10
10.070564
 20
113.033505
 30
0.0
 10
10.072616
 20
110.328762
 30
0.0
 10
12.265819
 20
108.137223
 30
0.0
 10
14.970562
 20
108.137223
 30
0.0
  0
SPLINE
  5
145
100
AcDbEntity
  8
Layer_1
 62
7
100
AcDbSpline
 70
8
 71
3
 72
8
 73
4
 74
0
 40
0
 40
0
 40
0
 40
0
 40
1
 40
1
 40
1
 40
1
 10
14.970562
 20
108.137223
 30
0.0
 10
17.675306
 20
108.137223
 30
0.0
 10
19.868508
 20
110.328762
 30
0.0
 10
19.870561
 20
113.033505
 30
0.0
  0
LINE
  5
146
100
AcDbEntity
  8
Layer_1
 62
7
100
AcDbLine
 10
10.070564
 20
133.033504
 30
0.0
 11
10.070564
 21
113.033505
 31
0.0
  0
SPLINE
  5
147
100
AcDbEntity
  8
Layer_1
 62
7
100
AcDbSpline
 70
8
 71
3
 72
8
 73
4
 74
0
 40
0
 40
0
 40
0
 40
0
 40
1
 40
1
 40
1
 40
1
 10
19.870561
 20
133.033504
 30
0.0
 10
19.868508
 20
135.738247
 30
0.0
 10
17.675306
 20
137.929785
 30
0.0
 10
14.970562
 20
137.929785
 30
0.0
  0
SPLINE
  5
148
100
AcDbEntity
  8
Layer_1
 62
7
100
AcDbSpline
 70
8
 71
3
 72
8
 73
4
 74
0
 40
0
 40
0
 40
0
 40
0
 40
1
 40
1
 40
1
 40
1
 10
14.970562
 20
137.929785
 30
0.0
 10
12.265819
 20
137.929785
 30
0.0
 10
10.072616
 20
135.738247
 30
0.0
 10
10.070564
 20
133.033504
 30
0.0
  0
SPLINE
  5
149
100
AcDbEntity
  8
Layer_1
 62
7
100
AcDbSpline
 70
8
 71
3
 72
8
 73
4
 74
0
 40
0
 40
0
 40
0
 40
0
 40
1
 40
1
 40
1
 40
1
 10
14.970562
 20
114.583503
 30
0.0
 10
14.416578
 20
114.583837
 30
0.0
 10
13.904532
 20
114.288482
 30
0.0
 10
13.627444
 20
113.808773
 30
0.0
  0
SPLINE
  5
14a
100
AcDbEntity
  8
Layer_1
 62
7
100
AcDbSpline
 70
8
 71
3
 72
8
 73
4
 74
0
 40
0
 40
0
 40
0
 40
0
 40
1
 40
1
 40
1
 40
1
 10
13.627444
 20
113.808773
 30
0.0
 10
13.350355
 20
113.329064
 30
0.0
 10
13.350355
 20
112.737942
 30
0.0
 10
13.627444
 20
112.258233
 30
0.0
  0
SPLINE
  5
14b
100
AcDbEntity
  8
Layer_1
 62
7
100
AcDbSpline
 70
8
 71
3
 72
8
 73
4
 74
0
 40
0
 40
0
 40
0
 40
0
 40
1
 40
1
 40
1
 40
1
 10
13.627444
 20
112.258233
 30
0.0
 10
13.904532
 20
111.778524
 30
0.0
 10
14.416578
 20
111.483169
 30
0.0
 10
14.970562
 20
111.483503
 30
0.0
  0
SPLINE
  5
14c
100
AcDbEntity
  8
Layer_1
 62
7
100
AcDbSpline
 70
8
 71
3
 72
8
 73
4
 74
0
 40
0
 40
0
 40
0
 40
0
 40
1
 40
1
 40
1
 40
1
 10
14.970562
 20
111.483503
 30
0.0
 10
15.524547
 20
111.483169
 30
0.0
 10
16.036593
 20
111.778524
 30
0.0
 10
16.313681
 20
112.258233
 30
0.0
  0
SPLINE
  5
14d
100
AcDbEntity
  8
Layer_1
 62
7
100
AcDbSpline
 70
8
 71
3
 72
8
 73
4
 74
0
 40
0
 40
0
 40
0
 40
0
 40
1
 40
1
 40
1
 40
1
 10
16.313681
 20
112.258233
 30
0.0
 10
16.590770
 20
112.737942
 30
0.0
 10
16.590770
 20
113.329064
 30
0.0
 10
16.313681
 20
113.808773
 30
0.0
  0
SPLINE
  5
14e
100
AcDbEntity
  8
Layer_1
 62
7
100
AcDbSpline
 70
8
 71
3
 72
8
 73
4
 74
0
 40
0
 40
0
 40
0
 40
0
 40
1
 40
1
 40
1
 40
1
 10
16.313681
 20
113.808773
 30
0.0
 10
16.036593
 20
114.288482
 30
0.0
 10
15.524547
 20
114.583837
 30
0.0
 10
14.970562
 20
114.583503
 30
0.0
  0
LINE
  5
14f
100
AcDbEntity
  8
Layer_1
 62
7
100
AcDbLine
 10
14.970562
 20
114.583503
 30
0.0
 11
14.970562
 21
114.583503
 31
0.0
  0
LINE
  5
150
100
AcDbEntity
  8
Layer_1
 62
7
100
AcDbLine
 10
122.735148
 20
23.871571
 30
0.0
 11
123.735146
 21
23.871571
 31
0.0
  0
SPLINE
  5
151
100
AcDbEntity
  8
Layer_1
 62
7
100
AcDbSpline
 70
8
 71
3
 72
8
 73
4
 74
0
 40
0
 40
0
 40
0
 40
0
 40
1
 40
1
 40
1
 40
1
 10
123.735146
 20
23.871571
 30
0.0
 10
123.873214
 20
23.871576
 30
0.0
 10
123.985137
 20
23.983502
 30
0.0
 10
123.985139
 20
24.121569
 30
0.0
  0
LINE
  5
152
100
AcDbEntity
  8
Layer_1
 62
7
100
AcDbLine
 10
123.985139
 20
24.121569
 30
0.0
 11
123.985139
 21
27.821571
 31
0.0
  0
SPLINE
  5
153
100
AcDbEntity
  8
Layer_1
 62
7
100
AcDbSpline
 70
8
 71
3
 72
8
 73
4
 74
0
 40
0
 40
0
 40
0
 40
0
 40
1
 40
1
 40
1
 40
1
 10
123.985139
 20
27.821571
 30
0.0
 10
123.985139
 20
27.959639
 30
0.0
 10
123.873215
 20
28.071567
 30
0.0
 10
123.735146
 20
28.071571
 30
0.0
  0
LINE
  5
154
100
AcDbEntity
  8
Layer_1
 62
7
100
AcDbLine
 10
123.735146
 20
28.071571
 30
0.0
 11
122.735148
 21
28.071571
 31
0.0
  0
LINE
  5
155
100
AcDbEntity
  8
Layer_1
 62
7
100
AcDbLine
 10
122.735148
 20
28.071571
 30
0.0
 11
122.735148
 21
30.571569
 31
0.0
  0
LINE
  5
156
100
AcDbEntity
  8
Layer_1
 62
7
100
AcDbLine
 10
122.735148
 20
30.571569
 30
0.0
 11
119.235141
 21
30.571569
 31
0.0
  0
LINE
  5
157
100
AcDbEntity
  8
Layer_1
 62
7
100
AcDbLine
 10
119.235141
 20
30.571569
 30
0.0
 11
119.235141
 21
28.071571
 31
0.0
  0
LINE
  5
158
100
AcDbEntity
  8
Layer_1
 62
7
100
AcDbLine
 10
119.235141
 20
28.071571
 30
0.0
 11
118.235143
 21
28.071571
 31
0.0
  0
SPLINE
  5
159
100
AcDbEntity
  8
Layer_1
 62
7
100
AcDbSpline
 70
8
 71
3
 72
8
 73
4
 74
0
 40
0
 40
0
 40
0
 40
0
 40
1
 40
1
 40
1
 40
1
 10
118.235143
 20
28.071571
 30
0.0
 10
118.097074
 20
28.071567
 30
0.0
 10
117.985150
 20
27.959639
 30
0.0
 10
117.985151
 20
27.821571
 30
0.0
  0
LINE
  5
15a
100
AcDbEntity
  8
Layer_1
 62
7
100
AcDbLine
 10
117.985151
 20
27.821571
 30
0.0
 11
117.985151
 21
24.121569
 31
0.0
  0
SPLINE
  5
15b
100
AcDbEntity
  8
Layer_1
 62
7
100
AcDbSpline
 70
8
 71
3
 72
8
 73
4
 74
0
 40
0
 40
0
 40
0
 40
0
 40
1
 40
1
 40
1
 40
1
 10
117.985151
 20
24.121569
 30
0.0
 10
117.985152
 20
23.983502
 30
0.0
 10
118.097076
 20
23.871576
 30
0.0
 10
118.235143
 20
23.871571
 30
0.0
  0
LINE
  5
15c
100
AcDbEntity
  8
Layer_1
 62
7
100
AcDbLine
 10
118.235143
 20
23.871571
 30
0.0
 11
119.235141
 21
23.871571
 31
0.0
  0
LINE
  5
15d
100
AcDbEntity
  8
Layer_1
 62
7
100
AcDbLine
 10
119.235141
 20
23.871571
 30
0.0
 11
119.235141
 21
20.071570
 31
0.0
  0
LINE
  5
15e
100
AcDbEntity
  8
Layer_1
 62
7
100
AcDbLine
 10
110.985136
 20
20.071570
 30
0.0
 11
119.235141
 21
20.071570
 31
0.0
  0
LINE
  5
15f
100
AcDbEntity
  8
Layer_1
 62
7
100
AcDbLine
 10
110.985136
 20
10.071579
 30
0.0
 11
110.985136
 21
20.071570
 31
0.0
  0
LINE
  5
160
100
AcDbEntity
  8
Layer_1
 62
7
100
AcDbLine
 10
100.985128
 20
10.071579
 30
0.0
 11
110.985136
 21
10.071579
 31
0.0
  0
LINE
  5
161
100
AcDbEntity
  8
Layer_1
 62
7
100
AcDbLine
 10
100.985128
 20
20.071570
 30
0.0
 11
100.985128
 21
10.071579
 31
0.0
  0
LINE
  5
162
100
AcDbEntity
  8
Layer_1
 62
7
100
AcDbLine
 10
92.506890
 20
33.071570
 30
0.0
 11
100.985128
 21
20.071570
 31
0.0
  0
LINE
  5
163
100
AcDbEntity
  8
Layer_1
 62
7
100
AcDbLine
 10
84.985132
 20
33.071570
 30
0.0
 11
92.506890
 21
33.071570
 31
0.0
  0
LINE
  5
164
100
AcDbEntity
  8
Layer_1
 62
7
100
AcDbLine
 10
84.985132
 20
43.071570
 30
0.0
 11
84.985132
 21
33.071570
 31
0.0
  0
LINE
  5
165
100
AcDbEntity
  8
Layer_1
 62
7
100
AcDbLine
 10
125.985135
 20
43.071570
 30
0.0
 11
84.985132
 21
43.071570
 31
0.0
  0
LINE
  5
166
100
AcDbEntity
  8
Layer_1
 62
7
100
AcDbLine
 10
140.985133
 20
20.071570
 30
0.0
 11
125.985135
 21
43.071570
 31
0.0
  0
LINE
  5
167
100
AcDbEntity
  8
Layer_1
 62
7
100
AcDbLine
 10
140.985133
 20
10.071579
 30
0.0
 11
140.985133
 21
20.071570
 31
0.0
  0
LINE
  5
168
100
AcDbEntity
  8
Layer_1
 62
7
100
AcDbLine
 10
130.985153
 20
10.071579
 30
0.0
 11
140.985133
 21
10.071579
 31
0.0
  0
LINE
  5
169
100
AcDbEntity
  8
Layer_1
 62
7
100
AcDbLine
 10
130.985153
 20
20.071570
 30
0.0
 11
130.985153
 21
10.071579
 31
0.0
  0
LINE
  5
16a
100
AcDbEntity
  8
Layer_1
 62
7
100
AcDbLine
 10
122.735148
 20
20.071570
 30
0.0
 11
130.985153
 21
20.071570
 31
0.0
  0
LINE
  5
16b
100
AcDbEntity
  8
Layer_1
 62
7
100
AcDbLine
 10
122.735148
 20
20.071570
 30
0.0
 11
122.735148
 21
23.871571
 31
0.0
  0
SPLINE
  5
16c
100
AcDbEntity
  8
Layer_1
 62
7
100
AcDbSpline
 70
8
 71
3
 72
8
 73
4
 74
0
 40
0
 40
0
 40
0
 40
0
 40
1
 40
1
 40
1
 40
1
 10
87.985126
 20
38.621571
 30
0.0
 10
87.431364
 20
38.621572
 30
0.0
 10
86.919666
 20
38.326143
 30
0.0
 10
86.642785
 20
37.846571
 30
0.0
  0
SPLINE
  5
16d
100
AcDbEntity
  8
Layer_1
 62
7
100
AcDbSpline
 70
8
 71
3
 72
8
 73
4
 74
0
 40
0
 40
0
 40
0
 40
0
 40
1
 40
1
 40
1
 40
1
 10
86.642785
 20
37.846571
 30
0.0
 10
86.365904
 20
37.366999
 30
0.0
 10
86.365904
 20
36.776142
 30
0.0
 10
86.642785
 20
36.296570
 30
0.0
  0
SPLINE
  5
16e
100
AcDbEntity
  8
Layer_1
 62
7
100
AcDbSpline
 70
8
 71
3
 72
8
 73
4
 74
0
 40
0
 40
0
 40
0
 40
0
 40
1
 40
1
 40
1
 40
1
 10
86.642785
 20
36.296570
 30
0.0
 10
86.919666
 20
35.816998
 30
0.0
 10
87.431364
 20
35.521569
 30
0.0
 10
87.985126
 20
35.521569
 30
0.0
  0
SPLINE
  5
16f
100
AcDbEntity
  8
Layer_1
 62
7
100
AcDbSpline
 70
8
 71
3
 72
8
 73
4
 74
0
 40
0
 40
0
 40
0
 40
0
 40
1
 40
1
 40
1
 40
1
 10
87.985126
 20
35.521569
 30
0.0
 10
88.841168
 20
35.521569
 30
0.0
 10
89.535127
 20
36.215528
 30
0.0
 10
89.535127
 20
37.071570
 30
0.0
  0
SPLINE
  5
170
100
AcDbEntity
  8
Layer_1
 62
7
100
AcDbSpline
 70
8
 71
3
 72
8
 73
4
 74
0
 40
0
 40
0
 40
0
 40
0
 40
1
 40
1
 40
1
 40
1
 10
89.535127
 20
37.071570
 30
0.0
 10
89.535127
 20
37.927612
 30
0.0
 10
88.841168
 20
38.621571
 30
0.0
 10
87.985126
 20
38.621571
 30
0.0
  0
LINE
  5
171
100
AcDbEntity
  8
Layer_1
 62
7
100
AcDbLine
 10
87.985126
 20
38.621571
 30
0.0
 11
87.985126
 21
38.621571
 31
0.0
  0
SPLINE
  5
172
100
AcDbEntity
  8
Layer_1
 62
7
100
AcDbSpline
 70
8
 71
3
 72
8
 73
4
 74
0
 40
0
 40
0
 40
0
 40
0
 40
1
 40
1
 40
1
 40
1
 10
106.985144
 20
38.621571
 30
0.0
 10
106.431382
 20
38.621572
 30
0.0
 10
105.919685
 20
38.326143
 30
0.0
 10
105.642804
 20
37.846571
 30
0.0
  0
SPLINE
  5
173
100
AcDbEntity
  8
Layer_1
 62
7
100
AcDbSpline
 70
8
 71
3
 72
8
 73
4
 74
0
 40
0
 40
0
 40
0
 40
0
 40
1
 40
1
 40
1
 40
1
 10
105.642804
 20
37.846571
 30
0.0
 10
105.365923
 20
37.366999
 30
0.0
 10
105.365923
 20
36.776142
 30
0.0
 10
105.642804
 20
36.296570
 30
0.0
  0
SPLINE
  5
174
100
AcDbEntity
  8
Layer_1
 62
7
100
AcDbSpline
 70
8
 71
3
 72
8
 73
4
 74
0
 40
0
 40
0
 40
0
 40
0
 40
1
 40
1
 40
1
 40
1
 10
105.642804
 20
36.296570
 30
0.0
 10
105.919685
 20
35.816998
 30
0.0
 10
106.431382
 20
35.521569
 30
0.0
 10
106.985144
 20
35.521569
 30
0.0
  0
SPLINE
  5
175
100
AcDbEntity
  8
Layer_1
 62
7
100
AcDbSpline
 70
8
 71
3
 72
8
 73
4
 74
0
 40
0
 40
0
 40
0
 40
0
 40
1
 40
1
 40
1
 40
1
 10
106.985144
 20
35.521569
 30
0.0
 10
107.841186
 20
35.521569
 30
0.0
 10
108.535145
 20
36.215528
 30
0.0
 10
108.535145
 20
37.071570
 30
0.0
  0
SPLINE
  5
176
100
AcDbEntity
  8
Layer_1
 62
7
100
AcDbSpline
 70
8
 71
3
 72
8
 73
4
 74
0
 40
0
 40
0
 40
0
 40
0
 40
1
 40
1
 40
1
 40
1
 10
108.535145
 20
37.071570
 30
0.0
 10
108.535145
 20
37.927612
 30
0.0
 10
107.841186
 20
38.621571
 30
0.0
 10
106.985144
 20
38.621571
 30
0.0
  0
LINE
  5
177
100
AcDbEntity
  8
Layer_1
 62
7
100
AcDbLine
 10
106.985144
 20
38.621571
 30
0.0
 11
106.985144
 21
38.621571
 31
0.0
  0
SPLINE
  5
178
100
AcDbEntity
  8
Layer_1
 62
7
100
AcDbSpline
 70
8
 71
3
 72
8
 73
4
 74
0
 40
0
 40
0
 40
0
 40
0
 40
1
 40
1
 40
1
 40
1
 10
118.521562
 20
248.927111
 30
0.0
 10
118.521562
 20
248.373349
 30
0.0
 10
118.816990
 20
247.861652
 30
0.0
 10
119.296562
 20
247.584771
 30
0.0
  0
SPLINE
  5
179
100
AcDbEntity
  8
Layer_1
 62
7
100
AcDbSpline
 70
8
 71
3
 72
8
 73
4
 74
0
 40
0
 40
0
 40
0
 40
0
 40
1
 40
1
 40
1
 40
1
 10
119.296562
 20
247.584771
 30
0.0
 10
119.776134
 20
247.307890
 30
0.0
 10
120.366992
 20
247.307890
 30
0.0
 10
120.846564
 20
247.584771
 30
0.0
  0
SPLINE
  5
17a
100
AcDbEntity
  8
Layer_1
 62
7
100
AcDbSpline
 70
8
 71
3
 72
8
 73
4
 74
0
 40
0
 40
0
 40
0
 40
0
 40
1
 40
1
 40
1
 40
1
 10
120.846564
 20
247.584771
 30
0.0
 10
121.326136
 20
247.861652
 30
0.0
 10
121.621564
 20
248.373349
 30
0.0
 10
121.621564
 20
248.927111
 30
0.0
  0
SPLINE
  5
17b
100
AcDbEntity
  8
Layer_1
 62
7
100
AcDbSpline
 70
8
 71
3
 72
8
 73
4
 74
0
 40
0
 40
0
 40
0
 40
0
 40
1
 40
1
 40
1
 40
1
 10
121.621564
 20
248.927111
 30
0.0
 10
121.621564
 20
249.480873
 30
0.0
 10
121.326136
 20
249.992571
 30
0.0
 10
120.846564
 20
250.269452
 30
0.0
  0
SPLINE
  5
17c
100
AcDbEntity
  8
Layer_1
 62
7
100
AcDbSpline
 70
8
 71
3
 72
8
 73
4
 74
0
 40
0
 40
0
 40
0
 40
0
 40
1
 40
1
 40
1
 40
1
 10
120.846564
 20
250.269452
 30
0.0
 10
120.366992
 20
250.546333
 30
0.0
 10
119.776134
 20
250.546333
 30
0.0
 10
119.296562
 20
250.269452
 30
0.0
  0
SPLINE
  5
17d
100
AcDbEntity
  8
Layer_1
 62
7
100
AcDbSpline
 70
8
 71
3
 72
8
 73
4
 74
0
 40
0
 40
0
 40
0
 40
0
 40
1
 40
1
 40
1
 40
1
 10
119.296562
 20
250.269452
 30
0.0
 10
118.816990
 20
249.992571
 30
0.0
 10
118.521562
 20
249.480873
 30
0.0
 10
118.521562
 20
248.927111
 30
0.0
  0
LINE
  5
17e
100
AcDbEntity
  8
Layer_1
 62
7
100
AcDbLine
 10
118.521562
 20
248.927111
 30
0.0
 11
118.521562
 21
248.927111
 31
0.0
  0
LINE
  5
17f
100
AcDbEntity
  8
Layer_1
 62
7
100
AcDbLine
 10
230.071563
 20
224.427118
 30
0.0
 11
230.071563
 21
254.427115
 31
0.0
  0
LINE
  5
180
100
AcDbEntity
  8
Layer_1
 62
7
100
AcDbLine
 10
230.071563
 20
224.427118
 30
0.0
 11
215.071562
 21
209.427120
 31
0.0
  0
LINE
  5
181
100
AcDbEntity
  8
Layer_1
 62
7
100
AcDbLine
 10
215.071562
 20
79.427109
 30
0.0
 11
215.071562
 21
209.427120
 31
0.0
  0
LINE
  5
182
100
AcDbEntity
  8
Layer_1
 62
7
100
AcDbLine
 10
230.071563
 20
64.427111
 30
0.0
 11
215.071562
 21
79.427109
 31
0.0
  0
LINE
  5
183
100
AcDbEntity
  8
Layer_1
 62
7
100
AcDbLine
 10
230.071563
 20
34.427111
 30
0.0
 11
230.071563
 21
64.427111
 31
0.0
  0
LINE
  5
184
100
AcDbEntity
  8
Layer_1
 62
7
100
AcDbLine
 10
200.071564
 20
34.427111
 30
0.0
 11
230.071563
 21
34.427111
 31
0.0
  0
LINE
  5
185
100
AcDbEntity
  8
Layer_1
 62
7
100
AcDbLine
 10
200.071564
 20
34.427111
 30
0.0
 11
185.071563
 21
49.427110
 31
0.0
  0
LINE
  5
186
100
AcDbEntity
  8
Layer_1
 62
7
100
AcDbLine
 10
185.071563
 20
49.427110
 30
0.0
 11
55.071563
 21
49.427110
 31
0.0
  0
LINE
  5
187
100
AcDbEntity
  8
Layer_1
 62
7
100
AcDbLine
 10
40.071562
 20
34.427111
 30
0.0
 11
55.071563
 21
49.427110
 31
0.0
  0
LINE
  5
188
100
AcDbEntity
  8
Layer_1
 62
7
100
AcDbLine
 10
10.071563
 20
34.427111
 30
0.0
 11
40.071562
 21
34.427111
 31
0.0
  0
LINE
  5
189
100
AcDbEntity
  8
Layer_1
 62
7
100
AcDbLine
 10
10.071563
 20
64.427111
 30
0.0
 11
10.071563
 21
34.427111
 31
0.0
  0
LINE
  5
18a
100
AcDbEntity
  8
Layer_1
 62
7
100
AcDbLine
 10
10.071563
 20
64.427111
 30
0.0
 11
25.071564
 21
79.427109
 31
0.0
  0
LINE
  5
18b
100
AcDbEntity
  8
Layer_1
 62
7
100
AcDbLine
 10
25.071564
 20
79.427109
 30
0.0
 11
25.071564
 21
209.427120
 31
0.0
  0
LINE
  5
18c
100
AcDbEntity
  8
Layer_1
 62
7
100
AcDbLine
 10
10.071563
 20
224.427118
 30
0.0
 11
25.071564
 21
209.427120
 31
0.0
  0
LINE
  5
18d
100
AcDbEntity
  8
Layer_1
 62
7
100
AcDbLine
 10
10.071563
 20
254.427115
 30
0.0
 11
10.071563
 21
224.427118
 31
0.0
  0
LINE
  5
18e
100
AcDbEntity
  8
Layer_1
 62
7
100
AcDbLine
 10
40.071562
 20
254.427115
 30
0.0
 11
10.071563
 21
254.427115
 31
0.0
  0
LINE
  5
18f
100
AcDbEntity
  8
Layer_1
 62
7
100
AcDbLine
 10
40.071562
 20
254.427115
 30
0.0
 11
55.071563
 21
239.427116
 31
0.0
  0
LINE
  5
190
100
AcDbEntity
  8
Layer_1
 62
7
100
AcDbLine
 10
90.071564
 20
239.427116
 30
0.0
 11
55.071563
 21
239.427116
 31
0.0
  0
LINE
  5
191
100
AcDbEntity
  8
Layer_1
 62
7
100
AcDbLine
 10
105.071562
 20
254.427115
 30
0.0
 11
90.071564
 21
239.427116
 31
0.0
  0
LINE
  5
192
100
AcDbEntity
  8
Layer_1
 62
7
100
AcDbLine
 10
135.071564
 20
254.427115
 30
0.0
 11
105.071562
 21
254.427115
 31
0.0
  0
LINE
  5
193
100
AcDbEntity
  8
Layer_1
 62
7
100
AcDbLine
 10
150.071562
 20
239.427116
 30
0.0
 11
135.071564
 21
254.427115
 31
0.0
  0
LINE
  5
194
100
AcDbEntity
  8
Layer_1
 62
7
100
AcDbLine
 10
185.071563
 20
239.427116
 30
0.0
 11
150.071562
 21
239.427116
 31
0.0
  0
LINE
  5
195
100
AcDbEntity
  8
Layer_1
 62
7
100
AcDbLine
 10
200.071564
 20
254.427115
 30
0.0
 11
185.071563
 21
239.427116
 31
0.0
  0
LINE
  5
196
100
AcDbEntity
  8
Layer_1
 62
7
100
AcDbLine
 10
230.071563
 20
254.427115
 30
0.0
 11
200.071564
 21
254.427115
 31
0.0
  0
SPLINE
  5
197
100
AcDbEntity
  8
Layer_1
 62
7
100
AcDbSpline
 70
8
 71
3
 72
8
 73
4
 74
0
 40
0
 40
0
 40
0
 40
0
 40
1
 40
1
 40
1
 40
1
 10
103.521564
 20
174.427105
 30
0.0
 10
103.521229
 20
173.873121
 30
0.0
 10
103.816584
 20
173.361075
 30
0.0
 10
104.296293
 20
173.083986
 30
0.0
  0
SPLINE
  5
198
100
AcDbEntity
  8
Layer_1
 62
7
100
AcDbSpline
 70
8
 71
3
 72
8
 73
4
 74
0
 40
0
 40
0
 40
0
 40
0
 40
1
 40
1
 40
1
 40
1
 10
104.296293
 20
173.083986
 30
0.0
 10
104.776002
 20
172.806898
 30
0.0
 10
105.367124
 20
172.806898
 30
0.0
 10
105.846833
 20
173.083986
 30
0.0
  0
SPLINE
  5
199
100
AcDbEntity
  8
Layer_1
 62
7
100
AcDbSpline
 70
8
 71
3
 72
8
 73
4
 74
0
 40
0
 40
0
 40
0
 40
0
 40
1
 40
1
 40
1
 40
1
 10
105.846833
 20
173.083986
 30
0.0
 10
106.326542
 20
173.361075
 30
0.0
 10
106.621897
 20
173.873121
 30
0.0
 10
106.621563
 20
174.427105
 30
0.0
  0
SPLINE
  5
19a
100
AcDbEntity
  8
Layer_1
 62
7
100
AcDbSpline
 70
8
 71
3
 72
8
 73
4
 74
0
 40
0
 40
0
 40
0
 40
0
 40
1
 40
1
 40
1
 40
1
 10
106.621563
 20
174.427105
 30
0.0
 10
106.621897
 20
174.981090
 30
0.0
 10
106.326542
 20
175.493135
 30
0.0
 10
105.846833
 20
175.770224
 30
0.0
  0
SPLINE
  5
19b
100
AcDbEntity
  8
Layer_1
 62
7
100
AcDbSpline
 70
8
 71
3
 72
8
 73
4
 74
0
 40
0
 40
0
 40
0
 40
0
 40
1
 40
1
 40
1
 40
1
 10
105.846833
 20
175.770224
 30
0.0
 10
105.367124
 20
176.047313
 30
0.0
 10
104.776002
 20
176.047313
 30
0.0
 10
104.296293
 20
175.770224
 30
0.0
  0
SPLINE
  5
19c
100
AcDbEntity
  8
Layer_1
 62
7
100
AcDbSpline
 70
8
 71
3
 72
8
 73
4
 74
0
 40
0
 40
0
 40
0
 40
0
 40
1
 40
1
 40
1
 40
1
 10
104.296293
 20
175.770224
 30
0.0
 10
103.816584
 20
175.493135
 30
0.0
 10
103.521229
 20
174.981090
 30
0.0
 10
103.521564
 20
174.427105
 30
0.0
  0
LINE
  5
19d
100
AcDbEntity
  8
Layer_1
 62
7
100
AcDbLine
 10
103.521564
 20
174.427105
 30
0.0
 11
103.521564
 21
174.427105
 31
0.0
  0
SPLINE
  5
19e
100
AcDbEntity
  8
Layer_1
 62
7
100
AcDbSpline
 70
8
 71
3
 72
8
 73
4
 74
0
 40
0
 40
0
 40
0
 40
0
 40
1
 40
1
 40
1
 40
1
 10
133.521563
 20
174.427105
 30
0.0
 10
133.521229
 20
173.873121
 30
0.0
 10
133.816584
 20
173.361075
 30
0.0
 10
134.296293
 20
173.083986
 30
0.0
  0
SPLINE
  5
19f
100
AcDbEntity
  8
Layer_1
 62
7
100
AcDbSpline
 70
8
 71
3
 72
8
 73
4
 74
0
 40
0
 40
0
 40
0
 40
0
 40
1
 40
1
 40
1
 40
1
 10
134.296293
 20
173.083986
 30
0.0
 10
134.776001
 20
172.806898
 30
0.0
 10
135.367124
 20
172.806898
 30
0.0
 10
135.846833
 20
173.083986
 30
0.0
  0
SPLINE
  5
1a0
100
AcDbEntity
  8
Layer_1
 62
7
100
AcDbSpline
 70
8
 71
3
 72
8
 73
4
 74
0
 40
0
 40
0
 40
0
 40
0
 40
1
 40
1
 40
1
 40
1
 10
135.846833
 20
173.083986
 30
0.0
 10
136.326541
 20
173.361075
 30
0.0
 10
136.621897
 20
173.873121
 30
0.0
 10
136.621562
 20
174.427105
 30
0.0
  0
SPLINE
  5
1a1
100
AcDbEntity
  8
Layer_1
 62
7
100
AcDbSpline
 70
8
 71
3
 72
8
 73
4
 74
0
 40
0
 40
0
 40
0
 40
0
 40
1
 40
1
 40
1
 40
1
 10
136.621562
 20
174.427105
 30
0.0
 10
136.621897
 20
174.981090
 30
0.0
 10
136.326541
 20
175.493135
 30
0.0
 10
135.846833
 20
175.770224
 30
0.0
  0
SPLINE
  5
1a2
100
AcDbEntity
  8
Layer_1
 62
7
100
AcDbSpline
 70
8
 71
3
 72
8
 73
4
 74
0
 40
0
 40
0
 40
0
 40
0
 40
1
 40
1
 40
1
 40
1
 10
135.846833
 20
175.770224
 30
0.0
 10
135.367124
 20
176.047313
 30
0.0
 10
134.776001
 20
176.047313
 30
0.0
 10
134.296293
 20
175.770224
 30
0.0
  0
SPLINE
  5
1a3
100
AcDbEntity
  8
Layer_1
 62
7
100
AcDbSpline
 70
8
 71
3
 72
8
 73
4
 74
0
 40
0
 40
0
 40
0
 40
0
 40
1
 40
1
 40
1
 40
1
 10
134.296293
 20
175.770224
 30
0.0
 10
133.816584
 20
175.493135
 30
0.0
 10
133.521229
 20
174.981090
 30
0.0
 10
133.521563
 20
174.427105
 30
0.0
  0
LINE
  5
1a4
100
AcDbEntity
  8
Layer_1
 62
7
100
AcDbLine
 10
133.521563
 20
174.427105
 30
0.0
 11
133.521563
 21
174.427105
 31
0.0
  0
SPLINE
  5
1a5
100
AcDbEntity
  8
Layer_1
 62
7
100
AcDbSpline
 70
8
 71
3
 72
8
 73
4
 74
0
 40
0
 40
0
 40
0
 40
0
 40
1
 40
1
 40
1
 40
1
 10
103.521564
 20
144.427109
 30
0.0
 10
103.521229
 20
143.873124
 30
0.0
 10
103.816584
 20
143.361079
 30
0.0
 10
104.296293
 20
143.083990
 30
0.0
  0
SPLINE
  5
1a6
100
AcDbEntity
  8
Layer_1
 62
7
100
AcDbSpline
 70
8
 71
3
 72
8
 73
4
 74
0
 40
0
 40
0
 40
0
 40
0
 40
1
 40
1
 40
1
 40
1
 10
104.296293
 20
143.083990
 30
0.0
 10
104.776002
 20
142.806901
 30
0.0
 10
105.367124
 20
142.806901
 30
0.0
 10
105.846833
 20
143.083990
 30
0.0
  0
SPLINE
  5
1a7
100
AcDbEntity
  8
Layer_1
 62
7
100
AcDbSpline
 70
8
 71
3
 72
8
 73
4
 74
0
 40
0
 40
0
 40
0
 40
0
 40
1
 40
1
 40
1
 40
1
 10
105.846833
 20
143.083990
 30
0.0
 10
106.326542
 20
143.361079
 30
0.0
 10
106.621897
 20
143.873124
 30
0.0
 10
106.621563
 20
144.427109
 30
0.0
  0
SPLINE
  5
1a8
100
AcDbEntity
  8
Layer_1
 62
7
100
AcDbSpline
 70
8
 71
3
 72
8
 73
4
 74
0
 40
0
 40
0
 40
0
 40
0
 40
1
 40
1
 40
1
 40
1
 10
106.621563
 20
144.427109
 30
0.0
 10
106.621897
 20
144.981093
 30
0.0
 10
106.326542
 20
145.493139
 30
0.0
 10
105.846833
 20
145.770228
 30
0.0
  0
SPLINE
  5
1a9
100
AcDbEntity
  8
Layer_1
 62
7
100
AcDbSpline
 70
8
 71
3
 72
8
 73
4
 74
0
 40
0
 40
0
 40
0
 40
0
 40
1
 40
1
 40
1
 40
1
 10
105.846833
 20
145.770228
 30
0.0
 10
105.367124
 20
146.047316
 30
0.0
 10
104.776002
 20
146.047316
 30
0.0
 10
104.296293
 20
145.770228
 30
0.0
  0
SPLINE
  5
1aa
100
AcDbEntity
  8
Layer_1
 62
7
100
AcDbSpline
 70
8
 71
3
 72
8
 73
4
 74
0
 40
0
 40
0
 40
0
 40
0
 40
1
 40
1
 40
1
 40
1
 10
104.296293
 20
145.770228
 30
0.0
 10
103.816584
 20
145.493139
 30
0.0
 10
103.521229
 20
144.981093
 30
0.0
 10
103.521564
 20
144.427109
 30
0.0
  0
LINE
  5
1ab
100
AcDbEntity
  8
Layer_1
 62
7
100
AcDbLine
 10
103.521564
 20
144.427109
 30
0.0
 11
103.521564
 21
144.427109
 31
0.0
  0
SPLINE
  5
1ac
100
AcDbEntity
  8
Layer_1
 62
7
100
AcDbSpline
 70
8
 71
3
 72
8
 73
4
 74
0
 40
0
 40
0
 40
0
 40
0
 40
1
 40
1
 40
1
 40
1
 10
133.521563
 20
144.427109
 30
0.0
 10
133.521229
 20
143.873124
 30
0.0
 10
133.816584
 20
143.361079
 30
0.0
 10
134.296293
 20
143.083990
 30
0.0
  0
SPLINE
  5
1ad
100
AcDbEntity
  8
Layer_1
 62
7
100
AcDbSpline
 70
8
 71
3
 72
8
 73
4
 74
0
 40
0
 40
0
 40
0
 40
0
 40
1
 40
1
 40
1
 40
1
 10
134.296293
 20
143.083990
 30
0.0
 10
134.776001
 20
142.806901
 30
0.0
 10
135.367124
 20
142.806901
 30
0.0
 10
135.846833
 20
143.083990
 30
0.0
  0
SPLINE
  5
1ae
100
AcDbEntity
  8
Layer_1
 62
7
100
AcDbSpline
 70
8
 71
3
 72
8
 73
4
 74
0
 40
0
 40
0
 40
0
 40
0
 40
1
 40
1
 40
1
 40
1
 10
135.846833
 20
143.083990
 30
0.0
 10
136.326541
 20
143.361079
 30
0.0
 10
136.621897
 20
143.873124
 30
0.0
 10
136.621562
 20
144.427109
 30
0.0
  0
SPLINE
  5
1af
100
AcDbEntity
  8
Layer_1
 62
7
100
AcDbSpline
 70
8
 71
3
 72
8
 73
4
 74
0
 40
0
 40
0
 40
0
 40
0
 40
1
 40
1
 40
1
 40
1
 10
136.621562
 20
144.427109
 30
0.0
 10
136.621897
 20
144.981093
 30
0.0
 10
136.326541
 20
145.493139
 30
0.0
 10
135.846833
 20
145.770228
 30
0.0
  0
SPLINE
  5
1b0
100
AcDbEntity
  8
Layer_1
 62
7
100
AcDbSpline
 70
8
 71
3
 72
8
 73
4
 74
0
 40
0
 40
0
 40
0
 40
0
 40
1
 40
1
 40
1
 40
1
 10
135.846833
 20
145.770228
 30
0.0
 10
135.367124
 20
146.047316
 30
0.0
 10
134.776001
 20
146.047316
 30
0.0
 10
134.296293
 20
145.770228
 30
0.0
  0
SPLINE
  5
1b1
100
AcDbEntity
  8
Layer_1
 62
7
100
AcDbSpline
 70
8
 71
3
 72
8
 73
4
 74
0
 40
0
 40
0
 40
0
 40
0
 40
1
 40
1
 40
1
 40
1
 10
134.296293
 20
145.770228
 30
0.0
 10
133.816584
 20
145.493139
 30
0.0
 10
133.521229
 20
144.981093
 30
0.0
 10
133.521563
 20
144.427109
 30
0.0
  0
LINE
  5
1b2
100
AcDbEntity
  8
Layer_1
 62
7
100
AcDbLine
 10
133.521563
 20
144.427109
 30
0.0
 11
133.521563
 21
144.427109
 31
0.0
  0
SPLINE
  5
1b3
100
AcDbEntity
  8
Layer_1
 62
7
100
AcDbSpline
 70
8
 71
3
 72
8
 73
4
 74
0
 40
0
 40
0
 40
0
 40
0
 40
1
 40
1
 40
1
 40
1
 10
120.988080
 20
138.177100
 30
0.0
 10
121.528610
 20
138.573424
 30
0.0
 10
121.753163
 20
139.272282
 30
0.0
 10
121.544655
 20
139.909282
 30
0.0
  0
SPLINE
  5
1b4
100
AcDbEntity
  8
Layer_1
 62
7
100
AcDbSpline
 70
8
 71
3
 72
8
 73
4
 74
0
 40
0
 40
0
 40
0
 40
0
 40
1
 40
1
 40
1
 40
1
 10
121.544655
 20
139.909282
 30
0.0
 10
121.336147
 20
140.546283
 30
0.0
 10
120.741821
 20
140.977099
 30
0.0
 10
120.071563
 20
140.977099
 30
0.0
  0
SPLINE
  5
1b5
100
AcDbEntity
  8
Layer_1
 62
7
100
AcDbSpline
 70
8
 71
3
 72
8
 73
4
 74
0
 40
0
 40
0
 40
0
 40
0
 40
1
 40
1
 40
1
 40
1
 10
120.071563
 20
140.977099
 30
0.0
 10
119.401305
 20
140.977099
 30
0.0
 10
118.806979
 20
140.546283
 30
0.0
 10
118.598471
 20
139.909282
 30
0.0
  0
SPLINE
  5
1b6
100
AcDbEntity
  8
Layer_1
 62
7
100
AcDbSpline
 70
8
 71
3
 72
8
 73
4
 74
0
 40
0
 40
0
 40
0
 40
0
 40
1
 40
1
 40
1
 40
1
 10
118.598471
 20
139.909282
 30
0.0
 10
118.389963
 20
139.272282
 30
0.0
 10
118.614516
 20
138.573424
 30
0.0
 10
119.155046
 20
138.177100
 30
0.0
  0
SPLINE
  5
1b7
100
AcDbEntity
  8
Layer_1
 62
7
100
AcDbSpline
 70
8
 71
3
 72
8
 73
4
 74
0
 40
0
 40
0
 40
0
 40
0
 40
1
 40
1
 40
1
 40
1
 10
119.155046
 20
138.177100
 30
0.0
 10
118.614516
 20
137.780776
 30
0.0
 10
118.389963
 20
137.081919
 30
0.0
 10
118.598471
 20
136.444918
 30
0.0
  0
SPLINE
  5
1b8
100
AcDbEntity
  8
Layer_1
 62
7
100
AcDbSpline
 70
8
 71
3
 72
8
 73
4
 74
0
 40
0
 40
0
 40
0
 40
0
 40
1
 40
1
 40
1
 40
1
 10
118.598471
 20
136.444918
 30
0.0
 10
118.806979
 20
135.807917
 30
0.0
 10
119.401305
 20
135.377101
 30
0.0
 10
120.071563
 20
135.377101
 30
0.0
  0
SPLINE
  5
1b9
100
AcDbEntity
  8
Layer_1
 62
7
100
AcDbSpline
 70
8
 71
3
 72
8
 73
4
 74
0
 40
0
 40
0
 40
0
 40
0
 40
1
 40
1
 40
1
 40
1
 10
120.071563
 20
135.377101
 30
0.0
 10
120.741821
 20
135.377101
 30
0.0
 10
121.336147
 20
135.807917
 30
0.0
 10
121.544655
 20
136.444918
 30
0.0
  0
SPLINE
  5
1ba
100
AcDbEntity
  8
Layer_1
 62
7
100
AcDbSpline
 70
8
 71
3
 72
8
 73
4
 74
0
 40
0
 40
0
 40
0
 40
0
 40
1
 40
1
 40
1
 40
1
 10
121.544655
 20
136.444918
 30
0.0
 10
121.753163
 20
137.081919
 30
0.0
 10
121.528610
 20
137.780776
 30
0.0
 10
120.988080
 20
138.177100
 30
0.0
  0
SPLINE
  5
1bb
100
AcDbEntity
  8
Layer_1
 62
7
100
AcDbSpline
 70
8
 71
3
 72
8
 73
4
 74
0
 40
0
 40
0
 40
0
 40
0
 40
1
 40
1
 40
1
 40
1
 10
120.988080
 20
180.677114
 30
0.0
 10
121.528610
 20
181.073438
 30
0.0
 10
121.753163
 20
181.772295
 30
0.0
 10
121.544655
 20
182.409296
 30
0.0
  0
SPLINE
  5
1bc
100
AcDbEntity
  8
Layer_1
 62
7
100
AcDbSpline
 70
8
 71
3
 72
8
 73
4
 74
0
 40
0
 40
0
 40
0
 40
0
 40
1
 40
1
 40
1
 40
1
 10
121.544655
 20
182.409296
 30
0.0
 10
121.336147
 20
183.046297
 30
0.0
 10
120.741821
 20
183.477113
 30
0.0
 10
120.071563
 20
183.477113
 30
0.0
  0
SPLINE
  5
1bd
100
AcDbEntity
  8
Layer_1
 62
7
100
AcDbSpline
 70
8
 71
3
 72
8
 73
4
 74
0
 40
0
 40
0
 40
0
 40
0
 40
1
 40
1
 40
1
 40
1
 10
120.071563
 20
183.477113
 30
0.0
 10
119.401305
 20
183.477113
 30
0.0
 10
118.806979
 20
183.046297
 30
0.0
 10
118.598471
 20
182.409296
 30
0.0
  0
SPLINE
  5
1be
100
AcDbEntity
  8
Layer_1
 62
7
100
AcDbSpline
 70
8
 71
3
 72
8
 73
4
 74
0
 40
0
 40
0
 40
0
 40
0
 40
1
 40
1
 40
1
 40
1
 10
118.598471
 20
182.409296
 30
0.0
 10
118.389963
 20
181.772295
 30
0.0
 10
118.614516
 20
181.073438
 30
0.0
 10
119.155046
 20
180.677114
 30
0.0
  0
SPLINE
  5
1bf
100
AcDbEntity
  8
Layer_1
 62
7
100
AcDbSpline
 70
8
 71
3
 72
8
 73
4
 74
0
 40
0
 40
0
 40
0
 40
0
 40
1
 40
1
 40
1
 40
1
 10
119.155046
 20
180.677114
 30
0.0
 10
118.614516
 20
180.280790
 30
0.0
 10
118.389963
 20
179.581932
 30
0.0
 10
118.598471
 20
178.944932
 30
0.0
  0
SPLINE
  5
1c0
100
AcDbEntity
  8
Layer_1
 62
7
100
AcDbSpline
 70
8
 71
3
 72
8
 73
4
 74
0
 40
0
 40
0
 40
0
 40
0
 40
1
 40
1
 40
1
 40
1
 10
118.598471
 20
178.944932
 30
0.0
 10
118.806979
 20
178.307931
 30
0.0
 10
119.401305
 20
177.877115
 30
0.0
 10
120.071563
 20
177.877115
 30
0.0
  0
SPLINE
  5
1c1
100
AcDbEntity
  8
Layer_1
 62
7
100
AcDbSpline
 70
8
 71
3
 72
8
 73
4
 74
0
 40
0
 40
0
 40
0
 40
0
 40
1
 40
1
 40
1
 40
1
 10
120.071563
 20
177.877115
 30
0.0
 10
120.741821
 20
177.877115
 30
0.0
 10
121.336147
 20
178.307931
 30
0.0
 10
121.544655
 20
178.944932
 30
0.0
  0
SPLINE
  5
1c2
100
AcDbEntity
  8
Layer_1
 62
7
100
AcDbSpline
 70
8
 71
3
 72
8
 73
4
 74
0
 40
0
 40
0
 40
0
 40
0
 40
1
 40
1
 40
1
 40
1
 10
121.544655
 20
178.944932
 30
0.0
 10
121.753163
 20
179.581932
 30
0.0
 10
121.528610
 20
180.280790
 30
0.0
 10
120.988080
 20
180.677114
 30
0.0
  0
SPLINE
  5
1c3
100
AcDbEntity
  8
Layer_1
 62
7
100
AcDbSpline
 70
8
 71
3
 72
8
 73
4
 74
0
 40
0
 40
0
 40
0
 40
0
 40
1
 40
1
 40
1
 40
1
 10
223.021562
 20
39.927109
 30
0.0
 10
223.021562
 20
39.373347
 30
0.0
 10
223.316990
 20
38.861650
 30
0.0
 10
223.796562
 20
38.584769
 30
0.0
  0
SPLINE
  5
1c4
100
AcDbEntity
  8
Layer_1
 62
7
100
AcDbSpline
 70
8
 71
3
 72
8
 73
4
 74
0
 40
0
 40
0
 40
0
 40
0
 40
1
 40
1
 40
1
 40
1
 10
223.796562
 20
38.584769
 30
0.0
 10
224.276134
 20
38.307888
 30
0.0
 10
224.866991
 20
38.307888
 30
0.0
 10
225.346563
 20
38.584769
 30
0.0
  0
SPLINE
  5
1c5
100
AcDbEntity
  8
Layer_1
 62
7
100
AcDbSpline
 70
8
 71
3
 72
8
 73
4
 74
0
 40
0
 40
0
 40
0
 40
0
 40
1
 40
1
 40
1
 40
1
 10
225.346563
 20
38.584769
 30
0.0
 10
225.826135
 20
38.861650
 30
0.0
 10
226.121564
 20
39.373347
 30
0.0
 10
226.121564
 20
39.927109
 30
0.0
  0
SPLINE
  5
1c6
100
AcDbEntity
  8
Layer_1
 62
7
100
AcDbSpline
 70
8
 71
3
 72
8
 73
4
 74
0
 40
0
 40
0
 40
0
 40
0
 40
1
 40
1
 40
1
 40
1
 10
226.121564
 20
39.927109
 30
0.0
 10
226.121564
 20
40.480871
 30
0.0
 10
225.826135
 20
40.992568
 30
0.0
 10
225.346563
 20
41.269449
 30
0.0
  0
SPLINE
  5
1c7
100
AcDbEntity
  8
Layer_1
 62
7
100
AcDbSpline
 70
8
 71
3
 72
8
 73
4
 74
0
 40
0
 40
0
 40
0
 40
0
 40
1
 40
1
 40
1
 40
1
 10
225.346563
 20
41.269449
 30
0.0
 10
224.866991
 20
41.546330
 30
0.0
 10
224.276134
 20
41.546330
 30
0.0
 10
223.796562
 20
41.269449
 30
0.0
  0
SPLINE
  5
1c8
100
AcDbEntity
  8
Layer_1
 62
7
100
AcDbSpline
 70
8
 71
3
 72
8
 73
4
 74
0
 40
0
 40
0
 40
0
 40
0
 40
1
 40
1
 40
1
 40
1
 10
223.796562
 20
41.269449
 30
0.0
 10
223.316990
 20
40.992568
 30
0.0
 10
223.021562
 20
40.480871
 30
0.0
 10
223.021562
 20
39.927109
 30
0.0
  0
LINE
  5
1c9
100
AcDbEntity
  8
Layer_1
 62
7
100
AcDbLine
 10
223.021562
 20
39.927109
 30
0.0
 11
223.021562
 21
39.927109
 31
0.0
  0
SPLINE
  5
1ca
100
AcDbEntity
  8
Layer_1
 62
7
100
AcDbSpline
 70
8
 71
3
 72
8
 73
4
 74
0
 40
0
 40
0
 40
0
 40
0
 40
1
 40
1
 40
1
 40
1
 10
14.021562
 20
39.927109
 30
0.0
 10
14.021562
 20
39.373347
 30
0.0
 10
14.316991
 20
38.861650
 30
0.0
 10
14.796563
 20
38.584769
 30
0.0
  0
SPLINE
  5
1cb
100
AcDbEntity
  8
Layer_1
 62
7
100
AcDbSpline
 70
8
 71
3
 72
8
 73
4
 74
0
 40
0
 40
0
 40
0
 40
0
 40
1
 40
1
 40
1
 40
1
 10
14.796563
 20
38.584769
 30
0.0
 10
15.276135
 20
38.307888
 30
0.0
 10
15.866992
 20
38.307888
 30
0.0
 10
16.346564
 20
38.584769
 30
0.0
  0
SPLINE
  5
1cc
100
AcDbEntity
  8
Layer_1
 62
7
100
AcDbSpline
 70
8
 71
3
 72
8
 73
4
 74
0
 40
0
 40
0
 40
0
 40
0
 40
1
 40
1
 40
1
 40
1
 10
16.346564
 20
38.584769
 30
0.0
 10
16.826136
 20
38.861650
 30
0.0
 10
17.121564
 20
39.373347
 30
0.0
 10
17.121564
 20
39.927109
 30
0.0
  0
SPLINE
  5
1cd
100
AcDbEntity
  8
Layer_1
 62
7
100
AcDbSpline
 70
8
 71
3
 72
8
 73
4
 74
0
 40
0
 40
0
 40
0
 40
0
 40
1
 40
1
 40
1
 40
1
 10
17.121564
 20
39.927109
 30
0.0
 10
17.121564
 20
40.480871
 30
0.0
 10
16.826136
 20
40.992568
 30
0.0
 10
16.346564
 20
41.269449
 30
0.0
  0
SPLINE
  5
1ce
100
AcDbEntity
  8
Layer_1
 62
7
100
AcDbSpline
 70
8
 71
3
 72
8
 73
4
 74
0
 40
0
 40
0
 40
0
 40
0
 40
1
 40
1
 40
1
 40
1
 10
16.346564
 20
41.269449
 30
0.0
 10
15.866992
 20
41.546330
 30
0.0
 10
15.276135
 20
41.546330
 30
0.0
 10
14.796563
 20
41.269449
 30
0.0
  0
SPLINE
  5
1cf
100
AcDbEntity
  8
Layer_1
 62
7
100
AcDbSpline
 70
8
 71
3
 72
8
 73
4
 74
0
 40
0
 40
0
 40
0
 40
0
 40
1
 40
1
 40
1
 40
1
 10
14.796563
 20
41.269449
 30
0.0
 10
14.316991
 20
40.992568
 30
0.0
 10
14.021562
 20
40.480871
 30
0.0
 10
14.021562
 20
39.927109
 30
0.0
  0
LINE
  5
1d0
100
AcDbEntity
  8
Layer_1
 62
7
100
AcDbLine
 10
14.021562
 20
39.927109
 30
0.0
 11
14.021562
 21
39.927109
 31
0.0
  0
SPLINE
  5
1d1
100
AcDbEntity
  8
Layer_1
 62
7
100
AcDbSpline
 70
8
 71
3
 72
8
 73
4
 74
0
 40
0
 40
0
 40
0
 40
0
 40
1
 40
1
 40
1
 40
1
 10
14.021562
 20
248.927111
 30
0.0
 10
14.021562
 20
248.373349
 30
0.0
 10
14.316991
 20
247.861652
 30
0.0
 10
14.796563
 20
247.584771
 30
0.0
  0
SPLINE
  5
1d2
100
AcDbEntity
  8
Layer_1
 62
7
100
AcDbSpline
 70
8
 71
3
 72
8
 73
4
 74
0
 40
0
 40
0
 40
0
 40
0
 40
1
 40
1
 40
1
 40
1
 10
14.796563
 20
247.584771
 30
0.0
 10
15.276135
 20
247.307890
 30
0.0
 10
15.866992
 20
247.307890
 30
0.0
 10
16.346564
 20
247.584771
 30
0.0
  0
SPLINE
  5
1d3
100
AcDbEntity
  8
Layer_1
 62
7
100
AcDbSpline
 70
8
 71
3
 72
8
 73
4
 74
0
 40
0
 40
0
 40
0
 40
0
 40
1
 40
1
 40
1
 40
1
 10
16.346564
 20
247.584771
 30
0.0
 10
16.826136
 20
247.861652
 30
0.0
 10
17.121564
 20
248.373349
 30
0.0
 10
17.121564
 20
248.927111
 30
0.0
  0
SPLINE
  5
1d4
100
AcDbEntity
  8
Layer_1
 62
7
100
AcDbSpline
 70
8
 71
3
 72
8
 73
4
 74
0
 40
0
 40
0
 40
0
 40
0
 40
1
 40
1
 40
1
 40
1
 10
17.121564
 20
248.927111
 30
0.0
 10
17.121564
 20
249.480873
 30
0.0
 10
16.826136
 20
249.992571
 30
0.0
 10
16.346564
 20
250.269452
 30
0.0
  0
SPLINE
  5
1d5
100
AcDbEntity
  8
Layer_1
 62
7
100
AcDbSpline
 70
8
 71
3
 72
8
 73
4
 74
0
 40
0
 40
0
 40
0
 40
0
 40
1
 40
1
 40
1
 40
1
 10
16.346564
 20
250.269452
 30
0.0
 10
15.866992
 20
250.546333
 30
0.0
 10
15.276135
 20
250.546333
 30
0.0
 10
14.796563
 20
250.269452
 30
0.0
  0
SPLINE
  5
1d6
100
AcDbEntity
  8
Layer_1
 62
7
100
AcDbSpline
 70
8
 71
3
 72
8
 73
4
 74
0
 40
0
 40
0
 40
0
 40
0
 40
1
 40
1
 40
1
 40
1
 10
14.796563
 20
250.269452
 30
0.0
 10
14.316991
 20
249.992571
 30
0.0
 10
14.021562
 20
249.480873
 30
0.0
 10
14.021562
 20
248.927111
 30
0.0
  0
LINE
  5
1d7
100
AcDbEntity
  8
Layer_1
 62
7
100
AcDbLine
 10
14.021562
 20
248.927111
 30
0.0
 11
14.021562
 21
248.927111
 31
0.0
  0
SPLINE
  5
1d8
100
AcDbEntity
  8
Layer_1
 62
7
100
AcDbSpline
 70
8
 71
3
 72
8
 73
4
 74
0
 40
0
 40
0
 40
0
 40
0
 40
1
 40
1
 40
1
 40
1
 10
223.021562
 20
248.927111
 30
0.0
 10
223.021562
 20
248.373349
 30
0.0
 10
223.316990
 20
247.861652
 30
0.0
 10
223.796562
 20
247.584771
 30
0.0
  0
SPLINE
  5
1d9
100
AcDbEntity
  8
Layer_1
 62
7
100
AcDbSpline
 70
8
 71
3
 72
8
 73
4
 74
0
 40
0
 40
0
 40
0
 40
0
 40
1
 40
1
 40
1
 40
1
 10
223.796562
 20
247.584771
 30
0.0
 10
224.276134
 20
247.307890
 30
0.0
 10
224.866991
 20
247.307890
 30
0.0
 10
225.346563
 20
247.584771
 30
0.0
  0
SPLINE
  5
1da
100
AcDbEntity
  8
Layer_1
 62
7
100
AcDbSpline
 70
8
 71
3
 72
8
 73
4
 74
0
 40
0
 40
0
 40
0
 40
0
 40
1
 40
1
 40
1
 40
1
 10
225.346563
 20
247.584771
 30
0.0
 10
225.826135
 20
247.861652
 30
0.0
 10
226.121564
 20
248.373349
 30
0.0
 10
226.121564
 20
248.927111
 30
0.0
  0
SPLINE
  5
1db
100
AcDbEntity
  8
Layer_1
 62
7
100
AcDbSpline
 70
8
 71
3
 72
8
 73
4
 74
0
 40
0
 40
0
 40
0
 40
0
 40
1
 40
1
 40
1
 40
1
 10
226.121564
 20
248.927111
 30
0.0
 10
226.121564
 20
249.480873
 30
0.0
 10
225.826135
 20
249.992571
 30
0.0
 10
225.346563
 20
250.269452
 30
0.0
  0
SPLINE
  5
1dc
100
AcDbEntity
  8
Layer_1
 62
7
100
AcDbSpline
 70
8
 71
3
 72
8
 73
4
 74
0
 40
0
 40
0
 40
0
 40
0
 40
1
 40
1
 40
1
 40
1
 10
225.346563
 20
250.269452
 30
0.0
 10
224.866991
 20
250.546333
 30
0.0
 10
224.276134
 20
250.546333
 30
0.0
 10
223.796562
 20
250.269452
 30
0.0
  0
SPLINE
  5
1dd
100
AcDbEntity
  8
Layer_1
 62
7
100
AcDbSpline
 70
8
 71
3
 72
8
 73
4
 74
0
 40
0
 40
0
 40
0
 40
0
 40
1
 40
1
 40
1
 40
1
 10
223.796562
 20
250.269452
 30
0.0
 10
223.316990
 20
249.992571
 30
0.0
 10
223.021562
 20
249.480873
 30
0.0
 10
223.021562
 20
248.927111
 30
0.0
  0
LINE
  5
1de
100
AcDbEntity
  8
Layer_1
 62
7
100
AcDbLine
 10
223.021562
 20
248.927111
 30
0.0
 11
223.021562
 21
248.927111
 31
0.0
  0
LINE
  5
1df
100
AcDbEntity
  8
Layer_1
 62
7
100
AcDbLine
 10
189.321564
 20
102.302109
 30
0.0
 11
200.821564
 21
102.302109
 31
0.0
  0
LINE
  5
1e0
100
AcDbEntity
  8
Layer_1
 62
7
100
AcDbLine
 10
200.821564
 20
102.302109
 30
0.0
 11
200.821564
 21
126.552110
 31
0.0
  0
LINE
  5
1e1
100
AcDbEntity
  8
Layer_1
 62
7
100
AcDbLine
 10
200.821564
 20
126.552110
 30
0.0
 11
189.321564
 21
126.552110
 31
0.0
  0
LINE
  5
1e2
100
AcDbEntity
  8
Layer_1
 62
7
100
AcDbLine
 10
189.321564
 20
126.552110
 30
0.0
 11
189.321564
 21
102.302109
 31
0.0
  0
LINE
  5
1e3
100
AcDbEntity
  8
Layer_1
 62
7
100
AcDbLine
 10
200.821564
 20
186.552106
 30
0.0
 11
189.321564
 21
186.552106
 31
0.0
  0
LINE
  5
1e4
100
AcDbEntity
  8
Layer_1
 62
7
100
AcDbLine
 10
189.321564
 20
186.552106
 30
0.0
 11
189.321564
 21
162.302105
 31
0.0
  0
LINE
  5
1e5
100
AcDbEntity
  8
Layer_1
 62
7
100
AcDbLine
 10
189.321564
 20
162.302105
 30
0.0
 11
200.821564
 21
162.302105
 31
0.0
  0
LINE
  5
1e6
100
AcDbEntity
  8
Layer_1
 62
7
100
AcDbLine
 10
200.821564
 20
162.302105
 30
0.0
 11
200.821564
 21
186.552106
 31
0.0
  0
LINE
  5
1e7
100
AcDbEntity
  8
Layer_1
 62
7
100
AcDbLine
 10
39.321562
 20
102.302109
 30
0.0
 11
50.821562
 21
102.302109
 31
0.0
  0
LINE
  5
1e8
100
AcDbEntity
  8
Layer_1
 62
7
100
AcDbLine
 10
50.821562
 20
102.302109
 30
0.0
 11
50.821562
 21
126.552110
 31
0.0
  0
LINE
  5
1e9
100
AcDbEntity
  8
Layer_1
 62
7
100
AcDbLine
 10
50.821562
 20
126.552110
 30
0.0
 11
39.321562
 21
126.552110
 31
0.0
  0
LINE
  5
1ea
100
AcDbEntity
  8
Layer_1
 62
7
100
AcDbLine
 10
39.321562
 20
126.552110
 30
0.0
 11
39.321562
 21
102.302109
 31
0.0
  0
LINE
  5
1eb
100
AcDbEntity
  8
Layer_1
 62
7
100
AcDbLine
 10
39.321562
 20
162.302105
 30
0.0
 11
50.821562
 21
162.302105
 31
0.0
  0
LINE
  5
1ec
100
AcDbEntity
  8
Layer_1
 62
7
100
AcDbLine
 10
50.821562
 20
162.302105
 30
0.0
 11
50.821562
 21
186.552106
 31
0.0
  0
LINE
  5
1ed
100
AcDbEntity
  8
Layer_1
 62
7
100
AcDbLine
 10
50.821562
 20
186.552106
 30
0.0
 11
39.321562
 21
186.552106
 31
0.0
  0
LINE
  5
1ee
100
AcDbEntity
  8
Layer_1
 62
7
100
AcDbLine
 10
39.321562
 20
186.552106
 30
0.0
 11
39.321562
 21
162.302105
 31
0.0
  0
SPLINE
  5
1ef
100
AcDbEntity
  8
Layer_1
 62
7
100
AcDbSpline
 70
8
 71
3
 72
8
 73
4
 74
0
 40
0
 40
0
 40
0
 40
0
 40
1
 40
1
 40
1
 40
1
 10
151.971564
 20
99.427111
 30
0.0
 10
151.971230
 20
98.873127
 30
0.0
 10
152.266585
 20
98.361081
 30
0.0
 10
152.746294
 20
98.083992
 30
0.0
  0
SPLINE
  5
1f0
100
AcDbEntity
  8
Layer_1
 62
7
100
AcDbSpline
 70
8
 71
3
 72
8
 73
4
 74
0
 40
0
 40
0
 40
0
 40
0
 40
1
 40
1
 40
1
 40
1
 10
152.746294
 20
98.083992
 30
0.0
 10
153.226003
 20
97.806904
 30
0.0
 10
153.817125
 20
97.806904
 30
0.0
 10
154.296834
 20
98.083992
 30
0.0
  0
SPLINE
  5
1f1
100
AcDbEntity
  8
Layer_1
 62
7
100
AcDbSpline
 70
8
 71
3
 72
8
 73
4
 74
0
 40
0
 40
0
 40
0
 40
0
 40
1
 40
1
 40
1
 40
1
 10
154.296834
 20
98.083992
 30
0.0
 10
154.776543
 20
98.361081
 30
0.0
 10
155.071898
 20
98.873127
 30
0.0
 10
155.071564
 20
99.427111
 30
0.0
  0
SPLINE
  5
1f2
100
AcDbEntity
  8
Layer_1
 62
7
100
AcDbSpline
 70
8
 71
3
 72
8
 73
4
 74
0
 40
0
 40
0
 40
0
 40
0
 40
1
 40
1
 40
1
 40
1
 10
155.071564
 20
99.427111
 30
0.0
 10
155.071898
 20
99.981096
 30
0.0
 10
154.776543
 20
100.493141
 30
0.0
 10
154.296834
 20
100.770230
 30
0.0
  0
SPLINE
  5
1f3
100
AcDbEntity
  8
Layer_1
 62
7
100
AcDbSpline
 70
8
 71
3
 72
8
 73
4
 74
0
 40
0
 40
0
 40
0
 40
0
 40
1
 40
1
 40
1
 40
1
 10
154.296834
 20
100.770230
 30
0.0
 10
153.817125
 20
101.047319
 30
0.0
 10
153.226003
 20
101.047319
 30
0.0
 10
152.746294
 20
100.770230
 30
0.0
  0
SPLINE
  5
1f4
100
AcDbEntity
  8
Layer_1
 62
7
100
AcDbSpline
 70
8
 71
3
 72
8
 73
4
 74
0
 40
0
 40
0
 40
0
 40
0
 40
1
 40
1
 40
1
 40
1
 10
152.746294
 20
100.770230
 30
0.0
 10
152.266585
 20
100.493141
 30
0.0
 10
151.971230
 20
99.981096
 30
0.0
 10
151.971564
 20
99.427111
 30
0.0
  0
LINE
  5
1f5
100
AcDbEntity
  8
Layer_1
 62
7
100
AcDbLine
 10
151.971564
 20
99.427111
 30
0.0
 11
151.971564
 21
99.427111
 31
0.0
  0
SPLINE
  5
1f6
100
AcDbEntity
  8
Layer_1
 62
7
100
AcDbSpline
 70
8
 71
3
 72
8
 73
4
 74
0
 40
0
 40
0
 40
0
 40
0
 40
1
 40
1
 40
1
 40
1
 10
151.971564
 20
114.427109
 30
0.0
 10
151.971230
 20
113.873125
 30
0.0
 10
152.266585
 20
113.361079
 30
0.0
 10
152.746294
 20
113.083991
 30
0.0
  0
SPLINE
  5
1f7
100
AcDbEntity
  8
Layer_1
 62
7
100
AcDbSpline
 70
8
 71
3
 72
8
 73
4
 74
0
 40
0
 40
0
 40
0
 40
0
 40
1
 40
1
 40
1
 40
1
 10
152.746294
 20
113.083991
 30
0.0
 10
153.226003
 20
112.806902
 30
0.0
 10
153.817125
 20
112.806902
 30
0.0
 10
154.296834
 20
113.083991
 30
0.0
  0
SPLINE
  5
1f8
100
AcDbEntity
  8
Layer_1
 62
7
100
AcDbSpline
 70
8
 71
3
 72
8
 73
4
 74
0
 40
0
 40
0
 40
0
 40
0
 40
1
 40
1
 40
1
 40
1
 10
154.296834
 20
113.083991
 30
0.0
 10
154.776543
 20
113.361079
 30
0.0
 10
155.071898
 20
113.873125
 30
0.0
 10
155.071564
 20
114.427109
 30
0.0
  0
SPLINE
  5
1f9
100
AcDbEntity
  8
Layer_1
 62
7
100
AcDbSpline
 70
8
 71
3
 72
8
 73
4
 74
0
 40
0
 40
0
 40
0
 40
0
 40
1
 40
1
 40
1
 40
1
 10
155.071564
 20
114.427109
 30
0.0
 10
155.071898
 20
114.981094
 30
0.0
 10
154.776543
 20
115.493140
 30
0.0
 10
154.296834
 20
115.770228
 30
0.0
  0
SPLINE
  5
1fa
100
AcDbEntity
  8
Layer_1
 62
7
100
AcDbSpline
 70
8
 71
3
 72
8
 73
4
 74
0
 40
0
 40
0
 40
0
 40
0
 40
1
 40
1
 40
1
 40
1
 10
154.296834
 20
115.770228
 30
0.0
 10
153.817125
 20
116.047317
 30
0.0
 10
153.226003
 20
116.047317
 30
0.0
 10
152.746294
 20
115.770228
 30
0.0
  0
SPLINE
  5
1fb
100
AcDbEntity
  8
Layer_1
 62
7
100
AcDbSpline
 70
8
 71
3
 72
8
 73
4
 74
0
 40
0
 40
0
 40
0
 40
0
 40
1
 40
1
 40
1
 40
1
 10
152.746294
 20
115.770228
 30
0.0
 10
152.266585
 20
115.493140
 30
0.0
 10
151.971230
 20
114.981094
 30
0.0
 10
151.971564
 20
114.427109
 30
0.0
  0
LINE
  5
1fc
100
AcDbEntity
  8
Layer_1
 62
7
100
AcDbLine
 10
151.971564
 20
114.427109
 30
0.0
 11
151.971564
 21
114.427109
 31
0.0
  0
SPLINE
  5
1fd
100
AcDbEntity
  8
Layer_1
 62
7
100
AcDbSpline
 70
8
 71
3
 72
8
 73
4
 74
0
 40
0
 40
0
 40
0
 40
0
 40
1
 40
1
 40
1
 40
1
 10
151.971564
 20
104.427110
 30
0.0
 10
151.971230
 20
103.873125
 30
0.0
 10
152.266585
 20
103.361080
 30
0.0
 10
152.746294
 20
103.083991
 30
0.0
  0
SPLINE
  5
1fe
100
AcDbEntity
  8
Layer_1
 62
7
100
AcDbSpline
 70
8
 71
3
 72
8
 73
4
 74
0
 40
0
 40
0
 40
0
 40
0
 40
1
 40
1
 40
1
 40
1
 10
152.746294
 20
103.083991
 30
0.0
 10
153.226003
 20
102.806902
 30
0.0
 10
153.817125
 20
102.806902
 30
0.0
 10
154.296834
 20
103.083991
 30
0.0
  0
SPLINE
  5
1ff
100
AcDbEntity
  8
Layer_1
 62
7
100
AcDbSpline
 70
8
 71
3
 72
8
 73
4
 74
0
 40
0
 40
0
 40
0
 40
0
 40
1
 40
1
 40
1
 40
1
 10
154.296834
 20
103.083991
 30
0.0
 10
154.776543
 20
103.361080
 30
0.0
 10
155.071898
 20
103.873125
 30
0.0
 10
155.071564
 20
104.427110
 30
0.0
  0
SPLINE
  5
200
100
AcDbEntity
  8
Layer_1
 62
7
100
AcDbSpline
 70
8
 71
3
 72
8
 73
4
 74
0
 40
0
 40
0
 40
0
 40
0
 40
1
 40
1
 40
1
 40
1
 10
155.071564
 20
104.427110
 30
0.0
 10
155.071898
 20
104.981094
 30
0.0
 10
154.776543
 20
105.493140
 30
0.0
 10
154.296834
 20
105.770229
 30
0.0
  0
SPLINE
  5
201
100
AcDbEntity
  8
Layer_1
 62
7
100
AcDbSpline
 70
8
 71
3
 72
8
 73
4
 74
0
 40
0
 40
0
 40
0
 40
0
 40
1
 40
1
 40
1
 40
1
 10
154.296834
 20
105.770229
 30
0.0
 10
153.817125
 20
106.047317
 30
0.0
 10
153.226003
 20
106.047317
 30
0.0
 10
152.746294
 20
105.770229
 30
0.0
  0
SPLINE
  5
202
100
AcDbEntity
  8
Layer_1
 62
7
100
AcDbSpline
 70
8
 71
3
 72
8
 73
4
 74
0
 40
0
 40
0
 40
0
 40
0
 40
1
 40
1
 40
1
 40
1
 10
152.746294
 20
105.770229
 30
0.0
 10
152.266585
 20
105.493140
 30
0.0
 10
151.971230
 20
104.981094
 30
0.0
 10
151.971564
 20
104.427110
 30
0.0
  0
LINE
  5
203
100
AcDbEntity
  8
Layer_1
 62
7
100
AcDbLine
 10
151.971564
 20
104.427110
 30
0.0
 11
151.971564
 21
104.427110
 31
0.0
  0
SPLINE
  5
204
100
AcDbEntity
  8
Layer_1
 62
7
100
AcDbSpline
 70
8
 71
3
 72
8
 73
4
 74
0
 40
0
 40
0
 40
0
 40
0
 40
1
 40
1
 40
1
 40
1
 10
151.971564
 20
109.427111
 30
0.0
 10
151.971230
 20
108.873127
 30
0.0
 10
152.266585
 20
108.361081
 30
0.0
 10
152.746294
 20
108.083992
 30
0.0
  0
SPLINE
  5
205
100
AcDbEntity
  8
Layer_1
 62
7
100
AcDbSpline
 70
8
 71
3
 72
8
 73
4
 74
0
 40
0
 40
0
 40
0
 40
0
 40
1
 40
1
 40
1
 40
1
 10
152.746294
 20
108.083992
 30
0.0
 10
153.226003
 20
107.806903
 30
0.0
 10
153.817125
 20
107.806903
 30
0.0
 10
154.296834
 20
108.083992
 30
0.0
  0
SPLINE
  5
206
100
AcDbEntity
  8
Layer_1
 62
7
100
AcDbSpline
 70
8
 71
3
 72
8
 73
4
 74
0
 40
0
 40
0
 40
0
 40
0
 40
1
 40
1
 40
1
 40
1
 10
154.296834
 20
108.083992
 30
0.0
 10
154.776543
 20
108.361081
 30
0.0
 10
155.071898
 20
108.873127
 30
0.0
 10
155.071564
 20
109.427111
 30
0.0
  0
SPLINE
  5
207
100
AcDbEntity
  8
Layer_1
 62
7
100
AcDbSpline
 70
8
 71
3
 72
8
 73
4
 74
0
 40
0
 40
0
 40
0
 40
0
 40
1
 40
1
 40
1
 40
1
 10
155.071564
 20
109.427111
 30
0.0
 10
155.071898
 20
109.981095
 30
0.0
 10
154.776543
 20
110.493141
 30
0.0
 10
154.296834
 20
110.770230
 30
0.0
  0
SPLINE
  5
208
100
AcDbEntity
  8
Layer_1
 62
7
100
AcDbSpline
 70
8
 71
3
 72
8
 73
4
 74
0
 40
0
 40
0
 40
0
 40
0
 40
1
 40
1
 40
1
 40
1
 10
154.296834
 20
110.770230
 30
0.0
 10
153.817125
 20
111.047319
 30
0.0
 10
153.226003
 20
111.047319
 30
0.0
 10
152.746294
 20
110.770230
 30
0.0
  0
SPLINE
  5
209
100
AcDbEntity
  8
Layer_1
 62
7
100
AcDbSpline
 70
8
 71
3
 72
8
 73
4
 74
0
 40
0
 40
0
 40
0
 40
0
 40
1
 40
1
 40
1
 40
1
 10
152.746294
 20
110.770230
 30
0.0
 10
152.266585
 20
110.493141
 30
0.0
 10
151.971230
 20
109.981095
 30
0.0
 10
151.971564
 20
109.427111
 30
0.0
  0
LINE
  5
20a
100
AcDbEntity
  8
Layer_1
 62
7
100
AcDbLine
 10
151.971564
 20
109.427111
 30
0.0
 11
151.971564
 21
109.427111
 31
0.0
  0
SPLINE
  5
20b
100
AcDbEntity
  8
Layer_1
 62
7
100
AcDbSpline
 70
8
 71
3
 72
8
 73
4
 74
0
 40
0
 40
0
 40
0
 40
0
 40
1
 40
1
 40
1
 40
1
 10
34.621563
 20
122.427110
 30
0.0
 10
34.621047
 20
123.282786
 30
0.0
 10
33.927240
 20
123.976175
 30
0.0
 10
33.071563
 20
123.976175
 30
0.0
  0
SPLINE
  5
20c
100
AcDbEntity
  8
Layer_1
 62
7
100
AcDbSpline
 70
8
 71
3
 72
8
 73
4
 74
0
 40
0
 40
0
 40
0
 40
0
 40
1
 40
1
 40
1
 40
1
 10
33.071563
 20
123.976175
 30
0.0
 10
32.215887
 20
123.976175
 30
0.0
 10
31.522080
 20
123.282786
 30
0.0
 10
31.521564
 20
122.427110
 30
0.0
  0
LINE
  5
20d
100
AcDbEntity
  8
Layer_1
 62
7
100
AcDbLine
 10
31.521564
 20
122.427110
 30
0.0
 11
31.521564
 21
121.427110
 31
0.0
  0
SPLINE
  5
20e
100
AcDbEntity
  8
Layer_1
 62
7
100
AcDbSpline
 70
8
 71
3
 72
8
 73
4
 74
0
 40
0
 40
0
 40
0
 40
0
 40
1
 40
1
 40
1
 40
1
 10
31.521564
 20
121.427110
 30
0.0
 10
31.522080
 20
120.571434
 30
0.0
 10
32.215887
 20
119.878045
 30
0.0
 10
33.071563
 20
119.878045
 30
0.0
  0
SPLINE
  5
20f
100
AcDbEntity
  8
Layer_1
 62
7
100
AcDbSpline
 70
8
 71
3
 72
8
 73
4
 74
0
 40
0
 40
0
 40
0
 40
0
 40
1
 40
1
 40
1
 40
1
 10
33.071563
 20
119.878045
 30
0.0
 10
33.927240
 20
119.878045
 30
0.0
 10
34.621047
 20
120.571434
 30
0.0
 10
34.621563
 20
121.427110
 30
0.0
  0
LINE
  5
210
100
AcDbEntity
  8
Layer_1
 62
7
100
AcDbLine
 10
34.621563
 20
121.427110
 30
0.0
 11
34.621563
 21
122.427110
 31
0.0
  0
SPLINE
  5
211
100
AcDbEntity
  8
Layer_1
 62
7
100
AcDbSpline
 70
8
 71
3
 72
8
 73
4
 74
0
 40
0
 40
0
 40
0
 40
0
 40
1
 40
1
 40
1
 40
1
 10
31.521564
 20
106.427111
 30
0.0
 10
31.522080
 20
105.571435
 30
0.0
 10
32.215887
 20
104.878047
 30
0.0
 10
33.071563
 20
104.878047
 30
0.0
  0
SPLINE
  5
212
100
AcDbEntity
  8
Layer_1
 62
7
100
AcDbSpline
 70
8
 71
3
 72
8
 73
4
 74
0
 40
0
 40
0
 40
0
 40
0
 40
1
 40
1
 40
1
 40
1
 10
33.071563
 20
104.878047
 30
0.0
 10
33.927240
 20
104.878047
 30
0.0
 10
34.621047
 20
105.571435
 30
0.0
 10
34.621563
 20
106.427111
 30
0.0
  0
LINE
  5
213
100
AcDbEntity
  8
Layer_1
 62
7
100
AcDbLine
 10
34.621563
 20
106.427111
 30
0.0
 11
34.621563
 21
107.427109
 31
0.0
  0
SPLINE
  5
214
100
AcDbEntity
  8
Layer_1
 62
7
100
AcDbSpline
 70
8
 71
3
 72
8
 73
4
 74
0
 40
0
 40
0
 40
0
 40
0
 40
1
 40
1
 40
1
 40
1
 10
34.621563
 20
107.427109
 30
0.0
 10
34.621047
 20
108.282785
 30
0.0
 10
33.927240
 20
108.976174
 30
0.0
 10
33.071563
 20
108.976174
 30
0.0
  0
SPLINE
  5
215
100
AcDbEntity
  8
Layer_1
 62
7
100
AcDbSpline
 70
8
 71
3
 72
8
 73
4
 74
0
 40
0
 40
0
 40
0
 40
0
 40
1
 40
1
 40
1
 40
1
 10
33.071563
 20
108.976174
 30
0.0
 10
32.215887
 20
108.976174
 30
0.0
 10
31.522080
 20
108.282785
 30
0.0
 10
31.521564
 20
107.427109
 30
0.0
  0
LINE
  5
216
100
AcDbEntity
  8
Layer_1
 62
7
100
AcDbLine
 10
31.521564
 20
107.427109
 30
0.0
 11
31.521564
 21
106.427111
 31
0.0
  0
SPLINE
  5
217
100
AcDbEntity
  8
Layer_1
 62
7
100
AcDbSpline
 70
8
 71
3
 72
8
 73
4
 74
0
 40
0
 40
0
 40
0
 40
0
 40
1
 40
1
 40
1
 40
1
 10
55.521564
 20
106.427111
 30
0.0
 10
55.522080
 20
105.571435
 30
0.0
 10
56.215887
 20
104.878047
 30
0.0
 10
57.071563
 20
104.878047
 30
0.0
  0
SPLINE
  5
218
100
AcDbEntity
  8
Layer_1
 62
7
100
AcDbSpline
 70
8
 71
3
 72
8
 73
4
 74
0
 40
0
 40
0
 40
0
 40
0
 40
1
 40
1
 40
1
 40
1
 10
57.071563
 20
104.878047
 30
0.0
 10
57.927239
 20
104.878047
 30
0.0
 10
58.621047
 20
105.571435
 30
0.0
 10
58.621563
 20
106.427111
 30
0.0
  0
LINE
  5
219
100
AcDbEntity
  8
Layer_1
 62
7
100
AcDbLine
 10
58.621563
 20
106.427111
 30
0.0
 11
58.621563
 21
107.427109
 31
0.0
  0
SPLINE
  5
21a
100
AcDbEntity
  8
Layer_1
 62
7
100
AcDbSpline
 70
8
 71
3
 72
8
 73
4
 74
0
 40
0
 40
0
 40
0
 40
0
 40
1
 40
1
 40
1
 40
1
 10
58.621563
 20
107.427109
 30
0.0
 10
58.621047
 20
108.282785
 30
0.0
 10
57.927239
 20
108.976174
 30
0.0
 10
57.071563
 20
108.976174
 30
0.0
  0
SPLINE
  5
21b
100
AcDbEntity
  8
Layer_1
 62
7
100
AcDbSpline
 70
8
 71
3
 72
8
 73
4
 74
0
 40
0
 40
0
 40
0
 40
0
 40
1
 40
1
 40
1
 40
1
 10
57.071563
 20
108.976174
 30
0.0
 10
56.215887
 20
108.976174
 30
0.0
 10
55.522080
 20
108.282785
 30
0.0
 10
55.521564
 20
107.427109
 30
0.0
  0
LINE
  5
21c
100
AcDbEntity
  8
Layer_1
 62
7
100
AcDbLine
 10
55.521564
 20
107.427109
 30
0.0
 11
55.521564
 21
106.427111
 31
0.0
  0
SPLINE
  5
21d
100
AcDbEntity
  8
Layer_1
 62
7
100
AcDbSpline
 70
8
 71
3
 72
8
 73
4
 74
0
 40
0
 40
0
 40
0
 40
0
 40
1
 40
1
 40
1
 40
1
 10
31.521564
 20
166.427121
 30
0.0
 10
31.522080
 20
165.571445
 30
0.0
 10
32.215887
 20
164.878057
 30
0.0
 10
33.071563
 20
164.878057
 30
0.0
  0
SPLINE
  5
21e
100
AcDbEntity
  8
Layer_1
 62
7
100
AcDbSpline
 70
8
 71
3
 72
8
 73
4
 74
0
 40
0
 40
0
 40
0
 40
0
 40
1
 40
1
 40
1
 40
1
 10
33.071563
 20
164.878057
 30
0.0
 10
33.927240
 20
164.878057
 30
0.0
 10
34.621047
 20
165.571445
 30
0.0
 10
34.621563
 20
166.427121
 30
0.0
  0
LINE
  5
21f
100
AcDbEntity
  8
Layer_1
 62
7
100
AcDbLine
 10
34.621563
 20
166.427121
 30
0.0
 11
34.621563
 21
167.427119
 31
0.0
  0
SPLINE
  5
220
100
AcDbEntity
  8
Layer_1
 62
7
100
AcDbSpline
 70
8
 71
3
 72
8
 73
4
 74
0
 40
0
 40
0
 40
0
 40
0
 40
1
 40
1
 40
1
 40
1
 10
34.621563
 20
167.427119
 30
0.0
 10
34.621047
 20
168.282795
 30
0.0
 10
33.927240
 20
168.976184
 30
0.0
 10
33.071563
 20
168.976184
 30
0.0
  0
SPLINE
  5
221
100
AcDbEntity
  8
Layer_1
 62
7
100
AcDbSpline
 70
8
 71
3
 72
8
 73
4
 74
0
 40
0
 40
0
 40
0
 40
0
 40
1
 40
1
 40
1
 40
1
 10
33.071563
 20
168.976184
 30
0.0
 10
32.215887
 20
168.976184
 30
0.0
 10
31.522080
 20
168.282795
 30
0.0
 10
31.521564
 20
167.427119
 30
0.0
  0
LINE
  5
222
100
AcDbEntity
  8
Layer_1
 62
7
100
AcDbLine
 10
31.521564
 20
167.427119
 30
0.0
 11
31.521564
 21
166.427121
 31
0.0
  0
SPLINE
  5
223
100
AcDbEntity
  8
Layer_1
 62
7
100
AcDbSpline
 70
8
 71
3
 72
8
 73
4
 74
0
 40
0
 40
0
 40
0
 40
0
 40
1
 40
1
 40
1
 40
1
 10
34.621563
 20
182.427117
 30
0.0
 10
34.621047
 20
183.282793
 30
0.0
 10
33.927240
 20
183.976182
 30
0.0
 10
33.071563
 20
183.976182
 30
0.0
  0
SPLINE
  5
224
100
AcDbEntity
  8
Layer_1
 62
7
100
AcDbSpline
 70
8
 71
3
 72
8
 73
4
 74
0
 40
0
 40
0
 40
0
 40
0
 40
1
 40
1
 40
1
 40
1
 10
33.071563
 20
183.976182
 30
0.0
 10
32.215887
 20
183.976182
 30
0.0
 10
31.522080
 20
183.282793
 30
0.0
 10
31.521564
 20
182.427117
 30
0.0
  0
LINE
  5
225
100
AcDbEntity
  8
Layer_1
 62
7
100
AcDbLine
 10
31.521564
 20
182.427117
 30
0.0
 11
31.521564
 21
181.427119
 31
0.0
  0
SPLINE
  5
226
100
AcDbEntity
  8
Layer_1
 62
7
100
AcDbSpline
 70
8
 71
3
 72
8
 73
4
 74
0
 40
0
 40
0
 40
0
 40
0
 40
1
 40
1
 40
1
 40
1
 10
31.521564
 20
181.427119
 30
0.0
 10
31.522080
 20
180.571443
 30
0.0
 10
32.215887
 20
179.878055
 30
0.0
 10
33.071563
 20
179.878055
 30
0.0
  0
SPLINE
  5
227
100
AcDbEntity
  8
Layer_1
 62
7
100
AcDbSpline
 70
8
 71
3
 72
8
 73
4
 74
0
 40
0
 40
0
 40
0
 40
0
 40
1
 40
1
 40
1
 40
1
 10
33.071563
 20
179.878055
 30
0.0
 10
33.927240
 20
179.878055
 30
0.0
 10
34.621047
 20
180.571443
 30
0.0
 10
34.621563
 20
181.427119
 30
0.0
  0
LINE
  5
228
100
AcDbEntity
  8
Layer_1
 62
7
100
AcDbLine
 10
34.621563
 20
181.427119
 30
0.0
 11
34.621563
 21
182.427117
 31
0.0
  0
SPLINE
  5
229
100
AcDbEntity
  8
Layer_1
 62
7
100
AcDbSpline
 70
8
 71
3
 72
8
 73
4
 74
0
 40
0
 40
0
 40
0
 40
0
 40
1
 40
1
 40
1
 40
1
 10
58.621563
 20
182.427117
 30
0.0
 10
58.621047
 20
183.282793
 30
0.0
 10
57.927239
 20
183.976182
 30
0.0
 10
57.071563
 20
183.976182
 30
0.0
  0
SPLINE
  5
22a
100
AcDbEntity
  8
Layer_1
 62
7
100
AcDbSpline
 70
8
 71
3
 72
8
 73
4
 74
0
 40
0
 40
0
 40
0
 40
0
 40
1
 40
1
 40
1
 40
1
 10
57.071563
 20
183.976182
 30
0.0
 10
56.215887
 20
183.976182
 30
0.0
 10
55.522080
 20
183.282793
 30
0.0
 10
55.521564
 20
182.427117
 30
0.0
  0
LINE
  5
22b
100
AcDbEntity
  8
Layer_1
 62
7
100
AcDbLine
 10
55.521564
 20
182.427117
 30
0.0
 11
55.521564
 21
181.427119
 31
0.0
  0
SPLINE
  5
22c
100
AcDbEntity
  8
Layer_1
 62
7
100
AcDbSpline
 70
8
 71
3
 72
8
 73
4
 74
0
 40
0
 40
0
 40
0
 40
0
 40
1
 40
1
 40
1
 40
1
 10
55.521564
 20
181.427119
 30
0.0
 10
55.522080
 20
180.571443
 30
0.0
 10
56.215887
 20
179.878055
 30
0.0
 10
57.071563
 20
179.878055
 30
0.0
  0
SPLINE
  5
22d
100
AcDbEntity
  8
Layer_1
 62
7
100
AcDbSpline
 70
8
 71
3
 72
8
 73
4
 74
0
 40
0
 40
0
 40
0
 40
0
 40
1
 40
1
 40
1
 40
1
 10
57.071563
 20
179.878055
 30
0.0
 10
57.927239
 20
179.878055
 30
0.0
 10
58.621047
 20
180.571443
 30
0.0
 10
58.621563
 20
181.427119
 30
0.0
  0
LINE
  5
22e
100
AcDbEntity
  8
Layer_1
 62
7
100
AcDbLine
 10
58.621563
 20
181.427119
 30
0.0
 11
58.621563
 21
182.427117
 31
0.0
  0
SPLINE
  5
22f
100
AcDbEntity
  8
Layer_1
 62
7
100
AcDbSpline
 70
8
 71
3
 72
8
 73
4
 74
0
 40
0
 40
0
 40
0
 40
0
 40
1
 40
1
 40
1
 40
1
 10
55.521564
 20
166.427121
 30
0.0
 10
55.522080
 20
165.571445
 30
0.0
 10
56.215887
 20
164.878057
 30
0.0
 10
57.071563
 20
164.878057
 30
0.0
  0
SPLINE
  5
230
100
AcDbEntity
  8
Layer_1
 62
7
100
AcDbSpline
 70
8
 71
3
 72
8
 73
4
 74
0
 40
0
 40
0
 40
0
 40
0
 40
1
 40
1
 40
1
 40
1
 10
57.071563
 20
164.878057
 30
0.0
 10
57.927239
 20
164.878057
 30
0.0
 10
58.621047
 20
165.571445
 30
0.0
 10
58.621563
 20
166.427121
 30
0.0
  0
LINE
  5
231
100
AcDbEntity
  8
Layer_1
 62
7
100
AcDbLine
 10
58.621563
 20
166.427121
 30
0.0
 11
58.621563
 21
167.427119
 31
0.0
  0
SPLINE
  5
232
100
AcDbEntity
  8
Layer_1
 62
7
100
AcDbSpline
 70
8
 71
3
 72
8
 73
4
 74
0
 40
0
 40
0
 40
0
 40
0
 40
1
 40
1
 40
1
 40
1
 10
58.621563
 20
167.427119
 30
0.0
 10
58.621047
 20
168.282795
 30
0.0
 10
57.927239
 20
168.976184
 30
0.0
 10
57.071563
 20
168.976184
 30
0.0
  0
SPLINE
  5
233
100
AcDbEntity
  8
Layer_1
 62
7
100
AcDbSpline
 70
8
 71
3
 72
8
 73
4
 74
0
 40
0
 40
0
 40
0
 40
0
 40
1
 40
1
 40
1
 40
1
 10
57.071563
 20
168.976184
 30
0.0
 10
56.215887
 20
168.976184
 30
0.0
 10
55.522080
 20
168.282795
 30
0.0
 10
55.521564
 20
167.427119
 30
0.0
  0
LINE
  5
234
100
AcDbEntity
  8
Layer_1
 62
7
100
AcDbLine
 10
55.521564
 20
167.427119
 30
0.0
 11
55.521564
 21
166.427121
 31
0.0
  0
SPLINE
  5
235
100
AcDbEntity
  8
Layer_1
 62
7
100
AcDbSpline
 70
8
 71
3
 72
8
 73
4
 74
0
 40
0
 40
0
 40
0
 40
0
 40
1
 40
1
 40
1
 40
1
 10
208.621562
 20
122.427110
 30
0.0
 10
208.621046
 20
123.282786
 30
0.0
 10
207.927239
 20
123.976175
 30
0.0
 10
207.071563
 20
123.976175
 30
0.0
  0
SPLINE
  5
236
100
AcDbEntity
  8
Layer_1
 62
7
100
AcDbSpline
 70
8
 71
3
 72
8
 73
4
 74
0
 40
0
 40
0
 40
0
 40
0
 40
1
 40
1
 40
1
 40
1
 10
207.071563
 20
123.976175
 30
0.0
 10
206.215886
 20
123.976175
 30
0.0
 10
205.522079
 20
123.282786
 30
0.0
 10
205.521563
 20
122.427110
 30
0.0
  0
LINE
  5
237
100
AcDbEntity
  8
Layer_1
 62
7
100
AcDbLine
 10
205.521563
 20
122.427110
 30
0.0
 11
205.521563
 21
121.427110
 31
0.0
  0
SPLINE
  5
238
100
AcDbEntity
  8
Layer_1
 62
7
100
AcDbSpline
 70
8
 71
3
 72
8
 73
4
 74
0
 40
0
 40
0
 40
0
 40
0
 40
1
 40
1
 40
1
 40
1
 10
205.521563
 20
121.427110
 30
0.0
 10
205.522079
 20
120.571434
 30
0.0
 10
206.215886
 20
119.878045
 30
0.0
 10
207.071563
 20
119.878045
 30
0.0
  0
SPLINE
  5
239
100
AcDbEntity
  8
Layer_1
 62
7
100
AcDbSpline
 70
8
 71
3
 72
8
 73
4
 74
0
 40
0
 40
0
 40
0
 40
0
 40
1
 40
1
 40
1
 40
1
 10
207.071563
 20
119.878045
 30
0.0
 10
207.927239
 20
119.878045
 30
0.0
 10
208.621046
 20
120.571434
 30
0.0
 10
208.621562
 20
121.427110
 30
0.0
  0
LINE
  5
23a
100
AcDbEntity
  8
Layer_1
 62
7
100
AcDbLine
 10
208.621562
 20
121.427110
 30
0.0
 11
208.621562
 21
122.427110
 31
0.0
  0
SPLINE
  5
23b
100
AcDbEntity
  8
Layer_1
 62
7
100
AcDbSpline
 70
8
 71
3
 72
8
 73
4
 74
0
 40
0
 40
0
 40
0
 40
0
 40
1
 40
1
 40
1
 40
1
 10
205.521563
 20
106.427111
 30
0.0
 10
205.522079
 20
105.571435
 30
0.0
 10
206.215886
 20
104.878047
 30
0.0
 10
207.071563
 20
104.878047
 30
0.0
  0
SPLINE
  5
23c
100
AcDbEntity
  8
Layer_1
 62
7
100
AcDbSpline
 70
8
 71
3
 72
8
 73
4
 74
0
 40
0
 40
0
 40
0
 40
0
 40
1
 40
1
 40
1
 40
1
 10
207.071563
 20
104.878047
 30
0.0
 10
207.927239
 20
104.878047
 30
0.0
 10
208.621046
 20
105.571435
 30
0.0
 10
208.621562
 20
106.427111
 30
0.0
  0
LINE
  5
23d
100
AcDbEntity
  8
Layer_1
 62
7
100
AcDbLine
 10
208.621562
 20
106.427111
 30
0.0
 11
208.621562
 21
107.427109
 31
0.0
  0
SPLINE
  5
23e
100
AcDbEntity
  8
Layer_1
 62
7
100
AcDbSpline
 70
8
 71
3
 72
8
 73
4
 74
0
 40
0
 40
0
 40
0
 40
0
 40
1
 40
1
 40
1
 40
1
 10
208.621562
 20
107.427109
 30
0.0
 10
208.621046
 20
108.282785
 30
0.0
 10
207.927239
 20
108.976174
 30
0.0
 10
207.071563
 20
108.976174
 30
0.0
  0
SPLINE
  5
23f
100
AcDbEntity
  8
Layer_1
 62
7
100
AcDbSpline
 70
8
 71
3
 72
8
 73
4
 74
0
 40
0
 40
0
 40
0
 40
0
 40
1
 40
1
 40
1
 40
1
 10
207.071563
 20
108.976174
 30
0.0
 10
206.215886
 20
108.976174
 30
0.0
 10
205.522079
 20
108.282785
 30
0.0
 10
205.521563
 20
107.427109
 30
0.0
  0
LINE
  5
240
100
AcDbEntity
  8
Layer_1
 62
7
100
AcDbLine
 10
205.521563
 20
107.427109
 30
0.0
 11
205.521563
 21
106.427111
 31
0.0
  0
SPLINE
  5
241
100
AcDbEntity
  8
Layer_1
 62
7
100
AcDbSpline
 70
8
 71
3
 72
8
 73
4
 74
0
 40
0
 40
0
 40
0
 40
0
 40
1
 40
1
 40
1
 40
1
 10
181.521563
 20
106.427111
 30
0.0
 10
181.522079
 20
105.571435
 30
0.0
 10
182.215886
 20
104.878047
 30
0.0
 10
183.071563
 20
104.878047
 30
0.0
  0
SPLINE
  5
242
100
AcDbEntity
  8
Layer_1
 62
7
100
AcDbSpline
 70
8
 71
3
 72
8
 73
4
 74
0
 40
0
 40
0
 40
0
 40
0
 40
1
 40
1
 40
1
 40
1
 10
183.071563
 20
104.878047
 30
0.0
 10
183.927239
 20
104.878047
 30
0.0
 10
184.621046
 20
105.571435
 30
0.0
 10
184.621562
 20
106.427111
 30
0.0
  0
LINE
  5
243
100
AcDbEntity
  8
Layer_1
 62
7
100
AcDbLine
 10
184.621562
 20
106.427111
 30
0.0
 11
184.621562
 21
107.427109
 31
0.0
  0
SPLINE
  5
244
100
AcDbEntity
  8
Layer_1
 62
7
100
AcDbSpline
 70
8
 71
3
 72
8
 73
4
 74
0
 40
0
 40
0
 40
0
 40
0
 40
1
 40
1
 40
1
 40
1
 10
184.621562
 20
107.427109
 30
0.0
 10
184.621046
 20
108.282785
 30
0.0
 10
183.927239
 20
108.976174
 30
0.0
 10
183.071563
 20
108.976174
 30
0.0
  0
SPLINE
  5
245
100
AcDbEntity
  8
Layer_1
 62
7
100
AcDbSpline
 70
8
 71
3
 72
8
 73
4
 74
0
 40
0
 40
0
 40
0
 40
0
 40
1
 40
1
 40
1
 40
1
 10
183.071563
 20
108.976174
 30
0.0
 10
182.215886
 20
108.976174
 30
0.0
 10
181.522079
 20
108.282785
 30
0.0
 10
181.521563
 20
107.427109
 30
0.0
  0
LINE
  5
246
100
AcDbEntity
  8
Layer_1
 62
7
100
AcDbLine
 10
181.521563
 20
107.427109
 30
0.0
 11
181.521563
 21
106.427111
 31
0.0
  0
SPLINE
  5
247
100
AcDbEntity
  8
Layer_1
 62
7
100
AcDbSpline
 70
8
 71
3
 72
8
 73
4
 74
0
 40
0
 40
0
 40
0
 40
0
 40
1
 40
1
 40
1
 40
1
 10
184.621562
 20
122.427110
 30
0.0
 10
184.621046
 20
123.282786
 30
0.0
 10
183.927239
 20
123.976175
 30
0.0
 10
183.071563
 20
123.976175
 30
0.0
  0
SPLINE
  5
248
100
AcDbEntity
  8
Layer_1
 62
7
100
AcDbSpline
 70
8
 71
3
 72
8
 73
4
 74
0
 40
0
 40
0
 40
0
 40
0
 40
1
 40
1
 40
1
 40
1
 10
183.071563
 20
123.976175
 30
0.0
 10
182.215886
 20
123.976175
 30
0.0
 10
181.522079
 20
123.282786
 30
0.0
 10
181.521563
 20
122.427110
 30
0.0
  0
LINE
  5
249
100
AcDbEntity
  8
Layer_1
 62
7
100
AcDbLine
 10
181.521563
 20
122.427110
 30
0.0
 11
181.521563
 21
121.427110
 31
0.0
  0
SPLINE
  5
24a
100
AcDbEntity
  8
Layer_1
 62
7
100
AcDbSpline
 70
8
 71
3
 72
8
 73
4
 74
0
 40
0
 40
0
 40
0
 40
0
 40
1
 40
1
 40
1
 40
1
 10
181.521563
 20
121.427110
 30
0.0
 10
181.522079
 20
120.571434
 30
0.0
 10
182.215886
 20
119.878045
 30
0.0
 10
183.071563
 20
119.878045
 30
0.0
  0
SPLINE
  5
24b
100
AcDbEntity
  8
Layer_1
 62
7
100
AcDbSpline
 70
8
 71
3
 72
8
 73
4
 74
0
 40
0
 40
0
 40
0
 40
0
 40
1
 40
1
 40
1
 40
1
 10
183.071563
 20
119.878045
 30
0.0
 10
183.927239
 20
119.878045
 30
0.0
 10
184.621046
 20
120.571434
 30
0.0
 10
184.621562
 20
121.427110
 30
0.0
  0
LINE
  5
24c
100
AcDbEntity
  8
Layer_1
 62
7
100
AcDbLine
 10
184.621562
 20
121.427110
 30
0.0
 11
184.621562
 21
122.427110
 31
0.0
  0
SPLINE
  5
24d
100
AcDbEntity
  8
Layer_1
 62
7
100
AcDbSpline
 70
8
 71
3
 72
8
 73
4
 74
0
 40
0
 40
0
 40
0
 40
0
 40
1
 40
1
 40
1
 40
1
 10
205.521563
 20
166.427121
 30
0.0
 10
205.522079
 20
165.571445
 30
0.0
 10
206.215886
 20
164.878057
 30
0.0
 10
207.071563
 20
164.878057
 30
0.0
  0
SPLINE
  5
24e
100
AcDbEntity
  8
Layer_1
 62
7
100
AcDbSpline
 70
8
 71
3
 72
8
 73
4
 74
0
 40
0
 40
0
 40
0
 40
0
 40
1
 40
1
 40
1
 40
1
 10
207.071563
 20
164.878057
 30
0.0
 10
207.927239
 20
164.878057
 30
0.0
 10
208.621046
 20
165.571445
 30
0.0
 10
208.621562
 20
166.427121
 30
0.0
  0
LINE
  5
24f
100
AcDbEntity
  8
Layer_1
 62
7
100
AcDbLine
 10
208.621562
 20
166.427121
 30
0.0
 11
208.621562
 21
167.427119
 31
0.0
  0
SPLINE
  5
250
100
AcDbEntity
  8
Layer_1
 62
7
100
AcDbSpline
 70
8
 71
3
 72
8
 73
4
 74
0
 40
0
 40
0
 40
0
 40
0
 40
1
 40
1
 40
1
 40
1
 10
208.621562
 20
167.427119
 30
0.0
 10
208.621046
 20
168.282795
 30
0.0
 10
207.927239
 20
168.976184
 30
0.0
 10
207.071563
 20
168.976184
 30
0.0
  0
SPLINE
  5
251
100
AcDbEntity
  8
Layer_1
 62
7
100
AcDbSpline
 70
8
 71
3
 72
8
 73
4
 74
0
 40
0
 40
0
 40
0
 40
0
 40
1
 40
1
 40
1
 40
1
 10
207.071563
 20
168.976184
 30
0.0
 10
206.215886
 20
168.976184
 30
0.0
 10
205.522079
 20
168.282795
 30
0.0
 10
205.521563
 20
167.427119
 30
0.0
  0
LINE
  5
252
100
AcDbEntity
  8
Layer_1
 62
7
100
AcDbLine
 10
205.521563
 20
167.427119
 30
0.0
 11
205.521563
 21
166.427121
 31
0.0
  0
SPLINE
  5
253
100
AcDbEntity
  8
Layer_1
 62
7
100
AcDbSpline
 70
8
 71
3
 72
8
 73
4
 74
0
 40
0
 40
0
 40
0
 40
0
 40
1
 40
1
 40
1
 40
1
 10
208.621562
 20
182.427117
 30
0.0
 10
208.621046
 20
183.282793
 30
0.0
 10
207.927239
 20
183.976182
 30
0.0
 10
207.071563
 20
183.976182
 30
0.0
  0
SPLINE
  5
254
100
AcDbEntity
  8
Layer_1
 62
7
100
AcDbSpline
 70
8
 71
3
 72
8
 73
4
 74
0
 40
0
 40
0
 40
0
 40
0
 40
1
 40
1
 40
1
 40
1
 10
207.071563
 20
183.976182
 30
0.0
 10
206.215886
 20
183.976182
 30
0.0
 10
205.522079
 20
183.282793
 30
0.0
 10
205.521563
 20
182.427117
 30
0.0
  0
LINE
  5
255
100
AcDbEntity
  8
Layer_1
 62
7
100
AcDbLine
 10
205.521563
 20
182.427117
 30
0.0
 11
205.521563
 21
181.427119
 31
0.0
  0
SPLINE
  5
256
100
AcDbEntity
  8
Layer_1
 62
7
100
AcDbSpline
 70
8
 71
3
 72
8
 73
4
 74
0
 40
0
 40
0
 40
0
 40
0
 40
1
 40
1
 40
1
 40
1
 10
205.521563
 20
181.427119
 30
0.0
 10
205.522079
 20
180.571443
 30
0.0
 10
206.215886
 20
179.878055
 30
0.0
 10
207.071563
 20
179.878055
 30
0.0
  0
SPLINE
  5
257
100
AcDbEntity
  8
Layer_1
 62
7
100
AcDbSpline
 70
8
 71
3
 72
8
 73
4
 74
0
 40
0
 40
0
 40
0
 40
0
 40
1
 40
1
 40
1
 40
1
 10
207.071563
 20
179.878055
 30
0.0
 10
207.927239
 20
179.878055
 30
0.0
 10
208.621046
 20
180.571443
 30
0.0
 10
208.621562
 20
181.427119
 30
0.0
  0
LINE
  5
258
100
AcDbEntity
  8
Layer_1
 62
7
100
AcDbLine
 10
208.621562
 20
181.427119
 30
0.0
 11
208.621562
 21
182.427117
 31
0.0
  0
SPLINE
  5
259
100
AcDbEntity
  8
Layer_1
 62
7
100
AcDbSpline
 70
8
 71
3
 72
8
 73
4
 74
0
 40
0
 40
0
 40
0
 40
0
 40
1
 40
1
 40
1
 40
1
 10
184.621562
 20
182.427117
 30
0.0
 10
184.621046
 20
183.282793
 30
0.0
 10
183.927239
 20
183.976182
 30
0.0
 10
183.071563
 20
183.976182
 30
0.0
  0
SPLINE
  5
25a
100
AcDbEntity
  8
Layer_1
 62
7
100
AcDbSpline
 70
8
 71
3
 72
8
 73
4
 74
0
 40
0
 40
0
 40
0
 40
0
 40
1
 40
1
 40
1
 40
1
 10
183.071563
 20
183.976182
 30
0.0
 10
182.215886
 20
183.976182
 30
0.0
 10
181.522079
 20
183.282793
 30
0.0
 10
181.521563
 20
182.427117
 30
0.0
  0
LINE
  5
25b
100
AcDbEntity
  8
Layer_1
 62
7
100
AcDbLine
 10
181.521563
 20
182.427117
 30
0.0
 11
181.521563
 21
181.427119
 31
0.0
  0
SPLINE
  5
25c
100
AcDbEntity
  8
Layer_1
 62
7
100
AcDbSpline
 70
8
 71
3
 72
8
 73
4
 74
0
 40
0
 40
0
 40
0
 40
0
 40
1
 40
1
 40
1
 40
1
 10
181.521563
 20
181.427119
 30
0.0
 10
181.522079
 20
180.571443
 30
0.0
 10
182.215886
 20
179.878055
 30
0.0
 10
183.071563
 20
179.878055
 30
0.0
  0
SPLINE
  5
25d
100
AcDbEntity
  8
Layer_1
 62
7
100
AcDbSpline
 70
8
 71
3
 72
8
 73
4
 74
0
 40
0
 40
0
 40
0
 40
0
 40
1
 40
1
 40
1
 40
1
 10
183.071563
 20
179.878055
 30
0.0
 10
183.927239
 20
179.878055
 30
0.0
 10
184.621046
 20
180.571443
 30
0.0
 10
184.621562
 20
181.427119
 30
0.0
  0
LINE
  5
25e
100
AcDbEntity
  8
Layer_1
 62
7
100
AcDbLine
 10
184.621562
 20
181.427119
 30
0.0
 11
184.621562
 21
182.427117
 31
0.0
  0
SPLINE
  5
25f
100
AcDbEntity
  8
Layer_1
 62
7
100
AcDbSpline
 70
8
 71
3
 72
8
 73
4
 74
0
 40
0
 40
0
 40
0
 40
0
 40
1
 40
1
 40
1
 40
1
 10
181.521563
 20
166.427121
 30
0.0
 10
181.522079
 20
165.571445
 30
0.0
 10
182.215886
 20
164.878057
 30
0.0
 10
183.071563
 20
164.878057
 30
0.0
  0
SPLINE
  5
260
100
AcDbEntity
  8
Layer_1
 62
7
100
AcDbSpline
 70
8
 71
3
 72
8
 73
4
 74
0
 40
0
 40
0
 40
0
 40
0
 40
1
 40
1
 40
1
 40
1
 10
183.071563
 20
164.878057
 30
0.0
 10
183.927239
 20
164.878057
 30
0.0
 10
184.621046
 20
165.571445
 30
0.0
 10
184.621562
 20
166.427121
 30
0.0
  0
LINE
  5
261
100
AcDbEntity
  8
Layer_1
 62
7
100
AcDbLine
 10
184.621562
 20
166.427121
 30
0.0
 11
184.621562
 21
167.427119
 31
0.0
  0
SPLINE
  5
262
100
AcDbEntity
  8
Layer_1
 62
7
100
AcDbSpline
 70
8
 71
3
 72
8
 73
4
 74
0
 40
0
 40
0
 40
0
 40
0
 40
1
 40
1
 40
1
 40
1
 10
184.621562
 20
167.427119
 30
0.0
 10
184.621046
 20
168.282795
 30
0.0
 10
183.927239
 20
168.976184
 30
0.0
 10
183.071563
 20
168.976184
 30
0.0
  0
SPLINE
  5
263
100
AcDbEntity
  8
Layer_1
 62
7
100
AcDbSpline
 70
8
 71
3
 72
8
 73
4
 74
0
 40
0
 40
0
 40
0
 40
0
 40
1
 40
1
 40
1
 40
1
 10
183.071563
 20
168.976184
 30
0.0
 10
182.215886
 20
168.976184
 30
0.0
 10
181.522079
 20
168.282795
 30
0.0
 10
181.521563
 20
167.427119
 30
0.0
  0
LINE
  5
264
100
AcDbEntity
  8
Layer_1
 62
7
100
AcDbLine
 10
181.521563
 20
167.427119
 30
0.0
 11
181.521563
 21
166.427121
 31
0.0
  0
SPLINE
  5
265
100
AcDbEntity
  8
Layer_1
 62
7
100
AcDbSpline
 70
8
 71
3
 72
8
 73
4
 74
0
 40
0
 40
0
 40
0
 40
0
 40
1
 40
1
 40
1
 40
1
 10
83.659946
 20
249.326117
 30
0.0
 10
83.659946
 20
249.879879
 30
0.0
 10
83.364518
 20
250.391577
 30
0.0
 10
82.884946
 20
250.668458
 30
0.0
  0
SPLINE
  5
266
100
AcDbEntity
  8
Layer_1
 62
7
100
AcDbSpline
 70
8
 71
3
 72
8
 73
4
 74
0
 40
0
 40
0
 40
0
 40
0
 40
1
 40
1
 40
1
 40
1
 10
82.884946
 20
250.668458
 30
0.0
 10
82.405374
 20
250.945339
 30
0.0
 10
81.814516
 20
250.945339
 30
0.0
 10
81.334944
 20
250.668458
 30
0.0
  0
SPLINE
  5
267
100
AcDbEntity
  8
Layer_1
 62
7
100
AcDbSpline
 70
8
 71
3
 72
8
 73
4
 74
0
 40
0
 40
0
 40
0
 40
0
 40
1
 40
1
 40
1
 40
1
 10
81.334944
 20
250.668458
 30
0.0
 10
80.855372
 20
250.391577
 30
0.0
 10
80.559944
 20
249.879879
 30
0.0
 10
80.559944
 20
249.326117
 30
0.0
  0
SPLINE
  5
268
100
AcDbEntity
  8
Layer_1
 62
7
100
AcDbSpline
 70
8
 71
3
 72
8
 73
4
 74
0
 40
0
 40
0
 40
0
 40
0
 40
1
 40
1
 40
1
 40
1
 10
80.559944
 20
249.326117
 30
0.0
 10
80.559944
 20
248.772355
 30
0.0
 10
80.855372
 20
248.260658
 30
0.0
 10
81.334944
 20
247.983777
 30
0.0
  0
SPLINE
  5
269
100
AcDbEntity
  8
Layer_1
 62
7
100
AcDbSpline
 70
8
 71
3
 72
8
 73
4
 74
0
 40
0
 40
0
 40
0
 40
0
 40
1
 40
1
 40
1
 40
1
 10
81.334944
 20
247.983777
 30
0.0
 10
81.814516
 20
247.706896
 30
0.0
 10
82.405374
 20
247.706896
 30
0.0
 10
82.884946
 20
247.983777
 30
0.0
  0
SPLINE
  5
26a
100
AcDbEntity
  8
Layer_1
 62
7
100
AcDbSpline
 70
8
 71
3
 72
8
 73
4
 74
0
 40
0
 40
0
 40
0
 40
0
 40
1
 40
1
 40
1
 40
1
 10
82.884946
 20
247.983777
 30
0.0
 10
83.364518
 20
248.260658
 30
0.0
 10
83.659946
 20
248.772355
 30
0.0
 10
83.659946
 20
249.326117
 30
0.0
  0
LINE
  5
26b
100
AcDbEntity
  8
Layer_1
 62
7
100
AcDbLine
 10
83.659946
 20
249.326117
 30
0.0
 11
83.659946
 21
249.326117
 31
0.0
  0
LINE
  5
26c
100
AcDbEntity
  8
Layer_1
 62
7
100
AcDbLine
 10
62.109945
 20
244.426119
 30
0.0
 11
82.109945
 21
244.426119
 31
0.0
  0
SPLINE
  5
26d
100
AcDbEntity
  8
Layer_1
 62
7
100
AcDbSpline
 70
8
 71
3
 72
8
 73
4
 74
0
 40
0
 40
0
 40
0
 40
0
 40
1
 40
1
 40
1
 40
1
 10
62.109945
 20
254.226116
 30
0.0
 10
59.405203
 20
254.224063
 30
0.0
 10
57.213664
 20
252.030860
 30
0.0
 10
57.213664
 20
249.326117
 30
0.0
  0
SPLINE
  5
26e
100
AcDbEntity
  8
Layer_1
 62
7
100
AcDbSpline
 70
8
 71
3
 72
8
 73
4
 74
0
 40
0
 40
0
 40
0
 40
0
 40
1
 40
1
 40
1
 40
1
 10
57.213664
 20
249.326117
 30
0.0
 10
57.213664
 20
246.621374
 30
0.0
 10
59.405203
 20
244.428171
 30
0.0
 10
62.109945
 20
244.426119
 30
0.0
  0
LINE
  5
26f
100
AcDbEntity
  8
Layer_1
 62
7
100
AcDbLine
 10
82.109945
 20
254.226116
 30
0.0
 11
62.109945
 21
254.226116
 31
0.0
  0
SPLINE
  5
270
100
AcDbEntity
  8
Layer_1
 62
7
100
AcDbSpline
 70
8
 71
3
 72
8
 73
4
 74
0
 40
0
 40
0
 40
0
 40
0
 40
1
 40
1
 40
1
 40
1
 10
82.109945
 20
244.426119
 30
0.0
 10
84.814687
 20
244.428171
 30
0.0
 10
87.006226
 20
246.621374
 30
0.0
 10
87.006226
 20
249.326117
 30
0.0
  0
SPLINE
  5
271
100
AcDbEntity
  8
Layer_1
 62
7
100
AcDbSpline
 70
8
 71
3
 72
8
 73
4
 74
0
 40
0
 40
0
 40
0
 40
0
 40
1
 40
1
 40
1
 40
1
 10
87.006226
 20
249.326117
 30
0.0
 10
87.006226
 20
252.030860
 30
0.0
 10
84.814687
 20
254.224063
 30
0.0
 10
82.109945
 20
254.226116
 30
0.0
  0
SPLINE
  5
272
100
AcDbEntity
  8
Layer_1
 62
7
100
AcDbSpline
 70
8
 71
3
 72
8
 73
4
 74
0
 40
0
 40
0
 40
0
 40
0
 40
1
 40
1
 40
1
 40
1
 10
63.659944
 20
249.326117
 30
0.0
 10
63.660278
 20
249.880102
 30
0.0
 10
63.364923
 20
250.392147
 30
0.0
 10
62.885214
 20
250.669236
 30
0.0
  0
SPLINE
  5
273
100
AcDbEntity
  8
Layer_1
 62
7
100
AcDbSpline
 70
8
 71
3
 72
8
 73
4
 74
0
 40
0
 40
0
 40
0
 40
0
 40
1
 40
1
 40
1
 40
1
 10
62.885214
 20
250.669236
 30
0.0
 10
62.405505
 20
250.946325
 30
0.0
 10
61.814383
 20
250.946325
 30
0.0
 10
61.334674
 20
250.669236
 30
0.0
  0
SPLINE
  5
274
100
AcDbEntity
  8
Layer_1
 62
7
100
AcDbSpline
 70
8
 71
3
 72
8
 73
4
 74
0
 40
0
 40
0
 40
0
 40
0
 40
1
 40
1
 40
1
 40
1
 10
61.334674
 20
250.669236
 30
0.0
 10
60.854965
 20
250.392147
 30
0.0
 10
60.559610
 20
249.880102
 30
0.0
 10
60.559944
 20
249.326117
 30
0.0
  0
SPLINE
  5
275
100
AcDbEntity
  8
Layer_1
 62
7
100
AcDbSpline
 70
8
 71
3
 72
8
 73
4
 74
0
 40
0
 40
0
 40
0
 40
0
 40
1
 40
1
 40
1
 40
1
 10
60.559944
 20
249.326117
 30
0.0
 10
60.559610
 20
248.772133
 30
0.0
 10
60.854965
 20
248.260087
 30
0.0
 10
61.334674
 20
247.982998
 30
0.0
  0
SPLINE
  5
276
100
AcDbEntity
  8
Layer_1
 62
7
100
AcDbSpline
 70
8
 71
3
 72
8
 73
4
 74
0
 40
0
 40
0
 40
0
 40
0
 40
1
 40
1
 40
1
 40
1
 10
61.334674
 20
247.982998
 30
0.0
 10
61.814383
 20
247.705910
 30
0.0
 10
62.405505
 20
247.705910
 30
0.0
 10
62.885214
 20
247.982998
 30
0.0
  0
SPLINE
  5
277
100
AcDbEntity
  8
Layer_1
 62
7
100
AcDbSpline
 70
8
 71
3
 72
8
 73
4
 74
0
 40
0
 40
0
 40
0
 40
0
 40
1
 40
1
 40
1
 40
1
 10
62.885214
 20
247.982998
 30
0.0
 10
63.364923
 20
248.260087
 30
0.0
 10
63.660278
 20
248.772133
 30
0.0
 10
63.659944
 20
249.326117
 30
0.0
  0
LINE
  5
278
100
AcDbEntity
  8
Layer_1
 62
7
100
AcDbLine
 10
63.659944
 20
249.326117
 30
0.0
 11
63.659944
 21
249.326117
 31
0.0
  0
SPLINE
  5
279
100
AcDbEntity
  8
Layer_1
 62
7
100
AcDbSpline
 70
8
 71
3
 72
8
 73
4
 74
0
 40
0
 40
0
 40
0
 40
0
 40
1
 40
1
 40
1
 40
1
 10
14.970562
 20
184.583518
 30
0.0
 10
14.416578
 20
184.583852
 30
0.0
 10
13.904532
 20
184.288497
 30
0.0
 10
13.627444
 20
183.808788
 30
0.0
  0
SPLINE
  5
27a
100
AcDbEntity
  8
Layer_1
 62
7
100
AcDbSpline
 70
8
 71
3
 72
8
 73
4
 74
0
 40
0
 40
0
 40
0
 40
0
 40
1
 40
1
 40
1
 40
1
 10
13.627444
 20
183.808788
 30
0.0
 10
13.350355
 20
183.329080
 30
0.0
 10
13.350355
 20
182.737957
 30
0.0
 10
13.627444
 20
182.258248
 30
0.0
  0
SPLINE
  5
27b
100
AcDbEntity
  8
Layer_1
 62
7
100
AcDbSpline
 70
8
 71
3
 72
8
 73
4
 74
0
 40
0
 40
0
 40
0
 40
0
 40
1
 40
1
 40
1
 40
1
 10
13.627444
 20
182.258248
 30
0.0
 10
13.904532
 20
181.778540
 30
0.0
 10
14.416578
 20
181.483184
 30
0.0
 10
14.970562
 20
181.483519
 30
0.0
  0
SPLINE
  5
27c
100
AcDbEntity
  8
Layer_1
 62
7
100
AcDbSpline
 70
8
 71
3
 72
8
 73
4
 74
0
 40
0
 40
0
 40
0
 40
0
 40
1
 40
1
 40
1
 40
1
 10
14.970562
 20
181.483519
 30
0.0
 10
15.524547
 20
181.483184
 30
0.0
 10
16.036593
 20
181.778540
 30
0.0
 10
16.313681
 20
182.258248
 30
0.0
  0
SPLINE
  5
27d
100
AcDbEntity
  8
Layer_1
 62
7
100
AcDbSpline
 70
8
 71
3
 72
8
 73
4
 74
0
 40
0
 40
0
 40
0
 40
0
 40
1
 40
1
 40
1
 40
1
 10
16.313681
 20
182.258248
 30
0.0
 10
16.590770
 20
182.737957
 30
0.0
 10
16.590770
 20
183.329080
 30
0.0
 10
16.313681
 20
183.808788
 30
0.0
  0
SPLINE
  5
27e
100
AcDbEntity
  8
Layer_1
 62
7
100
AcDbSpline
 70
8
 71
3
 72
8
 73
4
 74
0
 40
0
 40
0
 40
0
 40
0
 40
1
 40
1
 40
1
 40
1
 10
16.313681
 20
183.808788
 30
0.0
 10
16.036593
 20
184.288497
 30
0.0
 10
15.524547
 20
184.583852
 30
0.0
 10
14.970562
 20
184.583518
 30
0.0
  0
LINE
  5
27f
100
AcDbEntity
  8
Layer_1
 62
7
100
AcDbLine
 10
14.970562
 20
184.583518
 30
0.0
 11
14.970562
 21
184.583518
 31
0.0
  0
LINE
  5
280
100
AcDbEntity
  8
Layer_1
 62
7
100
AcDbLine
 10
19.870561
 20
163.033518
 30
0.0
 11
19.870561
 21
183.033517
 31
0.0
  0
SPLINE
  5
281
100
AcDbEntity
  8
Layer_1
 62
7
100
AcDbSpline
 70
8
 71
3
 72
8
 73
4
 74
0
 40
0
 40
0
 40
0
 40
0
 40
1
 40
1
 40
1
 40
1
 10
10.070564
 20
163.033518
 30
0.0
 10
10.072616
 20
160.328775
 30
0.0
 10
12.265819
 20
158.137236
 30
0.0
 10
14.970562
 20
158.137236
 30
0.0
  0
SPLINE
  5
282
100
AcDbEntity
  8
Layer_1
 62
7
100
AcDbSpline
 70
8
 71
3
 72
8
 73
4
 74
0
 40
0
 40
0
 40
0
 40
0
 40
1
 40
1
 40
1
 40
1
 10
14.970562
 20
158.137236
 30
0.0
 10
17.675306
 20
158.137236
 30
0.0
 10
19.868508
 20
160.328775
 30
0.0
 10
19.870561
 20
163.033518
 30
0.0
  0
LINE
  5
283
100
AcDbEntity
  8
Layer_1
 62
7
100
AcDbLine
 10
10.070564
 20
183.033517
 30
0.0
 11
10.070564
 21
163.033518
 31
0.0
  0
SPLINE
  5
284
100
AcDbEntity
  8
Layer_1
 62
7
100
AcDbSpline
 70
8
 71
3
 72
8
 73
4
 74
0
 40
0
 40
0
 40
0
 40
0
 40
1
 40
1
 40
1
 40
1
 10
19.870561
 20
183.033517
 30
0.0
 10
19.868508
 20
185.738259
 30
0.0
 10
17.675306
 20
187.929798
 30
0.0
 10
14.970562
 20
187.929798
 30
0.0
  0
SPLINE
  5
285
100
AcDbEntity
  8
Layer_1
 62
7
100
AcDbSpline
 70
8
 71
3
 72
8
 73
4
 74
0
 40
0
 40
0
 40
0
 40
0
 40
1
 40
1
 40
1
 40
1
 10
14.970562
 20
187.929798
 30
0.0
 10
12.265819
 20
187.929798
 30
0.0
 10
10.072616
 20
185.738259
 30
0.0
 10
10.070564
 20
183.033517
 30
0.0
  0
SPLINE
  5
286
100
AcDbEntity
  8
Layer_1
 62
7
100
AcDbSpline
 70
8
 71
3
 72
8
 73
4
 74
0
 40
0
 40
0
 40
0
 40
0
 40
1
 40
1
 40
1
 40
1
 10
14.970562
 20
164.583519
 30
0.0
 10
14.416800
 20
164.583519
 30
0.0
 10
13.905103
 20
164.288090
 30
0.0
 10
13.628222
 20
163.808518
 30
0.0
  0
SPLINE
  5
287
100
AcDbEntity
  8
Layer_1
 62
7
100
AcDbSpline
 70
8
 71
3
 72
8
 73
4
 74
0
 40
0
 40
0
 40
0
 40
0
 40
1
 40
1
 40
1
 40
1
 10
13.628222
 20
163.808518
 30
0.0
 10
13.351341
 20
163.328946
 30
0.0
 10
13.351341
 20
162.738089
 30
0.0
 10
13.628222
 20
162.258517
 30
0.0
  0
SPLINE
  5
288
100
AcDbEntity
  8
Layer_1
 62
7
100
AcDbSpline
 70
8
 71
3
 72
8
 73
4
 74
0
 40
0
 40
0
 40
0
 40
0
 40
1
 40
1
 40
1
 40
1
 10
13.628222
 20
162.258517
 30
0.0
 10
13.905103
 20
161.778945
 30
0.0
 10
14.416800
 20
161.483516
 30
0.0
 10
14.970562
 20
161.483516
 30
0.0
  0
SPLINE
  5
289
100
AcDbEntity
  8
Layer_1
 62
7
100
AcDbSpline
 70
8
 71
3
 72
8
 73
4
 74
0
 40
0
 40
0
 40
0
 40
0
 40
1
 40
1
 40
1
 40
1
 10
14.970562
 20
161.483516
 30
0.0
 10
15.524325
 20
161.483516
 30
0.0
 10
16.036022
 20
161.778945
 30
0.0
 10
16.312903
 20
162.258517
 30
0.0
  0
SPLINE
  5
28a
100
AcDbEntity
  8
Layer_1
 62
7
100
AcDbSpline
 70
8
 71
3
 72
8
 73
4
 74
0
 40
0
 40
0
 40
0
 40
0
 40
1
 40
1
 40
1
 40
1
 10
16.312903
 20
162.258517
 30
0.0
 10
16.589784
 20
162.738089
 30
0.0
 10
16.589784
 20
163.328946
 30
0.0
 10
16.312903
 20
163.808518
 30
0.0
  0
SPLINE
  5
28b
100
AcDbEntity
  8
Layer_1
 62
7
100
AcDbSpline
 70
8
 71
3
 72
8
 73
4
 74
0
 40
0
 40
0
 40
0
 40
0
 40
1
 40
1
 40
1
 40
1
 10
16.312903
 20
163.808518
 30
0.0
 10
16.036022
 20
164.288090
 30
0.0
 10
15.524325
 20
164.583519
 30
0.0
 10
14.970562
 20
164.583519
 30
0.0
  0
LINE
  5
28c
100
AcDbEntity
  8
Layer_1
 62
7
100
AcDbLine
 10
14.970562
 20
164.583519
 30
0.0
 11
14.970562
 21
164.583519
 31
0.0
  0
SPLINE
  5
28d
100
AcDbEntity
  8
Layer_1
 62
7
100
AcDbSpline
 70
8
 71
3
 72
8
 73
4
 74
0
 40
0
 40
0
 40
0
 40
0
 40
1
 40
1
 40
1
 40
1
 10
59.878333
 20
120.579543
 30
0.0
 10
59.878667
 20
121.133527
 30
0.0
 10
59.583312
 20
121.645573
 30
0.0
 10
59.103603
 20
121.922661
 30
0.0
  0
SPLINE
  5
28e
100
AcDbEntity
  8
Layer_1
 62
7
100
AcDbSpline
 70
8
 71
3
 72
8
 73
4
 74
0
 40
0
 40
0
 40
0
 40
0
 40
1
 40
1
 40
1
 40
1
 10
59.103603
 20
121.922661
 30
0.0
 10
58.623894
 20
122.199750
 30
0.0
 10
58.032772
 20
122.199750
 30
0.0
 10
57.553063
 20
121.922661
 30
0.0
  0
SPLINE
  5
28f
100
AcDbEntity
  8
Layer_1
 62
7
100
AcDbSpline
 70
8
 71
3
 72
8
 73
4
 74
0
 40
0
 40
0
 40
0
 40
0
 40
1
 40
1
 40
1
 40
1
 10
57.553063
 20
121.922661
 30
0.0
 10
57.073354
 20
121.645573
 30
0.0
 10
56.777999
 20
121.133527
 30
0.0
 10
56.778333
 20
120.579543
 30
0.0
  0
SPLINE
  5
290
100
AcDbEntity
  8
Layer_1
 62
7
100
AcDbSpline
 70
8
 71
3
 72
8
 73
4
 74
0
 40
0
 40
0
 40
0
 40
0
 40
1
 40
1
 40
1
 40
1
 10
56.778333
 20
120.579543
 30
0.0
 10
56.777999
 20
120.025558
 30
0.0
 10
57.073354
 20
119.513513
 30
0.0
 10
57.553063
 20
119.236424
 30
0.0
  0
SPLINE
  5
291
100
AcDbEntity
  8
Layer_1
 62
7
100
AcDbSpline
 70
8
 71
3
 72
8
 73
4
 74
0
 40
0
 40
0
 40
0
 40
0
 40
1
 40
1
 40
1
 40
1
 10
57.553063
 20
119.236424
 30
0.0
 10
58.032772
 20
118.959335
 30
0.0
 10
58.623894
 20
118.959335
 30
0.0
 10
59.103603
 20
119.236424
 30
0.0
  0
SPLINE
  5
292
100
AcDbEntity
  8
Layer_1
 62
7
100
AcDbSpline
 70
8
 71
3
 72
8
 73
4
 74
0
 40
0
 40
0
 40
0
 40
0
 40
1
 40
1
 40
1
 40
1
 10
59.103603
 20
119.236424
 30
0.0
 10
59.583312
 20
119.513513
 30
0.0
 10
59.878667
 20
120.025558
 30
0.0
 10
59.878333
 20
120.579543
 30
0.0
  0
LINE
  5
293
100
AcDbEntity
  8
Layer_1
 62
7
100
AcDbLine
 10
59.878333
 20
120.579543
 30
0.0
 11
59.878333
 21
120.579543
 31
0.0
  0
ENDSEC
  0
SECTION
  2
OBJECTS
  0
DICTIONARY
  5
C
330
0
100
AcDbDictionary
  3
ACAD_GROUP
350
D
  3
ACAD_MLINESTYLE
350
17
  0
DICTIONARY
  5
D
330
C
100
AcDbDictionary
  0
DICTIONARY
  5
1A
330
C
100
AcDbDictionary
  0
DICTIONARY
  5
17
330
C
100
AcDbDictionary
  3
STANDARD
350
18
  0
DICTIONARY
  5
19
330
C
100
AcDbDictionary
  0
ENDSEC
  0
EOF
