  0
SECTION
  2
HEADER
  9
$ACADVER
  1
AC1014
  9
$HANDSEED
  5
FFFF
  9
$MEASUREMENT
 70
     1
  0
ENDSEC
  0
SECTION
  2
TABLES
  0
TABLE
  2
VPORT
  5
8
330
0
100
AcDbSymbolTable
 70
     4
  0
VPORT
  5
2E
330
8
100
AcDbSymbolTableRecord
100
AcDbViewportTableRecord
  2
*ACTIVE
 70
     0
 10
0.0
 20
0.0
 11
1.0
 21
1.0
 12
210.0
 22
148.5
 13
0.0
 23
0.0
 14
10.0
 24
10.0
 15
10.0
 25
10.0
 16
0.0
 26
0.0
 36
1.0
 17
0.0
 27
0.0
 37
0.0
 40
341.0
 41
1.24
 42
50.0
 43
0.0
 44
0.0
 50
0.0
 51
0.0
 71
     0
 72
   100
 73
     1
 74
     3
 75
     0
 76
     0
 77
     0
 78
     0
  0
ENDTAB
  0
TABLE
  2
LTYPE
  5
5
330
0
100
AcDbSymbolTable
 70
     1
  0
LTYPE
  5
14
330
5
100
AcDbSymbolTableRecord
100
AcDbLinetypeTableRecord
  2
BYBLOCK
 70
     0
  3

 72
    65
 73
     0
 40
0.0
  0
LTYPE
  5
15
330
5
100
AcDbSymbolTableRecord
100
AcDbLinetypeTableRecord
  2
BYLAYER
 70
     0
  3

 72
    65
 73
     0
 40
0.0
  0
LTYPE
  5
16
330
5
100
AcDbSymbolTableRecord
100
AcDbLinetypeTableRecord
  2
CONTINUOUS
 70
     0
  3
Solid line
 72
    65
 73
     0
 40
0.0
  0
ENDTAB
  0
TABLE
  2
LAYER
  5
2
100
AcDbSymbolTable
 70
2
  0
LAYER
  5
50
100
AcDbSymbolTableRecord
100
AcDbLayerTableRecord
  2
0
 70
0
  6
CONTINUOUS
  0
LAYER
  5
51
100
AcDbSymbolTableRecord
100
AcDbLayerTableRecord
  2
frame-thin-parts3
 70
0
  6
CONTINUOUS
  0
ENDTAB
  0
TABLE
  2
STYLE
  5
3
330
0
100
AcDbSymbolTable
 70
     1
  0
STYLE
  5
11
330
3
100
AcDbSymbolTableRecord
100
AcDbTextStyleTableRecord
  2
STANDARD
 70
     0
 40
0.0
 41
1.0
 50
0.0
 71
     0
 42
2.5
  3
txt
  4

  0
ENDTAB
  0
TABLE
  2
VIEW
  5
6
330
0
100
AcDbSymbolTable
 70
     0
  0
ENDTAB
  0
TABLE
  2
UCS
  5
7
330
0
100
AcDbSymbolTable
 70
     0
  0
ENDTAB
  0
TABLE
  2
APPID
  5
9
330
0
100
AcDbSymbolTable
 70
     2
  0
APPID
  5
12
330
9
100
AcDbSymbolTableRecord
100
AcDbRegAppTableRecord
  2
ACAD
 70
     0
  0
ENDTAB
  0
TABLE
  2
DIMSTYLE
  5
A
330
0
100
AcDbSymbolTable
 70
     1
  0
DIMSTYLE
105
27
330
A
100
AcDbSymbolTableRecord
100
AcDbDimStyleTableRecord
  2
ISO-25
 70
     0
  3

  4

  5

  6

  7

 40
1.0
 41
2.5
 42
0.625
 43
3.75
 44
1.25
 45
0.0
 46
0.0
 47
0.0
 48
0.0
140
2.5
141
2.5
142
0.0
143
0.03937007874016
144
1.0
145
0.0
146
1.0
147
0.625
 71
     0
 72
     0
 73
     0
 74
     0
 75
     0
 76
     0
 77
     1
 78
     8
170
     0
171
     3
172
     1
173
     0
174
     0
175
     0
176
     0
177
     0
178
     0
270
     2
271
     2
272
     2
273
     2
274
     3
340
11
275
     0
280
     0
281
     0
282
     0
283
     0
284
     8
285
     0
286
     0
287
     3
288
     0
  0
ENDTAB
  0
TABLE
  2
BLOCK_RECORD
  5
1
330
0
100
AcDbSymbolTable
 70
     1
  0
BLOCK_RECORD
  5
1F
330
1
100
AcDbSymbolTableRecord
100
AcDbBlockTableRecord
  2
*MODEL_SPACE
  0
BLOCK_RECORD
  5
1B
330
1
100
AcDbSymbolTableRecord
100
AcDbBlockTableRecord
  2
*PAPER_SPACE
  0
ENDTAB
  0
ENDSEC
  0
SECTION
  2
BLOCKS
  0
BLOCK
  5
20
330
1F
100
AcDbEntity
  8
0
100
AcDbBlockBegin
  2
*MODEL_SPACE
 70
     0
 10
0.0
 20
0.0
 30
0.0
  3
*MODEL_SPACE
  1

  0
ENDBLK
  5
21
330
1F
100
AcDbEntity
  8
0
100
AcDbBlockEnd
  0
BLOCK
  5
1C
330
1B
100
AcDbEntity
 67
     1
  8
0
100
AcDbBlockBegin
  2
*PAPER_SPACE
  1

  0
ENDBLK
  5
1D
330
1B
100
AcDbEntity
 67
     1
  8
0
100
AcDbBlockEnd
  0
ENDSEC
  0
SECTION
  2
ENTITIES
  0
SPLINE
  5
100
100
AcDbEntity
  8
frame-thin-parts3
 62
1
100
AcDbSpline
 70
8
 71
3
 72
8
 73
4
 74
0
 40
0
 40
0
 40
0
 40
0
 40
1
 40
1
 40
1
 40
1
 10
13.900009
 20
125.501383
 30
0.0
 10
13.900009
 20
126.385092
 30
0.0
 10
14.616501
 20
127.101231
 30
0.0
 10
15.499856
 20
127.101231
 30
0.0
  0
SPLINE
  5
101
100
AcDbEntity
  8
frame-thin-parts3
 62
1
100
AcDbSpline
 70
8
 71
3
 72
8
 73
4
 74
0
 40
0
 40
0
 40
0
 40
0
 40
1
 40
1
 40
1
 40
1
 10
15.499856
 20
127.101231
 30
0.0
 10
16.383564
 20
127.101231
 30
0.0
 10
17.100056
 20
126.385092
 30
0.0
 10
17.100056
 20
125.501383
 30
0.0
  0
SPLINE
  5
102
100
AcDbEntity
  8
frame-thin-parts3
 62
1
100
AcDbSpline
 70
8
 71
3
 72
8
 73
4
 74
0
 40
0
 40
0
 40
0
 40
0
 40
1
 40
1
 40
1
 40
1
 10
17.100056
 20
125.501383
 30
0.0
 10
17.100056
 20
124.617675
 30
0.0
 10
16.383564
 20
123.901536
 30
0.0
 10
15.499856
 20
123.901536
 30
0.0
  0
SPLINE
  5
103
100
AcDbEntity
  8
frame-thin-parts3
 62
1
100
AcDbSpline
 70
8
 71
3
 72
8
 73
4
 74
0
 40
0
 40
0
 40
0
 40
0
 40
1
 40
1
 40
1
 40
1
 10
15.499856
 20
123.901536
 30
0.0
 10
14.616501
 20
123.901536
 30
0.0
 10
13.900009
 20
124.617675
 30
0.0
 10
13.900009
 20
125.501383
 30
0.0
  0
LINE
  5
104
100
AcDbEntity
  8
frame-thin-parts3
 62
1
100
AcDbLine
 10
13.900009
 20
125.501383
 30
0.0
 11
13.900009
 21
125.501383
 31
0.0
  0
SPLINE
  5
105
100
AcDbEntity
  8
frame-thin-parts3
 62
1
100
AcDbSpline
 70
8
 71
3
 72
8
 73
4
 74
0
 40
0
 40
0
 40
0
 40
0
 40
1
 40
1
 40
1
 40
1
 10
222.899993
 20
125.501383
 30
0.0
 10
222.899993
 20
126.385092
 30
0.0
 10
223.616485
 20
127.101231
 30
0.0
 10
224.499840
 20
127.101231
 30
0.0
  0
SPLINE
  5
106
100
AcDbEntity
  8
frame-thin-parts3
 62
1
100
AcDbSpline
 70
8
 71
3
 72
8
 73
4
 74
0
 40
0
 40
0
 40
0
 40
0
 40
1
 40
1
 40
1
 40
1
 10
224.499840
 20
127.101231
 30
0.0
 10
225.383549
 20
127.101231
 30
0.0
 10
226.100040
 20
126.385092
 30
0.0
 10
226.100040
 20
125.501383
 30
0.0
  0
SPLINE
  5
107
100
AcDbEntity
  8
frame-thin-parts3
 62
1
100
AcDbSpline
 70
8
 71
3
 72
8
 73
4
 74
0
 40
0
 40
0
 40
0
 40
0
 40
1
 40
1
 40
1
 40
1
 10
226.100040
 20
125.501383
 30
0.0
 10
226.100040
 20
124.617675
 30
0.0
 10
225.383549
 20
123.901536
 30
0.0
 10
224.499840
 20
123.901536
 30
0.0
  0
SPLINE
  5
108
100
AcDbEntity
  8
frame-thin-parts3
 62
1
100
AcDbSpline
 70
8
 71
3
 72
8
 73
4
 74
0
 40
0
 40
0
 40
0
 40
0
 40
1
 40
1
 40
1
 40
1
 10
224.499840
 20
123.901536
 30
0.0
 10
223.616485
 20
123.901536
 30
0.0
 10
222.899993
 20
124.617675
 30
0.0
 10
222.899993
 20
125.501383
 30
0.0
  0
LINE
  5
109
100
AcDbEntity
  8
frame-thin-parts3
 62
1
100
AcDbLine
 10
222.899993
 20
125.501383
 30
0.0
 11
222.899993
 21
125.501383
 31
0.0
  0
SPLINE
  5
10a
100
AcDbEntity
  8
frame-thin-parts3
 62
1
100
AcDbSpline
 70
8
 71
3
 72
8
 73
4
 74
0
 40
0
 40
0
 40
0
 40
0
 40
1
 40
1
 40
1
 40
1
 10
222.899993
 20
334.501403
 30
0.0
 10
222.899993
 20
335.385111
 30
0.0
 10
223.616485
 20
336.101250
 30
0.0
 10
224.499840
 20
336.101250
 30
0.0
  0
SPLINE
  5
10b
100
AcDbEntity
  8
frame-thin-parts3
 62
1
100
AcDbSpline
 70
8
 71
3
 72
8
 73
4
 74
0
 40
0
 40
0
 40
0
 40
0
 40
1
 40
1
 40
1
 40
1
 10
224.499840
 20
336.101250
 30
0.0
 10
225.383549
 20
336.101250
 30
0.0
 10
226.100040
 20
335.385111
 30
0.0
 10
226.100040
 20
334.501403
 30
0.0
  0
SPLINE
  5
10c
100
AcDbEntity
  8
frame-thin-parts3
 62
1
100
AcDbSpline
 70
8
 71
3
 72
8
 73
4
 74
0
 40
0
 40
0
 40
0
 40
0
 40
1
 40
1
 40
1
 40
1
 10
226.100040
 20
334.501403
 30
0.0
 10
226.100040
 20
333.617694
 30
0.0
 10
225.383549
 20
332.901556
 30
0.0
 10
224.499840
 20
332.901556
 30
0.0
  0
SPLINE
  5
10d
100
AcDbEntity
  8
frame-thin-parts3
 62
1
100
AcDbSpline
 70
8
 71
3
 72
8
 73
4
 74
0
 40
0
 40
0
 40
0
 40
0
 40
1
 40
1
 40
1
 40
1
 10
224.499840
 20
332.901556
 30
0.0
 10
223.616485
 20
332.901556
 30
0.0
 10
222.899993
 20
333.617694
 30
0.0
 10
222.899993
 20
334.501403
 30
0.0
  0
LINE
  5
10e
100
AcDbEntity
  8
frame-thin-parts3
 62
1
100
AcDbLine
 10
222.899993
 20
334.501403
 30
0.0
 11
222.899993
 21
334.501403
 31
0.0
  0
SPLINE
  5
10f
100
AcDbEntity
  8
frame-thin-parts3
 62
1
100
AcDbSpline
 70
8
 71
3
 72
8
 73
4
 74
0
 40
0
 40
0
 40
0
 40
0
 40
1
 40
1
 40
1
 40
1
 10
13.900009
 20
334.501403
 30
0.0
 10
13.900009
 20
335.385111
 30
0.0
 10
14.616501
 20
336.101250
 30
0.0
 10
15.499856
 20
336.101250
 30
0.0
  0
SPLINE
  5
110
100
AcDbEntity
  8
frame-thin-parts3
 62
1
100
AcDbSpline
 70
8
 71
3
 72
8
 73
4
 74
0
 40
0
 40
0
 40
0
 40
0
 40
1
 40
1
 40
1
 40
1
 10
15.499856
 20
336.101250
 30
0.0
 10
16.383564
 20
336.101250
 30
0.0
 10
17.100056
 20
335.385111
 30
0.0
 10
17.100056
 20
334.501403
 30
0.0
  0
SPLINE
  5
111
100
AcDbEntity
  8
frame-thin-parts3
 62
1
100
AcDbSpline
 70
8
 71
3
 72
8
 73
4
 74
0
 40
0
 40
0
 40
0
 40
0
 40
1
 40
1
 40
1
 40
1
 10
17.100056
 20
334.501403
 30
0.0
 10
17.100056
 20
333.617694
 30
0.0
 10
16.383564
 20
332.901556
 30
0.0
 10
15.499856
 20
332.901556
 30
0.0
  0
SPLINE
  5
112
100
AcDbEntity
  8
frame-thin-parts3
 62
1
100
AcDbSpline
 70
8
 71
3
 72
8
 73
4
 74
0
 40
0
 40
0
 40
0
 40
0
 40
1
 40
1
 40
1
 40
1
 10
15.499856
 20
332.901556
 30
0.0
 10
14.616501
 20
332.901556
 30
0.0
 10
13.900009
 20
333.617694
 30
0.0
 10
13.900009
 20
334.501403
 30
0.0
  0
LINE
  5
113
100
AcDbEntity
  8
frame-thin-parts3
 62
1
100
AcDbLine
 10
13.900009
 20
334.501403
 30
0.0
 11
13.900009
 21
334.501403
 31
0.0
  0
SPLINE
  5
114
100
AcDbEntity
  8
frame-thin-parts3
 62
1
100
AcDbSpline
 70
8
 71
3
 72
8
 73
4
 74
0
 40
0
 40
0
 40
0
 40
0
 40
1
 40
1
 40
1
 40
1
 10
118.399983
 20
190.001402
 30
0.0
 10
118.399983
 20
189.117694
 30
0.0
 10
119.116475
 20
188.401555
 30
0.0
 10
119.999831
 20
188.401555
 30
0.0
  0
SPLINE
  5
115
100
AcDbEntity
  8
frame-thin-parts3
 62
1
100
AcDbSpline
 70
8
 71
3
 72
8
 73
4
 74
0
 40
0
 40
0
 40
0
 40
0
 40
1
 40
1
 40
1
 40
1
 10
119.999831
 20
188.401555
 30
0.0
 10
120.883539
 20
188.401555
 30
0.0
 10
121.600031
 20
189.117694
 30
0.0
 10
121.600031
 20
190.001402
 30
0.0
  0
LINE
  5
116
100
AcDbEntity
  8
frame-thin-parts3
 62
1
100
AcDbLine
 10
118.399983
 20
195.001392
 30
0.0
 11
118.399983
 21
190.001473
 31
0.0
  0
SPLINE
  5
117
100
AcDbEntity
  8
frame-thin-parts3
 62
1
100
AcDbSpline
 70
8
 71
3
 72
8
 73
4
 74
0
 40
0
 40
0
 40
0
 40
0
 40
1
 40
1
 40
1
 40
1
 10
121.599995
 20
195.001392
 30
0.0
 10
121.599995
 20
195.885101
 30
0.0
 10
120.883504
 20
196.601240
 30
0.0
 10
120.000148
 20
196.601240
 30
0.0
  0
SPLINE
  5
118
100
AcDbEntity
  8
frame-thin-parts3
 62
1
100
AcDbSpline
 70
8
 71
3
 72
8
 73
4
 74
0
 40
0
 40
0
 40
0
 40
0
 40
1
 40
1
 40
1
 40
1
 10
120.000148
 20
196.601240
 30
0.0
 10
119.116440
 20
196.601240
 30
0.0
 10
118.399948
 20
195.885101
 30
0.0
 10
118.399948
 20
195.001392
 30
0.0
  0
LINE
  5
119
100
AcDbEntity
  8
frame-thin-parts3
 62
1
100
AcDbLine
 10
121.599995
 20
190.001402
 30
0.0
 11
121.599995
 21
195.001322
 31
0.0
  0
SPLINE
  5
11a
100
AcDbEntity
  8
frame-thin-parts3
 62
1
100
AcDbSpline
 70
8
 71
3
 72
8
 73
4
 74
0
 40
0
 40
0
 40
0
 40
0
 40
1
 40
1
 40
1
 40
1
 10
121.599995
 20
240.001408
 30
0.0
 10
121.599995
 20
240.885117
 30
0.0
 10
120.883504
 20
241.601256
 30
0.0
 10
120.000148
 20
241.601256
 30
0.0
  0
SPLINE
  5
11b
100
AcDbEntity
  8
frame-thin-parts3
 62
1
100
AcDbSpline
 70
8
 71
3
 72
8
 73
4
 74
0
 40
0
 40
0
 40
0
 40
0
 40
1
 40
1
 40
1
 40
1
 10
120.000148
 20
241.601256
 30
0.0
 10
119.116440
 20
241.601256
 30
0.0
 10
118.399948
 20
240.885117
 30
0.0
 10
118.399948
 20
240.001408
 30
0.0
  0
LINE
  5
11c
100
AcDbEntity
  8
frame-thin-parts3
 62
1
100
AcDbLine
 10
121.599995
 20
235.001418
 30
0.0
 11
121.599995
 21
240.001338
 31
0.0
  0
SPLINE
  5
11d
100
AcDbEntity
  8
frame-thin-parts3
 62
1
100
AcDbSpline
 70
8
 71
3
 72
8
 73
4
 74
0
 40
0
 40
0
 40
0
 40
0
 40
1
 40
1
 40
1
 40
1
 10
118.399983
 20
235.001418
 30
0.0
 10
118.399983
 20
234.117710
 30
0.0
 10
119.116475
 20
233.401571
 30
0.0
 10
119.999831
 20
233.401571
 30
0.0
  0
SPLINE
  5
11e
100
AcDbEntity
  8
frame-thin-parts3
 62
1
100
AcDbSpline
 70
8
 71
3
 72
8
 73
4
 74
0
 40
0
 40
0
 40
0
 40
0
 40
1
 40
1
 40
1
 40
1
 10
119.999831
 20
233.401571
 30
0.0
 10
120.883539
 20
233.401571
 30
0.0
 10
121.600031
 20
234.117710
 30
0.0
 10
121.600031
 20
235.001418
 30
0.0
  0
LINE
  5
11f
100
AcDbEntity
  8
frame-thin-parts3
 62
1
100
AcDbLine
 10
118.399983
 20
240.001408
 30
0.0
 11
118.399983
 21
235.001489
 31
0.0
  0
SPLINE
  5
120
100
AcDbEntity
  8
frame-thin-parts3
 62
1
100
AcDbSpline
 70
8
 71
3
 72
8
 73
4
 74
0
 40
0
 40
0
 40
0
 40
0
 40
1
 40
1
 40
1
 40
1
 10
103.400013
 20
230.001393
 30
0.0
 10
103.400013
 20
230.885101
 30
0.0
 10
104.116505
 20
231.601240
 30
0.0
 10
104.999861
 20
231.601240
 30
0.0
  0
SPLINE
  5
121
100
AcDbEntity
  8
frame-thin-parts3
 62
1
100
AcDbSpline
 70
8
 71
3
 72
8
 73
4
 74
0
 40
0
 40
0
 40
0
 40
0
 40
1
 40
1
 40
1
 40
1
 10
104.999861
 20
231.601240
 30
0.0
 10
105.883569
 20
231.601240
 30
0.0
 10
106.600061
 20
230.885101
 30
0.0
 10
106.600061
 20
230.001393
 30
0.0
  0
SPLINE
  5
122
100
AcDbEntity
  8
frame-thin-parts3
 62
1
100
AcDbSpline
 70
8
 71
3
 72
8
 73
4
 74
0
 40
0
 40
0
 40
0
 40
0
 40
1
 40
1
 40
1
 40
1
 10
106.600061
 20
230.001393
 30
0.0
 10
106.600061
 20
229.117685
 30
0.0
 10
105.883569
 20
228.401546
 30
0.0
 10
104.999861
 20
228.401546
 30
0.0
  0
SPLINE
  5
123
100
AcDbEntity
  8
frame-thin-parts3
 62
1
100
AcDbSpline
 70
8
 71
3
 72
8
 73
4
 74
0
 40
0
 40
0
 40
0
 40
0
 40
1
 40
1
 40
1
 40
1
 10
104.999861
 20
228.401546
 30
0.0
 10
104.116505
 20
228.401546
 30
0.0
 10
103.400013
 20
229.117685
 30
0.0
 10
103.400013
 20
230.001393
 30
0.0
  0
LINE
  5
124
100
AcDbEntity
  8
frame-thin-parts3
 62
1
100
AcDbLine
 10
103.400013
 20
230.001393
 30
0.0
 11
103.400013
 21
230.001393
 31
0.0
  0
SPLINE
  5
125
100
AcDbEntity
  8
frame-thin-parts3
 62
1
100
AcDbSpline
 70
8
 71
3
 72
8
 73
4
 74
0
 40
0
 40
0
 40
0
 40
0
 40
1
 40
1
 40
1
 40
1
 10
133.399989
 20
230.001393
 30
0.0
 10
133.399989
 20
230.885101
 30
0.0
 10
134.116480
 20
231.601240
 30
0.0
 10
134.999836
 20
231.601240
 30
0.0
  0
SPLINE
  5
126
100
AcDbEntity
  8
frame-thin-parts3
 62
1
100
AcDbSpline
 70
8
 71
3
 72
8
 73
4
 74
0
 40
0
 40
0
 40
0
 40
0
 40
1
 40
1
 40
1
 40
1
 10
134.999836
 20
231.601240
 30
0.0
 10
135.883544
 20
231.601240
 30
0.0
 10
136.600036
 20
230.885101
 30
0.0
 10
136.600036
 20
230.001393
 30
0.0
  0
SPLINE
  5
127
100
AcDbEntity
  8
frame-thin-parts3
 62
1
100
AcDbSpline
 70
8
 71
3
 72
8
 73
4
 74
0
 40
0
 40
0
 40
0
 40
0
 40
1
 40
1
 40
1
 40
1
 10
136.600036
 20
230.001393
 30
0.0
 10
136.600036
 20
229.117685
 30
0.0
 10
135.883544
 20
228.401546
 30
0.0
 10
134.999836
 20
228.401546
 30
0.0
  0
SPLINE
  5
128
100
AcDbEntity
  8
frame-thin-parts3
 62
1
100
AcDbSpline
 70
8
 71
3
 72
8
 73
4
 74
0
 40
0
 40
0
 40
0
 40
0
 40
1
 40
1
 40
1
 40
1
 10
134.999836
 20
228.401546
 30
0.0
 10
134.116480
 20
228.401546
 30
0.0
 10
133.399989
 20
229.117685
 30
0.0
 10
133.399989
 20
230.001393
 30
0.0
  0
LINE
  5
129
100
AcDbEntity
  8
frame-thin-parts3
 62
1
100
AcDbLine
 10
133.399989
 20
230.001393
 30
0.0
 11
133.399989
 21
230.001393
 31
0.0
  0
SPLINE
  5
12a
100
AcDbEntity
  8
frame-thin-parts3
 62
1
100
AcDbSpline
 70
8
 71
3
 72
8
 73
4
 74
0
 40
0
 40
0
 40
0
 40
0
 40
1
 40
1
 40
1
 40
1
 10
103.400013
 20
200.001418
 30
0.0
 10
103.400013
 20
200.885126
 30
0.0
 10
104.116505
 20
201.601265
 30
0.0
 10
104.999861
 20
201.601265
 30
0.0
  0
SPLINE
  5
12b
100
AcDbEntity
  8
frame-thin-parts3
 62
1
100
AcDbSpline
 70
8
 71
3
 72
8
 73
4
 74
0
 40
0
 40
0
 40
0
 40
0
 40
1
 40
1
 40
1
 40
1
 10
104.999861
 20
201.601265
 30
0.0
 10
105.883569
 20
201.601265
 30
0.0
 10
106.600061
 20
200.885126
 30
0.0
 10
106.600061
 20
200.001418
 30
0.0
  0
SPLINE
  5
12c
100
AcDbEntity
  8
frame-thin-parts3
 62
1
100
AcDbSpline
 70
8
 71
3
 72
8
 73
4
 74
0
 40
0
 40
0
 40
0
 40
0
 40
1
 40
1
 40
1
 40
1
 10
106.600061
 20
200.001418
 30
0.0
 10
106.600061
 20
199.117709
 30
0.0
 10
105.883569
 20
198.401571
 30
0.0
 10
104.999861
 20
198.401571
 30
0.0
  0
SPLINE
  5
12d
100
AcDbEntity
  8
frame-thin-parts3
 62
1
100
AcDbSpline
 70
8
 71
3
 72
8
 73
4
 74
0
 40
0
 40
0
 40
0
 40
0
 40
1
 40
1
 40
1
 40
1
 10
104.999861
 20
198.401571
 30
0.0
 10
104.116505
 20
198.401571
 30
0.0
 10
103.400013
 20
199.117709
 30
0.0
 10
103.400013
 20
200.001418
 30
0.0
  0
LINE
  5
12e
100
AcDbEntity
  8
frame-thin-parts3
 62
1
100
AcDbLine
 10
103.400013
 20
200.001418
 30
0.0
 11
103.400013
 21
200.001418
 31
0.0
  0
SPLINE
  5
12f
100
AcDbEntity
  8
frame-thin-parts3
 62
1
100
AcDbSpline
 70
8
 71
3
 72
8
 73
4
 74
0
 40
0
 40
0
 40
0
 40
0
 40
1
 40
1
 40
1
 40
1
 10
133.399989
 20
200.001418
 30
0.0
 10
133.399989
 20
200.885126
 30
0.0
 10
134.116480
 20
201.601265
 30
0.0
 10
134.999836
 20
201.601265
 30
0.0
  0
SPLINE
  5
130
100
AcDbEntity
  8
frame-thin-parts3
 62
1
100
AcDbSpline
 70
8
 71
3
 72
8
 73
4
 74
0
 40
0
 40
0
 40
0
 40
0
 40
1
 40
1
 40
1
 40
1
 10
134.999836
 20
201.601265
 30
0.0
 10
135.883544
 20
201.601265
 30
0.0
 10
136.600036
 20
200.885126
 30
0.0
 10
136.600036
 20
200.001418
 30
0.0
  0
SPLINE
  5
131
100
AcDbEntity
  8
frame-thin-parts3
 62
1
100
AcDbSpline
 70
8
 71
3
 72
8
 73
4
 74
0
 40
0
 40
0
 40
0
 40
0
 40
1
 40
1
 40
1
 40
1
 10
136.600036
 20
200.001418
 30
0.0
 10
136.600036
 20
199.117709
 30
0.0
 10
135.883544
 20
198.401571
 30
0.0
 10
134.999836
 20
198.401571
 30
0.0
  0
SPLINE
  5
132
100
AcDbEntity
  8
frame-thin-parts3
 62
1
100
AcDbSpline
 70
8
 71
3
 72
8
 73
4
 74
0
 40
0
 40
0
 40
0
 40
0
 40
1
 40
1
 40
1
 40
1
 10
134.999836
 20
198.401571
 30
0.0
 10
134.116480
 20
198.401571
 30
0.0
 10
133.399989
 20
199.117709
 30
0.0
 10
133.399989
 20
200.001418
 30
0.0
  0
LINE
  5
133
100
AcDbEntity
  8
frame-thin-parts3
 62
1
100
AcDbLine
 10
133.399989
 20
200.001418
 30
0.0
 11
133.399989
 21
200.001418
 31
0.0
  0
SPLINE
  5
134
100
AcDbEntity
  8
frame-thin-parts3
 62
1
100
AcDbSpline
 70
8
 71
3
 72
8
 73
4
 74
0
 40
0
 40
0
 40
0
 40
0
 40
1
 40
1
 40
1
 40
1
 10
181.399991
 20
251.001407
 30
0.0
 10
181.399991
 20
251.885116
 30
0.0
 10
182.116483
 20
252.601255
 30
0.0
 10
182.999839
 20
252.601255
 30
0.0
  0
SPLINE
  5
135
100
AcDbEntity
  8
frame-thin-parts3
 62
1
100
AcDbSpline
 70
8
 71
3
 72
8
 73
4
 74
0
 40
0
 40
0
 40
0
 40
0
 40
1
 40
1
 40
1
 40
1
 10
182.999839
 20
252.601255
 30
0.0
 10
183.883547
 20
252.601255
 30
0.0
 10
184.600039
 20
251.885116
 30
0.0
 10
184.600039
 20
251.001407
 30
0.0
  0
SPLINE
  5
136
100
AcDbEntity
  8
frame-thin-parts3
 62
1
100
AcDbSpline
 70
8
 71
3
 72
8
 73
4
 74
0
 40
0
 40
0
 40
0
 40
0
 40
1
 40
1
 40
1
 40
1
 10
184.600039
 20
251.001407
 30
0.0
 10
184.600039
 20
250.117699
 30
0.0
 10
183.883547
 20
249.401560
 30
0.0
 10
182.999839
 20
249.401560
 30
0.0
  0
SPLINE
  5
137
100
AcDbEntity
  8
frame-thin-parts3
 62
1
100
AcDbSpline
 70
8
 71
3
 72
8
 73
4
 74
0
 40
0
 40
0
 40
0
 40
0
 40
1
 40
1
 40
1
 40
1
 10
182.999839
 20
249.401560
 30
0.0
 10
182.116483
 20
249.401560
 30
0.0
 10
181.399991
 20
250.117699
 30
0.0
 10
181.399991
 20
251.001407
 30
0.0
  0
LINE
  5
138
100
AcDbEntity
  8
frame-thin-parts3
 62
1
100
AcDbLine
 10
181.399991
 20
251.001407
 30
0.0
 11
181.399991
 21
251.001407
 31
0.0
  0
SPLINE
  5
139
100
AcDbEntity
  8
frame-thin-parts3
 62
1
100
AcDbSpline
 70
8
 71
3
 72
8
 73
4
 74
0
 40
0
 40
0
 40
0
 40
0
 40
1
 40
1
 40
1
 40
1
 10
181.399991
 20
269.001400
 30
0.0
 10
181.399991
 20
269.885108
 30
0.0
 10
182.116483
 20
270.601247
 30
0.0
 10
182.999839
 20
270.601247
 30
0.0
  0
SPLINE
  5
13a
100
AcDbEntity
  8
frame-thin-parts3
 62
1
100
AcDbSpline
 70
8
 71
3
 72
8
 73
4
 74
0
 40
0
 40
0
 40
0
 40
0
 40
1
 40
1
 40
1
 40
1
 10
182.999839
 20
270.601247
 30
0.0
 10
183.883547
 20
270.601247
 30
0.0
 10
184.600039
 20
269.885108
 30
0.0
 10
184.600039
 20
269.001400
 30
0.0
  0
SPLINE
  5
13b
100
AcDbEntity
  8
frame-thin-parts3
 62
1
100
AcDbSpline
 70
8
 71
3
 72
8
 73
4
 74
0
 40
0
 40
0
 40
0
 40
0
 40
1
 40
1
 40
1
 40
1
 10
184.600039
 20
269.001400
 30
0.0
 10
184.600039
 20
268.117691
 30
0.0
 10
183.883547
 20
267.401552
 30
0.0
 10
182.999839
 20
267.401552
 30
0.0
  0
SPLINE
  5
13c
100
AcDbEntity
  8
frame-thin-parts3
 62
1
100
AcDbSpline
 70
8
 71
3
 72
8
 73
4
 74
0
 40
0
 40
0
 40
0
 40
0
 40
1
 40
1
 40
1
 40
1
 10
182.999839
 20
267.401552
 30
0.0
 10
182.116483
 20
267.401552
 30
0.0
 10
181.399991
 20
268.117691
 30
0.0
 10
181.399991
 20
269.001400
 30
0.0
  0
LINE
  5
13d
100
AcDbEntity
  8
frame-thin-parts3
 62
1
100
AcDbLine
 10
181.399991
 20
269.001400
 30
0.0
 11
181.399991
 21
269.001400
 31
0.0
  0
SPLINE
  5
13e
100
AcDbEntity
  8
frame-thin-parts3
 62
1
100
AcDbSpline
 70
8
 71
3
 72
8
 73
4
 74
0
 40
0
 40
0
 40
0
 40
0
 40
1
 40
1
 40
1
 40
1
 10
205.399993
 20
269.001400
 30
0.0
 10
205.399993
 20
269.885108
 30
0.0
 10
206.116484
 20
270.601247
 30
0.0
 10
206.999840
 20
270.601247
 30
0.0
  0
SPLINE
  5
13f
100
AcDbEntity
  8
frame-thin-parts3
 62
1
100
AcDbSpline
 70
8
 71
3
 72
8
 73
4
 74
0
 40
0
 40
0
 40
0
 40
0
 40
1
 40
1
 40
1
 40
1
 10
206.999840
 20
270.601247
 30
0.0
 10
207.883548
 20
270.601247
 30
0.0
 10
208.600040
 20
269.885108
 30
0.0
 10
208.600040
 20
269.001400
 30
0.0
  0
SPLINE
  5
140
100
AcDbEntity
  8
frame-thin-parts3
 62
1
100
AcDbSpline
 70
8
 71
3
 72
8
 73
4
 74
0
 40
0
 40
0
 40
0
 40
0
 40
1
 40
1
 40
1
 40
1
 10
208.600040
 20
269.001400
 30
0.0
 10
208.600040
 20
268.117691
 30
0.0
 10
207.883548
 20
267.401552
 30
0.0
 10
206.999840
 20
267.401552
 30
0.0
  0
SPLINE
  5
141
100
AcDbEntity
  8
frame-thin-parts3
 62
1
100
AcDbSpline
 70
8
 71
3
 72
8
 73
4
 74
0
 40
0
 40
0
 40
0
 40
0
 40
1
 40
1
 40
1
 40
1
 10
206.999840
 20
267.401552
 30
0.0
 10
206.116484
 20
267.401552
 30
0.0
 10
205.399993
 20
268.117691
 30
0.0
 10
205.399993
 20
269.001400
 30
0.0
  0
LINE
  5
142
100
AcDbEntity
  8
frame-thin-parts3
 62
1
100
AcDbLine
 10
205.399993
 20
269.001400
 30
0.0
 11
205.399993
 21
269.001400
 31
0.0
  0
SPLINE
  5
143
100
AcDbEntity
  8
frame-thin-parts3
 62
1
100
AcDbSpline
 70
8
 71
3
 72
8
 73
4
 74
0
 40
0
 40
0
 40
0
 40
0
 40
1
 40
1
 40
1
 40
1
 10
205.399993
 20
251.001407
 30
0.0
 10
205.399993
 20
251.885116
 30
0.0
 10
206.116484
 20
252.601255
 30
0.0
 10
206.999840
 20
252.601255
 30
0.0
  0
SPLINE
  5
144
100
AcDbEntity
  8
frame-thin-parts3
 62
1
100
AcDbSpline
 70
8
 71
3
 72
8
 73
4
 74
0
 40
0
 40
0
 40
0
 40
0
 40
1
 40
1
 40
1
 40
1
 10
206.999840
 20
252.601255
 30
0.0
 10
207.883548
 20
252.601255
 30
0.0
 10
208.600040
 20
251.885116
 30
0.0
 10
208.600040
 20
251.001407
 30
0.0
  0
SPLINE
  5
145
100
AcDbEntity
  8
frame-thin-parts3
 62
1
100
AcDbSpline
 70
8
 71
3
 72
8
 73
4
 74
0
 40
0
 40
0
 40
0
 40
0
 40
1
 40
1
 40
1
 40
1
 10
208.600040
 20
251.001407
 30
0.0
 10
208.600040
 20
250.117699
 30
0.0
 10
207.883548
 20
249.401560
 30
0.0
 10
206.999840
 20
249.401560
 30
0.0
  0
SPLINE
  5
146
100
AcDbEntity
  8
frame-thin-parts3
 62
1
100
AcDbSpline
 70
8
 71
3
 72
8
 73
4
 74
0
 40
0
 40
0
 40
0
 40
0
 40
1
 40
1
 40
1
 40
1
 10
206.999840
 20
249.401560
 30
0.0
 10
206.116484
 20
249.401560
 30
0.0
 10
205.399993
 20
250.117699
 30
0.0
 10
205.399993
 20
251.001407
 30
0.0
  0
LINE
  5
147
100
AcDbEntity
  8
frame-thin-parts3
 62
1
100
AcDbLine
 10
205.399993
 20
251.001407
 30
0.0
 11
205.399993
 21
251.001407
 31
0.0
  0
SPLINE
  5
148
100
AcDbEntity
  8
frame-thin-parts3
 62
1
100
AcDbSpline
 70
8
 71
3
 72
8
 73
4
 74
0
 40
0
 40
0
 40
0
 40
0
 40
1
 40
1
 40
1
 40
1
 10
205.399993
 20
209.001379
 30
0.0
 10
205.399993
 20
209.885087
 30
0.0
 10
206.116484
 20
210.601226
 30
0.0
 10
206.999840
 20
210.601226
 30
0.0
  0
SPLINE
  5
149
100
AcDbEntity
  8
frame-thin-parts3
 62
1
100
AcDbSpline
 70
8
 71
3
 72
8
 73
4
 74
0
 40
0
 40
0
 40
0
 40
0
 40
1
 40
1
 40
1
 40
1
 10
206.999840
 20
210.601226
 30
0.0
 10
207.883548
 20
210.601226
 30
0.0
 10
208.600040
 20
209.885087
 30
0.0
 10
208.600040
 20
209.001379
 30
0.0
  0
SPLINE
  5
14a
100
AcDbEntity
  8
frame-thin-parts3
 62
1
100
AcDbSpline
 70
8
 71
3
 72
8
 73
4
 74
0
 40
0
 40
0
 40
0
 40
0
 40
1
 40
1
 40
1
 40
1
 10
208.600040
 20
209.001379
 30
0.0
 10
208.600040
 20
208.117670
 30
0.0
 10
207.883548
 20
207.401531
 30
0.0
 10
206.999840
 20
207.401531
 30
0.0
  0
SPLINE
  5
14b
100
AcDbEntity
  8
frame-thin-parts3
 62
1
100
AcDbSpline
 70
8
 71
3
 72
8
 73
4
 74
0
 40
0
 40
0
 40
0
 40
0
 40
1
 40
1
 40
1
 40
1
 10
206.999840
 20
207.401531
 30
0.0
 10
206.116484
 20
207.401531
 30
0.0
 10
205.399993
 20
208.117670
 30
0.0
 10
205.399993
 20
209.001379
 30
0.0
  0
LINE
  5
14c
100
AcDbEntity
  8
frame-thin-parts3
 62
1
100
AcDbLine
 10
205.399993
 20
209.001379
 30
0.0
 11
205.399993
 21
209.001379
 31
0.0
  0
SPLINE
  5
14d
100
AcDbEntity
  8
frame-thin-parts3
 62
1
100
AcDbSpline
 70
8
 71
3
 72
8
 73
4
 74
0
 40
0
 40
0
 40
0
 40
0
 40
1
 40
1
 40
1
 40
1
 10
205.399993
 20
191.001386
 30
0.0
 10
205.399993
 20
191.885095
 30
0.0
 10
206.116484
 20
192.601234
 30
0.0
 10
206.999840
 20
192.601234
 30
0.0
  0
SPLINE
  5
14e
100
AcDbEntity
  8
frame-thin-parts3
 62
1
100
AcDbSpline
 70
8
 71
3
 72
8
 73
4
 74
0
 40
0
 40
0
 40
0
 40
0
 40
1
 40
1
 40
1
 40
1
 10
206.999840
 20
192.601234
 30
0.0
 10
207.883548
 20
192.601234
 30
0.0
 10
208.600040
 20
191.885095
 30
0.0
 10
208.600040
 20
191.001386
 30
0.0
  0
SPLINE
  5
14f
100
AcDbEntity
  8
frame-thin-parts3
 62
1
100
AcDbSpline
 70
8
 71
3
 72
8
 73
4
 74
0
 40
0
 40
0
 40
0
 40
0
 40
1
 40
1
 40
1
 40
1
 10
208.600040
 20
191.001386
 30
0.0
 10
208.600040
 20
190.117678
 30
0.0
 10
207.883548
 20
189.401539
 30
0.0
 10
206.999840
 20
189.401539
 30
0.0
  0
SPLINE
  5
150
100
AcDbEntity
  8
frame-thin-parts3
 62
1
100
AcDbSpline
 70
8
 71
3
 72
8
 73
4
 74
0
 40
0
 40
0
 40
0
 40
0
 40
1
 40
1
 40
1
 40
1
 10
206.999840
 20
189.401539
 30
0.0
 10
206.116484
 20
189.401539
 30
0.0
 10
205.399993
 20
190.117678
 30
0.0
 10
205.399993
 20
191.001386
 30
0.0
  0
LINE
  5
151
100
AcDbEntity
  8
frame-thin-parts3
 62
1
100
AcDbLine
 10
205.399993
 20
191.001386
 30
0.0
 11
205.399993
 21
191.001386
 31
0.0
  0
SPLINE
  5
152
100
AcDbEntity
  8
frame-thin-parts3
 62
1
100
AcDbSpline
 70
8
 71
3
 72
8
 73
4
 74
0
 40
0
 40
0
 40
0
 40
0
 40
1
 40
1
 40
1
 40
1
 10
181.399991
 20
191.001386
 30
0.0
 10
181.399991
 20
191.885095
 30
0.0
 10
182.116483
 20
192.601234
 30
0.0
 10
182.999839
 20
192.601234
 30
0.0
  0
SPLINE
  5
153
100
AcDbEntity
  8
frame-thin-parts3
 62
1
100
AcDbSpline
 70
8
 71
3
 72
8
 73
4
 74
0
 40
0
 40
0
 40
0
 40
0
 40
1
 40
1
 40
1
 40
1
 10
182.999839
 20
192.601234
 30
0.0
 10
183.883547
 20
192.601234
 30
0.0
 10
184.600039
 20
191.885095
 30
0.0
 10
184.600039
 20
191.001386
 30
0.0
  0
SPLINE
  5
154
100
AcDbEntity
  8
frame-thin-parts3
 62
1
100
AcDbSpline
 70
8
 71
3
 72
8
 73
4
 74
0
 40
0
 40
0
 40
0
 40
0
 40
1
 40
1
 40
1
 40
1
 10
184.600039
 20
191.001386
 30
0.0
 10
184.600039
 20
190.117678
 30
0.0
 10
183.883547
 20
189.401539
 30
0.0
 10
182.999839
 20
189.401539
 30
0.0
  0
SPLINE
  5
155
100
AcDbEntity
  8
frame-thin-parts3
 62
1
100
AcDbSpline
 70
8
 71
3
 72
8
 73
4
 74
0
 40
0
 40
0
 40
0
 40
0
 40
1
 40
1
 40
1
 40
1
 10
182.999839
 20
189.401539
 30
0.0
 10
182.116483
 20
189.401539
 30
0.0
 10
181.399991
 20
190.117678
 30
0.0
 10
181.399991
 20
191.001386
 30
0.0
  0
LINE
  5
156
100
AcDbEntity
  8
frame-thin-parts3
 62
1
100
AcDbLine
 10
181.399991
 20
191.001386
 30
0.0
 11
181.399991
 21
191.001386
 31
0.0
  0
SPLINE
  5
157
100
AcDbEntity
  8
frame-thin-parts3
 62
1
100
AcDbSpline
 70
8
 71
3
 72
8
 73
4
 74
0
 40
0
 40
0
 40
0
 40
0
 40
1
 40
1
 40
1
 40
1
 10
181.399991
 20
209.001379
 30
0.0
 10
181.399991
 20
209.885087
 30
0.0
 10
182.116483
 20
210.601226
 30
0.0
 10
182.999839
 20
210.601226
 30
0.0
  0
SPLINE
  5
158
100
AcDbEntity
  8
frame-thin-parts3
 62
1
100
AcDbSpline
 70
8
 71
3
 72
8
 73
4
 74
0
 40
0
 40
0
 40
0
 40
0
 40
1
 40
1
 40
1
 40
1
 10
182.999839
 20
210.601226
 30
0.0
 10
183.883547
 20
210.601226
 30
0.0
 10
184.600039
 20
209.885087
 30
0.0
 10
184.600039
 20
209.001379
 30
0.0
  0
SPLINE
  5
159
100
AcDbEntity
  8
frame-thin-parts3
 62
1
100
AcDbSpline
 70
8
 71
3
 72
8
 73
4
 74
0
 40
0
 40
0
 40
0
 40
0
 40
1
 40
1
 40
1
 40
1
 10
184.600039
 20
209.001379
 30
0.0
 10
184.600039
 20
208.117670
 30
0.0
 10
183.883547
 20
207.401531
 30
0.0
 10
182.999839
 20
207.401531
 30
0.0
  0
SPLINE
  5
15a
100
AcDbEntity
  8
frame-thin-parts3
 62
1
100
AcDbSpline
 70
8
 71
3
 72
8
 73
4
 74
0
 40
0
 40
0
 40
0
 40
0
 40
1
 40
1
 40
1
 40
1
 10
182.999839
 20
207.401531
 30
0.0
 10
182.116483
 20
207.401531
 30
0.0
 10
181.399991
 20
208.117670
 30
0.0
 10
181.399991
 20
209.001379
 30
0.0
  0
LINE
  5
15b
100
AcDbEntity
  8
frame-thin-parts3
 62
1
100
AcDbLine
 10
181.399991
 20
209.001379
 30
0.0
 11
181.399991
 21
209.001379
 31
0.0
  0
SPLINE
  5
15c
100
AcDbEntity
  8
frame-thin-parts3
 62
1
100
AcDbSpline
 70
8
 71
3
 72
8
 73
4
 74
0
 40
0
 40
0
 40
0
 40
0
 40
1
 40
1
 40
1
 40
1
 10
31.400009
 20
209.001379
 30
0.0
 10
31.400009
 20
209.885087
 30
0.0
 10
32.116501
 20
210.601226
 30
0.0
 10
32.999856
 20
210.601226
 30
0.0
  0
SPLINE
  5
15d
100
AcDbEntity
  8
frame-thin-parts3
 62
1
100
AcDbSpline
 70
8
 71
3
 72
8
 73
4
 74
0
 40
0
 40
0
 40
0
 40
0
 40
1
 40
1
 40
1
 40
1
 10
32.999856
 20
210.601226
 30
0.0
 10
33.883565
 20
210.601226
 30
0.0
 10
34.600056
 20
209.885087
 30
0.0
 10
34.600056
 20
209.001379
 30
0.0
  0
SPLINE
  5
15e
100
AcDbEntity
  8
frame-thin-parts3
 62
1
100
AcDbSpline
 70
8
 71
3
 72
8
 73
4
 74
0
 40
0
 40
0
 40
0
 40
0
 40
1
 40
1
 40
1
 40
1
 10
34.600056
 20
209.001379
 30
0.0
 10
34.600056
 20
208.117670
 30
0.0
 10
33.883565
 20
207.401531
 30
0.0
 10
32.999856
 20
207.401531
 30
0.0
  0
SPLINE
  5
15f
100
AcDbEntity
  8
frame-thin-parts3
 62
1
100
AcDbSpline
 70
8
 71
3
 72
8
 73
4
 74
0
 40
0
 40
0
 40
0
 40
0
 40
1
 40
1
 40
1
 40
1
 10
32.999856
 20
207.401531
 30
0.0
 10
32.116501
 20
207.401531
 30
0.0
 10
31.400009
 20
208.117670
 30
0.0
 10
31.400009
 20
209.001379
 30
0.0
  0
LINE
  5
160
100
AcDbEntity
  8
frame-thin-parts3
 62
1
100
AcDbLine
 10
31.400009
 20
209.001379
 30
0.0
 11
31.400009
 21
209.001379
 31
0.0
  0
SPLINE
  5
161
100
AcDbEntity
  8
frame-thin-parts3
 62
1
100
AcDbSpline
 70
8
 71
3
 72
8
 73
4
 74
0
 40
0
 40
0
 40
0
 40
0
 40
1
 40
1
 40
1
 40
1
 10
31.400009
 20
191.001386
 30
0.0
 10
31.400009
 20
191.885095
 30
0.0
 10
32.116501
 20
192.601234
 30
0.0
 10
32.999856
 20
192.601234
 30
0.0
  0
SPLINE
  5
162
100
AcDbEntity
  8
frame-thin-parts3
 62
1
100
AcDbSpline
 70
8
 71
3
 72
8
 73
4
 74
0
 40
0
 40
0
 40
0
 40
0
 40
1
 40
1
 40
1
 40
1
 10
32.999856
 20
192.601234
 30
0.0
 10
33.883565
 20
192.601234
 30
0.0
 10
34.600056
 20
191.885095
 30
0.0
 10
34.600056
 20
191.001386
 30
0.0
  0
SPLINE
  5
163
100
AcDbEntity
  8
frame-thin-parts3
 62
1
100
AcDbSpline
 70
8
 71
3
 72
8
 73
4
 74
0
 40
0
 40
0
 40
0
 40
0
 40
1
 40
1
 40
1
 40
1
 10
34.600056
 20
191.001386
 30
0.0
 10
34.600056
 20
190.117678
 30
0.0
 10
33.883565
 20
189.401539
 30
0.0
 10
32.999856
 20
189.401539
 30
0.0
  0
SPLINE
  5
164
100
AcDbEntity
  8
frame-thin-parts3
 62
1
100
AcDbSpline
 70
8
 71
3
 72
8
 73
4
 74
0
 40
0
 40
0
 40
0
 40
0
 40
1
 40
1
 40
1
 40
1
 10
32.999856
 20
189.401539
 30
0.0
 10
32.116501
 20
189.401539
 30
0.0
 10
31.400009
 20
190.117678
 30
0.0
 10
31.400009
 20
191.001386
 30
0.0
  0
LINE
  5
165
100
AcDbEntity
  8
frame-thin-parts3
 62
1
100
AcDbLine
 10
31.400009
 20
191.001386
 30
0.0
 11
31.400009
 21
191.001386
 31
0.0
  0
SPLINE
  5
166
100
AcDbEntity
  8
frame-thin-parts3
 62
1
100
AcDbSpline
 70
8
 71
3
 72
8
 73
4
 74
0
 40
0
 40
0
 40
0
 40
0
 40
1
 40
1
 40
1
 40
1
 10
55.400011
 20
191.001386
 30
0.0
 10
55.400011
 20
191.885095
 30
0.0
 10
56.116502
 20
192.601234
 30
0.0
 10
56.999858
 20
192.601234
 30
0.0
  0
SPLINE
  5
167
100
AcDbEntity
  8
frame-thin-parts3
 62
1
100
AcDbSpline
 70
8
 71
3
 72
8
 73
4
 74
0
 40
0
 40
0
 40
0
 40
0
 40
1
 40
1
 40
1
 40
1
 10
56.999858
 20
192.601234
 30
0.0
 10
57.883566
 20
192.601234
 30
0.0
 10
58.600058
 20
191.885095
 30
0.0
 10
58.600058
 20
191.001386
 30
0.0
  0
SPLINE
  5
168
100
AcDbEntity
  8
frame-thin-parts3
 62
1
100
AcDbSpline
 70
8
 71
3
 72
8
 73
4
 74
0
 40
0
 40
0
 40
0
 40
0
 40
1
 40
1
 40
1
 40
1
 10
58.600058
 20
191.001386
 30
0.0
 10
58.600058
 20
190.117678
 30
0.0
 10
57.883566
 20
189.401539
 30
0.0
 10
56.999858
 20
189.401539
 30
0.0
  0
SPLINE
  5
169
100
AcDbEntity
  8
frame-thin-parts3
 62
1
100
AcDbSpline
 70
8
 71
3
 72
8
 73
4
 74
0
 40
0
 40
0
 40
0
 40
0
 40
1
 40
1
 40
1
 40
1
 10
56.999858
 20
189.401539
 30
0.0
 10
56.116502
 20
189.401539
 30
0.0
 10
55.400011
 20
190.117678
 30
0.0
 10
55.400011
 20
191.001386
 30
0.0
  0
LINE
  5
16a
100
AcDbEntity
  8
frame-thin-parts3
 62
1
100
AcDbLine
 10
55.400011
 20
191.001386
 30
0.0
 11
55.400011
 21
191.001386
 31
0.0
  0
SPLINE
  5
16b
100
AcDbEntity
  8
frame-thin-parts3
 62
1
100
AcDbSpline
 70
8
 71
3
 72
8
 73
4
 74
0
 40
0
 40
0
 40
0
 40
0
 40
1
 40
1
 40
1
 40
1
 10
55.400011
 20
209.001379
 30
0.0
 10
55.400011
 20
209.885087
 30
0.0
 10
56.116502
 20
210.601226
 30
0.0
 10
56.999858
 20
210.601226
 30
0.0
  0
SPLINE
  5
16c
100
AcDbEntity
  8
frame-thin-parts3
 62
1
100
AcDbSpline
 70
8
 71
3
 72
8
 73
4
 74
0
 40
0
 40
0
 40
0
 40
0
 40
1
 40
1
 40
1
 40
1
 10
56.999858
 20
210.601226
 30
0.0
 10
57.883566
 20
210.601226
 30
0.0
 10
58.600058
 20
209.885087
 30
0.0
 10
58.600058
 20
209.001379
 30
0.0
  0
SPLINE
  5
16d
100
AcDbEntity
  8
frame-thin-parts3
 62
1
100
AcDbSpline
 70
8
 71
3
 72
8
 73
4
 74
0
 40
0
 40
0
 40
0
 40
0
 40
1
 40
1
 40
1
 40
1
 10
58.600058
 20
209.001379
 30
0.0
 10
58.600058
 20
208.117670
 30
0.0
 10
57.883566
 20
207.401531
 30
0.0
 10
56.999858
 20
207.401531
 30
0.0
  0
SPLINE
  5
16e
100
AcDbEntity
  8
frame-thin-parts3
 62
1
100
AcDbSpline
 70
8
 71
3
 72
8
 73
4
 74
0
 40
0
 40
0
 40
0
 40
0
 40
1
 40
1
 40
1
 40
1
 10
56.999858
 20
207.401531
 30
0.0
 10
56.116502
 20
207.401531
 30
0.0
 10
55.400011
 20
208.117670
 30
0.0
 10
55.400011
 20
209.001379
 30
0.0
  0
LINE
  5
16f
100
AcDbEntity
  8
frame-thin-parts3
 62
1
100
AcDbLine
 10
55.400011
 20
209.001379
 30
0.0
 11
55.400011
 21
209.001379
 31
0.0
  0
SPLINE
  5
170
100
AcDbEntity
  8
frame-thin-parts3
 62
1
100
AcDbSpline
 70
8
 71
3
 72
8
 73
4
 74
0
 40
0
 40
0
 40
0
 40
0
 40
1
 40
1
 40
1
 40
1
 10
55.400011
 20
269.001400
 30
0.0
 10
55.400011
 20
269.885108
 30
0.0
 10
56.116502
 20
270.601247
 30
0.0
 10
56.999858
 20
270.601247
 30
0.0
  0
SPLINE
  5
171
100
AcDbEntity
  8
frame-thin-parts3
 62
1
100
AcDbSpline
 70
8
 71
3
 72
8
 73
4
 74
0
 40
0
 40
0
 40
0
 40
0
 40
1
 40
1
 40
1
 40
1
 10
56.999858
 20
270.601247
 30
0.0
 10
57.883566
 20
270.601247
 30
0.0
 10
58.600058
 20
269.885108
 30
0.0
 10
58.600058
 20
269.001400
 30
0.0
  0
SPLINE
  5
172
100
AcDbEntity
  8
frame-thin-parts3
 62
1
100
AcDbSpline
 70
8
 71
3
 72
8
 73
4
 74
0
 40
0
 40
0
 40
0
 40
0
 40
1
 40
1
 40
1
 40
1
 10
58.600058
 20
269.001400
 30
0.0
 10
58.600058
 20
268.117691
 30
0.0
 10
57.883566
 20
267.401552
 30
0.0
 10
56.999858
 20
267.401552
 30
0.0
  0
SPLINE
  5
173
100
AcDbEntity
  8
frame-thin-parts3
 62
1
100
AcDbSpline
 70
8
 71
3
 72
8
 73
4
 74
0
 40
0
 40
0
 40
0
 40
0
 40
1
 40
1
 40
1
 40
1
 10
56.999858
 20
267.401552
 30
0.0
 10
56.116502
 20
267.401552
 30
0.0
 10
55.400011
 20
268.117691
 30
0.0
 10
55.400011
 20
269.001400
 30
0.0
  0
LINE
  5
174
100
AcDbEntity
  8
frame-thin-parts3
 62
1
100
AcDbLine
 10
55.400011
 20
269.001400
 30
0.0
 11
55.400011
 21
269.001400
 31
0.0
  0
SPLINE
  5
175
100
AcDbEntity
  8
frame-thin-parts3
 62
1
100
AcDbSpline
 70
8
 71
3
 72
8
 73
4
 74
0
 40
0
 40
0
 40
0
 40
0
 40
1
 40
1
 40
1
 40
1
 10
55.400011
 20
251.001407
 30
0.0
 10
55.400011
 20
251.885116
 30
0.0
 10
56.116502
 20
252.601255
 30
0.0
 10
56.999858
 20
252.601255
 30
0.0
  0
SPLINE
  5
176
100
AcDbEntity
  8
frame-thin-parts3
 62
1
100
AcDbSpline
 70
8
 71
3
 72
8
 73
4
 74
0
 40
0
 40
0
 40
0
 40
0
 40
1
 40
1
 40
1
 40
1
 10
56.999858
 20
252.601255
 30
0.0
 10
57.883566
 20
252.601255
 30
0.0
 10
58.600058
 20
251.885116
 30
0.0
 10
58.600058
 20
251.001407
 30
0.0
  0
SPLINE
  5
177
100
AcDbEntity
  8
frame-thin-parts3
 62
1
100
AcDbSpline
 70
8
 71
3
 72
8
 73
4
 74
0
 40
0
 40
0
 40
0
 40
0
 40
1
 40
1
 40
1
 40
1
 10
58.600058
 20
251.001407
 30
0.0
 10
58.600058
 20
250.117699
 30
0.0
 10
57.883566
 20
249.401560
 30
0.0
 10
56.999858
 20
249.401560
 30
0.0
  0
SPLINE
  5
178
100
AcDbEntity
  8
frame-thin-parts3
 62
1
100
AcDbSpline
 70
8
 71
3
 72
8
 73
4
 74
0
 40
0
 40
0
 40
0
 40
0
 40
1
 40
1
 40
1
 40
1
 10
56.999858
 20
249.401560
 30
0.0
 10
56.116502
 20
249.401560
 30
0.0
 10
55.400011
 20
250.117699
 30
0.0
 10
55.400011
 20
251.001407
 30
0.0
  0
LINE
  5
179
100
AcDbEntity
  8
frame-thin-parts3
 62
1
100
AcDbLine
 10
55.400011
 20
251.001407
 30
0.0
 11
55.400011
 21
251.001407
 31
0.0
  0
SPLINE
  5
17a
100
AcDbEntity
  8
frame-thin-parts3
 62
1
100
AcDbSpline
 70
8
 71
3
 72
8
 73
4
 74
0
 40
0
 40
0
 40
0
 40
0
 40
1
 40
1
 40
1
 40
1
 10
31.400009
 20
251.001407
 30
0.0
 10
31.400009
 20
251.885116
 30
0.0
 10
32.116501
 20
252.601255
 30
0.0
 10
32.999856
 20
252.601255
 30
0.0
  0
SPLINE
  5
17b
100
AcDbEntity
  8
frame-thin-parts3
 62
1
100
AcDbSpline
 70
8
 71
3
 72
8
 73
4
 74
0
 40
0
 40
0
 40
0
 40
0
 40
1
 40
1
 40
1
 40
1
 10
32.999856
 20
252.601255
 30
0.0
 10
33.883565
 20
252.601255
 30
0.0
 10
34.600056
 20
251.885116
 30
0.0
 10
34.600056
 20
251.001407
 30
0.0
  0
SPLINE
  5
17c
100
AcDbEntity
  8
frame-thin-parts3
 62
1
100
AcDbSpline
 70
8
 71
3
 72
8
 73
4
 74
0
 40
0
 40
0
 40
0
 40
0
 40
1
 40
1
 40
1
 40
1
 10
34.600056
 20
251.001407
 30
0.0
 10
34.600056
 20
250.117699
 30
0.0
 10
33.883565
 20
249.401560
 30
0.0
 10
32.999856
 20
249.401560
 30
0.0
  0
SPLINE
  5
17d
100
AcDbEntity
  8
frame-thin-parts3
 62
1
100
AcDbSpline
 70
8
 71
3
 72
8
 73
4
 74
0
 40
0
 40
0
 40
0
 40
0
 40
1
 40
1
 40
1
 40
1
 10
32.999856
 20
249.401560
 30
0.0
 10
32.116501
 20
249.401560
 30
0.0
 10
31.400009
 20
250.117699
 30
0.0
 10
31.400009
 20
251.001407
 30
0.0
  0
LINE
  5
17e
100
AcDbEntity
  8
frame-thin-parts3
 62
1
100
AcDbLine
 10
31.400009
 20
251.001407
 30
0.0
 11
31.400009
 21
251.001407
 31
0.0
  0
SPLINE
  5
17f
100
AcDbEntity
  8
frame-thin-parts3
 62
1
100
AcDbSpline
 70
8
 71
3
 72
8
 73
4
 74
0
 40
0
 40
0
 40
0
 40
0
 40
1
 40
1
 40
1
 40
1
 10
31.400009
 20
269.001400
 30
0.0
 10
31.400009
 20
269.885108
 30
0.0
 10
32.116501
 20
270.601247
 30
0.0
 10
32.999856
 20
270.601247
 30
0.0
  0
SPLINE
  5
180
100
AcDbEntity
  8
frame-thin-parts3
 62
1
100
AcDbSpline
 70
8
 71
3
 72
8
 73
4
 74
0
 40
0
 40
0
 40
0
 40
0
 40
1
 40
1
 40
1
 40
1
 10
32.999856
 20
270.601247
 30
0.0
 10
33.883565
 20
270.601247
 30
0.0
 10
34.600056
 20
269.885108
 30
0.0
 10
34.600056
 20
269.001400
 30
0.0
  0
SPLINE
  5
181
100
AcDbEntity
  8
frame-thin-parts3
 62
1
100
AcDbSpline
 70
8
 71
3
 72
8
 73
4
 74
0
 40
0
 40
0
 40
0
 40
0
 40
1
 40
1
 40
1
 40
1
 10
34.600056
 20
269.001400
 30
0.0
 10
34.600056
 20
268.117691
 30
0.0
 10
33.883565
 20
267.401552
 30
0.0
 10
32.999856
 20
267.401552
 30
0.0
  0
SPLINE
  5
182
100
AcDbEntity
  8
frame-thin-parts3
 62
1
100
AcDbSpline
 70
8
 71
3
 72
8
 73
4
 74
0
 40
0
 40
0
 40
0
 40
0
 40
1
 40
1
 40
1
 40
1
 10
32.999856
 20
267.401552
 30
0.0
 10
32.116501
 20
267.401552
 30
0.0
 10
31.400009
 20
268.117691
 30
0.0
 10
31.400009
 20
269.001400
 30
0.0
  0
LINE
  5
183
100
AcDbEntity
  8
frame-thin-parts3
 62
1
100
AcDbLine
 10
31.400009
 20
269.001400
 30
0.0
 11
31.400009
 21
269.001400
 31
0.0
  0
LINE
  5
184
100
AcDbEntity
  8
frame-thin-parts3
 62
1
100
AcDbLine
 10
10.000015
 20
120.001401
 30
0.0
 11
39.999885
 21
120.001401
 31
0.0
  0
LINE
  5
185
100
AcDbEntity
  8
frame-thin-parts3
 62
1
100
AcDbLine
 10
39.999991
 20
120.001401
 30
0.0
 11
55.000102
 21
135.001512
 31
0.0
  0
LINE
  5
186
100
AcDbEntity
  8
frame-thin-parts3
 62
1
100
AcDbLine
 10
54.999996
 20
135.001407
 30
0.0
 11
185.000018
 21
135.001407
 31
0.0
  0
LINE
  5
187
100
AcDbEntity
  8
frame-thin-parts3
 62
1
100
AcDbLine
 10
199.999988
 20
120.001401
 30
0.0
 11
184.999877
 21
135.001512
 31
0.0
  0
LINE
  5
188
100
AcDbEntity
  8
frame-thin-parts3
 62
1
100
AcDbLine
 10
199.999988
 20
120.001401
 30
0.0
 11
229.999857
 21
120.001401
 31
0.0
  0
LINE
  5
189
100
AcDbEntity
  8
frame-thin-parts3
 62
1
100
AcDbLine
 10
229.999999
 20
120.001401
 30
0.0
 11
229.999999
 21
150.001271
 31
0.0
  0
LINE
  5
18a
100
AcDbEntity
  8
frame-thin-parts3
 62
1
100
AcDbLine
 10
229.999999
 20
150.001412
 30
0.0
 11
214.999887
 21
165.001523
 31
0.0
  0
LINE
  5
18b
100
AcDbEntity
  8
frame-thin-parts3
 62
1
100
AcDbLine
 10
214.999993
 20
295.001404
 30
0.0
 11
214.999993
 21
165.001382
 31
0.0
  0
LINE
  5
18c
100
AcDbEntity
  8
frame-thin-parts3
 62
1
100
AcDbLine
 10
229.999999
 20
310.001409
 30
0.0
 11
214.999887
 21
295.001298
 31
0.0
  0
LINE
  5
18d
100
AcDbEntity
  8
frame-thin-parts3
 62
1
100
AcDbLine
 10
229.999999
 20
310.001409
 30
0.0
 11
229.999999
 21
340.001279
 31
0.0
  0
LINE
  5
18e
100
AcDbEntity
  8
frame-thin-parts3
 62
1
100
AcDbLine
 10
229.999999
 20
340.001420
 30
0.0
 11
200.000129
 21
340.001420
 31
0.0
  0
LINE
  5
18f
100
AcDbEntity
  8
frame-thin-parts3
 62
1
100
AcDbLine
 10
199.999988
 20
340.001420
 30
0.0
 11
184.999877
 21
325.001309
 31
0.0
  0
LINE
  5
190
100
AcDbEntity
  8
frame-thin-parts3
 62
1
100
AcDbLine
 10
54.999996
 20
325.001415
 30
0.0
 11
185.000018
 21
325.001415
 31
0.0
  0
LINE
  5
191
100
AcDbEntity
  8
frame-thin-parts3
 62
1
100
AcDbLine
 10
39.999991
 20
340.001420
 30
0.0
 11
55.000102
 21
325.001309
 31
0.0
  0
LINE
  5
192
100
AcDbEntity
  8
frame-thin-parts3
 62
1
100
AcDbLine
 10
39.999991
 20
340.001420
 30
0.0
 11
10.000121
 21
340.001420
 31
0.0
  0
LINE
  5
193
100
AcDbEntity
  8
frame-thin-parts3
 62
1
100
AcDbLine
 10
10.000015
 20
340.001420
 30
0.0
 11
10.000015
 21
310.001551
 31
0.0
  0
LINE
  5
194
100
AcDbEntity
  8
frame-thin-parts3
 62
1
100
AcDbLine
 10
10.000015
 20
310.001409
 30
0.0
 11
25.000126
 21
295.001298
 31
0.0
  0
LINE
  5
195
100
AcDbEntity
  8
frame-thin-parts3
 62
1
100
AcDbLine
 10
24.999985
 20
295.001404
 30
0.0
 11
24.999985
 21
165.001382
 31
0.0
  0
LINE
  5
196
100
AcDbEntity
  8
frame-thin-parts3
 62
1
100
AcDbLine
 10
10.000015
 20
150.001412
 30
0.0
 11
25.000126
 21
165.001523
 31
0.0
  0
LINE
  5
197
100
AcDbEntity
  8
frame-thin-parts3
 62
1
100
AcDbLine
 10
10.000015
 20
150.001412
 30
0.0
 11
10.000015
 21
120.001542
 31
0.0
  0
SPLINE
  5
198
100
AcDbEntity
  8
frame-thin-parts3
 62
1
100
AcDbSpline
 70
8
 71
3
 72
8
 73
4
 74
0
 40
0
 40
0
 40
0
 40
0
 40
1
 40
1
 40
1
 40
1
 10
83.499995
 20
335.101407
 30
0.0
 10
83.499995
 20
335.985116
 30
0.0
 10
84.216487
 20
336.701254
 30
0.0
 10
85.099842
 20
336.701254
 30
0.0
  0
SPLINE
  5
199
100
AcDbEntity
  8
frame-thin-parts3
 62
1
100
AcDbSpline
 70
8
 71
3
 72
8
 73
4
 74
0
 40
0
 40
0
 40
0
 40
0
 40
1
 40
1
 40
1
 40
1
 10
85.099842
 20
336.701254
 30
0.0
 10
85.983551
 20
336.701254
 30
0.0
 10
86.700042
 20
335.985116
 30
0.0
 10
86.700042
 20
335.101407
 30
0.0
  0
SPLINE
  5
19a
100
AcDbEntity
  8
frame-thin-parts3
 62
1
100
AcDbSpline
 70
8
 71
3
 72
8
 73
4
 74
0
 40
0
 40
0
 40
0
 40
0
 40
1
 40
1
 40
1
 40
1
 10
86.700042
 20
335.101407
 30
0.0
 10
86.700042
 20
334.217699
 30
0.0
 10
85.983551
 20
333.501560
 30
0.0
 10
85.099842
 20
333.501560
 30
0.0
  0
SPLINE
  5
19b
100
AcDbEntity
  8
frame-thin-parts3
 62
1
100
AcDbSpline
 70
8
 71
3
 72
8
 73
4
 74
0
 40
0
 40
0
 40
0
 40
0
 40
1
 40
1
 40
1
 40
1
 10
85.099842
 20
333.501560
 30
0.0
 10
84.216487
 20
333.501560
 30
0.0
 10
83.499995
 20
334.217699
 30
0.0
 10
83.499995
 20
335.101407
 30
0.0
  0
LINE
  5
19c
100
AcDbEntity
  8
frame-thin-parts3
 62
1
100
AcDbLine
 10
83.499995
 20
335.101407
 30
0.0
 11
83.499995
 21
335.101407
 31
0.0
  0
SPLINE
  5
19d
100
AcDbEntity
  8
frame-thin-parts3
 62
1
100
AcDbSpline
 70
8
 71
3
 72
8
 73
4
 74
0
 40
0
 40
0
 40
0
 40
0
 40
1
 40
1
 40
1
 40
1
 10
105.100014
 20
330.201394
 30
0.0
 10
107.806172
 20
330.201394
 30
0.0
 10
110.000097
 20
332.395319
 30
0.0
 10
110.000097
 20
335.101478
 30
0.0
  0
SPLINE
  5
19e
100
AcDbEntity
  8
frame-thin-parts3
 62
1
100
AcDbSpline
 70
8
 71
3
 72
8
 73
4
 74
0
 40
0
 40
0
 40
0
 40
0
 40
1
 40
1
 40
1
 40
1
 10
110.000097
 20
335.101478
 30
0.0
 10
110.000097
 20
337.807636
 30
0.0
 10
107.806172
 20
340.001561
 30
0.0
 10
105.100014
 20
340.001561
 30
0.0
  0
LINE
  5
19f
100
AcDbEntity
  8
frame-thin-parts3
 62
1
100
AcDbLine
 10
105.100014
 20
340.001420
 30
0.0
 11
85.099984
 21
340.001420
 31
0.0
  0
SPLINE
  5
1a0
100
AcDbEntity
  8
frame-thin-parts3
 62
1
100
AcDbSpline
 70
8
 71
3
 72
8
 73
4
 74
0
 40
0
 40
0
 40
0
 40
0
 40
1
 40
1
 40
1
 40
1
 10
85.099984
 20
340.001420
 30
0.0
 10
82.393825
 20
340.001420
 30
0.0
 10
80.199900
 20
337.807495
 30
0.0
 10
80.199900
 20
335.101337
 30
0.0
  0
SPLINE
  5
1a1
100
AcDbEntity
  8
frame-thin-parts3
 62
1
100
AcDbSpline
 70
8
 71
3
 72
8
 73
4
 74
0
 40
0
 40
0
 40
0
 40
0
 40
1
 40
1
 40
1
 40
1
 10
80.199900
 20
335.101337
 30
0.0
 10
80.199900
 20
332.395178
 30
0.0
 10
82.393825
 20
330.201253
 30
0.0
 10
85.099984
 20
330.201253
 30
0.0
  0
LINE
  5
1a2
100
AcDbEntity
  8
frame-thin-parts3
 62
1
100
AcDbLine
 10
85.099984
 20
330.201394
 30
0.0
 11
105.100014
 21
330.201394
 31
0.0
  0
SPLINE
  5
1a3
100
AcDbEntity
  8
frame-thin-parts3
 62
1
100
AcDbSpline
 70
8
 71
3
 72
8
 73
4
 74
0
 40
0
 40
0
 40
0
 40
0
 40
1
 40
1
 40
1
 40
1
 10
103.499991
 20
335.101407
 30
0.0
 10
103.499991
 20
335.985116
 30
0.0
 10
104.216482
 20
336.701254
 30
0.0
 10
105.099838
 20
336.701254
 30
0.0
  0
SPLINE
  5
1a4
100
AcDbEntity
  8
frame-thin-parts3
 62
1
100
AcDbSpline
 70
8
 71
3
 72
8
 73
4
 74
0
 40
0
 40
0
 40
0
 40
0
 40
1
 40
1
 40
1
 40
1
 10
105.099838
 20
336.701254
 30
0.0
 10
105.983546
 20
336.701254
 30
0.0
 10
106.700038
 20
335.985116
 30
0.0
 10
106.700038
 20
335.101407
 30
0.0
  0
SPLINE
  5
1a5
100
AcDbEntity
  8
frame-thin-parts3
 62
1
100
AcDbSpline
 70
8
 71
3
 72
8
 73
4
 74
0
 40
0
 40
0
 40
0
 40
0
 40
1
 40
1
 40
1
 40
1
 10
106.700038
 20
335.101407
 30
0.0
 10
106.700038
 20
334.217699
 30
0.0
 10
105.983546
 20
333.501560
 30
0.0
 10
105.099838
 20
333.501560
 30
0.0
  0
SPLINE
  5
1a6
100
AcDbEntity
  8
frame-thin-parts3
 62
1
100
AcDbSpline
 70
8
 71
3
 72
8
 73
4
 74
0
 40
0
 40
0
 40
0
 40
0
 40
1
 40
1
 40
1
 40
1
 10
105.099838
 20
333.501560
 30
0.0
 10
104.216482
 20
333.501560
 30
0.0
 10
103.499991
 20
334.217699
 30
0.0
 10
103.499991
 20
335.101407
 30
0.0
  0
LINE
  5
1a7
100
AcDbEntity
  8
frame-thin-parts3
 62
1
100
AcDbLine
 10
103.499991
 20
335.101407
 30
0.0
 11
103.499991
 21
335.101407
 31
0.0
  0
SPLINE
  5
1a8
100
AcDbEntity
  8
frame-thin-parts3
 62
1
100
AcDbSpline
 70
8
 71
3
 72
8
 73
4
 74
0
 40
0
 40
0
 40
0
 40
0
 40
1
 40
1
 40
1
 40
1
 10
133.300011
 20
335.101407
 30
0.0
 10
133.300011
 20
335.985116
 30
0.0
 10
134.016503
 20
336.701254
 30
0.0
 10
134.899859
 20
336.701254
 30
0.0
  0
SPLINE
  5
1a9
100
AcDbEntity
  8
frame-thin-parts3
 62
1
100
AcDbSpline
 70
8
 71
3
 72
8
 73
4
 74
0
 40
0
 40
0
 40
0
 40
0
 40
1
 40
1
 40
1
 40
1
 10
134.899859
 20
336.701254
 30
0.0
 10
135.783567
 20
336.701254
 30
0.0
 10
136.500059
 20
335.985116
 30
0.0
 10
136.500059
 20
335.101407
 30
0.0
  0
SPLINE
  5
1aa
100
AcDbEntity
  8
frame-thin-parts3
 62
1
100
AcDbSpline
 70
8
 71
3
 72
8
 73
4
 74
0
 40
0
 40
0
 40
0
 40
0
 40
1
 40
1
 40
1
 40
1
 10
136.500059
 20
335.101407
 30
0.0
 10
136.500059
 20
334.217699
 30
0.0
 10
135.783567
 20
333.501560
 30
0.0
 10
134.899859
 20
333.501560
 30
0.0
  0
SPLINE
  5
1ab
100
AcDbEntity
  8
frame-thin-parts3
 62
1
100
AcDbSpline
 70
8
 71
3
 72
8
 73
4
 74
0
 40
0
 40
0
 40
0
 40
0
 40
1
 40
1
 40
1
 40
1
 10
134.899859
 20
333.501560
 30
0.0
 10
134.016503
 20
333.501560
 30
0.0
 10
133.300011
 20
334.217699
 30
0.0
 10
133.300011
 20
335.101407
 30
0.0
  0
LINE
  5
1ac
100
AcDbEntity
  8
frame-thin-parts3
 62
1
100
AcDbLine
 10
133.300011
 20
335.101407
 30
0.0
 11
133.300011
 21
335.101407
 31
0.0
  0
SPLINE
  5
1ad
100
AcDbEntity
  8
frame-thin-parts3
 62
1
100
AcDbSpline
 70
8
 71
3
 72
8
 73
4
 74
0
 40
0
 40
0
 40
0
 40
0
 40
1
 40
1
 40
1
 40
1
 10
154.899995
 20
330.201394
 30
0.0
 10
157.606153
 20
330.201394
 30
0.0
 10
159.800078
 20
332.395319
 30
0.0
 10
159.800078
 20
335.101478
 30
0.0
  0
SPLINE
  5
1ae
100
AcDbEntity
  8
frame-thin-parts3
 62
1
100
AcDbSpline
 70
8
 71
3
 72
8
 73
4
 74
0
 40
0
 40
0
 40
0
 40
0
 40
1
 40
1
 40
1
 40
1
 10
159.800078
 20
335.101478
 30
0.0
 10
159.800078
 20
337.807636
 30
0.0
 10
157.606153
 20
340.001561
 30
0.0
 10
154.899995
 20
340.001561
 30
0.0
  0
LINE
  5
1af
100
AcDbEntity
  8
frame-thin-parts3
 62
1
100
AcDbLine
 10
154.899995
 20
340.001420
 30
0.0
 11
134.899964
 21
340.001420
 31
0.0
  0
SPLINE
  5
1b0
100
AcDbEntity
  8
frame-thin-parts3
 62
1
100
AcDbSpline
 70
8
 71
3
 72
8
 73
4
 74
0
 40
0
 40
0
 40
0
 40
0
 40
1
 40
1
 40
1
 40
1
 10
134.900000
 20
340.001420
 30
0.0
 10
132.193841
 20
340.001420
 30
0.0
 10
129.999916
 20
337.807495
 30
0.0
 10
129.999916
 20
335.101337
 30
0.0
  0
SPLINE
  5
1b1
100
AcDbEntity
  8
frame-thin-parts3
 62
1
100
AcDbSpline
 70
8
 71
3
 72
8
 73
4
 74
0
 40
0
 40
0
 40
0
 40
0
 40
1
 40
1
 40
1
 40
1
 10
129.999916
 20
335.101337
 30
0.0
 10
129.999916
 20
332.395178
 30
0.0
 10
132.193841
 20
330.201253
 30
0.0
 10
134.900000
 20
330.201253
 30
0.0
  0
LINE
  5
1b2
100
AcDbEntity
  8
frame-thin-parts3
 62
1
100
AcDbLine
 10
134.900000
 20
330.201394
 30
0.0
 11
154.900030
 21
330.201394
 31
0.0
  0
SPLINE
  5
1b3
100
AcDbEntity
  8
frame-thin-parts3
 62
1
100
AcDbSpline
 70
8
 71
3
 72
8
 73
4
 74
0
 40
0
 40
0
 40
0
 40
0
 40
1
 40
1
 40
1
 40
1
 10
153.300007
 20
335.101407
 30
0.0
 10
153.300007
 20
335.985116
 30
0.0
 10
154.016498
 20
336.701254
 30
0.0
 10
154.899854
 20
336.701254
 30
0.0
  0
SPLINE
  5
1b4
100
AcDbEntity
  8
frame-thin-parts3
 62
1
100
AcDbSpline
 70
8
 71
3
 72
8
 73
4
 74
0
 40
0
 40
0
 40
0
 40
0
 40
1
 40
1
 40
1
 40
1
 10
154.899854
 20
336.701254
 30
0.0
 10
155.783562
 20
336.701254
 30
0.0
 10
156.500054
 20
335.985116
 30
0.0
 10
156.500054
 20
335.101407
 30
0.0
  0
SPLINE
  5
1b5
100
AcDbEntity
  8
frame-thin-parts3
 62
1
100
AcDbSpline
 70
8
 71
3
 72
8
 73
4
 74
0
 40
0
 40
0
 40
0
 40
0
 40
1
 40
1
 40
1
 40
1
 10
156.500054
 20
335.101407
 30
0.0
 10
156.500054
 20
334.217699
 30
0.0
 10
155.783562
 20
333.501560
 30
0.0
 10
154.899854
 20
333.501560
 30
0.0
  0
SPLINE
  5
1b6
100
AcDbEntity
  8
frame-thin-parts3
 62
1
100
AcDbSpline
 70
8
 71
3
 72
8
 73
4
 74
0
 40
0
 40
0
 40
0
 40
0
 40
1
 40
1
 40
1
 40
1
 10
154.899854
 20
333.501560
 30
0.0
 10
154.016498
 20
333.501560
 30
0.0
 10
153.300007
 20
334.217699
 30
0.0
 10
153.300007
 20
335.101407
 30
0.0
  0
LINE
  5
1b7
100
AcDbEntity
  8
frame-thin-parts3
 62
1
100
AcDbLine
 10
153.300007
 20
335.101407
 30
0.0
 11
153.300007
 21
335.101407
 31
0.0
  0
SPLINE
  5
1b8
100
AcDbEntity
  8
frame-thin-parts3
 62
1
100
AcDbSpline
 70
8
 71
3
 72
8
 73
4
 74
0
 40
0
 40
0
 40
0
 40
0
 40
1
 40
1
 40
1
 40
1
 10
83.499995
 20
335.101407
 30
0.0
 10
83.499995
 20
335.985116
 30
0.0
 10
84.216487
 20
336.701254
 30
0.0
 10
85.099842
 20
336.701254
 30
0.0
  0
SPLINE
  5
1b9
100
AcDbEntity
  8
frame-thin-parts3
 62
1
100
AcDbSpline
 70
8
 71
3
 72
8
 73
4
 74
0
 40
0
 40
0
 40
0
 40
0
 40
1
 40
1
 40
1
 40
1
 10
85.099842
 20
336.701254
 30
0.0
 10
85.983551
 20
336.701254
 30
0.0
 10
86.700042
 20
335.985116
 30
0.0
 10
86.700042
 20
335.101407
 30
0.0
  0
SPLINE
  5
1ba
100
AcDbEntity
  8
frame-thin-parts3
 62
1
100
AcDbSpline
 70
8
 71
3
 72
8
 73
4
 74
0
 40
0
 40
0
 40
0
 40
0
 40
1
 40
1
 40
1
 40
1
 10
86.700042
 20
335.101407
 30
0.0
 10
86.700042
 20
334.217699
 30
0.0
 10
85.983551
 20
333.501560
 30
0.0
 10
85.099842
 20
333.501560
 30
0.0
  0
SPLINE
  5
1bb
100
AcDbEntity
  8
frame-thin-parts3
 62
1
100
AcDbSpline
 70
8
 71
3
 72
8
 73
4
 74
0
 40
0
 40
0
 40
0
 40
0
 40
1
 40
1
 40
1
 40
1
 10
85.099842
 20
333.501560
 30
0.0
 10
84.216487
 20
333.501560
 30
0.0
 10
83.499995
 20
334.217699
 30
0.0
 10
83.499995
 20
335.101407
 30
0.0
  0
LINE
  5
1bc
100
AcDbEntity
  8
frame-thin-parts3
 62
1
100
AcDbLine
 10
83.499995
 20
335.101407
 30
0.0
 11
83.499995
 21
335.101407
 31
0.0
  0
SPLINE
  5
1bd
100
AcDbEntity
  8
frame-thin-parts3
 62
1
100
AcDbSpline
 70
8
 71
3
 72
8
 73
4
 74
0
 40
0
 40
0
 40
0
 40
0
 40
1
 40
1
 40
1
 40
1
 10
105.100014
 20
330.201394
 30
0.0
 10
107.806172
 20
330.201394
 30
0.0
 10
110.000097
 20
332.395319
 30
0.0
 10
110.000097
 20
335.101478
 30
0.0
  0
SPLINE
  5
1be
100
AcDbEntity
  8
frame-thin-parts3
 62
1
100
AcDbSpline
 70
8
 71
3
 72
8
 73
4
 74
0
 40
0
 40
0
 40
0
 40
0
 40
1
 40
1
 40
1
 40
1
 10
110.000097
 20
335.101478
 30
0.0
 10
110.000097
 20
337.807636
 30
0.0
 10
107.806172
 20
340.001561
 30
0.0
 10
105.100014
 20
340.001561
 30
0.0
  0
LINE
  5
1bf
100
AcDbEntity
  8
frame-thin-parts3
 62
1
100
AcDbLine
 10
105.100014
 20
340.001420
 30
0.0
 11
85.099984
 21
340.001420
 31
0.0
  0
SPLINE
  5
1c0
100
AcDbEntity
  8
frame-thin-parts3
 62
1
100
AcDbSpline
 70
8
 71
3
 72
8
 73
4
 74
0
 40
0
 40
0
 40
0
 40
0
 40
1
 40
1
 40
1
 40
1
 10
85.099984
 20
340.001420
 30
0.0
 10
82.393825
 20
340.001420
 30
0.0
 10
80.199900
 20
337.807495
 30
0.0
 10
80.199900
 20
335.101337
 30
0.0
  0
SPLINE
  5
1c1
100
AcDbEntity
  8
frame-thin-parts3
 62
1
100
AcDbSpline
 70
8
 71
3
 72
8
 73
4
 74
0
 40
0
 40
0
 40
0
 40
0
 40
1
 40
1
 40
1
 40
1
 10
80.199900
 20
335.101337
 30
0.0
 10
80.199900
 20
332.395178
 30
0.0
 10
82.393825
 20
330.201253
 30
0.0
 10
85.099984
 20
330.201253
 30
0.0
  0
LINE
  5
1c2
100
AcDbEntity
  8
frame-thin-parts3
 62
1
100
AcDbLine
 10
85.099984
 20
330.201394
 30
0.0
 11
105.100014
 21
330.201394
 31
0.0
  0
SPLINE
  5
1c3
100
AcDbEntity
  8
frame-thin-parts3
 62
1
100
AcDbSpline
 70
8
 71
3
 72
8
 73
4
 74
0
 40
0
 40
0
 40
0
 40
0
 40
1
 40
1
 40
1
 40
1
 10
103.499991
 20
335.101407
 30
0.0
 10
103.499991
 20
335.985116
 30
0.0
 10
104.216482
 20
336.701254
 30
0.0
 10
105.099838
 20
336.701254
 30
0.0
  0
SPLINE
  5
1c4
100
AcDbEntity
  8
frame-thin-parts3
 62
1
100
AcDbSpline
 70
8
 71
3
 72
8
 73
4
 74
0
 40
0
 40
0
 40
0
 40
0
 40
1
 40
1
 40
1
 40
1
 10
105.099838
 20
336.701254
 30
0.0
 10
105.983546
 20
336.701254
 30
0.0
 10
106.700038
 20
335.985116
 30
0.0
 10
106.700038
 20
335.101407
 30
0.0
  0
SPLINE
  5
1c5
100
AcDbEntity
  8
frame-thin-parts3
 62
1
100
AcDbSpline
 70
8
 71
3
 72
8
 73
4
 74
0
 40
0
 40
0
 40
0
 40
0
 40
1
 40
1
 40
1
 40
1
 10
106.700038
 20
335.101407
 30
0.0
 10
106.700038
 20
334.217699
 30
0.0
 10
105.983546
 20
333.501560
 30
0.0
 10
105.099838
 20
333.501560
 30
0.0
  0
SPLINE
  5
1c6
100
AcDbEntity
  8
frame-thin-parts3
 62
1
100
AcDbSpline
 70
8
 71
3
 72
8
 73
4
 74
0
 40
0
 40
0
 40
0
 40
0
 40
1
 40
1
 40
1
 40
1
 10
105.099838
 20
333.501560
 30
0.0
 10
104.216482
 20
333.501560
 30
0.0
 10
103.499991
 20
334.217699
 30
0.0
 10
103.499991
 20
335.101407
 30
0.0
  0
LINE
  5
1c7
100
AcDbEntity
  8
frame-thin-parts3
 62
1
100
AcDbLine
 10
103.499991
 20
335.101407
 30
0.0
 11
103.499991
 21
335.101407
 31
0.0
  0
SPLINE
  5
1c8
100
AcDbEntity
  8
frame-thin-parts3
 62
1
100
AcDbSpline
 70
8
 71
3
 72
8
 73
4
 74
0
 40
0
 40
0
 40
0
 40
0
 40
1
 40
1
 40
1
 40
1
 10
133.300011
 20
335.101407
 30
0.0
 10
133.300011
 20
335.985116
 30
0.0
 10
134.016503
 20
336.701254
 30
0.0
 10
134.899859
 20
336.701254
 30
0.0
  0
SPLINE
  5
1c9
100
AcDbEntity
  8
frame-thin-parts3
 62
1
100
AcDbSpline
 70
8
 71
3
 72
8
 73
4
 74
0
 40
0
 40
0
 40
0
 40
0
 40
1
 40
1
 40
1
 40
1
 10
134.899859
 20
336.701254
 30
0.0
 10
135.783567
 20
336.701254
 30
0.0
 10
136.500059
 20
335.985116
 30
0.0
 10
136.500059
 20
335.101407
 30
0.0
  0
SPLINE
  5
1ca
100
AcDbEntity
  8
frame-thin-parts3
 62
1
100
AcDbSpline
 70
8
 71
3
 72
8
 73
4
 74
0
 40
0
 40
0
 40
0
 40
0
 40
1
 40
1
 40
1
 40
1
 10
136.500059
 20
335.101407
 30
0.0
 10
136.500059
 20
334.217699
 30
0.0
 10
135.783567
 20
333.501560
 30
0.0
 10
134.899859
 20
333.501560
 30
0.0
  0
SPLINE
  5
1cb
100
AcDbEntity
  8
frame-thin-parts3
 62
1
100
AcDbSpline
 70
8
 71
3
 72
8
 73
4
 74
0
 40
0
 40
0
 40
0
 40
0
 40
1
 40
1
 40
1
 40
1
 10
134.899859
 20
333.501560
 30
0.0
 10
134.016503
 20
333.501560
 30
0.0
 10
133.300011
 20
334.217699
 30
0.0
 10
133.300011
 20
335.101407
 30
0.0
  0
LINE
  5
1cc
100
AcDbEntity
  8
frame-thin-parts3
 62
1
100
AcDbLine
 10
133.300011
 20
335.101407
 30
0.0
 11
133.300011
 21
335.101407
 31
0.0
  0
SPLINE
  5
1cd
100
AcDbEntity
  8
frame-thin-parts3
 62
1
100
AcDbSpline
 70
8
 71
3
 72
8
 73
4
 74
0
 40
0
 40
0
 40
0
 40
0
 40
1
 40
1
 40
1
 40
1
 10
154.899995
 20
330.201394
 30
0.0
 10
157.606153
 20
330.201394
 30
0.0
 10
159.800078
 20
332.395319
 30
0.0
 10
159.800078
 20
335.101478
 30
0.0
  0
SPLINE
  5
1ce
100
AcDbEntity
  8
frame-thin-parts3
 62
1
100
AcDbSpline
 70
8
 71
3
 72
8
 73
4
 74
0
 40
0
 40
0
 40
0
 40
0
 40
1
 40
1
 40
1
 40
1
 10
159.800078
 20
335.101478
 30
0.0
 10
159.800078
 20
337.807636
 30
0.0
 10
157.606153
 20
340.001561
 30
0.0
 10
154.899995
 20
340.001561
 30
0.0
  0
LINE
  5
1cf
100
AcDbEntity
  8
frame-thin-parts3
 62
1
100
AcDbLine
 10
154.899995
 20
340.001420
 30
0.0
 11
134.899964
 21
340.001420
 31
0.0
  0
SPLINE
  5
1d0
100
AcDbEntity
  8
frame-thin-parts3
 62
1
100
AcDbSpline
 70
8
 71
3
 72
8
 73
4
 74
0
 40
0
 40
0
 40
0
 40
0
 40
1
 40
1
 40
1
 40
1
 10
134.900000
 20
340.001420
 30
0.0
 10
132.193841
 20
340.001420
 30
0.0
 10
129.999916
 20
337.807495
 30
0.0
 10
129.999916
 20
335.101337
 30
0.0
  0
SPLINE
  5
1d1
100
AcDbEntity
  8
frame-thin-parts3
 62
1
100
AcDbSpline
 70
8
 71
3
 72
8
 73
4
 74
0
 40
0
 40
0
 40
0
 40
0
 40
1
 40
1
 40
1
 40
1
 10
129.999916
 20
335.101337
 30
0.0
 10
129.999916
 20
332.395178
 30
0.0
 10
132.193841
 20
330.201253
 30
0.0
 10
134.900000
 20
330.201253
 30
0.0
  0
LINE
  5
1d2
100
AcDbEntity
  8
frame-thin-parts3
 62
1
100
AcDbLine
 10
134.900000
 20
330.201394
 30
0.0
 11
154.900030
 21
330.201394
 31
0.0
  0
SPLINE
  5
1d3
100
AcDbEntity
  8
frame-thin-parts3
 62
1
100
AcDbSpline
 70
8
 71
3
 72
8
 73
4
 74
0
 40
0
 40
0
 40
0
 40
0
 40
1
 40
1
 40
1
 40
1
 10
153.300007
 20
335.101407
 30
0.0
 10
153.300007
 20
335.985116
 30
0.0
 10
154.016498
 20
336.701254
 30
0.0
 10
154.899854
 20
336.701254
 30
0.0
  0
SPLINE
  5
1d4
100
AcDbEntity
  8
frame-thin-parts3
 62
1
100
AcDbSpline
 70
8
 71
3
 72
8
 73
4
 74
0
 40
0
 40
0
 40
0
 40
0
 40
1
 40
1
 40
1
 40
1
 10
154.899854
 20
336.701254
 30
0.0
 10
155.783562
 20
336.701254
 30
0.0
 10
156.500054
 20
335.985116
 30
0.0
 10
156.500054
 20
335.101407
 30
0.0
  0
SPLINE
  5
1d5
100
AcDbEntity
  8
frame-thin-parts3
 62
1
100
AcDbSpline
 70
8
 71
3
 72
8
 73
4
 74
0
 40
0
 40
0
 40
0
 40
0
 40
1
 40
1
 40
1
 40
1
 10
156.500054
 20
335.101407
 30
0.0
 10
156.500054
 20
334.217699
 30
0.0
 10
155.783562
 20
333.501560
 30
0.0
 10
154.899854
 20
333.501560
 30
0.0
  0
SPLINE
  5
1d6
100
AcDbEntity
  8
frame-thin-parts3
 62
1
100
AcDbSpline
 70
8
 71
3
 72
8
 73
4
 74
0
 40
0
 40
0
 40
0
 40
0
 40
1
 40
1
 40
1
 40
1
 10
154.899854
 20
333.501560
 30
0.0
 10
154.016498
 20
333.501560
 30
0.0
 10
153.300007
 20
334.217699
 30
0.0
 10
153.300007
 20
335.101407
 30
0.0
  0
LINE
  5
1d7
100
AcDbEntity
  8
frame-thin-parts3
 62
1
100
AcDbLine
 10
153.300007
 20
335.101407
 30
0.0
 11
153.300007
 21
335.101407
 31
0.0
  0
SPLINE
  5
1d8
100
AcDbEntity
  8
frame-thin-parts3
 62
1
100
AcDbSpline
 70
8
 71
3
 72
8
 73
4
 74
0
 40
0
 40
0
 40
0
 40
0
 40
1
 40
1
 40
1
 40
1
 10
14.899993
 20
241.601397
 30
0.0
 10
15.783701
 20
241.601397
 30
0.0
 10
16.499840
 20
240.884905
 30
0.0
 10
16.499840
 20
240.001549
 30
0.0
  0
SPLINE
  5
1d9
100
AcDbEntity
  8
frame-thin-parts3
 62
1
100
AcDbSpline
 70
8
 71
3
 72
8
 73
4
 74
0
 40
0
 40
0
 40
0
 40
0
 40
1
 40
1
 40
1
 40
1
 10
16.499840
 20
240.001549
 30
0.0
 10
16.499840
 20
239.117841
 30
0.0
 10
15.783701
 20
238.401349
 30
0.0
 10
14.899993
 20
238.401349
 30
0.0
  0
SPLINE
  5
1da
100
AcDbEntity
  8
frame-thin-parts3
 62
1
100
AcDbSpline
 70
8
 71
3
 72
8
 73
4
 74
0
 40
0
 40
0
 40
0
 40
0
 40
1
 40
1
 40
1
 40
1
 10
14.899993
 20
238.401349
 30
0.0
 10
14.016284
 20
238.401349
 30
0.0
 10
13.300146
 20
239.117841
 30
0.0
 10
13.300146
 20
240.001549
 30
0.0
  0
SPLINE
  5
1db
100
AcDbEntity
  8
frame-thin-parts3
 62
1
100
AcDbSpline
 70
8
 71
3
 72
8
 73
4
 74
0
 40
0
 40
0
 40
0
 40
0
 40
1
 40
1
 40
1
 40
1
 10
13.300146
 20
240.001549
 30
0.0
 10
13.300146
 20
240.884905
 30
0.0
 10
14.016284
 20
241.601397
 30
0.0
 10
14.899993
 20
241.601397
 30
0.0
  0
LINE
  5
1dc
100
AcDbEntity
  8
frame-thin-parts3
 62
1
100
AcDbLine
 10
14.899993
 20
241.601397
 30
0.0
 11
14.899993
 21
241.601397
 31
0.0
  0
SPLINE
  5
1dd
100
AcDbEntity
  8
frame-thin-parts3
 62
1
100
AcDbSpline
 70
8
 71
3
 72
8
 73
4
 74
0
 40
0
 40
0
 40
0
 40
0
 40
1
 40
1
 40
1
 40
1
 10
10.000015
 20
220.001378
 30
0.0
 10
10.000015
 20
217.295219
 30
0.0
 10
12.193940
 20
215.101294
 30
0.0
 10
14.900099
 20
215.101294
 30
0.0
  0
SPLINE
  5
1de
100
AcDbEntity
  8
frame-thin-parts3
 62
1
100
AcDbSpline
 70
8
 71
3
 72
8
 73
4
 74
0
 40
0
 40
0
 40
0
 40
0
 40
1
 40
1
 40
1
 40
1
 10
14.900099
 20
215.101294
 30
0.0
 10
17.606257
 20
215.101294
 30
0.0
 10
19.800182
 20
217.295219
 30
0.0
 10
19.800182
 20
220.001378
 30
0.0
  0
LINE
  5
1df
100
AcDbEntity
  8
frame-thin-parts3
 62
1
100
AcDbLine
 10
19.800006
 20
220.001378
 30
0.0
 11
19.800006
 21
240.001408
 31
0.0
  0
SPLINE
  5
1e0
100
AcDbEntity
  8
frame-thin-parts3
 62
1
100
AcDbSpline
 70
8
 71
3
 72
8
 73
4
 74
0
 40
0
 40
0
 40
0
 40
0
 40
1
 40
1
 40
1
 40
1
 10
19.800006
 20
240.001408
 30
0.0
 10
19.800006
 20
242.707567
 30
0.0
 10
17.606081
 20
244.901492
 30
0.0
 10
14.899922
 20
244.901492
 30
0.0
  0
SPLINE
  5
1e1
100
AcDbEntity
  8
frame-thin-parts3
 62
1
100
AcDbSpline
 70
8
 71
3
 72
8
 73
4
 74
0
 40
0
 40
0
 40
0
 40
0
 40
1
 40
1
 40
1
 40
1
 10
14.899922
 20
244.901492
 30
0.0
 10
12.193764
 20
244.901492
 30
0.0
 10
9.999839
 20
242.707567
 30
0.0
 10
9.999839
 20
240.001408
 30
0.0
  0
LINE
  5
1e2
100
AcDbEntity
  8
frame-thin-parts3
 62
1
100
AcDbLine
 10
10.000015
 20
240.001408
 30
0.0
 11
10.000015
 21
220.001378
 31
0.0
  0
SPLINE
  5
1e3
100
AcDbEntity
  8
frame-thin-parts3
 62
1
100
AcDbSpline
 70
8
 71
3
 72
8
 73
4
 74
0
 40
0
 40
0
 40
0
 40
0
 40
1
 40
1
 40
1
 40
1
 10
14.899993
 20
221.601401
 30
0.0
 10
15.783701
 20
221.601401
 30
0.0
 10
16.499840
 20
220.884910
 30
0.0
 10
16.499840
 20
220.001554
 30
0.0
  0
SPLINE
  5
1e4
100
AcDbEntity
  8
frame-thin-parts3
 62
1
100
AcDbSpline
 70
8
 71
3
 72
8
 73
4
 74
0
 40
0
 40
0
 40
0
 40
0
 40
1
 40
1
 40
1
 40
1
 10
16.499840
 20
220.001554
 30
0.0
 10
16.499840
 20
219.117846
 30
0.0
 10
15.783701
 20
218.401354
 30
0.0
 10
14.899993
 20
218.401354
 30
0.0
  0
SPLINE
  5
1e5
100
AcDbEntity
  8
frame-thin-parts3
 62
1
100
AcDbSpline
 70
8
 71
3
 72
8
 73
4
 74
0
 40
0
 40
0
 40
0
 40
0
 40
1
 40
1
 40
1
 40
1
 10
14.899993
 20
218.401354
 30
0.0
 10
14.016284
 20
218.401354
 30
0.0
 10
13.300146
 20
219.117846
 30
0.0
 10
13.300146
 20
220.001554
 30
0.0
  0
SPLINE
  5
1e6
100
AcDbEntity
  8
frame-thin-parts3
 62
1
100
AcDbSpline
 70
8
 71
3
 72
8
 73
4
 74
0
 40
0
 40
0
 40
0
 40
0
 40
1
 40
1
 40
1
 40
1
 10
13.300146
 20
220.001554
 30
0.0
 10
13.300146
 20
220.884910
 30
0.0
 10
14.016284
 20
221.601401
 30
0.0
 10
14.899993
 20
221.601401
 30
0.0
  0
LINE
  5
1e7
100
AcDbEntity
  8
frame-thin-parts3
 62
1
100
AcDbLine
 10
14.899993
 20
221.601401
 30
0.0
 11
14.899993
 21
221.601401
 31
0.0
  0
SPLINE
  5
1e8
100
AcDbEntity
  8
frame-thin-parts3
 62
1
100
AcDbSpline
 70
8
 71
3
 72
8
 73
4
 74
0
 40
0
 40
0
 40
0
 40
0
 40
1
 40
1
 40
1
 40
1
 10
14.899993
 20
281.601387
 30
0.0
 10
15.783701
 20
281.601387
 30
0.0
 10
16.499840
 20
280.884896
 30
0.0
 10
16.499840
 20
280.001540
 30
0.0
  0
SPLINE
  5
1e9
100
AcDbEntity
  8
frame-thin-parts3
 62
1
100
AcDbSpline
 70
8
 71
3
 72
8
 73
4
 74
0
 40
0
 40
0
 40
0
 40
0
 40
1
 40
1
 40
1
 40
1
 10
16.499840
 20
280.001540
 30
0.0
 10
16.499840
 20
279.117832
 30
0.0
 10
15.783701
 20
278.401340
 30
0.0
 10
14.899993
 20
278.401340
 30
0.0
  0
SPLINE
  5
1ea
100
AcDbEntity
  8
frame-thin-parts3
 62
1
100
AcDbSpline
 70
8
 71
3
 72
8
 73
4
 74
0
 40
0
 40
0
 40
0
 40
0
 40
1
 40
1
 40
1
 40
1
 10
14.899993
 20
278.401340
 30
0.0
 10
14.016284
 20
278.401340
 30
0.0
 10
13.300146
 20
279.117832
 30
0.0
 10
13.300146
 20
280.001540
 30
0.0
  0
SPLINE
  5
1eb
100
AcDbEntity
  8
frame-thin-parts3
 62
1
100
AcDbSpline
 70
8
 71
3
 72
8
 73
4
 74
0
 40
0
 40
0
 40
0
 40
0
 40
1
 40
1
 40
1
 40
1
 10
13.300146
 20
280.001540
 30
0.0
 10
13.300146
 20
280.884896
 30
0.0
 10
14.016284
 20
281.601387
 30
0.0
 10
14.899993
 20
281.601387
 30
0.0
  0
LINE
  5
1ec
100
AcDbEntity
  8
frame-thin-parts3
 62
1
100
AcDbLine
 10
14.899993
 20
281.601387
 30
0.0
 11
14.899993
 21
281.601387
 31
0.0
  0
SPLINE
  5
1ed
100
AcDbEntity
  8
frame-thin-parts3
 62
1
100
AcDbSpline
 70
8
 71
3
 72
8
 73
4
 74
0
 40
0
 40
0
 40
0
 40
0
 40
1
 40
1
 40
1
 40
1
 10
10.000015
 20
260.001404
 30
0.0
 10
10.000015
 20
257.295245
 30
0.0
 10
12.193940
 20
255.101320
 30
0.0
 10
14.900099
 20
255.101320
 30
0.0
  0
SPLINE
  5
1ee
100
AcDbEntity
  8
frame-thin-parts3
 62
1
100
AcDbSpline
 70
8
 71
3
 72
8
 73
4
 74
0
 40
0
 40
0
 40
0
 40
0
 40
1
 40
1
 40
1
 40
1
 10
14.900099
 20
255.101320
 30
0.0
 10
17.606257
 20
255.101320
 30
0.0
 10
19.800182
 20
257.295245
 30
0.0
 10
19.800182
 20
260.001404
 30
0.0
  0
LINE
  5
1ef
100
AcDbEntity
  8
frame-thin-parts3
 62
1
100
AcDbLine
 10
19.800006
 20
260.001404
 30
0.0
 11
19.800006
 21
280.001434
 31
0.0
  0
SPLINE
  5
1f0
100
AcDbEntity
  8
frame-thin-parts3
 62
1
100
AcDbSpline
 70
8
 71
3
 72
8
 73
4
 74
0
 40
0
 40
0
 40
0
 40
0
 40
1
 40
1
 40
1
 40
1
 10
19.800006
 20
280.001399
 30
0.0
 10
19.800006
 20
282.707557
 30
0.0
 10
17.606081
 20
284.901482
 30
0.0
 10
14.899922
 20
284.901482
 30
0.0
  0
SPLINE
  5
1f1
100
AcDbEntity
  8
frame-thin-parts3
 62
1
100
AcDbSpline
 70
8
 71
3
 72
8
 73
4
 74
0
 40
0
 40
0
 40
0
 40
0
 40
1
 40
1
 40
1
 40
1
 10
14.899922
 20
284.901482
 30
0.0
 10
12.193764
 20
284.901482
 30
0.0
 10
9.999839
 20
282.707557
 30
0.0
 10
9.999839
 20
280.001399
 30
0.0
  0
LINE
  5
1f2
100
AcDbEntity
  8
frame-thin-parts3
 62
1
100
AcDbLine
 10
10.000015
 20
280.001399
 30
0.0
 11
10.000015
 21
260.001368
 31
0.0
  0
SPLINE
  5
1f3
100
AcDbEntity
  8
frame-thin-parts3
 62
1
100
AcDbSpline
 70
8
 71
3
 72
8
 73
4
 74
0
 40
0
 40
0
 40
0
 40
0
 40
1
 40
1
 40
1
 40
1
 10
14.899993
 20
261.601392
 30
0.0
 10
15.783701
 20
261.601392
 30
0.0
 10
16.499840
 20
260.884900
 30
0.0
 10
16.499840
 20
260.001545
 30
0.0
  0
SPLINE
  5
1f4
100
AcDbEntity
  8
frame-thin-parts3
 62
1
100
AcDbSpline
 70
8
 71
3
 72
8
 73
4
 74
0
 40
0
 40
0
 40
0
 40
0
 40
1
 40
1
 40
1
 40
1
 10
16.499840
 20
260.001545
 30
0.0
 10
16.499840
 20
259.117836
 30
0.0
 10
15.783701
 20
258.401345
 30
0.0
 10
14.899993
 20
258.401345
 30
0.0
  0
SPLINE
  5
1f5
100
AcDbEntity
  8
frame-thin-parts3
 62
1
100
AcDbSpline
 70
8
 71
3
 72
8
 73
4
 74
0
 40
0
 40
0
 40
0
 40
0
 40
1
 40
1
 40
1
 40
1
 10
14.899993
 20
258.401345
 30
0.0
 10
14.016284
 20
258.401345
 30
0.0
 10
13.300146
 20
259.117836
 30
0.0
 10
13.300146
 20
260.001545
 30
0.0
  0
SPLINE
  5
1f6
100
AcDbEntity
  8
frame-thin-parts3
 62
1
100
AcDbSpline
 70
8
 71
3
 72
8
 73
4
 74
0
 40
0
 40
0
 40
0
 40
0
 40
1
 40
1
 40
1
 40
1
 10
13.300146
 20
260.001545
 30
0.0
 10
13.300146
 20
260.884900
 30
0.0
 10
14.016284
 20
261.601392
 30
0.0
 10
14.899993
 20
261.601392
 30
0.0
  0
LINE
  5
1f7
100
AcDbEntity
  8
frame-thin-parts3
 62
1
100
AcDbLine
 10
14.899993
 20
261.601392
 30
0.0
 11
14.899993
 21
261.601392
 31
0.0
  0
SPLINE
  5
1f8
100
AcDbEntity
  8
frame-thin-parts3
 62
1
100
AcDbSpline
 70
8
 71
3
 72
8
 73
4
 74
0
 40
0
 40
0
 40
0
 40
0
 40
1
 40
1
 40
1
 40
1
 10
14.899993
 20
201.601406
 30
0.0
 10
15.783701
 20
201.601406
 30
0.0
 10
16.499840
 20
200.884914
 30
0.0
 10
16.499840
 20
200.001559
 30
0.0
  0
SPLINE
  5
1f9
100
AcDbEntity
  8
frame-thin-parts3
 62
1
100
AcDbSpline
 70
8
 71
3
 72
8
 73
4
 74
0
 40
0
 40
0
 40
0
 40
0
 40
1
 40
1
 40
1
 40
1
 10
16.499840
 20
200.001559
 30
0.0
 10
16.499840
 20
199.117851
 30
0.0
 10
15.783701
 20
198.401359
 30
0.0
 10
14.899993
 20
198.401359
 30
0.0
  0
SPLINE
  5
1fa
100
AcDbEntity
  8
frame-thin-parts3
 62
1
100
AcDbSpline
 70
8
 71
3
 72
8
 73
4
 74
0
 40
0
 40
0
 40
0
 40
0
 40
1
 40
1
 40
1
 40
1
 10
14.899993
 20
198.401359
 30
0.0
 10
14.016284
 20
198.401359
 30
0.0
 10
13.300146
 20
199.117851
 30
0.0
 10
13.300146
 20
200.001559
 30
0.0
  0
SPLINE
  5
1fb
100
AcDbEntity
  8
frame-thin-parts3
 62
1
100
AcDbSpline
 70
8
 71
3
 72
8
 73
4
 74
0
 40
0
 40
0
 40
0
 40
0
 40
1
 40
1
 40
1
 40
1
 10
13.300146
 20
200.001559
 30
0.0
 10
13.300146
 20
200.884914
 30
0.0
 10
14.016284
 20
201.601406
 30
0.0
 10
14.899993
 20
201.601406
 30
0.0
  0
LINE
  5
1fc
100
AcDbEntity
  8
frame-thin-parts3
 62
1
100
AcDbLine
 10
14.899993
 20
201.601406
 30
0.0
 11
14.899993
 21
201.601406
 31
0.0
  0
SPLINE
  5
1fd
100
AcDbEntity
  8
frame-thin-parts3
 62
1
100
AcDbSpline
 70
8
 71
3
 72
8
 73
4
 74
0
 40
0
 40
0
 40
0
 40
0
 40
1
 40
1
 40
1
 40
1
 10
10.000015
 20
180.001387
 30
0.0
 10
10.000015
 20
177.295229
 30
0.0
 10
12.193940
 20
175.101304
 30
0.0
 10
14.900099
 20
175.101304
 30
0.0
  0
SPLINE
  5
1fe
100
AcDbEntity
  8
frame-thin-parts3
 62
1
100
AcDbSpline
 70
8
 71
3
 72
8
 73
4
 74
0
 40
0
 40
0
 40
0
 40
0
 40
1
 40
1
 40
1
 40
1
 10
14.900099
 20
175.101304
 30
0.0
 10
17.606257
 20
175.101304
 30
0.0
 10
19.800182
 20
177.295229
 30
0.0
 10
19.800182
 20
180.001387
 30
0.0
  0
LINE
  5
1ff
100
AcDbEntity
  8
frame-thin-parts3
 62
1
100
AcDbLine
 10
19.800006
 20
180.001387
 30
0.0
 11
19.800006
 21
200.001418
 31
0.0
  0
SPLINE
  5
200
100
AcDbEntity
  8
frame-thin-parts3
 62
1
100
AcDbSpline
 70
8
 71
3
 72
8
 73
4
 74
0
 40
0
 40
0
 40
0
 40
0
 40
1
 40
1
 40
1
 40
1
 10
19.800006
 20
200.001418
 30
0.0
 10
19.800006
 20
202.707576
 30
0.0
 10
17.606081
 20
204.901501
 30
0.0
 10
14.899922
 20
204.901501
 30
0.0
  0
SPLINE
  5
201
100
AcDbEntity
  8
frame-thin-parts3
 62
1
100
AcDbSpline
 70
8
 71
3
 72
8
 73
4
 74
0
 40
0
 40
0
 40
0
 40
0
 40
1
 40
1
 40
1
 40
1
 10
14.899922
 20
204.901501
 30
0.0
 10
12.193764
 20
204.901501
 30
0.0
 10
9.999839
 20
202.707576
 30
0.0
 10
9.999839
 20
200.001418
 30
0.0
  0
LINE
  5
202
100
AcDbEntity
  8
frame-thin-parts3
 62
1
100
AcDbLine
 10
10.000015
 20
200.001418
 30
0.0
 11
10.000015
 21
180.001387
 31
0.0
  0
SPLINE
  5
203
100
AcDbEntity
  8
frame-thin-parts3
 62
1
100
AcDbSpline
 70
8
 71
3
 72
8
 73
4
 74
0
 40
0
 40
0
 40
0
 40
0
 40
1
 40
1
 40
1
 40
1
 10
14.899993
 20
181.601411
 30
0.0
 10
15.783701
 20
181.601411
 30
0.0
 10
16.499840
 20
180.884919
 30
0.0
 10
16.499840
 20
180.001564
 30
0.0
  0
SPLINE
  5
204
100
AcDbEntity
  8
frame-thin-parts3
 62
1
100
AcDbSpline
 70
8
 71
3
 72
8
 73
4
 74
0
 40
0
 40
0
 40
0
 40
0
 40
1
 40
1
 40
1
 40
1
 10
16.499840
 20
180.001564
 30
0.0
 10
16.499840
 20
179.117855
 30
0.0
 10
15.783701
 20
178.401364
 30
0.0
 10
14.899993
 20
178.401364
 30
0.0
  0
SPLINE
  5
205
100
AcDbEntity
  8
frame-thin-parts3
 62
1
100
AcDbSpline
 70
8
 71
3
 72
8
 73
4
 74
0
 40
0
 40
0
 40
0
 40
0
 40
1
 40
1
 40
1
 40
1
 10
14.899993
 20
178.401364
 30
0.0
 10
14.016284
 20
178.401364
 30
0.0
 10
13.300146
 20
179.117855
 30
0.0
 10
13.300146
 20
180.001564
 30
0.0
  0
SPLINE
  5
206
100
AcDbEntity
  8
frame-thin-parts3
 62
1
100
AcDbSpline
 70
8
 71
3
 72
8
 73
4
 74
0
 40
0
 40
0
 40
0
 40
0
 40
1
 40
1
 40
1
 40
1
 10
13.300146
 20
180.001564
 30
0.0
 10
13.300146
 20
180.884919
 30
0.0
 10
14.016284
 20
181.601411
 30
0.0
 10
14.899993
 20
181.601411
 30
0.0
  0
LINE
  5
207
100
AcDbEntity
  8
frame-thin-parts3
 62
1
100
AcDbLine
 10
14.899993
 20
181.601411
 30
0.0
 11
14.899993
 21
181.601411
 31
0.0
  0
SPLINE
  5
208
100
AcDbEntity
  8
frame-thin-parts3
 62
1
100
AcDbSpline
 70
8
 71
3
 72
8
 73
4
 74
0
 40
0
 40
0
 40
0
 40
0
 40
1
 40
1
 40
1
 40
1
 10
225.099986
 20
241.601397
 30
0.0
 10
225.983694
 20
241.601397
 30
0.0
 10
226.699833
 20
240.884905
 30
0.0
 10
226.699833
 20
240.001549
 30
0.0
  0
SPLINE
  5
209
100
AcDbEntity
  8
frame-thin-parts3
 62
1
100
AcDbSpline
 70
8
 71
3
 72
8
 73
4
 74
0
 40
0
 40
0
 40
0
 40
0
 40
1
 40
1
 40
1
 40
1
 10
226.699833
 20
240.001549
 30
0.0
 10
226.699833
 20
239.117841
 30
0.0
 10
225.983694
 20
238.401349
 30
0.0
 10
225.099986
 20
238.401349
 30
0.0
  0
SPLINE
  5
20a
100
AcDbEntity
  8
frame-thin-parts3
 62
1
100
AcDbSpline
 70
8
 71
3
 72
8
 73
4
 74
0
 40
0
 40
0
 40
0
 40
0
 40
1
 40
1
 40
1
 40
1
 10
225.099986
 20
238.401349
 30
0.0
 10
224.216277
 20
238.401349
 30
0.0
 10
223.500139
 20
239.117841
 30
0.0
 10
223.500139
 20
240.001549
 30
0.0
  0
SPLINE
  5
20b
100
AcDbEntity
  8
frame-thin-parts3
 62
1
100
AcDbSpline
 70
8
 71
3
 72
8
 73
4
 74
0
 40
0
 40
0
 40
0
 40
0
 40
1
 40
1
 40
1
 40
1
 10
223.500139
 20
240.001549
 30
0.0
 10
223.500139
 20
240.884905
 30
0.0
 10
224.216277
 20
241.601397
 30
0.0
 10
225.099986
 20
241.601397
 30
0.0
  0
LINE
  5
20c
100
AcDbEntity
  8
frame-thin-parts3
 62
1
100
AcDbLine
 10
225.099986
 20
241.601397
 30
0.0
 11
225.099986
 21
241.601397
 31
0.0
  0
SPLINE
  5
20d
100
AcDbEntity
  8
frame-thin-parts3
 62
1
100
AcDbSpline
 70
8
 71
3
 72
8
 73
4
 74
0
 40
0
 40
0
 40
0
 40
0
 40
1
 40
1
 40
1
 40
1
 10
220.200008
 20
220.001378
 30
0.0
 10
220.200008
 20
217.295219
 30
0.0
 10
222.393933
 20
215.101294
 30
0.0
 10
225.100092
 20
215.101294
 30
0.0
  0
SPLINE
  5
20e
100
AcDbEntity
  8
frame-thin-parts3
 62
1
100
AcDbSpline
 70
8
 71
3
 72
8
 73
4
 74
0
 40
0
 40
0
 40
0
 40
0
 40
1
 40
1
 40
1
 40
1
 10
225.100092
 20
215.101294
 30
0.0
 10
227.806250
 20
215.101294
 30
0.0
 10
230.000175
 20
217.295219
 30
0.0
 10
230.000175
 20
220.001378
 30
0.0
  0
LINE
  5
20f
100
AcDbEntity
  8
frame-thin-parts3
 62
1
100
AcDbLine
 10
229.999999
 20
220.001378
 30
0.0
 11
229.999999
 21
240.001408
 31
0.0
  0
SPLINE
  5
210
100
AcDbEntity
  8
frame-thin-parts3
 62
1
100
AcDbSpline
 70
8
 71
3
 72
8
 73
4
 74
0
 40
0
 40
0
 40
0
 40
0
 40
1
 40
1
 40
1
 40
1
 10
229.999999
 20
240.001408
 30
0.0
 10
229.999999
 20
242.707567
 30
0.0
 10
227.806074
 20
244.901492
 30
0.0
 10
225.099915
 20
244.901492
 30
0.0
  0
SPLINE
  5
211
100
AcDbEntity
  8
frame-thin-parts3
 62
1
100
AcDbSpline
 70
8
 71
3
 72
8
 73
4
 74
0
 40
0
 40
0
 40
0
 40
0
 40
1
 40
1
 40
1
 40
1
 10
225.099915
 20
244.901492
 30
0.0
 10
222.393757
 20
244.901492
 30
0.0
 10
220.199832
 20
242.707567
 30
0.0
 10
220.199832
 20
240.001408
 30
0.0
  0
LINE
  5
212
100
AcDbEntity
  8
frame-thin-parts3
 62
1
100
AcDbLine
 10
220.200008
 20
240.001408
 30
0.0
 11
220.200008
 21
220.001378
 31
0.0
  0
SPLINE
  5
213
100
AcDbEntity
  8
frame-thin-parts3
 62
1
100
AcDbSpline
 70
8
 71
3
 72
8
 73
4
 74
0
 40
0
 40
0
 40
0
 40
0
 40
1
 40
1
 40
1
 40
1
 10
225.099986
 20
221.601401
 30
0.0
 10
225.983694
 20
221.601401
 30
0.0
 10
226.699833
 20
220.884910
 30
0.0
 10
226.699833
 20
220.001554
 30
0.0
  0
SPLINE
  5
214
100
AcDbEntity
  8
frame-thin-parts3
 62
1
100
AcDbSpline
 70
8
 71
3
 72
8
 73
4
 74
0
 40
0
 40
0
 40
0
 40
0
 40
1
 40
1
 40
1
 40
1
 10
226.699833
 20
220.001554
 30
0.0
 10
226.699833
 20
219.117846
 30
0.0
 10
225.983694
 20
218.401354
 30
0.0
 10
225.099986
 20
218.401354
 30
0.0
  0
SPLINE
  5
215
100
AcDbEntity
  8
frame-thin-parts3
 62
1
100
AcDbSpline
 70
8
 71
3
 72
8
 73
4
 74
0
 40
0
 40
0
 40
0
 40
0
 40
1
 40
1
 40
1
 40
1
 10
225.099986
 20
218.401354
 30
0.0
 10
224.216277
 20
218.401354
 30
0.0
 10
223.500139
 20
219.117846
 30
0.0
 10
223.500139
 20
220.001554
 30
0.0
  0
SPLINE
  5
216
100
AcDbEntity
  8
frame-thin-parts3
 62
1
100
AcDbSpline
 70
8
 71
3
 72
8
 73
4
 74
0
 40
0
 40
0
 40
0
 40
0
 40
1
 40
1
 40
1
 40
1
 10
223.500139
 20
220.001554
 30
0.0
 10
223.500139
 20
220.884910
 30
0.0
 10
224.216277
 20
221.601401
 30
0.0
 10
225.099986
 20
221.601401
 30
0.0
  0
LINE
  5
217
100
AcDbEntity
  8
frame-thin-parts3
 62
1
100
AcDbLine
 10
225.099986
 20
221.601401
 30
0.0
 11
225.099986
 21
221.601401
 31
0.0
  0
SPLINE
  5
218
100
AcDbEntity
  8
frame-thin-parts3
 62
1
100
AcDbSpline
 70
8
 71
3
 72
8
 73
4
 74
0
 40
0
 40
0
 40
0
 40
0
 40
1
 40
1
 40
1
 40
1
 10
225.099986
 20
281.601387
 30
0.0
 10
225.983694
 20
281.601387
 30
0.0
 10
226.699833
 20
280.884896
 30
0.0
 10
226.699833
 20
280.001540
 30
0.0
  0
SPLINE
  5
219
100
AcDbEntity
  8
frame-thin-parts3
 62
1
100
AcDbSpline
 70
8
 71
3
 72
8
 73
4
 74
0
 40
0
 40
0
 40
0
 40
0
 40
1
 40
1
 40
1
 40
1
 10
226.699833
 20
280.001540
 30
0.0
 10
226.699833
 20
279.117832
 30
0.0
 10
225.983694
 20
278.401340
 30
0.0
 10
225.099986
 20
278.401340
 30
0.0
  0
SPLINE
  5
21a
100
AcDbEntity
  8
frame-thin-parts3
 62
1
100
AcDbSpline
 70
8
 71
3
 72
8
 73
4
 74
0
 40
0
 40
0
 40
0
 40
0
 40
1
 40
1
 40
1
 40
1
 10
225.099986
 20
278.401340
 30
0.0
 10
224.216277
 20
278.401340
 30
0.0
 10
223.500139
 20
279.117832
 30
0.0
 10
223.500139
 20
280.001540
 30
0.0
  0
SPLINE
  5
21b
100
AcDbEntity
  8
frame-thin-parts3
 62
1
100
AcDbSpline
 70
8
 71
3
 72
8
 73
4
 74
0
 40
0
 40
0
 40
0
 40
0
 40
1
 40
1
 40
1
 40
1
 10
223.500139
 20
280.001540
 30
0.0
 10
223.500139
 20
280.884896
 30
0.0
 10
224.216277
 20
281.601387
 30
0.0
 10
225.099986
 20
281.601387
 30
0.0
  0
LINE
  5
21c
100
AcDbEntity
  8
frame-thin-parts3
 62
1
100
AcDbLine
 10
225.099986
 20
281.601387
 30
0.0
 11
225.099986
 21
281.601387
 31
0.0
  0
SPLINE
  5
21d
100
AcDbEntity
  8
frame-thin-parts3
 62
1
100
AcDbSpline
 70
8
 71
3
 72
8
 73
4
 74
0
 40
0
 40
0
 40
0
 40
0
 40
1
 40
1
 40
1
 40
1
 10
220.200008
 20
260.001404
 30
0.0
 10
220.200008
 20
257.295245
 30
0.0
 10
222.393933
 20
255.101320
 30
0.0
 10
225.100092
 20
255.101320
 30
0.0
  0
SPLINE
  5
21e
100
AcDbEntity
  8
frame-thin-parts3
 62
1
100
AcDbSpline
 70
8
 71
3
 72
8
 73
4
 74
0
 40
0
 40
0
 40
0
 40
0
 40
1
 40
1
 40
1
 40
1
 10
225.100092
 20
255.101320
 30
0.0
 10
227.806250
 20
255.101320
 30
0.0
 10
230.000175
 20
257.295245
 30
0.0
 10
230.000175
 20
260.001404
 30
0.0
  0
LINE
  5
21f
100
AcDbEntity
  8
frame-thin-parts3
 62
1
100
AcDbLine
 10
229.999999
 20
260.001404
 30
0.0
 11
229.999999
 21
280.001434
 31
0.0
  0
SPLINE
  5
220
100
AcDbEntity
  8
frame-thin-parts3
 62
1
100
AcDbSpline
 70
8
 71
3
 72
8
 73
4
 74
0
 40
0
 40
0
 40
0
 40
0
 40
1
 40
1
 40
1
 40
1
 10
229.999999
 20
280.001399
 30
0.0
 10
229.999999
 20
282.707557
 30
0.0
 10
227.806074
 20
284.901482
 30
0.0
 10
225.099915
 20
284.901482
 30
0.0
  0
SPLINE
  5
221
100
AcDbEntity
  8
frame-thin-parts3
 62
1
100
AcDbSpline
 70
8
 71
3
 72
8
 73
4
 74
0
 40
0
 40
0
 40
0
 40
0
 40
1
 40
1
 40
1
 40
1
 10
225.099915
 20
284.901482
 30
0.0
 10
222.393757
 20
284.901482
 30
0.0
 10
220.199832
 20
282.707557
 30
0.0
 10
220.199832
 20
280.001399
 30
0.0
  0
LINE
  5
222
100
AcDbEntity
  8
frame-thin-parts3
 62
1
100
AcDbLine
 10
220.200008
 20
280.001399
 30
0.0
 11
220.200008
 21
260.001368
 31
0.0
  0
SPLINE
  5
223
100
AcDbEntity
  8
frame-thin-parts3
 62
1
100
AcDbSpline
 70
8
 71
3
 72
8
 73
4
 74
0
 40
0
 40
0
 40
0
 40
0
 40
1
 40
1
 40
1
 40
1
 10
225.099986
 20
261.601392
 30
0.0
 10
225.983694
 20
261.601392
 30
0.0
 10
226.699833
 20
260.884900
 30
0.0
 10
226.699833
 20
260.001545
 30
0.0
  0
SPLINE
  5
224
100
AcDbEntity
  8
frame-thin-parts3
 62
1
100
AcDbSpline
 70
8
 71
3
 72
8
 73
4
 74
0
 40
0
 40
0
 40
0
 40
0
 40
1
 40
1
 40
1
 40
1
 10
226.699833
 20
260.001545
 30
0.0
 10
226.699833
 20
259.117836
 30
0.0
 10
225.983694
 20
258.401345
 30
0.0
 10
225.099986
 20
258.401345
 30
0.0
  0
SPLINE
  5
225
100
AcDbEntity
  8
frame-thin-parts3
 62
1
100
AcDbSpline
 70
8
 71
3
 72
8
 73
4
 74
0
 40
0
 40
0
 40
0
 40
0
 40
1
 40
1
 40
1
 40
1
 10
225.099986
 20
258.401345
 30
0.0
 10
224.216277
 20
258.401345
 30
0.0
 10
223.500139
 20
259.117836
 30
0.0
 10
223.500139
 20
260.001545
 30
0.0
  0
SPLINE
  5
226
100
AcDbEntity
  8
frame-thin-parts3
 62
1
100
AcDbSpline
 70
8
 71
3
 72
8
 73
4
 74
0
 40
0
 40
0
 40
0
 40
0
 40
1
 40
1
 40
1
 40
1
 10
223.500139
 20
260.001545
 30
0.0
 10
223.500139
 20
260.884900
 30
0.0
 10
224.216277
 20
261.601392
 30
0.0
 10
225.099986
 20
261.601392
 30
0.0
  0
LINE
  5
227
100
AcDbEntity
  8
frame-thin-parts3
 62
1
100
AcDbLine
 10
225.099986
 20
261.601392
 30
0.0
 11
225.099986
 21
261.601392
 31
0.0
  0
SPLINE
  5
228
100
AcDbEntity
  8
frame-thin-parts3
 62
1
100
AcDbSpline
 70
8
 71
3
 72
8
 73
4
 74
0
 40
0
 40
0
 40
0
 40
0
 40
1
 40
1
 40
1
 40
1
 10
225.099986
 20
201.601406
 30
0.0
 10
225.983694
 20
201.601406
 30
0.0
 10
226.699833
 20
200.884914
 30
0.0
 10
226.699833
 20
200.001559
 30
0.0
  0
SPLINE
  5
229
100
AcDbEntity
  8
frame-thin-parts3
 62
1
100
AcDbSpline
 70
8
 71
3
 72
8
 73
4
 74
0
 40
0
 40
0
 40
0
 40
0
 40
1
 40
1
 40
1
 40
1
 10
226.699833
 20
200.001559
 30
0.0
 10
226.699833
 20
199.117851
 30
0.0
 10
225.983694
 20
198.401359
 30
0.0
 10
225.099986
 20
198.401359
 30
0.0
  0
SPLINE
  5
22a
100
AcDbEntity
  8
frame-thin-parts3
 62
1
100
AcDbSpline
 70
8
 71
3
 72
8
 73
4
 74
0
 40
0
 40
0
 40
0
 40
0
 40
1
 40
1
 40
1
 40
1
 10
225.099986
 20
198.401359
 30
0.0
 10
224.216277
 20
198.401359
 30
0.0
 10
223.500139
 20
199.117851
 30
0.0
 10
223.500139
 20
200.001559
 30
0.0
  0
SPLINE
  5
22b
100
AcDbEntity
  8
frame-thin-parts3
 62
1
100
AcDbSpline
 70
8
 71
3
 72
8
 73
4
 74
0
 40
0
 40
0
 40
0
 40
0
 40
1
 40
1
 40
1
 40
1
 10
223.500139
 20
200.001559
 30
0.0
 10
223.500139
 20
200.884914
 30
0.0
 10
224.216277
 20
201.601406
 30
0.0
 10
225.099986
 20
201.601406
 30
0.0
  0
LINE
  5
22c
100
AcDbEntity
  8
frame-thin-parts3
 62
1
100
AcDbLine
 10
225.099986
 20
201.601406
 30
0.0
 11
225.099986
 21
201.601406
 31
0.0
  0
SPLINE
  5
22d
100
AcDbEntity
  8
frame-thin-parts3
 62
1
100
AcDbSpline
 70
8
 71
3
 72
8
 73
4
 74
0
 40
0
 40
0
 40
0
 40
0
 40
1
 40
1
 40
1
 40
1
 10
220.200008
 20
180.001387
 30
0.0
 10
220.200008
 20
177.295229
 30
0.0
 10
222.393933
 20
175.101304
 30
0.0
 10
225.100092
 20
175.101304
 30
0.0
  0
SPLINE
  5
22e
100
AcDbEntity
  8
frame-thin-parts3
 62
1
100
AcDbSpline
 70
8
 71
3
 72
8
 73
4
 74
0
 40
0
 40
0
 40
0
 40
0
 40
1
 40
1
 40
1
 40
1
 10
225.100092
 20
175.101304
 30
0.0
 10
227.806250
 20
175.101304
 30
0.0
 10
230.000175
 20
177.295229
 30
0.0
 10
230.000175
 20
180.001387
 30
0.0
  0
LINE
  5
22f
100
AcDbEntity
  8
frame-thin-parts3
 62
1
100
AcDbLine
 10
229.999999
 20
180.001387
 30
0.0
 11
229.999999
 21
200.001418
 31
0.0
  0
SPLINE
  5
230
100
AcDbEntity
  8
frame-thin-parts3
 62
1
100
AcDbSpline
 70
8
 71
3
 72
8
 73
4
 74
0
 40
0
 40
0
 40
0
 40
0
 40
1
 40
1
 40
1
 40
1
 10
229.999999
 20
200.001418
 30
0.0
 10
229.999999
 20
202.707576
 30
0.0
 10
227.806074
 20
204.901501
 30
0.0
 10
225.099915
 20
204.901501
 30
0.0
  0
SPLINE
  5
231
100
AcDbEntity
  8
frame-thin-parts3
 62
1
100
AcDbSpline
 70
8
 71
3
 72
8
 73
4
 74
0
 40
0
 40
0
 40
0
 40
0
 40
1
 40
1
 40
1
 40
1
 10
225.099915
 20
204.901501
 30
0.0
 10
222.393757
 20
204.901501
 30
0.0
 10
220.199832
 20
202.707576
 30
0.0
 10
220.199832
 20
200.001418
 30
0.0
  0
LINE
  5
232
100
AcDbEntity
  8
frame-thin-parts3
 62
1
100
AcDbLine
 10
220.200008
 20
200.001418
 30
0.0
 11
220.200008
 21
180.001387
 31
0.0
  0
SPLINE
  5
233
100
AcDbEntity
  8
frame-thin-parts3
 62
1
100
AcDbSpline
 70
8
 71
3
 72
8
 73
4
 74
0
 40
0
 40
0
 40
0
 40
0
 40
1
 40
1
 40
1
 40
1
 10
225.099986
 20
181.601411
 30
0.0
 10
225.983694
 20
181.601411
 30
0.0
 10
226.699833
 20
180.884919
 30
0.0
 10
226.699833
 20
180.001564
 30
0.0
  0
SPLINE
  5
234
100
AcDbEntity
  8
frame-thin-parts3
 62
1
100
AcDbSpline
 70
8
 71
3
 72
8
 73
4
 74
0
 40
0
 40
0
 40
0
 40
0
 40
1
 40
1
 40
1
 40
1
 10
226.699833
 20
180.001564
 30
0.0
 10
226.699833
 20
179.117855
 30
0.0
 10
225.983694
 20
178.401364
 30
0.0
 10
225.099986
 20
178.401364
 30
0.0
  0
SPLINE
  5
235
100
AcDbEntity
  8
frame-thin-parts3
 62
1
100
AcDbSpline
 70
8
 71
3
 72
8
 73
4
 74
0
 40
0
 40
0
 40
0
 40
0
 40
1
 40
1
 40
1
 40
1
 10
225.099986
 20
178.401364
 30
0.0
 10
224.216277
 20
178.401364
 30
0.0
 10
223.500139
 20
179.117855
 30
0.0
 10
223.500139
 20
180.001564
 30
0.0
  0
SPLINE
  5
236
100
AcDbEntity
  8
frame-thin-parts3
 62
1
100
AcDbSpline
 70
8
 71
3
 72
8
 73
4
 74
0
 40
0
 40
0
 40
0
 40
0
 40
1
 40
1
 40
1
 40
1
 10
223.500139
 20
180.001564
 30
0.0
 10
223.500139
 20
180.884919
 30
0.0
 10
224.216277
 20
181.601411
 30
0.0
 10
225.099986
 20
181.601411
 30
0.0
  0
LINE
  5
237
100
AcDbEntity
  8
frame-thin-parts3
 62
1
100
AcDbLine
 10
225.099986
 20
181.601411
 30
0.0
 11
225.099986
 21
181.601411
 31
0.0
  0
SPLINE
  5
238
100
AcDbEntity
  8
frame-thin-parts3
 62
1
100
AcDbSpline
 70
8
 71
3
 72
8
 73
4
 74
0
 40
0
 40
0
 40
0
 40
0
 40
1
 40
1
 40
1
 40
1
 10
68.694441
 20
124.601412
 30
0.0
 10
69.578149
 20
124.601412
 30
0.0
 10
70.294288
 20
123.884920
 30
0.0
 10
70.294288
 20
123.001565
 30
0.0
  0
SPLINE
  5
239
100
AcDbEntity
  8
frame-thin-parts3
 62
1
100
AcDbSpline
 70
8
 71
3
 72
8
 73
4
 74
0
 40
0
 40
0
 40
0
 40
0
 40
1
 40
1
 40
1
 40
1
 10
70.294288
 20
123.001565
 30
0.0
 10
70.294288
 20
122.117856
 30
0.0
 10
69.578149
 20
121.401365
 30
0.0
 10
68.694441
 20
121.401365
 30
0.0
  0
SPLINE
  5
23a
100
AcDbEntity
  8
frame-thin-parts3
 62
1
100
AcDbSpline
 70
8
 71
3
 72
8
 73
4
 74
0
 40
0
 40
0
 40
0
 40
0
 40
1
 40
1
 40
1
 40
1
 10
68.694441
 20
121.401365
 30
0.0
 10
67.810733
 20
121.401365
 30
0.0
 10
67.094594
 20
122.117856
 30
0.0
 10
67.094594
 20
123.001565
 30
0.0
  0
SPLINE
  5
23b
100
AcDbEntity
  8
frame-thin-parts3
 62
1
100
AcDbSpline
 70
8
 71
3
 72
8
 73
4
 74
0
 40
0
 40
0
 40
0
 40
0
 40
1
 40
1
 40
1
 40
1
 10
67.094594
 20
123.001565
 30
0.0
 10
67.094594
 20
123.884920
 30
0.0
 10
67.810733
 20
124.601412
 30
0.0
 10
68.694441
 20
124.601412
 30
0.0
  0
LINE
  5
23c
100
AcDbEntity
  8
frame-thin-parts3
 62
1
100
AcDbLine
 10
68.694441
 20
124.601412
 30
0.0
 11
68.694441
 21
124.601412
 31
0.0
  0
SPLINE
  5
23d
100
AcDbEntity
  8
frame-thin-parts3
 62
1
100
AcDbSpline
 70
8
 71
3
 72
8
 73
4
 74
0
 40
0
 40
0
 40
0
 40
0
 40
1
 40
1
 40
1
 40
1
 10
68.694441
 20
78.601412
 30
0.0
 10
69.578149
 20
78.601412
 30
0.0
 10
70.294288
 20
77.884921
 30
0.0
 10
70.294288
 20
77.001565
 30
0.0
  0
SPLINE
  5
23e
100
AcDbEntity
  8
frame-thin-parts3
 62
1
100
AcDbSpline
 70
8
 71
3
 72
8
 73
4
 74
0
 40
0
 40
0
 40
0
 40
0
 40
1
 40
1
 40
1
 40
1
 10
70.294288
 20
77.001565
 30
0.0
 10
70.294288
 20
76.117857
 30
0.0
 10
69.578149
 20
75.401365
 30
0.0
 10
68.694441
 20
75.401365
 30
0.0
  0
SPLINE
  5
23f
100
AcDbEntity
  8
frame-thin-parts3
 62
1
100
AcDbSpline
 70
8
 71
3
 72
8
 73
4
 74
0
 40
0
 40
0
 40
0
 40
0
 40
1
 40
1
 40
1
 40
1
 10
68.694441
 20
75.401365
 30
0.0
 10
67.810733
 20
75.401365
 30
0.0
 10
67.094594
 20
76.117857
 30
0.0
 10
67.094594
 20
77.001565
 30
0.0
  0
SPLINE
  5
240
100
AcDbEntity
  8
frame-thin-parts3
 62
1
100
AcDbSpline
 70
8
 71
3
 72
8
 73
4
 74
0
 40
0
 40
0
 40
0
 40
0
 40
1
 40
1
 40
1
 40
1
 10
67.094594
 20
77.001565
 30
0.0
 10
67.094594
 20
77.884921
 30
0.0
 10
67.810733
 20
78.601412
 30
0.0
 10
68.694441
 20
78.601412
 30
0.0
  0
LINE
  5
241
100
AcDbEntity
  8
frame-thin-parts3
 62
1
100
AcDbLine
 10
68.694441
 20
78.601412
 30
0.0
 11
68.694441
 21
78.601412
 31
0.0
  0
LINE
  5
242
100
AcDbEntity
  8
frame-thin-parts3
 62
1
100
AcDbLine
 10
95.794442
 20
120.651394
 30
0.0
 11
95.794442
 21
125.351453
 31
0.0
  0
LINE
  5
243
100
AcDbEntity
  8
frame-thin-parts3
 62
1
100
AcDbLine
 10
85.594437
 20
120.651394
 30
0.0
 11
95.794301
 21
120.651394
 31
0.0
  0
LINE
  5
244
100
AcDbEntity
  8
frame-thin-parts3
 62
1
100
AcDbLine
 10
85.594437
 20
125.351382
 30
0.0
 11
85.594437
 21
120.651324
 31
0.0
  0
LINE
  5
245
100
AcDbEntity
  8
frame-thin-parts3
 62
1
100
AcDbLine
 10
95.794442
 20
125.351382
 30
0.0
 11
85.594578
 21
125.351382
 31
0.0
  0
LINE
  5
246
100
AcDbEntity
  8
frame-thin-parts3
 62
1
100
AcDbLine
 10
95.794442
 20
74.651395
 30
0.0
 11
95.794442
 21
79.351453
 31
0.0
  0
LINE
  5
247
100
AcDbEntity
  8
frame-thin-parts3
 62
1
100
AcDbLine
 10
85.594437
 20
74.651395
 30
0.0
 11
95.794301
 21
74.651395
 31
0.0
  0
LINE
  5
248
100
AcDbEntity
  8
frame-thin-parts3
 62
1
100
AcDbLine
 10
85.594437
 20
79.351418
 30
0.0
 11
85.594437
 21
74.651359
 31
0.0
  0
LINE
  5
249
100
AcDbEntity
  8
frame-thin-parts3
 62
1
100
AcDbLine
 10
95.794442
 20
79.351418
 30
0.0
 11
85.594578
 21
79.351418
 31
0.0
  0
LINE
  5
24a
100
AcDbEntity
  8
frame-thin-parts3
 62
1
100
AcDbLine
 10
102.794435
 20
94.901404
 30
0.0
 11
102.794435
 21
105.101267
 31
0.0
  0
LINE
  5
24b
100
AcDbEntity
  8
frame-thin-parts3
 62
1
100
AcDbLine
 10
98.094447
 20
94.901404
 30
0.0
 11
102.794506
 21
94.901404
 31
0.0
  0
LINE
  5
24c
100
AcDbEntity
  8
frame-thin-parts3
 62
1
100
AcDbLine
 10
98.094447
 20
105.101409
 30
0.0
 11
98.094447
 21
94.901545
 31
0.0
  0
LINE
  5
24d
100
AcDbEntity
  8
frame-thin-parts3
 62
1
100
AcDbLine
 10
102.794435
 20
105.101409
 30
0.0
 11
98.094377
 21
105.101409
 31
0.0
  0
LINE
  5
24e
100
AcDbEntity
  8
frame-thin-parts3
 62
1
100
AcDbLine
 10
111.794431
 20
80.901382
 30
0.0
 11
111.794431
 21
91.101246
 31
0.0
  0
LINE
  5
24f
100
AcDbEntity
  8
frame-thin-parts3
 62
1
100
AcDbLine
 10
107.094443
 20
80.901382
 30
0.0
 11
111.794502
 21
80.901382
 31
0.0
  0
LINE
  5
250
100
AcDbEntity
  8
frame-thin-parts3
 62
1
100
AcDbLine
 10
107.094443
 20
91.101387
 30
0.0
 11
107.094443
 21
80.901523
 31
0.0
  0
LINE
  5
251
100
AcDbEntity
  8
frame-thin-parts3
 62
1
100
AcDbLine
 10
111.794431
 20
91.101387
 30
0.0
 11
107.094373
 21
91.101387
 31
0.0
  0
LINE
  5
252
100
AcDbEntity
  8
frame-thin-parts3
 62
1
100
AcDbLine
 10
111.794431
 20
108.901390
 30
0.0
 11
111.794431
 21
119.101254
 31
0.0
  0
LINE
  5
253
100
AcDbEntity
  8
frame-thin-parts3
 62
1
100
AcDbLine
 10
107.094443
 20
108.901390
 30
0.0
 11
111.794502
 21
108.901390
 31
0.0
  0
LINE
  5
254
100
AcDbEntity
  8
frame-thin-parts3
 62
1
100
AcDbLine
 10
107.094443
 20
119.101395
 30
0.0
 11
107.094443
 21
108.901531
 31
0.0
  0
LINE
  5
255
100
AcDbEntity
  8
frame-thin-parts3
 62
1
100
AcDbLine
 10
111.794431
 20
119.101395
 30
0.0
 11
107.094373
 21
119.101395
 31
0.0
  0
SPLINE
  5
256
100
AcDbEntity
  8
frame-thin-parts3
 62
1
100
AcDbSpline
 70
8
 71
3
 72
8
 73
4
 74
0
 40
0
 40
0
 40
0
 40
0
 40
1
 40
1
 40
1
 40
1
 10
100.444441
 20
116.601400
 30
0.0
 10
101.328149
 20
116.601400
 30
0.0
 10
102.044288
 20
115.884908
 30
0.0
 10
102.044288
 20
115.001552
 30
0.0
  0
SPLINE
  5
257
100
AcDbEntity
  8
frame-thin-parts3
 62
1
100
AcDbSpline
 70
8
 71
3
 72
8
 73
4
 74
0
 40
0
 40
0
 40
0
 40
0
 40
1
 40
1
 40
1
 40
1
 10
102.044288
 20
115.001552
 30
0.0
 10
102.044288
 20
114.117844
 30
0.0
 10
101.328149
 20
113.401352
 30
0.0
 10
100.444441
 20
113.401352
 30
0.0
  0
SPLINE
  5
258
100
AcDbEntity
  8
frame-thin-parts3
 62
1
100
AcDbSpline
 70
8
 71
3
 72
8
 73
4
 74
0
 40
0
 40
0
 40
0
 40
0
 40
1
 40
1
 40
1
 40
1
 10
100.444441
 20
113.401352
 30
0.0
 10
99.560733
 20
113.401352
 30
0.0
 10
98.844594
 20
114.117844
 30
0.0
 10
98.844594
 20
115.001552
 30
0.0
  0
SPLINE
  5
259
100
AcDbEntity
  8
frame-thin-parts3
 62
1
100
AcDbSpline
 70
8
 71
3
 72
8
 73
4
 74
0
 40
0
 40
0
 40
0
 40
0
 40
1
 40
1
 40
1
 40
1
 10
98.844594
 20
115.001552
 30
0.0
 10
98.844594
 20
115.884908
 30
0.0
 10
99.560733
 20
116.601400
 30
0.0
 10
100.444441
 20
116.601400
 30
0.0
  0
LINE
  5
25a
100
AcDbEntity
  8
frame-thin-parts3
 62
1
100
AcDbLine
 10
100.444441
 20
116.601400
 30
0.0
 11
100.444441
 21
116.601400
 31
0.0
  0
SPLINE
  5
25b
100
AcDbEntity
  8
frame-thin-parts3
 62
1
100
AcDbSpline
 70
8
 71
3
 72
8
 73
4
 74
0
 40
0
 40
0
 40
0
 40
0
 40
1
 40
1
 40
1
 40
1
 10
100.444441
 20
86.601389
 30
0.0
 10
101.328149
 20
86.601389
 30
0.0
 10
102.044288
 20
85.884897
 30
0.0
 10
102.044288
 20
85.001542
 30
0.0
  0
SPLINE
  5
25c
100
AcDbEntity
  8
frame-thin-parts3
 62
1
100
AcDbSpline
 70
8
 71
3
 72
8
 73
4
 74
0
 40
0
 40
0
 40
0
 40
0
 40
1
 40
1
 40
1
 40
1
 10
102.044288
 20
85.001542
 30
0.0
 10
102.044288
 20
84.117834
 30
0.0
 10
101.328149
 20
83.401342
 30
0.0
 10
100.444441
 20
83.401342
 30
0.0
  0
SPLINE
  5
25d
100
AcDbEntity
  8
frame-thin-parts3
 62
1
100
AcDbSpline
 70
8
 71
3
 72
8
 73
4
 74
0
 40
0
 40
0
 40
0
 40
0
 40
1
 40
1
 40
1
 40
1
 10
100.444441
 20
83.401342
 30
0.0
 10
99.560733
 20
83.401342
 30
0.0
 10
98.844594
 20
84.117834
 30
0.0
 10
98.844594
 20
85.001542
 30
0.0
  0
SPLINE
  5
25e
100
AcDbEntity
  8
frame-thin-parts3
 62
1
100
AcDbSpline
 70
8
 71
3
 72
8
 73
4
 74
0
 40
0
 40
0
 40
0
 40
0
 40
1
 40
1
 40
1
 40
1
 10
98.844594
 20
85.001542
 30
0.0
 10
98.844594
 20
85.884897
 30
0.0
 10
99.560733
 20
86.601389
 30
0.0
 10
100.444441
 20
86.601389
 30
0.0
  0
LINE
  5
25f
100
AcDbEntity
  8
frame-thin-parts3
 62
1
100
AcDbLine
 10
100.444441
 20
86.601389
 30
0.0
 11
100.444441
 21
86.601389
 31
0.0
  0
SPLINE
  5
260
100
AcDbEntity
  8
frame-thin-parts3
 62
1
100
AcDbSpline
 70
8
 71
3
 72
8
 73
4
 74
0
 40
0
 40
0
 40
0
 40
0
 40
1
 40
1
 40
1
 40
1
 10
133.444439
 20
86.601389
 30
0.0
 10
134.328147
 20
86.601389
 30
0.0
 10
135.044286
 20
85.884897
 30
0.0
 10
135.044286
 20
85.001542
 30
0.0
  0
SPLINE
  5
261
100
AcDbEntity
  8
frame-thin-parts3
 62
1
100
AcDbSpline
 70
8
 71
3
 72
8
 73
4
 74
0
 40
0
 40
0
 40
0
 40
0
 40
1
 40
1
 40
1
 40
1
 10
135.044286
 20
85.001542
 30
0.0
 10
135.044286
 20
84.117834
 30
0.0
 10
134.328147
 20
83.401342
 30
0.0
 10
133.444439
 20
83.401342
 30
0.0
  0
SPLINE
  5
262
100
AcDbEntity
  8
frame-thin-parts3
 62
1
100
AcDbSpline
 70
8
 71
3
 72
8
 73
4
 74
0
 40
0
 40
0
 40
0
 40
0
 40
1
 40
1
 40
1
 40
1
 10
133.444439
 20
83.401342
 30
0.0
 10
132.560730
 20
83.401342
 30
0.0
 10
131.844591
 20
84.117834
 30
0.0
 10
131.844591
 20
85.001542
 30
0.0
  0
SPLINE
  5
263
100
AcDbEntity
  8
frame-thin-parts3
 62
1
100
AcDbSpline
 70
8
 71
3
 72
8
 73
4
 74
0
 40
0
 40
0
 40
0
 40
0
 40
1
 40
1
 40
1
 40
1
 10
131.844591
 20
85.001542
 30
0.0
 10
131.844591
 20
85.884897
 30
0.0
 10
132.560730
 20
86.601389
 30
0.0
 10
133.444439
 20
86.601389
 30
0.0
  0
LINE
  5
264
100
AcDbEntity
  8
frame-thin-parts3
 62
1
100
AcDbLine
 10
133.444439
 20
86.601389
 30
0.0
 11
133.444439
 21
86.601389
 31
0.0
  0
SPLINE
  5
265
100
AcDbEntity
  8
frame-thin-parts3
 62
1
100
AcDbSpline
 70
8
 71
3
 72
8
 73
4
 74
0
 40
0
 40
0
 40
0
 40
0
 40
1
 40
1
 40
1
 40
1
 10
133.444439
 20
116.601400
 30
0.0
 10
134.328147
 20
116.601400
 30
0.0
 10
135.044286
 20
115.884908
 30
0.0
 10
135.044286
 20
115.001552
 30
0.0
  0
SPLINE
  5
266
100
AcDbEntity
  8
frame-thin-parts3
 62
1
100
AcDbSpline
 70
8
 71
3
 72
8
 73
4
 74
0
 40
0
 40
0
 40
0
 40
0
 40
1
 40
1
 40
1
 40
1
 10
135.044286
 20
115.001552
 30
0.0
 10
135.044286
 20
114.117844
 30
0.0
 10
134.328147
 20
113.401352
 30
0.0
 10
133.444439
 20
113.401352
 30
0.0
  0
SPLINE
  5
267
100
AcDbEntity
  8
frame-thin-parts3
 62
1
100
AcDbSpline
 70
8
 71
3
 72
8
 73
4
 74
0
 40
0
 40
0
 40
0
 40
0
 40
1
 40
1
 40
1
 40
1
 10
133.444439
 20
113.401352
 30
0.0
 10
132.560730
 20
113.401352
 30
0.0
 10
131.844591
 20
114.117844
 30
0.0
 10
131.844591
 20
115.001552
 30
0.0
  0
SPLINE
  5
268
100
AcDbEntity
  8
frame-thin-parts3
 62
1
100
AcDbSpline
 70
8
 71
3
 72
8
 73
4
 74
0
 40
0
 40
0
 40
0
 40
0
 40
1
 40
1
 40
1
 40
1
 10
131.844591
 20
115.001552
 30
0.0
 10
131.844591
 20
115.884908
 30
0.0
 10
132.560730
 20
116.601400
 30
0.0
 10
133.444439
 20
116.601400
 30
0.0
  0
LINE
  5
269
100
AcDbEntity
  8
frame-thin-parts3
 62
1
100
AcDbLine
 10
133.444439
 20
116.601400
 30
0.0
 11
133.444439
 21
116.601400
 31
0.0
  0
LINE
  5
26a
100
AcDbEntity
  8
frame-thin-parts3
 62
1
100
AcDbLine
 10
71.944442
 20
74.501394
 30
0.0
 11
83.944531
 21
74.501394
 31
0.0
  0
LINE
  5
26b
100
AcDbEntity
  8
frame-thin-parts3
 62
1
100
AcDbLine
 10
71.944442
 20
98.751409
 30
0.0
 11
71.944442
 21
74.501464
 31
0.0
  0
LINE
  5
26c
100
AcDbEntity
  8
frame-thin-parts3
 62
1
100
AcDbLine
 10
83.944460
 20
98.751409
 30
0.0
 11
71.944371
 21
98.751409
 31
0.0
  0
LINE
  5
26d
100
AcDbEntity
  8
frame-thin-parts3
 62
1
100
AcDbLine
 10
83.944460
 20
74.501394
 30
0.0
 11
83.944460
 21
98.751338
 31
0.0
  0
LINE
  5
26e
100
AcDbEntity
  8
frame-thin-parts3
 62
1
100
AcDbLine
 10
116.944458
 20
101.251404
 30
0.0
 11
128.944546
 21
101.251404
 31
0.0
  0
LINE
  5
26f
100
AcDbEntity
  8
frame-thin-parts3
 62
1
100
AcDbLine
 10
116.944458
 20
125.501383
 30
0.0
 11
116.944458
 21
101.251439
 31
0.0
  0
LINE
  5
270
100
AcDbEntity
  8
frame-thin-parts3
 62
1
100
AcDbLine
 10
128.944441
 20
125.501383
 30
0.0
 11
116.944352
 21
125.501383
 31
0.0
  0
LINE
  5
271
100
AcDbEntity
  8
frame-thin-parts3
 62
1
100
AcDbLine
 10
128.944441
 20
101.251404
 30
0.0
 11
128.944441
 21
125.501348
 31
0.0
  0
LINE
  5
272
100
AcDbEntity
  8
frame-thin-parts3
 62
1
100
AcDbLine
 10
62.944446
 20
72.501391
 30
0.0
 11
137.944296
 21
72.501391
 31
0.0
  0
LINE
  5
273
100
AcDbEntity
  8
frame-thin-parts3
 62
1
100
AcDbLine
 10
137.944437
 20
72.501391
 30
0.0
 11
137.944437
 21
127.501563
 31
0.0
  0
LINE
  5
274
100
AcDbEntity
  8
frame-thin-parts3
 62
1
100
AcDbLine
 10
137.944437
 20
127.501386
 30
0.0
 11
62.944587
 21
127.501386
 31
0.0
  0
LINE
  5
275
100
AcDbEntity
  8
frame-thin-parts3
 62
1
100
AcDbLine
 10
62.944446
 20
127.501386
 30
0.0
 11
62.944446
 21
72.501214
 31
0.0
  0
LINE
  5
276
100
AcDbEntity
  8
frame-thin-parts3
 62
1
100
AcDbLine
 10
116.944458
 20
74.501394
 30
0.0
 11
128.944546
 21
74.501394
 31
0.0
  0
LINE
  5
277
100
AcDbEntity
  8
frame-thin-parts3
 62
1
100
AcDbLine
 10
116.944458
 20
98.751409
 30
0.0
 11
116.944458
 21
74.501464
 31
0.0
  0
LINE
  5
278
100
AcDbEntity
  8
frame-thin-parts3
 62
1
100
AcDbLine
 10
128.944441
 20
98.751409
 30
0.0
 11
116.944352
 21
98.751409
 31
0.0
  0
LINE
  5
279
100
AcDbEntity
  8
frame-thin-parts3
 62
1
100
AcDbLine
 10
128.944441
 20
74.501394
 30
0.0
 11
128.944441
 21
98.751338
 31
0.0
  0
LINE
  5
27a
100
AcDbEntity
  8
frame-thin-parts3
 62
1
100
AcDbLine
 10
83.944460
 20
125.501383
 30
0.0
 11
71.944371
 21
125.501383
 31
0.0
  0
LINE
  5
27b
100
AcDbEntity
  8
frame-thin-parts3
 62
1
100
AcDbLine
 10
83.944460
 20
101.251404
 30
0.0
 11
83.944460
 21
125.501348
 31
0.0
  0
LINE
  5
27c
100
AcDbEntity
  8
frame-thin-parts3
 62
1
100
AcDbLine
 10
71.944442
 20
101.251404
 30
0.0
 11
83.944531
 21
101.251404
 31
0.0
  0
LINE
  5
27d
100
AcDbEntity
  8
frame-thin-parts3
 62
1
100
AcDbLine
 10
71.944442
 20
125.501383
 30
0.0
 11
71.944442
 21
101.251439
 31
0.0
  0
SPLINE
  5
27e
100
AcDbEntity
  8
frame-thin-parts3
 62
1
100
AcDbSpline
 70
8
 71
3
 72
8
 73
4
 74
0
 40
0
 40
0
 40
0
 40
0
 40
1
 40
1
 40
1
 40
1
 10
68.694441
 20
62.101396
 30
0.0
 10
69.578149
 20
62.101396
 30
0.0
 10
70.294288
 20
61.384904
 30
0.0
 10
70.294288
 20
60.501549
 30
0.0
  0
SPLINE
  5
27f
100
AcDbEntity
  8
frame-thin-parts3
 62
1
100
AcDbSpline
 70
8
 71
3
 72
8
 73
4
 74
0
 40
0
 40
0
 40
0
 40
0
 40
1
 40
1
 40
1
 40
1
 10
70.294288
 20
60.501549
 30
0.0
 10
70.294288
 20
59.617840
 30
0.0
 10
69.578149
 20
58.901349
 30
0.0
 10
68.694441
 20
58.901349
 30
0.0
  0
SPLINE
  5
280
100
AcDbEntity
  8
frame-thin-parts3
 62
1
100
AcDbSpline
 70
8
 71
3
 72
8
 73
4
 74
0
 40
0
 40
0
 40
0
 40
0
 40
1
 40
1
 40
1
 40
1
 10
68.694441
 20
58.901349
 30
0.0
 10
67.810733
 20
58.901349
 30
0.0
 10
67.094594
 20
59.617840
 30
0.0
 10
67.094594
 20
60.501549
 30
0.0
  0
SPLINE
  5
281
100
AcDbEntity
  8
frame-thin-parts3
 62
1
100
AcDbSpline
 70
8
 71
3
 72
8
 73
4
 74
0
 40
0
 40
0
 40
0
 40
0
 40
1
 40
1
 40
1
 40
1
 10
67.094594
 20
60.501549
 30
0.0
 10
67.094594
 20
61.384904
 30
0.0
 10
67.810733
 20
62.101396
 30
0.0
 10
68.694441
 20
62.101396
 30
0.0
  0
LINE
  5
282
100
AcDbEntity
  8
frame-thin-parts3
 62
1
100
AcDbLine
 10
68.694441
 20
62.101396
 30
0.0
 11
68.694441
 21
62.101396
 31
0.0
  0
SPLINE
  5
283
100
AcDbEntity
  8
frame-thin-parts3
 62
1
100
AcDbSpline
 70
8
 71
3
 72
8
 73
4
 74
0
 40
0
 40
0
 40
0
 40
0
 40
1
 40
1
 40
1
 40
1
 10
68.694441
 20
16.101396
 30
0.0
 10
69.578149
 20
16.101396
 30
0.0
 10
70.294288
 20
15.384904
 30
0.0
 10
70.294288
 20
14.501549
 30
0.0
  0
SPLINE
  5
284
100
AcDbEntity
  8
frame-thin-parts3
 62
1
100
AcDbSpline
 70
8
 71
3
 72
8
 73
4
 74
0
 40
0
 40
0
 40
0
 40
0
 40
1
 40
1
 40
1
 40
1
 10
70.294288
 20
14.501549
 30
0.0
 10
70.294288
 20
13.617841
 30
0.0
 10
69.578149
 20
12.901349
 30
0.0
 10
68.694441
 20
12.901349
 30
0.0
  0
SPLINE
  5
285
100
AcDbEntity
  8
frame-thin-parts3
 62
1
100
AcDbSpline
 70
8
 71
3
 72
8
 73
4
 74
0
 40
0
 40
0
 40
0
 40
0
 40
1
 40
1
 40
1
 40
1
 10
68.694441
 20
12.901349
 30
0.0
 10
67.810733
 20
12.901349
 30
0.0
 10
67.094594
 20
13.617841
 30
0.0
 10
67.094594
 20
14.501549
 30
0.0
  0
SPLINE
  5
286
100
AcDbEntity
  8
frame-thin-parts3
 62
1
100
AcDbSpline
 70
8
 71
3
 72
8
 73
4
 74
0
 40
0
 40
0
 40
0
 40
0
 40
1
 40
1
 40
1
 40
1
 10
67.094594
 20
14.501549
 30
0.0
 10
67.094594
 20
15.384904
 30
0.0
 10
67.810733
 20
16.101396
 30
0.0
 10
68.694441
 20
16.101396
 30
0.0
  0
LINE
  5
287
100
AcDbEntity
  8
frame-thin-parts3
 62
1
100
AcDbLine
 10
68.694441
 20
16.101396
 30
0.0
 11
68.694441
 21
16.101396
 31
0.0
  0
LINE
  5
288
100
AcDbEntity
  8
frame-thin-parts3
 62
1
100
AcDbLine
 10
95.794442
 20
58.151414
 30
0.0
 11
95.794442
 21
62.851472
 31
0.0
  0
LINE
  5
289
100
AcDbEntity
  8
frame-thin-parts3
 62
1
100
AcDbLine
 10
85.594437
 20
58.151414
 30
0.0
 11
95.794301
 21
58.151414
 31
0.0
  0
LINE
  5
28a
100
AcDbEntity
  8
frame-thin-parts3
 62
1
100
AcDbLine
 10
85.594437
 20
62.851401
 30
0.0
 11
85.594437
 21
58.151343
 31
0.0
  0
LINE
  5
28b
100
AcDbEntity
  8
frame-thin-parts3
 62
1
100
AcDbLine
 10
95.794442
 20
62.851401
 30
0.0
 11
85.594578
 21
62.851401
 31
0.0
  0
LINE
  5
28c
100
AcDbEntity
  8
frame-thin-parts3
 62
1
100
AcDbLine
 10
95.794442
 20
12.151414
 30
0.0
 11
95.794442
 21
16.851472
 31
0.0
  0
LINE
  5
28d
100
AcDbEntity
  8
frame-thin-parts3
 62
1
100
AcDbLine
 10
85.594437
 20
12.151414
 30
0.0
 11
95.794301
 21
12.151414
 31
0.0
  0
LINE
  5
28e
100
AcDbEntity
  8
frame-thin-parts3
 62
1
100
AcDbLine
 10
85.594437
 20
16.851402
 30
0.0
 11
85.594437
 21
12.151343
 31
0.0
  0
LINE
  5
28f
100
AcDbEntity
  8
frame-thin-parts3
 62
1
100
AcDbLine
 10
95.794442
 20
16.851402
 30
0.0
 11
85.594578
 21
16.851402
 31
0.0
  0
LINE
  5
290
100
AcDbEntity
  8
frame-thin-parts3
 62
1
100
AcDbLine
 10
102.794435
 20
32.401387
 30
0.0
 11
102.794435
 21
42.601251
 31
0.0
  0
LINE
  5
291
100
AcDbEntity
  8
frame-thin-parts3
 62
1
100
AcDbLine
 10
98.094447
 20
32.401387
 30
0.0
 11
102.794506
 21
32.401387
 31
0.0
  0
LINE
  5
292
100
AcDbEntity
  8
frame-thin-parts3
 62
1
100
AcDbLine
 10
98.094447
 20
42.601392
 30
0.0
 11
98.094447
 21
32.401529
 31
0.0
  0
LINE
  5
293
100
AcDbEntity
  8
frame-thin-parts3
 62
1
100
AcDbLine
 10
102.794435
 20
42.601392
 30
0.0
 11
98.094377
 21
42.601392
 31
0.0
  0
LINE
  5
294
100
AcDbEntity
  8
frame-thin-parts3
 62
1
100
AcDbLine
 10
111.794431
 20
18.401401
 30
0.0
 11
111.794431
 21
28.601265
 31
0.0
  0
LINE
  5
295
100
AcDbEntity
  8
frame-thin-parts3
 62
1
100
AcDbLine
 10
107.094443
 20
18.401401
 30
0.0
 11
111.794502
 21
18.401401
 31
0.0
  0
LINE
  5
296
100
AcDbEntity
  8
frame-thin-parts3
 62
1
100
AcDbLine
 10
107.094443
 20
28.601406
 30
0.0
 11
107.094443
 21
18.401542
 31
0.0
  0
LINE
  5
297
100
AcDbEntity
  8
frame-thin-parts3
 62
1
100
AcDbLine
 10
111.794431
 20
28.601406
 30
0.0
 11
107.094373
 21
28.601406
 31
0.0
  0
LINE
  5
298
100
AcDbEntity
  8
frame-thin-parts3
 62
1
100
AcDbLine
 10
111.794431
 20
46.401409
 30
0.0
 11
111.794431
 21
56.601273
 31
0.0
  0
LINE
  5
299
100
AcDbEntity
  8
frame-thin-parts3
 62
1
100
AcDbLine
 10
107.094443
 20
46.401409
 30
0.0
 11
111.794502
 21
46.401409
 31
0.0
  0
LINE
  5
29a
100
AcDbEntity
  8
frame-thin-parts3
 62
1
100
AcDbLine
 10
107.094443
 20
56.601414
 30
0.0
 11
107.094443
 21
46.401550
 31
0.0
  0
LINE
  5
29b
100
AcDbEntity
  8
frame-thin-parts3
 62
1
100
AcDbLine
 10
111.794431
 20
56.601414
 30
0.0
 11
107.094373
 21
56.601414
 31
0.0
  0
SPLINE
  5
29c
100
AcDbEntity
  8
frame-thin-parts3
 62
1
100
AcDbSpline
 70
8
 71
3
 72
8
 73
4
 74
0
 40
0
 40
0
 40
0
 40
0
 40
1
 40
1
 40
1
 40
1
 10
100.444441
 20
54.101419
 30
0.0
 10
101.328149
 20
54.101419
 30
0.0
 10
102.044288
 20
53.384927
 30
0.0
 10
102.044288
 20
52.501572
 30
0.0
  0
SPLINE
  5
29d
100
AcDbEntity
  8
frame-thin-parts3
 62
1
100
AcDbSpline
 70
8
 71
3
 72
8
 73
4
 74
0
 40
0
 40
0
 40
0
 40
0
 40
1
 40
1
 40
1
 40
1
 10
102.044288
 20
52.501572
 30
0.0
 10
102.044288
 20
51.617863
 30
0.0
 10
101.328149
 20
50.901372
 30
0.0
 10
100.444441
 20
50.901372
 30
0.0
  0
SPLINE
  5
29e
100
AcDbEntity
  8
frame-thin-parts3
 62
1
100
AcDbSpline
 70
8
 71
3
 72
8
 73
4
 74
0
 40
0
 40
0
 40
0
 40
0
 40
1
 40
1
 40
1
 40
1
 10
100.444441
 20
50.901372
 30
0.0
 10
99.560733
 20
50.901372
 30
0.0
 10
98.844594
 20
51.617863
 30
0.0
 10
98.844594
 20
52.501572
 30
0.0
  0
SPLINE
  5
29f
100
AcDbEntity
  8
frame-thin-parts3
 62
1
100
AcDbSpline
 70
8
 71
3
 72
8
 73
4
 74
0
 40
0
 40
0
 40
0
 40
0
 40
1
 40
1
 40
1
 40
1
 10
98.844594
 20
52.501572
 30
0.0
 10
98.844594
 20
53.384927
 30
0.0
 10
99.560733
 20
54.101419
 30
0.0
 10
100.444441
 20
54.101419
 30
0.0
  0
LINE
  5
2a0
100
AcDbEntity
  8
frame-thin-parts3
 62
1
100
AcDbLine
 10
100.444441
 20
54.101419
 30
0.0
 11
100.444441
 21
54.101419
 31
0.0
  0
SPLINE
  5
2a1
100
AcDbEntity
  8
frame-thin-parts3
 62
1
100
AcDbSpline
 70
8
 71
3
 72
8
 73
4
 74
0
 40
0
 40
0
 40
0
 40
0
 40
1
 40
1
 40
1
 40
1
 10
100.444441
 20
24.101408
 30
0.0
 10
101.328149
 20
24.101408
 30
0.0
 10
102.044288
 20
23.384917
 30
0.0
 10
102.044288
 20
22.501561
 30
0.0
  0
SPLINE
  5
2a2
100
AcDbEntity
  8
frame-thin-parts3
 62
1
100
AcDbSpline
 70
8
 71
3
 72
8
 73
4
 74
0
 40
0
 40
0
 40
0
 40
0
 40
1
 40
1
 40
1
 40
1
 10
102.044288
 20
22.501561
 30
0.0
 10
102.044288
 20
21.617853
 30
0.0
 10
101.328149
 20
20.901361
 30
0.0
 10
100.444441
 20
20.901361
 30
0.0
  0
SPLINE
  5
2a3
100
AcDbEntity
  8
frame-thin-parts3
 62
1
100
AcDbSpline
 70
8
 71
3
 72
8
 73
4
 74
0
 40
0
 40
0
 40
0
 40
0
 40
1
 40
1
 40
1
 40
1
 10
100.444441
 20
20.901361
 30
0.0
 10
99.560733
 20
20.901361
 30
0.0
 10
98.844594
 20
21.617853
 30
0.0
 10
98.844594
 20
22.501561
 30
0.0
  0
SPLINE
  5
2a4
100
AcDbEntity
  8
frame-thin-parts3
 62
1
100
AcDbSpline
 70
8
 71
3
 72
8
 73
4
 74
0
 40
0
 40
0
 40
0
 40
0
 40
1
 40
1
 40
1
 40
1
 10
98.844594
 20
22.501561
 30
0.0
 10
98.844594
 20
23.384917
 30
0.0
 10
99.560733
 20
24.101408
 30
0.0
 10
100.444441
 20
24.101408
 30
0.0
  0
LINE
  5
2a5
100
AcDbEntity
  8
frame-thin-parts3
 62
1
100
AcDbLine
 10
100.444441
 20
24.101408
 30
0.0
 11
100.444441
 21
24.101408
 31
0.0
  0
SPLINE
  5
2a6
100
AcDbEntity
  8
frame-thin-parts3
 62
1
100
AcDbSpline
 70
8
 71
3
 72
8
 73
4
 74
0
 40
0
 40
0
 40
0
 40
0
 40
1
 40
1
 40
1
 40
1
 10
133.444439
 20
24.101408
 30
0.0
 10
134.328147
 20
24.101408
 30
0.0
 10
135.044286
 20
23.384917
 30
0.0
 10
135.044286
 20
22.501561
 30
0.0
  0
SPLINE
  5
2a7
100
AcDbEntity
  8
frame-thin-parts3
 62
1
100
AcDbSpline
 70
8
 71
3
 72
8
 73
4
 74
0
 40
0
 40
0
 40
0
 40
0
 40
1
 40
1
 40
1
 40
1
 10
135.044286
 20
22.501561
 30
0.0
 10
135.044286
 20
21.617853
 30
0.0
 10
134.328147
 20
20.901361
 30
0.0
 10
133.444439
 20
20.901361
 30
0.0
  0
SPLINE
  5
2a8
100
AcDbEntity
  8
frame-thin-parts3
 62
1
100
AcDbSpline
 70
8
 71
3
 72
8
 73
4
 74
0
 40
0
 40
0
 40
0
 40
0
 40
1
 40
1
 40
1
 40
1
 10
133.444439
 20
20.901361
 30
0.0
 10
132.560730
 20
20.901361
 30
0.0
 10
131.844591
 20
21.617853
 30
0.0
 10
131.844591
 20
22.501561
 30
0.0
  0
SPLINE
  5
2a9
100
AcDbEntity
  8
frame-thin-parts3
 62
1
100
AcDbSpline
 70
8
 71
3
 72
8
 73
4
 74
0
 40
0
 40
0
 40
0
 40
0
 40
1
 40
1
 40
1
 40
1
 10
131.844591
 20
22.501561
 30
0.0
 10
131.844591
 20
23.384917
 30
0.0
 10
132.560730
 20
24.101408
 30
0.0
 10
133.444439
 20
24.101408
 30
0.0
  0
LINE
  5
2aa
100
AcDbEntity
  8
frame-thin-parts3
 62
1
100
AcDbLine
 10
133.444439
 20
24.101408
 30
0.0
 11
133.444439
 21
24.101408
 31
0.0
  0
SPLINE
  5
2ab
100
AcDbEntity
  8
frame-thin-parts3
 62
1
100
AcDbSpline
 70
8
 71
3
 72
8
 73
4
 74
0
 40
0
 40
0
 40
0
 40
0
 40
1
 40
1
 40
1
 40
1
 10
133.444439
 20
54.101419
 30
0.0
 10
134.328147
 20
54.101419
 30
0.0
 10
135.044286
 20
53.384927
 30
0.0
 10
135.044286
 20
52.501572
 30
0.0
  0
SPLINE
  5
2ac
100
AcDbEntity
  8
frame-thin-parts3
 62
1
100
AcDbSpline
 70
8
 71
3
 72
8
 73
4
 74
0
 40
0
 40
0
 40
0
 40
0
 40
1
 40
1
 40
1
 40
1
 10
135.044286
 20
52.501572
 30
0.0
 10
135.044286
 20
51.617863
 30
0.0
 10
134.328147
 20
50.901372
 30
0.0
 10
133.444439
 20
50.901372
 30
0.0
  0
SPLINE
  5
2ad
100
AcDbEntity
  8
frame-thin-parts3
 62
1
100
AcDbSpline
 70
8
 71
3
 72
8
 73
4
 74
0
 40
0
 40
0
 40
0
 40
0
 40
1
 40
1
 40
1
 40
1
 10
133.444439
 20
50.901372
 30
0.0
 10
132.560730
 20
50.901372
 30
0.0
 10
131.844591
 20
51.617863
 30
0.0
 10
131.844591
 20
52.501572
 30
0.0
  0
SPLINE
  5
2ae
100
AcDbEntity
  8
frame-thin-parts3
 62
1
100
AcDbSpline
 70
8
 71
3
 72
8
 73
4
 74
0
 40
0
 40
0
 40
0
 40
0
 40
1
 40
1
 40
1
 40
1
 10
131.844591
 20
52.501572
 30
0.0
 10
131.844591
 20
53.384927
 30
0.0
 10
132.560730
 20
54.101419
 30
0.0
 10
133.444439
 20
54.101419
 30
0.0
  0
LINE
  5
2af
100
AcDbEntity
  8
frame-thin-parts3
 62
1
100
AcDbLine
 10
133.444439
 20
54.101419
 30
0.0
 11
133.444439
 21
54.101419
 31
0.0
  0
LINE
  5
2b0
100
AcDbEntity
  8
frame-thin-parts3
 62
1
100
AcDbLine
 10
71.944442
 20
12.001413
 30
0.0
 11
83.944531
 21
12.001413
 31
0.0
  0
LINE
  5
2b1
100
AcDbEntity
  8
frame-thin-parts3
 62
1
100
AcDbLine
 10
71.944442
 20
36.251392
 30
0.0
 11
71.944442
 21
12.001448
 31
0.0
  0
LINE
  5
2b2
100
AcDbEntity
  8
frame-thin-parts3
 62
1
100
AcDbLine
 10
83.944460
 20
36.251392
 30
0.0
 11
71.944371
 21
36.251392
 31
0.0
  0
LINE
  5
2b3
100
AcDbEntity
  8
frame-thin-parts3
 62
1
100
AcDbLine
 10
83.944460
 20
12.001413
 30
0.0
 11
83.944460
 21
36.251357
 31
0.0
  0
LINE
  5
2b4
100
AcDbEntity
  8
frame-thin-parts3
 62
1
100
AcDbLine
 10
116.944458
 20
38.751387
 30
0.0
 11
128.944546
 21
38.751387
 31
0.0
  0
LINE
  5
2b5
100
AcDbEntity
  8
frame-thin-parts3
 62
1
100
AcDbLine
 10
116.944458
 20
63.001402
 30
0.0
 11
116.944458
 21
38.751458
 31
0.0
  0
LINE
  5
2b6
100
AcDbEntity
  8
frame-thin-parts3
 62
1
100
AcDbLine
 10
128.944441
 20
63.001402
 30
0.0
 11
116.944352
 21
63.001402
 31
0.0
  0
LINE
  5
2b7
100
AcDbEntity
  8
frame-thin-parts3
 62
1
100
AcDbLine
 10
128.944441
 20
38.751387
 30
0.0
 11
128.944441
 21
63.001332
 31
0.0
  0
LINE
  5
2b8
100
AcDbEntity
  8
frame-thin-parts3
 62
1
100
AcDbLine
 10
62.944446
 20
10.001410
 30
0.0
 11
137.944296
 21
10.001410
 31
0.0
  0
LINE
  5
2b9
100
AcDbEntity
  8
frame-thin-parts3
 62
1
100
AcDbLine
 10
137.944437
 20
10.001410
 30
0.0
 11
137.944437
 21
65.001582
 31
0.0
  0
LINE
  5
2ba
100
AcDbEntity
  8
frame-thin-parts3
 62
1
100
AcDbLine
 10
137.944437
 20
65.001406
 30
0.0
 11
62.944587
 21
65.001406
 31
0.0
  0
LINE
  5
2bb
100
AcDbEntity
  8
frame-thin-parts3
 62
1
100
AcDbLine
 10
62.944446
 20
65.001406
 30
0.0
 11
62.944446
 21
10.001233
 31
0.0
  0
LINE
  5
2bc
100
AcDbEntity
  8
frame-thin-parts3
 62
1
100
AcDbLine
 10
116.944458
 20
12.001413
 30
0.0
 11
128.944546
 21
12.001413
 31
0.0
  0
LINE
  5
2bd
100
AcDbEntity
  8
frame-thin-parts3
 62
1
100
AcDbLine
 10
116.944458
 20
36.251392
 30
0.0
 11
116.944458
 21
12.001448
 31
0.0
  0
LINE
  5
2be
100
AcDbEntity
  8
frame-thin-parts3
 62
1
100
AcDbLine
 10
128.944441
 20
36.251392
 30
0.0
 11
116.944352
 21
36.251392
 31
0.0
  0
LINE
  5
2bf
100
AcDbEntity
  8
frame-thin-parts3
 62
1
100
AcDbLine
 10
128.944441
 20
12.001413
 30
0.0
 11
128.944441
 21
36.251357
 31
0.0
  0
LINE
  5
2c0
100
AcDbEntity
  8
frame-thin-parts3
 62
1
100
AcDbLine
 10
83.944460
 20
63.001402
 30
0.0
 11
71.944371
 21
63.001402
 31
0.0
  0
LINE
  5
2c1
100
AcDbEntity
  8
frame-thin-parts3
 62
1
100
AcDbLine
 10
83.944460
 20
38.751387
 30
0.0
 11
83.944460
 21
63.001332
 31
0.0
  0
LINE
  5
2c2
100
AcDbEntity
  8
frame-thin-parts3
 62
1
100
AcDbLine
 10
71.944442
 20
38.751387
 30
0.0
 11
83.944531
 21
38.751387
 31
0.0
  0
LINE
  5
2c3
100
AcDbEntity
  8
frame-thin-parts3
 62
1
100
AcDbLine
 10
71.944442
 20
63.001402
 30
0.0
 11
71.944442
 21
38.751458
 31
0.0
  0
LINE
  5
2c4
100
AcDbEntity
  8
frame-thin-parts3
 62
1
100
AcDbLine
 10
158.747213
 20
58.001412
 30
0.0
 11
158.747213
 21
61.801535
 31
0.0
  0
LINE
  5
2c5
100
AcDbEntity
  8
frame-thin-parts3
 62
1
100
AcDbLine
 10
158.747213
 20
58.001412
 30
0.0
 11
187.247071
 21
58.001412
 31
0.0
  0
LINE
  5
2c6
100
AcDbEntity
  8
frame-thin-parts3
 62
1
100
AcDbLine
 10
187.247212
 20
61.801394
 30
0.0
 11
187.247212
 21
58.001271
 31
0.0
  0
LINE
  5
2c7
100
AcDbEntity
  8
frame-thin-parts3
 62
1
100
AcDbLine
 10
186.247229
 20
61.801394
 30
0.0
 11
187.247354
 21
61.801394
 31
0.0
  0
SPLINE
  5
2c8
100
AcDbEntity
  8
frame-thin-parts3
 62
1
100
AcDbSpline
 70
8
 71
3
 72
8
 73
4
 74
0
 40
0
 40
0
 40
0
 40
0
 40
1
 40
1
 40
1
 40
1
 10
185.997215
 20
62.051407
 30
0.0
 10
185.997215
 20
61.913471
 30
0.0
 10
186.109046
 20
61.801288
 30
0.0
 10
186.247334
 20
61.801288
 30
0.0
  0
LINE
  5
2c9
100
AcDbEntity
  8
frame-thin-parts3
 62
1
100
AcDbLine
 10
185.997215
 20
65.751411
 30
0.0
 11
185.997215
 21
62.051478
 31
0.0
  0
SPLINE
  5
2ca
100
AcDbEntity
  8
frame-thin-parts3
 62
1
100
AcDbSpline
 70
8
 71
3
 72
8
 73
4
 74
0
 40
0
 40
0
 40
0
 40
0
 40
1
 40
1
 40
1
 40
1
 10
186.247229
 20
66.001389
 30
0.0
 10
186.109292
 20
66.001389
 30
0.0
 10
185.997109
 20
65.889559
 30
0.0
 10
185.997109
 20
65.751270
 30
0.0
  0
LINE
  5
2cb
100
AcDbEntity
  8
frame-thin-parts3
 62
1
100
AcDbLine
 10
187.247212
 20
66.001389
 30
0.0
 11
186.247087
 21
66.001389
 31
0.0
  0
LINE
  5
2cc
100
AcDbEntity
  8
frame-thin-parts3
 62
1
100
AcDbLine
 10
187.247212
 20
68.501384
 30
0.0
 11
187.247212
 21
66.001248
 31
0.0
  0
LINE
  5
2cd
100
AcDbEntity
  8
frame-thin-parts3
 62
1
100
AcDbLine
 10
190.747227
 20
68.501384
 30
0.0
 11
187.247318
 21
68.501384
 31
0.0
  0
LINE
  5
2ce
100
AcDbEntity
  8
frame-thin-parts3
 62
1
100
AcDbLine
 10
190.747227
 20
66.001389
 30
0.0
 11
190.747227
 21
68.501526
 31
0.0
  0
LINE
  5
2cf
100
AcDbEntity
  8
frame-thin-parts3
 62
1
100
AcDbLine
 10
191.747211
 20
66.001389
 30
0.0
 11
190.747086
 21
66.001389
 31
0.0
  0
SPLINE
  5
2d0
100
AcDbEntity
  8
frame-thin-parts3
 62
1
100
AcDbSpline
 70
8
 71
3
 72
8
 73
4
 74
0
 40
0
 40
0
 40
0
 40
0
 40
1
 40
1
 40
1
 40
1
 10
191.997224
 20
65.751411
 30
0.0
 10
191.997224
 20
65.889347
 30
0.0
 10
191.885394
 20
66.001531
 30
0.0
 10
191.747105
 20
66.001531
 30
0.0
  0
LINE
  5
2d1
100
AcDbEntity
  8
frame-thin-parts3
 62
1
100
AcDbLine
 10
191.997224
 20
62.051407
 30
0.0
 11
191.997224
 21
65.751341
 31
0.0
  0
SPLINE
  5
2d2
100
AcDbEntity
  8
frame-thin-parts3
 62
1
100
AcDbSpline
 70
8
 71
3
 72
8
 73
4
 74
0
 40
0
 40
0
 40
0
 40
0
 40
1
 40
1
 40
1
 40
1
 10
191.747211
 20
61.801394
 30
0.0
 10
191.885147
 20
61.801394
 30
0.0
 10
191.997330
 20
61.913224
 30
0.0
 10
191.997330
 20
62.051513
 30
0.0
  0
LINE
  5
2d3
100
AcDbEntity
  8
frame-thin-parts3
 62
1
100
AcDbLine
 10
190.747227
 20
61.801394
 30
0.0
 11
191.747352
 21
61.801394
 31
0.0
  0
LINE
  5
2d4
100
AcDbEntity
  8
frame-thin-parts3
 62
1
100
AcDbLine
 10
190.747227
 20
58.001412
 30
0.0
 11
190.747227
 21
61.801535
 31
0.0
  0
LINE
  5
2d5
100
AcDbEntity
  8
frame-thin-parts3
 62
1
100
AcDbLine
 10
190.747227
 20
58.001412
 30
0.0
 11
200.497299
 21
58.001412
 31
0.0
  0
LINE
  5
2d6
100
AcDbEntity
  8
frame-thin-parts3
 62
1
100
AcDbLine
 10
200.497228
 20
58.001412
 30
0.0
 11
200.497228
 21
114.001357
 31
0.0
  0
LINE
  5
2d7
100
AcDbEntity
  8
frame-thin-parts3
 62
1
100
AcDbLine
 10
200.497228
 20
114.001392
 30
0.0
 11
189.747384
 21
114.001392
 31
0.0
  0
LINE
  5
2d8
100
AcDbEntity
  8
frame-thin-parts3
 62
1
100
AcDbLine
 10
189.747207
 20
110.201411
 30
0.0
 11
189.747207
 21
114.001533
 31
0.0
  0
LINE
  5
2d9
100
AcDbEntity
  8
frame-thin-parts3
 62
1
100
AcDbLine
 10
190.747227
 20
110.201411
 30
0.0
 11
189.747102
 21
110.201411
 31
0.0
  0
SPLINE
  5
2da
100
AcDbEntity
  8
frame-thin-parts3
 62
1
100
AcDbSpline
 70
8
 71
3
 72
8
 73
4
 74
0
 40
0
 40
0
 40
0
 40
0
 40
1
 40
1
 40
1
 40
1
 10
190.997205
 20
109.951397
 30
0.0
 10
190.997205
 20
110.089334
 30
0.0
 10
190.885374
 20
110.201517
 30
0.0
 10
190.747086
 20
110.201517
 30
0.0
  0
LINE
  5
2db
100
AcDbEntity
  8
frame-thin-parts3
 62
1
100
AcDbLine
 10
190.997205
 20
106.251394
 30
0.0
 11
190.997205
 21
109.951327
 31
0.0
  0
SPLINE
  5
2dc
100
AcDbEntity
  8
frame-thin-parts3
 62
1
100
AcDbSpline
 70
8
 71
3
 72
8
 73
4
 74
0
 40
0
 40
0
 40
0
 40
0
 40
1
 40
1
 40
1
 40
1
 10
190.747227
 20
106.001415
 30
0.0
 10
190.885163
 20
106.001415
 30
0.0
 10
190.997346
 20
106.113246
 30
0.0
 10
190.997346
 20
106.251535
 30
0.0
  0
LINE
  5
2dd
100
AcDbEntity
  8
frame-thin-parts3
 62
1
100
AcDbLine
 10
189.747207
 20
106.001415
 30
0.0
 11
190.747332
 21
106.001415
 31
0.0
  0
LINE
  5
2de
100
AcDbEntity
  8
frame-thin-parts3
 62
1
100
AcDbLine
 10
189.747207
 20
103.501385
 30
0.0
 11
189.747207
 21
106.001521
 31
0.0
  0
LINE
  5
2df
100
AcDbEntity
  8
frame-thin-parts3
 62
1
100
AcDbLine
 10
186.247229
 20
103.501385
 30
0.0
 11
189.747137
 21
103.501385
 31
0.0
  0
LINE
  5
2e0
100
AcDbEntity
  8
frame-thin-parts3
 62
1
100
AcDbLine
 10
186.247229
 20
106.001415
 30
0.0
 11
186.247229
 21
103.501279
 31
0.0
  0
LINE
  5
2e1
100
AcDbEntity
  8
frame-thin-parts3
 62
1
100
AcDbLine
 10
185.247209
 20
106.001415
 30
0.0
 11
186.247334
 21
106.001415
 31
0.0
  0
SPLINE
  5
2e2
100
AcDbEntity
  8
frame-thin-parts3
 62
1
100
AcDbSpline
 70
8
 71
3
 72
8
 73
4
 74
0
 40
0
 40
0
 40
0
 40
0
 40
1
 40
1
 40
1
 40
1
 10
184.997231
 20
106.251394
 30
0.0
 10
184.997231
 20
106.113457
 30
0.0
 10
185.109062
 20
106.001274
 30
0.0
 10
185.247351
 20
106.001274
 30
0.0
  0
LINE
  5
2e3
100
AcDbEntity
  8
frame-thin-parts3
 62
1
100
AcDbLine
 10
184.997231
 20
109.951397
 30
0.0
 11
184.997231
 21
106.251464
 31
0.0
  0
SPLINE
  5
2e4
100
AcDbEntity
  8
frame-thin-parts3
 62
1
100
AcDbSpline
 70
8
 71
3
 72
8
 73
4
 74
0
 40
0
 40
0
 40
0
 40
0
 40
1
 40
1
 40
1
 40
1
 10
185.247209
 20
110.201411
 30
0.0
 10
185.109273
 20
110.201411
 30
0.0
 10
184.997090
 20
110.089581
 30
0.0
 10
184.997090
 20
109.951292
 30
0.0
  0
LINE
  5
2e5
100
AcDbEntity
  8
frame-thin-parts3
 62
1
100
AcDbLine
 10
186.247229
 20
110.201411
 30
0.0
 11
185.247104
 21
110.201411
 31
0.0
  0
LINE
  5
2e6
100
AcDbEntity
  8
frame-thin-parts3
 62
1
100
AcDbLine
 10
186.247229
 20
114.001392
 30
0.0
 11
186.247229
 21
110.201270
 31
0.0
  0
LINE
  5
2e7
100
AcDbEntity
  8
frame-thin-parts3
 62
1
100
AcDbLine
 10
186.247229
 20
114.001392
 30
0.0
 11
177.997167
 21
114.001392
 31
0.0
  0
LINE
  5
2e8
100
AcDbEntity
  8
frame-thin-parts3
 62
1
100
AcDbLine
 10
177.997238
 20
114.001392
 30
0.0
 11
177.997238
 21
118.501426
 31
0.0
  0
LINE
  5
2e9
100
AcDbEntity
  8
frame-thin-parts3
 62
1
100
AcDbLine
 10
177.997238
 20
118.501390
 30
0.0
 11
167.997399
 21
118.501390
 31
0.0
  0
LINE
  5
2ea
100
AcDbEntity
  8
frame-thin-parts3
 62
1
100
AcDbLine
 10
167.997223
 20
118.501390
 30
0.0
 11
167.997223
 21
114.001357
 31
0.0
  0
LINE
  5
2eb
100
AcDbEntity
  8
frame-thin-parts3
 62
1
100
AcDbLine
 10
167.997223
 20
114.001392
 30
0.0
 11
159.747162
 21
114.001392
 31
0.0
  0
LINE
  5
2ec
100
AcDbEntity
  8
frame-thin-parts3
 62
1
100
AcDbLine
 10
159.747232
 20
110.201411
 30
0.0
 11
159.747232
 21
114.001533
 31
0.0
  0
LINE
  5
2ed
100
AcDbEntity
  8
frame-thin-parts3
 62
1
100
AcDbLine
 10
160.747216
 20
110.201411
 30
0.0
 11
159.747091
 21
110.201411
 31
0.0
  0
SPLINE
  5
2ee
100
AcDbEntity
  8
frame-thin-parts3
 62
1
100
AcDbSpline
 70
8
 71
3
 72
8
 73
4
 74
0
 40
0
 40
0
 40
0
 40
0
 40
1
 40
1
 40
1
 40
1
 10
160.997230
 20
109.951397
 30
0.0
 10
160.997230
 20
110.089334
 30
0.0
 10
160.885399
 20
110.201517
 30
0.0
 10
160.747110
 20
110.201517
 30
0.0
  0
LINE
  5
2ef
100
AcDbEntity
  8
frame-thin-parts3
 62
1
100
AcDbLine
 10
160.997230
 20
106.251394
 30
0.0
 11
160.997230
 21
109.951327
 31
0.0
  0
SPLINE
  5
2f0
100
AcDbEntity
  8
frame-thin-parts3
 62
1
100
AcDbSpline
 70
8
 71
3
 72
8
 73
4
 74
0
 40
0
 40
0
 40
0
 40
0
 40
1
 40
1
 40
1
 40
1
 10
160.747216
 20
106.001415
 30
0.0
 10
160.885152
 20
106.001415
 30
0.0
 10
160.997336
 20
106.113246
 30
0.0
 10
160.997336
 20
106.251535
 30
0.0
  0
LINE
  5
2f1
100
AcDbEntity
  8
frame-thin-parts3
 62
1
100
AcDbLine
 10
159.747232
 20
106.001415
 30
0.0
 11
160.747357
 21
106.001415
 31
0.0
  0
LINE
  5
2f2
100
AcDbEntity
  8
frame-thin-parts3
 62
1
100
AcDbLine
 10
159.747232
 20
103.501385
 30
0.0
 11
159.747232
 21
106.001521
 31
0.0
  0
LINE
  5
2f3
100
AcDbEntity
  8
frame-thin-parts3
 62
1
100
AcDbLine
 10
156.247218
 20
103.501385
 30
0.0
 11
159.747126
 21
103.501385
 31
0.0
  0
LINE
  5
2f4
100
AcDbEntity
  8
frame-thin-parts3
 62
1
100
AcDbLine
 10
156.247218
 20
106.001415
 30
0.0
 11
156.247218
 21
103.501279
 31
0.0
  0
LINE
  5
2f5
100
AcDbEntity
  8
frame-thin-parts3
 62
1
100
AcDbLine
 10
155.247234
 20
106.001415
 30
0.0
 11
156.247359
 21
106.001415
 31
0.0
  0
SPLINE
  5
2f6
100
AcDbEntity
  8
frame-thin-parts3
 62
1
100
AcDbSpline
 70
8
 71
3
 72
8
 73
4
 74
0
 40
0
 40
0
 40
0
 40
0
 40
1
 40
1
 40
1
 40
1
 10
154.997221
 20
106.251394
 30
0.0
 10
154.997221
 20
106.113457
 30
0.0
 10
155.109051
 20
106.001274
 30
0.0
 10
155.247340
 20
106.001274
 30
0.0
  0
LINE
  5
2f7
100
AcDbEntity
  8
frame-thin-parts3
 62
1
100
AcDbLine
 10
154.997221
 20
109.951397
 30
0.0
 11
154.997221
 21
106.251464
 31
0.0
  0
SPLINE
  5
2f8
100
AcDbEntity
  8
frame-thin-parts3
 62
1
100
AcDbSpline
 70
8
 71
3
 72
8
 73
4
 74
0
 40
0
 40
0
 40
0
 40
0
 40
1
 40
1
 40
1
 40
1
 10
155.247234
 20
110.201411
 30
0.0
 10
155.109298
 20
110.201411
 30
0.0
 10
154.997115
 20
110.089581
 30
0.0
 10
154.997115
 20
109.951292
 30
0.0
  0
LINE
  5
2f9
100
AcDbEntity
  8
frame-thin-parts3
 62
1
100
AcDbLine
 10
156.247218
 20
110.201411
 30
0.0
 11
155.247093
 21
110.201411
 31
0.0
  0
LINE
  5
2fa
100
AcDbEntity
  8
frame-thin-parts3
 62
1
100
AcDbLine
 10
156.247218
 20
114.001392
 30
0.0
 11
156.247218
 21
110.201270
 31
0.0
  0
LINE
  5
2fb
100
AcDbEntity
  8
frame-thin-parts3
 62
1
100
AcDbLine
 10
156.247218
 20
114.001392
 30
0.0
 11
145.497374
 21
114.001392
 31
0.0
  0
LINE
  5
2fc
100
AcDbEntity
  8
frame-thin-parts3
 62
1
100
AcDbLine
 10
145.497233
 20
114.001392
 30
0.0
 11
145.497233
 21
58.001448
 31
0.0
  0
LINE
  5
2fd
100
AcDbEntity
  8
frame-thin-parts3
 62
1
100
AcDbLine
 10
145.497233
 20
58.001412
 30
0.0
 11
155.247305
 21
58.001412
 31
0.0
  0
LINE
  5
2fe
100
AcDbEntity
  8
frame-thin-parts3
 62
1
100
AcDbLine
 10
155.247234
 20
61.801394
 30
0.0
 11
155.247234
 21
58.001271
 31
0.0
  0
LINE
  5
2ff
100
AcDbEntity
  8
frame-thin-parts3
 62
1
100
AcDbLine
 10
154.247215
 20
61.801394
 30
0.0
 11
155.247340
 21
61.801394
 31
0.0
  0
SPLINE
  5
300
100
AcDbEntity
  8
frame-thin-parts3
 62
1
100
AcDbSpline
 70
8
 71
3
 72
8
 73
4
 74
0
 40
0
 40
0
 40
0
 40
0
 40
1
 40
1
 40
1
 40
1
 10
153.997237
 20
62.051407
 30
0.0
 10
153.997237
 20
61.913471
 30
0.0
 10
154.109067
 20
61.801288
 30
0.0
 10
154.247356
 20
61.801288
 30
0.0
  0
LINE
  5
301
100
AcDbEntity
  8
frame-thin-parts3
 62
1
100
AcDbLine
 10
153.997237
 20
65.751411
 30
0.0
 11
153.997237
 21
62.051478
 31
0.0
  0
SPLINE
  5
302
100
AcDbEntity
  8
frame-thin-parts3
 62
1
100
AcDbSpline
 70
8
 71
3
 72
8
 73
4
 74
0
 40
0
 40
0
 40
0
 40
0
 40
1
 40
1
 40
1
 40
1
 10
154.247215
 20
66.001389
 30
0.0
 10
154.109279
 20
66.001389
 30
0.0
 10
153.997096
 20
65.889559
 30
0.0
 10
153.997096
 20
65.751270
 30
0.0
  0
LINE
  5
303
100
AcDbEntity
  8
frame-thin-parts3
 62
1
100
AcDbLine
 10
155.247234
 20
66.001389
 30
0.0
 11
154.247109
 21
66.001389
 31
0.0
  0
LINE
  5
304
100
AcDbEntity
  8
frame-thin-parts3
 62
1
100
AcDbLine
 10
155.247234
 20
68.501384
 30
0.0
 11
155.247234
 21
66.001248
 31
0.0
  0
LINE
  5
305
100
AcDbEntity
  8
frame-thin-parts3
 62
1
100
AcDbLine
 10
158.747213
 20
68.501384
 30
0.0
 11
155.247305
 21
68.501384
 31
0.0
  0
LINE
  5
306
100
AcDbEntity
  8
frame-thin-parts3
 62
1
100
AcDbLine
 10
158.747213
 20
66.001389
 30
0.0
 11
158.747213
 21
68.501526
 31
0.0
  0
LINE
  5
307
100
AcDbEntity
  8
frame-thin-parts3
 62
1
100
AcDbLine
 10
159.747232
 20
66.001389
 30
0.0
 11
158.747107
 21
66.001389
 31
0.0
  0
SPLINE
  5
308
100
AcDbEntity
  8
frame-thin-parts3
 62
1
100
AcDbSpline
 70
8
 71
3
 72
8
 73
4
 74
0
 40
0
 40
0
 40
0
 40
0
 40
1
 40
1
 40
1
 40
1
 10
159.997211
 20
65.751411
 30
0.0
 10
159.997211
 20
65.889347
 30
0.0
 10
159.885380
 20
66.001531
 30
0.0
 10
159.747091
 20
66.001531
 30
0.0
  0
LINE
  5
309
100
AcDbEntity
  8
frame-thin-parts3
 62
1
100
AcDbLine
 10
159.997211
 20
62.051407
 30
0.0
 11
159.997211
 21
65.751341
 31
0.0
  0
SPLINE
  5
30a
100
AcDbEntity
  8
frame-thin-parts3
 62
1
100
AcDbSpline
 70
8
 71
3
 72
8
 73
4
 74
0
 40
0
 40
0
 40
0
 40
0
 40
1
 40
1
 40
1
 40
1
 10
159.747232
 20
61.801394
 30
0.0
 10
159.885168
 20
61.801394
 30
0.0
 10
159.997352
 20
61.913224
 30
0.0
 10
159.997352
 20
62.051513
 30
0.0
  0
LINE
  5
30b
100
AcDbEntity
  8
frame-thin-parts3
 62
1
100
AcDbLine
 10
158.747213
 20
61.801394
 30
0.0
 11
159.747338
 21
61.801394
 31
0.0
  0
SPLINE
  5
30c
100
AcDbEntity
  8
frame-thin-parts3
 62
1
100
AcDbSpline
 70
8
 71
3
 72
8
 73
4
 74
0
 40
0
 40
0
 40
0
 40
0
 40
1
 40
1
 40
1
 40
1
 10
179.397237
 20
66.541386
 30
0.0
 10
179.397237
 20
67.425095
 30
0.0
 10
180.113728
 20
68.141234
 30
0.0
 10
180.997084
 20
68.141234
 30
0.0
  0
SPLINE
  5
30d
100
AcDbEntity
  8
frame-thin-parts3
 62
1
100
AcDbSpline
 70
8
 71
3
 72
8
 73
4
 74
0
 40
0
 40
0
 40
0
 40
0
 40
1
 40
1
 40
1
 40
1
 10
180.997084
 20
68.141234
 30
0.0
 10
181.880792
 20
68.141234
 30
0.0
 10
182.597284
 20
67.425095
 30
0.0
 10
182.597284
 20
66.541386
 30
0.0
  0
SPLINE
  5
30e
100
AcDbEntity
  8
frame-thin-parts3
 62
1
100
AcDbSpline
 70
8
 71
3
 72
8
 73
4
 74
0
 40
0
 40
0
 40
0
 40
0
 40
1
 40
1
 40
1
 40
1
 10
182.597284
 20
66.541386
 30
0.0
 10
182.597284
 20
65.657678
 30
0.0
 10
181.880792
 20
64.941539
 30
0.0
 10
180.997084
 20
64.941539
 30
0.0
  0
SPLINE
  5
30f
100
AcDbEntity
  8
frame-thin-parts3
 62
1
100
AcDbSpline
 70
8
 71
3
 72
8
 73
4
 74
0
 40
0
 40
0
 40
0
 40
0
 40
1
 40
1
 40
1
 40
1
 10
180.997084
 20
64.941539
 30
0.0
 10
180.113728
 20
64.941539
 30
0.0
 10
179.397237
 20
65.657678
 30
0.0
 10
179.397237
 20
66.541386
 30
0.0
  0
LINE
  5
310
100
AcDbEntity
  8
frame-thin-parts3
 62
1
100
AcDbLine
 10
179.397237
 20
66.541386
 30
0.0
 11
179.397237
 21
66.541386
 31
0.0
  0
SPLINE
  5
311
100
AcDbEntity
  8
frame-thin-parts3
 62
1
100
AcDbSpline
 70
8
 71
3
 72
8
 73
4
 74
0
 40
0
 40
0
 40
0
 40
0
 40
1
 40
1
 40
1
 40
1
 10
163.397212
 20
66.541386
 30
0.0
 10
163.397212
 20
67.425095
 30
0.0
 10
164.113704
 20
68.141234
 30
0.0
 10
164.997059
 20
68.141234
 30
0.0
  0
SPLINE
  5
312
100
AcDbEntity
  8
frame-thin-parts3
 62
1
100
AcDbSpline
 70
8
 71
3
 72
8
 73
4
 74
0
 40
0
 40
0
 40
0
 40
0
 40
1
 40
1
 40
1
 40
1
 10
164.997059
 20
68.141234
 30
0.0
 10
165.880768
 20
68.141234
 30
0.0
 10
166.597259
 20
67.425095
 30
0.0
 10
166.597259
 20
66.541386
 30
0.0
  0
SPLINE
  5
313
100
AcDbEntity
  8
frame-thin-parts3
 62
1
100
AcDbSpline
 70
8
 71
3
 72
8
 73
4
 74
0
 40
0
 40
0
 40
0
 40
0
 40
1
 40
1
 40
1
 40
1
 10
166.597259
 20
66.541386
 30
0.0
 10
166.597259
 20
65.657678
 30
0.0
 10
165.880768
 20
64.941539
 30
0.0
 10
164.997059
 20
64.941539
 30
0.0
  0
SPLINE
  5
314
100
AcDbEntity
  8
frame-thin-parts3
 62
1
100
AcDbSpline
 70
8
 71
3
 72
8
 73
4
 74
0
 40
0
 40
0
 40
0
 40
0
 40
1
 40
1
 40
1
 40
1
 10
164.997059
 20
64.941539
 30
0.0
 10
164.113704
 20
64.941539
 30
0.0
 10
163.397212
 20
65.657678
 30
0.0
 10
163.397212
 20
66.541386
 30
0.0
  0
LINE
  5
315
100
AcDbEntity
  8
frame-thin-parts3
 62
1
100
AcDbLine
 10
163.397212
 20
66.541386
 30
0.0
 11
163.397212
 21
66.541386
 31
0.0
  0
SPLINE
  5
316
100
AcDbEntity
  8
frame-thin-parts3
 62
1
100
AcDbSpline
 70
8
 71
3
 72
8
 73
4
 74
0
 40
0
 40
0
 40
0
 40
0
 40
1
 40
1
 40
1
 40
1
 10
160.997230
 20
88.001388
 30
0.0
 10
160.997230
 20
94.628671
 30
0.0
 10
166.369682
 20
100.001477
 30
0.0
 10
172.997319
 20
100.001477
 30
0.0
  0
SPLINE
  5
317
100
AcDbEntity
  8
frame-thin-parts3
 62
1
100
AcDbSpline
 70
8
 71
3
 72
8
 73
4
 74
0
 40
0
 40
0
 40
0
 40
0
 40
1
 40
1
 40
1
 40
1
 10
172.997319
 20
100.001477
 30
0.0
 10
179.624602
 20
100.001477
 30
0.0
 10
184.997055
 20
94.628671
 30
0.0
 10
184.997055
 20
88.001388
 30
0.0
  0
SPLINE
  5
318
100
AcDbEntity
  8
frame-thin-parts3
 62
1
100
AcDbSpline
 70
8
 71
3
 72
8
 73
4
 74
0
 40
0
 40
0
 40
0
 40
0
 40
1
 40
1
 40
1
 40
1
 10
184.997055
 20
88.001388
 30
0.0
 10
184.997055
 20
81.374104
 30
0.0
 10
179.624602
 20
76.001299
 30
0.0
 10
172.997319
 20
76.001299
 30
0.0
  0
SPLINE
  5
319
100
AcDbEntity
  8
frame-thin-parts3
 62
1
100
AcDbSpline
 70
8
 71
3
 72
8
 73
4
 74
0
 40
0
 40
0
 40
0
 40
0
 40
1
 40
1
 40
1
 40
1
 10
172.997319
 20
76.001299
 30
0.0
 10
166.369682
 20
76.001299
 30
0.0
 10
160.997230
 20
81.374104
 30
0.0
 10
160.997230
 20
88.001388
 30
0.0
  0
LINE
  5
31a
100
AcDbEntity
  8
frame-thin-parts3
 62
1
100
AcDbLine
 10
160.997230
 20
88.001388
 30
0.0
 11
160.997230
 21
88.001388
 31
0.0
  0
SPLINE
  5
31b
100
AcDbEntity
  8
frame-thin-parts3
 62
1
100
AcDbSpline
 70
8
 71
3
 72
8
 73
4
 74
0
 40
0
 40
0
 40
0
 40
0
 40
1
 40
1
 40
1
 40
1
 10
148.397207
 20
81.501387
 30
0.0
 10
148.397207
 20
82.385095
 30
0.0
 10
149.113699
 20
83.101234
 30
0.0
 10
149.997054
 20
83.101234
 30
0.0
  0
SPLINE
  5
31c
100
AcDbEntity
  8
frame-thin-parts3
 62
1
100
AcDbSpline
 70
8
 71
3
 72
8
 73
4
 74
0
 40
0
 40
0
 40
0
 40
0
 40
1
 40
1
 40
1
 40
1
 10
149.997054
 20
83.101234
 30
0.0
 10
150.880763
 20
83.101234
 30
0.0
 10
151.597254
 20
82.385095
 30
0.0
 10
151.597254
 20
81.501387
 30
0.0
  0
SPLINE
  5
31d
100
AcDbEntity
  8
frame-thin-parts3
 62
1
100
AcDbSpline
 70
8
 71
3
 72
8
 73
4
 74
0
 40
0
 40
0
 40
0
 40
0
 40
1
 40
1
 40
1
 40
1
 10
151.597254
 20
81.501387
 30
0.0
 10
151.597254
 20
80.617678
 30
0.0
 10
150.880763
 20
79.901539
 30
0.0
 10
149.997054
 20
79.901539
 30
0.0
  0
SPLINE
  5
31e
100
AcDbEntity
  8
frame-thin-parts3
 62
1
100
AcDbSpline
 70
8
 71
3
 72
8
 73
4
 74
0
 40
0
 40
0
 40
0
 40
0
 40
1
 40
1
 40
1
 40
1
 10
149.997054
 20
79.901539
 30
0.0
 10
149.113699
 20
79.901539
 30
0.0
 10
148.397207
 20
80.617678
 30
0.0
 10
148.397207
 20
81.501387
 30
0.0
  0
LINE
  5
31f
100
AcDbEntity
  8
frame-thin-parts3
 62
1
100
AcDbLine
 10
148.397207
 20
81.501387
 30
0.0
 11
148.397207
 21
81.501387
 31
0.0
  0
SPLINE
  5
320
100
AcDbEntity
  8
frame-thin-parts3
 62
1
100
AcDbSpline
 70
8
 71
3
 72
8
 73
4
 74
0
 40
0
 40
0
 40
0
 40
0
 40
1
 40
1
 40
1
 40
1
 10
194.397207
 20
81.501387
 30
0.0
 10
194.397207
 20
82.385095
 30
0.0
 10
195.113698
 20
83.101234
 30
0.0
 10
195.997054
 20
83.101234
 30
0.0
  0
SPLINE
  5
321
100
AcDbEntity
  8
frame-thin-parts3
 62
1
100
AcDbSpline
 70
8
 71
3
 72
8
 73
4
 74
0
 40
0
 40
0
 40
0
 40
0
 40
1
 40
1
 40
1
 40
1
 10
195.997054
 20
83.101234
 30
0.0
 10
196.880762
 20
83.101234
 30
0.0
 10
197.597254
 20
82.385095
 30
0.0
 10
197.597254
 20
81.501387
 30
0.0
  0
SPLINE
  5
322
100
AcDbEntity
  8
frame-thin-parts3
 62
1
100
AcDbSpline
 70
8
 71
3
 72
8
 73
4
 74
0
 40
0
 40
0
 40
0
 40
0
 40
1
 40
1
 40
1
 40
1
 10
197.597254
 20
81.501387
 30
0.0
 10
197.597254
 20
80.617678
 30
0.0
 10
196.880762
 20
79.901539
 30
0.0
 10
195.997054
 20
79.901539
 30
0.0
  0
SPLINE
  5
323
100
AcDbEntity
  8
frame-thin-parts3
 62
1
100
AcDbSpline
 70
8
 71
3
 72
8
 73
4
 74
0
 40
0
 40
0
 40
0
 40
0
 40
1
 40
1
 40
1
 40
1
 10
195.997054
 20
79.901539
 30
0.0
 10
195.113698
 20
79.901539
 30
0.0
 10
194.397207
 20
80.617678
 30
0.0
 10
194.397207
 20
81.501387
 30
0.0
  0
LINE
  5
324
100
AcDbEntity
  8
frame-thin-parts3
 62
1
100
AcDbLine
 10
194.397207
 20
81.501387
 30
0.0
 11
194.397207
 21
81.501387
 31
0.0
  0
LINE
  5
325
100
AcDbEntity
  8
frame-thin-parts3
 62
1
100
AcDbLine
 10
193.647236
 20
74.101414
 30
0.0
 11
193.647236
 21
63.901550
 31
0.0
  0
LINE
  5
326
100
AcDbEntity
  8
frame-thin-parts3
 62
1
100
AcDbLine
 10
198.347224
 20
74.101414
 30
0.0
 11
193.647166
 21
74.101414
 31
0.0
  0
LINE
  5
327
100
AcDbEntity
  8
frame-thin-parts3
 62
1
100
AcDbLine
 10
198.347224
 20
63.901409
 30
0.0
 11
198.347224
 21
74.101273
 31
0.0
  0
LINE
  5
328
100
AcDbEntity
  8
frame-thin-parts3
 62
1
100
AcDbLine
 10
193.647236
 20
63.901409
 30
0.0
 11
198.347295
 21
63.901409
 31
0.0
  0
LINE
  5
329
100
AcDbEntity
  8
frame-thin-parts3
 62
1
100
AcDbLine
 10
152.347224
 20
63.901409
 30
0.0
 11
152.347224
 21
74.101273
 31
0.0
  0
LINE
  5
32a
100
AcDbEntity
  8
frame-thin-parts3
 62
1
100
AcDbLine
 10
147.647237
 20
63.901409
 30
0.0
 11
152.347295
 21
63.901409
 31
0.0
  0
LINE
  5
32b
100
AcDbEntity
  8
frame-thin-parts3
 62
1
100
AcDbLine
 10
147.647237
 20
74.101414
 30
0.0
 11
147.647237
 21
63.901550
 31
0.0
  0
LINE
  5
32c
100
AcDbEntity
  8
frame-thin-parts3
 62
1
100
AcDbLine
 10
152.347224
 20
74.101414
 30
0.0
 11
147.647166
 21
74.101414
 31
0.0
  0
LINE
  5
32d
100
AcDbEntity
  8
frame-thin-parts3
 62
1
100
AcDbLine
 10
152.347224
 20
88.901394
 30
0.0
 11
152.347224
 21
99.101258
 31
0.0
  0
LINE
  5
32e
100
AcDbEntity
  8
frame-thin-parts3
 62
1
100
AcDbLine
 10
147.647237
 20
88.901394
 30
0.0
 11
152.347295
 21
88.901394
 31
0.0
  0
LINE
  5
32f
100
AcDbEntity
  8
frame-thin-parts3
 62
1
100
AcDbLine
 10
147.647237
 20
99.101399
 30
0.0
 11
147.647237
 21
88.901536
 31
0.0
  0
LINE
  5
330
100
AcDbEntity
  8
frame-thin-parts3
 62
1
100
AcDbLine
 10
152.347224
 20
99.101399
 30
0.0
 11
147.647166
 21
99.101399
 31
0.0
  0
LINE
  5
331
100
AcDbEntity
  8
frame-thin-parts3
 62
1
100
AcDbLine
 10
198.347224
 20
88.901394
 30
0.0
 11
198.347224
 21
99.101258
 31
0.0
  0
LINE
  5
332
100
AcDbEntity
  8
frame-thin-parts3
 62
1
100
AcDbLine
 10
193.647236
 20
88.901394
 30
0.0
 11
198.347295
 21
88.901394
 31
0.0
  0
LINE
  5
333
100
AcDbEntity
  8
frame-thin-parts3
 62
1
100
AcDbLine
 10
193.647236
 20
99.101399
 30
0.0
 11
193.647236
 21
88.901536
 31
0.0
  0
LINE
  5
334
100
AcDbEntity
  8
frame-thin-parts3
 62
1
100
AcDbLine
 10
198.347224
 20
99.101399
 30
0.0
 11
193.647166
 21
99.101399
 31
0.0
  0
LINE
  5
335
100
AcDbEntity
  8
frame-thin-parts3
 62
1
100
AcDbLine
 10
18.299994
 20
71.501407
 30
0.0
 11
18.299994
 21
70.501282
 31
0.0
  0
LINE
  5
336
100
AcDbEntity
  8
frame-thin-parts3
 62
1
100
AcDbLine
 10
14.500013
 20
71.501407
 30
0.0
 11
18.300136
 21
71.501407
 31
0.0
  0
LINE
  5
337
100
AcDbEntity
  8
frame-thin-parts3
 62
1
100
AcDbLine
 10
14.500013
 20
71.501407
 30
0.0
 11
14.500013
 21
65.751482
 31
0.0
  0
LINE
  5
338
100
AcDbEntity
  8
frame-thin-parts3
 62
1
100
AcDbLine
 10
14.500013
 20
65.751411
 30
0.0
 11
9.999980
 21
65.751411
 31
0.0
  0
LINE
  5
339
100
AcDbEntity
  8
frame-thin-parts3
 62
1
100
AcDbLine
 10
10.000015
 20
65.751411
 30
0.0
 11
10.000015
 21
55.751572
 31
0.0
  0
LINE
  5
33a
100
AcDbEntity
  8
frame-thin-parts3
 62
1
100
AcDbLine
 10
10.000015
 20
55.751396
 30
0.0
 11
14.500049
 21
55.751396
 31
0.0
  0
LINE
  5
33b
100
AcDbEntity
  8
frame-thin-parts3
 62
1
100
AcDbLine
 10
14.500013
 20
55.751396
 30
0.0
 11
14.500013
 21
49.751351
 31
0.0
  0
LINE
  5
33c
100
AcDbEntity
  8
frame-thin-parts3
 62
1
100
AcDbLine
 10
14.500013
 20
49.751387
 30
0.0
 11
49.500155
 21
90.751220
 31
0.0
  0
LINE
  5
33d
100
AcDbEntity
  8
frame-thin-parts3
 62
1
100
AcDbLine
 10
49.500014
 20
90.751396
 30
0.0
 11
49.500014
 21
105.751507
 31
0.0
  0
LINE
  5
33e
100
AcDbEntity
  8
frame-thin-parts3
 62
1
100
AcDbLine
 10
49.500014
 20
105.751402
 30
0.0
 11
45.749986
 21
105.751402
 31
0.0
  0
LINE
  5
33f
100
AcDbEntity
  8
frame-thin-parts3
 62
1
100
AcDbLine
 10
45.749986
 20
101.951421
 30
0.0
 11
45.749986
 21
105.751543
 31
0.0
  0
LINE
  5
340
100
AcDbEntity
  8
frame-thin-parts3
 62
1
100
AcDbLine
 10
46.750005
 20
101.951421
 30
0.0
 11
45.749880
 21
101.951421
 31
0.0
  0
SPLINE
  5
341
100
AcDbEntity
  8
frame-thin-parts3
 62
1
100
AcDbSpline
 70
8
 71
3
 72
8
 73
4
 74
0
 40
0
 40
0
 40
0
 40
0
 40
1
 40
1
 40
1
 40
1
 10
46.999984
 20
101.701407
 30
0.0
 10
46.999984
 20
101.839343
 30
0.0
 10
46.888153
 20
101.951526
 30
0.0
 10
46.749864
 20
101.951526
 30
0.0
  0
LINE
  5
342
100
AcDbEntity
  8
frame-thin-parts3
 62
1
100
AcDbLine
 10
46.999984
 20
98.001403
 30
0.0
 11
46.999984
 21
101.701336
 31
0.0
  0
SPLINE
  5
343
100
AcDbEntity
  8
frame-thin-parts3
 62
1
100
AcDbSpline
 70
8
 71
3
 72
8
 73
4
 74
0
 40
0
 40
0
 40
0
 40
0
 40
1
 40
1
 40
1
 40
1
 10
46.750005
 20
97.751389
 30
0.0
 10
46.887941
 20
97.751389
 30
0.0
 10
47.000125
 20
97.863220
 30
0.0
 10
47.000125
 20
98.001509
 30
0.0
  0
LINE
  5
344
100
AcDbEntity
  8
frame-thin-parts3
 62
1
100
AcDbLine
 10
45.749986
 20
97.751389
 30
0.0
 11
46.750111
 21
97.751389
 31
0.0
  0
LINE
  5
345
100
AcDbEntity
  8
frame-thin-parts3
 62
1
100
AcDbLine
 10
45.749986
 20
95.251394
 30
0.0
 11
45.749986
 21
97.751531
 31
0.0
  0
LINE
  5
346
100
AcDbEntity
  8
frame-thin-parts3
 62
1
100
AcDbLine
 10
42.250007
 20
95.251394
 30
0.0
 11
45.749916
 21
95.251394
 31
0.0
  0
LINE
  5
347
100
AcDbEntity
  8
frame-thin-parts3
 62
1
100
AcDbLine
 10
42.250007
 20
97.751389
 30
0.0
 11
42.250007
 21
95.251253
 31
0.0
  0
LINE
  5
348
100
AcDbEntity
  8
frame-thin-parts3
 62
1
100
AcDbLine
 10
41.249988
 20
97.751389
 30
0.0
 11
42.250113
 21
97.751389
 31
0.0
  0
SPLINE
  5
349
100
AcDbEntity
  8
frame-thin-parts3
 62
1
100
AcDbSpline
 70
8
 71
3
 72
8
 73
4
 74
0
 40
0
 40
0
 40
0
 40
0
 40
1
 40
1
 40
1
 40
1
 10
41.000010
 20
98.001403
 30
0.0
 10
41.000010
 20
97.863467
 30
0.0
 10
41.111840
 20
97.751284
 30
0.0
 10
41.250129
 20
97.751284
 30
0.0
  0
LINE
  5
34a
100
AcDbEntity
  8
frame-thin-parts3
 62
1
100
AcDbLine
 10
41.000010
 20
101.701407
 30
0.0
 11
41.000010
 21
98.001474
 31
0.0
  0
SPLINE
  5
34b
100
AcDbEntity
  8
frame-thin-parts3
 62
1
100
AcDbSpline
 70
8
 71
3
 72
8
 73
4
 74
0
 40
0
 40
0
 40
0
 40
0
 40
1
 40
1
 40
1
 40
1
 10
41.249988
 20
101.951421
 30
0.0
 10
41.112052
 20
101.951421
 30
0.0
 10
40.999869
 20
101.839590
 30
0.0
 10
40.999869
 20
101.701301
 30
0.0
  0
LINE
  5
34c
100
AcDbEntity
  8
frame-thin-parts3
 62
1
100
AcDbLine
 10
42.250007
 20
101.951421
 30
0.0
 11
41.249882
 21
101.951421
 31
0.0
  0
LINE
  5
34d
100
AcDbEntity
  8
frame-thin-parts3
 62
1
100
AcDbLine
 10
42.250007
 20
105.751402
 30
0.0
 11
42.250007
 21
101.951279
 31
0.0
  0
LINE
  5
34e
100
AcDbEntity
  8
frame-thin-parts3
 62
1
100
AcDbLine
 10
42.250007
 20
105.751402
 30
0.0
 11
27.000129
 21
105.751402
 31
0.0
  0
LINE
  5
34f
100
AcDbEntity
  8
frame-thin-parts3
 62
1
100
AcDbLine
 10
26.999988
 20
105.751402
 30
0.0
 11
26.999988
 21
110.251435
 31
0.0
  0
LINE
  5
350
100
AcDbEntity
  8
frame-thin-parts3
 62
1
100
AcDbLine
 10
26.999988
 20
110.251400
 30
0.0
 11
17.000149
 21
110.251400
 31
0.0
  0
LINE
  5
351
100
AcDbEntity
  8
frame-thin-parts3
 62
1
100
AcDbLine
 10
17.000008
 20
110.251400
 30
0.0
 11
17.000008
 21
105.751366
 31
0.0
  0
LINE
  5
352
100
AcDbEntity
  8
frame-thin-parts3
 62
1
100
AcDbLine
 10
17.000008
 20
105.751402
 30
0.0
 11
14.499872
 21
105.751402
 31
0.0
  0
LINE
  5
353
100
AcDbEntity
  8
frame-thin-parts3
 62
1
100
AcDbLine
 10
14.500013
 20
105.751402
 30
0.0
 11
14.500013
 21
90.751291
 31
0.0
  0
LINE
  5
354
100
AcDbEntity
  8
frame-thin-parts3
 62
1
100
AcDbLine
 10
14.500013
 20
90.751396
 30
0.0
 11
9.999980
 21
90.751396
 31
0.0
  0
LINE
  5
355
100
AcDbEntity
  8
frame-thin-parts3
 62
1
100
AcDbLine
 10
10.000015
 20
90.751396
 30
0.0
 11
10.000015
 21
80.751557
 31
0.0
  0
LINE
  5
356
100
AcDbEntity
  8
frame-thin-parts3
 62
1
100
AcDbLine
 10
10.000015
 20
80.751416
 30
0.0
 11
14.500049
 21
80.751416
 31
0.0
  0
LINE
  5
357
100
AcDbEntity
  8
frame-thin-parts3
 62
1
100
AcDbLine
 10
14.500013
 20
80.751416
 30
0.0
 11
14.500013
 21
75.001491
 31
0.0
  0
LINE
  5
358
100
AcDbEntity
  8
frame-thin-parts3
 62
1
100
AcDbLine
 10
18.299994
 20
75.001386
 30
0.0
 11
14.499872
 21
75.001386
 31
0.0
  0
LINE
  5
359
100
AcDbEntity
  8
frame-thin-parts3
 62
1
100
AcDbLine
 10
18.299994
 20
76.001405
 30
0.0
 11
18.299994
 21
75.001280
 31
0.0
  0
SPLINE
  5
35a
100
AcDbEntity
  8
frame-thin-parts3
 62
1
100
AcDbSpline
 70
8
 71
3
 72
8
 73
4
 74
0
 40
0
 40
0
 40
0
 40
0
 40
1
 40
1
 40
1
 40
1
 10
18.550008
 20
76.251418
 30
0.0
 10
18.412072
 20
76.251418
 30
0.0
 10
18.299889
 20
76.139588
 30
0.0
 10
18.299889
 20
76.001299
 30
0.0
  0
LINE
  5
35b
100
AcDbEntity
  8
frame-thin-parts3
 62
1
100
AcDbLine
 10
22.250012
 20
76.251418
 30
0.0
 11
18.550079
 21
76.251418
 31
0.0
  0
SPLINE
  5
35c
100
AcDbEntity
  8
frame-thin-parts3
 62
1
100
AcDbSpline
 70
8
 71
3
 72
8
 73
4
 74
0
 40
0
 40
0
 40
0
 40
0
 40
1
 40
1
 40
1
 40
1
 10
22.499990
 20
76.001405
 30
0.0
 10
22.499990
 20
76.139341
 30
0.0
 10
22.388160
 20
76.251524
 30
0.0
 10
22.249871
 20
76.251524
 30
0.0
  0
LINE
  5
35d
100
AcDbEntity
  8
frame-thin-parts3
 62
1
100
AcDbLine
 10
22.499990
 20
75.001386
 30
0.0
 11
22.499990
 21
76.001511
 31
0.0
  0
LINE
  5
35e
100
AcDbEntity
  8
frame-thin-parts3
 62
1
100
AcDbLine
 10
24.999985
 20
75.001386
 30
0.0
 11
22.499849
 21
75.001386
 31
0.0
  0
LINE
  5
35f
100
AcDbEntity
  8
frame-thin-parts3
 62
1
100
AcDbLine
 10
24.999985
 20
71.501407
 30
0.0
 11
24.999985
 21
75.001315
 31
0.0
  0
LINE
  5
360
100
AcDbEntity
  8
frame-thin-parts3
 62
1
100
AcDbLine
 10
22.499990
 20
71.501407
 30
0.0
 11
25.000126
 21
71.501407
 31
0.0
  0
LINE
  5
361
100
AcDbEntity
  8
frame-thin-parts3
 62
1
100
AcDbLine
 10
22.499990
 20
70.501387
 30
0.0
 11
22.499990
 21
71.501512
 31
0.0
  0
SPLINE
  5
362
100
AcDbEntity
  8
frame-thin-parts3
 62
1
100
AcDbSpline
 70
8
 71
3
 72
8
 73
4
 74
0
 40
0
 40
0
 40
0
 40
0
 40
1
 40
1
 40
1
 40
1
 10
22.250012
 20
70.251409
 30
0.0
 10
22.387948
 20
70.251409
 30
0.0
 10
22.500131
 20
70.363240
 30
0.0
 10
22.500131
 20
70.501529
 30
0.0
  0
LINE
  5
363
100
AcDbEntity
  8
frame-thin-parts3
 62
1
100
AcDbLine
 10
18.550008
 20
70.251409
 30
0.0
 11
22.249941
 21
70.251409
 31
0.0
  0
SPLINE
  5
364
100
AcDbEntity
  8
frame-thin-parts3
 62
1
100
AcDbSpline
 70
8
 71
3
 72
8
 73
4
 74
0
 40
0
 40
0
 40
0
 40
0
 40
1
 40
1
 40
1
 40
1
 10
18.299994
 20
70.501387
 30
0.0
 10
18.299994
 20
70.363451
 30
0.0
 10
18.411825
 20
70.251268
 30
0.0
 10
18.550114
 20
70.251268
 30
0.0
  0
LINE
  5
365
100
AcDbEntity
  8
frame-thin-parts3
 62
1
100
AcDbLine
 10
44.144459
 20
52.931961
 30
0.0
 11
44.144459
 21
53.932086
 31
0.0
  0
LINE
  5
366
100
AcDbEntity
  8
frame-thin-parts3
 62
1
100
AcDbLine
 10
47.944440
 20
52.931961
 30
0.0
 11
44.144318
 21
52.931961
 31
0.0
  0
LINE
  5
367
100
AcDbEntity
  8
frame-thin-parts3
 62
1
100
AcDbLine
 10
47.944440
 20
52.931961
 30
0.0
 11
47.944440
 21
58.681886
 31
0.0
  0
LINE
  5
368
100
AcDbEntity
  8
frame-thin-parts3
 62
1
100
AcDbLine
 10
47.944440
 20
58.681956
 30
0.0
 11
52.444474
 21
58.681956
 31
0.0
  0
LINE
  5
369
100
AcDbEntity
  8
frame-thin-parts3
 62
1
100
AcDbLine
 10
52.444438
 20
58.681956
 30
0.0
 11
52.444438
 21
68.681795
 31
0.0
  0
LINE
  5
36a
100
AcDbEntity
  8
frame-thin-parts3
 62
1
100
AcDbLine
 10
52.444438
 20
68.681971
 30
0.0
 11
47.944405
 21
68.681971
 31
0.0
  0
LINE
  5
36b
100
AcDbEntity
  8
frame-thin-parts3
 62
1
100
AcDbLine
 10
47.944440
 20
68.681971
 30
0.0
 11
47.944440
 21
74.682016
 31
0.0
  0
LINE
  5
36c
100
AcDbEntity
  8
frame-thin-parts3
 62
1
100
AcDbLine
 10
47.944440
 20
74.681945
 30
0.0
 11
12.944299
 21
33.682112
 31
0.0
  0
LINE
  5
36d
100
AcDbEntity
  8
frame-thin-parts3
 62
1
100
AcDbLine
 10
12.944440
 20
33.681971
 30
0.0
 11
12.944440
 21
18.681860
 31
0.0
  0
LINE
  5
36e
100
AcDbEntity
  8
frame-thin-parts3
 62
1
100
AcDbLine
 10
12.944440
 20
18.681966
 30
0.0
 11
16.694468
 21
18.681966
 31
0.0
  0
LINE
  5
36f
100
AcDbEntity
  8
frame-thin-parts3
 62
1
100
AcDbLine
 10
16.694432
 20
22.481947
 30
0.0
 11
16.694432
 21
18.681824
 31
0.0
  0
LINE
  5
370
100
AcDbEntity
  8
frame-thin-parts3
 62
1
100
AcDbLine
 10
15.694448
 20
22.481947
 30
0.0
 11
16.694573
 21
22.481947
 31
0.0
  0
SPLINE
  5
371
100
AcDbEntity
  8
frame-thin-parts3
 62
1
100
AcDbSpline
 70
8
 71
3
 72
8
 73
4
 74
0
 40
0
 40
0
 40
0
 40
0
 40
1
 40
1
 40
1
 40
1
 10
15.444435
 20
22.731960
 30
0.0
 10
15.444435
 20
22.594024
 30
0.0
 10
15.556265
 20
22.481841
 30
0.0
 10
15.694554
 20
22.481841
 30
0.0
  0
LINE
  5
372
100
AcDbEntity
  8
frame-thin-parts3
 62
1
100
AcDbLine
 10
15.444435
 20
26.431964
 30
0.0
 11
15.444435
 21
22.732031
 31
0.0
  0
SPLINE
  5
373
100
AcDbEntity
  8
frame-thin-parts3
 62
1
100
AcDbSpline
 70
8
 71
3
 72
8
 73
4
 74
0
 40
0
 40
0
 40
0
 40
0
 40
1
 40
1
 40
1
 40
1
 10
15.694448
 20
26.681978
 30
0.0
 10
15.556512
 20
26.681978
 30
0.0
 10
15.444329
 20
26.570147
 30
0.0
 10
15.444329
 20
26.431858
 30
0.0
  0
LINE
  5
374
100
AcDbEntity
  8
frame-thin-parts3
 62
1
100
AcDbLine
 10
16.694432
 20
26.681978
 30
0.0
 11
15.694307
 21
26.681978
 31
0.0
  0
LINE
  5
375
100
AcDbEntity
  8
frame-thin-parts3
 62
1
100
AcDbLine
 10
16.694432
 20
29.181973
 30
0.0
 11
16.694432
 21
26.681837
 31
0.0
  0
LINE
  5
376
100
AcDbEntity
  8
frame-thin-parts3
 62
1
100
AcDbLine
 10
20.194446
 20
29.181973
 30
0.0
 11
16.694538
 21
29.181973
 31
0.0
  0
LINE
  5
377
100
AcDbEntity
  8
frame-thin-parts3
 62
1
100
AcDbLine
 10
20.194446
 20
26.681978
 30
0.0
 11
20.194446
 21
29.182114
 31
0.0
  0
LINE
  5
378
100
AcDbEntity
  8
frame-thin-parts3
 62
1
100
AcDbLine
 10
21.194430
 20
26.681978
 30
0.0
 11
20.194305
 21
26.681978
 31
0.0
  0
SPLINE
  5
379
100
AcDbEntity
  8
frame-thin-parts3
 62
1
100
AcDbSpline
 70
8
 71
3
 72
8
 73
4
 74
0
 40
0
 40
0
 40
0
 40
0
 40
1
 40
1
 40
1
 40
1
 10
21.444444
 20
26.431964
 30
0.0
 10
21.444444
 20
26.569900
 30
0.0
 10
21.332613
 20
26.682084
 30
0.0
 10
21.194324
 20
26.682084
 30
0.0
  0
LINE
  5
37a
100
AcDbEntity
  8
frame-thin-parts3
 62
1
100
AcDbLine
 10
21.444444
 20
22.731960
 30
0.0
 11
21.444444
 21
26.431894
 31
0.0
  0
SPLINE
  5
37b
100
AcDbEntity
  8
frame-thin-parts3
 62
1
100
AcDbSpline
 70
8
 71
3
 72
8
 73
4
 74
0
 40
0
 40
0
 40
0
 40
0
 40
1
 40
1
 40
1
 40
1
 10
21.194430
 20
22.481947
 30
0.0
 10
21.332366
 20
22.481947
 30
0.0
 10
21.444550
 20
22.593777
 30
0.0
 10
21.444550
 20
22.732066
 30
0.0
  0
LINE
  5
37c
100
AcDbEntity
  8
frame-thin-parts3
 62
1
100
AcDbLine
 10
20.194446
 20
22.481947
 30
0.0
 11
21.194571
 21
22.481947
 31
0.0
  0
LINE
  5
37d
100
AcDbEntity
  8
frame-thin-parts3
 62
1
100
AcDbLine
 10
20.194446
 20
18.681966
 30
0.0
 11
20.194446
 21
22.482088
 31
0.0
  0
LINE
  5
37e
100
AcDbEntity
  8
frame-thin-parts3
 62
1
100
AcDbLine
 10
20.194446
 20
18.681966
 30
0.0
 11
35.444324
 21
18.681966
 31
0.0
  0
LINE
  5
37f
100
AcDbEntity
  8
frame-thin-parts3
 62
1
100
AcDbLine
 10
35.444430
 20
18.681966
 30
0.0
 11
35.444430
 21
14.181932
 31
0.0
  0
LINE
  5
380
100
AcDbEntity
  8
frame-thin-parts3
 62
1
100
AcDbLine
 10
35.444430
 20
14.181967
 30
0.0
 11
45.444269
 21
14.181967
 31
0.0
  0
LINE
  5
381
100
AcDbEntity
  8
frame-thin-parts3
 62
1
100
AcDbLine
 10
45.444445
 20
14.181967
 30
0.0
 11
45.444445
 21
18.682001
 31
0.0
  0
LINE
  5
382
100
AcDbEntity
  8
frame-thin-parts3
 62
1
100
AcDbLine
 10
45.444445
 20
18.681966
 30
0.0
 11
47.944581
 21
18.681966
 31
0.0
  0
LINE
  5
383
100
AcDbEntity
  8
frame-thin-parts3
 62
1
100
AcDbLine
 10
47.944440
 20
18.681966
 30
0.0
 11
47.944440
 21
33.682077
 31
0.0
  0
LINE
  5
384
100
AcDbEntity
  8
frame-thin-parts3
 62
1
100
AcDbLine
 10
47.944440
 20
33.681971
 30
0.0
 11
52.444474
 21
33.681971
 31
0.0
  0
LINE
  5
385
100
AcDbEntity
  8
frame-thin-parts3
 62
1
100
AcDbLine
 10
52.444438
 20
33.681971
 30
0.0
 11
52.444438
 21
43.681810
 31
0.0
  0
LINE
  5
386
100
AcDbEntity
  8
frame-thin-parts3
 62
1
100
AcDbLine
 10
52.444438
 20
43.681951
 30
0.0
 11
47.944405
 21
43.681951
 31
0.0
  0
LINE
  5
387
100
AcDbEntity
  8
frame-thin-parts3
 62
1
100
AcDbLine
 10
47.944440
 20
43.681951
 30
0.0
 11
47.944440
 21
49.431876
 31
0.0
  0
LINE
  5
388
100
AcDbEntity
  8
frame-thin-parts3
 62
1
100
AcDbLine
 10
44.144459
 20
49.431946
 30
0.0
 11
47.944581
 21
49.431946
 31
0.0
  0
LINE
  5
389
100
AcDbEntity
  8
frame-thin-parts3
 62
1
100
AcDbLine
 10
44.144459
 20
48.431962
 30
0.0
 11
44.144459
 21
49.432087
 31
0.0
  0
SPLINE
  5
38a
100
AcDbEntity
  8
frame-thin-parts3
 62
1
100
AcDbSpline
 70
8
 71
3
 72
8
 73
4
 74
0
 40
0
 40
0
 40
0
 40
0
 40
1
 40
1
 40
1
 40
1
 10
43.894446
 20
48.181949
 30
0.0
 10
44.032382
 20
48.181949
 30
0.0
 10
44.144565
 20
48.293779
 30
0.0
 10
44.144565
 20
48.432068
 30
0.0
  0
LINE
  5
38b
100
AcDbEntity
  8
frame-thin-parts3
 62
1
100
AcDbLine
 10
40.194442
 20
48.181949
 30
0.0
 11
43.894375
 21
48.181949
 31
0.0
  0
SPLINE
  5
38c
100
AcDbEntity
  8
frame-thin-parts3
 62
1
100
AcDbSpline
 70
8
 71
3
 72
8
 73
4
 74
0
 40
0
 40
0
 40
0
 40
0
 40
1
 40
1
 40
1
 40
1
 10
39.944428
 20
48.431962
 30
0.0
 10
39.944428
 20
48.294026
 30
0.0
 10
40.056259
 20
48.181843
 30
0.0
 10
40.194547
 20
48.181843
 30
0.0
  0
LINE
  5
38d
100
AcDbEntity
  8
frame-thin-parts3
 62
1
100
AcDbLine
 10
39.944428
 20
49.431946
 30
0.0
 11
39.944428
 21
48.431821
 31
0.0
  0
LINE
  5
38e
100
AcDbEntity
  8
frame-thin-parts3
 62
1
100
AcDbLine
 10
37.444433
 20
49.431946
 30
0.0
 11
39.944569
 21
49.431946
 31
0.0
  0
LINE
  5
38f
100
AcDbEntity
  8
frame-thin-parts3
 62
1
100
AcDbLine
 10
37.444433
 20
52.931961
 30
0.0
 11
37.444433
 21
49.432052
 31
0.0
  0
LINE
  5
390
100
AcDbEntity
  8
frame-thin-parts3
 62
1
100
AcDbLine
 10
39.944428
 20
52.931961
 30
0.0
 11
37.444292
 21
52.931961
 31
0.0
  0
LINE
  5
391
100
AcDbEntity
  8
frame-thin-parts3
 62
1
100
AcDbLine
 10
39.944428
 20
53.931980
 30
0.0
 11
39.944428
 21
52.931855
 31
0.0
  0
SPLINE
  5
392
100
AcDbEntity
  8
frame-thin-parts3
 62
1
100
AcDbSpline
 70
8
 71
3
 72
8
 73
4
 74
0
 40
0
 40
0
 40
0
 40
0
 40
1
 40
1
 40
1
 40
1
 10
40.194442
 20
54.181958
 30
0.0
 10
40.056506
 20
54.181958
 30
0.0
 10
39.944322
 20
54.070127
 30
0.0
 10
39.944322
 20
53.931839
 30
0.0
  0
LINE
  5
393
100
AcDbEntity
  8
frame-thin-parts3
 62
1
100
AcDbLine
 10
43.894446
 20
54.181958
 30
0.0
 11
40.194512
 21
54.181958
 31
0.0
  0
SPLINE
  5
394
100
AcDbEntity
  8
frame-thin-parts3
 62
1
100
AcDbSpline
 70
8
 71
3
 72
8
 73
4
 74
0
 40
0
 40
0
 40
0
 40
0
 40
1
 40
1
 40
1
 40
1
 10
44.144459
 20
53.931980
 30
0.0
 10
44.144459
 20
54.069916
 30
0.0
 10
44.032629
 20
54.182099
 30
0.0
 10
43.894340
 20
54.182099
 30
0.0
  0
SPLINE
  5
395
100
AcDbEntity
  8
frame-thin-parts3
 62
1
100
AcDbSpline
 70
8
 71
3
 72
8
 73
4
 74
0
 40
0
 40
0
 40
0
 40
0
 40
1
 40
1
 40
1
 40
1
 10
224.599994
 20
55.501417
 30
0.0
 10
224.599994
 20
56.385126
 30
0.0
 10
223.883502
 20
57.101265
 30
0.0
 10
223.000147
 20
57.101265
 30
0.0
  0
SPLINE
  5
396
100
AcDbEntity
  8
frame-thin-parts3
 62
1
100
AcDbSpline
 70
8
 71
3
 72
8
 73
4
 74
0
 40
0
 40
0
 40
0
 40
0
 40
1
 40
1
 40
1
 40
1
 10
223.000147
 20
57.101265
 30
0.0
 10
222.116438
 20
57.101265
 30
0.0
 10
221.399947
 20
56.385126
 30
0.0
 10
221.399947
 20
55.501417
 30
0.0
  0
LINE
  5
397
100
AcDbEntity
  8
frame-thin-parts3
 62
1
100
AcDbLine
 10
224.599994
 20
52.501395
 30
0.0
 11
224.599994
 21
55.501417
 31
0.0
  0
SPLINE
  5
398
100
AcDbEntity
  8
frame-thin-parts3
 62
1
100
AcDbSpline
 70
8
 71
3
 72
8
 73
4
 74
0
 40
0
 40
0
 40
0
 40
0
 40
1
 40
1
 40
1
 40
1
 10
221.400017
 20
52.501395
 30
0.0
 10
221.400017
 20
51.617687
 30
0.0
 10
222.116509
 20
50.901548
 30
0.0
 10
222.999864
 20
50.901548
 30
0.0
  0
SPLINE
  5
399
100
AcDbEntity
  8
frame-thin-parts3
 62
1
100
AcDbSpline
 70
8
 71
3
 72
8
 73
4
 74
0
 40
0
 40
0
 40
0
 40
0
 40
1
 40
1
 40
1
 40
1
 10
222.999864
 20
50.901548
 30
0.0
 10
223.883573
 20
50.901548
 30
0.0
 10
224.600064
 20
51.617687
 30
0.0
 10
224.600064
 20
52.501395
 30
0.0
  0
LINE
  5
39a
100
AcDbEntity
  8
frame-thin-parts3
 62
1
100
AcDbLine
 10
221.400017
 20
55.501417
 30
0.0
 11
221.400017
 21
52.501395
 31
0.0
  0
SPLINE
  5
39b
100
AcDbEntity
  8
frame-thin-parts3
 62
1
100
AcDbSpline
 70
8
 71
3
 72
8
 73
4
 74
0
 40
0
 40
0
 40
0
 40
0
 40
1
 40
1
 40
1
 40
1
 10
224.599994
 20
73.501410
 30
0.0
 10
224.599994
 20
74.385118
 30
0.0
 10
223.883502
 20
75.101257
 30
0.0
 10
223.000147
 20
75.101257
 30
0.0
  0
SPLINE
  5
39c
100
AcDbEntity
  8
frame-thin-parts3
 62
1
100
AcDbSpline
 70
8
 71
3
 72
8
 73
4
 74
0
 40
0
 40
0
 40
0
 40
0
 40
1
 40
1
 40
1
 40
1
 10
223.000147
 20
75.101257
 30
0.0
 10
222.116438
 20
75.101257
 30
0.0
 10
221.399947
 20
74.385118
 30
0.0
 10
221.399947
 20
73.501410
 30
0.0
  0
LINE
  5
39d
100
AcDbEntity
  8
frame-thin-parts3
 62
1
100
AcDbLine
 10
224.599994
 20
70.501387
 30
0.0
 11
224.599994
 21
73.501410
 31
0.0
  0
SPLINE
  5
39e
100
AcDbEntity
  8
frame-thin-parts3
 62
1
100
AcDbSpline
 70
8
 71
3
 72
8
 73
4
 74
0
 40
0
 40
0
 40
0
 40
0
 40
1
 40
1
 40
1
 40
1
 10
221.400017
 20
70.501387
 30
0.0
 10
221.400017
 20
69.617679
 30
0.0
 10
222.116509
 20
68.901540
 30
0.0
 10
222.999864
 20
68.901540
 30
0.0
  0
SPLINE
  5
39f
100
AcDbEntity
  8
frame-thin-parts3
 62
1
100
AcDbSpline
 70
8
 71
3
 72
8
 73
4
 74
0
 40
0
 40
0
 40
0
 40
0
 40
1
 40
1
 40
1
 40
1
 10
222.999864
 20
68.901540
 30
0.0
 10
223.883573
 20
68.901540
 30
0.0
 10
224.600064
 20
69.617679
 30
0.0
 10
224.600064
 20
70.501387
 30
0.0
  0
LINE
  5
3a0
100
AcDbEntity
  8
frame-thin-parts3
 62
1
100
AcDbLine
 10
221.400017
 20
73.501410
 30
0.0
 11
221.400017
 21
70.501387
 31
0.0
  0
LINE
  5
3a1
100
AcDbEntity
  8
frame-thin-parts3
 62
1
100
AcDbLine
 10
190.999992
 20
28.251416
 30
0.0
 11
194.800114
 21
28.251416
 31
0.0
  0
LINE
  5
3a2
100
AcDbEntity
  8
frame-thin-parts3
 62
1
100
AcDbLine
 10
190.999992
 20
28.251416
 30
0.0
 11
190.999992
 21
20.001354
 31
0.0
  0
LINE
  5
3a3
100
AcDbEntity
  8
frame-thin-parts3
 62
1
100
AcDbLine
 10
190.999992
 20
20.001390
 30
0.0
 11
181.000153
 21
20.001390
 31
0.0
  0
LINE
  5
3a4
100
AcDbEntity
  8
frame-thin-parts3
 62
1
100
AcDbLine
 10
181.000012
 20
20.001390
 30
0.0
 11
181.000012
 21
10.001551
 31
0.0
  0
LINE
  5
3a5
100
AcDbEntity
  8
frame-thin-parts3
 62
1
100
AcDbLine
 10
181.000012
 20
10.001410
 30
0.0
 11
190.999851
 21
10.001410
 31
0.0
  0
LINE
  5
3a6
100
AcDbEntity
  8
frame-thin-parts3
 62
1
100
AcDbLine
 10
190.999992
 20
10.001410
 30
0.0
 11
229.999928
 21
20.087679
 31
0.0
  0
LINE
  5
3a7
100
AcDbEntity
  8
frame-thin-parts3
 62
1
100
AcDbLine
 10
229.999999
 20
20.087609
 30
0.0
 11
229.999999
 21
77.501486
 31
0.0
  0
LINE
  5
3a8
100
AcDbEntity
  8
frame-thin-parts3
 62
1
100
AcDbLine
 10
229.999999
 20
77.501416
 30
0.0
 11
220.000160
 21
77.501416
 31
0.0
  0
LINE
  5
3a9
100
AcDbEntity
  8
frame-thin-parts3
 62
1
100
AcDbLine
 10
220.000019
 20
77.501416
 30
0.0
 11
220.000019
 21
57.501385
 31
0.0
  0
LINE
  5
3aa
100
AcDbEntity
  8
frame-thin-parts3
 62
1
100
AcDbLine
 10
220.000019
 20
57.501385
 30
0.0
 11
190.999921
 21
50.001330
 31
0.0
  0
LINE
  5
3ab
100
AcDbEntity
  8
frame-thin-parts3
 62
1
100
AcDbLine
 10
190.999992
 20
50.001400
 30
0.0
 11
181.000153
 21
50.001400
 31
0.0
  0
LINE
  5
3ac
100
AcDbEntity
  8
frame-thin-parts3
 62
1
100
AcDbLine
 10
181.000012
 20
50.001400
 30
0.0
 11
181.000012
 21
40.001561
 31
0.0
  0
LINE
  5
3ad
100
AcDbEntity
  8
frame-thin-parts3
 62
1
100
AcDbLine
 10
181.000012
 20
40.001385
 30
0.0
 11
190.999851
 21
40.001385
 31
0.0
  0
LINE
  5
3ae
100
AcDbEntity
  8
frame-thin-parts3
 62
1
100
AcDbLine
 10
190.999992
 20
40.001385
 30
0.0
 11
190.999992
 21
31.751324
 31
0.0
  0
LINE
  5
3af
100
AcDbEntity
  8
frame-thin-parts3
 62
1
100
AcDbLine
 10
194.800008
 20
31.751394
 30
0.0
 11
190.999886
 21
31.751394
 31
0.0
  0
LINE
  5
3b0
100
AcDbEntity
  8
frame-thin-parts3
 62
1
100
AcDbLine
 10
194.800008
 20
32.751414
 30
0.0
 11
194.800008
 21
31.751289
 31
0.0
  0
SPLINE
  5
3b1
100
AcDbEntity
  8
frame-thin-parts3
 62
1
100
AcDbSpline
 70
8
 71
3
 72
8
 73
4
 74
0
 40
0
 40
0
 40
0
 40
0
 40
1
 40
1
 40
1
 40
1
 10
195.049987
 20
33.001392
 30
0.0
 10
194.912051
 20
33.001392
 30
0.0
 10
194.799867
 20
32.889561
 30
0.0
 10
194.799867
 20
32.751272
 30
0.0
  0
LINE
  5
3b2
100
AcDbEntity
  8
frame-thin-parts3
 62
1
100
AcDbLine
 10
198.749991
 20
33.001392
 30
0.0
 11
195.050057
 21
33.001392
 31
0.0
  0
SPLINE
  5
3b3
100
AcDbEntity
  8
frame-thin-parts3
 62
1
100
AcDbSpline
 70
8
 71
3
 72
8
 73
4
 74
0
 40
0
 40
0
 40
0
 40
0
 40
1
 40
1
 40
1
 40
1
 10
199.000004
 20
32.751414
 30
0.0
 10
199.000004
 20
32.889350
 30
0.0
 10
198.888174
 20
33.001533
 30
0.0
 10
198.749885
 20
33.001533
 30
0.0
  0
LINE
  5
3b4
100
AcDbEntity
  8
frame-thin-parts3
 62
1
100
AcDbLine
 10
199.000004
 20
31.751394
 30
0.0
 11
199.000004
 21
32.751519
 31
0.0
  0
LINE
  5
3b5
100
AcDbEntity
  8
frame-thin-parts3
 62
1
100
AcDbLine
 10
201.499999
 20
31.751394
 30
0.0
 11
198.999863
 21
31.751394
 31
0.0
  0
LINE
  5
3b6
100
AcDbEntity
  8
frame-thin-parts3
 62
1
100
AcDbLine
 10
201.499999
 20
28.251416
 30
0.0
 11
201.499999
 21
31.751324
 31
0.0
  0
LINE
  5
3b7
100
AcDbEntity
  8
frame-thin-parts3
 62
1
100
AcDbLine
 10
199.000004
 20
28.251416
 30
0.0
 11
201.500140
 21
28.251416
 31
0.0
  0
LINE
  5
3b8
100
AcDbEntity
  8
frame-thin-parts3
 62
1
100
AcDbLine
 10
199.000004
 20
27.251396
 30
0.0
 11
199.000004
 21
28.251521
 31
0.0
  0
SPLINE
  5
3b9
100
AcDbEntity
  8
frame-thin-parts3
 62
1
100
AcDbSpline
 70
8
 71
3
 72
8
 73
4
 74
0
 40
0
 40
0
 40
0
 40
0
 40
1
 40
1
 40
1
 40
1
 10
198.749991
 20
27.001418
 30
0.0
 10
198.887927
 20
27.001418
 30
0.0
 10
199.000110
 20
27.113249
 30
0.0
 10
199.000110
 20
27.251537
 30
0.0
  0
LINE
  5
3ba
100
AcDbEntity
  8
frame-thin-parts3
 62
1
100
AcDbLine
 10
195.049987
 20
27.001418
 30
0.0
 11
198.749920
 21
27.001418
 31
0.0
  0
SPLINE
  5
3bb
100
AcDbEntity
  8
frame-thin-parts3
 62
1
100
AcDbSpline
 70
8
 71
3
 72
8
 73
4
 74
0
 40
0
 40
0
 40
0
 40
0
 40
1
 40
1
 40
1
 40
1
 10
194.800008
 20
27.251396
 30
0.0
 10
194.800008
 20
27.113460
 30
0.0
 10
194.911839
 20
27.001277
 30
0.0
 10
195.050128
 20
27.001277
 30
0.0
  0
LINE
  5
3bc
100
AcDbEntity
  8
frame-thin-parts3
 62
1
100
AcDbLine
 10
194.800008
 20
28.251416
 30
0.0
 11
194.800008
 21
27.251291
 31
0.0
  0
ENDSEC
  0
SECTION
  2
OBJECTS
  0
DICTIONARY
  5
C
330
0
100
AcDbDictionary
  3
ACAD_GROUP
350
D
  3
ACAD_MLINESTYLE
350
17
  0
DICTIONARY
  5
D
330
C
100
AcDbDictionary
  0
DICTIONARY
  5
1A
330
C
100
AcDbDictionary
  0
DICTIONARY
  5
17
330
C
100
AcDbDictionary
  3
STANDARD
350
18
  0
DICTIONARY
  5
19
330
C
100
AcDbDictionary
  0
ENDSEC
  0
EOF
