G04 Layer_Color=16711935*
%FSLAX24Y24*%
%MOIN*%
G70*
G01*
G75*
%ADD41C,0.0039*%
%ADD42C,0.0020*%
D41*
X4656Y5423D02*
G03*
X4656Y5423I-197J0D01*
G01*
X994Y4872D02*
Y5561D01*
X1368Y4872D02*
Y5561D01*
X994Y4872D02*
X1368D01*
X994Y5561D02*
X1368D01*
X4104Y3671D02*
X6230D01*
X4104Y5778D02*
X6230D01*
Y3671D02*
Y5778D01*
X4104Y3671D02*
Y5778D01*
D42*
X6978Y6348D02*
Y6506D01*
X6604Y6348D02*
X6978D01*
X6604Y6506D02*
X6978D01*
X6604Y6348D02*
Y6506D01*
X6978Y6880D02*
Y7037D01*
X6604Y6880D02*
X6978D01*
X6604D02*
Y7037D01*
X6978D01*
X6605Y6506D02*
Y6880D01*
X6605Y6506D01*
X6978Y6880D02*
X6978Y6506D01*
X6978Y6880D02*
X6978Y6506D01*
X7667Y6348D02*
Y6506D01*
X7293Y6348D02*
X7667D01*
X7293Y6506D02*
X7667D01*
X7293Y6348D02*
Y6506D01*
X7667Y6880D02*
Y7037D01*
X7293Y6880D02*
X7667D01*
X7293D02*
Y7037D01*
X7667D01*
X7294Y6506D02*
Y6880D01*
X7294Y6506D01*
X7667Y6880D02*
X7667Y6506D01*
X7667Y6880D02*
X7667Y6506D01*
X6467Y3348D02*
X6722D01*
X6467Y3148D02*
X6722D01*
X6467Y3140D02*
Y3356D01*
X6388Y3140D02*
Y3356D01*
X6467D01*
X6388Y3140D02*
X6467D01*
X6722Y3356D02*
X6801D01*
X6722Y3140D02*
X6801D01*
X6722D02*
Y3356D01*
X6801Y3140D02*
Y3356D01*
X1693Y3053D02*
X1949D01*
X1693Y2852D02*
X1949D01*
X1693Y2844D02*
Y3061D01*
X1614Y2844D02*
Y3061D01*
X1693D01*
X1614Y2844D02*
X1693D01*
X1949Y3061D02*
X2028D01*
X1949Y2844D02*
X2028D01*
X1949D02*
Y3061D01*
X2028Y2844D02*
Y3061D01*
X2224Y5177D02*
X2224Y5650D01*
X1909D02*
X1910Y5177D01*
X2224Y5098D02*
Y5217D01*
X1909Y5098D02*
X2224D01*
X1910Y5177D02*
X2224D01*
X1909Y5098D02*
Y5217D01*
Y5610D02*
Y5728D01*
X2224D01*
Y5610D02*
Y5728D01*
X1909Y5650D02*
X2224D01*
X1910Y5178D02*
X2224D01*
X1910Y5649D02*
X2224D01*
X1910Y5612D02*
X2224D01*
X1910Y5178D02*
Y5649D01*
X2224Y5178D02*
Y5649D01*
X1910Y5215D02*
X2224D01*
X2619Y5600D02*
X2619Y5226D01*
X2619Y5600D02*
X2619Y5226D01*
X2992Y5600D02*
X2992Y5226D01*
Y5600D01*
X2618Y5069D02*
X2992D01*
Y5226D01*
X2618D02*
X2992D01*
X2618Y5069D02*
Y5226D01*
X2992Y5600D02*
Y5758D01*
X2618Y5600D02*
X2992D01*
X2618Y5758D02*
X2992D01*
X2618Y5600D02*
Y5758D01*
X10640Y3435D02*
X10640Y3061D01*
X10640Y3435D02*
X10640Y3061D01*
X11013Y3435D02*
X11013Y3061D01*
Y3435D01*
X10640Y2904D02*
X11014D01*
Y3061D01*
X10640D02*
X11014D01*
X10640Y2904D02*
Y3061D01*
X11014Y3435D02*
Y3593D01*
X10640Y3435D02*
X11014D01*
X10640Y3593D02*
X11014D01*
X10640Y3435D02*
Y3593D01*
X7244Y4161D02*
X7245Y3787D01*
X7244Y4161D02*
X7245Y3787D01*
X7618Y4161D02*
X7618Y3787D01*
Y4161D01*
X7244Y3630D02*
X7618D01*
Y3787D01*
X7244D02*
X7618D01*
X7244Y3630D02*
Y3787D01*
X7618Y4161D02*
Y4319D01*
X7244Y4161D02*
X7618D01*
X7244Y4319D02*
X7618D01*
X7244Y4161D02*
Y4319D01*
X1486Y3406D02*
X1860Y3406D01*
X1486Y3406D02*
X1860Y3406D01*
X1486Y3779D02*
X1860Y3779D01*
X1486D02*
X1860D01*
X2018Y3406D02*
Y3780D01*
X1860D02*
X2018D01*
X1860Y3406D02*
Y3780D01*
Y3406D02*
X2018D01*
X1329Y3780D02*
X1486D01*
Y3406D02*
Y3780D01*
X1329Y3406D02*
Y3780D01*
Y3406D02*
X1486D01*
M02*
