  0
SECTION
  2
HEADER
  9
$ACADVER
  1
AC1014
  9
$HANDSEED
  5
FFFF
  9
$MEASUREMENT
 70
     1
  0
ENDSEC
  0
SECTION
  2
TABLES
  0
TABLE
  2
VPORT
  5
8
330
0
100
AcDbSymbolTable
 70
     4
  0
VPORT
  5
2E
330
8
100
AcDbSymbolTableRecord
100
AcDbViewportTableRecord
  2
*ACTIVE
 70
     0
 10
0.0
 20
0.0
 11
1.0
 21
1.0
 12
210.0
 22
148.5
 13
0.0
 23
0.0
 14
10.0
 24
10.0
 15
10.0
 25
10.0
 16
0.0
 26
0.0
 36
1.0
 17
0.0
 27
0.0
 37
0.0
 40
341.0
 41
1.24
 42
50.0
 43
0.0
 44
0.0
 50
0.0
 51
0.0
 71
     0
 72
   100
 73
     1
 74
     3
 75
     0
 76
     0
 77
     0
 78
     0
  0
ENDTAB
  0
TABLE
  2
LTYPE
  5
5
330
0
100
AcDbSymbolTable
 70
     1
  0
LTYPE
  5
14
330
5
100
AcDbSymbolTableRecord
100
AcDbLinetypeTableRecord
  2
BYBLOCK
 70
     0
  3

 72
    65
 73
     0
 40
0.0
  0
LTYPE
  5
15
330
5
100
AcDbSymbolTableRecord
100
AcDbLinetypeTableRecord
  2
BYLAYER
 70
     0
  3

 72
    65
 73
     0
 40
0.0
  0
LTYPE
  5
16
330
5
100
AcDbSymbolTableRecord
100
AcDbLinetypeTableRecord
  2
CONTINUOUS
 70
     0
  3
Solid line
 72
    65
 73
     0
 40
0.0
  0
ENDTAB
  0
TABLE
  2
LAYER
  5
2
100
AcDbSymbolTable
 70
2
  0
LAYER
  5
50
100
AcDbSymbolTableRecord
100
AcDbLayerTableRecord
  2
0
 70
0
  6
CONTINUOUS
  0
LAYER
  5
51
100
AcDbSymbolTableRecord
100
AcDbLayerTableRecord
  2
Layer_1
 70
0
  6
CONTINUOUS
  0
ENDTAB
  0
TABLE
  2
STYLE
  5
3
330
0
100
AcDbSymbolTable
 70
     1
  0
STYLE
  5
11
330
3
100
AcDbSymbolTableRecord
100
AcDbTextStyleTableRecord
  2
STANDARD
 70
     0
 40
0.0
 41
1.0
 50
0.0
 71
     0
 42
2.5
  3
txt
  4

  0
ENDTAB
  0
TABLE
  2
VIEW
  5
6
330
0
100
AcDbSymbolTable
 70
     0
  0
ENDTAB
  0
TABLE
  2
UCS
  5
7
330
0
100
AcDbSymbolTable
 70
     0
  0
ENDTAB
  0
TABLE
  2
APPID
  5
9
330
0
100
AcDbSymbolTable
 70
     2
  0
APPID
  5
12
330
9
100
AcDbSymbolTableRecord
100
AcDbRegAppTableRecord
  2
ACAD
 70
     0
  0
ENDTAB
  0
TABLE
  2
DIMSTYLE
  5
A
330
0
100
AcDbSymbolTable
 70
     1
  0
DIMSTYLE
105
27
330
A
100
AcDbSymbolTableRecord
100
AcDbDimStyleTableRecord
  2
ISO-25
 70
     0
  3

  4

  5

  6

  7

 40
1.0
 41
2.5
 42
0.625
 43
3.75
 44
1.25
 45
0.0
 46
0.0
 47
0.0
 48
0.0
140
2.5
141
2.5
142
0.0
143
0.03937007874016
144
1.0
145
0.0
146
1.0
147
0.625
 71
     0
 72
     0
 73
     0
 74
     0
 75
     0
 76
     0
 77
     1
 78
     8
170
     0
171
     3
172
     1
173
     0
174
     0
175
     0
176
     0
177
     0
178
     0
270
     2
271
     2
272
     2
273
     2
274
     3
340
11
275
     0
280
     0
281
     0
282
     0
283
     0
284
     8
285
     0
286
     0
287
     3
288
     0
  0
ENDTAB
  0
TABLE
  2
BLOCK_RECORD
  5
1
330
0
100
AcDbSymbolTable
 70
     1
  0
BLOCK_RECORD
  5
1F
330
1
100
AcDbSymbolTableRecord
100
AcDbBlockTableRecord
  2
*MODEL_SPACE
  0
BLOCK_RECORD
  5
1B
330
1
100
AcDbSymbolTableRecord
100
AcDbBlockTableRecord
  2
*PAPER_SPACE
  0
ENDTAB
  0
ENDSEC
  0
SECTION
  2
BLOCKS
  0
BLOCK
  5
20
330
1F
100
AcDbEntity
  8
0
100
AcDbBlockBegin
  2
*MODEL_SPACE
 70
     0
 10
0.0
 20
0.0
 30
0.0
  3
*MODEL_SPACE
  1

  0
ENDBLK
  5
21
330
1F
100
AcDbEntity
  8
0
100
AcDbBlockEnd
  0
BLOCK
  5
1C
330
1B
100
AcDbEntity
 67
     1
  8
0
100
AcDbBlockBegin
  2
*PAPER_SPACE
  1

  0
ENDBLK
  5
1D
330
1B
100
AcDbEntity
 67
     1
  8
0
100
AcDbBlockEnd
  0
ENDSEC
  0
SECTION
  2
ENTITIES
  0
SPLINE
  5
100
100
AcDbEntity
  8
Layer_1
 62
7
100
AcDbSpline
 70
8
 71
3
 72
8
 73
4
 74
0
 40
0
 40
0
 40
0
 40
0
 40
1
 40
1
 40
1
 40
1
 10
81.207607
 20
116.125108
 30
0.0
 10
81.207607
 20
121.126826
 30
0.0
 10
78.539222
 20
125.748604
 30
0.0
 10
74.207607
 20
128.249464
 30
0.0
  0
SPLINE
  5
101
100
AcDbEntity
  8
Layer_1
 62
7
100
AcDbSpline
 70
8
 71
3
 72
8
 73
4
 74
0
 40
0
 40
0
 40
0
 40
0
 40
1
 40
1
 40
1
 40
1
 10
74.207607
 20
128.249464
 30
0.0
 10
69.875992
 20
130.750323
 30
0.0
 10
64.539222
 20
130.750323
 30
0.0
 10
60.207607
 20
128.249464
 30
0.0
  0
SPLINE
  5
102
100
AcDbEntity
  8
Layer_1
 62
7
100
AcDbSpline
 70
8
 71
3
 72
8
 73
4
 74
0
 40
0
 40
0
 40
0
 40
0
 40
1
 40
1
 40
1
 40
1
 10
60.207607
 20
128.249464
 30
0.0
 10
55.875992
 20
125.748604
 30
0.0
 10
53.207607
 20
121.126826
 30
0.0
 10
53.207607
 20
116.125108
 30
0.0
  0
SPLINE
  5
103
100
AcDbEntity
  8
Layer_1
 62
7
100
AcDbSpline
 70
8
 71
3
 72
8
 73
4
 74
0
 40
0
 40
0
 40
0
 40
0
 40
1
 40
1
 40
1
 40
1
 10
53.207607
 20
116.125108
 30
0.0
 10
53.207607
 20
111.123389
 30
0.0
 10
55.875992
 20
106.501611
 30
0.0
 10
60.207607
 20
104.000752
 30
0.0
  0
SPLINE
  5
104
100
AcDbEntity
  8
Layer_1
 62
7
100
AcDbSpline
 70
8
 71
3
 72
8
 73
4
 74
0
 40
0
 40
0
 40
0
 40
0
 40
1
 40
1
 40
1
 40
1
 10
60.207607
 20
104.000752
 30
0.0
 10
64.539222
 20
101.499893
 30
0.0
 10
69.875992
 20
101.499893
 30
0.0
 10
74.207607
 20
104.000752
 30
0.0
  0
SPLINE
  5
105
100
AcDbEntity
  8
Layer_1
 62
7
100
AcDbSpline
 70
8
 71
3
 72
8
 73
4
 74
0
 40
0
 40
0
 40
0
 40
0
 40
1
 40
1
 40
1
 40
1
 10
74.207607
 20
104.000752
 30
0.0
 10
78.539222
 20
106.501611
 30
0.0
 10
81.207607
 20
111.123389
 30
0.0
 10
81.207607
 20
116.125108
 30
0.0
  0
LINE
  5
106
100
AcDbEntity
  8
Layer_1
 62
7
100
AcDbLine
 10
81.207607
 20
116.125108
 30
0.0
 11
81.207607
 21
116.125108
 31
0.0
  0
SPLINE
  5
107
100
AcDbEntity
  8
Layer_1
 62
7
100
AcDbSpline
 70
8
 71
3
 72
8
 73
4
 74
0
 40
0
 40
0
 40
0
 40
0
 40
1
 40
1
 40
1
 40
1
 10
56.757607
 20
128.125084
 30
0.0
 10
56.757941
 20
128.679068
 30
0.0
 10
56.462586
 20
129.191114
 30
0.0
 10
55.982877
 20
129.468203
 30
0.0
  0
SPLINE
  5
108
100
AcDbEntity
  8
Layer_1
 62
7
100
AcDbSpline
 70
8
 71
3
 72
8
 73
4
 74
0
 40
0
 40
0
 40
0
 40
0
 40
1
 40
1
 40
1
 40
1
 10
55.982877
 20
129.468203
 30
0.0
 10
55.503168
 20
129.745291
 30
0.0
 10
54.912046
 20
129.745291
 30
0.0
 10
54.432337
 20
129.468203
 30
0.0
  0
SPLINE
  5
109
100
AcDbEntity
  8
Layer_1
 62
7
100
AcDbSpline
 70
8
 71
3
 72
8
 73
4
 74
0
 40
0
 40
0
 40
0
 40
0
 40
1
 40
1
 40
1
 40
1
 10
54.432337
 20
129.468203
 30
0.0
 10
53.952628
 20
129.191114
 30
0.0
 10
53.657273
 20
128.679068
 30
0.0
 10
53.657607
 20
128.125084
 30
0.0
  0
SPLINE
  5
10a
100
AcDbEntity
  8
Layer_1
 62
7
100
AcDbSpline
 70
8
 71
3
 72
8
 73
4
 74
0
 40
0
 40
0
 40
0
 40
0
 40
1
 40
1
 40
1
 40
1
 10
53.657607
 20
128.125084
 30
0.0
 10
53.657273
 20
127.571099
 30
0.0
 10
53.952628
 20
127.059054
 30
0.0
 10
54.432337
 20
126.781965
 30
0.0
  0
SPLINE
  5
10b
100
AcDbEntity
  8
Layer_1
 62
7
100
AcDbSpline
 70
8
 71
3
 72
8
 73
4
 74
0
 40
0
 40
0
 40
0
 40
0
 40
1
 40
1
 40
1
 40
1
 10
54.432337
 20
126.781965
 30
0.0
 10
54.912046
 20
126.504876
 30
0.0
 10
55.503168
 20
126.504876
 30
0.0
 10
55.982877
 20
126.781965
 30
0.0
  0
SPLINE
  5
10c
100
AcDbEntity
  8
Layer_1
 62
7
100
AcDbSpline
 70
8
 71
3
 72
8
 73
4
 74
0
 40
0
 40
0
 40
0
 40
0
 40
1
 40
1
 40
1
 40
1
 10
55.982877
 20
126.781965
 30
0.0
 10
56.462586
 20
127.059054
 30
0.0
 10
56.757941
 20
127.571099
 30
0.0
 10
56.757607
 20
128.125084
 30
0.0
  0
LINE
  5
10d
100
AcDbEntity
  8
Layer_1
 62
7
100
AcDbLine
 10
56.757607
 20
128.125084
 30
0.0
 11
56.757607
 21
128.125084
 31
0.0
  0
SPLINE
  5
10e
100
AcDbEntity
  8
Layer_1
 62
7
100
AcDbSpline
 70
8
 71
3
 72
8
 73
4
 74
0
 40
0
 40
0
 40
0
 40
0
 40
1
 40
1
 40
1
 40
1
 10
80.757607
 20
104.125104
 30
0.0
 10
80.757941
 20
104.679088
 30
0.0
 10
80.462586
 20
105.191134
 30
0.0
 10
79.982877
 20
105.468222
 30
0.0
  0
SPLINE
  5
10f
100
AcDbEntity
  8
Layer_1
 62
7
100
AcDbSpline
 70
8
 71
3
 72
8
 73
4
 74
0
 40
0
 40
0
 40
0
 40
0
 40
1
 40
1
 40
1
 40
1
 10
79.982877
 20
105.468222
 30
0.0
 10
79.503168
 20
105.745311
 30
0.0
 10
78.912046
 20
105.745311
 30
0.0
 10
78.432337
 20
105.468222
 30
0.0
  0
SPLINE
  5
110
100
AcDbEntity
  8
Layer_1
 62
7
100
AcDbSpline
 70
8
 71
3
 72
8
 73
4
 74
0
 40
0
 40
0
 40
0
 40
0
 40
1
 40
1
 40
1
 40
1
 10
78.432337
 20
105.468222
 30
0.0
 10
77.952628
 20
105.191134
 30
0.0
 10
77.657273
 20
104.679088
 30
0.0
 10
77.657607
 20
104.125104
 30
0.0
  0
SPLINE
  5
111
100
AcDbEntity
  8
Layer_1
 62
7
100
AcDbSpline
 70
8
 71
3
 72
8
 73
4
 74
0
 40
0
 40
0
 40
0
 40
0
 40
1
 40
1
 40
1
 40
1
 10
77.657607
 20
104.125104
 30
0.0
 10
77.657273
 20
103.571119
 30
0.0
 10
77.952628
 20
103.059073
 30
0.0
 10
78.432337
 20
102.781985
 30
0.0
  0
SPLINE
  5
112
100
AcDbEntity
  8
Layer_1
 62
7
100
AcDbSpline
 70
8
 71
3
 72
8
 73
4
 74
0
 40
0
 40
0
 40
0
 40
0
 40
1
 40
1
 40
1
 40
1
 10
78.432337
 20
102.781985
 30
0.0
 10
78.912046
 20
102.504896
 30
0.0
 10
79.503168
 20
102.504896
 30
0.0
 10
79.982877
 20
102.781985
 30
0.0
  0
SPLINE
  5
113
100
AcDbEntity
  8
Layer_1
 62
7
100
AcDbSpline
 70
8
 71
3
 72
8
 73
4
 74
0
 40
0
 40
0
 40
0
 40
0
 40
1
 40
1
 40
1
 40
1
 10
79.982877
 20
102.781985
 30
0.0
 10
80.462586
 20
103.059073
 30
0.0
 10
80.757941
 20
103.571119
 30
0.0
 10
80.757607
 20
104.125104
 30
0.0
  0
LINE
  5
114
100
AcDbEntity
  8
Layer_1
 62
7
100
AcDbLine
 10
80.757607
 20
104.125104
 30
0.0
 11
80.757607
 21
104.125104
 31
0.0
  0
SPLINE
  5
115
100
AcDbEntity
  8
Layer_1
 62
7
100
AcDbSpline
 70
8
 71
3
 72
8
 73
4
 74
0
 40
0
 40
0
 40
0
 40
0
 40
1
 40
1
 40
1
 40
1
 10
56.757607
 20
104.125104
 30
0.0
 10
56.757941
 20
104.679088
 30
0.0
 10
56.462586
 20
105.191134
 30
0.0
 10
55.982877
 20
105.468222
 30
0.0
  0
SPLINE
  5
116
100
AcDbEntity
  8
Layer_1
 62
7
100
AcDbSpline
 70
8
 71
3
 72
8
 73
4
 74
0
 40
0
 40
0
 40
0
 40
0
 40
1
 40
1
 40
1
 40
1
 10
55.982877
 20
105.468222
 30
0.0
 10
55.503168
 20
105.745311
 30
0.0
 10
54.912046
 20
105.745311
 30
0.0
 10
54.432337
 20
105.468222
 30
0.0
  0
SPLINE
  5
117
100
AcDbEntity
  8
Layer_1
 62
7
100
AcDbSpline
 70
8
 71
3
 72
8
 73
4
 74
0
 40
0
 40
0
 40
0
 40
0
 40
1
 40
1
 40
1
 40
1
 10
54.432337
 20
105.468222
 30
0.0
 10
53.952628
 20
105.191134
 30
0.0
 10
53.657273
 20
104.679088
 30
0.0
 10
53.657607
 20
104.125104
 30
0.0
  0
SPLINE
  5
118
100
AcDbEntity
  8
Layer_1
 62
7
100
AcDbSpline
 70
8
 71
3
 72
8
 73
4
 74
0
 40
0
 40
0
 40
0
 40
0
 40
1
 40
1
 40
1
 40
1
 10
53.657607
 20
104.125104
 30
0.0
 10
53.657273
 20
103.571119
 30
0.0
 10
53.952628
 20
103.059073
 30
0.0
 10
54.432337
 20
102.781985
 30
0.0
  0
SPLINE
  5
119
100
AcDbEntity
  8
Layer_1
 62
7
100
AcDbSpline
 70
8
 71
3
 72
8
 73
4
 74
0
 40
0
 40
0
 40
0
 40
0
 40
1
 40
1
 40
1
 40
1
 10
54.432337
 20
102.781985
 30
0.0
 10
54.912046
 20
102.504896
 30
0.0
 10
55.503168
 20
102.504896
 30
0.0
 10
55.982877
 20
102.781985
 30
0.0
  0
SPLINE
  5
11a
100
AcDbEntity
  8
Layer_1
 62
7
100
AcDbSpline
 70
8
 71
3
 72
8
 73
4
 74
0
 40
0
 40
0
 40
0
 40
0
 40
1
 40
1
 40
1
 40
1
 10
55.982877
 20
102.781985
 30
0.0
 10
56.462586
 20
103.059073
 30
0.0
 10
56.757941
 20
103.571119
 30
0.0
 10
56.757607
 20
104.125104
 30
0.0
  0
LINE
  5
11b
100
AcDbEntity
  8
Layer_1
 62
7
100
AcDbLine
 10
56.757607
 20
104.125104
 30
0.0
 11
56.757607
 21
104.125104
 31
0.0
  0
SPLINE
  5
11c
100
AcDbEntity
  8
Layer_1
 62
7
100
AcDbSpline
 70
8
 71
3
 72
8
 73
4
 74
0
 40
0
 40
0
 40
0
 40
0
 40
1
 40
1
 40
1
 40
1
 10
84.643203
 20
101.125081
 30
0.0
 10
88.233282
 20
105.298093
 30
0.0
 10
90.207613
 20
110.620319
 30
0.0
 10
90.207606
 20
116.125108
 30
0.0
  0
LINE
  5
11d
100
AcDbEntity
  8
Layer_1
 62
7
100
AcDbLine
 10
90.207606
 20
116.125108
 30
0.0
 11
90.207606
 21
136.125096
 31
0.0
  0
LINE
  5
11e
100
AcDbEntity
  8
Layer_1
 62
7
100
AcDbLine
 10
90.207606
 20
136.125096
 30
0.0
 11
85.957608
 21
136.125096
 31
0.0
  0
LINE
  5
11f
100
AcDbEntity
  8
Layer_1
 62
7
100
AcDbLine
 10
85.957608
 20
132.325087
 30
0.0
 11
85.957608
 21
136.125096
 31
0.0
  0
LINE
  5
120
100
AcDbEntity
  8
Layer_1
 62
7
100
AcDbLine
 10
86.957606
 20
132.325087
 30
0.0
 11
85.957608
 21
132.325087
 31
0.0
  0
SPLINE
  5
121
100
AcDbEntity
  8
Layer_1
 62
7
100
AcDbSpline
 70
8
 71
3
 72
8
 73
4
 74
0
 40
0
 40
0
 40
0
 40
0
 40
1
 40
1
 40
1
 40
1
 10
87.207606
 20
132.075094
 30
0.0
 10
87.207602
 20
132.213163
 30
0.0
 10
87.095674
 20
132.325087
 30
0.0
 10
86.957606
 20
132.325087
 30
0.0
  0
LINE
  5
122
100
AcDbEntity
  8
Layer_1
 62
7
100
AcDbLine
 10
87.207606
 20
128.375104
 30
0.0
 11
87.207606
 21
132.075094
 31
0.0
  0
SPLINE
  5
123
100
AcDbEntity
  8
Layer_1
 62
7
100
AcDbSpline
 70
8
 71
3
 72
8
 73
4
 74
0
 40
0
 40
0
 40
0
 40
0
 40
1
 40
1
 40
1
 40
1
 10
86.957606
 20
128.125084
 30
0.0
 10
87.023913
 20
128.125084
 30
0.0
 10
87.087505
 20
128.151425
 30
0.0
 10
87.134390
 20
128.198314
 30
0.0
  0
SPLINE
  5
124
100
AcDbEntity
  8
Layer_1
 62
7
100
AcDbSpline
 70
8
 71
3
 72
8
 73
4
 74
0
 40
0
 40
0
 40
0
 40
0
 40
1
 40
1
 40
1
 40
1
 10
87.134390
 20
128.198314
 30
0.0
 10
87.181275
 20
128.245203
 30
0.0
 10
87.207612
 20
128.308797
 30
0.0
 10
87.207606
 20
128.375104
 30
0.0
  0
LINE
  5
125
100
AcDbEntity
  8
Layer_1
 62
7
100
AcDbLine
 10
85.957608
 20
128.125084
 30
0.0
 11
86.957606
 21
128.125084
 31
0.0
  0
LINE
  5
126
100
AcDbEntity
  8
Layer_1
 62
7
100
AcDbLine
 10
85.957608
 20
125.625103
 30
0.0
 11
85.957608
 21
128.125084
 31
0.0
  0
LINE
  5
127
100
AcDbEntity
  8
Layer_1
 62
7
100
AcDbLine
 10
82.457606
 20
125.625103
 30
0.0
 11
85.957608
 21
125.625103
 31
0.0
  0
LINE
  5
128
100
AcDbEntity
  8
Layer_1
 62
7
100
AcDbLine
 10
82.457606
 20
128.125084
 30
0.0
 11
82.457606
 21
125.625103
 31
0.0
  0
LINE
  5
129
100
AcDbEntity
  8
Layer_1
 62
7
100
AcDbLine
 10
81.457605
 20
128.125084
 30
0.0
 11
82.457606
 21
128.125084
 31
0.0
  0
SPLINE
  5
12a
100
AcDbEntity
  8
Layer_1
 62
7
100
AcDbSpline
 70
8
 71
3
 72
8
 73
4
 74
0
 40
0
 40
0
 40
0
 40
0
 40
1
 40
1
 40
1
 40
1
 10
81.207607
 20
128.375104
 30
0.0
 10
81.207602
 20
128.308797
 30
0.0
 10
81.233938
 20
128.245204
 30
0.0
 10
81.280823
 20
128.198315
 30
0.0
  0
SPLINE
  5
12b
100
AcDbEntity
  8
Layer_1
 62
7
100
AcDbSpline
 70
8
 71
3
 72
8
 73
4
 74
0
 40
0
 40
0
 40
0
 40
0
 40
1
 40
1
 40
1
 40
1
 10
81.280823
 20
128.198315
 30
0.0
 10
81.327707
 20
128.151427
 30
0.0
 10
81.391298
 20
128.125084
 30
0.0
 10
81.457605
 20
128.125084
 30
0.0
  0
LINE
  5
12c
100
AcDbEntity
  8
Layer_1
 62
7
100
AcDbLine
 10
81.207607
 20
132.075094
 30
0.0
 11
81.207607
 21
128.375104
 31
0.0
  0
SPLINE
  5
12d
100
AcDbEntity
  8
Layer_1
 62
7
100
AcDbSpline
 70
8
 71
3
 72
8
 73
4
 74
0
 40
0
 40
0
 40
0
 40
0
 40
1
 40
1
 40
1
 40
1
 10
81.457605
 20
132.325087
 30
0.0
 10
81.319538
 20
132.325086
 30
0.0
 10
81.207611
 20
132.213162
 30
0.0
 10
81.207607
 20
132.075094
 30
0.0
  0
LINE
  5
12e
100
AcDbEntity
  8
Layer_1
 62
7
100
AcDbLine
 10
82.457606
 20
132.325087
 30
0.0
 11
81.457605
 21
132.325087
 31
0.0
  0
LINE
  5
12f
100
AcDbEntity
  8
Layer_1
 62
7
100
AcDbLine
 10
82.457606
 20
136.125096
 30
0.0
 11
82.457606
 21
132.325087
 31
0.0
  0
LINE
  5
130
100
AcDbEntity
  8
Layer_1
 62
7
100
AcDbLine
 10
82.457606
 20
136.125096
 30
0.0
 11
75.207605
 21
136.125096
 31
0.0
  0
LINE
  5
131
100
AcDbEntity
  8
Layer_1
 62
7
100
AcDbLine
 10
75.207605
 20
136.125096
 30
0.0
 11
75.207605
 21
140.625101
 31
0.0
  0
LINE
  5
132
100
AcDbEntity
  8
Layer_1
 62
7
100
AcDbLine
 10
75.207605
 20
140.625101
 30
0.0
 11
65.207605
 21
140.625101
 31
0.0
  0
LINE
  5
133
100
AcDbEntity
  8
Layer_1
 62
7
100
AcDbLine
 10
65.207605
 20
140.625101
 30
0.0
 11
65.207605
 21
136.125096
 31
0.0
  0
LINE
  5
134
100
AcDbEntity
  8
Layer_1
 62
7
100
AcDbLine
 10
65.207605
 20
136.125096
 30
0.0
 11
35.207606
 21
136.125096
 31
0.0
  0
LINE
  5
135
100
AcDbEntity
  8
Layer_1
 62
7
100
AcDbLine
 10
35.207606
 20
136.125096
 30
0.0
 11
35.207606
 21
140.625101
 31
0.0
  0
LINE
  5
136
100
AcDbEntity
  8
Layer_1
 62
7
100
AcDbLine
 10
35.207606
 20
140.625101
 30
0.0
 11
25.207607
 21
140.625101
 31
0.0
  0
LINE
  5
137
100
AcDbEntity
  8
Layer_1
 62
7
100
AcDbLine
 10
25.207607
 20
140.625101
 30
0.0
 11
25.207607
 21
136.125096
 31
0.0
  0
LINE
  5
138
100
AcDbEntity
  8
Layer_1
 62
7
100
AcDbLine
 10
25.207607
 20
136.125096
 30
0.0
 11
15.207607
 21
136.125096
 31
0.0
  0
LINE
  5
139
100
AcDbEntity
  8
Layer_1
 62
7
100
AcDbLine
 10
15.207607
 20
136.125096
 30
0.0
 11
15.207607
 21
133.625087
 31
0.0
  0
LINE
  5
13a
100
AcDbEntity
  8
Layer_1
 62
7
100
AcDbLine
 10
15.207607
 20
133.625087
 30
0.0
 11
10.707607
 21
133.625087
 31
0.0
  0
LINE
  5
13b
100
AcDbEntity
  8
Layer_1
 62
7
100
AcDbLine
 10
10.707607
 20
133.625087
 30
0.0
 11
10.707607
 21
123.625107
 31
0.0
  0
LINE
  5
13c
100
AcDbEntity
  8
Layer_1
 62
7
100
AcDbLine
 10
10.707607
 20
123.625107
 30
0.0
 11
15.207607
 21
123.625107
 31
0.0
  0
LINE
  5
13d
100
AcDbEntity
  8
Layer_1
 62
7
100
AcDbLine
 10
15.207607
 20
123.625107
 30
0.0
 11
15.207607
 21
108.375088
 31
0.0
  0
LINE
  5
13e
100
AcDbEntity
  8
Layer_1
 62
7
100
AcDbLine
 10
19.007607
 20
108.375088
 30
0.0
 11
15.207607
 21
108.375088
 31
0.0
  0
LINE
  5
13f
100
AcDbEntity
  8
Layer_1
 62
7
100
AcDbLine
 10
19.007607
 20
109.375086
 30
0.0
 11
19.007607
 21
108.375088
 31
0.0
  0
SPLINE
  5
140
100
AcDbEntity
  8
Layer_1
 62
7
100
AcDbSpline
 70
8
 71
3
 72
8
 73
4
 74
0
 40
0
 40
0
 40
0
 40
0
 40
1
 40
1
 40
1
 40
1
 10
19.257607
 20
109.625107
 30
0.0
 10
19.191299
 20
109.625107
 30
0.0
 10
19.127707
 20
109.598765
 30
0.0
 10
19.080823
 20
109.551876
 30
0.0
  0
SPLINE
  5
141
100
AcDbEntity
  8
Layer_1
 62
7
100
AcDbSpline
 70
8
 71
3
 72
8
 73
4
 74
0
 40
0
 40
0
 40
0
 40
0
 40
1
 40
1
 40
1
 40
1
 10
19.080823
 20
109.551876
 30
0.0
 10
19.033938
 20
109.504987
 30
0.0
 10
19.007601
 20
109.441394
 30
0.0
 10
19.007607
 20
109.375086
 30
0.0
  0
LINE
  5
142
100
AcDbEntity
  8
Layer_1
 62
7
100
AcDbLine
 10
22.957607
 20
109.625107
 30
0.0
 11
19.257607
 21
109.625107
 31
0.0
  0
SPLINE
  5
143
100
AcDbEntity
  8
Layer_1
 62
7
100
AcDbSpline
 70
8
 71
3
 72
8
 73
4
 74
0
 40
0
 40
0
 40
0
 40
0
 40
1
 40
1
 40
1
 40
1
 10
23.207607
 20
109.375086
 30
0.0
 10
23.207612
 20
109.441394
 30
0.0
 10
23.181275
 20
109.504987
 30
0.0
 10
23.134391
 20
109.551876
 30
0.0
  0
SPLINE
  5
144
100
AcDbEntity
  8
Layer_1
 62
7
100
AcDbSpline
 70
8
 71
3
 72
8
 73
4
 74
0
 40
0
 40
0
 40
0
 40
0
 40
1
 40
1
 40
1
 40
1
 10
23.134391
 20
109.551876
 30
0.0
 10
23.087506
 20
109.598765
 30
0.0
 10
23.023914
 20
109.625107
 30
0.0
 10
22.957607
 20
109.625107
 30
0.0
  0
LINE
  5
145
100
AcDbEntity
  8
Layer_1
 62
7
100
AcDbLine
 10
23.207607
 20
108.375088
 30
0.0
 11
23.207607
 21
109.375086
 31
0.0
  0
LINE
  5
146
100
AcDbEntity
  8
Layer_1
 62
7
100
AcDbLine
 10
25.707606
 20
108.375088
 30
0.0
 11
23.207607
 21
108.375088
 31
0.0
  0
LINE
  5
147
100
AcDbEntity
  8
Layer_1
 62
7
100
AcDbLine
 10
25.707606
 20
104.875081
 30
0.0
 11
25.707606
 21
108.375088
 31
0.0
  0
LINE
  5
148
100
AcDbEntity
  8
Layer_1
 62
7
100
AcDbLine
 10
23.207607
 20
104.875081
 30
0.0
 11
25.707606
 21
104.875081
 31
0.0
  0
LINE
  5
149
100
AcDbEntity
  8
Layer_1
 62
7
100
AcDbLine
 10
23.207607
 20
103.875083
 30
0.0
 11
23.207607
 21
104.875081
 31
0.0
  0
SPLINE
  5
14a
100
AcDbEntity
  8
Layer_1
 62
7
100
AcDbSpline
 70
8
 71
3
 72
8
 73
4
 74
0
 40
0
 40
0
 40
0
 40
0
 40
1
 40
1
 40
1
 40
1
 10
22.957607
 20
103.625090
 30
0.0
 10
23.095675
 20
103.625090
 30
0.0
 10
23.207602
 20
103.737015
 30
0.0
 10
23.207607
 20
103.875083
 30
0.0
  0
LINE
  5
14b
100
AcDbEntity
  8
Layer_1
 62
7
100
AcDbLine
 10
19.257607
 20
103.625090
 30
0.0
 11
22.957607
 21
103.625090
 31
0.0
  0
SPLINE
  5
14c
100
AcDbEntity
  8
Layer_1
 62
7
100
AcDbSpline
 70
8
 71
3
 72
8
 73
4
 74
0
 40
0
 40
0
 40
0
 40
0
 40
1
 40
1
 40
1
 40
1
 10
19.007607
 20
103.875083
 30
0.0
 10
19.007611
 20
103.737015
 30
0.0
 10
19.119538
 20
103.625090
 30
0.0
 10
19.257607
 20
103.625090
 30
0.0
  0
LINE
  5
14d
100
AcDbEntity
  8
Layer_1
 62
7
100
AcDbLine
 10
19.007607
 20
104.875081
 30
0.0
 11
19.007607
 21
103.875083
 31
0.0
  0
LINE
  5
14e
100
AcDbEntity
  8
Layer_1
 62
7
100
AcDbLine
 10
15.207607
 20
104.875081
 30
0.0
 11
19.007607
 21
104.875081
 31
0.0
  0
LINE
  5
14f
100
AcDbEntity
  8
Layer_1
 62
7
100
AcDbLine
 10
15.207607
 20
104.875081
 30
0.0
 11
15.207607
 21
101.125081
 31
0.0
  0
LINE
  5
150
100
AcDbEntity
  8
Layer_1
 62
7
100
AcDbLine
 10
15.207607
 20
101.125081
 30
0.0
 11
56.344309
 21
101.125081
 31
0.0
  0
SPLINE
  5
151
100
AcDbEntity
  8
Layer_1
 62
7
100
AcDbSpline
 70
8
 71
3
 72
8
 73
4
 74
0
 40
0
 40
0
 40
0
 40
0
 40
1
 40
1
 40
1
 40
1
 10
56.344309
 20
101.125081
 30
0.0
 10
62.825882
 20
96.430998
 30
0.0
 10
71.589332
 20
96.430998
 30
0.0
 10
78.070905
 20
101.125081
 30
0.0
  0
LINE
  5
152
100
AcDbEntity
  8
Layer_1
 62
7
100
AcDbLine
 10
78.070905
 20
101.125081
 30
0.0
 11
84.643203
 21
101.125081
 31
0.0
  0
SPLINE
  5
153
100
AcDbEntity
  8
Layer_1
 62
7
100
AcDbSpline
 70
8
 71
3
 72
8
 73
4
 74
0
 40
0
 40
0
 40
0
 40
0
 40
1
 40
1
 40
1
 40
1
 10
80.615559
 20
164.815090
 30
0.0
 10
80.615559
 20
169.816809
 30
0.0
 10
77.947174
 20
174.438587
 30
0.0
 10
73.615558
 20
176.939446
 30
0.0
  0
SPLINE
  5
154
100
AcDbEntity
  8
Layer_1
 62
7
100
AcDbSpline
 70
8
 71
3
 72
8
 73
4
 74
0
 40
0
 40
0
 40
0
 40
0
 40
1
 40
1
 40
1
 40
1
 10
73.615558
 20
176.939446
 30
0.0
 10
69.283943
 20
179.440305
 30
0.0
 10
63.947173
 20
179.440305
 30
0.0
 10
59.615558
 20
176.939446
 30
0.0
  0
SPLINE
  5
155
100
AcDbEntity
  8
Layer_1
 62
7
100
AcDbSpline
 70
8
 71
3
 72
8
 73
4
 74
0
 40
0
 40
0
 40
0
 40
0
 40
1
 40
1
 40
1
 40
1
 10
59.615558
 20
176.939446
 30
0.0
 10
55.283943
 20
174.438587
 30
0.0
 10
52.615558
 20
169.816809
 30
0.0
 10
52.615558
 20
164.815090
 30
0.0
  0
SPLINE
  5
156
100
AcDbEntity
  8
Layer_1
 62
7
100
AcDbSpline
 70
8
 71
3
 72
8
 73
4
 74
0
 40
0
 40
0
 40
0
 40
0
 40
1
 40
1
 40
1
 40
1
 10
52.615558
 20
164.815090
 30
0.0
 10
52.615558
 20
159.813372
 30
0.0
 10
55.283943
 20
155.191594
 30
0.0
 10
59.615558
 20
152.690734
 30
0.0
  0
SPLINE
  5
157
100
AcDbEntity
  8
Layer_1
 62
7
100
AcDbSpline
 70
8
 71
3
 72
8
 73
4
 74
0
 40
0
 40
0
 40
0
 40
0
 40
1
 40
1
 40
1
 40
1
 10
59.615558
 20
152.690734
 30
0.0
 10
63.947173
 20
150.189875
 30
0.0
 10
69.283943
 20
150.189875
 30
0.0
 10
73.615558
 20
152.690734
 30
0.0
  0
SPLINE
  5
158
100
AcDbEntity
  8
Layer_1
 62
7
100
AcDbSpline
 70
8
 71
3
 72
8
 73
4
 74
0
 40
0
 40
0
 40
0
 40
0
 40
1
 40
1
 40
1
 40
1
 10
73.615558
 20
152.690734
 30
0.0
 10
77.947174
 20
155.191594
 30
0.0
 10
80.615559
 20
159.813372
 30
0.0
 10
80.615559
 20
164.815090
 30
0.0
  0
LINE
  5
159
100
AcDbEntity
  8
Layer_1
 62
7
100
AcDbLine
 10
80.615559
 20
164.815090
 30
0.0
 11
80.615559
 21
164.815090
 31
0.0
  0
SPLINE
  5
15a
100
AcDbEntity
  8
Layer_1
 62
7
100
AcDbSpline
 70
8
 71
3
 72
8
 73
4
 74
0
 40
0
 40
0
 40
0
 40
0
 40
1
 40
1
 40
1
 40
1
 10
56.165558
 20
176.815066
 30
0.0
 10
56.165892
 20
177.369051
 30
0.0
 10
55.870537
 20
177.881096
 30
0.0
 10
55.390828
 20
178.158185
 30
0.0
  0
SPLINE
  5
15b
100
AcDbEntity
  8
Layer_1
 62
7
100
AcDbSpline
 70
8
 71
3
 72
8
 73
4
 74
0
 40
0
 40
0
 40
0
 40
0
 40
1
 40
1
 40
1
 40
1
 10
55.390828
 20
178.158185
 30
0.0
 10
54.911119
 20
178.435274
 30
0.0
 10
54.319997
 20
178.435274
 30
0.0
 10
53.840288
 20
178.158185
 30
0.0
  0
SPLINE
  5
15c
100
AcDbEntity
  8
Layer_1
 62
7
100
AcDbSpline
 70
8
 71
3
 72
8
 73
4
 74
0
 40
0
 40
0
 40
0
 40
0
 40
1
 40
1
 40
1
 40
1
 10
53.840288
 20
178.158185
 30
0.0
 10
53.360579
 20
177.881096
 30
0.0
 10
53.065224
 20
177.369051
 30
0.0
 10
53.065559
 20
176.815066
 30
0.0
  0
SPLINE
  5
15d
100
AcDbEntity
  8
Layer_1
 62
7
100
AcDbSpline
 70
8
 71
3
 72
8
 73
4
 74
0
 40
0
 40
0
 40
0
 40
0
 40
1
 40
1
 40
1
 40
1
 10
53.065559
 20
176.815066
 30
0.0
 10
53.065224
 20
176.261082
 30
0.0
 10
53.360579
 20
175.749036
 30
0.0
 10
53.840288
 20
175.471947
 30
0.0
  0
SPLINE
  5
15e
100
AcDbEntity
  8
Layer_1
 62
7
100
AcDbSpline
 70
8
 71
3
 72
8
 73
4
 74
0
 40
0
 40
0
 40
0
 40
0
 40
1
 40
1
 40
1
 40
1
 10
53.840288
 20
175.471947
 30
0.0
 10
54.319997
 20
175.194859
 30
0.0
 10
54.911119
 20
175.194859
 30
0.0
 10
55.390828
 20
175.471947
 30
0.0
  0
SPLINE
  5
15f
100
AcDbEntity
  8
Layer_1
 62
7
100
AcDbSpline
 70
8
 71
3
 72
8
 73
4
 74
0
 40
0
 40
0
 40
0
 40
0
 40
1
 40
1
 40
1
 40
1
 10
55.390828
 20
175.471947
 30
0.0
 10
55.870537
 20
175.749036
 30
0.0
 10
56.165892
 20
176.261082
 30
0.0
 10
56.165558
 20
176.815066
 30
0.0
  0
LINE
  5
160
100
AcDbEntity
  8
Layer_1
 62
7
100
AcDbLine
 10
56.165558
 20
176.815066
 30
0.0
 11
56.165558
 21
176.815066
 31
0.0
  0
SPLINE
  5
161
100
AcDbEntity
  8
Layer_1
 62
7
100
AcDbSpline
 70
8
 71
3
 72
8
 73
4
 74
0
 40
0
 40
0
 40
0
 40
0
 40
1
 40
1
 40
1
 40
1
 10
80.165558
 20
152.815086
 30
0.0
 10
80.165892
 20
153.369070
 30
0.0
 10
79.870537
 20
153.881116
 30
0.0
 10
79.390828
 20
154.158205
 30
0.0
  0
SPLINE
  5
162
100
AcDbEntity
  8
Layer_1
 62
7
100
AcDbSpline
 70
8
 71
3
 72
8
 73
4
 74
0
 40
0
 40
0
 40
0
 40
0
 40
1
 40
1
 40
1
 40
1
 10
79.390828
 20
154.158205
 30
0.0
 10
78.911119
 20
154.435294
 30
0.0
 10
78.319997
 20
154.435294
 30
0.0
 10
77.840288
 20
154.158205
 30
0.0
  0
SPLINE
  5
163
100
AcDbEntity
  8
Layer_1
 62
7
100
AcDbSpline
 70
8
 71
3
 72
8
 73
4
 74
0
 40
0
 40
0
 40
0
 40
0
 40
1
 40
1
 40
1
 40
1
 10
77.840288
 20
154.158205
 30
0.0
 10
77.360579
 20
153.881116
 30
0.0
 10
77.065224
 20
153.369070
 30
0.0
 10
77.065559
 20
152.815086
 30
0.0
  0
SPLINE
  5
164
100
AcDbEntity
  8
Layer_1
 62
7
100
AcDbSpline
 70
8
 71
3
 72
8
 73
4
 74
0
 40
0
 40
0
 40
0
 40
0
 40
1
 40
1
 40
1
 40
1
 10
77.065559
 20
152.815086
 30
0.0
 10
77.065224
 20
152.261102
 30
0.0
 10
77.360579
 20
151.749056
 30
0.0
 10
77.840288
 20
151.471967
 30
0.0
  0
SPLINE
  5
165
100
AcDbEntity
  8
Layer_1
 62
7
100
AcDbSpline
 70
8
 71
3
 72
8
 73
4
 74
0
 40
0
 40
0
 40
0
 40
0
 40
1
 40
1
 40
1
 40
1
 10
77.840288
 20
151.471967
 30
0.0
 10
78.319997
 20
151.194879
 30
0.0
 10
78.911119
 20
151.194879
 30
0.0
 10
79.390828
 20
151.471967
 30
0.0
  0
SPLINE
  5
166
100
AcDbEntity
  8
Layer_1
 62
7
100
AcDbSpline
 70
8
 71
3
 72
8
 73
4
 74
0
 40
0
 40
0
 40
0
 40
0
 40
1
 40
1
 40
1
 40
1
 10
79.390828
 20
151.471967
 30
0.0
 10
79.870537
 20
151.749056
 30
0.0
 10
80.165892
 20
152.261102
 30
0.0
 10
80.165558
 20
152.815086
 30
0.0
  0
LINE
  5
167
100
AcDbEntity
  8
Layer_1
 62
7
100
AcDbLine
 10
80.165558
 20
152.815086
 30
0.0
 11
80.165558
 21
152.815086
 31
0.0
  0
SPLINE
  5
168
100
AcDbEntity
  8
Layer_1
 62
7
100
AcDbSpline
 70
8
 71
3
 72
8
 73
4
 74
0
 40
0
 40
0
 40
0
 40
0
 40
1
 40
1
 40
1
 40
1
 10
56.165558
 20
152.815086
 30
0.0
 10
56.165892
 20
153.369070
 30
0.0
 10
55.870537
 20
153.881116
 30
0.0
 10
55.390828
 20
154.158205
 30
0.0
  0
SPLINE
  5
169
100
AcDbEntity
  8
Layer_1
 62
7
100
AcDbSpline
 70
8
 71
3
 72
8
 73
4
 74
0
 40
0
 40
0
 40
0
 40
0
 40
1
 40
1
 40
1
 40
1
 10
55.390828
 20
154.158205
 30
0.0
 10
54.911119
 20
154.435294
 30
0.0
 10
54.319997
 20
154.435294
 30
0.0
 10
53.840288
 20
154.158205
 30
0.0
  0
SPLINE
  5
16a
100
AcDbEntity
  8
Layer_1
 62
7
100
AcDbSpline
 70
8
 71
3
 72
8
 73
4
 74
0
 40
0
 40
0
 40
0
 40
0
 40
1
 40
1
 40
1
 40
1
 10
53.840288
 20
154.158205
 30
0.0
 10
53.360579
 20
153.881116
 30
0.0
 10
53.065224
 20
153.369070
 30
0.0
 10
53.065559
 20
152.815086
 30
0.0
  0
SPLINE
  5
16b
100
AcDbEntity
  8
Layer_1
 62
7
100
AcDbSpline
 70
8
 71
3
 72
8
 73
4
 74
0
 40
0
 40
0
 40
0
 40
0
 40
1
 40
1
 40
1
 40
1
 10
53.065559
 20
152.815086
 30
0.0
 10
53.065224
 20
152.261102
 30
0.0
 10
53.360579
 20
151.749056
 30
0.0
 10
53.840288
 20
151.471967
 30
0.0
  0
SPLINE
  5
16c
100
AcDbEntity
  8
Layer_1
 62
7
100
AcDbSpline
 70
8
 71
3
 72
8
 73
4
 74
0
 40
0
 40
0
 40
0
 40
0
 40
1
 40
1
 40
1
 40
1
 10
53.840288
 20
151.471967
 30
0.0
 10
54.319997
 20
151.194879
 30
0.0
 10
54.911119
 20
151.194879
 30
0.0
 10
55.390828
 20
151.471967
 30
0.0
  0
SPLINE
  5
16d
100
AcDbEntity
  8
Layer_1
 62
7
100
AcDbSpline
 70
8
 71
3
 72
8
 73
4
 74
0
 40
0
 40
0
 40
0
 40
0
 40
1
 40
1
 40
1
 40
1
 10
55.390828
 20
151.471967
 30
0.0
 10
55.870537
 20
151.749056
 30
0.0
 10
56.165892
 20
152.261102
 30
0.0
 10
56.165558
 20
152.815086
 30
0.0
  0
LINE
  5
16e
100
AcDbEntity
  8
Layer_1
 62
7
100
AcDbLine
 10
56.165558
 20
152.815086
 30
0.0
 11
56.165558
 21
152.815086
 31
0.0
  0
SPLINE
  5
16f
100
AcDbEntity
  8
Layer_1
 62
7
100
AcDbSpline
 70
8
 71
3
 72
8
 73
4
 74
0
 40
0
 40
0
 40
0
 40
0
 40
1
 40
1
 40
1
 40
1
 10
23.487939
 20
150.162536
 30
0.0
 10
23.487939
 20
150.716298
 30
0.0
 10
23.192511
 20
151.227994
 30
0.0
 10
22.712939
 20
151.504875
 30
0.0
  0
SPLINE
  5
170
100
AcDbEntity
  8
Layer_1
 62
7
100
AcDbSpline
 70
8
 71
3
 72
8
 73
4
 74
0
 40
0
 40
0
 40
0
 40
0
 40
1
 40
1
 40
1
 40
1
 10
22.712939
 20
151.504875
 30
0.0
 10
22.233368
 20
151.781756
 30
0.0
 10
21.642511
 20
151.781756
 30
0.0
 10
21.162939
 20
151.504875
 30
0.0
  0
SPLINE
  5
171
100
AcDbEntity
  8
Layer_1
 62
7
100
AcDbSpline
 70
8
 71
3
 72
8
 73
4
 74
0
 40
0
 40
0
 40
0
 40
0
 40
1
 40
1
 40
1
 40
1
 10
21.162939
 20
151.504875
 30
0.0
 10
20.683368
 20
151.227994
 30
0.0
 10
20.387939
 20
150.716298
 30
0.0
 10
20.387939
 20
150.162536
 30
0.0
  0
SPLINE
  5
172
100
AcDbEntity
  8
Layer_1
 62
7
100
AcDbSpline
 70
8
 71
3
 72
8
 73
4
 74
0
 40
0
 40
0
 40
0
 40
0
 40
1
 40
1
 40
1
 40
1
 10
20.387939
 20
150.162536
 30
0.0
 10
20.387939
 20
149.608774
 30
0.0
 10
20.683368
 20
149.097077
 30
0.0
 10
21.162939
 20
148.820196
 30
0.0
  0
SPLINE
  5
173
100
AcDbEntity
  8
Layer_1
 62
7
100
AcDbSpline
 70
8
 71
3
 72
8
 73
4
 74
0
 40
0
 40
0
 40
0
 40
0
 40
1
 40
1
 40
1
 40
1
 10
21.162939
 20
148.820196
 30
0.0
 10
21.642511
 20
148.543316
 30
0.0
 10
22.233368
 20
148.543316
 30
0.0
 10
22.712939
 20
148.820196
 30
0.0
  0
SPLINE
  5
174
100
AcDbEntity
  8
Layer_1
 62
7
100
AcDbSpline
 70
8
 71
3
 72
8
 73
4
 74
0
 40
0
 40
0
 40
0
 40
0
 40
1
 40
1
 40
1
 40
1
 10
22.712939
 20
148.820196
 30
0.0
 10
23.192511
 20
149.097077
 30
0.0
 10
23.487939
 20
149.608774
 30
0.0
 10
23.487939
 20
150.162536
 30
0.0
  0
LINE
  5
175
100
AcDbEntity
  8
Layer_1
 62
7
100
AcDbLine
 10
23.487939
 20
150.162536
 30
0.0
 11
23.487939
 21
150.162536
 31
0.0
  0
SPLINE
  5
176
100
AcDbEntity
  8
Layer_1
 62
7
100
AcDbSpline
 70
8
 71
3
 72
8
 73
4
 74
0
 40
0
 40
0
 40
0
 40
0
 40
1
 40
1
 40
1
 40
1
 10
48.487940
 20
150.162536
 30
0.0
 10
48.488274
 20
150.716520
 30
0.0
 10
48.192919
 20
151.228566
 30
0.0
 10
47.713210
 20
151.505655
 30
0.0
  0
SPLINE
  5
177
100
AcDbEntity
  8
Layer_1
 62
7
100
AcDbSpline
 70
8
 71
3
 72
8
 73
4
 74
0
 40
0
 40
0
 40
0
 40
0
 40
1
 40
1
 40
1
 40
1
 10
47.713210
 20
151.505655
 30
0.0
 10
47.233501
 20
151.782743
 30
0.0
 10
46.642379
 20
151.782743
 30
0.0
 10
46.162670
 20
151.505655
 30
0.0
  0
SPLINE
  5
178
100
AcDbEntity
  8
Layer_1
 62
7
100
AcDbSpline
 70
8
 71
3
 72
8
 73
4
 74
0
 40
0
 40
0
 40
0
 40
0
 40
1
 40
1
 40
1
 40
1
 10
46.162670
 20
151.505655
 30
0.0
 10
45.682961
 20
151.228566
 30
0.0
 10
45.387606
 20
150.716520
 30
0.0
 10
45.387940
 20
150.162536
 30
0.0
  0
SPLINE
  5
179
100
AcDbEntity
  8
Layer_1
 62
7
100
AcDbSpline
 70
8
 71
3
 72
8
 73
4
 74
0
 40
0
 40
0
 40
0
 40
0
 40
1
 40
1
 40
1
 40
1
 10
45.387940
 20
150.162536
 30
0.0
 10
45.387606
 20
149.608551
 30
0.0
 10
45.682961
 20
149.096506
 30
0.0
 10
46.162670
 20
148.819417
 30
0.0
  0
SPLINE
  5
17a
100
AcDbEntity
  8
Layer_1
 62
7
100
AcDbSpline
 70
8
 71
3
 72
8
 73
4
 74
0
 40
0
 40
0
 40
0
 40
0
 40
1
 40
1
 40
1
 40
1
 10
46.162670
 20
148.819417
 30
0.0
 10
46.642379
 20
148.542328
 30
0.0
 10
47.233501
 20
148.542328
 30
0.0
 10
47.713210
 20
148.819417
 30
0.0
  0
SPLINE
  5
17b
100
AcDbEntity
  8
Layer_1
 62
7
100
AcDbSpline
 70
8
 71
3
 72
8
 73
4
 74
0
 40
0
 40
0
 40
0
 40
0
 40
1
 40
1
 40
1
 40
1
 10
47.713210
 20
148.819417
 30
0.0
 10
48.192919
 20
149.096506
 30
0.0
 10
48.488274
 20
149.608551
 30
0.0
 10
48.487940
 20
150.162536
 30
0.0
  0
LINE
  5
17c
100
AcDbEntity
  8
Layer_1
 62
7
100
AcDbLine
 10
48.487940
 20
150.162536
 30
0.0
 11
48.487940
 21
150.162536
 31
0.0
  0
SPLINE
  5
17d
100
AcDbEntity
  8
Layer_1
 62
7
100
AcDbSpline
 70
8
 71
3
 72
8
 73
4
 74
0
 40
0
 40
0
 40
0
 40
0
 40
1
 40
1
 40
1
 40
1
 10
84.051154
 20
149.815064
 30
0.0
 10
87.641233
 20
153.988076
 30
0.0
 10
89.615564
 20
159.310302
 30
0.0
 10
89.615558
 20
164.815090
 30
0.0
  0
LINE
  5
17e
100
AcDbEntity
  8
Layer_1
 62
7
100
AcDbLine
 10
89.615558
 20
164.815090
 30
0.0
 11
89.615558
 21
184.815078
 31
0.0
  0
LINE
  5
17f
100
AcDbEntity
  8
Layer_1
 62
7
100
AcDbLine
 10
89.615558
 20
184.815078
 30
0.0
 11
85.365559
 21
184.815078
 31
0.0
  0
LINE
  5
180
100
AcDbEntity
  8
Layer_1
 62
7
100
AcDbLine
 10
85.365559
 20
181.015069
 30
0.0
 11
85.365559
 21
184.815078
 31
0.0
  0
LINE
  5
181
100
AcDbEntity
  8
Layer_1
 62
7
100
AcDbLine
 10
86.365557
 20
181.015069
 30
0.0
 11
85.365559
 21
181.015069
 31
0.0
  0
SPLINE
  5
182
100
AcDbEntity
  8
Layer_1
 62
7
100
AcDbSpline
 70
8
 71
3
 72
8
 73
4
 74
0
 40
0
 40
0
 40
0
 40
0
 40
1
 40
1
 40
1
 40
1
 10
86.615558
 20
180.765077
 30
0.0
 10
86.615554
 20
180.903145
 30
0.0
 10
86.503626
 20
181.015070
 30
0.0
 10
86.365557
 20
181.015069
 30
0.0
  0
LINE
  5
183
100
AcDbEntity
  8
Layer_1
 62
7
100
AcDbLine
 10
86.615558
 20
177.065087
 30
0.0
 11
86.615558
 21
180.765077
 31
0.0
  0
SPLINE
  5
184
100
AcDbEntity
  8
Layer_1
 62
7
100
AcDbSpline
 70
8
 71
3
 72
8
 73
4
 74
0
 40
0
 40
0
 40
0
 40
0
 40
1
 40
1
 40
1
 40
1
 10
86.365557
 20
176.815066
 30
0.0
 10
86.431865
 20
176.815066
 30
0.0
 10
86.495457
 20
176.841408
 30
0.0
 10
86.542342
 20
176.888297
 30
0.0
  0
SPLINE
  5
185
100
AcDbEntity
  8
Layer_1
 62
7
100
AcDbSpline
 70
8
 71
3
 72
8
 73
4
 74
0
 40
0
 40
0
 40
0
 40
0
 40
1
 40
1
 40
1
 40
1
 10
86.542342
 20
176.888297
 30
0.0
 10
86.589226
 20
176.935185
 30
0.0
 10
86.615563
 20
176.998779
 30
0.0
 10
86.615558
 20
177.065087
 30
0.0
  0
LINE
  5
186
100
AcDbEntity
  8
Layer_1
 62
7
100
AcDbLine
 10
85.365559
 20
176.815066
 30
0.0
 11
86.365557
 21
176.815066
 31
0.0
  0
LINE
  5
187
100
AcDbEntity
  8
Layer_1
 62
7
100
AcDbLine
 10
85.365559
 20
174.315085
 30
0.0
 11
85.365559
 21
176.815066
 31
0.0
  0
LINE
  5
188
100
AcDbEntity
  8
Layer_1
 62
7
100
AcDbLine
 10
81.865557
 20
174.315085
 30
0.0
 11
85.365559
 21
174.315085
 31
0.0
  0
LINE
  5
189
100
AcDbEntity
  8
Layer_1
 62
7
100
AcDbLine
 10
81.865557
 20
176.815066
 30
0.0
 11
81.865557
 21
174.315085
 31
0.0
  0
LINE
  5
18a
100
AcDbEntity
  8
Layer_1
 62
7
100
AcDbLine
 10
80.865557
 20
176.815066
 30
0.0
 11
81.865557
 21
176.815066
 31
0.0
  0
SPLINE
  5
18b
100
AcDbEntity
  8
Layer_1
 62
7
100
AcDbSpline
 70
8
 71
3
 72
8
 73
4
 74
0
 40
0
 40
0
 40
0
 40
0
 40
1
 40
1
 40
1
 40
1
 10
80.615559
 20
177.065087
 30
0.0
 10
80.615553
 20
176.998780
 30
0.0
 10
80.641890
 20
176.935186
 30
0.0
 10
80.688774
 20
176.888298
 30
0.0
  0
SPLINE
  5
18c
100
AcDbEntity
  8
Layer_1
 62
7
100
AcDbSpline
 70
8
 71
3
 72
8
 73
4
 74
0
 40
0
 40
0
 40
0
 40
0
 40
1
 40
1
 40
1
 40
1
 10
80.688774
 20
176.888298
 30
0.0
 10
80.735658
 20
176.841409
 30
0.0
 10
80.799249
 20
176.815067
 30
0.0
 10
80.865557
 20
176.815066
 30
0.0
  0
LINE
  5
18d
100
AcDbEntity
  8
Layer_1
 62
7
100
AcDbLine
 10
80.615559
 20
180.765077
 30
0.0
 11
80.615559
 21
177.065087
 31
0.0
  0
SPLINE
  5
18e
100
AcDbEntity
  8
Layer_1
 62
7
100
AcDbSpline
 70
8
 71
3
 72
8
 73
4
 74
0
 40
0
 40
0
 40
0
 40
0
 40
1
 40
1
 40
1
 40
1
 10
80.865557
 20
181.015069
 30
0.0
 10
80.727489
 20
181.015068
 30
0.0
 10
80.615563
 20
180.903144
 30
0.0
 10
80.615559
 20
180.765077
 30
0.0
  0
LINE
  5
18f
100
AcDbEntity
  8
Layer_1
 62
7
100
AcDbLine
 10
81.865557
 20
181.015069
 30
0.0
 11
80.865557
 21
181.015069
 31
0.0
  0
LINE
  5
190
100
AcDbEntity
  8
Layer_1
 62
7
100
AcDbLine
 10
81.865557
 20
184.815078
 30
0.0
 11
81.865557
 21
181.015069
 31
0.0
  0
LINE
  5
191
100
AcDbEntity
  8
Layer_1
 62
7
100
AcDbLine
 10
81.865557
 20
184.815078
 30
0.0
 11
74.615556
 21
184.815078
 31
0.0
  0
LINE
  5
192
100
AcDbEntity
  8
Layer_1
 62
7
100
AcDbLine
 10
74.615556
 20
184.815078
 30
0.0
 11
74.615556
 21
189.315084
 31
0.0
  0
LINE
  5
193
100
AcDbEntity
  8
Layer_1
 62
7
100
AcDbLine
 10
74.615556
 20
189.315084
 30
0.0
 11
64.615557
 21
189.315084
 31
0.0
  0
LINE
  5
194
100
AcDbEntity
  8
Layer_1
 62
7
100
AcDbLine
 10
64.615557
 20
189.315084
 30
0.0
 11
64.615557
 21
184.815078
 31
0.0
  0
LINE
  5
195
100
AcDbEntity
  8
Layer_1
 62
7
100
AcDbLine
 10
64.615557
 20
184.815078
 30
0.0
 11
34.615557
 21
184.815078
 31
0.0
  0
LINE
  5
196
100
AcDbEntity
  8
Layer_1
 62
7
100
AcDbLine
 10
34.615557
 20
184.815078
 30
0.0
 11
34.615557
 21
189.315084
 31
0.0
  0
LINE
  5
197
100
AcDbEntity
  8
Layer_1
 62
7
100
AcDbLine
 10
34.615557
 20
189.315084
 30
0.0
 11
24.615558
 21
189.315084
 31
0.0
  0
LINE
  5
198
100
AcDbEntity
  8
Layer_1
 62
7
100
AcDbLine
 10
24.615558
 20
189.315084
 30
0.0
 11
24.615558
 21
184.815078
 31
0.0
  0
LINE
  5
199
100
AcDbEntity
  8
Layer_1
 62
7
100
AcDbLine
 10
24.615558
 20
184.815078
 30
0.0
 11
14.615558
 21
184.815078
 31
0.0
  0
LINE
  5
19a
100
AcDbEntity
  8
Layer_1
 62
7
100
AcDbLine
 10
14.615558
 20
184.815078
 30
0.0
 11
14.615558
 21
182.315069
 31
0.0
  0
LINE
  5
19b
100
AcDbEntity
  8
Layer_1
 62
7
100
AcDbLine
 10
14.615558
 20
182.315069
 30
0.0
 11
10.115558
 21
182.315069
 31
0.0
  0
LINE
  5
19c
100
AcDbEntity
  8
Layer_1
 62
7
100
AcDbLine
 10
10.115558
 20
182.315069
 30
0.0
 11
10.115558
 21
172.315089
 31
0.0
  0
LINE
  5
19d
100
AcDbEntity
  8
Layer_1
 62
7
100
AcDbLine
 10
10.115558
 20
172.315089
 30
0.0
 11
14.615558
 21
172.315089
 31
0.0
  0
LINE
  5
19e
100
AcDbEntity
  8
Layer_1
 62
7
100
AcDbLine
 10
14.615558
 20
172.315089
 30
0.0
 11
14.615558
 21
157.065070
 31
0.0
  0
LINE
  5
19f
100
AcDbEntity
  8
Layer_1
 62
7
100
AcDbLine
 10
18.415558
 20
157.065070
 30
0.0
 11
14.615558
 21
157.065070
 31
0.0
  0
LINE
  5
1a0
100
AcDbEntity
  8
Layer_1
 62
7
100
AcDbLine
 10
18.415558
 20
158.065068
 30
0.0
 11
18.415558
 21
157.065070
 31
0.0
  0
SPLINE
  5
1a1
100
AcDbEntity
  8
Layer_1
 62
7
100
AcDbSpline
 70
8
 71
3
 72
8
 73
4
 74
0
 40
0
 40
0
 40
0
 40
0
 40
1
 40
1
 40
1
 40
1
 10
18.665558
 20
158.315089
 30
0.0
 10
18.599250
 20
158.315089
 30
0.0
 10
18.535659
 20
158.288747
 30
0.0
 10
18.488774
 20
158.241859
 30
0.0
  0
SPLINE
  5
1a2
100
AcDbEntity
  8
Layer_1
 62
7
100
AcDbSpline
 70
8
 71
3
 72
8
 73
4
 74
0
 40
0
 40
0
 40
0
 40
0
 40
1
 40
1
 40
1
 40
1
 10
18.488774
 20
158.241859
 30
0.0
 10
18.441889
 20
158.194970
 30
0.0
 10
18.415552
 20
158.131376
 30
0.0
 10
18.415558
 20
158.065068
 30
0.0
  0
LINE
  5
1a3
100
AcDbEntity
  8
Layer_1
 62
7
100
AcDbLine
 10
22.365558
 20
158.315089
 30
0.0
 11
18.665558
 21
158.315089
 31
0.0
  0
SPLINE
  5
1a4
100
AcDbEntity
  8
Layer_1
 62
7
100
AcDbSpline
 70
8
 71
3
 72
8
 73
4
 74
0
 40
0
 40
0
 40
0
 40
0
 40
1
 40
1
 40
1
 40
1
 10
22.615558
 20
158.065068
 30
0.0
 10
22.615563
 20
158.131376
 30
0.0
 10
22.589227
 20
158.194970
 30
0.0
 10
22.542342
 20
158.241859
 30
0.0
  0
SPLINE
  5
1a5
100
AcDbEntity
  8
Layer_1
 62
7
100
AcDbSpline
 70
8
 71
3
 72
8
 73
4
 74
0
 40
0
 40
0
 40
0
 40
0
 40
1
 40
1
 40
1
 40
1
 10
22.542342
 20
158.241859
 30
0.0
 10
22.495457
 20
158.288747
 30
0.0
 10
22.431866
 20
158.315089
 30
0.0
 10
22.365558
 20
158.315089
 30
0.0
  0
LINE
  5
1a6
100
AcDbEntity
  8
Layer_1
 62
7
100
AcDbLine
 10
22.615558
 20
157.065070
 30
0.0
 11
22.615558
 21
158.065068
 31
0.0
  0
LINE
  5
1a7
100
AcDbEntity
  8
Layer_1
 62
7
100
AcDbLine
 10
25.115558
 20
157.065070
 30
0.0
 11
22.615558
 21
157.065070
 31
0.0
  0
LINE
  5
1a8
100
AcDbEntity
  8
Layer_1
 62
7
100
AcDbLine
 10
25.115558
 20
153.565063
 30
0.0
 11
25.115558
 21
157.065070
 31
0.0
  0
LINE
  5
1a9
100
AcDbEntity
  8
Layer_1
 62
7
100
AcDbLine
 10
22.615558
 20
153.565063
 30
0.0
 11
25.115558
 21
153.565063
 31
0.0
  0
LINE
  5
1aa
100
AcDbEntity
  8
Layer_1
 62
7
100
AcDbLine
 10
22.615558
 20
152.565065
 30
0.0
 11
22.615558
 21
153.565063
 31
0.0
  0
SPLINE
  5
1ab
100
AcDbEntity
  8
Layer_1
 62
7
100
AcDbSpline
 70
8
 71
3
 72
8
 73
4
 74
0
 40
0
 40
0
 40
0
 40
0
 40
1
 40
1
 40
1
 40
1
 10
22.365558
 20
152.315073
 30
0.0
 10
22.503626
 20
152.315073
 30
0.0
 10
22.615554
 20
152.426997
 30
0.0
 10
22.615558
 20
152.565065
 30
0.0
  0
LINE
  5
1ac
100
AcDbEntity
  8
Layer_1
 62
7
100
AcDbLine
 10
18.665558
 20
152.315073
 30
0.0
 11
22.365558
 21
152.315073
 31
0.0
  0
SPLINE
  5
1ad
100
AcDbEntity
  8
Layer_1
 62
7
100
AcDbSpline
 70
8
 71
3
 72
8
 73
4
 74
0
 40
0
 40
0
 40
0
 40
0
 40
1
 40
1
 40
1
 40
1
 10
18.415558
 20
152.565065
 30
0.0
 10
18.415562
 20
152.426997
 30
0.0
 10
18.527490
 20
152.315073
 30
0.0
 10
18.665558
 20
152.315073
 30
0.0
  0
LINE
  5
1ae
100
AcDbEntity
  8
Layer_1
 62
7
100
AcDbLine
 10
18.415558
 20
153.565063
 30
0.0
 11
18.415558
 21
152.565065
 31
0.0
  0
LINE
  5
1af
100
AcDbEntity
  8
Layer_1
 62
7
100
AcDbLine
 10
14.615558
 20
153.565063
 30
0.0
 11
18.415558
 21
153.565063
 31
0.0
  0
LINE
  5
1b0
100
AcDbEntity
  8
Layer_1
 62
7
100
AcDbLine
 10
14.615558
 20
153.565063
 30
0.0
 11
14.615558
 21
149.815064
 31
0.0
  0
LINE
  5
1b1
100
AcDbEntity
  8
Layer_1
 62
7
100
AcDbLine
 10
14.615558
 20
149.815064
 30
0.0
 11
16.950026
 21
149.815064
 31
0.0
  0
SPLINE
  5
1b2
100
AcDbEntity
  8
Layer_1
 62
7
100
AcDbSpline
 70
8
 71
3
 72
8
 73
4
 74
0
 40
0
 40
0
 40
0
 40
0
 40
1
 40
1
 40
1
 40
1
 10
16.950026
 20
149.815064
 30
0.0
 10
17.132545
 20
147.194827
 30
0.0
 10
19.311354
 20
145.162509
 30
0.0
 10
21.937939
 20
145.162509
 30
0.0
  0
SPLINE
  5
1b3
100
AcDbEntity
  8
Layer_1
 62
7
100
AcDbSpline
 70
8
 71
3
 72
8
 73
4
 74
0
 40
0
 40
0
 40
0
 40
0
 40
1
 40
1
 40
1
 40
1
 10
21.937939
 20
145.162509
 30
0.0
 10
24.564525
 20
145.162509
 30
0.0
 10
26.743334
 20
147.194827
 30
0.0
 10
26.925853
 20
149.815064
 30
0.0
  0
LINE
  5
1b4
100
AcDbEntity
  8
Layer_1
 62
7
100
AcDbLine
 10
26.925853
 20
149.815064
 30
0.0
 11
41.950028
 21
149.815064
 31
0.0
  0
SPLINE
  5
1b5
100
AcDbEntity
  8
Layer_1
 62
7
100
AcDbSpline
 70
8
 71
3
 72
8
 73
4
 74
0
 40
0
 40
0
 40
0
 40
0
 40
1
 40
1
 40
1
 40
1
 10
41.950028
 20
149.815064
 30
0.0
 10
42.132555
 20
147.194834
 30
0.0
 10
44.311360
 20
145.162526
 30
0.0
 10
46.937940
 20
145.162526
 30
0.0
  0
SPLINE
  5
1b6
100
AcDbEntity
  8
Layer_1
 62
7
100
AcDbSpline
 70
8
 71
3
 72
8
 73
4
 74
0
 40
0
 40
0
 40
0
 40
0
 40
1
 40
1
 40
1
 40
1
 10
46.937940
 20
145.162526
 30
0.0
 10
49.564519
 20
145.162526
 30
0.0
 10
51.743325
 20
147.194834
 30
0.0
 10
51.925852
 20
149.815064
 30
0.0
  0
LINE
  5
1b7
100
AcDbEntity
  8
Layer_1
 62
7
100
AcDbLine
 10
51.925852
 20
149.815064
 30
0.0
 11
55.752261
 21
149.815064
 31
0.0
  0
SPLINE
  5
1b8
100
AcDbEntity
  8
Layer_1
 62
7
100
AcDbSpline
 70
8
 71
3
 72
8
 73
4
 74
0
 40
0
 40
0
 40
0
 40
0
 40
1
 40
1
 40
1
 40
1
 10
55.752261
 20
149.815064
 30
0.0
 10
62.233833
 20
145.120980
 30
0.0
 10
70.997284
 20
145.120980
 30
0.0
 10
77.478856
 20
149.815064
 30
0.0
  0
LINE
  5
1b9
100
AcDbEntity
  8
Layer_1
 62
7
100
AcDbLine
 10
77.478856
 20
149.815064
 30
0.0
 11
84.051154
 21
149.815064
 31
0.0
  0
LINE
  5
1ba
100
AcDbEntity
  8
Layer_1
 62
7
100
AcDbLine
 10
104.856878
 20
106.984269
 30
0.0
 11
113.123543
 21
100.784270
 31
0.0
  0
LINE
  5
1bb
100
AcDbEntity
  8
Layer_1
 62
7
100
AcDbLine
 10
115.456877
 20
100.784270
 30
0.0
 11
113.123543
 21
100.784270
 31
0.0
  0
LINE
  5
1bc
100
AcDbEntity
  8
Layer_1
 62
7
100
AcDbLine
 10
115.456877
 20
100.784270
 30
0.0
 11
115.456877
 21
103.134250
 31
0.0
  0
LINE
  5
1bd
100
AcDbEntity
  8
Layer_1
 62
7
100
AcDbLine
 10
115.456877
 20
103.134250
 30
0.0
 11
116.456878
 21
103.134250
 31
0.0
  0
LINE
  5
1be
100
AcDbEntity
  8
Layer_1
 62
7
100
AcDbLine
 10
116.456878
 20
103.134250
 30
0.0
 11
116.456878
 21
114.434258
 31
0.0
  0
LINE
  5
1bf
100
AcDbEntity
  8
Layer_1
 62
7
100
AcDbLine
 10
116.456878
 20
114.434258
 30
0.0
 11
115.456877
 21
114.434258
 31
0.0
  0
LINE
  5
1c0
100
AcDbEntity
  8
Layer_1
 62
7
100
AcDbLine
 10
115.456877
 20
114.434258
 30
0.0
 11
115.456877
 21
121.284271
 31
0.0
  0
LINE
  5
1c1
100
AcDbEntity
  8
Layer_1
 62
7
100
AcDbLine
 10
111.656876
 20
121.284271
 30
0.0
 11
115.456877
 21
121.284271
 31
0.0
  0
LINE
  5
1c2
100
AcDbEntity
  8
Layer_1
 62
7
100
AcDbLine
 10
111.656876
 20
120.284273
 30
0.0
 11
111.656876
 21
121.284271
 31
0.0
  0
SPLINE
  5
1c3
100
AcDbEntity
  8
Layer_1
 62
7
100
AcDbSpline
 70
8
 71
3
 72
8
 73
4
 74
0
 40
0
 40
0
 40
0
 40
0
 40
1
 40
1
 40
1
 40
1
 10
111.406878
 20
120.034252
 30
0.0
 10
111.473185
 20
120.034253
 30
0.0
 10
111.536776
 20
120.060595
 30
0.0
 10
111.583661
 20
120.107484
 30
0.0
  0
SPLINE
  5
1c4
100
AcDbEntity
  8
Layer_1
 62
7
100
AcDbSpline
 70
8
 71
3
 72
8
 73
4
 74
0
 40
0
 40
0
 40
0
 40
0
 40
1
 40
1
 40
1
 40
1
 10
111.583661
 20
120.107484
 30
0.0
 10
111.630545
 20
120.154372
 30
0.0
 10
111.656881
 20
120.217966
 30
0.0
 10
111.656876
 20
120.284273
 30
0.0
  0
LINE
  5
1c5
100
AcDbEntity
  8
Layer_1
 62
7
100
AcDbLine
 10
107.706877
 20
120.034252
 30
0.0
 11
111.406878
 21
120.034252
 31
0.0
  0
SPLINE
  5
1c6
100
AcDbEntity
  8
Layer_1
 62
7
100
AcDbSpline
 70
8
 71
3
 72
8
 73
4
 74
0
 40
0
 40
0
 40
0
 40
0
 40
1
 40
1
 40
1
 40
1
 10
107.456876
 20
120.284273
 30
0.0
 10
107.456870
 20
120.217965
 30
0.0
 10
107.483207
 20
120.154371
 30
0.0
 10
107.530092
 20
120.107483
 30
0.0
  0
SPLINE
  5
1c7
100
AcDbEntity
  8
Layer_1
 62
7
100
AcDbSpline
 70
8
 71
3
 72
8
 73
4
 74
0
 40
0
 40
0
 40
0
 40
0
 40
1
 40
1
 40
1
 40
1
 10
107.530092
 20
120.107483
 30
0.0
 10
107.576977
 20
120.060594
 30
0.0
 10
107.640569
 20
120.034252
 30
0.0
 10
107.706877
 20
120.034252
 30
0.0
  0
LINE
  5
1c8
100
AcDbEntity
  8
Layer_1
 62
7
100
AcDbLine
 10
107.456876
 20
121.284271
 30
0.0
 11
107.456876
 21
120.284273
 31
0.0
  0
LINE
  5
1c9
100
AcDbEntity
  8
Layer_1
 62
7
100
AcDbLine
 10
104.956878
 20
121.284271
 30
0.0
 11
107.456876
 21
121.284271
 31
0.0
  0
LINE
  5
1ca
100
AcDbEntity
  8
Layer_1
 62
7
100
AcDbLine
 10
104.956878
 20
124.784250
 30
0.0
 11
104.956878
 21
121.284271
 31
0.0
  0
LINE
  5
1cb
100
AcDbEntity
  8
Layer_1
 62
7
100
AcDbLine
 10
107.456876
 20
124.784250
 30
0.0
 11
104.956878
 21
124.784250
 31
0.0
  0
LINE
  5
1cc
100
AcDbEntity
  8
Layer_1
 62
7
100
AcDbLine
 10
107.456876
 20
125.784248
 30
0.0
 11
107.456876
 21
124.784250
 31
0.0
  0
SPLINE
  5
1cd
100
AcDbEntity
  8
Layer_1
 62
7
100
AcDbSpline
 70
8
 71
3
 72
8
 73
4
 74
0
 40
0
 40
0
 40
0
 40
0
 40
1
 40
1
 40
1
 40
1
 10
107.706877
 20
126.034269
 30
0.0
 10
107.640569
 20
126.034269
 30
0.0
 10
107.576977
 20
126.007927
 30
0.0
 10
107.530092
 20
125.961038
 30
0.0
  0
SPLINE
  5
1ce
100
AcDbEntity
  8
Layer_1
 62
7
100
AcDbSpline
 70
8
 71
3
 72
8
 73
4
 74
0
 40
0
 40
0
 40
0
 40
0
 40
1
 40
1
 40
1
 40
1
 10
107.530092
 20
125.961038
 30
0.0
 10
107.483207
 20
125.914150
 30
0.0
 10
107.456870
 20
125.850556
 30
0.0
 10
107.456876
 20
125.784248
 30
0.0
  0
LINE
  5
1cf
100
AcDbEntity
  8
Layer_1
 62
7
100
AcDbLine
 10
111.406878
 20
126.034269
 30
0.0
 11
107.706877
 21
126.034269
 31
0.0
  0
SPLINE
  5
1d0
100
AcDbEntity
  8
Layer_1
 62
7
100
AcDbSpline
 70
8
 71
3
 72
8
 73
4
 74
0
 40
0
 40
0
 40
0
 40
0
 40
1
 40
1
 40
1
 40
1
 10
111.656876
 20
125.784248
 30
0.0
 10
111.656881
 20
125.850555
 30
0.0
 10
111.630545
 20
125.914149
 30
0.0
 10
111.583661
 20
125.961037
 30
0.0
  0
SPLINE
  5
1d1
100
AcDbEntity
  8
Layer_1
 62
7
100
AcDbSpline
 70
8
 71
3
 72
8
 73
4
 74
0
 40
0
 40
0
 40
0
 40
0
 40
1
 40
1
 40
1
 40
1
 10
111.583661
 20
125.961037
 30
0.0
 10
111.536776
 20
126.007926
 30
0.0
 10
111.473185
 20
126.034268
 30
0.0
 10
111.406878
 20
126.034269
 30
0.0
  0
LINE
  5
1d2
100
AcDbEntity
  8
Layer_1
 62
7
100
AcDbLine
 10
111.656876
 20
124.784250
 30
0.0
 11
111.656876
 21
125.784248
 31
0.0
  0
LINE
  5
1d3
100
AcDbEntity
  8
Layer_1
 62
7
100
AcDbLine
 10
115.456877
 20
124.784250
 30
0.0
 11
111.656876
 21
124.784250
 31
0.0
  0
LINE
  5
1d4
100
AcDbEntity
  8
Layer_1
 62
7
100
AcDbLine
 10
115.456877
 20
124.784250
 30
0.0
 11
115.456877
 21
129.034263
 31
0.0
  0
LINE
  5
1d5
100
AcDbEntity
  8
Layer_1
 62
7
100
AcDbLine
 10
115.456877
 20
129.034263
 30
0.0
 11
110.456876
 21
129.034263
 31
0.0
  0
LINE
  5
1d6
100
AcDbEntity
  8
Layer_1
 62
7
100
AcDbLine
 10
110.456876
 20
129.034263
 30
0.0
 11
110.456876
 21
133.534268
 31
0.0
  0
LINE
  5
1d7
100
AcDbEntity
  8
Layer_1
 62
7
100
AcDbLine
 10
110.456876
 20
133.534268
 30
0.0
 11
100.456876
 21
133.534268
 31
0.0
  0
LINE
  5
1d8
100
AcDbEntity
  8
Layer_1
 62
7
100
AcDbLine
 10
100.456876
 20
133.534268
 30
0.0
 11
100.456876
 21
129.034263
 31
0.0
  0
LINE
  5
1d9
100
AcDbEntity
  8
Layer_1
 62
7
100
AcDbLine
 10
100.456876
 20
129.034263
 30
0.0
 11
100.056877
 21
129.034263
 31
0.0
  0
LINE
  5
1da
100
AcDbEntity
  8
Layer_1
 62
7
100
AcDbLine
 10
100.056877
 20
110.584267
 30
0.0
 11
100.056877
 21
129.034263
 31
0.0
  0
LINE
  5
1db
100
AcDbEntity
  8
Layer_1
 62
7
100
AcDbLine
 10
100.056877
 20
110.584267
 30
0.0
 11
102.056875
 21
109.084256
 31
0.0
  0
LINE
  5
1dc
100
AcDbEntity
  8
Layer_1
 62
7
100
AcDbLine
 10
104.336878
 20
112.124269
 30
0.0
 11
102.056875
 21
109.084256
 31
0.0
  0
LINE
  5
1dd
100
AcDbEntity
  8
Layer_1
 62
7
100
AcDbLine
 10
103.536877
 20
112.724274
 30
0.0
 11
104.336878
 21
112.124269
 31
0.0
  0
SPLINE
  5
1de
100
AcDbEntity
  8
Layer_1
 62
7
100
AcDbSpline
 70
8
 71
3
 72
8
 73
4
 74
0
 40
0
 40
0
 40
0
 40
0
 40
1
 40
1
 40
1
 40
1
 10
103.486876
 20
113.074257
 30
0.0
 10
103.404044
 20
112.963803
 30
0.0
 10
103.426430
 20
112.807115
 30
0.0
 10
103.536877
 20
112.724274
 30
0.0
  0
LINE
  5
1df
100
AcDbEntity
  8
Layer_1
 62
7
100
AcDbLine
 10
105.706878
 20
116.034260
 30
0.0
 11
103.486876
 21
113.074257
 31
0.0
  0
SPLINE
  5
1e0
100
AcDbEntity
  8
Layer_1
 62
7
100
AcDbSpline
 70
8
 71
3
 72
8
 73
4
 74
0
 40
0
 40
0
 40
0
 40
0
 40
1
 40
1
 40
1
 40
1
 10
106.056876
 20
116.084270
 30
0.0
 10
105.946417
 20
116.167109
 30
0.0
 10
105.789718
 20
116.144719
 30
0.0
 10
105.706878
 20
116.034260
 30
0.0
  0
LINE
  5
1e1
100
AcDbEntity
  8
Layer_1
 62
7
100
AcDbLine
 10
106.856877
 20
115.484266
 30
0.0
 11
106.056876
 21
116.084270
 31
0.0
  0
LINE
  5
1e2
100
AcDbEntity
  8
Layer_1
 62
7
100
AcDbLine
 10
108.356877
 20
117.484262
 30
0.0
 11
106.856877
 21
115.484266
 31
0.0
  0
LINE
  5
1e3
100
AcDbEntity
  8
Layer_1
 62
7
100
AcDbLine
 10
111.156877
 20
115.384274
 30
0.0
 11
108.356877
 21
117.484262
 31
0.0
  0
LINE
  5
1e4
100
AcDbEntity
  8
Layer_1
 62
7
100
AcDbLine
 10
109.656877
 20
113.384250
 30
0.0
 11
111.156877
 21
115.384274
 31
0.0
  0
LINE
  5
1e5
100
AcDbEntity
  8
Layer_1
 62
7
100
AcDbLine
 10
110.456876
 20
112.784274
 30
0.0
 11
109.656877
 21
113.384250
 31
0.0
  0
SPLINE
  5
1e6
100
AcDbEntity
  8
Layer_1
 62
7
100
AcDbSpline
 70
8
 71
3
 72
8
 73
4
 74
0
 40
0
 40
0
 40
0
 40
0
 40
1
 40
1
 40
1
 40
1
 10
110.506877
 20
112.434262
 30
0.0
 10
110.546663
 20
112.487306
 30
0.0
 10
110.563747
 20
112.553983
 30
0.0
 10
110.554370
 20
112.619624
 30
0.0
  0
SPLINE
  5
1e7
100
AcDbEntity
  8
Layer_1
 62
7
100
AcDbSpline
 70
8
 71
3
 72
8
 73
4
 74
0
 40
0
 40
0
 40
0
 40
0
 40
1
 40
1
 40
1
 40
1
 10
110.554370
 20
112.619624
 30
0.0
 10
110.544992
 20
112.685265
 30
0.0
 10
110.509923
 20
112.744491
 30
0.0
 10
110.456876
 20
112.784274
 30
0.0
  0
LINE
  5
1e8
100
AcDbEntity
  8
Layer_1
 62
7
100
AcDbLine
 10
108.286877
 20
109.474259
 30
0.0
 11
110.506877
 21
112.434262
 31
0.0
  0
SPLINE
  5
1e9
100
AcDbEntity
  8
Layer_1
 62
7
100
AcDbSpline
 70
8
 71
3
 72
8
 73
4
 74
0
 40
0
 40
0
 40
0
 40
0
 40
1
 40
1
 40
1
 40
1
 10
107.936877
 20
109.424249
 30
0.0
 10
107.989921
 20
109.384467
 30
0.0
 10
108.056596
 20
109.367387
 30
0.0
 10
108.122234
 20
109.376766
 30
0.0
  0
SPLINE
  5
1ea
100
AcDbEntity
  8
Layer_1
 62
7
100
AcDbSpline
 70
8
 71
3
 72
8
 73
4
 74
0
 40
0
 40
0
 40
0
 40
0
 40
1
 40
1
 40
1
 40
1
 10
108.122234
 20
109.376766
 30
0.0
 10
108.187872
 20
109.386145
 30
0.0
 10
108.247096
 20
109.421214
 30
0.0
 10
108.286877
 20
109.474259
 30
0.0
  0
LINE
  5
1eb
100
AcDbEntity
  8
Layer_1
 62
7
100
AcDbLine
 10
107.136875
 20
110.024254
 30
0.0
 11
107.936877
 21
109.424249
 31
0.0
  0
LINE
  5
1ec
100
AcDbEntity
  8
Layer_1
 62
7
100
AcDbLine
 10
104.856878
 20
106.984269
 30
0.0
 11
107.136875
 21
110.024254
 31
0.0
  0
LINE
  5
1ed
100
AcDbEntity
  8
Layer_1
 62
7
100
AcDbLine
 10
105.941360
 20
152.883356
 30
0.0
 11
114.208027
 21
146.683357
 31
0.0
  0
LINE
  5
1ee
100
AcDbEntity
  8
Layer_1
 62
7
100
AcDbLine
 10
116.541361
 20
146.683357
 30
0.0
 11
114.208027
 21
146.683357
 31
0.0
  0
LINE
  5
1ef
100
AcDbEntity
  8
Layer_1
 62
7
100
AcDbLine
 10
116.541361
 20
146.683357
 30
0.0
 11
116.541361
 21
149.033336
 31
0.0
  0
LINE
  5
1f0
100
AcDbEntity
  8
Layer_1
 62
7
100
AcDbLine
 10
116.541361
 20
149.033336
 30
0.0
 11
117.541362
 21
149.033336
 31
0.0
  0
LINE
  5
1f1
100
AcDbEntity
  8
Layer_1
 62
7
100
AcDbLine
 10
117.541362
 20
149.033336
 30
0.0
 11
117.541362
 21
160.333345
 31
0.0
  0
LINE
  5
1f2
100
AcDbEntity
  8
Layer_1
 62
7
100
AcDbLine
 10
117.541362
 20
160.333345
 30
0.0
 11
116.541361
 21
160.333345
 31
0.0
  0
LINE
  5
1f3
100
AcDbEntity
  8
Layer_1
 62
7
100
AcDbLine
 10
116.541361
 20
160.333345
 30
0.0
 11
116.541361
 21
167.183358
 31
0.0
  0
LINE
  5
1f4
100
AcDbEntity
  8
Layer_1
 62
7
100
AcDbLine
 10
112.741360
 20
167.183358
 30
0.0
 11
116.541361
 21
167.183358
 31
0.0
  0
LINE
  5
1f5
100
AcDbEntity
  8
Layer_1
 62
7
100
AcDbLine
 10
112.741360
 20
166.183360
 30
0.0
 11
112.741360
 21
167.183358
 31
0.0
  0
SPLINE
  5
1f6
100
AcDbEntity
  8
Layer_1
 62
7
100
AcDbSpline
 70
8
 71
3
 72
8
 73
4
 74
0
 40
0
 40
0
 40
0
 40
0
 40
1
 40
1
 40
1
 40
1
 10
112.491362
 20
165.933339
 30
0.0
 10
112.557669
 20
165.933340
 30
0.0
 10
112.621260
 20
165.959682
 30
0.0
 10
112.668145
 20
166.006571
 30
0.0
  0
SPLINE
  5
1f7
100
AcDbEntity
  8
Layer_1
 62
7
100
AcDbSpline
 70
8
 71
3
 72
8
 73
4
 74
0
 40
0
 40
0
 40
0
 40
0
 40
1
 40
1
 40
1
 40
1
 10
112.668145
 20
166.006571
 30
0.0
 10
112.715029
 20
166.053459
 30
0.0
 10
112.741366
 20
166.117053
 30
0.0
 10
112.741360
 20
166.183360
 30
0.0
  0
LINE
  5
1f8
100
AcDbEntity
  8
Layer_1
 62
7
100
AcDbLine
 10
108.791361
 20
165.933339
 30
0.0
 11
112.491362
 21
165.933339
 31
0.0
  0
SPLINE
  5
1f9
100
AcDbEntity
  8
Layer_1
 62
7
100
AcDbSpline
 70
8
 71
3
 72
8
 73
4
 74
0
 40
0
 40
0
 40
0
 40
0
 40
1
 40
1
 40
1
 40
1
 10
108.541360
 20
166.183360
 30
0.0
 10
108.541355
 20
166.117052
 30
0.0
 10
108.567691
 20
166.053458
 30
0.0
 10
108.614576
 20
166.006570
 30
0.0
  0
SPLINE
  5
1fa
100
AcDbEntity
  8
Layer_1
 62
7
100
AcDbSpline
 70
8
 71
3
 72
8
 73
4
 74
0
 40
0
 40
0
 40
0
 40
0
 40
1
 40
1
 40
1
 40
1
 10
108.614576
 20
166.006570
 30
0.0
 10
108.661461
 20
165.959681
 30
0.0
 10
108.725053
 20
165.933339
 30
0.0
 10
108.791361
 20
165.933339
 30
0.0
  0
LINE
  5
1fb
100
AcDbEntity
  8
Layer_1
 62
7
100
AcDbLine
 10
108.541360
 20
167.183358
 30
0.0
 11
108.541360
 21
166.183360
 31
0.0
  0
LINE
  5
1fc
100
AcDbEntity
  8
Layer_1
 62
7
100
AcDbLine
 10
106.041362
 20
167.183358
 30
0.0
 11
108.541360
 21
167.183358
 31
0.0
  0
LINE
  5
1fd
100
AcDbEntity
  8
Layer_1
 62
7
100
AcDbLine
 10
106.041362
 20
170.683337
 30
0.0
 11
106.041362
 21
167.183358
 31
0.0
  0
LINE
  5
1fe
100
AcDbEntity
  8
Layer_1
 62
7
100
AcDbLine
 10
108.541360
 20
170.683337
 30
0.0
 11
106.041362
 21
170.683337
 31
0.0
  0
LINE
  5
1ff
100
AcDbEntity
  8
Layer_1
 62
7
100
AcDbLine
 10
108.541360
 20
171.683335
 30
0.0
 11
108.541360
 21
170.683337
 31
0.0
  0
SPLINE
  5
200
100
AcDbEntity
  8
Layer_1
 62
7
100
AcDbSpline
 70
8
 71
3
 72
8
 73
4
 74
0
 40
0
 40
0
 40
0
 40
0
 40
1
 40
1
 40
1
 40
1
 10
108.791361
 20
171.933356
 30
0.0
 10
108.725053
 20
171.933356
 30
0.0
 10
108.661461
 20
171.907014
 30
0.0
 10
108.614576
 20
171.860125
 30
0.0
  0
SPLINE
  5
201
100
AcDbEntity
  8
Layer_1
 62
7
100
AcDbSpline
 70
8
 71
3
 72
8
 73
4
 74
0
 40
0
 40
0
 40
0
 40
0
 40
1
 40
1
 40
1
 40
1
 10
108.614576
 20
171.860125
 30
0.0
 10
108.567691
 20
171.813237
 30
0.0
 10
108.541355
 20
171.749643
 30
0.0
 10
108.541360
 20
171.683335
 30
0.0
  0
LINE
  5
202
100
AcDbEntity
  8
Layer_1
 62
7
100
AcDbLine
 10
112.491362
 20
171.933356
 30
0.0
 11
108.791361
 21
171.933356
 31
0.0
  0
SPLINE
  5
203
100
AcDbEntity
  8
Layer_1
 62
7
100
AcDbSpline
 70
8
 71
3
 72
8
 73
4
 74
0
 40
0
 40
0
 40
0
 40
0
 40
1
 40
1
 40
1
 40
1
 10
112.741360
 20
171.683335
 30
0.0
 10
112.741366
 20
171.749642
 30
0.0
 10
112.715029
 20
171.813236
 30
0.0
 10
112.668145
 20
171.860124
 30
0.0
  0
SPLINE
  5
204
100
AcDbEntity
  8
Layer_1
 62
7
100
AcDbSpline
 70
8
 71
3
 72
8
 73
4
 74
0
 40
0
 40
0
 40
0
 40
0
 40
1
 40
1
 40
1
 40
1
 10
112.668145
 20
171.860124
 30
0.0
 10
112.621260
 20
171.907013
 30
0.0
 10
112.557669
 20
171.933355
 30
0.0
 10
112.491362
 20
171.933356
 30
0.0
  0
LINE
  5
205
100
AcDbEntity
  8
Layer_1
 62
7
100
AcDbLine
 10
112.741360
 20
170.683337
 30
0.0
 11
112.741360
 21
171.683335
 31
0.0
  0
LINE
  5
206
100
AcDbEntity
  8
Layer_1
 62
7
100
AcDbLine
 10
116.541361
 20
170.683337
 30
0.0
 11
112.741360
 21
170.683337
 31
0.0
  0
LINE
  5
207
100
AcDbEntity
  8
Layer_1
 62
7
100
AcDbLine
 10
116.541361
 20
170.683337
 30
0.0
 11
116.541361
 21
174.933350
 31
0.0
  0
LINE
  5
208
100
AcDbEntity
  8
Layer_1
 62
7
100
AcDbLine
 10
116.541361
 20
174.933350
 30
0.0
 11
111.541360
 21
174.933350
 31
0.0
  0
LINE
  5
209
100
AcDbEntity
  8
Layer_1
 62
7
100
AcDbLine
 10
111.541360
 20
174.933350
 30
0.0
 11
111.541360
 21
179.433355
 31
0.0
  0
LINE
  5
20a
100
AcDbEntity
  8
Layer_1
 62
7
100
AcDbLine
 10
111.541360
 20
179.433355
 30
0.0
 11
101.541360
 21
179.433355
 31
0.0
  0
LINE
  5
20b
100
AcDbEntity
  8
Layer_1
 62
7
100
AcDbLine
 10
101.541360
 20
179.433355
 30
0.0
 11
101.541360
 21
174.933350
 31
0.0
  0
LINE
  5
20c
100
AcDbEntity
  8
Layer_1
 62
7
100
AcDbLine
 10
101.541360
 20
174.933350
 30
0.0
 11
101.141361
 21
174.933350
 31
0.0
  0
LINE
  5
20d
100
AcDbEntity
  8
Layer_1
 62
7
100
AcDbLine
 10
101.141361
 20
156.483354
 30
0.0
 11
101.141361
 21
174.933350
 31
0.0
  0
LINE
  5
20e
100
AcDbEntity
  8
Layer_1
 62
7
100
AcDbLine
 10
101.141361
 20
156.483354
 30
0.0
 11
103.141359
 21
154.983343
 31
0.0
  0
LINE
  5
20f
100
AcDbEntity
  8
Layer_1
 62
7
100
AcDbLine
 10
105.421359
 20
158.023356
 30
0.0
 11
103.141359
 21
154.983343
 31
0.0
  0
LINE
  5
210
100
AcDbEntity
  8
Layer_1
 62
7
100
AcDbLine
 10
104.621361
 20
158.623360
 30
0.0
 11
105.421359
 21
158.023356
 31
0.0
  0
SPLINE
  5
211
100
AcDbEntity
  8
Layer_1
 62
7
100
AcDbSpline
 70
8
 71
3
 72
8
 73
4
 74
0
 40
0
 40
0
 40
0
 40
0
 40
1
 40
1
 40
1
 40
1
 10
104.571360
 20
158.973344
 30
0.0
 10
104.488528
 20
158.862890
 30
0.0
 10
104.510914
 20
158.706202
 30
0.0
 10
104.621361
 20
158.623360
 30
0.0
  0
LINE
  5
212
100
AcDbEntity
  8
Layer_1
 62
7
100
AcDbLine
 10
106.791362
 20
161.933347
 30
0.0
 11
104.571360
 21
158.973344
 31
0.0
  0
SPLINE
  5
213
100
AcDbEntity
  8
Layer_1
 62
7
100
AcDbSpline
 70
8
 71
3
 72
8
 73
4
 74
0
 40
0
 40
0
 40
0
 40
0
 40
1
 40
1
 40
1
 40
1
 10
107.141360
 20
161.983357
 30
0.0
 10
107.030901
 20
162.066196
 30
0.0
 10
106.874202
 20
162.043806
 30
0.0
 10
106.791362
 20
161.933347
 30
0.0
  0
LINE
  5
214
100
AcDbEntity
  8
Layer_1
 62
7
100
AcDbLine
 10
107.941361
 20
161.383353
 30
0.0
 11
107.141360
 21
161.983357
 31
0.0
  0
LINE
  5
215
100
AcDbEntity
  8
Layer_1
 62
7
100
AcDbLine
 10
109.441361
 20
163.383349
 30
0.0
 11
107.941361
 21
161.383353
 31
0.0
  0
LINE
  5
216
100
AcDbEntity
  8
Layer_1
 62
7
100
AcDbLine
 10
112.241361
 20
161.283361
 30
0.0
 11
109.441361
 21
163.383349
 31
0.0
  0
LINE
  5
217
100
AcDbEntity
  8
Layer_1
 62
7
100
AcDbLine
 10
110.741361
 20
159.283337
 30
0.0
 11
112.241361
 21
161.283361
 31
0.0
  0
LINE
  5
218
100
AcDbEntity
  8
Layer_1
 62
7
100
AcDbLine
 10
111.541360
 20
158.683361
 30
0.0
 11
110.741361
 21
159.283337
 31
0.0
  0
SPLINE
  5
219
100
AcDbEntity
  8
Layer_1
 62
7
100
AcDbSpline
 70
8
 71
3
 72
8
 73
4
 74
0
 40
0
 40
0
 40
0
 40
0
 40
1
 40
1
 40
1
 40
1
 10
111.591361
 20
158.333349
 30
0.0
 10
111.631147
 20
158.386393
 30
0.0
 10
111.648231
 20
158.453070
 30
0.0
 10
111.638854
 20
158.518711
 30
0.0
  0
SPLINE
  5
21a
100
AcDbEntity
  8
Layer_1
 62
7
100
AcDbSpline
 70
8
 71
3
 72
8
 73
4
 74
0
 40
0
 40
0
 40
0
 40
0
 40
1
 40
1
 40
1
 40
1
 10
111.638854
 20
158.518711
 30
0.0
 10
111.629476
 20
158.584352
 30
0.0
 10
111.594407
 20
158.643578
 30
0.0
 10
111.541360
 20
158.683361
 30
0.0
  0
LINE
  5
21b
100
AcDbEntity
  8
Layer_1
 62
7
100
AcDbLine
 10
109.371361
 20
155.373346
 30
0.0
 11
111.591361
 21
158.333349
 31
0.0
  0
SPLINE
  5
21c
100
AcDbEntity
  8
Layer_1
 62
7
100
AcDbSpline
 70
8
 71
3
 72
8
 73
4
 74
0
 40
0
 40
0
 40
0
 40
0
 40
1
 40
1
 40
1
 40
1
 10
109.021361
 20
155.323336
 30
0.0
 10
109.074405
 20
155.283554
 30
0.0
 10
109.141081
 20
155.266474
 30
0.0
 10
109.206719
 20
155.275853
 30
0.0
  0
SPLINE
  5
21d
100
AcDbEntity
  8
Layer_1
 62
7
100
AcDbSpline
 70
8
 71
3
 72
8
 73
4
 74
0
 40
0
 40
0
 40
0
 40
0
 40
1
 40
1
 40
1
 40
1
 10
109.206719
 20
155.275853
 30
0.0
 10
109.272356
 20
155.285232
 30
0.0
 10
109.331580
 20
155.320301
 30
0.0
 10
109.371361
 20
155.373346
 30
0.0
  0
LINE
  5
21e
100
AcDbEntity
  8
Layer_1
 62
7
100
AcDbLine
 10
108.221359
 20
155.923340
 30
0.0
 11
109.021361
 21
155.323336
 31
0.0
  0
LINE
  5
21f
100
AcDbEntity
  8
Layer_1
 62
7
100
AcDbLine
 10
105.941360
 20
152.883356
 30
0.0
 11
108.221359
 21
155.923340
 31
0.0
  0
SPLINE
  5
220
100
AcDbEntity
  8
Layer_1
 62
7
100
AcDbSpline
 70
8
 71
3
 72
8
 73
4
 74
0
 40
0
 40
0
 40
0
 40
0
 40
1
 40
1
 40
1
 40
1
 10
163.820543
 20
158.258642
 30
0.0
 10
163.266558
 20
158.258976
 30
0.0
 10
162.754513
 20
157.963621
 30
0.0
 10
162.477424
 20
157.483912
 30
0.0
  0
SPLINE
  5
221
100
AcDbEntity
  8
Layer_1
 62
7
100
AcDbSpline
 70
8
 71
3
 72
8
 73
4
 74
0
 40
0
 40
0
 40
0
 40
0
 40
1
 40
1
 40
1
 40
1
 10
162.477424
 20
157.483912
 30
0.0
 10
162.200335
 20
157.004203
 30
0.0
 10
162.200335
 20
156.413081
 30
0.0
 10
162.477424
 20
155.933372
 30
0.0
  0
SPLINE
  5
222
100
AcDbEntity
  8
Layer_1
 62
7
100
AcDbSpline
 70
8
 71
3
 72
8
 73
4
 74
0
 40
0
 40
0
 40
0
 40
0
 40
1
 40
1
 40
1
 40
1
 10
162.477424
 20
155.933372
 30
0.0
 10
162.754513
 20
155.453663
 30
0.0
 10
163.266558
 20
155.158308
 30
0.0
 10
163.820543
 20
155.158642
 30
0.0
  0
SPLINE
  5
223
100
AcDbEntity
  8
Layer_1
 62
7
100
AcDbSpline
 70
8
 71
3
 72
8
 73
4
 74
0
 40
0
 40
0
 40
0
 40
0
 40
1
 40
1
 40
1
 40
1
 10
163.820543
 20
155.158642
 30
0.0
 10
164.374527
 20
155.158308
 30
0.0
 10
164.886573
 20
155.453663
 30
0.0
 10
165.163662
 20
155.933372
 30
0.0
  0
SPLINE
  5
224
100
AcDbEntity
  8
Layer_1
 62
7
100
AcDbSpline
 70
8
 71
3
 72
8
 73
4
 74
0
 40
0
 40
0
 40
0
 40
0
 40
1
 40
1
 40
1
 40
1
 10
165.163662
 20
155.933372
 30
0.0
 10
165.440750
 20
156.413081
 30
0.0
 10
165.440750
 20
157.004203
 30
0.0
 10
165.163662
 20
157.483912
 30
0.0
  0
SPLINE
  5
225
100
AcDbEntity
  8
Layer_1
 62
7
100
AcDbSpline
 70
8
 71
3
 72
8
 73
4
 74
0
 40
0
 40
0
 40
0
 40
0
 40
1
 40
1
 40
1
 40
1
 10
165.163662
 20
157.483912
 30
0.0
 10
164.886573
 20
157.963621
 30
0.0
 10
164.374527
 20
158.258976
 30
0.0
 10
163.820543
 20
158.258642
 30
0.0
  0
LINE
  5
226
100
AcDbEntity
  8
Layer_1
 62
7
100
AcDbLine
 10
163.820543
 20
158.258642
 30
0.0
 11
163.820543
 21
158.258642
 31
0.0
  0
SPLINE
  5
227
100
AcDbEntity
  8
Layer_1
 62
7
100
AcDbSpline
 70
8
 71
3
 72
8
 73
4
 74
0
 40
0
 40
0
 40
0
 40
0
 40
1
 40
1
 40
1
 40
1
 10
175.820547
 20
158.258642
 30
0.0
 10
175.266563
 20
158.258976
 30
0.0
 10
174.754517
 20
157.963621
 30
0.0
 10
174.477428
 20
157.483912
 30
0.0
  0
SPLINE
  5
228
100
AcDbEntity
  8
Layer_1
 62
7
100
AcDbSpline
 70
8
 71
3
 72
8
 73
4
 74
0
 40
0
 40
0
 40
0
 40
0
 40
1
 40
1
 40
1
 40
1
 10
174.477428
 20
157.483912
 30
0.0
 10
174.200339
 20
157.004203
 30
0.0
 10
174.200339
 20
156.413081
 30
0.0
 10
174.477428
 20
155.933372
 30
0.0
  0
SPLINE
  5
229
100
AcDbEntity
  8
Layer_1
 62
7
100
AcDbSpline
 70
8
 71
3
 72
8
 73
4
 74
0
 40
0
 40
0
 40
0
 40
0
 40
1
 40
1
 40
1
 40
1
 10
174.477428
 20
155.933372
 30
0.0
 10
174.754517
 20
155.453663
 30
0.0
 10
175.266563
 20
155.158308
 30
0.0
 10
175.820547
 20
155.158642
 30
0.0
  0
SPLINE
  5
22a
100
AcDbEntity
  8
Layer_1
 62
7
100
AcDbSpline
 70
8
 71
3
 72
8
 73
4
 74
0
 40
0
 40
0
 40
0
 40
0
 40
1
 40
1
 40
1
 40
1
 10
175.820547
 20
155.158642
 30
0.0
 10
176.374531
 20
155.158308
 30
0.0
 10
176.886577
 20
155.453663
 30
0.0
 10
177.163666
 20
155.933372
 30
0.0
  0
SPLINE
  5
22b
100
AcDbEntity
  8
Layer_1
 62
7
100
AcDbSpline
 70
8
 71
3
 72
8
 73
4
 74
0
 40
0
 40
0
 40
0
 40
0
 40
1
 40
1
 40
1
 40
1
 10
177.163666
 20
155.933372
 30
0.0
 10
177.440754
 20
156.413081
 30
0.0
 10
177.440754
 20
157.004203
 30
0.0
 10
177.163666
 20
157.483912
 30
0.0
  0
SPLINE
  5
22c
100
AcDbEntity
  8
Layer_1
 62
7
100
AcDbSpline
 70
8
 71
3
 72
8
 73
4
 74
0
 40
0
 40
0
 40
0
 40
0
 40
1
 40
1
 40
1
 40
1
 10
177.163666
 20
157.483912
 30
0.0
 10
176.886577
 20
157.963621
 30
0.0
 10
176.374531
 20
158.258976
 30
0.0
 10
175.820547
 20
158.258642
 30
0.0
  0
LINE
  5
22d
100
AcDbEntity
  8
Layer_1
 62
7
100
AcDbLine
 10
175.820547
 20
158.258642
 30
0.0
 11
175.820547
 21
158.258642
 31
0.0
  0
SPLINE
  5
22e
100
AcDbEntity
  8
Layer_1
 62
7
100
AcDbSpline
 70
8
 71
3
 72
8
 73
4
 74
0
 40
0
 40
0
 40
0
 40
0
 40
1
 40
1
 40
1
 40
1
 10
175.820547
 20
108.258643
 30
0.0
 10
175.266563
 20
108.258977
 30
0.0
 10
174.754517
 20
107.963622
 30
0.0
 10
174.477428
 20
107.483913
 30
0.0
  0
SPLINE
  5
22f
100
AcDbEntity
  8
Layer_1
 62
7
100
AcDbSpline
 70
8
 71
3
 72
8
 73
4
 74
0
 40
0
 40
0
 40
0
 40
0
 40
1
 40
1
 40
1
 40
1
 10
174.477428
 20
107.483913
 30
0.0
 10
174.200339
 20
107.004205
 30
0.0
 10
174.200339
 20
106.413082
 30
0.0
 10
174.477428
 20
105.933373
 30
0.0
  0
SPLINE
  5
230
100
AcDbEntity
  8
Layer_1
 62
7
100
AcDbSpline
 70
8
 71
3
 72
8
 73
4
 74
0
 40
0
 40
0
 40
0
 40
0
 40
1
 40
1
 40
1
 40
1
 10
174.477428
 20
105.933373
 30
0.0
 10
174.754517
 20
105.453665
 30
0.0
 10
175.266563
 20
105.158309
 30
0.0
 10
175.820547
 20
105.158644
 30
0.0
  0
SPLINE
  5
231
100
AcDbEntity
  8
Layer_1
 62
7
100
AcDbSpline
 70
8
 71
3
 72
8
 73
4
 74
0
 40
0
 40
0
 40
0
 40
0
 40
1
 40
1
 40
1
 40
1
 10
175.820547
 20
105.158644
 30
0.0
 10
176.374531
 20
105.158309
 30
0.0
 10
176.886577
 20
105.453665
 30
0.0
 10
177.163666
 20
105.933373
 30
0.0
  0
SPLINE
  5
232
100
AcDbEntity
  8
Layer_1
 62
7
100
AcDbSpline
 70
8
 71
3
 72
8
 73
4
 74
0
 40
0
 40
0
 40
0
 40
0
 40
1
 40
1
 40
1
 40
1
 10
177.163666
 20
105.933373
 30
0.0
 10
177.440754
 20
106.413082
 30
0.0
 10
177.440754
 20
107.004205
 30
0.0
 10
177.163666
 20
107.483913
 30
0.0
  0
SPLINE
  5
233
100
AcDbEntity
  8
Layer_1
 62
7
100
AcDbSpline
 70
8
 71
3
 72
8
 73
4
 74
0
 40
0
 40
0
 40
0
 40
0
 40
1
 40
1
 40
1
 40
1
 10
177.163666
 20
107.483913
 30
0.0
 10
176.886577
 20
107.963622
 30
0.0
 10
176.374531
 20
108.258977
 30
0.0
 10
175.820547
 20
108.258643
 30
0.0
  0
LINE
  5
234
100
AcDbEntity
  8
Layer_1
 62
7
100
AcDbLine
 10
175.820547
 20
108.258643
 30
0.0
 11
175.820547
 21
108.258643
 31
0.0
  0
SPLINE
  5
235
100
AcDbEntity
  8
Layer_1
 62
7
100
AcDbSpline
 70
8
 71
3
 72
8
 73
4
 74
0
 40
0
 40
0
 40
0
 40
0
 40
1
 40
1
 40
1
 40
1
 10
163.820543
 20
108.258643
 30
0.0
 10
163.266558
 20
108.258977
 30
0.0
 10
162.754513
 20
107.963622
 30
0.0
 10
162.477424
 20
107.483913
 30
0.0
  0
SPLINE
  5
236
100
AcDbEntity
  8
Layer_1
 62
7
100
AcDbSpline
 70
8
 71
3
 72
8
 73
4
 74
0
 40
0
 40
0
 40
0
 40
0
 40
1
 40
1
 40
1
 40
1
 10
162.477424
 20
107.483913
 30
0.0
 10
162.200335
 20
107.004205
 30
0.0
 10
162.200335
 20
106.413082
 30
0.0
 10
162.477424
 20
105.933373
 30
0.0
  0
SPLINE
  5
237
100
AcDbEntity
  8
Layer_1
 62
7
100
AcDbSpline
 70
8
 71
3
 72
8
 73
4
 74
0
 40
0
 40
0
 40
0
 40
0
 40
1
 40
1
 40
1
 40
1
 10
162.477424
 20
105.933373
 30
0.0
 10
162.754513
 20
105.453665
 30
0.0
 10
163.266558
 20
105.158309
 30
0.0
 10
163.820543
 20
105.158644
 30
0.0
  0
SPLINE
  5
238
100
AcDbEntity
  8
Layer_1
 62
7
100
AcDbSpline
 70
8
 71
3
 72
8
 73
4
 74
0
 40
0
 40
0
 40
0
 40
0
 40
1
 40
1
 40
1
 40
1
 10
163.820543
 20
105.158644
 30
0.0
 10
164.374527
 20
105.158309
 30
0.0
 10
164.886573
 20
105.453665
 30
0.0
 10
165.163662
 20
105.933373
 30
0.0
  0
SPLINE
  5
239
100
AcDbEntity
  8
Layer_1
 62
7
100
AcDbSpline
 70
8
 71
3
 72
8
 73
4
 74
0
 40
0
 40
0
 40
0
 40
0
 40
1
 40
1
 40
1
 40
1
 10
165.163662
 20
105.933373
 30
0.0
 10
165.440750
 20
106.413082
 30
0.0
 10
165.440750
 20
107.004205
 30
0.0
 10
165.163662
 20
107.483913
 30
0.0
  0
SPLINE
  5
23a
100
AcDbEntity
  8
Layer_1
 62
7
100
AcDbSpline
 70
8
 71
3
 72
8
 73
4
 74
0
 40
0
 40
0
 40
0
 40
0
 40
1
 40
1
 40
1
 40
1
 10
165.163662
 20
107.483913
 30
0.0
 10
164.886573
 20
107.963622
 30
0.0
 10
164.374527
 20
108.258977
 30
0.0
 10
163.820543
 20
108.258643
 30
0.0
  0
LINE
  5
23b
100
AcDbEntity
  8
Layer_1
 62
7
100
AcDbLine
 10
163.820543
 20
108.258643
 30
0.0
 11
163.820543
 21
108.258643
 31
0.0
  0
SPLINE
  5
23c
100
AcDbEntity
  8
Layer_1
 62
7
100
AcDbSpline
 70
8
 71
3
 72
8
 73
4
 74
0
 40
0
 40
0
 40
0
 40
0
 40
1
 40
1
 40
1
 40
1
 10
177.320558
 20
149.258643
 30
0.0
 10
176.766574
 20
149.258977
 30
0.0
 10
176.254528
 20
148.963622
 30
0.0
 10
175.977439
 20
148.483913
 30
0.0
  0
SPLINE
  5
23d
100
AcDbEntity
  8
Layer_1
 62
7
100
AcDbSpline
 70
8
 71
3
 72
8
 73
4
 74
0
 40
0
 40
0
 40
0
 40
0
 40
1
 40
1
 40
1
 40
1
 10
175.977439
 20
148.483913
 30
0.0
 10
175.700351
 20
148.004204
 30
0.0
 10
175.700351
 20
147.413082
 30
0.0
 10
175.977439
 20
146.933373
 30
0.0
  0
SPLINE
  5
23e
100
AcDbEntity
  8
Layer_1
 62
7
100
AcDbSpline
 70
8
 71
3
 72
8
 73
4
 74
0
 40
0
 40
0
 40
0
 40
0
 40
1
 40
1
 40
1
 40
1
 10
175.977439
 20
146.933373
 30
0.0
 10
176.254528
 20
146.453664
 30
0.0
 10
176.766574
 20
146.158309
 30
0.0
 10
177.320558
 20
146.158644
 30
0.0
  0
SPLINE
  5
23f
100
AcDbEntity
  8
Layer_1
 62
7
100
AcDbSpline
 70
8
 71
3
 72
8
 73
4
 74
0
 40
0
 40
0
 40
0
 40
0
 40
1
 40
1
 40
1
 40
1
 10
177.320558
 20
146.158644
 30
0.0
 10
177.874542
 20
146.158309
 30
0.0
 10
178.386588
 20
146.453664
 30
0.0
 10
178.663677
 20
146.933373
 30
0.0
  0
SPLINE
  5
240
100
AcDbEntity
  8
Layer_1
 62
7
100
AcDbSpline
 70
8
 71
3
 72
8
 73
4
 74
0
 40
0
 40
0
 40
0
 40
0
 40
1
 40
1
 40
1
 40
1
 10
178.663677
 20
146.933373
 30
0.0
 10
178.940766
 20
147.413082
 30
0.0
 10
178.940766
 20
148.004204
 30
0.0
 10
178.663677
 20
148.483913
 30
0.0
  0
SPLINE
  5
241
100
AcDbEntity
  8
Layer_1
 62
7
100
AcDbSpline
 70
8
 71
3
 72
8
 73
4
 74
0
 40
0
 40
0
 40
0
 40
0
 40
1
 40
1
 40
1
 40
1
 10
178.663677
 20
148.483913
 30
0.0
 10
178.386588
 20
148.963622
 30
0.0
 10
177.874542
 20
149.258977
 30
0.0
 10
177.320558
 20
149.258643
 30
0.0
  0
LINE
  5
242
100
AcDbEntity
  8
Layer_1
 62
7
100
AcDbLine
 10
177.320558
 20
149.258643
 30
0.0
 11
177.320558
 21
149.258643
 31
0.0
  0
SPLINE
  5
243
100
AcDbEntity
  8
Layer_1
 62
7
100
AcDbSpline
 70
8
 71
3
 72
8
 73
4
 74
0
 40
0
 40
0
 40
0
 40
0
 40
1
 40
1
 40
1
 40
1
 10
177.320558
 20
117.258642
 30
0.0
 10
176.766574
 20
117.258976
 30
0.0
 10
176.254528
 20
116.963621
 30
0.0
 10
175.977439
 20
116.483912
 30
0.0
  0
SPLINE
  5
244
100
AcDbEntity
  8
Layer_1
 62
7
100
AcDbSpline
 70
8
 71
3
 72
8
 73
4
 74
0
 40
0
 40
0
 40
0
 40
0
 40
1
 40
1
 40
1
 40
1
 10
175.977439
 20
116.483912
 30
0.0
 10
175.700351
 20
116.004203
 30
0.0
 10
175.700351
 20
115.413081
 30
0.0
 10
175.977439
 20
114.933372
 30
0.0
  0
SPLINE
  5
245
100
AcDbEntity
  8
Layer_1
 62
7
100
AcDbSpline
 70
8
 71
3
 72
8
 73
4
 74
0
 40
0
 40
0
 40
0
 40
0
 40
1
 40
1
 40
1
 40
1
 10
175.977439
 20
114.933372
 30
0.0
 10
176.254528
 20
114.453663
 30
0.0
 10
176.766574
 20
114.158308
 30
0.0
 10
177.320558
 20
114.158643
 30
0.0
  0
SPLINE
  5
246
100
AcDbEntity
  8
Layer_1
 62
7
100
AcDbSpline
 70
8
 71
3
 72
8
 73
4
 74
0
 40
0
 40
0
 40
0
 40
0
 40
1
 40
1
 40
1
 40
1
 10
177.320558
 20
114.158643
 30
0.0
 10
177.874542
 20
114.158308
 30
0.0
 10
178.386588
 20
114.453663
 30
0.0
 10
178.663677
 20
114.933372
 30
0.0
  0
SPLINE
  5
247
100
AcDbEntity
  8
Layer_1
 62
7
100
AcDbSpline
 70
8
 71
3
 72
8
 73
4
 74
0
 40
0
 40
0
 40
0
 40
0
 40
1
 40
1
 40
1
 40
1
 10
178.663677
 20
114.933372
 30
0.0
 10
178.940766
 20
115.413081
 30
0.0
 10
178.940766
 20
116.004203
 30
0.0
 10
178.663677
 20
116.483912
 30
0.0
  0
SPLINE
  5
248
100
AcDbEntity
  8
Layer_1
 62
7
100
AcDbSpline
 70
8
 71
3
 72
8
 73
4
 74
0
 40
0
 40
0
 40
0
 40
0
 40
1
 40
1
 40
1
 40
1
 10
178.663677
 20
116.483912
 30
0.0
 10
178.386588
 20
116.963621
 30
0.0
 10
177.874542
 20
117.258976
 30
0.0
 10
177.320558
 20
117.258642
 30
0.0
  0
LINE
  5
249
100
AcDbEntity
  8
Layer_1
 62
7
100
AcDbLine
 10
177.320558
 20
117.258642
 30
0.0
 11
177.320558
 21
117.258642
 31
0.0
  0
LINE
  5
24a
100
AcDbEntity
  8
Layer_1
 62
7
100
AcDbLine
 10
199.570563
 20
152.708643
 30
0.0
 11
199.570563
 21
110.708642
 31
0.0
  0
LINE
  5
24b
100
AcDbEntity
  8
Layer_1
 62
7
100
AcDbLine
 10
206.570549
 20
152.708643
 30
0.0
 11
199.570563
 21
152.708643
 31
0.0
  0
LINE
  5
24c
100
AcDbEntity
  8
Layer_1
 62
7
100
AcDbLine
 10
206.570549
 20
152.708643
 30
0.0
 11
206.570549
 21
169.208644
 31
0.0
  0
LINE
  5
24d
100
AcDbEntity
  8
Layer_1
 62
7
100
AcDbLine
 10
131.570555
 20
169.208644
 30
0.0
 11
206.570549
 21
169.208644
 31
0.0
  0
LINE
  5
24e
100
AcDbEntity
  8
Layer_1
 62
7
100
AcDbLine
 10
131.570555
 20
169.208644
 30
0.0
 11
131.570555
 21
164.831143
 31
0.0
  0
SPLINE
  5
24f
100
AcDbEntity
  8
Layer_1
 62
7
100
AcDbSpline
 70
8
 71
3
 72
8
 73
4
 74
0
 40
0
 40
0
 40
0
 40
0
 40
1
 40
1
 40
1
 40
1
 10
131.570555
 20
164.831143
 30
0.0
 10
130.622418
 20
164.072026
 30
0.0
 10
130.070555
 20
162.923230
 30
0.0
 10
130.070555
 20
161.708642
 30
0.0
  0
LINE
  5
250
100
AcDbEntity
  8
Layer_1
 62
7
100
AcDbLine
 10
130.070555
 20
161.708642
 30
0.0
 11
130.070555
 21
101.708644
 31
0.0
  0
SPLINE
  5
251
100
AcDbEntity
  8
Layer_1
 62
7
100
AcDbSpline
 70
8
 71
3
 72
8
 73
4
 74
0
 40
0
 40
0
 40
0
 40
0
 40
1
 40
1
 40
1
 40
1
 10
130.070555
 20
101.708644
 30
0.0
 10
130.070555
 20
100.494056
 30
0.0
 10
130.622418
 20
99.345260
 30
0.0
 10
131.570555
 20
98.586142
 30
0.0
  0
LINE
  5
252
100
AcDbEntity
  8
Layer_1
 62
7
100
AcDbLine
 10
131.570555
 20
98.586142
 30
0.0
 11
131.570555
 21
94.208642
 31
0.0
  0
LINE
  5
253
100
AcDbEntity
  8
Layer_1
 62
7
100
AcDbLine
 10
131.570555
 20
94.208642
 30
0.0
 11
206.570549
 21
94.208642
 31
0.0
  0
LINE
  5
254
100
AcDbEntity
  8
Layer_1
 62
7
100
AcDbLine
 10
206.570549
 20
94.208642
 30
0.0
 11
206.570549
 21
110.708642
 31
0.0
  0
LINE
  5
255
100
AcDbEntity
  8
Layer_1
 62
7
100
AcDbLine
 10
199.570563
 20
110.708642
 30
0.0
 11
206.570549
 21
110.708642
 31
0.0
  0
SPLINE
  5
256
100
AcDbEntity
  8
Layer_1
 62
7
100
AcDbSpline
 70
8
 71
3
 72
8
 73
4
 74
0
 40
0
 40
0
 40
0
 40
0
 40
1
 40
1
 40
1
 40
1
 10
134.070556
 20
163.258643
 30
0.0
 10
133.516571
 20
163.258977
 30
0.0
 10
133.004526
 20
162.963622
 30
0.0
 10
132.727437
 20
162.483913
 30
0.0
  0
SPLINE
  5
257
100
AcDbEntity
  8
Layer_1
 62
7
100
AcDbSpline
 70
8
 71
3
 72
8
 73
4
 74
0
 40
0
 40
0
 40
0
 40
0
 40
1
 40
1
 40
1
 40
1
 10
132.727437
 20
162.483913
 30
0.0
 10
132.450348
 20
162.004205
 30
0.0
 10
132.450348
 20
161.413082
 30
0.0
 10
132.727437
 20
160.933373
 30
0.0
  0
SPLINE
  5
258
100
AcDbEntity
  8
Layer_1
 62
7
100
AcDbSpline
 70
8
 71
3
 72
8
 73
4
 74
0
 40
0
 40
0
 40
0
 40
0
 40
1
 40
1
 40
1
 40
1
 10
132.727437
 20
160.933373
 30
0.0
 10
133.004526
 20
160.453665
 30
0.0
 10
133.516571
 20
160.158309
 30
0.0
 10
134.070556
 20
160.158644
 30
0.0
  0
SPLINE
  5
259
100
AcDbEntity
  8
Layer_1
 62
7
100
AcDbSpline
 70
8
 71
3
 72
8
 73
4
 74
0
 40
0
 40
0
 40
0
 40
0
 40
1
 40
1
 40
1
 40
1
 10
134.070556
 20
160.158644
 30
0.0
 10
134.624540
 20
160.158309
 30
0.0
 10
135.136586
 20
160.453665
 30
0.0
 10
135.413674
 20
160.933373
 30
0.0
  0
SPLINE
  5
25a
100
AcDbEntity
  8
Layer_1
 62
7
100
AcDbSpline
 70
8
 71
3
 72
8
 73
4
 74
0
 40
0
 40
0
 40
0
 40
0
 40
1
 40
1
 40
1
 40
1
 10
135.413674
 20
160.933373
 30
0.0
 10
135.690763
 20
161.413082
 30
0.0
 10
135.690763
 20
162.004205
 30
0.0
 10
135.413674
 20
162.483913
 30
0.0
  0
SPLINE
  5
25b
100
AcDbEntity
  8
Layer_1
 62
7
100
AcDbSpline
 70
8
 71
3
 72
8
 73
4
 74
0
 40
0
 40
0
 40
0
 40
0
 40
1
 40
1
 40
1
 40
1
 10
135.413674
 20
162.483913
 30
0.0
 10
135.136586
 20
162.963622
 30
0.0
 10
134.624540
 20
163.258977
 30
0.0
 10
134.070556
 20
163.258643
 30
0.0
  0
LINE
  5
25c
100
AcDbEntity
  8
Layer_1
 62
7
100
AcDbLine
 10
134.070556
 20
163.258643
 30
0.0
 11
134.070556
 21
163.258643
 31
0.0
  0
SPLINE
  5
25d
100
AcDbEntity
  8
Layer_1
 62
7
100
AcDbSpline
 70
8
 71
3
 72
8
 73
4
 74
0
 40
0
 40
0
 40
0
 40
0
 40
1
 40
1
 40
1
 40
1
 10
134.070556
 20
103.258642
 30
0.0
 10
133.516571
 20
103.258976
 30
0.0
 10
133.004526
 20
102.963621
 30
0.0
 10
132.727437
 20
102.483912
 30
0.0
  0
SPLINE
  5
25e
100
AcDbEntity
  8
Layer_1
 62
7
100
AcDbSpline
 70
8
 71
3
 72
8
 73
4
 74
0
 40
0
 40
0
 40
0
 40
0
 40
1
 40
1
 40
1
 40
1
 10
132.727437
 20
102.483912
 30
0.0
 10
132.450348
 20
102.004203
 30
0.0
 10
132.450348
 20
101.413081
 30
0.0
 10
132.727437
 20
100.933372
 30
0.0
  0
SPLINE
  5
25f
100
AcDbEntity
  8
Layer_1
 62
7
100
AcDbSpline
 70
8
 71
3
 72
8
 73
4
 74
0
 40
0
 40
0
 40
0
 40
0
 40
1
 40
1
 40
1
 40
1
 10
132.727437
 20
100.933372
 30
0.0
 10
133.004526
 20
100.453663
 30
0.0
 10
133.516571
 20
100.158308
 30
0.0
 10
134.070556
 20
100.158642
 30
0.0
  0
SPLINE
  5
260
100
AcDbEntity
  8
Layer_1
 62
7
100
AcDbSpline
 70
8
 71
3
 72
8
 73
4
 74
0
 40
0
 40
0
 40
0
 40
0
 40
1
 40
1
 40
1
 40
1
 10
134.070556
 20
100.158642
 30
0.0
 10
134.624540
 20
100.158308
 30
0.0
 10
135.136586
 20
100.453663
 30
0.0
 10
135.413674
 20
100.933372
 30
0.0
  0
SPLINE
  5
261
100
AcDbEntity
  8
Layer_1
 62
7
100
AcDbSpline
 70
8
 71
3
 72
8
 73
4
 74
0
 40
0
 40
0
 40
0
 40
0
 40
1
 40
1
 40
1
 40
1
 10
135.413674
 20
100.933372
 30
0.0
 10
135.690763
 20
101.413081
 30
0.0
 10
135.690763
 20
102.004203
 30
0.0
 10
135.413674
 20
102.483912
 30
0.0
  0
SPLINE
  5
262
100
AcDbEntity
  8
Layer_1
 62
7
100
AcDbSpline
 70
8
 71
3
 72
8
 73
4
 74
0
 40
0
 40
0
 40
0
 40
0
 40
1
 40
1
 40
1
 40
1
 10
135.413674
 20
102.483912
 30
0.0
 10
135.136586
 20
102.963621
 30
0.0
 10
134.624540
 20
103.258976
 30
0.0
 10
134.070556
 20
103.258642
 30
0.0
  0
LINE
  5
263
100
AcDbEntity
  8
Layer_1
 62
7
100
AcDbLine
 10
134.070556
 20
103.258642
 30
0.0
 11
134.070556
 21
103.258642
 31
0.0
  0
LINE
  5
264
100
AcDbEntity
  8
Layer_1
 62
7
100
AcDbLine
 10
185.820555
 20
97.458642
 30
0.0
 11
197.320546
 21
97.458642
 31
0.0
  0
LINE
  5
265
100
AcDbEntity
  8
Layer_1
 62
7
100
AcDbLine
 10
185.820555
 20
121.708643
 30
0.0
 11
185.820555
 21
97.458642
 31
0.0
  0
LINE
  5
266
100
AcDbEntity
  8
Layer_1
 62
7
100
AcDbLine
 10
197.320546
 20
121.708643
 30
0.0
 11
185.820555
 21
121.708643
 31
0.0
  0
LINE
  5
267
100
AcDbEntity
  8
Layer_1
 62
7
100
AcDbLine
 10
197.320546
 20
97.458642
 30
0.0
 11
197.320546
 21
121.708643
 31
0.0
  0
LINE
  5
268
100
AcDbEntity
  8
Layer_1
 62
7
100
AcDbLine
 10
152.320554
 20
165.958643
 30
0.0
 11
140.820555
 21
165.958643
 31
0.0
  0
LINE
  5
269
100
AcDbEntity
  8
Layer_1
 62
7
100
AcDbLine
 10
152.320554
 20
141.708643
 30
0.0
 11
152.320554
 21
165.958643
 31
0.0
  0
LINE
  5
26a
100
AcDbEntity
  8
Layer_1
 62
7
100
AcDbLine
 10
140.820555
 20
141.708643
 30
0.0
 11
152.320554
 21
141.708643
 31
0.0
  0
LINE
  5
26b
100
AcDbEntity
  8
Layer_1
 62
7
100
AcDbLine
 10
140.820555
 20
165.958643
 30
0.0
 11
140.820555
 21
141.708643
 31
0.0
  0
LINE
  5
26c
100
AcDbEntity
  8
Layer_1
 62
7
100
AcDbLine
 10
152.320554
 20
121.708643
 30
0.0
 11
140.820555
 21
121.708643
 31
0.0
  0
LINE
  5
26d
100
AcDbEntity
  8
Layer_1
 62
7
100
AcDbLine
 10
152.320554
 20
97.458642
 30
0.0
 11
152.320554
 21
121.708643
 31
0.0
  0
LINE
  5
26e
100
AcDbEntity
  8
Layer_1
 62
7
100
AcDbLine
 10
140.820555
 20
97.458642
 30
0.0
 11
152.320554
 21
97.458642
 31
0.0
  0
LINE
  5
26f
100
AcDbEntity
  8
Layer_1
 62
7
100
AcDbLine
 10
140.820555
 20
121.708643
 30
0.0
 11
140.820555
 21
97.458642
 31
0.0
  0
LINE
  5
270
100
AcDbEntity
  8
Layer_1
 62
7
100
AcDbLine
 10
197.320546
 20
165.958643
 30
0.0
 11
185.820555
 21
165.958643
 31
0.0
  0
LINE
  5
271
100
AcDbEntity
  8
Layer_1
 62
7
100
AcDbLine
 10
197.320546
 20
141.708643
 30
0.0
 11
197.320546
 21
165.958643
 31
0.0
  0
LINE
  5
272
100
AcDbEntity
  8
Layer_1
 62
7
100
AcDbLine
 10
185.820555
 20
141.708643
 30
0.0
 11
197.320546
 21
141.708643
 31
0.0
  0
LINE
  5
273
100
AcDbEntity
  8
Layer_1
 62
7
100
AcDbLine
 10
185.820555
 20
165.958643
 30
0.0
 11
185.820555
 21
141.708643
 31
0.0
  0
SPLINE
  5
274
100
AcDbEntity
  8
Layer_1
 62
7
100
AcDbSpline
 70
8
 71
3
 72
8
 73
4
 74
0
 40
0
 40
0
 40
0
 40
0
 40
1
 40
1
 40
1
 40
1
 10
134.070556
 20
133.258643
 30
0.0
 10
133.516794
 20
133.258643
 30
0.0
 10
133.005097
 20
132.963214
 30
0.0
 10
132.728216
 20
132.483643
 30
0.0
  0
SPLINE
  5
275
100
AcDbEntity
  8
Layer_1
 62
7
100
AcDbSpline
 70
8
 71
3
 72
8
 73
4
 74
0
 40
0
 40
0
 40
0
 40
0
 40
1
 40
1
 40
1
 40
1
 10
132.728216
 20
132.483643
 30
0.0
 10
132.451335
 20
132.004071
 30
0.0
 10
132.451335
 20
131.413214
 30
0.0
 10
132.728216
 20
130.933643
 30
0.0
  0
SPLINE
  5
276
100
AcDbEntity
  8
Layer_1
 62
7
100
AcDbSpline
 70
8
 71
3
 72
8
 73
4
 74
0
 40
0
 40
0
 40
0
 40
0
 40
1
 40
1
 40
1
 40
1
 10
132.728216
 20
130.933643
 30
0.0
 10
133.005097
 20
130.454071
 30
0.0
 10
133.516794
 20
130.158643
 30
0.0
 10
134.070556
 20
130.158643
 30
0.0
  0
SPLINE
  5
277
100
AcDbEntity
  8
Layer_1
 62
7
100
AcDbSpline
 70
8
 71
3
 72
8
 73
4
 74
0
 40
0
 40
0
 40
0
 40
0
 40
1
 40
1
 40
1
 40
1
 10
134.070556
 20
130.158643
 30
0.0
 10
134.624317
 20
130.158643
 30
0.0
 10
135.136014
 20
130.454072
 30
0.0
 10
135.412895
 20
130.933643
 30
0.0
  0
SPLINE
  5
278
100
AcDbEntity
  8
Layer_1
 62
7
100
AcDbSpline
 70
8
 71
3
 72
8
 73
4
 74
0
 40
0
 40
0
 40
0
 40
0
 40
1
 40
1
 40
1
 40
1
 10
135.412895
 20
130.933643
 30
0.0
 10
135.689776
 20
131.413215
 30
0.0
 10
135.689776
 20
132.004072
 30
0.0
 10
135.412895
 20
132.483643
 30
0.0
  0
SPLINE
  5
279
100
AcDbEntity
  8
Layer_1
 62
7
100
AcDbSpline
 70
8
 71
3
 72
8
 73
4
 74
0
 40
0
 40
0
 40
0
 40
0
 40
1
 40
1
 40
1
 40
1
 10
135.412895
 20
132.483643
 30
0.0
 10
135.136014
 20
132.963215
 30
0.0
 10
134.624317
 20
133.258643
 30
0.0
 10
134.070556
 20
133.258643
 30
0.0
  0
LINE
  5
27a
100
AcDbEntity
  8
Layer_1
 62
7
100
AcDbLine
 10
134.070556
 20
133.258643
 30
0.0
 11
134.070556
 21
133.258644
 31
0.0
  0
LINE
  5
27b
100
AcDbEntity
  8
Layer_1
 62
7
100
AcDbLine
 10
166.720545
 20
111.808643
 30
0.0
 11
166.720545
 21
101.608644
 31
0.0
  0
LINE
  5
27c
100
AcDbEntity
  8
Layer_1
 62
7
100
AcDbLine
 10
171.420561
 20
111.808643
 30
0.0
 11
166.720545
 21
111.808643
 31
0.0
  0
LINE
  5
27d
100
AcDbEntity
  8
Layer_1
 62
7
100
AcDbLine
 10
171.420561
 20
101.608644
 30
0.0
 11
171.420561
 21
111.808643
 31
0.0
  0
LINE
  5
27e
100
AcDbEntity
  8
Layer_1
 62
7
100
AcDbLine
 10
166.720545
 20
101.608644
 30
0.0
 11
171.420561
 21
101.608644
 31
0.0
  0
LINE
  5
27f
100
AcDbEntity
  8
Layer_1
 62
7
100
AcDbLine
 10
166.720545
 20
161.808642
 30
0.0
 11
166.720545
 21
151.608642
 31
0.0
  0
LINE
  5
280
100
AcDbEntity
  8
Layer_1
 62
7
100
AcDbLine
 10
171.420561
 20
161.808642
 30
0.0
 11
166.720545
 21
161.808642
 31
0.0
  0
LINE
  5
281
100
AcDbEntity
  8
Layer_1
 62
7
100
AcDbLine
 10
171.420561
 20
151.608642
 30
0.0
 11
171.420561
 21
161.808642
 31
0.0
  0
LINE
  5
282
100
AcDbEntity
  8
Layer_1
 62
7
100
AcDbLine
 10
166.720545
 20
151.608642
 30
0.0
 11
171.420561
 21
151.608642
 31
0.0
  0
SPLINE
  5
283
100
AcDbEntity
  8
Layer_1
 62
7
100
AcDbSpline
 70
8
 71
3
 72
8
 73
4
 74
0
 40
0
 40
0
 40
0
 40
0
 40
1
 40
1
 40
1
 40
1
 10
169.070553
 20
133.258643
 30
0.0
 10
168.516792
 20
133.258643
 30
0.0
 10
168.005095
 20
132.963214
 30
0.0
 10
167.728214
 20
132.483643
 30
0.0
  0
SPLINE
  5
284
100
AcDbEntity
  8
Layer_1
 62
7
100
AcDbSpline
 70
8
 71
3
 72
8
 73
4
 74
0
 40
0
 40
0
 40
0
 40
0
 40
1
 40
1
 40
1
 40
1
 10
167.728214
 20
132.483643
 30
0.0
 10
167.451333
 20
132.004071
 30
0.0
 10
167.451333
 20
131.413214
 30
0.0
 10
167.728214
 20
130.933643
 30
0.0
  0
SPLINE
  5
285
100
AcDbEntity
  8
Layer_1
 62
7
100
AcDbSpline
 70
8
 71
3
 72
8
 73
4
 74
0
 40
0
 40
0
 40
0
 40
0
 40
1
 40
1
 40
1
 40
1
 10
167.728214
 20
130.933643
 30
0.0
 10
168.005095
 20
130.454071
 30
0.0
 10
168.516792
 20
130.158643
 30
0.0
 10
169.070553
 20
130.158643
 30
0.0
  0
SPLINE
  5
286
100
AcDbEntity
  8
Layer_1
 62
7
100
AcDbSpline
 70
8
 71
3
 72
8
 73
4
 74
0
 40
0
 40
0
 40
0
 40
0
 40
1
 40
1
 40
1
 40
1
 10
169.070553
 20
130.158643
 30
0.0
 10
169.624315
 20
130.158643
 30
0.0
 10
170.136012
 20
130.454072
 30
0.0
 10
170.412893
 20
130.933643
 30
0.0
  0
SPLINE
  5
287
100
AcDbEntity
  8
Layer_1
 62
7
100
AcDbSpline
 70
8
 71
3
 72
8
 73
4
 74
0
 40
0
 40
0
 40
0
 40
0
 40
1
 40
1
 40
1
 40
1
 10
170.412893
 20
130.933643
 30
0.0
 10
170.689774
 20
131.413215
 30
0.0
 10
170.689774
 20
132.004072
 30
0.0
 10
170.412893
 20
132.483643
 30
0.0
  0
SPLINE
  5
288
100
AcDbEntity
  8
Layer_1
 62
7
100
AcDbSpline
 70
8
 71
3
 72
8
 73
4
 74
0
 40
0
 40
0
 40
0
 40
0
 40
1
 40
1
 40
1
 40
1
 10
170.412893
 20
132.483643
 30
0.0
 10
170.136012
 20
132.963215
 30
0.0
 10
169.624315
 20
133.258643
 30
0.0
 10
169.070553
 20
133.258643
 30
0.0
  0
LINE
  5
289
100
AcDbEntity
  8
Layer_1
 62
7
100
AcDbLine
 10
169.070553
 20
133.258643
 30
0.0
 11
169.070553
 21
133.258644
 31
0.0
  0
LINE
  5
28a
100
AcDbEntity
  8
Layer_1
 62
7
100
AcDbLine
 10
173.720560
 20
167.058644
 30
0.0
 11
173.720560
 21
162.358642
 31
0.0
  0
LINE
  5
28b
100
AcDbEntity
  8
Layer_1
 62
7
100
AcDbLine
 10
183.920551
 20
167.058644
 30
0.0
 11
173.720560
 21
167.058644
 31
0.0
  0
LINE
  5
28c
100
AcDbEntity
  8
Layer_1
 62
7
100
AcDbLine
 10
183.920551
 20
162.358642
 30
0.0
 11
183.920551
 21
167.058644
 31
0.0
  0
LINE
  5
28d
100
AcDbEntity
  8
Layer_1
 62
7
100
AcDbLine
 10
173.720560
 20
162.358642
 30
0.0
 11
183.920551
 21
162.358642
 31
0.0
  0
LINE
  5
28e
100
AcDbEntity
  8
Layer_1
 62
7
100
AcDbLine
 10
173.720560
 20
101.058643
 30
0.0
 11
173.720560
 21
96.358642
 31
0.0
  0
LINE
  5
28f
100
AcDbEntity
  8
Layer_1
 62
7
100
AcDbLine
 10
183.920551
 20
101.058643
 30
0.0
 11
173.720560
 21
101.058643
 31
0.0
  0
LINE
  5
290
100
AcDbEntity
  8
Layer_1
 62
7
100
AcDbLine
 10
183.920551
 20
96.358642
 30
0.0
 11
183.920551
 21
101.058643
 31
0.0
  0
LINE
  5
291
100
AcDbEntity
  8
Layer_1
 62
7
100
AcDbLine
 10
173.720560
 20
96.358642
 30
0.0
 11
183.920551
 21
96.358642
 31
0.0
  0
SPLINE
  5
292
100
AcDbEntity
  8
Layer_1
 62
7
100
AcDbSpline
 70
8
 71
3
 72
8
 73
4
 74
0
 40
0
 40
0
 40
0
 40
0
 40
1
 40
1
 40
1
 40
1
 10
200.820553
 20
166.258643
 30
0.0
 10
200.266569
 20
166.258977
 30
0.0
 10
199.754523
 20
165.963622
 30
0.0
 10
199.477435
 20
165.483913
 30
0.0
  0
SPLINE
  5
293
100
AcDbEntity
  8
Layer_1
 62
7
100
AcDbSpline
 70
8
 71
3
 72
8
 73
4
 74
0
 40
0
 40
0
 40
0
 40
0
 40
1
 40
1
 40
1
 40
1
 10
199.477435
 20
165.483913
 30
0.0
 10
199.200346
 20
165.004204
 30
0.0
 10
199.200346
 20
164.413082
 30
0.0
 10
199.477435
 20
163.933373
 30
0.0
  0
SPLINE
  5
294
100
AcDbEntity
  8
Layer_1
 62
7
100
AcDbSpline
 70
8
 71
3
 72
8
 73
4
 74
0
 40
0
 40
0
 40
0
 40
0
 40
1
 40
1
 40
1
 40
1
 10
199.477435
 20
163.933373
 30
0.0
 10
199.754523
 20
163.453664
 30
0.0
 10
200.266569
 20
163.158309
 30
0.0
 10
200.820553
 20
163.158643
 30
0.0
  0
SPLINE
  5
295
100
AcDbEntity
  8
Layer_1
 62
7
100
AcDbSpline
 70
8
 71
3
 72
8
 73
4
 74
0
 40
0
 40
0
 40
0
 40
0
 40
1
 40
1
 40
1
 40
1
 10
200.820553
 20
163.158643
 30
0.0
 10
201.374538
 20
163.158309
 30
0.0
 10
201.886583
 20
163.453664
 30
0.0
 10
202.163672
 20
163.933373
 30
0.0
  0
SPLINE
  5
296
100
AcDbEntity
  8
Layer_1
 62
7
100
AcDbSpline
 70
8
 71
3
 72
8
 73
4
 74
0
 40
0
 40
0
 40
0
 40
0
 40
1
 40
1
 40
1
 40
1
 10
202.163672
 20
163.933373
 30
0.0
 10
202.440761
 20
164.413082
 30
0.0
 10
202.440761
 20
165.004204
 30
0.0
 10
202.163672
 20
165.483913
 30
0.0
  0
SPLINE
  5
297
100
AcDbEntity
  8
Layer_1
 62
7
100
AcDbSpline
 70
8
 71
3
 72
8
 73
4
 74
0
 40
0
 40
0
 40
0
 40
0
 40
1
 40
1
 40
1
 40
1
 10
202.163672
 20
165.483913
 30
0.0
 10
201.886583
 20
165.963622
 30
0.0
 10
201.374538
 20
166.258977
 30
0.0
 10
200.820553
 20
166.258643
 30
0.0
  0
LINE
  5
298
100
AcDbEntity
  8
Layer_1
 62
7
100
AcDbLine
 10
200.820553
 20
166.258643
 30
0.0
 11
200.820553
 21
166.258643
 31
0.0
  0
SPLINE
  5
299
100
AcDbEntity
  8
Layer_1
 62
7
100
AcDbSpline
 70
8
 71
3
 72
8
 73
4
 74
0
 40
0
 40
0
 40
0
 40
0
 40
1
 40
1
 40
1
 40
1
 10
200.820553
 20
100.258642
 30
0.0
 10
200.266569
 20
100.258976
 30
0.0
 10
199.754523
 20
99.963621
 30
0.0
 10
199.477435
 20
99.483912
 30
0.0
  0
SPLINE
  5
29a
100
AcDbEntity
  8
Layer_1
 62
7
100
AcDbSpline
 70
8
 71
3
 72
8
 73
4
 74
0
 40
0
 40
0
 40
0
 40
0
 40
1
 40
1
 40
1
 40
1
 10
199.477435
 20
99.483912
 30
0.0
 10
199.200346
 20
99.004204
 30
0.0
 10
199.200346
 20
98.413081
 30
0.0
 10
199.477435
 20
97.933372
 30
0.0
  0
SPLINE
  5
29b
100
AcDbEntity
  8
Layer_1
 62
7
100
AcDbSpline
 70
8
 71
3
 72
8
 73
4
 74
0
 40
0
 40
0
 40
0
 40
0
 40
1
 40
1
 40
1
 40
1
 10
199.477435
 20
97.933372
 30
0.0
 10
199.754523
 20
97.453664
 30
0.0
 10
200.266569
 20
97.158308
 30
0.0
 10
200.820553
 20
97.158643
 30
0.0
  0
SPLINE
  5
29c
100
AcDbEntity
  8
Layer_1
 62
7
100
AcDbSpline
 70
8
 71
3
 72
8
 73
4
 74
0
 40
0
 40
0
 40
0
 40
0
 40
1
 40
1
 40
1
 40
1
 10
200.820553
 20
97.158643
 30
0.0
 10
201.374538
 20
97.158308
 30
0.0
 10
201.886583
 20
97.453664
 30
0.0
 10
202.163672
 20
97.933372
 30
0.0
  0
SPLINE
  5
29d
100
AcDbEntity
  8
Layer_1
 62
7
100
AcDbSpline
 70
8
 71
3
 72
8
 73
4
 74
0
 40
0
 40
0
 40
0
 40
0
 40
1
 40
1
 40
1
 40
1
 10
202.163672
 20
97.933372
 30
0.0
 10
202.440761
 20
98.413081
 30
0.0
 10
202.440761
 20
99.004204
 30
0.0
 10
202.163672
 20
99.483912
 30
0.0
  0
SPLINE
  5
29e
100
AcDbEntity
  8
Layer_1
 62
7
100
AcDbSpline
 70
8
 71
3
 72
8
 73
4
 74
0
 40
0
 40
0
 40
0
 40
0
 40
1
 40
1
 40
1
 40
1
 10
202.163672
 20
99.483912
 30
0.0
 10
201.886583
 20
99.963621
 30
0.0
 10
201.374538
 20
100.258976
 30
0.0
 10
200.820553
 20
100.258642
 30
0.0
  0
LINE
  5
29f
100
AcDbEntity
  8
Layer_1
 62
7
100
AcDbLine
 10
200.820553
 20
100.258642
 30
0.0
 11
200.820553
 21
100.258642
 31
0.0
  0
SPLINE
  5
2a0
100
AcDbEntity
  8
Layer_1
 62
7
100
AcDbSpline
 70
8
 71
3
 72
8
 73
4
 74
0
 40
0
 40
0
 40
0
 40
0
 40
1
 40
1
 40
1
 40
1
 10
163.820543
 20
74.813360
 30
0.0
 10
163.266558
 20
74.813694
 30
0.0
 10
162.754513
 20
74.518339
 30
0.0
 10
162.477424
 20
74.038630
 30
0.0
  0
SPLINE
  5
2a1
100
AcDbEntity
  8
Layer_1
 62
7
100
AcDbSpline
 70
8
 71
3
 72
8
 73
4
 74
0
 40
0
 40
0
 40
0
 40
0
 40
1
 40
1
 40
1
 40
1
 10
162.477424
 20
74.038630
 30
0.0
 10
162.200335
 20
73.558921
 30
0.0
 10
162.200335
 20
72.967799
 30
0.0
 10
162.477424
 20
72.488090
 30
0.0
  0
SPLINE
  5
2a2
100
AcDbEntity
  8
Layer_1
 62
7
100
AcDbSpline
 70
8
 71
3
 72
8
 73
4
 74
0
 40
0
 40
0
 40
0
 40
0
 40
1
 40
1
 40
1
 40
1
 10
162.477424
 20
72.488090
 30
0.0
 10
162.754513
 20
72.008381
 30
0.0
 10
163.266558
 20
71.713026
 30
0.0
 10
163.820543
 20
71.713360
 30
0.0
  0
SPLINE
  5
2a3
100
AcDbEntity
  8
Layer_1
 62
7
100
AcDbSpline
 70
8
 71
3
 72
8
 73
4
 74
0
 40
0
 40
0
 40
0
 40
0
 40
1
 40
1
 40
1
 40
1
 10
163.820543
 20
71.713360
 30
0.0
 10
164.374527
 20
71.713026
 30
0.0
 10
164.886573
 20
72.008381
 30
0.0
 10
165.163662
 20
72.488090
 30
0.0
  0
SPLINE
  5
2a4
100
AcDbEntity
  8
Layer_1
 62
7
100
AcDbSpline
 70
8
 71
3
 72
8
 73
4
 74
0
 40
0
 40
0
 40
0
 40
0
 40
1
 40
1
 40
1
 40
1
 10
165.163662
 20
72.488090
 30
0.0
 10
165.440750
 20
72.967799
 30
0.0
 10
165.440750
 20
73.558921
 30
0.0
 10
165.163662
 20
74.038630
 30
0.0
  0
SPLINE
  5
2a5
100
AcDbEntity
  8
Layer_1
 62
7
100
AcDbSpline
 70
8
 71
3
 72
8
 73
4
 74
0
 40
0
 40
0
 40
0
 40
0
 40
1
 40
1
 40
1
 40
1
 10
165.163662
 20
74.038630
 30
0.0
 10
164.886573
 20
74.518339
 30
0.0
 10
164.374527
 20
74.813694
 30
0.0
 10
163.820543
 20
74.813360
 30
0.0
  0
LINE
  5
2a6
100
AcDbEntity
  8
Layer_1
 62
7
100
AcDbLine
 10
163.820543
 20
74.813360
 30
0.0
 11
163.820543
 21
74.813360
 31
0.0
  0
SPLINE
  5
2a7
100
AcDbEntity
  8
Layer_1
 62
7
100
AcDbSpline
 70
8
 71
3
 72
8
 73
4
 74
0
 40
0
 40
0
 40
0
 40
0
 40
1
 40
1
 40
1
 40
1
 10
175.820547
 20
74.813360
 30
0.0
 10
175.266563
 20
74.813694
 30
0.0
 10
174.754517
 20
74.518339
 30
0.0
 10
174.477428
 20
74.038630
 30
0.0
  0
SPLINE
  5
2a8
100
AcDbEntity
  8
Layer_1
 62
7
100
AcDbSpline
 70
8
 71
3
 72
8
 73
4
 74
0
 40
0
 40
0
 40
0
 40
0
 40
1
 40
1
 40
1
 40
1
 10
174.477428
 20
74.038630
 30
0.0
 10
174.200339
 20
73.558921
 30
0.0
 10
174.200339
 20
72.967799
 30
0.0
 10
174.477428
 20
72.488090
 30
0.0
  0
SPLINE
  5
2a9
100
AcDbEntity
  8
Layer_1
 62
7
100
AcDbSpline
 70
8
 71
3
 72
8
 73
4
 74
0
 40
0
 40
0
 40
0
 40
0
 40
1
 40
1
 40
1
 40
1
 10
174.477428
 20
72.488090
 30
0.0
 10
174.754517
 20
72.008381
 30
0.0
 10
175.266563
 20
71.713026
 30
0.0
 10
175.820547
 20
71.713360
 30
0.0
  0
SPLINE
  5
2aa
100
AcDbEntity
  8
Layer_1
 62
7
100
AcDbSpline
 70
8
 71
3
 72
8
 73
4
 74
0
 40
0
 40
0
 40
0
 40
0
 40
1
 40
1
 40
1
 40
1
 10
175.820547
 20
71.713360
 30
0.0
 10
176.374531
 20
71.713026
 30
0.0
 10
176.886577
 20
72.008381
 30
0.0
 10
177.163666
 20
72.488090
 30
0.0
  0
SPLINE
  5
2ab
100
AcDbEntity
  8
Layer_1
 62
7
100
AcDbSpline
 70
8
 71
3
 72
8
 73
4
 74
0
 40
0
 40
0
 40
0
 40
0
 40
1
 40
1
 40
1
 40
1
 10
177.163666
 20
72.488090
 30
0.0
 10
177.440754
 20
72.967799
 30
0.0
 10
177.440754
 20
73.558921
 30
0.0
 10
177.163666
 20
74.038630
 30
0.0
  0
SPLINE
  5
2ac
100
AcDbEntity
  8
Layer_1
 62
7
100
AcDbSpline
 70
8
 71
3
 72
8
 73
4
 74
0
 40
0
 40
0
 40
0
 40
0
 40
1
 40
1
 40
1
 40
1
 10
177.163666
 20
74.038630
 30
0.0
 10
176.886577
 20
74.518339
 30
0.0
 10
176.374531
 20
74.813694
 30
0.0
 10
175.820547
 20
74.813360
 30
0.0
  0
LINE
  5
2ad
100
AcDbEntity
  8
Layer_1
 62
7
100
AcDbLine
 10
175.820547
 20
74.813360
 30
0.0
 11
175.820547
 21
74.813360
 31
0.0
  0
SPLINE
  5
2ae
100
AcDbEntity
  8
Layer_1
 62
7
100
AcDbSpline
 70
8
 71
3
 72
8
 73
4
 74
0
 40
0
 40
0
 40
0
 40
0
 40
1
 40
1
 40
1
 40
1
 10
175.820547
 20
24.813361
 30
0.0
 10
175.266563
 20
24.813695
 30
0.0
 10
174.754517
 20
24.518340
 30
0.0
 10
174.477428
 20
24.038631
 30
0.0
  0
SPLINE
  5
2af
100
AcDbEntity
  8
Layer_1
 62
7
100
AcDbSpline
 70
8
 71
3
 72
8
 73
4
 74
0
 40
0
 40
0
 40
0
 40
0
 40
1
 40
1
 40
1
 40
1
 10
174.477428
 20
24.038631
 30
0.0
 10
174.200339
 20
23.558922
 30
0.0
 10
174.200339
 20
22.967800
 30
0.0
 10
174.477428
 20
22.488091
 30
0.0
  0
SPLINE
  5
2b0
100
AcDbEntity
  8
Layer_1
 62
7
100
AcDbSpline
 70
8
 71
3
 72
8
 73
4
 74
0
 40
0
 40
0
 40
0
 40
0
 40
1
 40
1
 40
1
 40
1
 10
174.477428
 20
22.488091
 30
0.0
 10
174.754517
 20
22.008382
 30
0.0
 10
175.266563
 20
21.713027
 30
0.0
 10
175.820547
 20
21.713361
 30
0.0
  0
SPLINE
  5
2b1
100
AcDbEntity
  8
Layer_1
 62
7
100
AcDbSpline
 70
8
 71
3
 72
8
 73
4
 74
0
 40
0
 40
0
 40
0
 40
0
 40
1
 40
1
 40
1
 40
1
 10
175.820547
 20
21.713361
 30
0.0
 10
176.374531
 20
21.713027
 30
0.0
 10
176.886577
 20
22.008382
 30
0.0
 10
177.163666
 20
22.488091
 30
0.0
  0
SPLINE
  5
2b2
100
AcDbEntity
  8
Layer_1
 62
7
100
AcDbSpline
 70
8
 71
3
 72
8
 73
4
 74
0
 40
0
 40
0
 40
0
 40
0
 40
1
 40
1
 40
1
 40
1
 10
177.163666
 20
22.488091
 30
0.0
 10
177.440754
 20
22.967800
 30
0.0
 10
177.440754
 20
23.558922
 30
0.0
 10
177.163666
 20
24.038631
 30
0.0
  0
SPLINE
  5
2b3
100
AcDbEntity
  8
Layer_1
 62
7
100
AcDbSpline
 70
8
 71
3
 72
8
 73
4
 74
0
 40
0
 40
0
 40
0
 40
0
 40
1
 40
1
 40
1
 40
1
 10
177.163666
 20
24.038631
 30
0.0
 10
176.886577
 20
24.518340
 30
0.0
 10
176.374531
 20
24.813695
 30
0.0
 10
175.820547
 20
24.813361
 30
0.0
  0
LINE
  5
2b4
100
AcDbEntity
  8
Layer_1
 62
7
100
AcDbLine
 10
175.820547
 20
24.813361
 30
0.0
 11
175.820547
 21
24.813361
 31
0.0
  0
SPLINE
  5
2b5
100
AcDbEntity
  8
Layer_1
 62
7
100
AcDbSpline
 70
8
 71
3
 72
8
 73
4
 74
0
 40
0
 40
0
 40
0
 40
0
 40
1
 40
1
 40
1
 40
1
 10
163.820543
 20
24.813361
 30
0.0
 10
163.266558
 20
24.813695
 30
0.0
 10
162.754513
 20
24.518340
 30
0.0
 10
162.477424
 20
24.038631
 30
0.0
  0
SPLINE
  5
2b6
100
AcDbEntity
  8
Layer_1
 62
7
100
AcDbSpline
 70
8
 71
3
 72
8
 73
4
 74
0
 40
0
 40
0
 40
0
 40
0
 40
1
 40
1
 40
1
 40
1
 10
162.477424
 20
24.038631
 30
0.0
 10
162.200335
 20
23.558922
 30
0.0
 10
162.200335
 20
22.967800
 30
0.0
 10
162.477424
 20
22.488091
 30
0.0
  0
SPLINE
  5
2b7
100
AcDbEntity
  8
Layer_1
 62
7
100
AcDbSpline
 70
8
 71
3
 72
8
 73
4
 74
0
 40
0
 40
0
 40
0
 40
0
 40
1
 40
1
 40
1
 40
1
 10
162.477424
 20
22.488091
 30
0.0
 10
162.754513
 20
22.008382
 30
0.0
 10
163.266558
 20
21.713027
 30
0.0
 10
163.820543
 20
21.713361
 30
0.0
  0
SPLINE
  5
2b8
100
AcDbEntity
  8
Layer_1
 62
7
100
AcDbSpline
 70
8
 71
3
 72
8
 73
4
 74
0
 40
0
 40
0
 40
0
 40
0
 40
1
 40
1
 40
1
 40
1
 10
163.820543
 20
21.713361
 30
0.0
 10
164.374527
 20
21.713027
 30
0.0
 10
164.886573
 20
22.008382
 30
0.0
 10
165.163662
 20
22.488091
 30
0.0
  0
SPLINE
  5
2b9
100
AcDbEntity
  8
Layer_1
 62
7
100
AcDbSpline
 70
8
 71
3
 72
8
 73
4
 74
0
 40
0
 40
0
 40
0
 40
0
 40
1
 40
1
 40
1
 40
1
 10
165.163662
 20
22.488091
 30
0.0
 10
165.440750
 20
22.967800
 30
0.0
 10
165.440750
 20
23.558922
 30
0.0
 10
165.163662
 20
24.038631
 30
0.0
  0
SPLINE
  5
2ba
100
AcDbEntity
  8
Layer_1
 62
7
100
AcDbSpline
 70
8
 71
3
 72
8
 73
4
 74
0
 40
0
 40
0
 40
0
 40
0
 40
1
 40
1
 40
1
 40
1
 10
165.163662
 20
24.038631
 30
0.0
 10
164.886573
 20
24.518340
 30
0.0
 10
164.374527
 20
24.813695
 30
0.0
 10
163.820543
 20
24.813361
 30
0.0
  0
LINE
  5
2bb
100
AcDbEntity
  8
Layer_1
 62
7
100
AcDbLine
 10
163.820543
 20
24.813361
 30
0.0
 11
163.820543
 21
24.813361
 31
0.0
  0
SPLINE
  5
2bc
100
AcDbEntity
  8
Layer_1
 62
7
100
AcDbSpline
 70
8
 71
3
 72
8
 73
4
 74
0
 40
0
 40
0
 40
0
 40
0
 40
1
 40
1
 40
1
 40
1
 10
177.320558
 20
65.813361
 30
0.0
 10
176.766574
 20
65.813695
 30
0.0
 10
176.254528
 20
65.518340
 30
0.0
 10
175.977439
 20
65.038631
 30
0.0
  0
SPLINE
  5
2bd
100
AcDbEntity
  8
Layer_1
 62
7
100
AcDbSpline
 70
8
 71
3
 72
8
 73
4
 74
0
 40
0
 40
0
 40
0
 40
0
 40
1
 40
1
 40
1
 40
1
 10
175.977439
 20
65.038631
 30
0.0
 10
175.700351
 20
64.558922
 30
0.0
 10
175.700351
 20
63.967800
 30
0.0
 10
175.977439
 20
63.488091
 30
0.0
  0
SPLINE
  5
2be
100
AcDbEntity
  8
Layer_1
 62
7
100
AcDbSpline
 70
8
 71
3
 72
8
 73
4
 74
0
 40
0
 40
0
 40
0
 40
0
 40
1
 40
1
 40
1
 40
1
 10
175.977439
 20
63.488091
 30
0.0
 10
176.254528
 20
63.008382
 30
0.0
 10
176.766574
 20
62.713027
 30
0.0
 10
177.320558
 20
62.713361
 30
0.0
  0
SPLINE
  5
2bf
100
AcDbEntity
  8
Layer_1
 62
7
100
AcDbSpline
 70
8
 71
3
 72
8
 73
4
 74
0
 40
0
 40
0
 40
0
 40
0
 40
1
 40
1
 40
1
 40
1
 10
177.320558
 20
62.713361
 30
0.0
 10
177.874542
 20
62.713027
 30
0.0
 10
178.386588
 20
63.008382
 30
0.0
 10
178.663677
 20
63.488091
 30
0.0
  0
SPLINE
  5
2c0
100
AcDbEntity
  8
Layer_1
 62
7
100
AcDbSpline
 70
8
 71
3
 72
8
 73
4
 74
0
 40
0
 40
0
 40
0
 40
0
 40
1
 40
1
 40
1
 40
1
 10
178.663677
 20
63.488091
 30
0.0
 10
178.940766
 20
63.967800
 30
0.0
 10
178.940766
 20
64.558922
 30
0.0
 10
178.663677
 20
65.038631
 30
0.0
  0
SPLINE
  5
2c1
100
AcDbEntity
  8
Layer_1
 62
7
100
AcDbSpline
 70
8
 71
3
 72
8
 73
4
 74
0
 40
0
 40
0
 40
0
 40
0
 40
1
 40
1
 40
1
 40
1
 10
178.663677
 20
65.038631
 30
0.0
 10
178.386588
 20
65.518340
 30
0.0
 10
177.874542
 20
65.813695
 30
0.0
 10
177.320558
 20
65.813361
 30
0.0
  0
LINE
  5
2c2
100
AcDbEntity
  8
Layer_1
 62
7
100
AcDbLine
 10
177.320558
 20
65.813361
 30
0.0
 11
177.320558
 21
65.813361
 31
0.0
  0
SPLINE
  5
2c3
100
AcDbEntity
  8
Layer_1
 62
7
100
AcDbSpline
 70
8
 71
3
 72
8
 73
4
 74
0
 40
0
 40
0
 40
0
 40
0
 40
1
 40
1
 40
1
 40
1
 10
177.320558
 20
33.813360
 30
0.0
 10
176.766574
 20
33.813694
 30
0.0
 10
176.254528
 20
33.518339
 30
0.0
 10
175.977439
 20
33.038630
 30
0.0
  0
SPLINE
  5
2c4
100
AcDbEntity
  8
Layer_1
 62
7
100
AcDbSpline
 70
8
 71
3
 72
8
 73
4
 74
0
 40
0
 40
0
 40
0
 40
0
 40
1
 40
1
 40
1
 40
1
 10
175.977439
 20
33.038630
 30
0.0
 10
175.700351
 20
32.558921
 30
0.0
 10
175.700351
 20
31.967799
 30
0.0
 10
175.977439
 20
31.488090
 30
0.0
  0
SPLINE
  5
2c5
100
AcDbEntity
  8
Layer_1
 62
7
100
AcDbSpline
 70
8
 71
3
 72
8
 73
4
 74
0
 40
0
 40
0
 40
0
 40
0
 40
1
 40
1
 40
1
 40
1
 10
175.977439
 20
31.488090
 30
0.0
 10
176.254528
 20
31.008381
 30
0.0
 10
176.766574
 20
30.713026
 30
0.0
 10
177.320558
 20
30.713360
 30
0.0
  0
SPLINE
  5
2c6
100
AcDbEntity
  8
Layer_1
 62
7
100
AcDbSpline
 70
8
 71
3
 72
8
 73
4
 74
0
 40
0
 40
0
 40
0
 40
0
 40
1
 40
1
 40
1
 40
1
 10
177.320558
 20
30.713360
 30
0.0
 10
177.874542
 20
30.713026
 30
0.0
 10
178.386588
 20
31.008381
 30
0.0
 10
178.663677
 20
31.488090
 30
0.0
  0
SPLINE
  5
2c7
100
AcDbEntity
  8
Layer_1
 62
7
100
AcDbSpline
 70
8
 71
3
 72
8
 73
4
 74
0
 40
0
 40
0
 40
0
 40
0
 40
1
 40
1
 40
1
 40
1
 10
178.663677
 20
31.488090
 30
0.0
 10
178.940766
 20
31.967799
 30
0.0
 10
178.940766
 20
32.558921
 30
0.0
 10
178.663677
 20
33.038630
 30
0.0
  0
SPLINE
  5
2c8
100
AcDbEntity
  8
Layer_1
 62
7
100
AcDbSpline
 70
8
 71
3
 72
8
 73
4
 74
0
 40
0
 40
0
 40
0
 40
0
 40
1
 40
1
 40
1
 40
1
 10
178.663677
 20
33.038630
 30
0.0
 10
178.386588
 20
33.518339
 30
0.0
 10
177.874542
 20
33.813694
 30
0.0
 10
177.320558
 20
33.813360
 30
0.0
  0
LINE
  5
2c9
100
AcDbEntity
  8
Layer_1
 62
7
100
AcDbLine
 10
177.320558
 20
33.813360
 30
0.0
 11
177.320558
 21
33.813360
 31
0.0
  0
LINE
  5
2ca
100
AcDbEntity
  8
Layer_1
 62
7
100
AcDbLine
 10
199.570563
 20
69.263361
 30
0.0
 11
199.570563
 21
27.263360
 31
0.0
  0
LINE
  5
2cb
100
AcDbEntity
  8
Layer_1
 62
7
100
AcDbLine
 10
206.570549
 20
69.263361
 30
0.0
 11
199.570563
 21
69.263361
 31
0.0
  0
LINE
  5
2cc
100
AcDbEntity
  8
Layer_1
 62
7
100
AcDbLine
 10
206.570549
 20
69.263361
 30
0.0
 11
206.570549
 21
85.763362
 31
0.0
  0
LINE
  5
2cd
100
AcDbEntity
  8
Layer_1
 62
7
100
AcDbLine
 10
131.570555
 20
85.763362
 30
0.0
 11
206.570549
 21
85.763362
 31
0.0
  0
LINE
  5
2ce
100
AcDbEntity
  8
Layer_1
 62
7
100
AcDbLine
 10
131.570555
 20
85.763362
 30
0.0
 11
131.570555
 21
81.385861
 31
0.0
  0
SPLINE
  5
2cf
100
AcDbEntity
  8
Layer_1
 62
7
100
AcDbSpline
 70
8
 71
3
 72
8
 73
4
 74
0
 40
0
 40
0
 40
0
 40
0
 40
1
 40
1
 40
1
 40
1
 10
131.570555
 20
81.385861
 30
0.0
 10
130.622418
 20
80.626743
 30
0.0
 10
130.070555
 20
79.477948
 30
0.0
 10
130.070555
 20
78.263360
 30
0.0
  0
LINE
  5
2d0
100
AcDbEntity
  8
Layer_1
 62
7
100
AcDbLine
 10
130.070555
 20
78.263360
 30
0.0
 11
130.070555
 21
18.263361
 31
0.0
  0
SPLINE
  5
2d1
100
AcDbEntity
  8
Layer_1
 62
7
100
AcDbSpline
 70
8
 71
3
 72
8
 73
4
 74
0
 40
0
 40
0
 40
0
 40
0
 40
1
 40
1
 40
1
 40
1
 10
130.070555
 20
18.263361
 30
0.0
 10
130.070555
 20
17.048773
 30
0.0
 10
130.622418
 20
15.899978
 30
0.0
 10
131.570555
 20
15.140860
 30
0.0
  0
LINE
  5
2d2
100
AcDbEntity
  8
Layer_1
 62
7
100
AcDbLine
 10
131.570555
 20
15.140860
 30
0.0
 11
131.570555
 21
10.763362
 31
0.0
  0
LINE
  5
2d3
100
AcDbEntity
  8
Layer_1
 62
7
100
AcDbLine
 10
131.570555
 20
10.763362
 30
0.0
 11
206.570549
 21
10.763362
 31
0.0
  0
LINE
  5
2d4
100
AcDbEntity
  8
Layer_1
 62
7
100
AcDbLine
 10
206.570549
 20
10.763362
 30
0.0
 11
206.570549
 21
27.263360
 31
0.0
  0
LINE
  5
2d5
100
AcDbEntity
  8
Layer_1
 62
7
100
AcDbLine
 10
199.570563
 20
27.263360
 30
0.0
 11
206.570549
 21
27.263360
 31
0.0
  0
SPLINE
  5
2d6
100
AcDbEntity
  8
Layer_1
 62
7
100
AcDbSpline
 70
8
 71
3
 72
8
 73
4
 74
0
 40
0
 40
0
 40
0
 40
0
 40
1
 40
1
 40
1
 40
1
 10
134.070556
 20
79.813361
 30
0.0
 10
133.516571
 20
79.813695
 30
0.0
 10
133.004526
 20
79.518340
 30
0.0
 10
132.727437
 20
79.038631
 30
0.0
  0
SPLINE
  5
2d7
100
AcDbEntity
  8
Layer_1
 62
7
100
AcDbSpline
 70
8
 71
3
 72
8
 73
4
 74
0
 40
0
 40
0
 40
0
 40
0
 40
1
 40
1
 40
1
 40
1
 10
132.727437
 20
79.038631
 30
0.0
 10
132.450348
 20
78.558922
 30
0.0
 10
132.450348
 20
77.967800
 30
0.0
 10
132.727437
 20
77.488091
 30
0.0
  0
SPLINE
  5
2d8
100
AcDbEntity
  8
Layer_1
 62
7
100
AcDbSpline
 70
8
 71
3
 72
8
 73
4
 74
0
 40
0
 40
0
 40
0
 40
0
 40
1
 40
1
 40
1
 40
1
 10
132.727437
 20
77.488091
 30
0.0
 10
133.004526
 20
77.008382
 30
0.0
 10
133.516571
 20
76.713027
 30
0.0
 10
134.070556
 20
76.713361
 30
0.0
  0
SPLINE
  5
2d9
100
AcDbEntity
  8
Layer_1
 62
7
100
AcDbSpline
 70
8
 71
3
 72
8
 73
4
 74
0
 40
0
 40
0
 40
0
 40
0
 40
1
 40
1
 40
1
 40
1
 10
134.070556
 20
76.713361
 30
0.0
 10
134.624540
 20
76.713027
 30
0.0
 10
135.136586
 20
77.008382
 30
0.0
 10
135.413674
 20
77.488091
 30
0.0
  0
SPLINE
  5
2da
100
AcDbEntity
  8
Layer_1
 62
7
100
AcDbSpline
 70
8
 71
3
 72
8
 73
4
 74
0
 40
0
 40
0
 40
0
 40
0
 40
1
 40
1
 40
1
 40
1
 10
135.413674
 20
77.488091
 30
0.0
 10
135.690763
 20
77.967800
 30
0.0
 10
135.690763
 20
78.558922
 30
0.0
 10
135.413674
 20
79.038631
 30
0.0
  0
SPLINE
  5
2db
100
AcDbEntity
  8
Layer_1
 62
7
100
AcDbSpline
 70
8
 71
3
 72
8
 73
4
 74
0
 40
0
 40
0
 40
0
 40
0
 40
1
 40
1
 40
1
 40
1
 10
135.413674
 20
79.038631
 30
0.0
 10
135.136586
 20
79.518340
 30
0.0
 10
134.624540
 20
79.813695
 30
0.0
 10
134.070556
 20
79.813361
 30
0.0
  0
LINE
  5
2dc
100
AcDbEntity
  8
Layer_1
 62
7
100
AcDbLine
 10
134.070556
 20
79.813361
 30
0.0
 11
134.070556
 21
79.813361
 31
0.0
  0
SPLINE
  5
2dd
100
AcDbEntity
  8
Layer_1
 62
7
100
AcDbSpline
 70
8
 71
3
 72
8
 73
4
 74
0
 40
0
 40
0
 40
0
 40
0
 40
1
 40
1
 40
1
 40
1
 10
134.070556
 20
19.813360
 30
0.0
 10
133.516571
 20
19.813694
 30
0.0
 10
133.004526
 20
19.518339
 30
0.0
 10
132.727437
 20
19.038630
 30
0.0
  0
SPLINE
  5
2de
100
AcDbEntity
  8
Layer_1
 62
7
100
AcDbSpline
 70
8
 71
3
 72
8
 73
4
 74
0
 40
0
 40
0
 40
0
 40
0
 40
1
 40
1
 40
1
 40
1
 10
132.727437
 20
19.038630
 30
0.0
 10
132.450348
 20
18.558921
 30
0.0
 10
132.450348
 20
17.967799
 30
0.0
 10
132.727437
 20
17.488090
 30
0.0
  0
SPLINE
  5
2df
100
AcDbEntity
  8
Layer_1
 62
7
100
AcDbSpline
 70
8
 71
3
 72
8
 73
4
 74
0
 40
0
 40
0
 40
0
 40
0
 40
1
 40
1
 40
1
 40
1
 10
132.727437
 20
17.488090
 30
0.0
 10
133.004526
 20
17.008381
 30
0.0
 10
133.516571
 20
16.713026
 30
0.0
 10
134.070556
 20
16.713360
 30
0.0
  0
SPLINE
  5
2e0
100
AcDbEntity
  8
Layer_1
 62
7
100
AcDbSpline
 70
8
 71
3
 72
8
 73
4
 74
0
 40
0
 40
0
 40
0
 40
0
 40
1
 40
1
 40
1
 40
1
 10
134.070556
 20
16.713360
 30
0.0
 10
134.624540
 20
16.713026
 30
0.0
 10
135.136586
 20
17.008381
 30
0.0
 10
135.413674
 20
17.488090
 30
0.0
  0
SPLINE
  5
2e1
100
AcDbEntity
  8
Layer_1
 62
7
100
AcDbSpline
 70
8
 71
3
 72
8
 73
4
 74
0
 40
0
 40
0
 40
0
 40
0
 40
1
 40
1
 40
1
 40
1
 10
135.413674
 20
17.488090
 30
0.0
 10
135.690763
 20
17.967799
 30
0.0
 10
135.690763
 20
18.558921
 30
0.0
 10
135.413674
 20
19.038630
 30
0.0
  0
SPLINE
  5
2e2
100
AcDbEntity
  8
Layer_1
 62
7
100
AcDbSpline
 70
8
 71
3
 72
8
 73
4
 74
0
 40
0
 40
0
 40
0
 40
0
 40
1
 40
1
 40
1
 40
1
 10
135.413674
 20
19.038630
 30
0.0
 10
135.136586
 20
19.518339
 30
0.0
 10
134.624540
 20
19.813694
 30
0.0
 10
134.070556
 20
19.813360
 30
0.0
  0
LINE
  5
2e3
100
AcDbEntity
  8
Layer_1
 62
7
100
AcDbLine
 10
134.070556
 20
19.813360
 30
0.0
 11
134.070556
 21
19.813360
 31
0.0
  0
LINE
  5
2e4
100
AcDbEntity
  8
Layer_1
 62
7
100
AcDbLine
 10
185.820555
 20
14.013349
 30
0.0
 11
197.320546
 21
14.013349
 31
0.0
  0
LINE
  5
2e5
100
AcDbEntity
  8
Layer_1
 62
7
100
AcDbLine
 10
185.820555
 20
38.263361
 30
0.0
 11
185.820555
 21
14.013349
 31
0.0
  0
LINE
  5
2e6
100
AcDbEntity
  8
Layer_1
 62
7
100
AcDbLine
 10
197.320546
 20
38.263361
 30
0.0
 11
185.820555
 21
38.263361
 31
0.0
  0
LINE
  5
2e7
100
AcDbEntity
  8
Layer_1
 62
7
100
AcDbLine
 10
197.320546
 20
14.013349
 30
0.0
 11
197.320546
 21
38.263361
 31
0.0
  0
LINE
  5
2e8
100
AcDbEntity
  8
Layer_1
 62
7
100
AcDbLine
 10
152.320554
 20
82.513361
 30
0.0
 11
140.820555
 21
82.513361
 31
0.0
  0
LINE
  5
2e9
100
AcDbEntity
  8
Layer_1
 62
7
100
AcDbLine
 10
152.320554
 20
58.263360
 30
0.0
 11
152.320554
 21
82.513361
 31
0.0
  0
LINE
  5
2ea
100
AcDbEntity
  8
Layer_1
 62
7
100
AcDbLine
 10
140.820555
 20
58.263360
 30
0.0
 11
152.320554
 21
58.263360
 31
0.0
  0
LINE
  5
2eb
100
AcDbEntity
  8
Layer_1
 62
7
100
AcDbLine
 10
140.820555
 20
82.513361
 30
0.0
 11
140.820555
 21
58.263360
 31
0.0
  0
LINE
  5
2ec
100
AcDbEntity
  8
Layer_1
 62
7
100
AcDbLine
 10
152.320554
 20
38.263361
 30
0.0
 11
140.820555
 21
38.263361
 31
0.0
  0
LINE
  5
2ed
100
AcDbEntity
  8
Layer_1
 62
7
100
AcDbLine
 10
152.320554
 20
14.013349
 30
0.0
 11
152.320554
 21
38.263361
 31
0.0
  0
LINE
  5
2ee
100
AcDbEntity
  8
Layer_1
 62
7
100
AcDbLine
 10
140.820555
 20
14.013349
 30
0.0
 11
152.320554
 21
14.013349
 31
0.0
  0
LINE
  5
2ef
100
AcDbEntity
  8
Layer_1
 62
7
100
AcDbLine
 10
140.820555
 20
38.263361
 30
0.0
 11
140.820555
 21
14.013349
 31
0.0
  0
LINE
  5
2f0
100
AcDbEntity
  8
Layer_1
 62
7
100
AcDbLine
 10
197.320546
 20
82.513361
 30
0.0
 11
185.820555
 21
82.513361
 31
0.0
  0
LINE
  5
2f1
100
AcDbEntity
  8
Layer_1
 62
7
100
AcDbLine
 10
197.320546
 20
58.263360
 30
0.0
 11
197.320546
 21
82.513361
 31
0.0
  0
LINE
  5
2f2
100
AcDbEntity
  8
Layer_1
 62
7
100
AcDbLine
 10
185.820555
 20
58.263360
 30
0.0
 11
197.320546
 21
58.263360
 31
0.0
  0
LINE
  5
2f3
100
AcDbEntity
  8
Layer_1
 62
7
100
AcDbLine
 10
185.820555
 20
82.513361
 30
0.0
 11
185.820555
 21
58.263360
 31
0.0
  0
SPLINE
  5
2f4
100
AcDbEntity
  8
Layer_1
 62
7
100
AcDbSpline
 70
8
 71
3
 72
8
 73
4
 74
0
 40
0
 40
0
 40
0
 40
0
 40
1
 40
1
 40
1
 40
1
 10
134.070556
 20
49.813361
 30
0.0
 10
133.516794
 20
49.813361
 30
0.0
 10
133.005097
 20
49.517932
 30
0.0
 10
132.728216
 20
49.038361
 30
0.0
  0
SPLINE
  5
2f5
100
AcDbEntity
  8
Layer_1
 62
7
100
AcDbSpline
 70
8
 71
3
 72
8
 73
4
 74
0
 40
0
 40
0
 40
0
 40
0
 40
1
 40
1
 40
1
 40
1
 10
132.728216
 20
49.038361
 30
0.0
 10
132.451335
 20
48.558789
 30
0.0
 10
132.451335
 20
47.967932
 30
0.0
 10
132.728216
 20
47.488361
 30
0.0
  0
SPLINE
  5
2f6
100
AcDbEntity
  8
Layer_1
 62
7
100
AcDbSpline
 70
8
 71
3
 72
8
 73
4
 74
0
 40
0
 40
0
 40
0
 40
0
 40
1
 40
1
 40
1
 40
1
 10
132.728216
 20
47.488361
 30
0.0
 10
133.005097
 20
47.008789
 30
0.0
 10
133.516794
 20
46.713361
 30
0.0
 10
134.070556
 20
46.713361
 30
0.0
  0
SPLINE
  5
2f7
100
AcDbEntity
  8
Layer_1
 62
7
100
AcDbSpline
 70
8
 71
3
 72
8
 73
4
 74
0
 40
0
 40
0
 40
0
 40
0
 40
1
 40
1
 40
1
 40
1
 10
134.070556
 20
46.713361
 30
0.0
 10
134.624317
 20
46.713361
 30
0.0
 10
135.136014
 20
47.008789
 30
0.0
 10
135.412895
 20
47.488361
 30
0.0
  0
SPLINE
  5
2f8
100
AcDbEntity
  8
Layer_1
 62
7
100
AcDbSpline
 70
8
 71
3
 72
8
 73
4
 74
0
 40
0
 40
0
 40
0
 40
0
 40
1
 40
1
 40
1
 40
1
 10
135.412895
 20
47.488361
 30
0.0
 10
135.689776
 20
47.967933
 30
0.0
 10
135.689776
 20
48.558789
 30
0.0
 10
135.412895
 20
49.038361
 30
0.0
  0
SPLINE
  5
2f9
100
AcDbEntity
  8
Layer_1
 62
7
100
AcDbSpline
 70
8
 71
3
 72
8
 73
4
 74
0
 40
0
 40
0
 40
0
 40
0
 40
1
 40
1
 40
1
 40
1
 10
135.412895
 20
49.038361
 30
0.0
 10
135.136014
 20
49.517933
 30
0.0
 10
134.624317
 20
49.813361
 30
0.0
 10
134.070556
 20
49.813361
 30
0.0
  0
LINE
  5
2fa
100
AcDbEntity
  8
Layer_1
 62
7
100
AcDbLine
 10
134.070556
 20
49.813361
 30
0.0
 11
134.070556
 21
49.813362
 31
0.0
  0
SPLINE
  5
2fb
100
AcDbEntity
  8
Layer_1
 62
7
100
AcDbSpline
 70
8
 71
3
 72
8
 73
4
 74
0
 40
0
 40
0
 40
0
 40
0
 40
1
 40
1
 40
1
 40
1
 10
169.070553
 20
49.813361
 30
0.0
 10
168.516792
 20
49.813361
 30
0.0
 10
168.005095
 20
49.517932
 30
0.0
 10
167.728214
 20
49.038361
 30
0.0
  0
SPLINE
  5
2fc
100
AcDbEntity
  8
Layer_1
 62
7
100
AcDbSpline
 70
8
 71
3
 72
8
 73
4
 74
0
 40
0
 40
0
 40
0
 40
0
 40
1
 40
1
 40
1
 40
1
 10
167.728214
 20
49.038361
 30
0.0
 10
167.451333
 20
48.558789
 30
0.0
 10
167.451333
 20
47.967932
 30
0.0
 10
167.728214
 20
47.488361
 30
0.0
  0
SPLINE
  5
2fd
100
AcDbEntity
  8
Layer_1
 62
7
100
AcDbSpline
 70
8
 71
3
 72
8
 73
4
 74
0
 40
0
 40
0
 40
0
 40
0
 40
1
 40
1
 40
1
 40
1
 10
167.728214
 20
47.488361
 30
0.0
 10
168.005095
 20
47.008789
 30
0.0
 10
168.516792
 20
46.713361
 30
0.0
 10
169.070553
 20
46.713361
 30
0.0
  0
SPLINE
  5
2fe
100
AcDbEntity
  8
Layer_1
 62
7
100
AcDbSpline
 70
8
 71
3
 72
8
 73
4
 74
0
 40
0
 40
0
 40
0
 40
0
 40
1
 40
1
 40
1
 40
1
 10
169.070553
 20
46.713361
 30
0.0
 10
169.624315
 20
46.713361
 30
0.0
 10
170.136012
 20
47.008789
 30
0.0
 10
170.412893
 20
47.488361
 30
0.0
  0
SPLINE
  5
2ff
100
AcDbEntity
  8
Layer_1
 62
7
100
AcDbSpline
 70
8
 71
3
 72
8
 73
4
 74
0
 40
0
 40
0
 40
0
 40
0
 40
1
 40
1
 40
1
 40
1
 10
170.412893
 20
47.488361
 30
0.0
 10
170.689774
 20
47.967933
 30
0.0
 10
170.689774
 20
48.558789
 30
0.0
 10
170.412893
 20
49.038361
 30
0.0
  0
SPLINE
  5
300
100
AcDbEntity
  8
Layer_1
 62
7
100
AcDbSpline
 70
8
 71
3
 72
8
 73
4
 74
0
 40
0
 40
0
 40
0
 40
0
 40
1
 40
1
 40
1
 40
1
 10
170.412893
 20
49.038361
 30
0.0
 10
170.136012
 20
49.517933
 30
0.0
 10
169.624315
 20
49.813361
 30
0.0
 10
169.070553
 20
49.813361
 30
0.0
  0
LINE
  5
301
100
AcDbEntity
  8
Layer_1
 62
7
100
AcDbLine
 10
169.070553
 20
49.813361
 30
0.0
 11
169.070553
 21
49.813362
 31
0.0
  0
SPLINE
  5
302
100
AcDbEntity
  8
Layer_1
 62
7
100
AcDbSpline
 70
8
 71
3
 72
8
 73
4
 74
0
 40
0
 40
0
 40
0
 40
0
 40
1
 40
1
 40
1
 40
1
 10
200.820553
 20
82.813361
 30
0.0
 10
200.266569
 20
82.813695
 30
0.0
 10
199.754523
 20
82.518340
 30
0.0
 10
199.477435
 20
82.038631
 30
0.0
  0
SPLINE
  5
303
100
AcDbEntity
  8
Layer_1
 62
7
100
AcDbSpline
 70
8
 71
3
 72
8
 73
4
 74
0
 40
0
 40
0
 40
0
 40
0
 40
1
 40
1
 40
1
 40
1
 10
199.477435
 20
82.038631
 30
0.0
 10
199.200346
 20
81.558922
 30
0.0
 10
199.200346
 20
80.967800
 30
0.0
 10
199.477435
 20
80.488091
 30
0.0
  0
SPLINE
  5
304
100
AcDbEntity
  8
Layer_1
 62
7
100
AcDbSpline
 70
8
 71
3
 72
8
 73
4
 74
0
 40
0
 40
0
 40
0
 40
0
 40
1
 40
1
 40
1
 40
1
 10
199.477435
 20
80.488091
 30
0.0
 10
199.754523
 20
80.008382
 30
0.0
 10
200.266569
 20
79.713027
 30
0.0
 10
200.820553
 20
79.713361
 30
0.0
  0
SPLINE
  5
305
100
AcDbEntity
  8
Layer_1
 62
7
100
AcDbSpline
 70
8
 71
3
 72
8
 73
4
 74
0
 40
0
 40
0
 40
0
 40
0
 40
1
 40
1
 40
1
 40
1
 10
200.820553
 20
79.713361
 30
0.0
 10
201.374538
 20
79.713027
 30
0.0
 10
201.886583
 20
80.008382
 30
0.0
 10
202.163672
 20
80.488091
 30
0.0
  0
SPLINE
  5
306
100
AcDbEntity
  8
Layer_1
 62
7
100
AcDbSpline
 70
8
 71
3
 72
8
 73
4
 74
0
 40
0
 40
0
 40
0
 40
0
 40
1
 40
1
 40
1
 40
1
 10
202.163672
 20
80.488091
 30
0.0
 10
202.440761
 20
80.967800
 30
0.0
 10
202.440761
 20
81.558922
 30
0.0
 10
202.163672
 20
82.038631
 30
0.0
  0
SPLINE
  5
307
100
AcDbEntity
  8
Layer_1
 62
7
100
AcDbSpline
 70
8
 71
3
 72
8
 73
4
 74
0
 40
0
 40
0
 40
0
 40
0
 40
1
 40
1
 40
1
 40
1
 10
202.163672
 20
82.038631
 30
0.0
 10
201.886583
 20
82.518340
 30
0.0
 10
201.374538
 20
82.813695
 30
0.0
 10
200.820553
 20
82.813361
 30
0.0
  0
LINE
  5
308
100
AcDbEntity
  8
Layer_1
 62
7
100
AcDbLine
 10
200.820553
 20
82.813361
 30
0.0
 11
200.820553
 21
82.813361
 31
0.0
  0
SPLINE
  5
309
100
AcDbEntity
  8
Layer_1
 62
7
100
AcDbSpline
 70
8
 71
3
 72
8
 73
4
 74
0
 40
0
 40
0
 40
0
 40
0
 40
1
 40
1
 40
1
 40
1
 10
200.820553
 20
16.813360
 30
0.0
 10
200.265658
 20
16.815067
 30
0.0
 10
199.752182
 20
16.520014
 30
0.0
 10
199.474240
 20
16.039744
 30
0.0
  0
SPLINE
  5
30a
100
AcDbEntity
  8
Layer_1
 62
7
100
AcDbSpline
 70
8
 71
3
 72
8
 73
4
 74
0
 40
0
 40
0
 40
0
 40
0
 40
1
 40
1
 40
1
 40
1
 10
199.474240
 20
16.039744
 30
0.0
 10
199.196299
 20
15.559473
 30
0.0
 10
199.196299
 20
14.967262
 30
0.0
 10
199.474240
 20
14.486991
 30
0.0
  0
SPLINE
  5
30b
100
AcDbEntity
  8
Layer_1
 62
7
100
AcDbSpline
 70
8
 71
3
 72
8
 73
4
 74
0
 40
0
 40
0
 40
0
 40
0
 40
1
 40
1
 40
1
 40
1
 10
199.474240
 20
14.486991
 30
0.0
 10
199.752182
 20
14.006720
 30
0.0
 10
200.265658
 20
13.711667
 30
0.0
 10
200.820553
 20
13.713375
 30
0.0
  0
SPLINE
  5
30c
100
AcDbEntity
  8
Layer_1
 62
7
100
AcDbSpline
 70
8
 71
3
 72
8
 73
4
 74
0
 40
0
 40
0
 40
0
 40
0
 40
1
 40
1
 40
1
 40
1
 10
200.820553
 20
13.713375
 30
0.0
 10
201.375449
 20
13.711667
 30
0.0
 10
201.888925
 20
14.006720
 30
0.0
 10
202.166867
 20
14.486991
 30
0.0
  0
SPLINE
  5
30d
100
AcDbEntity
  8
Layer_1
 62
7
100
AcDbSpline
 70
8
 71
3
 72
8
 73
4
 74
0
 40
0
 40
0
 40
0
 40
0
 40
1
 40
1
 40
1
 40
1
 10
202.166867
 20
14.486991
 30
0.0
 10
202.444808
 20
14.967262
 30
0.0
 10
202.444808
 20
15.559473
 30
0.0
 10
202.166867
 20
16.039744
 30
0.0
  0
SPLINE
  5
30e
100
AcDbEntity
  8
Layer_1
 62
7
100
AcDbSpline
 70
8
 71
3
 72
8
 73
4
 74
0
 40
0
 40
0
 40
0
 40
0
 40
1
 40
1
 40
1
 40
1
 10
202.166867
 20
16.039744
 30
0.0
 10
201.888925
 20
16.520014
 30
0.0
 10
201.375449
 20
16.815067
 30
0.0
 10
200.820553
 20
16.813360
 30
0.0
  0
LINE
  5
30f
100
AcDbEntity
  8
Layer_1
 62
7
100
AcDbLine
 10
200.820553
 20
16.813360
 30
0.0
 11
200.820553
 21
16.813360
 31
0.0
  0
SPLINE
  5
310
100
AcDbEntity
  8
Layer_1
 62
7
100
AcDbSpline
 70
8
 71
3
 72
8
 73
4
 74
0
 40
0
 40
0
 40
0
 40
0
 40
1
 40
1
 40
1
 40
1
 10
96.071552
 20
62.071543
 30
0.0
 10
96.071555
 20
62.999802
 30
0.0
 10
95.702808
 20
63.890044
 30
0.0
 10
95.046430
 20
64.546424
 30
0.0
  0
SPLINE
  5
311
100
AcDbEntity
  8
Layer_1
 62
7
100
AcDbSpline
 70
8
 71
3
 72
8
 73
4
 74
0
 40
0
 40
0
 40
0
 40
0
 40
1
 40
1
 40
1
 40
1
 10
95.046430
 20
64.546424
 30
0.0
 10
94.390053
 20
65.202804
 30
0.0
 10
93.499813
 20
65.571555
 30
0.0
 10
92.571553
 20
65.571556
 30
0.0
  0
LINE
  5
312
100
AcDbEntity
  8
Layer_1
 62
7
100
AcDbLine
 10
92.571553
 20
65.571556
 30
0.0
 11
92.571553
 21
85.071556
 31
0.0
  0
LINE
  5
313
100
AcDbEntity
  8
Layer_1
 62
7
100
AcDbLine
 10
92.571553
 20
85.071556
 30
0.0
 11
85.071551
 21
85.071556
 31
0.0
  0
LINE
  5
314
100
AcDbEntity
  8
Layer_1
 62
7
100
AcDbLine
 10
85.071551
 20
85.071556
 30
0.0
 11
85.071551
 21
89.571555
 31
0.0
  0
LINE
  5
315
100
AcDbEntity
  8
Layer_1
 62
7
100
AcDbLine
 10
85.071551
 20
89.571555
 30
0.0
 11
75.071551
 21
89.571555
 31
0.0
  0
LINE
  5
316
100
AcDbEntity
  8
Layer_1
 62
7
100
AcDbLine
 10
75.071551
 20
89.571555
 30
0.0
 11
75.071551
 21
85.071556
 31
0.0
  0
LINE
  5
317
100
AcDbEntity
  8
Layer_1
 62
7
100
AcDbLine
 10
75.071551
 20
85.071556
 30
0.0
 11
56.821553
 21
85.071556
 31
0.0
  0
LINE
  5
318
100
AcDbEntity
  8
Layer_1
 62
7
100
AcDbLine
 10
56.821553
 20
81.271555
 30
0.0
 11
56.821553
 21
85.071556
 31
0.0
  0
LINE
  5
319
100
AcDbEntity
  8
Layer_1
 62
7
100
AcDbLine
 10
57.821551
 20
81.271555
 30
0.0
 11
56.821553
 21
81.271555
 31
0.0
  0
SPLINE
  5
31a
100
AcDbEntity
  8
Layer_1
 62
7
100
AcDbSpline
 70
8
 71
3
 72
8
 73
4
 74
0
 40
0
 40
0
 40
0
 40
0
 40
1
 40
1
 40
1
 40
1
 10
58.071552
 20
81.021557
 30
0.0
 10
58.071550
 20
81.159628
 30
0.0
 10
57.959621
 20
81.271556
 30
0.0
 10
57.821551
 20
81.271555
 30
0.0
  0
LINE
  5
31b
100
AcDbEntity
  8
Layer_1
 62
7
100
AcDbLine
 10
58.071552
 20
77.321556
 30
0.0
 11
58.071552
 21
81.021557
 31
0.0
  0
SPLINE
  5
31c
100
AcDbEntity
  8
Layer_1
 62
7
100
AcDbSpline
 70
8
 71
3
 72
8
 73
4
 74
0
 40
0
 40
0
 40
0
 40
0
 40
1
 40
1
 40
1
 40
1
 10
57.821551
 20
77.071555
 30
0.0
 10
57.887855
 20
77.071555
 30
0.0
 10
57.951444
 20
77.097894
 30
0.0
 10
57.998328
 20
77.144778
 30
0.0
  0
SPLINE
  5
31d
100
AcDbEntity
  8
Layer_1
 62
7
100
AcDbSpline
 70
8
 71
3
 72
8
 73
4
 74
0
 40
0
 40
0
 40
0
 40
0
 40
1
 40
1
 40
1
 40
1
 10
57.998328
 20
77.144778
 30
0.0
 10
58.045213
 20
77.191663
 30
0.0
 10
58.071552
 20
77.255252
 30
0.0
 10
58.071552
 20
77.321556
 30
0.0
  0
LINE
  5
31e
100
AcDbEntity
  8
Layer_1
 62
7
100
AcDbLine
 10
56.821553
 20
77.071555
 30
0.0
 11
57.821551
 21
77.071555
 31
0.0
  0
LINE
  5
31f
100
AcDbEntity
  8
Layer_1
 62
7
100
AcDbLine
 10
56.821553
 20
74.571557
 30
0.0
 11
56.821553
 21
77.071555
 31
0.0
  0
LINE
  5
320
100
AcDbEntity
  8
Layer_1
 62
7
100
AcDbLine
 10
53.321551
 20
74.571557
 30
0.0
 11
56.821553
 21
74.571557
 31
0.0
  0
LINE
  5
321
100
AcDbEntity
  8
Layer_1
 62
7
100
AcDbLine
 10
53.321551
 20
77.071555
 30
0.0
 11
53.321551
 21
74.571557
 31
0.0
  0
LINE
  5
322
100
AcDbEntity
  8
Layer_1
 62
7
100
AcDbLine
 10
52.321553
 20
77.071555
 30
0.0
 11
53.321551
 21
77.071555
 31
0.0
  0
SPLINE
  5
323
100
AcDbEntity
  8
Layer_1
 62
7
100
AcDbSpline
 70
8
 71
3
 72
8
 73
4
 74
0
 40
0
 40
0
 40
0
 40
0
 40
1
 40
1
 40
1
 40
1
 10
52.071552
 20
77.321556
 30
0.0
 10
52.071552
 20
77.255252
 30
0.0
 10
52.097891
 20
77.191663
 30
0.0
 10
52.144776
 20
77.144778
 30
0.0
  0
SPLINE
  5
324
100
AcDbEntity
  8
Layer_1
 62
7
100
AcDbSpline
 70
8
 71
3
 72
8
 73
4
 74
0
 40
0
 40
0
 40
0
 40
0
 40
1
 40
1
 40
1
 40
1
 10
52.144776
 20
77.144778
 30
0.0
 10
52.191660
 20
77.097894
 30
0.0
 10
52.255249
 20
77.071555
 30
0.0
 10
52.321553
 20
77.071555
 30
0.0
  0
LINE
  5
325
100
AcDbEntity
  8
Layer_1
 62
7
100
AcDbLine
 10
52.071552
 20
81.021557
 30
0.0
 11
52.071552
 21
77.321556
 31
0.0
  0
SPLINE
  5
326
100
AcDbEntity
  8
Layer_1
 62
7
100
AcDbSpline
 70
8
 71
3
 72
8
 73
4
 74
0
 40
0
 40
0
 40
0
 40
0
 40
1
 40
1
 40
1
 40
1
 10
52.321553
 20
81.271555
 30
0.0
 10
52.183482
 20
81.271556
 30
0.0
 10
52.071553
 20
81.159628
 30
0.0
 10
52.071552
 20
81.021557
 30
0.0
  0
LINE
  5
327
100
AcDbEntity
  8
Layer_1
 62
7
100
AcDbLine
 10
53.321551
 20
81.271555
 30
0.0
 11
52.321553
 21
81.271555
 31
0.0
  0
LINE
  5
328
100
AcDbEntity
  8
Layer_1
 62
7
100
AcDbLine
 10
53.321551
 20
85.071556
 30
0.0
 11
53.321551
 21
81.271555
 31
0.0
  0
LINE
  5
329
100
AcDbEntity
  8
Layer_1
 62
7
100
AcDbLine
 10
53.321551
 20
85.071556
 30
0.0
 11
35.071552
 21
85.071556
 31
0.0
  0
LINE
  5
32a
100
AcDbEntity
  8
Layer_1
 62
7
100
AcDbLine
 10
35.071552
 20
85.071556
 30
0.0
 11
35.071552
 21
89.571555
 31
0.0
  0
LINE
  5
32b
100
AcDbEntity
  8
Layer_1
 62
7
100
AcDbLine
 10
35.071552
 20
89.571555
 30
0.0
 11
25.071553
 21
89.571555
 31
0.0
  0
LINE
  5
32c
100
AcDbEntity
  8
Layer_1
 62
7
100
AcDbLine
 10
25.071553
 20
89.571555
 30
0.0
 11
25.071553
 21
85.071556
 31
0.0
  0
LINE
  5
32d
100
AcDbEntity
  8
Layer_1
 62
7
100
AcDbLine
 10
25.071553
 20
85.071556
 30
0.0
 11
17.571551
 21
85.071556
 31
0.0
  0
LINE
  5
32e
100
AcDbEntity
  8
Layer_1
 62
7
100
AcDbLine
 10
17.571551
 20
85.071556
 30
0.0
 11
17.571551
 21
65.571556
 31
0.0
  0
SPLINE
  5
32f
100
AcDbEntity
  8
Layer_1
 62
7
100
AcDbSpline
 70
8
 71
3
 72
8
 73
4
 74
0
 40
0
 40
0
 40
0
 40
0
 40
1
 40
1
 40
1
 40
1
 10
17.571551
 20
65.571556
 30
0.0
 10
16.643291
 20
65.571555
 30
0.0
 10
15.753051
 20
65.202804
 30
0.0
 10
15.096673
 20
64.546424
 30
0.0
  0
SPLINE
  5
330
100
AcDbEntity
  8
Layer_1
 62
7
100
AcDbSpline
 70
8
 71
3
 72
8
 73
4
 74
0
 40
0
 40
0
 40
0
 40
0
 40
1
 40
1
 40
1
 40
1
 10
15.096673
 20
64.546424
 30
0.0
 10
14.440296
 20
63.890044
 30
0.0
 10
14.071549
 20
62.999802
 30
0.0
 10
14.071552
 20
62.071543
 30
0.0
  0
LINE
  5
331
100
AcDbEntity
  8
Layer_1
 62
7
100
AcDbLine
 10
14.071552
 20
62.071543
 30
0.0
 11
14.071552
 21
58.071551
 31
0.0
  0
SPLINE
  5
332
100
AcDbEntity
  8
Layer_1
 62
7
100
AcDbSpline
 70
8
 71
3
 72
8
 73
4
 74
0
 40
0
 40
0
 40
0
 40
0
 40
1
 40
1
 40
1
 40
1
 10
14.071552
 20
58.071551
 30
0.0
 10
14.071550
 20
57.143292
 30
0.0
 10
14.440298
 20
56.253052
 30
0.0
 10
15.096675
 20
55.596673
 30
0.0
  0
SPLINE
  5
333
100
AcDbEntity
  8
Layer_1
 62
7
100
AcDbSpline
 70
8
 71
3
 72
8
 73
4
 74
0
 40
0
 40
0
 40
0
 40
0
 40
1
 40
1
 40
1
 40
1
 10
15.096675
 20
55.596673
 30
0.0
 10
15.753053
 20
54.940294
 30
0.0
 10
16.643292
 20
54.571544
 30
0.0
 10
17.571551
 20
54.571544
 30
0.0
  0
LINE
  5
334
100
AcDbEntity
  8
Layer_1
 62
7
100
AcDbLine
 10
17.571551
 20
54.571544
 30
0.0
 11
17.571551
 21
47.571558
 31
0.0
  0
LINE
  5
335
100
AcDbEntity
  8
Layer_1
 62
7
100
AcDbLine
 10
17.571551
 20
47.571558
 30
0.0
 11
10.071552
 21
40.071559
 31
0.0
  0
LINE
  5
336
100
AcDbEntity
  8
Layer_1
 62
7
100
AcDbLine
 10
10.071552
 20
40.071559
 30
0.0
 11
10.071552
 21
10.071551
 31
0.0
  0
LINE
  5
337
100
AcDbEntity
  8
Layer_1
 62
7
100
AcDbLine
 10
10.071552
 20
10.071551
 30
0.0
 11
100.071552
 21
10.071551
 31
0.0
  0
LINE
  5
338
100
AcDbEntity
  8
Layer_1
 62
7
100
AcDbLine
 10
100.071552
 20
40.071559
 30
0.0
 11
100.071552
 21
10.071551
 31
0.0
  0
LINE
  5
339
100
AcDbEntity
  8
Layer_1
 62
7
100
AcDbLine
 10
92.571553
 20
47.571558
 30
0.0
 11
100.071552
 21
40.071559
 31
0.0
  0
LINE
  5
33a
100
AcDbEntity
  8
Layer_1
 62
7
100
AcDbLine
 10
92.571553
 20
47.571558
 30
0.0
 11
92.571553
 21
54.571544
 31
0.0
  0
SPLINE
  5
33b
100
AcDbEntity
  8
Layer_1
 62
7
100
AcDbSpline
 70
8
 71
3
 72
8
 73
4
 74
0
 40
0
 40
0
 40
0
 40
0
 40
1
 40
1
 40
1
 40
1
 10
92.571553
 20
54.571544
 30
0.0
 10
93.499812
 20
54.571544
 30
0.0
 10
94.390051
 20
54.940294
 30
0.0
 10
95.046428
 20
55.596673
 30
0.0
  0
SPLINE
  5
33c
100
AcDbEntity
  8
Layer_1
 62
7
100
AcDbSpline
 70
8
 71
3
 72
8
 73
4
 74
0
 40
0
 40
0
 40
0
 40
0
 40
1
 40
1
 40
1
 40
1
 10
95.046428
 20
55.596673
 30
0.0
 10
95.702806
 20
56.253052
 30
0.0
 10
96.071554
 20
57.143292
 30
0.0
 10
96.071552
 20
58.071551
 30
0.0
  0
LINE
  5
33d
100
AcDbEntity
  8
Layer_1
 62
7
100
AcDbLine
 10
96.071552
 20
62.071543
 30
0.0
 11
96.071552
 21
58.071551
 31
0.0
  0
LINE
  5
33e
100
AcDbEntity
  8
Layer_1
 62
7
100
AcDbLine
 10
92.571553
 20
56.571568
 30
0.0
 11
92.571553
 21
63.571557
 31
0.0
  0
SPLINE
  5
33f
100
AcDbEntity
  8
Layer_1
 62
7
100
AcDbSpline
 70
8
 71
3
 72
8
 73
4
 74
0
 40
0
 40
0
 40
0
 40
0
 40
1
 40
1
 40
1
 40
1
 10
94.071553
 20
62.071543
 30
0.0
 10
94.071557
 20
62.469370
 30
0.0
 10
93.913523
 20
62.850904
 30
0.0
 10
93.632218
 20
63.132212
 30
0.0
  0
SPLINE
  5
340
100
AcDbEntity
  8
Layer_1
 62
7
100
AcDbSpline
 70
8
 71
3
 72
8
 73
4
 74
0
 40
0
 40
0
 40
0
 40
0
 40
1
 40
1
 40
1
 40
1
 10
93.632218
 20
63.132212
 30
0.0
 10
93.350913
 20
63.413519
 30
0.0
 10
92.969380
 20
63.571557
 30
0.0
 10
92.571553
 20
63.571557
 30
0.0
  0
LINE
  5
341
100
AcDbEntity
  8
Layer_1
 62
7
100
AcDbLine
 10
94.071553
 20
62.071543
 30
0.0
 11
94.071553
 21
58.071551
 31
0.0
  0
SPLINE
  5
342
100
AcDbEntity
  8
Layer_1
 62
7
100
AcDbSpline
 70
8
 71
3
 72
8
 73
4
 74
0
 40
0
 40
0
 40
0
 40
0
 40
1
 40
1
 40
1
 40
1
 10
92.571553
 20
56.571568
 30
0.0
 10
93.399973
 20
56.571568
 30
0.0
 10
94.071543
 20
57.243130
 30
0.0
 10
94.071553
 20
58.071551
 30
0.0
  0
SPLINE
  5
343
100
AcDbEntity
  8
Layer_1
 62
7
100
AcDbSpline
 70
8
 71
3
 72
8
 73
4
 74
0
 40
0
 40
0
 40
0
 40
0
 40
1
 40
1
 40
1
 40
1
 10
58.071552
 20
67.571557
 30
0.0
 10
58.072017
 20
68.643664
 30
0.0
 10
57.500322
 20
69.634530
 30
0.0
 10
56.571927
 20
70.170718
 30
0.0
  0
SPLINE
  5
344
100
AcDbEntity
  8
Layer_1
 62
7
100
AcDbSpline
 70
8
 71
3
 72
8
 73
4
 74
0
 40
0
 40
0
 40
0
 40
0
 40
1
 40
1
 40
1
 40
1
 10
56.571927
 20
70.170718
 30
0.0
 10
55.643533
 20
70.706905
 30
0.0
 10
54.499570
 20
70.706905
 30
0.0
 10
53.571176
 20
70.170718
 30
0.0
  0
SPLINE
  5
345
100
AcDbEntity
  8
Layer_1
 62
7
100
AcDbSpline
 70
8
 71
3
 72
8
 73
4
 74
0
 40
0
 40
0
 40
0
 40
0
 40
1
 40
1
 40
1
 40
1
 10
53.571176
 20
70.170718
 30
0.0
 10
52.642782
 20
69.634530
 30
0.0
 10
52.071087
 20
68.643664
 30
0.0
 10
52.071552
 20
67.571557
 30
0.0
  0
LINE
  5
346
100
AcDbEntity
  8
Layer_1
 62
7
100
AcDbLine
 10
58.071552
 20
62.571556
 30
0.0
 11
58.071552
 21
67.571557
 31
0.0
  0
SPLINE
  5
347
100
AcDbEntity
  8
Layer_1
 62
7
100
AcDbSpline
 70
8
 71
3
 72
8
 73
4
 74
0
 40
0
 40
0
 40
0
 40
0
 40
1
 40
1
 40
1
 40
1
 10
52.071552
 20
62.571556
 30
0.0
 10
52.072271
 20
60.915210
 30
0.0
 10
53.415206
 20
59.572857
 30
0.0
 10
55.071552
 20
59.572857
 30
0.0
  0
SPLINE
  5
348
100
AcDbEntity
  8
Layer_1
 62
7
100
AcDbSpline
 70
8
 71
3
 72
8
 73
4
 74
0
 40
0
 40
0
 40
0
 40
0
 40
1
 40
1
 40
1
 40
1
 10
55.071552
 20
59.572857
 30
0.0
 10
56.727898
 20
59.572857
 30
0.0
 10
58.070833
 20
60.915210
 30
0.0
 10
58.071552
 20
62.571556
 30
0.0
  0
LINE
  5
349
100
AcDbEntity
  8
Layer_1
 62
7
100
AcDbLine
 10
52.071552
 20
67.571557
 30
0.0
 11
52.071552
 21
62.571556
 31
0.0
  0
LINE
  5
34a
100
AcDbEntity
  8
Layer_1
 62
7
100
AcDbLine
 10
73.421550
 20
69.971555
 30
0.0
 11
73.421550
 21
80.171557
 31
0.0
  0
LINE
  5
34b
100
AcDbEntity
  8
Layer_1
 62
7
100
AcDbLine
 10
68.721551
 20
69.971555
 30
0.0
 11
73.421553
 21
69.971555
 31
0.0
  0
LINE
  5
34c
100
AcDbEntity
  8
Layer_1
 62
7
100
AcDbLine
 10
68.721551
 20
80.171557
 30
0.0
 11
68.721551
 21
69.971555
 31
0.0
  0
LINE
  5
34d
100
AcDbEntity
  8
Layer_1
 62
7
100
AcDbLine
 10
73.421550
 20
80.171557
 30
0.0
 11
68.721551
 21
80.171557
 31
0.0
  0
LINE
  5
34e
100
AcDbEntity
  8
Layer_1
 62
7
100
AcDbLine
 10
41.421552
 20
69.971555
 30
0.0
 11
41.421552
 21
80.171557
 31
0.0
  0
LINE
  5
34f
100
AcDbEntity
  8
Layer_1
 62
7
100
AcDbLine
 10
36.721553
 20
69.971555
 30
0.0
 11
41.421552
 21
69.971555
 31
0.0
  0
LINE
  5
350
100
AcDbEntity
  8
Layer_1
 62
7
100
AcDbLine
 10
36.721553
 20
80.171557
 30
0.0
 11
36.721553
 21
69.971555
 31
0.0
  0
LINE
  5
351
100
AcDbEntity
  8
Layer_1
 62
7
100
AcDbLine
 10
41.421552
 20
80.171557
 30
0.0
 11
36.721550
 21
80.171557
 31
0.0
  0
SPLINE
  5
352
100
AcDbEntity
  8
Layer_1
 62
7
100
AcDbSpline
 70
8
 71
3
 72
8
 73
4
 74
0
 40
0
 40
0
 40
0
 40
0
 40
1
 40
1
 40
1
 40
1
 10
89.621552
 20
16.071550
 30
0.0
 10
89.621886
 20
16.625534
 30
0.0
 10
89.326531
 20
17.137580
 30
0.0
 10
88.846822
 20
17.414669
 30
0.0
  0
SPLINE
  5
353
100
AcDbEntity
  8
Layer_1
 62
7
100
AcDbSpline
 70
8
 71
3
 72
8
 73
4
 74
0
 40
0
 40
0
 40
0
 40
0
 40
1
 40
1
 40
1
 40
1
 10
88.846822
 20
17.414669
 30
0.0
 10
88.367113
 20
17.691758
 30
0.0
 10
87.775991
 20
17.691758
 30
0.0
 10
87.296282
 20
17.414669
 30
0.0
  0
SPLINE
  5
354
100
AcDbEntity
  8
Layer_1
 62
7
100
AcDbSpline
 70
8
 71
3
 72
8
 73
4
 74
0
 40
0
 40
0
 40
0
 40
0
 40
1
 40
1
 40
1
 40
1
 10
87.296282
 20
17.414669
 30
0.0
 10
86.816573
 20
17.137580
 30
0.0
 10
86.521218
 20
16.625534
 30
0.0
 10
86.521552
 20
16.071550
 30
0.0
  0
SPLINE
  5
355
100
AcDbEntity
  8
Layer_1
 62
7
100
AcDbSpline
 70
8
 71
3
 72
8
 73
4
 74
0
 40
0
 40
0
 40
0
 40
0
 40
1
 40
1
 40
1
 40
1
 10
86.521552
 20
16.071550
 30
0.0
 10
86.521218
 20
15.517566
 30
0.0
 10
86.816573
 20
15.005520
 30
0.0
 10
87.296282
 20
14.728431
 30
0.0
  0
SPLINE
  5
356
100
AcDbEntity
  8
Layer_1
 62
7
100
AcDbSpline
 70
8
 71
3
 72
8
 73
4
 74
0
 40
0
 40
0
 40
0
 40
0
 40
1
 40
1
 40
1
 40
1
 10
87.296282
 20
14.728431
 30
0.0
 10
87.775991
 20
14.451343
 30
0.0
 10
88.367113
 20
14.451343
 30
0.0
 10
88.846822
 20
14.728431
 30
0.0
  0
SPLINE
  5
357
100
AcDbEntity
  8
Layer_1
 62
7
100
AcDbSpline
 70
8
 71
3
 72
8
 73
4
 74
0
 40
0
 40
0
 40
0
 40
0
 40
1
 40
1
 40
1
 40
1
 10
88.846822
 20
14.728431
 30
0.0
 10
89.326531
 20
15.005520
 30
0.0
 10
89.621886
 20
15.517566
 30
0.0
 10
89.621552
 20
16.071550
 30
0.0
  0
LINE
  5
358
100
AcDbEntity
  8
Layer_1
 62
7
100
AcDbLine
 10
89.621552
 20
16.071550
 30
0.0
 11
89.621552
 21
16.071550
 31
0.0
  0
SPLINE
  5
359
100
AcDbEntity
  8
Layer_1
 62
7
100
AcDbSpline
 70
8
 71
3
 72
8
 73
4
 74
0
 40
0
 40
0
 40
0
 40
0
 40
1
 40
1
 40
1
 40
1
 10
23.621551
 20
16.071550
 30
0.0
 10
23.621886
 20
16.625534
 30
0.0
 10
23.326530
 20
17.137580
 30
0.0
 10
22.846822
 20
17.414669
 30
0.0
  0
SPLINE
  5
35a
100
AcDbEntity
  8
Layer_1
 62
7
100
AcDbSpline
 70
8
 71
3
 72
8
 73
4
 74
0
 40
0
 40
0
 40
0
 40
0
 40
1
 40
1
 40
1
 40
1
 10
22.846822
 20
17.414669
 30
0.0
 10
22.367113
 20
17.691758
 30
0.0
 10
21.775990
 20
17.691758
 30
0.0
 10
21.296282
 20
17.414669
 30
0.0
  0
SPLINE
  5
35b
100
AcDbEntity
  8
Layer_1
 62
7
100
AcDbSpline
 70
8
 71
3
 72
8
 73
4
 74
0
 40
0
 40
0
 40
0
 40
0
 40
1
 40
1
 40
1
 40
1
 10
21.296282
 20
17.414669
 30
0.0
 10
20.816573
 20
17.137580
 30
0.0
 10
20.521218
 20
16.625534
 30
0.0
 10
20.521552
 20
16.071550
 30
0.0
  0
SPLINE
  5
35c
100
AcDbEntity
  8
Layer_1
 62
7
100
AcDbSpline
 70
8
 71
3
 72
8
 73
4
 74
0
 40
0
 40
0
 40
0
 40
0
 40
1
 40
1
 40
1
 40
1
 10
20.521552
 20
16.071550
 30
0.0
 10
20.521218
 20
15.517566
 30
0.0
 10
20.816573
 20
15.005520
 30
0.0
 10
21.296282
 20
14.728431
 30
0.0
  0
SPLINE
  5
35d
100
AcDbEntity
  8
Layer_1
 62
7
100
AcDbSpline
 70
8
 71
3
 72
8
 73
4
 74
0
 40
0
 40
0
 40
0
 40
0
 40
1
 40
1
 40
1
 40
1
 10
21.296282
 20
14.728431
 30
0.0
 10
21.775990
 20
14.451343
 30
0.0
 10
22.367113
 20
14.451343
 30
0.0
 10
22.846822
 20
14.728431
 30
0.0
  0
SPLINE
  5
35e
100
AcDbEntity
  8
Layer_1
 62
7
100
AcDbSpline
 70
8
 71
3
 72
8
 73
4
 74
0
 40
0
 40
0
 40
0
 40
0
 40
1
 40
1
 40
1
 40
1
 10
22.846822
 20
14.728431
 30
0.0
 10
23.326530
 20
15.005520
 30
0.0
 10
23.621886
 20
15.517566
 30
0.0
 10
23.621551
 20
16.071550
 30
0.0
  0
LINE
  5
35f
100
AcDbEntity
  8
Layer_1
 62
7
100
AcDbLine
 10
23.621551
 20
16.071550
 30
0.0
 11
23.621551
 21
16.071550
 31
0.0
  0
SPLINE
  5
360
100
AcDbEntity
  8
Layer_1
 62
7
100
AcDbSpline
 70
8
 71
3
 72
8
 73
4
 74
0
 40
0
 40
0
 40
0
 40
0
 40
1
 40
1
 40
1
 40
1
 10
96.081551
 20
24.071562
 30
0.0
 10
96.081885
 20
24.625547
 30
0.0
 10
95.786530
 20
25.137592
 30
0.0
 10
95.306821
 20
25.414681
 30
0.0
  0
SPLINE
  5
361
100
AcDbEntity
  8
Layer_1
 62
7
100
AcDbSpline
 70
8
 71
3
 72
8
 73
4
 74
0
 40
0
 40
0
 40
0
 40
0
 40
1
 40
1
 40
1
 40
1
 10
95.306821
 20
25.414681
 30
0.0
 10
94.827112
 20
25.691770
 30
0.0
 10
94.235990
 20
25.691770
 30
0.0
 10
93.756281
 20
25.414681
 30
0.0
  0
SPLINE
  5
362
100
AcDbEntity
  8
Layer_1
 62
7
100
AcDbSpline
 70
8
 71
3
 72
8
 73
4
 74
0
 40
0
 40
0
 40
0
 40
0
 40
1
 40
1
 40
1
 40
1
 10
93.756281
 20
25.414681
 30
0.0
 10
93.276572
 20
25.137592
 30
0.0
 10
92.981217
 20
24.625547
 30
0.0
 10
92.981551
 20
24.071562
 30
0.0
  0
SPLINE
  5
363
100
AcDbEntity
  8
Layer_1
 62
7
100
AcDbSpline
 70
8
 71
3
 72
8
 73
4
 74
0
 40
0
 40
0
 40
0
 40
0
 40
1
 40
1
 40
1
 40
1
 10
92.981551
 20
24.071562
 30
0.0
 10
92.981217
 20
23.517578
 30
0.0
 10
93.276572
 20
23.005532
 30
0.0
 10
93.756281
 20
22.728443
 30
0.0
  0
SPLINE
  5
364
100
AcDbEntity
  8
Layer_1
 62
7
100
AcDbSpline
 70
8
 71
3
 72
8
 73
4
 74
0
 40
0
 40
0
 40
0
 40
0
 40
1
 40
1
 40
1
 40
1
 10
93.756281
 20
22.728443
 30
0.0
 10
94.235990
 20
22.451355
 30
0.0
 10
94.827112
 20
22.451355
 30
0.0
 10
95.306821
 20
22.728443
 30
0.0
  0
SPLINE
  5
365
100
AcDbEntity
  8
Layer_1
 62
7
100
AcDbSpline
 70
8
 71
3
 72
8
 73
4
 74
0
 40
0
 40
0
 40
0
 40
0
 40
1
 40
1
 40
1
 40
1
 10
95.306821
 20
22.728443
 30
0.0
 10
95.786530
 20
23.005532
 30
0.0
 10
96.081885
 20
23.517578
 30
0.0
 10
96.081551
 20
24.071562
 30
0.0
  0
LINE
  5
366
100
AcDbEntity
  8
Layer_1
 62
7
100
AcDbLine
 10
96.081551
 20
24.071562
 30
0.0
 11
96.081551
 21
24.071562
 31
0.0
  0
SPLINE
  5
367
100
AcDbEntity
  8
Layer_1
 62
7
100
AcDbSpline
 70
8
 71
3
 72
8
 73
4
 74
0
 40
0
 40
0
 40
0
 40
0
 40
1
 40
1
 40
1
 40
1
 10
96.081551
 20
40.071559
 30
0.0
 10
96.081885
 20
40.625543
 30
0.0
 10
95.786530
 20
41.137589
 30
0.0
 10
95.306821
 20
41.414677
 30
0.0
  0
SPLINE
  5
368
100
AcDbEntity
  8
Layer_1
 62
7
100
AcDbSpline
 70
8
 71
3
 72
8
 73
4
 74
0
 40
0
 40
0
 40
0
 40
0
 40
1
 40
1
 40
1
 40
1
 10
95.306821
 20
41.414677
 30
0.0
 10
94.827112
 20
41.691766
 30
0.0
 10
94.235990
 20
41.691766
 30
0.0
 10
93.756281
 20
41.414677
 30
0.0
  0
SPLINE
  5
369
100
AcDbEntity
  8
Layer_1
 62
7
100
AcDbSpline
 70
8
 71
3
 72
8
 73
4
 74
0
 40
0
 40
0
 40
0
 40
0
 40
1
 40
1
 40
1
 40
1
 10
93.756281
 20
41.414677
 30
0.0
 10
93.276572
 20
41.137589
 30
0.0
 10
92.981217
 20
40.625543
 30
0.0
 10
92.981551
 20
40.071559
 30
0.0
  0
SPLINE
  5
36a
100
AcDbEntity
  8
Layer_1
 62
7
100
AcDbSpline
 70
8
 71
3
 72
8
 73
4
 74
0
 40
0
 40
0
 40
0
 40
0
 40
1
 40
1
 40
1
 40
1
 10
92.981551
 20
40.071559
 30
0.0
 10
92.981217
 20
39.517574
 30
0.0
 10
93.276572
 20
39.005528
 30
0.0
 10
93.756281
 20
38.728440
 30
0.0
  0
SPLINE
  5
36b
100
AcDbEntity
  8
Layer_1
 62
7
100
AcDbSpline
 70
8
 71
3
 72
8
 73
4
 74
0
 40
0
 40
0
 40
0
 40
0
 40
1
 40
1
 40
1
 40
1
 10
93.756281
 20
38.728440
 30
0.0
 10
94.235990
 20
38.451351
 30
0.0
 10
94.827112
 20
38.451351
 30
0.0
 10
95.306821
 20
38.728440
 30
0.0
  0
SPLINE
  5
36c
100
AcDbEntity
  8
Layer_1
 62
7
100
AcDbSpline
 70
8
 71
3
 72
8
 73
4
 74
0
 40
0
 40
0
 40
0
 40
0
 40
1
 40
1
 40
1
 40
1
 10
95.306821
 20
38.728440
 30
0.0
 10
95.786530
 20
39.005528
 30
0.0
 10
96.081885
 20
39.517574
 30
0.0
 10
96.081551
 20
40.071559
 30
0.0
  0
LINE
  5
36d
100
AcDbEntity
  8
Layer_1
 62
7
100
AcDbLine
 10
96.081551
 20
40.071559
 30
0.0
 11
96.081551
 21
40.071559
 31
0.0
  0
SPLINE
  5
36e
100
AcDbEntity
  8
Layer_1
 62
7
100
AcDbSpline
 70
8
 71
3
 72
8
 73
4
 74
0
 40
0
 40
0
 40
0
 40
0
 40
1
 40
1
 40
1
 40
1
 10
17.161552
 20
24.071562
 30
0.0
 10
17.161887
 20
24.625547
 30
0.0
 10
16.866531
 20
25.137592
 30
0.0
 10
16.386823
 20
25.414681
 30
0.0
  0
SPLINE
  5
36f
100
AcDbEntity
  8
Layer_1
 62
7
100
AcDbSpline
 70
8
 71
3
 72
8
 73
4
 74
0
 40
0
 40
0
 40
0
 40
0
 40
1
 40
1
 40
1
 40
1
 10
16.386823
 20
25.414681
 30
0.0
 10
15.907114
 20
25.691770
 30
0.0
 10
15.315991
 20
25.691770
 30
0.0
 10
14.836283
 20
25.414681
 30
0.0
  0
SPLINE
  5
370
100
AcDbEntity
  8
Layer_1
 62
7
100
AcDbSpline
 70
8
 71
3
 72
8
 73
4
 74
0
 40
0
 40
0
 40
0
 40
0
 40
1
 40
1
 40
1
 40
1
 10
14.836283
 20
25.414681
 30
0.0
 10
14.356574
 20
25.137592
 30
0.0
 10
14.061219
 20
24.625547
 30
0.0
 10
14.061553
 20
24.071562
 30
0.0
  0
SPLINE
  5
371
100
AcDbEntity
  8
Layer_1
 62
7
100
AcDbSpline
 70
8
 71
3
 72
8
 73
4
 74
0
 40
0
 40
0
 40
0
 40
0
 40
1
 40
1
 40
1
 40
1
 10
14.061553
 20
24.071562
 30
0.0
 10
14.061219
 20
23.517578
 30
0.0
 10
14.356574
 20
23.005532
 30
0.0
 10
14.836283
 20
22.728443
 30
0.0
  0
SPLINE
  5
372
100
AcDbEntity
  8
Layer_1
 62
7
100
AcDbSpline
 70
8
 71
3
 72
8
 73
4
 74
0
 40
0
 40
0
 40
0
 40
0
 40
1
 40
1
 40
1
 40
1
 10
14.836283
 20
22.728443
 30
0.0
 10
15.315991
 20
22.451355
 30
0.0
 10
15.907114
 20
22.451355
 30
0.0
 10
16.386823
 20
22.728443
 30
0.0
  0
SPLINE
  5
373
100
AcDbEntity
  8
Layer_1
 62
7
100
AcDbSpline
 70
8
 71
3
 72
8
 73
4
 74
0
 40
0
 40
0
 40
0
 40
0
 40
1
 40
1
 40
1
 40
1
 10
16.386823
 20
22.728443
 30
0.0
 10
16.866531
 20
23.005532
 30
0.0
 10
17.161887
 20
23.517578
 30
0.0
 10
17.161552
 20
24.071562
 30
0.0
  0
LINE
  5
374
100
AcDbEntity
  8
Layer_1
 62
7
100
AcDbLine
 10
17.161552
 20
24.071562
 30
0.0
 11
17.161552
 21
24.071562
 31
0.0
  0
SPLINE
  5
375
100
AcDbEntity
  8
Layer_1
 62
7
100
AcDbSpline
 70
8
 71
3
 72
8
 73
4
 74
0
 40
0
 40
0
 40
0
 40
0
 40
1
 40
1
 40
1
 40
1
 10
17.161552
 20
40.071559
 30
0.0
 10
17.161887
 20
40.625543
 30
0.0
 10
16.866531
 20
41.137589
 30
0.0
 10
16.386823
 20
41.414677
 30
0.0
  0
SPLINE
  5
376
100
AcDbEntity
  8
Layer_1
 62
7
100
AcDbSpline
 70
8
 71
3
 72
8
 73
4
 74
0
 40
0
 40
0
 40
0
 40
0
 40
1
 40
1
 40
1
 40
1
 10
16.386823
 20
41.414677
 30
0.0
 10
15.907114
 20
41.691766
 30
0.0
 10
15.315991
 20
41.691766
 30
0.0
 10
14.836283
 20
41.414677
 30
0.0
  0
SPLINE
  5
377
100
AcDbEntity
  8
Layer_1
 62
7
100
AcDbSpline
 70
8
 71
3
 72
8
 73
4
 74
0
 40
0
 40
0
 40
0
 40
0
 40
1
 40
1
 40
1
 40
1
 10
14.836283
 20
41.414677
 30
0.0
 10
14.356574
 20
41.137589
 30
0.0
 10
14.061219
 20
40.625543
 30
0.0
 10
14.061553
 20
40.071559
 30
0.0
  0
SPLINE
  5
378
100
AcDbEntity
  8
Layer_1
 62
7
100
AcDbSpline
 70
8
 71
3
 72
8
 73
4
 74
0
 40
0
 40
0
 40
0
 40
0
 40
1
 40
1
 40
1
 40
1
 10
14.061553
 20
40.071559
 30
0.0
 10
14.061219
 20
39.517574
 30
0.0
 10
14.356574
 20
39.005528
 30
0.0
 10
14.836283
 20
38.728440
 30
0.0
  0
SPLINE
  5
379
100
AcDbEntity
  8
Layer_1
 62
7
100
AcDbSpline
 70
8
 71
3
 72
8
 73
4
 74
0
 40
0
 40
0
 40
0
 40
0
 40
1
 40
1
 40
1
 40
1
 10
14.836283
 20
38.728440
 30
0.0
 10
15.315991
 20
38.451351
 30
0.0
 10
15.907114
 20
38.451351
 30
0.0
 10
16.386823
 20
38.728440
 30
0.0
  0
SPLINE
  5
37a
100
AcDbEntity
  8
Layer_1
 62
7
100
AcDbSpline
 70
8
 71
3
 72
8
 73
4
 74
0
 40
0
 40
0
 40
0
 40
0
 40
1
 40
1
 40
1
 40
1
 10
16.386823
 20
38.728440
 30
0.0
 10
16.866531
 20
39.005528
 30
0.0
 10
17.161887
 20
39.517574
 30
0.0
 10
17.161552
 20
40.071559
 30
0.0
  0
LINE
  5
37b
100
AcDbEntity
  8
Layer_1
 62
7
100
AcDbLine
 10
17.161552
 20
40.071559
 30
0.0
 11
17.161552
 21
40.071559
 31
0.0
  0
SPLINE
  5
37c
100
AcDbEntity
  8
Layer_1
 62
7
100
AcDbSpline
 70
8
 71
3
 72
8
 73
4
 74
0
 40
0
 40
0
 40
0
 40
0
 40
1
 40
1
 40
1
 40
1
 10
31.071552
 20
32.071546
 30
0.0
 10
31.073312
 20
28.759083
 30
0.0
 10
33.759087
 20
26.074734
 30
0.0
 10
37.071551
 20
26.074734
 30
0.0
  0
SPLINE
  5
37d
100
AcDbEntity
  8
Layer_1
 62
7
100
AcDbSpline
 70
8
 71
3
 72
8
 73
4
 74
0
 40
0
 40
0
 40
0
 40
0
 40
1
 40
1
 40
1
 40
1
 10
37.071551
 20
26.074734
 30
0.0
 10
40.384015
 20
26.074734
 30
0.0
 10
43.069791
 20
28.759083
 30
0.0
 10
43.071550
 20
32.071546
 30
0.0
  0
LINE
  5
37e
100
AcDbEntity
  8
Layer_1
 62
7
100
AcDbLine
 10
31.071552
 20
40.050759
 30
0.0
 11
31.071552
 21
32.071546
 31
0.0
  0
SPLINE
  5
37f
100
AcDbEntity
  8
Layer_1
 62
7
100
AcDbSpline
 70
8
 71
3
 72
8
 73
4
 74
0
 40
0
 40
0
 40
0
 40
0
 40
1
 40
1
 40
1
 40
1
 10
43.071550
 20
40.050759
 30
0.0
 10
45.508632
 20
42.479421
 30
0.0
 10
46.241251
 20
46.137728
 30
0.0
 10
44.927338
 20
49.317571
 30
0.0
  0
SPLINE
  5
380
100
AcDbEntity
  8
Layer_1
 62
7
100
AcDbSpline
 70
8
 71
3
 72
8
 73
4
 74
0
 40
0
 40
0
 40
0
 40
0
 40
1
 40
1
 40
1
 40
1
 10
44.927338
 20
49.317571
 30
0.0
 10
43.613426
 20
52.497414
 30
0.0
 10
40.512157
 20
54.571557
 30
0.0
 10
37.071551
 20
54.571557
 30
0.0
  0
SPLINE
  5
381
100
AcDbEntity
  8
Layer_1
 62
7
100
AcDbSpline
 70
8
 71
3
 72
8
 73
4
 74
0
 40
0
 40
0
 40
0
 40
0
 40
1
 40
1
 40
1
 40
1
 10
37.071551
 20
54.571557
 30
0.0
 10
33.630945
 20
54.571557
 30
0.0
 10
30.529677
 20
52.497414
 30
0.0
 10
29.215764
 20
49.317571
 30
0.0
  0
SPLINE
  5
382
100
AcDbEntity
  8
Layer_1
 62
7
100
AcDbSpline
 70
8
 71
3
 72
8
 73
4
 74
0
 40
0
 40
0
 40
0
 40
0
 40
1
 40
1
 40
1
 40
1
 10
29.215764
 20
49.317571
 30
0.0
 10
27.901852
 20
46.137728
 30
0.0
 10
28.634470
 20
42.479421
 30
0.0
 10
31.071552
 20
40.050759
 30
0.0
  0
LINE
  5
383
100
AcDbEntity
  8
Layer_1
 62
7
100
AcDbLine
 10
43.071550
 20
32.071546
 30
0.0
 11
43.071550
 21
40.050759
 31
0.0
  0
LINE
  5
384
100
AcDbEntity
  8
Layer_1
 62
7
100
AcDbLine
 10
85.721551
 20
35.171560
 30
0.0
 11
85.721551
 21
24.971569
 31
0.0
  0
LINE
  5
385
100
AcDbEntity
  8
Layer_1
 62
7
100
AcDbLine
 10
90.421553
 20
35.171560
 30
0.0
 11
85.721551
 21
35.171560
 31
0.0
  0
LINE
  5
386
100
AcDbEntity
  8
Layer_1
 62
7
100
AcDbLine
 10
90.421553
 20
24.971569
 30
0.0
 11
90.421553
 21
35.171560
 31
0.0
  0
LINE
  5
387
100
AcDbEntity
  8
Layer_1
 62
7
100
AcDbLine
 10
85.721551
 20
24.971569
 30
0.0
 11
90.421553
 21
24.971569
 31
0.0
  0
LINE
  5
388
100
AcDbEntity
  8
Layer_1
 62
7
100
AcDbLine
 10
24.421552
 20
24.971569
 30
0.0
 11
24.421552
 21
35.171560
 31
0.0
  0
LINE
  5
389
100
AcDbEntity
  8
Layer_1
 62
7
100
AcDbLine
 10
19.721551
 20
24.971569
 30
0.0
 11
24.421552
 21
24.971569
 31
0.0
  0
LINE
  5
38a
100
AcDbEntity
  8
Layer_1
 62
7
100
AcDbLine
 10
19.721551
 20
35.171560
 30
0.0
 11
19.721551
 21
24.971569
 31
0.0
  0
LINE
  5
38b
100
AcDbEntity
  8
Layer_1
 62
7
100
AcDbLine
 10
24.421552
 20
35.171560
 30
0.0
 11
19.721551
 21
35.171560
 31
0.0
  0
LINE
  5
38c
100
AcDbEntity
  8
Layer_1
 62
7
100
AcDbLine
 10
24.421552
 20
64.971557
 30
0.0
 11
24.421552
 21
75.171556
 31
0.0
  0
LINE
  5
38d
100
AcDbEntity
  8
Layer_1
 62
7
100
AcDbLine
 10
19.721551
 20
64.971557
 30
0.0
 11
24.421552
 21
64.971557
 31
0.0
  0
LINE
  5
38e
100
AcDbEntity
  8
Layer_1
 62
7
100
AcDbLine
 10
19.721551
 20
75.171556
 30
0.0
 11
19.721551
 21
64.971557
 31
0.0
  0
LINE
  5
38f
100
AcDbEntity
  8
Layer_1
 62
7
100
AcDbLine
 10
24.421552
 20
75.171556
 30
0.0
 11
19.721551
 21
75.171556
 31
0.0
  0
LINE
  5
390
100
AcDbEntity
  8
Layer_1
 62
7
100
AcDbLine
 10
90.421553
 20
64.971557
 30
0.0
 11
90.421553
 21
75.171556
 31
0.0
  0
LINE
  5
391
100
AcDbEntity
  8
Layer_1
 62
7
100
AcDbLine
 10
85.721551
 20
64.971557
 30
0.0
 11
90.421553
 21
64.971557
 31
0.0
  0
LINE
  5
392
100
AcDbEntity
  8
Layer_1
 62
7
100
AcDbLine
 10
85.721551
 20
75.171556
 30
0.0
 11
85.721551
 21
64.971557
 31
0.0
  0
LINE
  5
393
100
AcDbEntity
  8
Layer_1
 62
7
100
AcDbLine
 10
90.421553
 20
75.171556
 30
0.0
 11
85.721551
 21
75.171556
 31
0.0
  0
LINE
  5
394
100
AcDbEntity
  8
Layer_1
 62
7
100
AcDbLine
 10
79.071552
 20
40.050759
 30
0.0
 11
79.071552
 21
32.071546
 31
0.0
  0
SPLINE
  5
395
100
AcDbEntity
  8
Layer_1
 62
7
100
AcDbSpline
 70
8
 71
3
 72
8
 73
4
 74
0
 40
0
 40
0
 40
0
 40
0
 40
1
 40
1
 40
1
 40
1
 10
67.071553
 20
32.071546
 30
0.0
 10
67.073313
 20
28.759083
 30
0.0
 10
69.759089
 20
26.074734
 30
0.0
 10
73.071553
 20
26.074734
 30
0.0
  0
SPLINE
  5
396
100
AcDbEntity
  8
Layer_1
 62
7
100
AcDbSpline
 70
8
 71
3
 72
8
 73
4
 74
0
 40
0
 40
0
 40
0
 40
0
 40
1
 40
1
 40
1
 40
1
 10
73.071553
 20
26.074734
 30
0.0
 10
76.384016
 20
26.074734
 30
0.0
 10
79.069792
 20
28.759083
 30
0.0
 10
79.071552
 20
32.071546
 30
0.0
  0
LINE
  5
397
100
AcDbEntity
  8
Layer_1
 62
7
100
AcDbLine
 10
67.071553
 20
32.071546
 30
0.0
 11
67.071553
 21
40.050759
 31
0.0
  0
SPLINE
  5
398
100
AcDbEntity
  8
Layer_1
 62
7
100
AcDbSpline
 70
8
 71
3
 72
8
 73
4
 74
0
 40
0
 40
0
 40
0
 40
0
 40
1
 40
1
 40
1
 40
1
 10
79.071552
 20
40.050759
 30
0.0
 10
81.508633
 20
42.479421
 30
0.0
 10
82.241252
 20
46.137728
 30
0.0
 10
80.927340
 20
49.317571
 30
0.0
  0
SPLINE
  5
399
100
AcDbEntity
  8
Layer_1
 62
7
100
AcDbSpline
 70
8
 71
3
 72
8
 73
4
 74
0
 40
0
 40
0
 40
0
 40
0
 40
1
 40
1
 40
1
 40
1
 10
80.927340
 20
49.317571
 30
0.0
 10
79.613427
 20
52.497414
 30
0.0
 10
76.512158
 20
54.571557
 30
0.0
 10
73.071553
 20
54.571557
 30
0.0
  0
SPLINE
  5
39a
100
AcDbEntity
  8
Layer_1
 62
7
100
AcDbSpline
 70
8
 71
3
 72
8
 73
4
 74
0
 40
0
 40
0
 40
0
 40
0
 40
1
 40
1
 40
1
 40
1
 10
73.071553
 20
54.571557
 30
0.0
 10
69.630947
 20
54.571557
 30
0.0
 10
66.529678
 20
52.497414
 30
0.0
 10
65.215765
 20
49.317571
 30
0.0
  0
SPLINE
  5
39b
100
AcDbEntity
  8
Layer_1
 62
7
100
AcDbSpline
 70
8
 71
3
 72
8
 73
4
 74
0
 40
0
 40
0
 40
0
 40
0
 40
1
 40
1
 40
1
 40
1
 10
65.215765
 20
49.317571
 30
0.0
 10
63.901853
 20
46.137728
 30
0.0
 10
64.634472
 20
42.479421
 30
0.0
 10
67.071553
 20
40.050759
 30
0.0
  0
SPLINE
  5
39c
100
AcDbEntity
  8
Layer_1
 62
7
100
AcDbSpline
 70
8
 71
3
 72
8
 73
4
 74
0
 40
0
 40
0
 40
0
 40
0
 40
1
 40
1
 40
1
 40
1
 10
17.571551
 20
63.571557
 30
0.0
 10
17.173724
 20
63.571557
 30
0.0
 10
16.792191
 20
63.413519
 30
0.0
 10
16.510886
 20
63.132212
 30
0.0
  0
SPLINE
  5
39d
100
AcDbEntity
  8
Layer_1
 62
7
100
AcDbSpline
 70
8
 71
3
 72
8
 73
4
 74
0
 40
0
 40
0
 40
0
 40
0
 40
1
 40
1
 40
1
 40
1
 10
16.510886
 20
63.132212
 30
0.0
 10
16.229581
 20
62.850904
 30
0.0
 10
16.071547
 20
62.469370
 30
0.0
 10
16.071551
 20
62.071543
 30
0.0
  0
LINE
  5
39e
100
AcDbEntity
  8
Layer_1
 62
7
100
AcDbLine
 10
17.571551
 20
63.571557
 30
0.0
 11
17.571551
 21
56.571568
 31
0.0
  0
SPLINE
  5
39f
100
AcDbEntity
  8
Layer_1
 62
7
100
AcDbSpline
 70
8
 71
3
 72
8
 73
4
 74
0
 40
0
 40
0
 40
0
 40
0
 40
1
 40
1
 40
1
 40
1
 10
16.071551
 20
58.071551
 30
0.0
 10
16.071560
 20
57.243130
 30
0.0
 10
16.743130
 20
56.571568
 30
0.0
 10
17.571551
 20
56.571568
 30
0.0
  0
LINE
  5
3a0
100
AcDbEntity
  8
Layer_1
 62
7
100
AcDbLine
 10
16.071551
 20
62.071543
 30
0.0
 11
16.071551
 21
58.071551
 31
0.0
  0
ENDSEC
  0
SECTION
  2
OBJECTS
  0
DICTIONARY
  5
C
330
0
100
AcDbDictionary
  3
ACAD_GROUP
350
D
  3
ACAD_MLINESTYLE
350
17
  0
DICTIONARY
  5
D
330
C
100
AcDbDictionary
  0
DICTIONARY
  5
1A
330
C
100
AcDbDictionary
  0
DICTIONARY
  5
17
330
C
100
AcDbDictionary
  3
STANDARD
350
18
  0
DICTIONARY
  5
19
330
C
100
AcDbDictionary
  0
ENDSEC
  0
EOF
